<svg width="90" height="117" viewBox="0 0 90 117" fill="none" xmlns="http://www.w3.org/2000/svg">
<g id="Group 205">
<path id="2" d="M45.82 55.4641C49.5373 51.7467 52.544 47.9747 54.84 44.1481C57.136 40.3214 58.284 36.9321 58.284 33.9801C58.284 30.1534 56.8626 27.2014 54.02 25.1241C51.2866 23.0467 47.46 22.0081 42.54 22.0081C37.62 22.0081 32.3173 23.3201 26.632 25.944C21.056 28.4587 15.6986 31.9027 10.56 36.2761L0.391968 17.5801C7.49863 12.4414 14.8786 8.39605 22.532 5.44405C30.2946 2.38272 38.2213 0.852051 46.312 0.852051C53.9653 0.852051 60.6893 2.05471 66.484 4.46004C72.388 6.86538 76.98 10.3094 80.26 14.792C83.6493 19.1654 85.344 24.3587 85.344 30.3721C85.344 36.3854 83.2666 42.6174 79.112 49.0681C75.0666 55.4094 69.8186 61.86 63.368 68.42L28.764 103.844L25.484 95.972H89.608V116.8H3.34397V99.58L45.82 55.4641Z" fill="url(#paint0_linear_13020_2489)"/>
<g id="2_2" style="mix-blend-mode:plus-lighter">
<path d="M45.82 55.4641C49.5373 51.7467 52.544 47.9747 54.84 44.1481C57.136 40.3214 58.284 36.9321 58.284 33.9801C58.284 30.1534 56.8626 27.2014 54.02 25.1241C51.2866 23.0467 47.46 22.0081 42.54 22.0081C37.62 22.0081 32.3173 23.3201 26.632 25.944C21.056 28.4587 15.6986 31.9027 10.56 36.2761L0.391968 17.5801C7.49863 12.4414 14.8786 8.39605 22.532 5.44405C30.2946 2.38272 38.2213 0.852051 46.312 0.852051C53.9653 0.852051 60.6893 2.05471 66.484 4.46004C72.388 6.86538 76.98 10.3094 80.26 14.792C83.6493 19.1654 85.344 24.3587 85.344 30.3721C85.344 36.3854 83.2666 42.6174 79.112 49.0681C75.0666 55.4094 69.8186 61.86 63.368 68.42L28.764 103.844L25.484 95.972H89.608V116.8H3.34397V99.58L45.82 55.4641Z" fill="url(#paint1_linear_13020_2489)"/>
</g>
</g>
<defs>
<linearGradient id="paint0_linear_13020_2489" x1="45" y1="0.852051" x2="45" y2="116.8" gradientUnits="userSpaceOnUse">
<stop stop-color="#32D9F6"/>
<stop offset="1" stop-color="#1C1C1C" stop-opacity="0"/>
</linearGradient>
<linearGradient id="paint1_linear_13020_2489" x1="45" y1="0.852051" x2="45" y2="116.8" gradientUnits="userSpaceOnUse">
<stop stop-color="#32D9F6"/>
<stop offset="1" stop-color="#1C1C1C" stop-opacity="0"/>
</linearGradient>
</defs>
</svg>
