<svg width="92" height="117" viewBox="0 0 92 117" fill="none" xmlns="http://www.w3.org/2000/svg">
<g id="Group 206">
<path id="3" d="M58.0539 48.412C67.8939 49.5053 75.8206 52.7853 81.8339 58.252C87.9566 63.6093 91.0179 70.7707 91.0179 79.736C91.0179 86.952 89.1046 93.4027 85.2779 99.088C81.5606 104.664 76.2579 109.037 69.3699 112.208C62.4819 115.269 54.3366 116.8 44.9339 116.8C36.7339 116.8 28.6979 115.597 20.8259 113.192C13.0633 110.677 6.4486 107.397 0.981934 103.352L10.9859 84.82C15.6873 88.756 20.7713 91.7627 26.2379 93.84C31.7046 95.9173 37.2806 96.956 42.9659 96.956C47.7766 96.956 51.8766 96.3 55.2659 94.988C58.6553 93.5667 61.2246 91.5987 62.9739 89.084C64.7233 86.46 65.5979 83.4533 65.5979 80.064C65.5979 74.7067 63.5753 70.6613 59.5299 67.928C55.5939 65.1947 50.0179 63.828 42.8019 63.828H24.2699V49.396L61.8259 12.824L65.2699 21.024H6.88593L6.72193 0.687988H85.2779V15.776L43.6219 55.3L40.6699 45.952L58.0539 48.412Z" fill="url(#paint0_linear_13020_2496)"/>
<g id="3_2" style="mix-blend-mode:plus-lighter">
<path d="M58.0539 48.412C67.8939 49.5053 75.8206 52.7853 81.8339 58.252C87.9566 63.6093 91.0179 70.7707 91.0179 79.736C91.0179 86.952 89.1046 93.4027 85.2779 99.088C81.5606 104.664 76.2579 109.037 69.3699 112.208C62.4819 115.269 54.3366 116.8 44.9339 116.8C36.7339 116.8 28.6979 115.597 20.8259 113.192C13.0633 110.677 6.4486 107.397 0.981934 103.352L10.9859 84.82C15.6873 88.756 20.7713 91.7627 26.2379 93.84C31.7046 95.9173 37.2806 96.956 42.9659 96.956C47.7766 96.956 51.8766 96.3 55.2659 94.988C58.6553 93.5667 61.2246 91.5987 62.9739 89.084C64.7233 86.46 65.5979 83.4533 65.5979 80.064C65.5979 74.7067 63.5753 70.6613 59.5299 67.928C55.5939 65.1947 50.0179 63.828 42.8019 63.828H24.2699V49.396L61.8259 12.824L65.2699 21.024H6.88593L6.72193 0.687988H85.2779V15.776L43.6219 55.3L40.6699 45.952L58.0539 48.412Z" fill="url(#paint1_linear_13020_2496)"/>
</g>
</g>
<defs>
<linearGradient id="paint0_linear_13020_2496" x1="45.9999" y1="0.687988" x2="45.9999" y2="116.8" gradientUnits="userSpaceOnUse">
<stop stop-color="#3248F6"/>
<stop offset="1" stop-color="#1C1C1C" stop-opacity="0"/>
</linearGradient>
<linearGradient id="paint1_linear_13020_2496" x1="45.9999" y1="0.687988" x2="45.9999" y2="116.8" gradientUnits="userSpaceOnUse">
<stop stop-color="#3248F6"/>
<stop offset="1" stop-color="#1C1C1C" stop-opacity="0"/>
</linearGradient>
</defs>
</svg>
