<svg width="50" height="48" viewBox="0 0 50 48" fill="none" xmlns="http://www.w3.org/2000/svg">
<path d="M27.5 14.825C29.625 14.075 31.325 12.375 32.075 10.25H40L32.5 27.75C32.5 31.9 36.425 35.25 41.25 35.25C46.075 35.25 50 31.9 50 27.75L42.5 10.25H47.5V5.25H32.075C31.05 2.325 28.275 0.25 25 0.25C21.725 0.25 18.95 2.325 17.925 5.25H2.5V10.25H7.5L0 27.75C0 31.9 3.925 35.25 8.75 35.25C13.575 35.25 17.5 31.9 17.5 27.75L10 10.25H17.925C18.675 12.375 20.375 14.075 22.5 14.825V42.75H0V47.75H50V42.75H27.5V14.825ZM45.925 27.75H36.575L41.25 16.85L45.925 27.75ZM13.425 27.75H4.075L8.75 16.85L13.425 27.75ZM25 10.25C23.625 10.25 22.5 9.125 22.5 7.75C22.5 6.375 23.625 5.25 25 5.25C26.375 5.25 27.5 6.375 27.5 7.75C27.5 9.125 26.375 10.25 25 10.25Z" fill="white"/>
</svg>
