<?xml version="1.0" encoding="UTF-8"?>
<svg id="Layer_1" xmlns="http://www.w3.org/2000/svg" version="1.1" viewBox="0 0 50 48">
  <!-- Generator: Adobe Illustrator 29.8.2, SVG Export Plug-In . SVG Version: 2.1.1 Build 3)  -->
  <path d="M27.5,14.8c2.1-.8,3.8-2.4,4.6-4.6h7.9l-7.5,17.5c0,4.1,3.9,7.5,8.8,7.5s8.8-3.4,8.8-7.5l-7.5-17.5h5v-5h-15.4c-1-2.9-3.8-5-7.1-5s-6,2.1-7.1,5H2.5v5h5L0,27.8c0,4.1,3.9,7.5,8.8,7.5s8.8-3.4,8.8-7.5l-7.5-17.5h7.9c.8,2.1,2.5,3.8,4.6,4.6v27.9H0v5h50v-5h-22.5V14.8ZM45.9,27.8h-9.3l4.7-10.9,4.7,10.9ZM13.4,27.8H4.1l4.7-10.9,4.7,10.9ZM25,10.2c-1.4,0-2.5-1.1-2.5-2.5s1.1-2.5,2.5-2.5,2.5,1.1,2.5,2.5-1.1,2.5-2.5,2.5Z"/>
</svg>