<?xml version="1.0" encoding="UTF-8"?>
<svg id="Layer_1" xmlns="http://www.w3.org/2000/svg" xmlns:xlink="http://www.w3.org/1999/xlink" version="1.1" viewBox="0 0 48 48">
  <!-- Generator: Adobe Illustrator 29.8.1, SVG Export Plug-In . SVG Version: 2.1.1 Build 2)  -->
  <defs>
    <style>
      .st0 {
        fill: none;
      }

      .st1 {
        fill: #fff;
        fill-rule: evenodd;
      }

      .st2 {
        fill: #f38bb2;
      }

      .st3 {
        clip-path: url(#clippath);
      }
    </style>
    <clipPath id="clippath">
      <rect class="st0" x="14" y="14" width="20" height="20"/>
    </clipPath>
  </defs>
  <rect class="st2" width="48" height="48"/>
  <g class="st3">
    <path class="st1" d="M24.6,15.1c-.1-.2-.4-.3-.6-.3s-.5.1-.6.3l-4.3,7.1c-.1.2-.1.5,0,.7.1.2.4.4.6.4h8.6c.3,0,.5-.1.6-.4.1-.2.1-.5,0-.7l-4.3-7.1ZM29,24.7c-2.4,0-4.3,1.9-4.3,4.3s1.9,4.3,4.3,4.3,4.3-1.9,4.3-4.3-1.9-4.3-4.3-4.3ZM14.7,25.4c0-.4.3-.7.7-.7h7.1c.4,0,.7.3.7.7v7.1c0,.4-.3.7-.7.7h-7.1c-.4,0-.7-.3-.7-.7v-7.1Z"/>
  </g>
</svg>