<svg width="26" height="26" viewBox="0 0 26 26" fill="none" xmlns="http://www.w3.org/2000/svg">
<path d="M8.66667 19.5V16.25M13 14.0833V19.5M17.3333 19.5V11.9167M7.04167 12.4583L8.62832 10.6072C9.65842 9.40545 11.249 8.84073 12.8063 9.12388V9.12388C14.9631 9.51601 17.1749 8.82507 18.725 7.27503L18.9583 7.04167M11.05 22.75H14.95C18.1998 22.75 19.8247 22.75 20.9637 21.9224C21.3316 21.6551 21.6551 21.3316 21.9224 20.9637C22.75 19.8247 22.75 18.1998 22.75 14.95V11.05C22.75 7.80023 22.75 6.17535 21.9224 5.03626C21.6551 4.66839 21.3316 4.34487 20.9637 4.07759C19.8247 3.25 18.1998 3.25 14.95 3.25H11.05C7.80023 3.25 6.17535 3.25 5.03626 4.07759C4.66839 4.34487 4.34487 4.66839 4.07759 5.03626C3.25 6.17535 3.25 7.80023 3.25 11.05V14.95C3.25 18.1998 3.25 19.8247 4.07759 20.9637C4.34487 21.3316 4.66839 21.6551 5.03626 21.9224C6.17535 22.75 7.80023 22.75 11.05 22.75Z" stroke="white" stroke-width="1.625" stroke-linecap="round" stroke-linejoin="round"/>
</svg>
