<svg width="26" height="26" viewBox="0 0 26 26" fill="none" xmlns="http://www.w3.org/2000/svg">
<path d="M15.6511 13C15.6511 14.461 14.4665 15.6453 13.0053 15.6453C11.544 15.6453 10.3594 14.461 10.3594 13C10.3594 11.539 11.544 10.3547 13.0053 10.3547C14.4665 10.3547 15.6511 11.539 15.6511 13Z" stroke="#0C0826" stroke-width="1.625" stroke-linejoin="round"/>
<path d="M9.93065 5.08357C10.5232 4.41697 10.8195 4.08368 11.1175 3.87104C12.247 3.06512 13.7635 3.06512 14.893 3.87104C15.191 4.08368 15.4873 4.41697 16.0799 5.08357V5.08357C16.2682 5.29538 16.3623 5.40129 16.4628 5.49656C16.8346 5.8492 17.2845 6.10893 17.7758 6.25454C17.9086 6.29388 18.0474 6.32245 18.3252 6.37961V6.37961C19.198 6.55923 19.6344 6.64905 19.9671 6.80042C21.2311 7.37548 21.9901 8.69009 21.8561 10.0723C21.8208 10.4361 21.6804 10.8587 21.3997 11.7038V11.7038C21.3105 11.9726 21.2659 12.1069 21.2336 12.2415C21.1139 12.7401 21.1139 13.2599 21.2336 13.7585C21.2659 13.8931 21.3105 14.0274 21.3997 14.2962V14.2962C21.6804 15.1413 21.8208 15.5639 21.8561 15.9277C21.9901 17.3099 21.2311 18.6245 19.9671 19.1996C19.6344 19.351 19.198 19.4408 18.3252 19.6204V19.6204C18.0474 19.6775 17.9086 19.7061 17.7758 19.7455C17.2845 19.8911 16.8346 20.1508 16.4628 20.5034C16.3623 20.5987 16.2682 20.7046 16.0799 20.9164V20.9164C15.4873 21.583 15.191 21.9163 14.893 22.129C13.7635 22.9349 12.247 22.9349 11.1175 22.129C10.8195 21.9163 10.5232 21.583 9.93065 20.9164V20.9164C9.74235 20.7046 9.6482 20.5987 9.54774 20.5034C9.17594 20.1508 8.72601 19.8911 8.2347 19.7455C8.10195 19.7061 7.96309 19.6775 7.68536 19.6204V19.6204C6.81255 19.4408 6.37614 19.351 6.04342 19.1996C4.77944 18.6245 4.02046 17.3099 4.15446 15.9277C4.18973 15.5639 4.33008 15.1413 4.61077 14.2962V14.2962C4.70002 14.0274 4.74464 13.8931 4.77693 13.7585C4.89661 13.2599 4.89661 12.7401 4.77693 12.2415C4.74464 12.1069 4.70002 11.9726 4.61077 11.7038V11.7038C4.33008 10.8587 4.18973 10.4361 4.15446 10.0723C4.02046 8.69009 4.77944 7.37548 6.04342 6.80042C6.37614 6.64905 6.81255 6.55923 7.68536 6.37961V6.37961C7.96309 6.32245 8.10195 6.29388 8.2347 6.25454C8.72601 6.10893 9.17594 5.8492 9.54774 5.49656C9.6482 5.40129 9.74235 5.29538 9.93065 5.08357V5.08357Z" stroke="#0C0826" stroke-width="1.625" stroke-linejoin="round"/>
</svg>
