<svg width="86" height="56" viewBox="0 0 86 56" fill="none" xmlns="http://www.w3.org/2000/svg">
<path d="M3.43923 7.12096C5.73783 7.12096 6.71921 7.77502 8.20437 8.76508C10.043 9.99086 12.3311 11.5166 16.6258 11.5166C20.9207 11.5166 23.2089 9.991 25.0474 8.76508C26.5322 7.77502 27.5134 7.12124 29.8113 7.12124C32.1098 7.12124 33.0907 7.7753 34.5759 8.76508C36.4148 9.99114 38.7029 11.5166 42.9982 11.5166C47.2927 11.5166 49.5814 9.991 51.4203 8.76508C52.9051 7.77516 53.8863 7.12124 56.1848 7.12124C58.4837 7.12124 59.4652 7.7753 60.9503 8.76536C62.7893 9.99114 65.0777 11.5169 69.3728 11.5169C73.6676 11.5169 75.9559 9.99128 77.7947 8.76536C79.2801 7.7753 80.2613 7.12124 82.5602 7.12124C84.3809 7.12124 85.8569 5.64518 85.8569 3.82459C85.8569 2.00385 84.3809 0.52766 82.5602 0.52766C78.2647 0.52766 75.9763 2.05329 74.1374 3.27921C72.6522 4.26927 71.671 4.92305 69.3728 4.92305C67.0739 4.92305 66.0928 4.26899 64.6076 3.27893C62.7687 2.05315 60.4802 0.52738 56.1848 0.52738C51.8899 0.52738 49.6016 2.05301 47.7626 3.27893C46.2777 4.26899 45.2966 4.92305 42.9982 4.92305C40.6993 4.92305 39.7182 4.26899 38.233 3.27893C36.3944 2.05315 34.1057 0.52738 29.8112 0.52738C25.5163 0.52738 23.2281 2.05301 21.3896 3.27893C19.9048 4.26899 18.9236 4.92277 16.6257 4.92277C14.3278 4.92277 13.3464 4.26871 11.8618 3.27893C10.0229 2.05287 7.73448 0.5271 3.43923 0.5271C1.61849 0.52752 0.142578 2.00357 0.142578 3.82431C0.142578 5.64504 1.61849 7.12096 3.43923 7.12096ZM82.5605 22.5056C78.265 22.5056 75.9766 24.0312 74.1376 25.2572C72.6525 26.2472 71.6712 26.901 69.3731 26.901C67.0742 26.901 66.0931 26.2469 64.6079 25.2569C62.769 24.0311 60.4804 22.5053 56.1851 22.5053C51.8902 22.5053 49.6018 24.031 47.7629 25.2569C46.278 26.2468 45.2969 26.9007 42.9985 26.9007C40.6996 26.9007 39.7185 26.2467 38.2333 25.2566C36.3947 24.0308 34.106 22.505 29.8114 22.505C25.5166 22.505 23.2284 24.0307 21.3898 25.2566C19.9051 26.2467 18.9239 26.9004 16.626 26.9004C14.3281 26.9004 13.3467 26.2464 11.8621 25.2566C10.0231 24.0308 7.73476 22.505 3.43951 22.505C1.61849 22.5056 0.142578 23.9817 0.142578 25.8023C0.142578 27.623 1.61849 29.0989 3.43923 29.0989C5.73783 29.0989 6.71921 29.753 8.20437 30.743C10.043 31.9688 12.3311 33.4946 16.6258 33.4946C20.9207 33.4946 23.2089 31.9689 25.0474 30.743C26.5322 29.753 27.5134 29.0992 29.8113 29.0992C32.1098 29.0992 33.0907 29.7532 34.5759 30.743C36.4148 31.9691 38.7029 33.4946 42.9982 33.4946C47.2927 33.4946 49.5814 31.9689 51.4203 30.743C52.9051 29.753 53.8863 29.0989 56.1848 29.0989C58.4837 29.0989 59.4652 29.753 60.9503 30.743C62.7893 31.9688 65.0777 33.4946 69.3728 33.4946C73.6676 33.4946 75.9559 31.9691 77.7947 30.743C79.2801 29.753 80.2613 29.0989 82.5602 29.0989C84.3809 29.0989 85.8569 27.6228 85.8569 25.8023C85.8571 23.9817 84.3812 22.5056 82.5605 22.5056ZM82.5605 44.4837C78.265 44.4837 75.9766 46.0093 74.1376 47.2352C72.6525 48.2253 71.6712 48.8794 69.3731 48.8794C67.0742 48.8794 66.0931 48.2253 64.6079 47.2352C62.769 46.0095 60.4804 44.4837 56.1851 44.4837C51.8902 44.4837 49.6018 46.0093 47.7629 47.2352C46.278 48.2252 45.2969 48.8794 42.9985 48.8794C40.6996 48.8794 39.7185 48.2253 38.2333 47.2352C36.3947 46.0095 34.106 44.4837 29.8114 44.4837C25.5166 44.4837 23.2284 46.0093 21.3898 47.2352C19.9051 48.2253 18.9239 48.8794 16.626 48.8794C14.3281 48.8794 13.3467 48.2253 11.8621 47.2352C10.0231 46.0095 7.73476 44.4837 3.43951 44.4837C1.61849 44.4837 0.142578 45.9597 0.142578 47.7803C0.142578 49.6011 1.61849 51.0773 3.43923 51.0773C5.73783 51.0773 6.71921 51.7313 8.20437 52.7214C10.043 53.9472 12.3311 55.4729 16.6258 55.4729C20.9207 55.4729 23.2089 53.9473 25.0474 52.7214C26.5322 51.7313 27.5134 51.0775 29.8113 51.0775C32.1098 51.0775 33.0907 51.7316 34.5759 52.7214C36.4148 53.9472 38.7029 55.4729 42.9982 55.4729C47.2927 55.4729 49.5814 53.9473 51.4203 52.7214C52.9051 51.7313 53.8863 51.0773 56.1848 51.0773C58.4837 51.0773 59.4652 51.7313 60.9503 52.7214C62.7893 53.9472 65.0777 55.4727 69.3728 55.4727C73.6676 55.4727 75.9559 53.9472 77.7947 52.7214C79.2801 51.7313 80.2613 51.0773 82.5602 51.0773C84.3809 51.0773 85.8569 49.6012 85.8569 47.7803C85.8571 45.9597 84.3812 44.4837 82.5605 44.4837Z" fill="black"/>
</svg>
