<svg width="269" height="182" viewBox="0 0 269 182" fill="none" xmlns="http://www.w3.org/2000/svg">
<path d="M0 25C0 11.1929 11.1929 0 25 0H244C257.807 0 269 11.1929 269 25V156.477C269 170.284 257.807 181.477 244 181.477H25C11.1929 181.477 0 170.284 0 156.477V25Z" fill="#0C0826"/>
<path d="M51.2061 31.984C51.3341 31.984 51.4621 32.024 51.5821 32.144L52.6541 33.272C51.7181 34.496 50.3101 35.128 48.3821 35.128C46.6141 35.128 45.1981 34.488 44.2221 33.424C43.2461 32.368 42.7021 30.872 42.7021 29.168C42.7021 27.432 43.3341 25.944 44.4061 24.888C45.4781 23.832 46.9981 23.216 48.7981 23.216C49.6701 23.216 50.4461 23.376 51.1181 23.648C51.7901 23.92 52.3581 24.312 52.7981 24.768L51.8861 25.992C51.7661 26.144 51.6301 26.288 51.3421 26.288C51.0861 26.288 50.7741 26.056 50.4861 25.864C50.1741 25.672 49.3821 25.448 48.7821 25.448C47.7981 25.448 46.9741 25.808 46.3981 26.448C45.8141 27.096 45.4701 28.024 45.4701 29.168C45.4701 30.36 45.8221 31.296 46.3821 31.928C46.9421 32.568 47.7021 32.904 48.5581 32.904C49.5101 32.904 50.1181 32.728 50.7661 32.168C50.8941 32.064 51.0461 31.984 51.2061 31.984ZM56.2097 26.704V31.968C56.2097 32.792 56.5857 33.256 57.3137 33.256C57.8577 33.256 58.3217 33.024 58.7697 32.616V26.704H61.2497V35H59.7137C59.4017 35 59.2017 34.864 59.1057 34.584L58.9537 34.104C58.3057 34.728 57.5617 35.128 56.5457 35.128C55.6417 35.128 54.9377 34.8 54.4577 34.232C53.9777 33.664 53.7297 32.888 53.7297 31.968V26.704H56.2097ZM68.2429 28.52C68.1149 28.72 67.9869 28.8 67.7629 28.8C67.3229 28.8 66.5789 28.32 65.9869 28.32C65.3549 28.32 65.0109 28.576 65.0109 29C65.0109 29.624 66.0749 29.8 66.9309 30.104C67.9869 30.48 68.8509 31.024 68.8509 32.304C68.8509 33.128 68.5549 33.832 67.9629 34.336C67.3709 34.84 66.4909 35.128 65.3629 35.128C64.2989 35.128 63.0509 34.696 62.3869 34.104L62.9629 33.192C63.0989 32.976 63.2749 32.848 63.5869 32.848C64.1309 32.848 64.6029 33.456 65.4909 33.456C66.1709 33.456 66.5309 33.168 66.5309 32.736C66.5309 32.064 65.4589 31.912 64.5949 31.608C64.1149 31.44 63.6269 31.208 63.2669 30.84C62.9069 30.472 62.6589 29.96 62.6589 29.2C62.6589 28.496 62.9309 27.84 63.4749 27.36C64.0189 26.88 64.8429 26.576 65.9389 26.576C67.0829 26.576 68.1549 27 68.8029 27.648L68.2429 28.52ZM73.1298 35.128C72.3378 35.128 71.7378 34.888 71.3298 34.464C70.9138 34.048 70.6978 33.44 70.6978 32.704V28.416H69.9938C69.7378 28.416 69.5298 28.248 69.5298 27.928V26.96L70.8498 26.704L71.3378 24.68C71.4018 24.424 71.5858 24.296 71.8818 24.296H73.1778V26.72H75.1938V28.416H73.1778V32.536C73.1778 32.92 73.3698 33.2 73.7218 33.2C74.0418 33.2 74.1698 33.016 74.3778 33.016C74.5298 33.016 74.6018 33.08 74.6978 33.232L75.4498 34.408C74.8098 34.888 73.9858 35.128 73.1298 35.128ZM80.3201 26.576C81.5761 26.576 82.6321 26.984 83.3761 27.72C84.1121 28.456 84.5441 29.52 84.5441 30.832C84.5441 32.152 84.1121 33.232 83.3761 33.968C82.6321 34.712 81.5761 35.128 80.3201 35.128C79.0481 35.128 78.0001 34.712 77.2481 33.968C76.4961 33.232 76.0641 32.152 76.0641 30.832C76.0641 29.52 76.4961 28.456 77.2481 27.72C78.0001 26.984 79.0481 26.576 80.3201 26.576ZM80.3201 33.288C81.4641 33.288 81.9841 32.488 81.9841 30.848C81.9841 29.208 81.4641 28.416 80.3201 28.416C79.1441 28.416 78.6241 29.208 78.6241 30.848C78.6241 32.488 79.1441 33.288 80.3201 33.288ZM85.9053 35V26.704H87.4413C87.7533 26.704 87.9613 26.84 88.0493 27.12L88.1853 27.568C88.7533 26.984 89.4013 26.576 90.3213 26.576C91.3213 26.576 91.9693 27.136 92.3133 28C92.8493 27.008 93.9213 26.576 94.9773 26.576C95.9293 26.576 96.6733 26.864 97.1693 27.4C97.6653 27.944 97.9213 28.736 97.9213 29.728V35H95.4413V29.728C95.4413 28.872 95.0733 28.44 94.3373 28.44C93.6653 28.44 93.1693 28.896 93.1693 29.728V35H90.6893V29.728C90.6893 28.776 90.3133 28.44 89.5853 28.44C89.1373 28.44 88.7373 28.656 88.3853 29V35H85.9053ZM103.239 26.576C104.335 26.576 105.271 26.928 105.927 27.576C106.583 28.224 106.967 29.184 106.967 30.376C106.967 31.048 106.887 31.296 106.407 31.296H101.623C101.783 32.68 102.495 33.272 103.575 33.272C104.543 33.272 105.167 32.6 105.751 32.6C105.951 32.6 106.095 32.672 106.199 32.816L106.919 33.704C106.407 34.288 105.807 34.64 105.183 34.848C104.559 35.064 103.919 35.128 103.351 35.128C102.191 35.128 101.143 34.744 100.383 34C99.6146 33.256 99.1426 32.144 99.1426 30.672C99.1426 29.56 99.5346 28.536 100.247 27.792C100.951 27.048 101.967 26.576 103.239 26.576ZM103.287 28.288C102.335 28.288 101.815 28.84 101.647 29.856H104.743C104.743 29 104.303 28.288 103.287 28.288ZM108.39 35V26.704H109.862C110.358 26.704 110.494 26.856 110.582 27.288L110.718 28.064C111.326 27.128 112.086 26.544 112.982 26.544C113.358 26.544 113.662 26.632 113.894 26.816L113.574 28.64C113.534 28.864 113.406 28.944 113.19 28.944C113.102 28.944 112.99 28.928 112.87 28.904C112.75 28.88 112.59 28.872 112.406 28.872C111.758 28.872 111.246 29.216 110.87 29.912V35H108.39ZM118.093 35V26.704H119.565C120.061 26.704 120.197 26.856 120.285 27.288L120.421 28.064C121.029 27.128 121.789 26.544 122.685 26.544C123.061 26.544 123.365 26.632 123.597 26.816L123.277 28.64C123.237 28.864 123.109 28.944 122.893 28.944C122.805 28.944 122.693 28.928 122.573 28.904C122.453 28.88 122.293 28.872 122.109 28.872C121.461 28.872 120.949 29.216 120.573 29.912V35H118.093ZM128.254 26.576C129.35 26.576 130.286 26.928 130.942 27.576C131.598 28.224 131.982 29.184 131.982 30.376C131.982 31.048 131.902 31.296 131.422 31.296H126.638C126.798 32.68 127.51 33.272 128.59 33.272C129.558 33.272 130.182 32.6 130.766 32.6C130.966 32.6 131.11 32.672 131.214 32.816L131.934 33.704C131.422 34.288 130.822 34.64 130.198 34.848C129.574 35.064 128.934 35.128 128.366 35.128C127.206 35.128 126.158 34.744 125.398 34C124.63 33.256 124.158 32.144 124.158 30.672C124.158 29.56 124.55 28.536 125.262 27.792C125.966 27.048 126.982 26.576 128.254 26.576ZM128.302 28.288C127.35 28.288 126.83 28.84 126.662 29.856H129.758C129.758 29 129.318 28.288 128.302 28.288ZM136.317 35.128C135.525 35.128 134.925 34.888 134.517 34.464C134.101 34.048 133.885 33.44 133.885 32.704V28.416H133.181C132.925 28.416 132.717 28.248 132.717 27.928V26.96L134.037 26.704L134.525 24.68C134.589 24.424 134.773 24.296 135.069 24.296H136.365V26.72H138.381V28.416H136.365V32.536C136.365 32.92 136.557 33.2 136.909 33.2C137.229 33.2 137.357 33.016 137.565 33.016C137.717 33.016 137.789 33.08 137.885 33.232L138.637 34.408C137.997 34.888 137.173 35.128 136.317 35.128ZM143.364 26.576C144.46 26.576 145.396 26.928 146.052 27.576C146.708 28.224 147.092 29.184 147.092 30.376C147.092 31.048 147.012 31.296 146.532 31.296H141.748C141.908 32.68 142.62 33.272 143.7 33.272C144.668 33.272 145.292 32.6 145.876 32.6C146.076 32.6 146.22 32.672 146.324 32.816L147.044 33.704C146.532 34.288 145.932 34.64 145.308 34.848C144.684 35.064 144.044 35.128 143.476 35.128C142.316 35.128 141.268 34.744 140.508 34C139.74 33.256 139.268 32.144 139.268 30.672C139.268 29.56 139.66 28.536 140.372 27.792C141.076 27.048 142.092 26.576 143.364 26.576ZM143.412 28.288C142.46 28.288 141.94 28.84 141.772 29.856H144.868C144.868 29 144.428 28.288 143.412 28.288ZM148.515 35V26.704H150.051C150.363 26.704 150.571 26.84 150.659 27.12L150.803 27.6C151.475 26.968 152.171 26.576 153.219 26.576C154.123 26.576 154.827 26.904 155.307 27.464C155.787 28.024 156.035 28.824 156.035 29.728V35H153.555V29.728C153.555 28.92 153.179 28.44 152.451 28.44C151.907 28.44 151.435 28.696 150.995 29.088V35H148.515ZM160.708 35.128C159.916 35.128 159.316 34.888 158.908 34.464C158.492 34.048 158.276 33.44 158.276 32.704V28.416H157.572C157.316 28.416 157.108 28.248 157.108 27.928V26.96L158.428 26.704L158.916 24.68C158.98 24.424 159.164 24.296 159.46 24.296H160.756V26.72H162.772V28.416H160.756V32.536C160.756 32.92 160.948 33.2 161.3 33.2C161.62 33.2 161.748 33.016 161.956 33.016C162.108 33.016 162.18 33.08 162.276 33.232L163.028 34.408C162.388 34.888 161.564 35.128 160.708 35.128ZM167.05 24.432C167.05 25.216 166.354 25.872 165.53 25.872C164.73 25.872 164.058 25.208 164.058 24.432C164.058 23.624 164.722 22.976 165.53 22.976C166.354 22.976 167.05 23.616 167.05 24.432ZM166.762 26.704V35H164.282V26.704H166.762ZM172.461 26.576C173.717 26.576 174.773 26.984 175.517 27.72C176.253 28.456 176.685 29.52 176.685 30.832C176.685 32.152 176.253 33.232 175.517 33.968C174.773 34.712 173.717 35.128 172.461 35.128C171.189 35.128 170.141 34.712 169.389 33.968C168.637 33.232 168.205 32.152 168.205 30.832C168.205 29.52 168.637 28.456 169.389 27.72C170.141 26.984 171.189 26.576 172.461 26.576ZM172.461 33.288C173.605 33.288 174.125 32.488 174.125 30.848C174.125 29.208 173.605 28.416 172.461 28.416C171.285 28.416 170.765 29.208 170.765 30.848C170.765 32.488 171.285 33.288 172.461 33.288ZM178.046 35V26.704H179.582C179.894 26.704 180.102 26.84 180.19 27.12L180.334 27.6C181.006 26.968 181.702 26.576 182.75 26.576C183.654 26.576 184.358 26.904 184.838 27.464C185.318 28.024 185.566 28.824 185.566 29.728V35H183.086V29.728C183.086 28.92 182.71 28.44 181.982 28.44C181.438 28.44 180.966 28.696 180.526 29.088V35H178.046ZM194.277 23.216C195.429 23.216 196.365 23.568 197.013 24.168C197.661 24.768 198.021 25.608 198.021 26.6C198.021 27.456 197.765 28.16 197.349 28.816C196.933 29.472 196.365 30.072 195.749 30.704L193.469 33.04C194.053 32.872 194.637 32.76 195.141 32.76H197.317C197.853 32.76 198.181 33.08 198.181 33.56V35H189.989V34.2C189.989 33.888 190.101 33.512 190.421 33.224L193.781 29.84C194.357 29.264 194.781 28.752 195.061 28.24C195.341 27.736 195.477 27.248 195.477 26.68C195.477 25.752 195.037 25.24 194.133 25.24C193.421 25.24 192.893 25.672 192.677 26.256C192.509 26.736 192.269 26.936 191.821 26.936C191.717 26.936 191.589 26.928 191.461 26.904L190.149 26.672C190.317 25.512 190.829 24.648 191.549 24.072C192.269 23.496 193.213 23.216 194.277 23.216ZM207.702 29.168C207.702 31.208 207.238 32.688 206.47 33.672C205.694 34.656 204.606 35.128 203.366 35.128C202.126 35.128 201.054 34.656 200.286 33.672C199.518 32.688 199.062 31.208 199.062 29.168C199.062 27.128 199.518 25.648 200.286 24.664C201.054 23.68 202.126 23.216 203.366 23.216C204.606 23.216 205.694 23.68 206.47 24.664C207.238 25.648 207.702 27.128 207.702 29.168ZM205.142 29.168C205.142 27.56 204.926 26.56 204.59 25.976C204.254 25.392 203.806 25.208 203.366 25.208C202.926 25.208 202.486 25.392 202.166 25.976C201.838 26.56 201.622 27.56 201.622 29.168C201.622 30.792 201.838 31.768 202.166 32.36C202.486 32.952 202.926 33.136 203.366 33.136C203.806 33.136 204.254 32.952 204.59 32.36C204.926 31.768 205.142 30.792 205.142 29.168ZM212.839 23.216C213.991 23.216 214.927 23.568 215.575 24.168C216.223 24.768 216.583 25.608 216.583 26.6C216.583 27.456 216.327 28.16 215.911 28.816C215.495 29.472 214.927 30.072 214.311 30.704L212.031 33.04C212.615 32.872 213.199 32.76 213.703 32.76H215.879C216.415 32.76 216.743 33.08 216.743 33.56V35H208.551V34.2C208.551 33.888 208.663 33.512 208.983 33.224L212.343 29.84C212.919 29.264 213.343 28.752 213.623 28.24C213.903 27.736 214.039 27.248 214.039 26.68C214.039 25.752 213.599 25.24 212.695 25.24C211.983 25.24 211.455 25.672 211.239 26.256C211.071 26.736 210.831 26.936 210.383 26.936C210.279 26.936 210.151 26.928 210.023 26.904L208.711 26.672C208.879 25.512 209.391 24.648 210.111 24.072C210.831 23.496 211.775 23.216 212.839 23.216ZM225.113 30.472H226.313V31.864C226.313 32.112 226.145 32.32 225.833 32.32H225.113V35H222.953V32.32H218.265C217.953 32.32 217.673 32.104 217.609 31.816L217.353 30.592L222.745 23.344H225.113V30.472ZM222.953 27.432C222.953 27.056 222.977 26.616 223.033 26.16L219.953 30.472H222.953V27.432Z" fill="white"/>
<path d="M214.313 131.812C214.313 119.217 211.332 106.801 205.614 95.5785C199.896 84.3562 191.604 74.6465 181.414 67.2432L158.229 99.1549C163.382 102.899 167.576 107.81 170.468 113.486C173.36 119.162 174.868 125.442 174.868 131.812H214.313Z" fill="#FF6BC4"/>
<path d="M177.306 64.4502C166.025 57.2816 153.125 53.0609 139.788 52.1754C126.452 51.2898 113.106 53.7678 100.977 59.382L117.545 95.1789C123.68 92.3395 130.429 91.0862 137.175 91.5341C143.92 91.9819 150.445 94.1166 156.15 97.7423L177.306 64.4502Z" fill="#FBE274"/>
<path d="M96.96 61.38C84.2473 68.1559 73.6056 78.2463 66.1635 90.5809C58.7214 102.916 54.7566 117.034 54.6895 131.44L94.1344 131.624C94.1683 124.338 96.1736 117.197 99.9376 110.958C103.702 104.72 109.084 99.6166 115.514 96.1895L96.96 61.38Z" fill="#735FF4"/>
<path d="M93.9891 146.013V147.317H90.2851V157.477H88.7331V147.317H85.0131V146.013H93.9891ZM99.3466 157.477H98.7146C98.4346 157.477 98.2666 157.421 98.2106 157.141L98.0506 156.389C97.1706 157.181 96.4666 157.605 95.2266 157.605C94.5946 157.605 94.0346 157.429 93.6266 157.077C93.2186 156.725 92.9626 156.189 92.9626 155.453C92.9626 154.813 93.2986 154.197 94.0826 153.741C94.8666 153.285 96.1146 152.965 97.9466 152.925V152.293C97.9466 151.037 97.4026 150.381 96.3466 150.381C95.6506 150.381 95.2026 150.589 94.8586 150.805C94.5626 150.997 94.2586 151.237 94.0346 151.237C93.8426 151.237 93.6986 151.125 93.6106 150.973L93.3546 150.517C94.2506 149.653 95.2666 149.229 96.5226 149.229C97.4266 149.229 98.1386 149.541 98.6186 150.077C99.0986 150.613 99.3466 151.389 99.3466 152.293V157.477ZM95.6506 156.605C96.6026 156.605 97.3066 156.197 97.9466 155.517V153.829C96.6346 153.869 95.7306 154.045 95.1546 154.309C94.5786 154.573 94.3306 154.941 94.3306 155.389C94.3306 156.229 94.8826 156.605 95.6506 156.605ZM101.504 157.477V149.373H102.32C102.632 149.373 102.72 149.477 102.76 149.765L102.856 151.029C103.408 149.901 104.224 149.229 105.32 149.229C105.768 149.229 106.12 149.333 106.432 149.517L106.248 150.581C106.208 150.717 106.128 150.781 106 150.781C105.928 150.781 105.808 150.757 105.656 150.701C105.504 150.653 105.288 150.629 105.008 150.629C104.016 150.629 103.376 151.221 102.928 152.317V157.477H101.504ZM110.685 149.237C111.389 149.237 112.005 149.397 112.509 149.693H114.709V150.221C114.709 150.397 114.597 150.509 114.373 150.557L113.453 150.685C113.637 151.029 113.725 151.421 113.725 151.845C113.725 152.637 113.405 153.293 112.869 153.749C112.325 154.205 111.573 154.461 110.685 154.461C110.309 154.461 109.949 154.413 109.613 154.325C109.269 154.541 109.093 154.797 109.093 155.029C109.093 155.829 110.605 155.725 111.813 155.805C113.253 155.909 114.525 156.229 114.525 157.685C114.525 158.381 114.165 159.053 113.517 159.565C112.869 160.069 111.917 160.397 110.733 160.397C109.549 160.397 108.653 160.141 108.069 159.749C107.485 159.357 107.189 158.821 107.189 158.253C107.189 157.453 107.725 156.893 108.613 156.565C108.157 156.349 107.861 156.021 107.861 155.421C107.861 154.917 108.261 154.349 108.893 154.037C108.093 153.589 107.613 152.837 107.613 151.845C107.613 151.053 107.933 150.397 108.477 149.941C109.021 149.493 109.789 149.237 110.685 149.237ZM110.685 153.517C111.805 153.517 112.453 152.877 112.453 151.885C112.453 150.893 111.837 150.261 110.685 150.261C109.541 150.261 108.925 150.893 108.925 151.885C108.925 152.877 109.589 153.517 110.685 153.517ZM113.213 157.917C113.213 157.437 112.469 157.069 111.925 156.997C111.509 156.941 110.757 156.909 110.285 156.885C109.997 156.869 109.725 156.837 109.461 156.797C108.853 157.085 108.437 157.493 108.437 158.069C108.437 158.429 108.621 158.757 109.005 158.989C109.389 159.213 109.965 159.357 110.757 159.357C111.525 159.357 112.141 159.213 112.565 158.957C112.981 158.701 113.213 158.341 113.213 157.917ZM119.337 149.245C120.305 149.245 121.145 149.581 121.745 150.189C122.345 150.805 122.697 151.717 122.697 152.869C122.697 153.317 122.617 153.429 122.353 153.429H116.961C116.985 154.453 117.249 155.205 117.697 155.709C118.145 156.221 118.769 156.469 119.537 156.469C120.249 156.469 120.753 156.269 121.129 156.077C121.417 155.933 121.753 155.685 121.921 155.685C122.041 155.685 122.129 155.733 122.193 155.821L122.593 156.341C121.889 157.189 120.561 157.589 119.417 157.589C118.297 157.589 117.337 157.205 116.649 156.469C115.961 155.741 115.553 154.661 115.553 153.261C115.553 152.133 115.913 151.117 116.561 150.397C117.209 149.677 118.161 149.245 119.337 149.245ZM119.369 150.293C117.993 150.293 117.201 151.133 117.009 152.541H121.417C121.417 151.213 120.665 150.293 119.369 150.293ZM126.976 157.605C125.696 157.605 124.984 156.869 124.984 155.525V150.565H124.008C123.84 150.565 123.704 150.469 123.704 150.253V149.685L125.032 149.517L125.36 147.013C125.384 146.853 125.504 146.741 125.688 146.741H126.408V149.533H128.728V150.565H126.408V155.429C126.408 156.109 126.776 156.437 127.296 156.437C127.632 156.437 128.168 156.053 128.32 156.053C128.392 156.053 128.464 156.101 128.52 156.189L128.936 156.869C128.448 157.325 127.712 157.605 126.976 157.605ZM134.318 155.605V154.581C134.318 154.413 134.39 154.269 134.606 154.165L138.198 152.349C138.414 152.245 138.638 152.157 138.902 152.101C138.638 152.037 138.414 151.965 138.198 151.845L134.606 150.021C134.39 149.917 134.318 149.789 134.318 149.605V148.589L140.502 151.797V152.389L134.318 155.605ZM142.895 150.205H149.767V151.285H142.895V150.205ZM142.895 152.885H149.767V153.965H142.895V152.885ZM155.369 152.773C154.505 152.773 153.705 152.477 153.121 151.917C152.537 151.357 152.161 150.541 152.161 149.485C152.161 148.485 152.553 147.581 153.225 146.933C153.897 146.285 154.841 145.885 155.953 145.885C157.049 145.885 157.961 146.269 158.601 146.917C159.241 147.565 159.601 148.493 159.601 149.589C159.601 150.253 159.473 150.829 159.241 151.397C159.009 151.965 158.681 152.509 158.265 153.109L155.473 157.141C155.337 157.341 155.065 157.477 154.737 157.477H153.425L156.913 152.909C157.145 152.597 157.345 152.333 157.529 152.053C156.945 152.525 156.193 152.773 155.369 152.773ZM158.233 149.421C158.233 148.709 157.993 148.117 157.585 147.709C157.177 147.301 156.609 147.077 155.937 147.077C154.529 147.077 153.585 148.021 153.585 149.381C153.585 150.829 154.433 151.677 155.841 151.677C156.609 151.677 157.201 151.405 157.609 150.989C158.017 150.573 158.233 150.005 158.233 149.421ZM169.058 151.749C169.058 153.757 168.594 155.213 167.85 156.173C167.106 157.133 166.05 157.597 164.89 157.597C163.714 157.597 162.682 157.133 161.938 156.173C161.194 155.213 160.738 153.757 160.738 151.749C160.738 149.741 161.194 148.277 161.938 147.309C162.682 146.349 163.714 145.885 164.89 145.885C166.05 145.885 167.106 146.349 167.85 147.309C168.594 148.277 169.058 149.741 169.058 151.749ZM167.578 151.749C167.578 149.997 167.266 148.837 166.77 148.109C166.274 147.381 165.594 147.093 164.89 147.093C164.186 147.093 163.506 147.381 163.018 148.109C162.53 148.837 162.21 149.997 162.21 151.749C162.21 153.501 162.53 154.653 163.018 155.381C163.506 156.109 164.186 156.397 164.89 156.397C165.594 156.397 166.274 156.109 166.77 155.381C167.266 154.653 167.578 153.501 167.578 151.749ZM175.195 148.781C175.195 149.677 174.899 150.397 174.435 150.877C173.971 151.365 173.323 151.629 172.651 151.629C171.923 151.629 171.299 151.365 170.843 150.877C170.387 150.397 170.115 149.677 170.115 148.781C170.115 147.861 170.387 147.141 170.843 146.653C171.299 146.165 171.923 145.901 172.651 145.901C173.363 145.901 174.011 146.165 174.467 146.653C174.915 147.141 175.195 147.861 175.195 148.781ZM179.203 146.301C179.339 146.117 179.475 146.013 179.731 146.013H180.755L172.379 157.245C172.275 157.381 172.123 157.477 171.923 157.477H170.867L179.203 146.301ZM174.083 148.781C174.083 147.501 173.539 146.837 172.651 146.837C171.755 146.837 171.235 147.493 171.235 148.781C171.235 150.053 171.755 150.685 172.651 150.685C173.539 150.685 174.083 150.053 174.083 148.781ZM181.531 154.773C181.531 155.669 181.235 156.381 180.771 156.861C180.307 157.349 179.667 157.613 178.995 157.613C178.267 157.613 177.643 157.349 177.187 156.861C176.731 156.381 176.459 155.669 176.459 154.773C176.459 153.853 176.731 153.125 177.187 152.637C177.643 152.149 178.267 151.885 178.995 151.885C179.707 151.885 180.347 152.149 180.803 152.637C181.259 153.125 181.531 153.853 181.531 154.773ZM180.427 154.773C180.427 153.493 179.883 152.829 178.995 152.829C178.099 152.829 177.579 153.485 177.579 154.773C177.579 156.037 178.107 156.669 178.995 156.669C179.883 156.669 180.427 156.037 180.427 154.773Z" fill="white"/>
<path d="M131.308 122.327L176.646 107.777L177.134 110.985L131.308 122.327Z" fill="#676769"/>
</svg>
