<svg width="397" height="332" viewBox="0 0 397 332" fill="none" xmlns="http://www.w3.org/2000/svg">
<rect width="397" height="332" rx="20" fill="#735FF4"/>
<circle cx="45" cy="45" r="25" fill="white"/>
<path d="M36.2007 42.3333V42.3333C34.6295 43.0475 33.8439 43.4046 33.5309 43.85C33.046 44.54 33.046 45.46 33.5309 46.15C33.8439 46.5954 34.6295 46.9525 36.2007 47.6667V47.6667M36.2007 42.3333V42.3333C34.6295 41.6192 33.8439 41.2621 33.5309 40.8166C33.046 40.1267 33.046 39.2067 33.5309 38.5167C33.8439 38.0712 34.6295 37.7142 36.2007 37L43.511 33.6771C44.1615 33.3814 44.4868 33.2336 44.8302 33.2042C44.9436 33.1945 45.0577 33.1945 45.1711 33.2042C45.5145 33.2336 45.8398 33.3814 46.4903 33.6771L53.8007 37C55.3718 37.7142 56.1574 38.0712 56.4704 38.5167C56.9553 39.2067 56.9553 40.1267 56.4704 40.8166C56.1574 41.2621 55.3718 41.6192 53.8006 42.3333V42.3333M36.2007 42.3333L43.511 45.6562C44.1615 45.9519 44.4868 46.0998 44.8302 46.1291C44.9436 46.1388 45.0577 46.1388 45.1711 46.1291C45.5145 46.0998 45.8398 45.9519 46.4903 45.6562L53.8006 42.3333M36.2007 47.6667V47.6667C34.6295 48.3808 33.8439 48.7379 33.5309 49.1834C33.046 49.8733 33.046 50.7933 33.5309 51.4833C33.8439 51.9288 34.6295 52.2858 36.2006 53L43.511 56.3229C44.1615 56.6186 44.4868 56.7664 44.8302 56.7958C44.9436 56.8055 45.0577 56.8055 45.1711 56.7958C45.5145 56.7664 45.8398 56.6186 46.4903 56.3229L53.8006 53C55.3718 52.2858 56.1574 51.9288 56.4704 51.4833C56.9553 50.7933 56.9553 49.8733 56.4704 49.1834C56.1574 48.7379 55.3718 48.3808 53.8006 47.6667V47.6667M36.2007 47.6667L43.511 50.9895C44.1615 51.2852 44.4868 51.4331 44.8302 51.4625C44.9436 51.4722 45.0577 51.4722 45.1711 51.4625C45.5145 51.4331 45.8398 51.2852 46.4903 50.9895L53.8006 47.6667M53.8006 47.6667V47.6667C55.3718 46.9525 56.1574 46.5954 56.4704 46.15C56.9553 45.46 56.9553 44.54 56.4704 43.85C56.1574 43.4046 55.3718 43.0475 53.8006 42.3333V42.3333" stroke="#735FF4" stroke-width="2" stroke-linejoin="round"/>
<path d="M97.26 36.33C98.17 36.33 98.89 36.02 99.38 35.46C99.87 34.9 100.14 34.09 100.14 33.06V24.43H103.52V33.06C103.52 34.85 102.92 36.37 101.84 37.45C100.76 38.53 99.19 39.16 97.26 39.16C95.31 39.16 93.75 38.53 92.67 37.45C91.59 36.37 91 34.85 91 33.06V24.43H94.38V33.05C94.38 34.08 94.65 34.89 95.14 35.45C95.63 36.02 96.35 36.33 97.26 36.33ZM112.052 30.9C111.892 31.15 111.732 31.25 111.452 31.25C110.902 31.25 109.972 30.65 109.232 30.65C108.442 30.65 108.012 30.97 108.012 31.5C108.012 32.28 109.342 32.5 110.412 32.88C111.732 33.35 112.812 34.03 112.812 35.63C112.812 36.66 112.442 37.54 111.702 38.17C110.962 38.8 109.862 39.16 108.452 39.16C107.122 39.16 105.562 38.62 104.732 37.88L105.452 36.74C105.622 36.47 105.842 36.31 106.232 36.31C106.912 36.31 107.502 37.07 108.612 37.07C109.462 37.07 109.912 36.71 109.912 36.17C109.912 35.33 108.572 35.14 107.492 34.76C106.892 34.55 106.282 34.26 105.832 33.8C105.382 33.34 105.072 32.7 105.072 31.75C105.072 30.87 105.412 30.05 106.092 29.45C106.772 28.85 107.802 28.47 109.172 28.47C110.602 28.47 111.942 29 112.752 29.81L112.052 30.9ZM121.68 39C121.09 39 120.84 38.89 120.64 38.38L120.42 37.81C119.37 38.7 118.54 39.16 117.14 39.16C116.19 39.16 115.41 38.91 114.87 38.43C114.33 37.95 114.02 37.23 114.02 36.3C114.02 35.57 114.35 34.75 115.27 34.11C116.19 33.48 117.71 33.01 120.08 32.96V32.52C120.08 31.31 119.56 30.8 118.64 30.8C117.34 30.8 116.94 31.58 115.96 31.58C115.53 31.58 115.23 31.35 115.06 31.04L114.5 30.07C115.75 28.96 117.29 28.43 119.04 28.43C120.29 28.43 121.32 28.86 122.02 29.58C122.72 30.31 123.1 31.33 123.1 32.52V39H121.68ZM118.12 37.11C118.92 37.11 119.47 36.85 120.08 36.22V34.78C118.84 34.83 118.07 35 117.6 35.24C117.13 35.48 116.98 35.79 116.98 36.15C116.98 36.86 117.37 37.11 118.12 37.11ZM125.302 39V24.03H128.402V29.73C129.172 28.97 130.122 28.47 131.442 28.47C132.522 28.47 133.462 28.94 134.132 29.84C134.802 30.74 135.202 32.06 135.202 33.73C135.202 35.29 134.752 36.64 133.972 37.61C133.192 38.58 132.082 39.16 130.762 39.16C129.572 39.16 128.902 38.69 128.212 37.92L128.102 38.44C128.012 38.87 127.762 39 127.362 39H125.302ZM130.362 30.8C129.462 30.8 128.942 31.14 128.402 31.78V36.18C128.872 36.7 129.422 36.88 130.022 36.88C130.592 36.88 131.082 36.66 131.442 36.16C131.792 35.66 132.002 34.88 132.002 33.73C132.002 32.64 131.832 31.9 131.552 31.44C131.262 30.98 130.852 30.8 130.362 30.8ZM140.463 25.79C140.463 26.77 139.593 27.59 138.563 27.59C137.563 27.59 136.723 26.76 136.723 25.79C136.723 24.78 137.553 23.97 138.563 23.97C139.593 23.97 140.463 24.77 140.463 25.79ZM140.103 28.63V39H137.003V28.63H140.103ZM145.806 24.03V39H142.706V24.03H145.806ZM151.869 25.79C151.869 26.77 150.999 27.59 149.969 27.59C148.969 27.59 148.129 26.76 148.129 25.79C148.129 24.78 148.959 23.97 149.969 23.97C150.999 23.97 151.869 24.77 151.869 25.79ZM151.509 28.63V39H148.409V28.63H151.509ZM157.653 39.16C156.663 39.16 155.913 38.86 155.403 38.33C154.883 37.81 154.613 37.05 154.613 36.13V30.77H153.733C153.413 30.77 153.153 30.56 153.153 30.16V28.95L154.803 28.63L155.413 26.1C155.493 25.78 155.723 25.62 156.093 25.62H157.713V28.65H160.233V30.77H157.713V35.92C157.713 36.4 157.952 36.75 158.393 36.75C158.793 36.75 158.953 36.52 159.213 36.52C159.403 36.52 159.493 36.6 159.613 36.79L160.553 38.26C159.753 38.86 158.723 39.16 157.653 39.16ZM166.26 41.69C166.07 42.1 165.87 42.29 165.28 42.29H162.96L164.96 38.09L160.82 28.63H163.56C164.04 28.63 164.29 28.88 164.4 29.17L166.1 33.64C166.26 34.05 166.39 34.47 166.49 34.88C166.56 34.67 166.63 34.46 166.71 34.25C166.79 34.04 166.87 33.83 166.94 33.62L168.48 29.17C168.59 28.86 168.94 28.63 169.3 28.63H171.8L166.26 41.69ZM180.582 39.16C179.592 39.16 178.842 38.86 178.332 38.33C177.812 37.81 177.542 37.05 177.542 36.13V30.77H176.662C176.342 30.77 176.082 30.56 176.082 30.16V28.95L177.732 28.63L178.342 26.1C178.422 25.78 178.652 25.62 179.022 25.62H180.642V28.65H183.162V30.77H180.642V35.92C180.642 36.4 180.882 36.75 181.322 36.75C181.722 36.75 181.882 36.52 182.142 36.52C182.332 36.52 182.422 36.6 182.542 36.79L183.482 38.26C182.682 38.86 181.652 39.16 180.582 39.16ZM189.39 28.47C190.76 28.47 191.93 28.91 192.75 29.72C193.57 30.53 194.05 31.73 194.05 33.22C194.05 34.06 193.95 34.37 193.35 34.37H187.37C187.57 36.1 188.46 36.84 189.81 36.84C191.02 36.84 191.8 36 192.53 36C192.78 36 192.96 36.09 193.09 36.27L193.99 37.38C193.35 38.11 192.6 38.55 191.82 38.81C191.04 39.08 190.24 39.16 189.53 39.16C188.08 39.16 186.77 38.68 185.82 37.75C184.86 36.82 184.27 35.43 184.27 33.59C184.27 32.2 184.76 30.92 185.65 29.99C186.53 29.06 187.8 28.47 189.39 28.47ZM189.45 30.61C188.26 30.61 187.61 31.3 187.4 32.57H191.27C191.27 31.5 190.72 30.61 189.45 30.61ZM202.169 30.9C202.009 31.15 201.849 31.25 201.569 31.25C201.019 31.25 200.089 30.65 199.349 30.65C198.559 30.65 198.129 30.97 198.129 31.5C198.129 32.28 199.459 32.5 200.529 32.88C201.849 33.35 202.929 34.03 202.929 35.63C202.929 36.66 202.559 37.54 201.819 38.17C201.079 38.8 199.979 39.16 198.569 39.16C197.239 39.16 195.679 38.62 194.849 37.88L195.569 36.74C195.739 36.47 195.959 36.31 196.349 36.31C197.029 36.31 197.619 37.07 198.729 37.07C199.579 37.07 200.029 36.71 200.029 36.17C200.029 35.33 198.689 35.14 197.609 34.76C197.009 34.55 196.399 34.26 195.949 33.8C195.499 33.34 195.189 32.7 195.189 31.75C195.189 30.87 195.529 30.05 196.209 29.45C196.889 28.85 197.919 28.47 199.289 28.47C200.719 28.47 202.059 29 202.869 29.81L202.169 30.9ZM208.278 39.16C207.288 39.16 206.538 38.86 206.028 38.33C205.508 37.81 205.238 37.05 205.238 36.13V30.77H204.358C204.038 30.77 203.778 30.56 203.778 30.16V28.95L205.428 28.63L206.038 26.1C206.118 25.78 206.348 25.62 206.718 25.62H208.338V28.65H210.858V30.77H208.338V35.92C208.338 36.4 208.577 36.75 209.018 36.75C209.418 36.75 209.578 36.52 209.838 36.52C210.028 36.52 210.118 36.6 210.238 36.79L211.178 38.26C210.378 38.86 209.348 39.16 208.278 39.16ZM216.205 25.79C216.205 26.77 215.335 27.59 214.305 27.59C213.305 27.59 212.465 26.76 212.465 25.79C212.465 24.78 213.295 23.97 214.305 23.97C215.335 23.97 216.205 24.77 216.205 25.79ZM215.845 28.63V39H212.745V28.63H215.845ZM218.348 39V28.63H220.268C220.658 28.63 220.918 28.8 221.028 29.15L221.208 29.75C222.048 28.96 222.918 28.47 224.228 28.47C225.358 28.47 226.238 28.88 226.838 29.58C227.438 30.28 227.748 31.28 227.748 32.41V39H224.648V32.41C224.648 31.4 224.178 30.8 223.268 30.8C222.588 30.8 221.998 31.12 221.448 31.61V39H218.348ZM233.61 28.45C234.49 28.45 235.27 28.63 235.94 28.95H239.07V30.08C239.07 30.43 238.9 30.61 238.43 30.72L237.67 30.89C237.76 31.19 237.81 31.5 237.81 31.82C237.81 32.86 237.35 33.69 236.6 34.27C235.84 34.85 234.78 35.18 233.61 35.18C233.28 35.18 232.98 35.16 232.69 35.12C232.46 35.25 232.35 35.41 232.35 35.58C232.35 36.28 234.24 36.12 235.56 36.24C236.36 36.32 237.17 36.46 237.77 36.85C238.37 37.24 238.77 37.86 238.77 38.86C238.77 39.79 238.31 40.73 237.43 41.42C236.55 42.11 235.26 42.57 233.61 42.57C231.98 42.57 230.82 42.24 230.04 41.74C229.26 41.24 228.89 40.56 228.89 39.85C228.89 38.93 229.49 38.3 230.46 37.94C229.99 37.63 229.69 37.17 229.69 36.44C229.69 35.75 230.19 35.03 231.07 34.61C229.99 34.04 229.33 33.07 229.33 31.82C229.33 30.78 229.8 29.93 230.57 29.35C231.33 28.77 232.4 28.45 233.61 28.45ZM233.61 33.27C234.64 33.27 235.07 32.7 235.07 31.89C235.07 31.05 234.64 30.54 233.61 30.54C232.58 30.54 232.15 31.05 232.15 31.89C232.15 32.72 232.64 33.27 233.61 33.27ZM235.91 39.38C235.91 38.88 235.37 38.68 234.72 38.61C234.24 38.56 233.69 38.53 233.1 38.51C232.81 38.5 232.52 38.48 232.23 38.45C231.84 38.72 231.57 39.04 231.57 39.45C231.57 40.15 232.27 40.44 233.67 40.44C235.18 40.44 235.91 40.13 235.91 39.38Z" fill="white"/>
<path d="M92.583 64.776H95.355V55.983C95.355 55.722 95.364 55.452 95.382 55.182L93.078 57.153C92.961 57.252 92.835 57.288 92.727 57.288C92.547 57.288 92.394 57.198 92.322 57.09L91.818 56.397L95.652 53.076H96.957V64.776H99.495V66H92.583V64.776ZM105.85 52.959C106.939 52.959 107.92 53.292 108.613 53.904C109.297 54.525 109.72 55.425 109.72 56.55C109.72 57.513 109.414 58.305 108.919 59.052C108.424 59.808 107.767 60.492 107.047 61.221L103.654 64.695C104.131 64.56 104.635 64.479 105.094 64.479H109.414C109.765 64.479 109.981 64.704 109.981 65.028V66H101.377V65.451C101.377 65.226 101.458 64.974 101.665 64.767L105.796 60.618C106.48 59.925 107.056 59.295 107.461 58.647C107.857 57.999 108.082 57.351 108.082 56.595C108.082 55.128 107.11 54.336 105.76 54.336C104.509 54.336 103.519 55.119 103.276 56.262C103.177 56.613 102.997 56.757 102.682 56.757C102.619 56.757 102.556 56.748 102.475 56.739L101.638 56.595C101.809 55.416 102.304 54.507 103.042 53.895C103.78 53.283 104.743 52.959 105.85 52.959ZM115.677 69.087V56.883H116.631C116.856 56.883 117 56.991 117.063 57.216L117.198 58.296C117.981 57.351 118.962 56.721 120.267 56.721C121.311 56.721 122.175 57.126 122.778 57.909C123.381 58.701 123.714 59.871 123.714 61.383C123.714 62.724 123.345 63.912 122.67 64.758C121.995 65.604 121.005 66.126 119.781 66.126C118.656 66.126 117.891 65.739 117.279 65.055V69.087H115.677ZM119.736 58.017C118.692 58.017 117.936 58.521 117.279 59.394V63.804C117.864 64.596 118.557 64.884 119.421 64.884C121.113 64.884 122.058 63.624 122.058 61.383C122.058 60.195 121.842 59.349 121.446 58.8C121.05 58.26 120.465 58.017 119.736 58.017ZM125.609 66V56.883H126.527C126.878 56.883 126.977 57 127.022 57.324L127.13 58.746C127.751 57.477 128.669 56.721 129.902 56.721C130.406 56.721 130.802 56.838 131.153 57.045L130.946 58.242C130.901 58.395 130.811 58.467 130.667 58.467C130.586 58.467 130.451 58.44 130.28 58.377C130.109 58.323 129.866 58.296 129.551 58.296C128.435 58.296 127.715 58.962 127.211 60.195V66H125.609ZM136.559 56.739C137.891 56.739 138.98 57.198 139.736 58.017C140.483 58.836 140.897 60.006 140.897 61.437C140.897 62.877 140.483 64.038 139.736 64.857C138.98 65.676 137.891 66.126 136.559 66.126C135.227 66.126 134.138 65.676 133.382 64.857C132.626 64.038 132.203 62.877 132.203 61.437C132.203 60.006 132.626 58.836 133.382 58.017C134.138 57.198 135.227 56.739 136.559 56.739ZM136.559 64.875C138.359 64.875 139.241 63.606 139.241 61.446C139.241 59.277 138.359 57.999 136.559 57.999C135.65 57.999 134.984 58.323 134.534 58.908C134.084 59.493 133.859 60.366 133.859 61.446C133.859 62.526 134.084 63.39 134.534 63.966C134.984 64.551 135.65 64.875 136.559 64.875ZM149.288 66C149.063 66 148.919 65.892 148.856 65.667L148.712 64.56C147.929 65.505 146.948 66.126 145.652 66.126C144.608 66.126 143.744 65.721 143.141 64.938C142.538 64.155 142.205 62.985 142.205 61.473C142.205 60.132 142.574 58.944 143.258 58.089C143.933 57.234 144.914 56.721 146.147 56.721C147.263 56.721 148.019 57.117 148.64 57.801V52.743H150.242V66H149.288ZM146.183 64.83C147.227 64.83 147.983 64.326 148.64 63.453V59.043C148.055 58.251 147.362 57.972 146.507 57.972C144.806 57.972 143.861 59.232 143.861 61.473C143.861 62.661 144.068 63.498 144.464 64.038C144.86 64.587 145.436 64.83 146.183 64.83ZM154.311 56.883V62.697C154.311 64.074 154.941 64.866 156.228 64.866C157.164 64.866 158.001 64.398 158.694 63.606V56.883H160.296V66H159.342C159.117 66 158.973 65.892 158.91 65.667L158.784 64.686C157.992 65.559 157.029 66.144 155.76 66.144C154.761 66.144 153.996 65.802 153.483 65.199C152.97 64.596 152.709 63.732 152.709 62.697V56.883H154.311ZM169.146 58.503C169.047 58.638 168.975 58.71 168.795 58.71C168.642 58.71 168.345 58.485 168.102 58.35C167.778 58.17 167.337 57.99 166.662 57.99C165.771 57.99 165.087 58.314 164.628 58.917C164.16 59.52 163.926 60.384 163.926 61.437C163.926 62.544 164.187 63.408 164.646 63.984C165.105 64.569 165.762 64.884 166.581 64.884C167.364 64.884 167.841 64.659 168.174 64.434C168.435 64.254 168.723 63.984 168.912 63.984C169.047 63.984 169.155 64.038 169.218 64.137L169.668 64.722C168.876 65.694 167.625 66.126 166.302 66.126C165.159 66.126 164.16 65.694 163.44 64.893C162.72 64.101 162.279 62.922 162.279 61.437C162.279 60.078 162.666 58.899 163.395 58.062C164.115 57.234 165.195 56.739 166.572 56.739C167.841 56.739 168.813 57.171 169.569 57.927L169.146 58.503ZM174.093 66.144C172.653 66.144 171.852 65.316 171.852 63.804V58.224H170.754C170.565 58.224 170.412 58.116 170.412 57.873V57.234L171.906 57.045L172.275 54.228C172.302 54.048 172.437 53.922 172.644 53.922H173.454V57.063H176.064V58.224H173.454V63.696C173.454 64.461 173.868 64.83 174.453 64.83C174.831 64.83 175.434 64.398 175.605 64.398C175.686 64.398 175.767 64.452 175.83 64.551L176.298 65.316C175.749 65.829 174.921 66.144 174.093 66.144ZM183.264 58.386C183.192 58.521 183.084 58.584 182.931 58.584C182.778 58.584 182.463 58.395 182.211 58.26C181.878 58.098 181.428 57.936 180.807 57.936C179.79 57.936 179.052 58.476 179.052 59.259C179.052 60.204 180.294 60.456 181.419 60.825C182.688 61.257 183.777 61.77 183.777 63.21C183.777 64.047 183.471 64.776 182.886 65.298C182.301 65.82 181.446 66.144 180.33 66.144C179.061 66.144 178.008 65.685 177.288 65.037L177.666 64.425C177.765 64.272 177.882 64.182 178.098 64.182C178.287 64.182 178.602 64.425 178.881 64.587C179.223 64.794 179.682 64.992 180.411 64.992C181.581 64.992 182.274 64.371 182.274 63.489C182.274 62.985 181.977 62.67 181.536 62.436C181.158 62.238 180.393 62.022 179.907 61.86C178.602 61.437 177.531 60.897 177.531 59.385C177.531 58.692 177.828 58.017 178.377 57.531C178.926 57.045 179.736 56.739 180.771 56.739C181.968 56.739 182.931 57.144 183.624 57.801L183.264 58.386Z" fill="white"/>
<path d="M23.096 112.216V117H21.552V105.536H24.792C26.24 105.536 27.296 105.84 27.984 106.392C28.672 106.944 28.992 107.744 28.992 108.712C28.992 109.52 28.728 110.232 28.248 110.792C27.76 111.352 27.056 111.76 26.168 111.96C26.36 112.072 26.528 112.232 26.68 112.448L30.024 117H28.648C28.368 117 28.16 116.888 28.024 116.672L25.048 112.576C24.864 112.32 24.696 112.216 24.272 112.216H23.096ZM23.096 111.088H24.72C25.624 111.088 26.32 110.856 26.784 110.456C27.248 110.056 27.48 109.496 27.48 108.824C27.48 107.456 26.576 106.76 24.792 106.76H23.096V111.088ZM37.4169 117H36.7849C36.5049 117 36.3369 116.944 36.2809 116.664L36.1209 115.912C35.2409 116.704 34.5369 117.128 33.2969 117.128C32.6649 117.128 32.1049 116.952 31.6969 116.6C31.2889 116.248 31.0329 115.712 31.0329 114.976C31.0329 114.336 31.3689 113.72 32.1529 113.264C32.9369 112.808 34.1849 112.488 36.0169 112.448V111.816C36.0169 110.56 35.4729 109.904 34.4169 109.904C33.7209 109.904 33.2729 110.112 32.9289 110.328C32.6329 110.52 32.3289 110.76 32.1049 110.76C31.9129 110.76 31.7689 110.648 31.6809 110.496L31.4249 110.04C32.3209 109.176 33.3369 108.752 34.5929 108.752C35.4969 108.752 36.2089 109.064 36.6889 109.6C37.1689 110.136 37.4169 110.912 37.4169 111.816V117ZM33.7209 116.128C34.6729 116.128 35.3769 115.72 36.0169 115.04V113.352C34.7049 113.392 33.8009 113.568 33.2249 113.832C32.6489 114.096 32.4009 114.464 32.4009 114.912C32.4009 115.752 32.9529 116.128 33.7209 116.128ZM42.0303 117.128C40.7503 117.128 40.0383 116.392 40.0383 115.048V110.088H39.0623C38.8943 110.088 38.7583 109.992 38.7583 109.776V109.208L40.0863 109.04L40.4143 106.536C40.4383 106.376 40.5583 106.264 40.7423 106.264H41.4623V109.056H43.7823V110.088H41.4623V114.952C41.4623 115.632 41.8303 115.96 42.3503 115.96C42.6863 115.96 43.2223 115.576 43.3743 115.576C43.4463 115.576 43.5183 115.624 43.5743 115.712L43.9903 116.392C43.5023 116.848 42.7663 117.128 42.0303 117.128ZM48.751 108.768C49.719 108.768 50.559 109.104 51.159 109.712C51.759 110.328 52.111 111.24 52.111 112.392C52.111 112.84 52.031 112.952 51.767 112.952H46.375C46.399 113.976 46.663 114.728 47.111 115.232C47.559 115.744 48.183 115.992 48.951 115.992C49.663 115.992 50.167 115.792 50.543 115.6C50.831 115.456 51.167 115.208 51.335 115.208C51.455 115.208 51.543 115.256 51.607 115.344L52.007 115.864C51.303 116.712 49.975 117.112 48.831 117.112C47.711 117.112 46.751 116.728 46.063 115.992C45.375 115.264 44.967 114.184 44.967 112.784C44.967 111.656 45.327 110.64 45.975 109.92C46.623 109.2 47.575 108.768 48.751 108.768ZM48.783 109.816C47.407 109.816 46.615 110.656 46.423 112.064H50.831C50.831 110.736 50.079 109.816 48.783 109.816Z" fill="white"/>
<path d="M26.2276 130.848C26.3868 130.321 26.4664 130.058 26.5255 129.936C27.1307 128.688 28.8693 128.688 29.4745 129.936C29.5336 130.058 29.6132 130.321 29.7724 130.848C29.8157 130.992 29.8374 131.064 29.8621 131.127C30.0941 131.721 30.635 132.129 31.2582 132.181C31.3243 132.186 31.4003 132.186 31.5521 132.186C32.1939 132.186 32.5148 132.186 32.6742 132.219C33.9179 132.473 34.426 134.01 33.5882 134.985C33.4808 135.11 33.2339 135.303 32.7401 135.689L32.5893 135.807C32.4405 135.923 32.3661 135.981 32.3039 136.041C31.8915 136.439 31.7082 137.027 31.8186 137.596C31.8352 137.681 31.8629 137.773 31.9182 137.956L31.9963 138.215C32.1412 138.695 32.2136 138.935 32.232 139.06C32.4354 140.439 31.0062 141.46 29.8115 140.788C29.7031 140.727 29.5081 140.575 29.1182 140.27C29.0052 140.181 28.9486 140.137 28.895 140.102C28.3505 139.741 27.6495 139.741 27.105 140.102C27.0514 140.137 26.9948 140.181 26.8818 140.27C26.4919 140.575 26.2969 140.727 26.1885 140.788C24.9938 141.46 23.5646 140.439 23.768 139.06C23.7864 138.935 23.8588 138.695 24.0037 138.215L24.0818 137.956C24.1371 137.773 24.1648 137.681 24.1814 137.596C24.2918 137.027 24.1085 136.439 23.6961 136.041C23.6339 135.981 23.5595 135.923 23.4107 135.807L23.2599 135.689C22.7661 135.303 22.5192 135.11 22.4118 134.985C21.574 134.01 22.0821 132.473 23.3258 132.219C23.4852 132.186 23.8061 132.186 24.4479 132.186C24.5997 132.186 24.6757 132.186 24.7418 132.181C25.365 132.129 25.9059 131.721 26.1379 131.127C26.1626 131.064 26.1843 130.992 26.2276 130.848Z" fill="#FBE274" stroke="#FBE274"/>
<path d="M47.321 137.381H48.84V138.095C48.84 138.242 48.756 138.361 48.567 138.361H47.321V141H46.222V138.361H41.777C41.588 138.361 41.441 138.242 41.406 138.081L41.28 137.444L46.159 130.969H47.321V137.381ZM46.222 133.244C46.222 132.999 46.229 132.719 46.278 132.418L42.631 137.381H46.222V133.244ZM49.7371 140.23C49.7371 139.74 50.1151 139.348 50.6051 139.348C51.0951 139.348 51.4801 139.747 51.4801 140.23C51.4801 140.727 51.0951 141.105 50.6051 141.105C50.1151 141.105 49.7371 140.727 49.7371 140.23ZM55.9309 136.884C55.1749 136.884 54.4749 136.625 53.9639 136.135C53.4529 135.645 53.1239 134.931 53.1239 134.007C53.1239 133.132 53.4669 132.341 54.0549 131.774C54.6429 131.207 55.4689 130.857 56.4419 130.857C57.4009 130.857 58.1989 131.193 58.7589 131.76C59.3189 132.327 59.6339 133.139 59.6339 134.098C59.6339 134.679 59.5219 135.183 59.3189 135.68C59.1159 136.177 58.8289 136.653 58.4649 137.178L56.0219 140.706C55.9029 140.881 55.6649 141 55.3779 141H54.2299L57.2819 137.003C57.4849 136.73 57.6599 136.499 57.8209 136.254C57.3099 136.667 56.6519 136.884 55.9309 136.884ZM58.4369 133.951C58.4369 133.328 58.2269 132.81 57.8699 132.453C57.5129 132.096 57.0159 131.9 56.4279 131.9C55.1959 131.9 54.3699 132.726 54.3699 133.916C54.3699 135.183 55.1119 135.925 56.3439 135.925C57.0159 135.925 57.5339 135.687 57.8909 135.323C58.2479 134.959 58.4369 134.462 58.4369 133.951Z" fill="white"/>
<path d="M304.2 105.536V106.84H300.496V117H298.944V106.84H295.224V105.536H304.2ZM306.544 119.392C306.448 119.608 306.328 119.744 306.032 119.744H304.976L306.456 116.528L303.112 108.896H304.344C304.592 108.896 304.72 109.04 304.784 109.192L306.952 114.296C307.048 114.528 307.112 114.76 307.168 115.008C307.24 114.76 307.312 114.536 307.408 114.288L309.512 109.192C309.576 109.024 309.744 108.896 309.928 108.896H311.064L306.544 119.392ZM312.356 119.744V108.896H313.204C313.404 108.896 313.532 108.992 313.588 109.192L313.708 110.152C314.404 109.312 315.276 108.752 316.436 108.752C317.364 108.752 318.132 109.112 318.668 109.808C319.204 110.512 319.5 111.552 319.5 112.896C319.5 114.088 319.172 115.144 318.572 115.896C317.972 116.648 317.092 117.112 316.004 117.112C315.004 117.112 314.324 116.768 313.78 116.16V119.744H312.356ZM315.964 109.904C315.036 109.904 314.364 110.352 313.78 111.128V115.048C314.3 115.752 314.916 116.008 315.684 116.008C317.188 116.008 318.028 114.888 318.028 112.896C318.028 111.84 317.836 111.088 317.484 110.6C317.132 110.12 316.612 109.904 315.964 109.904ZM324.392 108.768C325.36 108.768 326.2 109.104 326.8 109.712C327.4 110.328 327.752 111.24 327.752 112.392C327.752 112.84 327.672 112.952 327.408 112.952H322.016C322.04 113.976 322.304 114.728 322.752 115.232C323.2 115.744 323.824 115.992 324.592 115.992C325.304 115.992 325.808 115.792 326.184 115.6C326.472 115.456 326.808 115.208 326.976 115.208C327.096 115.208 327.184 115.256 327.248 115.344L327.648 115.864C326.944 116.712 325.616 117.112 324.472 117.112C323.352 117.112 322.392 116.728 321.704 115.992C321.016 115.264 320.608 114.184 320.608 112.784C320.608 111.656 320.968 110.64 321.616 109.92C322.264 109.2 323.216 108.768 324.392 108.768ZM324.424 109.816C323.048 109.816 322.256 110.656 322.064 112.064H326.472C326.472 110.736 325.72 109.816 324.424 109.816Z" fill="white"/>
<path d="M300.117 139.922C300.95 139.922 301.608 139.628 302.063 139.124C302.511 138.62 302.756 137.906 302.756 137.066V130.969H304.107V137.066C304.107 138.221 303.729 139.236 303.043 139.957C302.357 140.685 301.349 141.119 300.117 141.119C298.885 141.119 297.884 140.685 297.191 139.957C296.498 139.236 296.12 138.221 296.12 137.066V130.969H297.471V137.059C297.471 137.899 297.716 138.613 298.171 139.117C298.619 139.621 299.284 139.922 300.117 139.922ZM308.055 141H306.697V130.969H308.055V141ZM310.647 141.147C310.514 141.476 310.234 141.63 309.961 141.63H309.436L313.643 131.151C313.762 130.85 313.993 130.689 314.301 130.689H314.826L310.647 141.147ZM319.859 139.922C320.692 139.922 321.35 139.628 321.805 139.124C322.253 138.62 322.498 137.906 322.498 137.066V130.969H323.849V137.066C323.849 138.221 323.471 139.236 322.785 139.957C322.099 140.685 321.091 141.119 319.859 141.119C318.627 141.119 317.626 140.685 316.933 139.957C316.24 139.236 315.862 138.221 315.862 137.066V130.969H317.213V137.059C317.213 137.899 317.458 138.613 317.913 139.117C318.361 139.621 319.026 139.922 319.859 139.922ZM328.518 135.848L325.207 130.969H326.558C326.754 130.969 326.824 131.039 326.901 131.158L329.519 135.176C329.554 135.078 329.603 134.973 329.666 134.854L332.137 131.186C332.221 131.053 332.312 130.969 332.452 130.969H333.747L330.422 135.785L333.859 141H332.515C332.312 141 332.207 140.874 332.13 140.741L329.442 136.534C329.407 136.632 329.365 136.723 329.316 136.814L326.698 140.741C326.614 140.874 326.523 141 326.327 141H325.067L328.518 135.848ZM342.685 141C342.51 141 342.398 140.916 342.349 140.741L342.237 139.88C341.628 140.615 340.865 141.098 339.857 141.098C339.045 141.098 338.373 140.783 337.904 140.174C337.435 139.565 337.176 138.655 337.176 137.479C337.176 136.436 337.463 135.512 337.995 134.847C338.52 134.182 339.283 133.783 340.242 133.783C341.11 133.783 341.698 134.091 342.181 134.623V130.689H343.427V141H342.685ZM340.27 140.09C341.082 140.09 341.67 139.698 342.181 139.019V135.589C341.726 134.973 341.187 134.756 340.522 134.756C339.199 134.756 338.464 135.736 338.464 137.479C338.464 138.403 338.625 139.054 338.933 139.474C339.241 139.901 339.689 140.09 340.27 140.09ZM348.321 133.797C349.168 133.797 349.903 134.091 350.428 134.623C350.953 135.162 351.261 135.96 351.261 136.968C351.261 137.36 351.191 137.458 350.96 137.458H346.242C346.263 138.354 346.494 139.012 346.886 139.453C347.278 139.901 347.824 140.118 348.496 140.118C349.119 140.118 349.56 139.943 349.889 139.775C350.141 139.649 350.435 139.432 350.582 139.432C350.687 139.432 350.764 139.474 350.82 139.551L351.17 140.006C350.554 140.748 349.392 141.098 348.391 141.098C347.411 141.098 346.571 140.762 345.969 140.118C345.367 139.481 345.01 138.536 345.01 137.311C345.01 136.324 345.325 135.435 345.892 134.805C346.459 134.175 347.292 133.797 348.321 133.797ZM348.349 134.714C347.145 134.714 346.452 135.449 346.284 136.681H350.141C350.141 135.519 349.483 134.714 348.349 134.714ZM356.916 135.078C356.86 135.183 356.776 135.232 356.657 135.232C356.538 135.232 356.293 135.085 356.097 134.98C355.838 134.854 355.488 134.728 355.005 134.728C354.214 134.728 353.64 135.148 353.64 135.757C353.64 136.492 354.606 136.688 355.481 136.975C356.468 137.311 357.315 137.71 357.315 138.83C357.315 139.481 357.077 140.048 356.622 140.454C356.167 140.86 355.502 141.112 354.634 141.112C353.647 141.112 352.828 140.755 352.268 140.251L352.562 139.775C352.639 139.656 352.73 139.586 352.898 139.586C353.045 139.586 353.29 139.775 353.507 139.901C353.773 140.062 354.13 140.216 354.697 140.216C355.607 140.216 356.146 139.733 356.146 139.047C356.146 138.655 355.915 138.41 355.572 138.228C355.278 138.074 354.683 137.906 354.305 137.78C353.29 137.451 352.457 137.031 352.457 135.855C352.457 135.316 352.688 134.791 353.115 134.413C353.542 134.035 354.172 133.797 354.977 133.797C355.908 133.797 356.657 134.112 357.196 134.623L356.916 135.078ZM360.592 131.683C360.592 132.159 360.172 132.565 359.696 132.565C359.22 132.565 358.814 132.159 358.814 131.683C358.814 131.2 359.213 130.787 359.696 130.787C360.172 130.787 360.592 131.193 360.592 131.683ZM360.312 133.909V141H359.066V133.909H360.312ZM364.895 133.79C365.511 133.79 366.05 133.93 366.491 134.189H368.416V134.651C368.416 134.805 368.318 134.903 368.122 134.945L367.317 135.057C367.478 135.358 367.555 135.701 367.555 136.072C367.555 136.765 367.275 137.339 366.806 137.738C366.33 138.137 365.672 138.361 364.895 138.361C364.566 138.361 364.251 138.319 363.957 138.242C363.656 138.431 363.502 138.655 363.502 138.858C363.502 139.558 364.825 139.467 365.882 139.537C367.142 139.628 368.255 139.908 368.255 141.182C368.255 141.791 367.94 142.379 367.373 142.827C366.806 143.268 365.973 143.555 364.937 143.555C363.901 143.555 363.117 143.331 362.606 142.988C362.095 142.645 361.836 142.176 361.836 141.679C361.836 140.979 362.305 140.489 363.082 140.202C362.683 140.013 362.424 139.726 362.424 139.201C362.424 138.76 362.774 138.263 363.327 137.99C362.627 137.598 362.207 136.94 362.207 136.072C362.207 135.379 362.487 134.805 362.963 134.406C363.439 134.014 364.111 133.79 364.895 133.79ZM364.895 137.535C365.875 137.535 366.442 136.975 366.442 136.107C366.442 135.239 365.903 134.686 364.895 134.686C363.894 134.686 363.355 135.239 363.355 136.107C363.355 136.975 363.936 137.535 364.895 137.535ZM367.107 141.385C367.107 140.965 366.456 140.643 365.98 140.58C365.616 140.531 364.958 140.503 364.545 140.482C364.293 140.468 364.055 140.44 363.824 140.405C363.292 140.657 362.928 141.014 362.928 141.518C362.928 141.833 363.089 142.12 363.425 142.323C363.761 142.519 364.265 142.645 364.958 142.645C365.63 142.645 366.169 142.519 366.54 142.295C366.904 142.071 367.107 141.756 367.107 141.385ZM369.659 141V133.909H370.401C370.576 133.909 370.688 133.993 370.737 134.168L370.835 134.938C371.451 134.259 372.186 133.797 373.187 133.797C373.964 133.797 374.559 134.063 374.958 134.532C375.35 135.008 375.56 135.68 375.56 136.485V141H374.314V136.485C374.314 135.414 373.831 134.791 372.823 134.791C372.088 134.791 371.444 135.169 370.905 135.778V141H369.659Z" fill="white"/>
<rect x="20" y="158" width="357" height="154" rx="10" fill="white"/>
<rect x="40" y="225" width="15" height="67" rx="3" fill="#735FF4"/>
<rect x="40" y="247" width="15" height="45" rx="3" fill="#FBE274"/>
<rect x="77.75" y="209" width="15" height="83" rx="3" fill="#735FF4"/>
<rect x="77.75" y="236.254" width="15" height="55.7463" rx="3" fill="#FBE274"/>
<rect x="115.5" y="194" width="15" height="98" rx="3" fill="#735FF4"/>
<rect x="115.5" y="226.179" width="15" height="65.8209" rx="3" fill="#FBE274"/>
<rect x="153.25" y="235" width="15" height="57" rx="3" fill="#735FF4"/>
<rect x="153.25" y="253.716" width="15" height="38.2836" rx="3" fill="#FBE274"/>
<rect x="191" y="213" width="15" height="79" rx="3" fill="#735FF4"/>
<rect x="191" y="238.94" width="15" height="53.0597" rx="3" fill="#FBE274"/>
<rect x="228.75" y="250" width="15" height="42" rx="3" fill="#735FF4"/>
<rect x="228.75" y="263.791" width="15" height="28.209" rx="3" fill="#FBE274"/>
<rect x="266.5" y="273" width="15" height="19" rx="3" fill="#735FF4"/>
<rect x="266.5" y="279.239" width="15" height="12.7612" rx="3" fill="#FBE274"/>
<rect x="304.25" y="209" width="15" height="83" rx="3" fill="#735FF4"/>
<rect x="304.25" y="236.254" width="15" height="55.7463" rx="3" fill="#FBE274"/>
<rect x="342" y="264" width="15" height="28" rx="3" fill="#735FF4"/>
<rect x="342" y="273.194" width="15" height="18.806" rx="3" fill="#FBE274"/>
</svg>
