<svg width="770" height="471" viewBox="0 0 770 471" fill="none" xmlns="http://www.w3.org/2000/svg">
<rect width="770" height="470.449" fill="white"/>
<rect x="54.7252" y="340.835" width="660.549" height="80.6484" fill="black"/>
<rect x="54.7252" y="340.835" width="660.549" height="80.6484" stroke="#EBEAF3" stroke-width="5.7606"/>
<path d="M287.426 393.527C280.882 393.527 276.642 388.98 276.642 381.944C276.642 374.97 281.035 370.331 287.61 370.331C292.925 370.331 296.888 373.434 297.656 378.257H293.509C292.741 375.646 290.498 374.11 287.518 374.11C283.37 374.11 280.759 377.121 280.759 381.914C280.759 386.676 283.401 389.748 287.518 389.748C290.559 389.748 292.894 388.15 293.632 385.662H297.718C296.858 390.393 292.741 393.527 287.426 393.527ZM310.216 377.919V381.391H308.833C306.13 381.391 304.44 382.835 304.44 385.785V393.158H300.692V378.012H304.225L304.44 380.224C305.085 378.718 306.529 377.704 308.557 377.704C309.079 377.704 309.601 377.766 310.216 377.919ZM319.033 393.558C314.516 393.558 311.352 390.27 311.352 385.57C311.352 380.807 314.455 377.52 318.91 377.52C323.457 377.52 326.345 380.562 326.345 385.293V386.43L314.916 386.461C315.192 389.133 316.605 390.485 319.094 390.485C321.153 390.485 322.504 389.686 322.934 388.242H326.406C325.761 391.561 322.996 393.558 319.033 393.558ZM318.94 380.592C316.728 380.592 315.377 381.791 315.008 384.064H322.627C322.627 381.975 321.183 380.592 318.94 380.592ZM333.711 393.558C330.485 393.558 328.519 391.683 328.519 388.826C328.519 386.03 330.546 384.279 334.141 384.003L338.688 383.665V383.327C338.688 381.268 337.459 380.439 335.554 380.439C333.342 380.439 332.113 381.36 332.113 382.958H328.918C328.918 379.671 331.622 377.52 335.739 377.52C339.825 377.52 342.344 379.732 342.344 383.941V393.158H339.057L338.78 390.915C338.135 392.482 336.077 393.558 333.711 393.558ZM334.94 390.731C337.244 390.731 338.719 389.349 338.719 387.014V386.215L335.554 386.461C333.219 386.676 332.328 387.444 332.328 388.673C332.328 390.055 333.25 390.731 334.94 390.731ZM350.978 393.158H347.23V381.115H344.311V377.981H347.23V373.25H350.978V377.981H353.927V381.115H350.978V393.158ZM362.897 393.558C358.381 393.558 355.216 390.27 355.216 385.57C355.216 380.807 358.319 377.52 362.774 377.52C367.321 377.52 370.209 380.562 370.209 385.293V386.43L358.78 386.461C359.057 389.133 360.47 390.485 362.959 390.485C365.017 390.485 366.369 389.686 366.799 388.242H370.271C369.626 391.561 366.86 393.558 362.897 393.558ZM362.805 380.592C360.593 380.592 359.241 381.791 358.872 384.064H366.492C366.492 381.975 365.048 380.592 362.805 380.592ZM386.006 393.558C382.78 393.558 380.814 391.683 380.814 388.826C380.814 386.03 382.842 384.279 386.436 384.003L390.983 383.665V383.327C390.983 381.268 389.755 380.439 387.85 380.439C385.638 380.439 384.409 381.36 384.409 382.958H381.213C381.213 379.671 383.917 377.52 388.034 377.52C392.12 377.52 394.64 379.732 394.64 383.941V393.158H391.352L391.076 390.915C390.43 392.482 388.372 393.558 386.006 393.558ZM387.235 390.731C389.539 390.731 391.014 389.349 391.014 387.014V386.215L387.85 386.461C385.515 386.676 384.624 387.444 384.624 388.673C384.624 390.055 385.545 390.731 387.235 390.731ZM397.431 385.539C397.431 380.838 400.534 377.52 405.019 377.52C409.167 377.52 411.994 379.824 412.393 383.48H408.645C408.215 381.76 406.955 380.869 405.173 380.869C402.777 380.869 401.179 382.682 401.179 385.539C401.179 388.396 402.654 390.178 405.05 390.178C406.924 390.178 408.245 389.256 408.645 387.597H412.424C411.963 391.13 409.013 393.558 405.05 393.558C400.442 393.558 397.431 390.362 397.431 385.539ZM414.323 385.539C414.323 380.838 417.426 377.52 421.911 377.52C426.059 377.52 428.885 379.824 429.285 383.48H425.536C425.106 381.76 423.847 380.869 422.065 380.869C419.668 380.869 418.071 382.682 418.071 385.539C418.071 388.396 419.545 390.178 421.942 390.178C423.816 390.178 425.137 389.256 425.536 387.597H429.315C428.855 391.13 425.905 393.558 421.942 393.558C417.333 393.558 414.323 390.362 414.323 385.539ZM431.214 385.539C431.214 380.807 434.625 377.551 439.325 377.551C444.026 377.551 447.436 380.807 447.436 385.539C447.436 390.27 444.026 393.527 439.325 393.527C434.625 393.527 431.214 390.27 431.214 385.539ZM434.963 385.539C434.963 388.304 436.744 390.178 439.325 390.178C441.906 390.178 443.688 388.304 443.688 385.539C443.688 382.774 441.906 380.9 439.325 380.9C436.744 380.9 434.963 382.774 434.963 385.539ZM460.339 377.981H464.088V393.158H460.616L460.339 391.13C459.418 392.574 457.451 393.558 455.424 393.558C451.921 393.558 449.863 391.192 449.863 387.474V377.981H453.611V386.153C453.611 389.041 454.748 390.209 456.837 390.209C459.203 390.209 460.339 388.826 460.339 385.938V377.981ZM471.707 393.158H467.959V377.981H471.431L471.738 379.947C472.69 378.411 474.534 377.52 476.592 377.52C480.402 377.52 482.368 379.886 482.368 383.818V393.158H478.62V384.709C478.62 382.159 477.36 380.93 475.425 380.93C473.12 380.93 471.707 382.528 471.707 384.986V393.158ZM491.212 393.158H487.464V381.115H484.545V377.981H487.464V373.25H491.212V377.981H494.162V381.115H491.212V393.158Z" fill="white"/>
<path d="M81.1872 83.9688H74.213V72.7394H81.1872V74.5521H76.1793V77.4401H80.6649V79.1759H76.1793V82.1561H81.1872V83.9688ZM84.9166 83.9688H83.0425V76.3801H84.763L84.9166 77.2711C85.3006 76.6413 86.0687 76.1497 87.1594 76.1497C88.3115 76.1497 89.1103 76.7181 89.5097 77.5937C89.8937 76.7181 90.7847 76.1497 91.9368 76.1497C93.7802 76.1497 94.7941 77.2557 94.7941 79.007V83.9688H92.9353V79.4985C92.9353 78.4079 92.3516 77.8395 91.4606 77.8395C90.5543 77.8395 89.863 78.4232 89.863 79.6675V83.9688H87.9889V79.4832C87.9889 78.4232 87.4205 77.8548 86.5296 77.8548C85.6386 77.8548 84.9166 78.4386 84.9166 79.6675V83.9688ZM98.892 84.1685C97.2791 84.1685 96.2959 83.2314 96.2959 81.8028C96.2959 80.4049 97.3098 79.5292 99.1071 79.391L101.381 79.222V79.053C101.381 78.0238 100.766 77.609 99.8137 77.609C98.7077 77.609 98.0932 78.0699 98.0932 78.8687H96.4956C96.4956 77.225 97.8475 76.1497 99.9059 76.1497C101.949 76.1497 103.209 77.2557 103.209 79.3603V83.9688H101.565L101.427 82.8474C101.104 83.6308 100.075 84.1685 98.892 84.1685ZM99.5065 82.7552C100.659 82.7552 101.396 82.0639 101.396 80.8964V80.497L99.8137 80.6199C98.6463 80.7275 98.2008 81.1115 98.2008 81.726C98.2008 82.4172 98.6616 82.7552 99.5065 82.7552ZM105.987 74.8593C105.342 74.8593 104.835 74.3524 104.835 73.7226C104.835 73.0927 105.342 72.6012 105.987 72.6012C106.601 72.6012 107.108 73.0927 107.108 73.7226C107.108 74.3524 106.601 74.8593 105.987 74.8593ZM105.05 83.9688V76.3801H106.924V83.9688H105.05ZM110.75 83.9688H108.891V72.5397H110.75V83.9688Z" fill="black" fill-opacity="0.5"/>
<path d="M75.5956 102.911C74.8121 102.911 74.167 102.266 74.167 101.482C74.167 100.676 74.8121 100.054 75.5956 100.054C76.379 100.054 77.0242 100.676 77.0242 101.482C77.0242 102.266 76.379 102.911 75.5956 102.911ZM74.5356 116.852V105.584H76.7016V116.852H74.5356ZM82.0122 116.852H79.8462V105.584H81.8048L82.0352 107.312C82.7495 106.022 84.1782 105.261 85.7681 105.261C88.7405 105.261 90.1001 107.082 90.1001 109.962V116.852H87.9341V110.446C87.9341 108.165 86.8741 107.243 85.2151 107.243C83.1873 107.243 82.0122 108.695 82.0122 110.884V116.852ZM91.9019 105.584H93.5609V103.787C93.5609 101.021 95.0817 99.8924 97.1325 99.8924C97.5472 99.8924 98.0311 99.9154 98.4689 99.9845V101.851H97.5012C96.0956 101.851 95.7269 102.565 95.7269 103.787V105.584H98.3998V107.404H95.7269V116.852H93.5609V107.404H91.9019V105.584ZM99.3384 111.206C99.3384 107.727 101.827 105.284 105.214 105.284C108.578 105.284 111.067 107.727 111.067 111.206C111.067 114.686 108.578 117.128 105.214 117.128C101.827 117.128 99.3384 114.686 99.3384 111.206ZM101.527 111.206C101.527 113.556 103.025 115.193 105.214 115.193C107.38 115.193 108.901 113.556 108.901 111.206C108.901 108.856 107.38 107.22 105.214 107.22C103.025 107.22 101.527 108.856 101.527 111.206ZM117.866 111.736C117.866 109.893 119.248 108.648 121.737 108.464L124.986 108.211V107.911C124.986 106.367 124.156 105.584 122.543 105.584C120.884 105.584 119.94 106.298 119.94 107.542H118.188C118.188 105.399 119.94 103.994 122.613 103.994C125.355 103.994 126.944 105.492 126.944 108.118V112.128C126.944 113.027 127.382 113.464 128.258 113.464C129.663 113.464 130.631 111.713 130.631 109.132C130.631 104.57 127.29 101.321 122.589 101.321C117.981 101.321 114.456 104.893 114.456 109.547C114.456 114.271 117.958 117.842 122.589 117.842C124.41 117.842 126.161 117.243 127.613 116.137L128.35 117.382C126.714 118.626 124.732 119.271 122.589 119.271C117.082 119.271 112.912 115.1 112.912 109.547C112.912 104.063 117.105 99.8924 122.589 99.8924C128.166 99.8924 132.175 103.763 132.175 109.132C132.175 112.52 130.493 114.847 128.027 114.847C126.438 114.847 125.447 114.133 125.216 112.819C124.663 114.063 123.212 114.847 121.483 114.847C119.248 114.847 117.866 113.649 117.866 111.736ZM119.87 111.667C119.87 112.727 120.608 113.28 121.967 113.28C123.857 113.28 125.009 112.105 125.009 110.146V109.616L122.359 109.847C120.654 109.985 119.87 110.584 119.87 111.667ZM134.038 110.93C134.038 107.75 136.088 105.261 139.36 105.261C141.181 105.261 142.586 106.091 143.301 107.496L143.462 105.584H145.397V116.391C145.397 119.939 143.208 122.197 139.752 122.197C136.687 122.197 134.591 120.469 134.176 117.612H136.342C136.618 119.271 137.863 120.239 139.752 120.239C141.872 120.239 143.255 118.856 143.255 116.713V114.455C142.517 115.769 141.042 116.552 139.268 116.552C136.065 116.552 134.038 114.086 134.038 110.93ZM136.204 110.884C136.204 113.003 137.517 114.663 139.637 114.663C141.826 114.663 143.162 113.096 143.162 110.884C143.162 108.718 141.872 107.151 139.66 107.151C137.494 107.151 136.204 108.81 136.204 110.884ZM150.689 116.852H148.523V105.584H150.459L150.666 107.059C151.242 105.999 152.441 105.261 154.03 105.261C155.782 105.261 157.026 106.137 157.602 107.542C158.132 106.137 159.491 105.261 161.243 105.261C163.823 105.261 165.39 106.874 165.39 109.478V116.852H163.27V110.008C163.27 108.234 162.28 107.22 160.759 107.22C159.123 107.22 158.04 108.372 158.04 110.169V116.852H155.897V109.985C155.897 108.211 154.929 107.243 153.408 107.243C151.772 107.243 150.689 108.372 150.689 110.169V116.852ZM171.688 117.128C169.268 117.128 167.84 115.769 167.84 113.718C167.84 111.644 169.384 110.354 172.034 110.146L175.582 109.87V109.547C175.582 107.658 174.453 106.989 172.932 106.989C171.112 106.989 170.075 107.796 170.075 109.155H168.186C168.186 106.805 170.121 105.261 173.024 105.261C175.813 105.261 177.702 106.736 177.702 109.778V116.852H175.859L175.628 115.031C175.052 116.322 173.508 117.128 171.688 117.128ZM172.31 115.446C174.361 115.446 175.605 114.11 175.605 111.99V111.391L172.725 111.621C170.812 111.805 170.029 112.543 170.029 113.649C170.029 114.847 170.905 115.446 172.31 115.446ZM181.762 102.911C180.978 102.911 180.333 102.266 180.333 101.482C180.333 100.676 180.978 100.054 181.762 100.054C182.545 100.054 183.19 100.676 183.19 101.482C183.19 102.266 182.545 102.911 181.762 102.911ZM180.702 116.852V105.584H182.868V116.852H180.702ZM188.224 116.852H186.058V99.8924H188.224V116.852ZM193.026 117.128C192.127 117.128 191.367 116.391 191.367 115.515C191.367 114.616 192.127 113.879 193.026 113.879C193.901 113.879 194.662 114.616 194.662 115.515C194.662 116.391 193.901 117.128 193.026 117.128ZM196.346 111.229C196.346 107.704 198.581 105.261 201.876 105.261C204.71 105.261 206.692 106.874 207.084 109.386H204.918C204.549 107.957 203.397 107.197 201.945 107.197C199.895 107.197 198.489 108.764 198.489 111.206C198.489 113.626 199.802 115.193 201.853 115.193C203.397 115.193 204.549 114.386 204.941 113.05H207.107C206.669 115.492 204.572 117.128 201.853 117.128C198.535 117.128 196.346 114.778 196.346 111.229ZM208.655 111.206C208.655 107.727 211.143 105.284 214.531 105.284C217.895 105.284 220.383 107.727 220.383 111.206C220.383 114.686 217.895 117.128 214.531 117.128C211.143 117.128 208.655 114.686 208.655 111.206ZM210.844 111.206C210.844 113.556 212.342 115.193 214.531 115.193C216.697 115.193 218.217 113.556 218.217 111.206C218.217 108.856 216.697 107.22 214.531 107.22C212.342 107.22 210.844 108.856 210.844 111.206ZM224.947 116.852H222.781V105.584H224.717L224.924 107.059C225.5 105.999 226.698 105.261 228.288 105.261C230.039 105.261 231.284 106.137 231.86 107.542C232.39 106.137 233.749 105.261 235.5 105.261C238.081 105.261 239.648 106.874 239.648 109.478V116.852H237.528V110.008C237.528 108.234 236.537 107.22 235.017 107.22C233.381 107.22 232.298 108.372 232.298 110.169V116.852H230.155V109.985C230.155 108.211 229.187 107.243 227.666 107.243C226.03 107.243 224.947 108.372 224.947 110.169V116.852Z" fill="black"/>
<rect x="54.7252" y="54.7271" width="660.549" height="80.6484" stroke="#EBEAF3" stroke-width="5.7606"/>
<path d="M78.6525 174.187H76.1793V178.059H74.213V166.829H78.6525C80.9107 166.829 82.37 168.304 82.37 170.501C82.37 172.667 80.8953 174.187 78.6525 174.187ZM78.2685 168.58H76.1793V172.436H78.2378C79.5896 172.436 80.3116 171.714 80.3116 170.485C80.3116 169.256 79.5742 168.58 78.2685 168.58ZM85.7057 178.258C84.0927 178.258 83.1096 177.321 83.1096 175.893C83.1096 174.495 84.1234 173.619 85.9207 173.481L88.1943 173.312V173.143C88.1943 172.114 87.5798 171.699 86.6274 171.699C85.5213 171.699 84.9069 172.16 84.9069 172.959H83.3093C83.3093 171.315 84.6611 170.24 86.7195 170.24C88.7626 170.24 90.0223 171.346 90.0223 173.45V178.059H88.3786L88.2403 176.937C87.9177 177.721 86.8885 178.258 85.7057 178.258ZM86.3201 176.845C87.4723 176.845 88.2096 176.154 88.2096 174.986V174.587L86.6274 174.71C85.4599 174.817 85.0144 175.201 85.0144 175.816C85.0144 176.507 85.4752 176.845 86.3201 176.845ZM91.2797 175.754H93.0616C93.077 176.415 93.5685 176.83 94.4288 176.83C95.3044 176.83 95.7806 176.476 95.7806 175.923C95.7806 175.539 95.5809 175.263 94.905 175.109L93.5378 174.787C92.1706 174.479 91.5101 173.834 91.5101 172.621C91.5101 171.131 92.7697 170.24 94.5209 170.24C96.2261 170.24 97.3782 171.223 97.3936 172.697H95.6116C95.5963 172.052 95.1661 171.637 94.4441 171.637C93.7068 171.637 93.2767 171.975 93.2767 172.544C93.2767 172.974 93.6146 173.25 94.2598 173.404L95.627 173.727C96.902 174.018 97.5472 174.602 97.5472 175.77C97.5472 177.306 96.2414 178.258 94.3673 178.258C92.4779 178.258 91.2797 177.244 91.2797 175.754ZM98.3904 175.754H100.172C100.188 176.415 100.679 176.83 101.54 176.83C102.415 176.83 102.891 176.476 102.891 175.923C102.891 175.539 102.692 175.263 102.016 175.109L100.649 174.787C99.2814 174.479 98.6208 173.834 98.6208 172.621C98.6208 171.131 99.8805 170.24 101.632 170.24C103.337 170.24 104.489 171.223 104.504 172.697H102.722C102.707 172.052 102.277 171.637 101.555 171.637C100.818 171.637 100.387 171.975 100.387 172.544C100.387 172.974 100.725 173.25 101.371 173.404L102.738 173.727C104.013 174.018 104.658 174.602 104.658 175.77C104.658 177.306 103.352 178.258 101.478 178.258C99.5886 178.258 98.3904 177.244 98.3904 175.754ZM107.549 178.059L105.091 170.47H107.042L108.041 173.727C108.21 174.326 108.363 174.986 108.502 175.693C108.64 174.956 108.778 174.479 109.024 173.727L110.069 170.47H111.973L112.987 173.727C113.079 174.034 113.387 175.171 113.479 175.678C113.602 175.109 113.848 174.203 113.986 173.727L115 170.47H116.981L114.354 178.059H112.603L111.559 174.771C111.251 173.773 111.082 173.051 111.021 172.667C110.944 173.02 110.806 173.558 110.422 174.802L109.377 178.059H107.549ZM117.296 174.249C117.296 171.883 119.001 170.255 121.351 170.255C123.701 170.255 125.407 171.883 125.407 174.249C125.407 176.615 123.701 178.243 121.351 178.243C119.001 178.243 117.296 176.615 117.296 174.249ZM119.17 174.249C119.17 175.631 120.061 176.569 121.351 176.569C122.641 176.569 123.532 175.631 123.532 174.249C123.532 172.866 122.641 171.929 121.351 171.929C120.061 171.929 119.17 172.866 119.17 174.249ZM131.654 170.439V172.175H130.963C129.611 172.175 128.766 172.897 128.766 174.372V178.059H126.892V170.485H128.659L128.766 171.591C129.089 170.839 129.811 170.332 130.825 170.332C131.086 170.332 131.347 170.362 131.654 170.439ZM135.786 178.258C133.589 178.258 132.222 176.645 132.222 174.295C132.222 171.929 133.605 170.24 135.894 170.24C136.954 170.24 137.891 170.685 138.367 171.438V166.63H140.226V178.059H138.505L138.382 176.876C137.921 177.751 136.938 178.258 135.786 178.258ZM136.201 176.538C137.507 176.538 138.351 175.601 138.351 174.234C138.351 172.866 137.507 171.914 136.201 171.914C134.895 171.914 134.096 172.882 134.096 174.234C134.096 175.585 134.895 176.538 136.201 176.538Z" fill="black" fill-opacity="0.5"/>
<path d="M75.9393 199.498L73.7522 198.714L74.503 196.723L76.6248 197.409C77.7347 197.8 78.3549 198.16 79.0404 198.617C78.8446 197.833 78.7466 197.05 78.7466 195.94V193.622H80.8685V195.94C80.8685 197.05 80.7705 197.866 80.6073 198.617C81.2275 198.192 81.8804 197.8 82.9903 197.409L85.1447 196.691L85.8955 198.714L83.6758 199.498C82.6312 199.857 81.7825 199.988 81.0643 200.085C81.7498 200.673 82.2395 201.163 82.8271 202.044L84.1328 204.003L82.37 205.21L81.0643 203.35C80.3788 202.403 80.0524 201.652 79.7586 200.967C79.5301 201.816 79.1057 202.599 78.5508 203.35L77.1797 205.21L75.417 204.003L76.7227 202.044C77.3756 201.13 77.8979 200.64 78.5508 200.085C77.6368 199.955 76.9186 199.857 75.9393 199.498ZM89.647 199.498L87.4599 198.714L88.2107 196.723L90.3325 197.409C91.4424 197.8 92.0626 198.16 92.7481 198.617C92.5522 197.833 92.4543 197.05 92.4543 195.94V193.622H94.5761V195.94C94.5761 197.05 94.4782 197.866 94.315 198.617C94.9352 198.192 95.5881 197.8 96.6979 197.409L98.8524 196.691L99.6032 198.714L97.3835 199.498C96.3389 199.857 95.4901 199.988 94.772 200.085C95.4575 200.673 95.9471 201.163 96.5347 202.044L97.8405 204.003L96.0777 205.21L94.772 203.35C94.0865 202.403 93.76 201.652 93.4662 200.967C93.2377 201.816 92.8134 202.599 92.2584 203.35L90.8874 205.21L89.1247 204.003L90.4304 202.044C91.0833 201.13 91.6056 200.64 92.2584 200.085C91.3444 199.955 90.6263 199.857 89.647 199.498ZM103.355 199.498L101.168 198.714L101.918 196.723L104.04 197.409C105.15 197.8 105.77 198.16 106.456 198.617C106.26 197.833 106.162 197.05 106.162 195.94V193.622H108.284V195.94C108.284 197.05 108.186 197.866 108.023 198.617C108.643 198.192 109.296 197.8 110.406 197.409L112.56 196.691L113.311 198.714L111.091 199.498C110.047 199.857 109.198 199.988 108.48 200.085C109.165 200.673 109.655 201.163 110.242 202.044L111.548 204.003L109.785 205.21L108.48 203.35C107.794 202.403 107.468 201.652 107.174 200.967C106.945 201.816 106.521 202.599 105.966 203.35L104.595 205.21L102.832 204.003L104.138 202.044C104.791 201.13 105.313 200.64 105.966 200.085C105.052 199.955 104.334 199.857 103.355 199.498ZM117.062 199.498L114.875 198.714L115.626 196.723L117.748 197.409C118.858 197.8 119.478 198.16 120.163 198.617C119.968 197.833 119.87 197.05 119.87 195.94V193.622H121.991V195.94C121.991 197.05 121.894 197.866 121.73 198.617C122.351 198.192 123.003 197.8 124.113 197.409L126.268 196.691L127.019 198.714L124.799 199.498C123.754 199.857 122.905 199.988 122.187 200.085C122.873 200.673 123.362 201.163 123.95 202.044L125.256 204.003L123.493 205.21L122.187 203.35C121.502 202.403 121.175 201.652 120.882 200.967C120.653 201.816 120.229 202.599 119.674 203.35L118.303 205.21L116.54 204.003L117.846 202.044C118.499 201.13 119.021 200.64 119.674 200.085C118.76 199.955 118.042 199.857 117.062 199.498ZM130.77 199.498L128.583 198.714L129.334 196.723L131.456 197.409C132.565 197.8 133.186 198.16 133.871 198.617C133.675 197.833 133.577 197.05 133.577 195.94V193.622H135.699V195.94C135.699 197.05 135.601 197.866 135.438 198.617C136.058 198.192 136.711 197.8 137.821 197.409L139.975 196.691L140.726 198.714L138.506 199.498C137.462 199.857 136.613 199.988 135.895 200.085C136.581 200.673 137.07 201.163 137.658 202.044L138.963 204.003L137.201 205.21L135.895 203.35C135.209 202.403 134.883 201.652 134.589 200.967C134.361 201.816 133.936 202.599 133.381 203.35L132.01 205.21L130.248 204.003L131.553 202.044C132.206 201.13 132.729 200.64 133.381 200.085C132.467 199.955 131.749 199.857 130.77 199.498ZM144.478 199.498L142.291 198.714L143.041 196.723L145.163 197.409C146.273 197.8 146.893 198.16 147.579 198.617C147.383 197.833 147.285 197.05 147.285 195.94V193.622H149.407V195.94C149.407 197.05 149.309 197.866 149.146 198.617C149.766 198.192 150.419 197.8 151.529 197.409L153.683 196.691L154.434 198.714L152.214 199.498C151.17 199.857 150.321 199.988 149.603 200.085C150.288 200.673 150.778 201.163 151.365 202.044L152.671 204.003L150.908 205.21L149.603 203.35C148.917 202.403 148.591 201.652 148.297 200.967C148.068 201.816 147.644 202.599 147.089 203.35L145.718 205.21L143.955 204.003L145.261 202.044C145.914 201.13 146.436 200.64 147.089 200.085C146.175 199.955 145.457 199.857 144.478 199.498ZM158.185 199.498L155.998 198.714L156.749 196.723L158.871 197.409C159.981 197.8 160.601 198.16 161.286 198.617C161.091 197.833 160.993 197.05 160.993 195.94V193.622H163.114V195.94C163.114 197.05 163.017 197.866 162.853 198.617C163.474 198.192 164.126 197.8 165.236 197.409L167.391 196.691L168.142 198.714L165.922 199.498C164.877 199.857 164.029 199.988 163.31 200.085C163.996 200.673 164.486 201.163 165.073 202.044L166.379 204.003L164.616 205.21L163.31 203.35C162.625 202.403 162.298 201.652 162.005 200.967C161.776 201.816 161.352 202.599 160.797 203.35L159.426 205.21L157.663 204.003L158.969 202.044C159.622 201.13 160.144 200.64 160.797 200.085C159.883 199.955 159.165 199.857 158.185 199.498ZM171.893 199.498L169.706 198.714L170.457 196.723L172.579 197.409C173.688 197.8 174.309 198.16 174.994 198.617C174.798 197.833 174.7 197.05 174.7 195.94V193.622H176.822V195.94C176.822 197.05 176.724 197.866 176.561 198.617C177.181 198.192 177.834 197.8 178.944 197.409L181.098 196.691L181.849 198.714L179.63 199.498C178.585 199.857 177.736 199.988 177.018 200.085C177.704 200.673 178.193 201.163 178.781 202.044L180.087 204.003L178.324 205.21L177.018 203.35C176.333 202.403 176.006 201.652 175.712 200.967C175.484 201.816 175.059 202.599 174.504 203.35L173.133 205.21L171.371 204.003L172.676 202.044C173.329 201.13 173.852 200.64 174.504 200.085C173.59 199.955 172.872 199.857 171.893 199.498ZM185.601 199.498L183.414 198.714L184.164 196.723L186.286 197.409C187.396 197.8 188.016 198.16 188.702 198.617C188.506 197.833 188.408 197.05 188.408 195.94V193.622H190.53V195.94C190.53 197.05 190.432 197.866 190.269 198.617C190.889 198.192 191.542 197.8 192.652 197.409L194.806 196.691L195.557 198.714L193.337 199.498C192.293 199.857 191.444 199.988 190.726 200.085C191.411 200.673 191.901 201.163 192.488 202.044L193.794 204.003L192.031 205.21L190.726 203.35C190.04 202.403 189.714 201.652 189.42 200.967C189.191 201.816 188.767 202.599 188.212 203.35L186.841 205.21L185.078 204.003L186.384 202.044C187.037 201.13 187.559 200.64 188.212 200.085C187.298 199.955 186.58 199.857 185.601 199.498ZM199.308 199.498L197.121 198.714L197.872 196.723L199.994 197.409C201.104 197.8 201.724 198.16 202.409 198.617C202.214 197.833 202.116 197.05 202.116 195.94V193.622H204.238V195.94C204.238 197.05 204.14 197.866 203.976 198.617C204.597 198.192 205.249 197.8 206.359 197.409L208.514 196.691L209.265 198.714L207.045 199.498C206 199.857 205.152 199.988 204.433 200.085C205.119 200.673 205.609 201.163 206.196 202.044L207.502 204.003L205.739 205.21L204.433 203.35C203.748 202.403 203.421 201.652 203.128 200.967C202.899 201.816 202.475 202.599 201.92 203.35L200.549 205.21L198.786 204.003L200.092 202.044C200.745 201.13 201.267 200.64 201.92 200.085C201.006 199.955 200.288 199.857 199.308 199.498ZM213.016 199.498L210.829 198.714L211.58 196.723L213.702 197.409C214.811 197.8 215.432 198.16 216.117 198.617C215.921 197.833 215.823 197.05 215.823 195.94V193.622H217.945V195.94C217.945 197.05 217.847 197.866 217.684 198.617C218.304 198.192 218.957 197.8 220.067 197.409L222.221 196.691L222.972 198.714L220.753 199.498C219.708 199.857 218.859 199.988 218.141 200.085C218.827 200.673 219.316 201.163 219.904 202.044L221.21 204.003L219.447 205.21L218.141 203.35C217.456 202.403 217.129 201.652 216.835 200.967C216.607 201.816 216.182 202.599 215.628 203.35L214.256 205.21L212.494 204.003L213.799 202.044C214.452 201.13 214.975 200.64 215.628 200.085C214.713 199.955 213.995 199.857 213.016 199.498ZM226.724 199.498L224.537 198.714L225.287 196.723L227.409 197.409C228.519 197.8 229.139 198.16 229.825 198.617C229.629 197.833 229.531 197.05 229.531 195.94V193.622H231.653V195.94C231.653 197.05 231.555 197.866 231.392 198.617C232.012 198.192 232.665 197.8 233.775 197.409L235.929 196.691L236.68 198.714L234.46 199.498C233.416 199.857 232.567 199.988 231.849 200.085C232.534 200.673 233.024 201.163 233.611 202.044L234.917 204.003L233.154 205.21L231.849 203.35C231.163 202.403 230.837 201.652 230.543 200.967C230.314 201.816 229.89 202.599 229.335 203.35L227.964 205.21L226.201 204.003L227.507 202.044C228.16 201.13 228.682 200.64 229.335 200.085C228.421 199.955 227.703 199.857 226.724 199.498Z" fill="black"/>
<rect x="54.7252" y="148.817" width="660.549" height="80.6484" stroke="#EBEAF3" stroke-width="5.7606"/>
<path fill-rule="evenodd" clip-rule="evenodd" d="M690.964 184.31C687.6 179.965 681.713 174.262 673.986 174.262C666.26 174.262 660.373 179.965 657.009 184.31C655.799 185.873 655.194 186.654 654.973 188.323C654.921 188.717 654.921 189.57 654.973 189.963C655.194 191.632 655.799 192.414 657.009 193.977C660.373 198.322 666.26 204.025 673.986 204.025C681.713 204.025 687.6 198.322 690.964 193.977C692.174 192.414 692.779 191.632 693 189.963C693.052 189.57 693.052 188.717 693 188.323C692.779 186.654 692.174 185.873 690.964 184.31ZM673.986 195.864C677.698 195.864 680.707 192.855 680.707 189.143C680.707 185.432 677.698 182.423 673.986 182.423C670.275 182.423 667.266 185.432 667.266 189.143C667.266 192.855 670.275 195.864 673.986 195.864Z" fill="#EBEAF3"/>
<path d="M673.987 175.701C680.211 175.701 685.672 180.218 689.163 184.015C690.712 185.701 691.487 186.543 691.749 188.289C691.813 188.717 691.813 189.569 691.749 189.996C691.487 191.742 690.712 192.585 689.163 194.27C685.672 198.067 680.211 202.584 673.987 202.584C667.763 202.584 662.302 198.067 658.812 194.27C657.262 192.585 656.487 191.742 656.226 189.996C656.162 189.569 656.162 188.717 656.226 188.289C656.487 186.543 657.262 185.701 658.812 184.015C662.302 180.218 667.763 175.701 673.987 175.701Z" stroke="#EBEAF3" stroke-width="2.8803" stroke-linejoin="round"/>
<path fill-rule="evenodd" clip-rule="evenodd" d="M690.964 278.397C687.6 274.052 681.713 268.35 673.986 268.35C666.26 268.35 660.373 274.052 657.009 278.397C655.799 279.961 655.194 280.742 654.973 282.411C654.921 282.805 654.921 283.658 654.973 284.051C655.194 285.72 655.799 286.502 657.009 288.065C660.373 292.41 666.26 298.113 673.986 298.113C681.713 298.113 687.6 292.41 690.964 288.065C692.174 286.502 692.779 285.72 693 284.051C693.052 283.658 693.052 282.805 693 282.411C692.779 280.742 692.174 279.961 690.964 278.397ZM673.986 289.952C677.698 289.952 680.707 286.943 680.707 283.231C680.707 279.519 677.698 276.51 673.986 276.51C670.275 276.51 667.266 279.519 667.266 283.231C667.266 286.943 670.275 289.952 673.986 289.952Z" fill="#EBEAF3"/>
<path d="M673.987 269.789C680.211 269.789 685.672 274.306 689.163 278.103C690.712 279.789 691.487 280.631 691.749 282.377C691.813 282.804 691.813 283.656 691.749 284.084C691.487 285.83 690.712 286.672 689.163 288.358C685.672 292.155 680.211 296.672 673.987 296.672C667.763 296.672 662.302 292.155 658.812 288.358C657.262 286.672 656.487 285.83 656.226 284.084C656.162 283.656 656.162 282.804 656.226 282.377C656.487 280.631 657.262 279.789 658.812 278.103C662.302 274.306 667.763 269.789 673.987 269.789Z" stroke="#EBEAF3" stroke-width="2.8803" stroke-linejoin="round"/>
<path d="M78.9598 272.331C75.6878 272.331 73.5679 270.057 73.5679 266.54C73.5679 263.052 75.7646 260.733 79.0519 260.733C81.7095 260.733 83.6911 262.284 84.0752 264.696H82.0014C81.6173 263.39 80.4959 262.622 79.0059 262.622C76.932 262.622 75.6263 264.128 75.6263 266.524C75.6263 268.905 76.9474 270.441 79.0059 270.441C80.5267 270.441 81.6941 269.643 82.0628 268.398H84.1059C83.6758 270.764 81.6173 272.331 78.9598 272.331ZM85.1473 268.337C85.1473 265.971 86.8524 264.343 89.2027 264.343C91.553 264.343 93.2582 265.971 93.2582 268.337C93.2582 270.702 91.553 272.331 89.2027 272.331C86.8524 272.331 85.1473 270.702 85.1473 268.337ZM87.0214 268.337C87.0214 269.719 87.9123 270.656 89.2027 270.656C90.4931 270.656 91.3841 269.719 91.3841 268.337C91.3841 266.954 90.4931 266.017 89.2027 266.017C87.9123 266.017 87.0214 266.954 87.0214 268.337ZM96.6178 272.146H94.7437V264.558H96.4796L96.6332 265.541C97.1094 264.773 98.0311 264.327 99.0603 264.327C100.965 264.327 101.948 265.51 101.948 267.477V272.146H100.074V267.922C100.074 266.647 99.4443 266.033 98.4766 266.033C97.3244 266.033 96.6178 266.831 96.6178 268.06V272.146ZM109.089 272.146V266.125H105.986V272.146H104.128V266.125H103.037V264.558H104.128V263.636C104.128 261.578 105.203 260.717 106.739 260.717C107.031 260.717 107.384 260.733 107.707 260.794V262.392H107.046C106.201 262.392 105.986 262.883 105.986 263.636V264.558H110.963V272.146H109.089ZM110.026 263.006C109.397 263.006 108.905 262.515 108.905 261.885C108.905 261.27 109.397 260.779 110.026 260.779C110.641 260.779 111.132 261.27 111.132 261.885C111.132 262.515 110.641 263.006 110.026 263.006ZM117.658 264.527V266.263H116.966C115.615 266.263 114.77 266.985 114.77 268.46V272.146H112.896V264.573H114.662L114.77 265.679C115.092 264.927 115.814 264.42 116.828 264.42C117.089 264.42 117.35 264.45 117.658 264.527ZM120.8 272.146H118.926V264.558H120.647L120.8 265.449C121.184 264.819 121.952 264.327 123.043 264.327C124.195 264.327 124.994 264.896 125.393 265.771C125.777 264.896 126.668 264.327 127.821 264.327C129.664 264.327 130.678 265.433 130.678 267.185V272.146H128.819V267.676C128.819 266.586 128.235 266.017 127.344 266.017C126.438 266.017 125.747 266.601 125.747 267.845V272.146H123.873V267.661C123.873 266.601 123.304 266.033 122.413 266.033C121.522 266.033 120.8 266.616 120.8 267.845V272.146ZM136.658 275.664V264.558H138.394L138.517 265.71C138.978 264.834 139.976 264.327 141.128 264.327C143.264 264.327 144.677 265.879 144.677 268.26C144.677 270.626 143.386 272.346 141.128 272.346C139.992 272.346 139.008 271.901 138.532 271.133V275.664H136.658ZM138.548 268.352C138.548 269.719 139.392 270.656 140.683 270.656C142.004 270.656 142.787 269.704 142.787 268.352C142.787 267 142.004 266.033 140.683 266.033C139.392 266.033 138.548 266.985 138.548 268.352ZM148.427 272.346C146.814 272.346 145.831 271.409 145.831 269.98C145.831 268.583 146.845 267.707 148.642 267.569L150.916 267.4V267.231C150.916 266.202 150.301 265.787 149.349 265.787C148.243 265.787 147.628 266.248 147.628 267.046H146.031C146.031 265.403 147.383 264.327 149.441 264.327C151.484 264.327 152.744 265.433 152.744 267.538V272.146H151.1L150.962 271.025C150.639 271.809 149.61 272.346 148.427 272.346ZM149.042 270.933C150.194 270.933 150.931 270.242 150.931 269.074V268.675L149.349 268.798C148.181 268.905 147.736 269.289 147.736 269.904C147.736 270.595 148.197 270.933 149.042 270.933ZM154.001 269.842H155.783C155.798 270.503 156.29 270.918 157.15 270.918C158.026 270.918 158.502 270.564 158.502 270.011C158.502 269.627 158.302 269.351 157.627 269.197L156.259 268.874C154.892 268.567 154.232 267.922 154.232 266.708C154.232 265.218 155.491 264.327 157.242 264.327C158.948 264.327 160.1 265.311 160.115 266.785H158.333C158.318 266.14 157.888 265.725 157.166 265.725C156.428 265.725 155.998 266.063 155.998 266.632C155.998 267.062 156.336 267.338 156.981 267.492L158.348 267.815C159.624 268.106 160.269 268.69 160.269 269.858C160.269 271.394 158.963 272.346 157.089 272.346C155.199 272.346 154.001 271.332 154.001 269.842ZM161.112 269.842H162.894C162.909 270.503 163.401 270.918 164.261 270.918C165.137 270.918 165.613 270.564 165.613 270.011C165.613 269.627 165.413 269.351 164.737 269.197L163.37 268.874C162.003 268.567 161.342 267.922 161.342 266.708C161.342 265.218 162.602 264.327 164.353 264.327C166.058 264.327 167.21 265.311 167.226 266.785H165.444C165.429 266.14 164.998 265.725 164.276 265.725C163.539 265.725 163.109 266.063 163.109 266.632C163.109 267.062 163.447 267.338 164.092 267.492L165.459 267.815C166.734 268.106 167.379 268.69 167.379 269.858C167.379 271.394 166.074 272.346 164.2 272.346C162.31 272.346 161.112 271.332 161.112 269.842ZM170.271 272.146L167.813 264.558H169.764L170.762 267.815C170.931 268.414 171.085 269.074 171.223 269.781C171.361 269.043 171.5 268.567 171.745 267.815L172.79 264.558H174.695L175.709 267.815C175.801 268.122 176.108 269.259 176.2 269.765C176.323 269.197 176.569 268.291 176.707 267.815L177.721 264.558H179.703L177.076 272.146H175.325L174.28 268.859C173.973 267.861 173.804 267.139 173.743 266.755C173.666 267.108 173.527 267.646 173.143 268.89L172.099 272.146H170.271ZM180.017 268.337C180.017 265.971 181.722 264.343 184.073 264.343C186.423 264.343 188.128 265.971 188.128 268.337C188.128 270.702 186.423 272.331 184.073 272.331C181.722 272.331 180.017 270.702 180.017 268.337ZM181.891 268.337C181.891 269.719 182.782 270.656 184.073 270.656C185.363 270.656 186.254 269.719 186.254 268.337C186.254 266.954 185.363 266.017 184.073 266.017C182.782 266.017 181.891 266.954 181.891 268.337ZM194.376 264.527V266.263H193.684C192.333 266.263 191.488 266.985 191.488 268.46V272.146H189.614V264.573H191.38L191.488 265.679C191.81 264.927 192.532 264.42 193.546 264.42C193.807 264.42 194.068 264.45 194.376 264.527ZM198.508 272.346C196.311 272.346 194.944 270.733 194.944 268.383C194.944 266.017 196.326 264.327 198.615 264.327C199.675 264.327 200.612 264.773 201.088 265.526V260.717H202.947V272.146H201.227L201.104 270.964C200.643 271.839 199.66 272.346 198.508 272.346ZM198.922 270.626C200.228 270.626 201.073 269.689 201.073 268.321C201.073 266.954 200.228 266.002 198.922 266.002C197.617 266.002 196.818 266.97 196.818 268.321C196.818 269.673 197.617 270.626 198.922 270.626Z" fill="black" fill-opacity="0.5"/>
<path d="M75.9393 293.586L73.7522 292.802L74.503 290.811L76.6248 291.497C77.7347 291.888 78.3549 292.247 79.0404 292.704C78.8446 291.921 78.7466 291.138 78.7466 290.028V287.71H80.8685V290.028C80.8685 291.138 80.7705 291.954 80.6073 292.704C81.2275 292.28 81.8804 291.888 82.9903 291.497L85.1447 290.778L85.8955 292.802L83.6758 293.586C82.6312 293.945 81.7825 294.075 81.0643 294.173C81.7498 294.761 82.2395 295.251 82.8271 296.132L84.1328 298.091L82.37 299.298L81.0643 297.438C80.3788 296.491 80.0524 295.74 79.7586 295.055C79.5301 295.903 79.1057 296.687 78.5508 297.438L77.1797 299.298L75.417 298.091L76.7227 296.132C77.3756 295.218 77.8979 294.728 78.5508 294.173C77.6368 294.043 76.9186 293.945 75.9393 293.586ZM89.647 293.586L87.4599 292.802L88.2107 290.811L90.3325 291.497C91.4424 291.888 92.0626 292.247 92.7481 292.704C92.5522 291.921 92.4543 291.138 92.4543 290.028V287.71H94.5761V290.028C94.5761 291.138 94.4782 291.954 94.315 292.704C94.9352 292.28 95.5881 291.888 96.6979 291.497L98.8524 290.778L99.6032 292.802L97.3835 293.586C96.3389 293.945 95.4901 294.075 94.772 294.173C95.4575 294.761 95.9471 295.251 96.5347 296.132L97.8405 298.091L96.0777 299.298L94.772 297.438C94.0865 296.491 93.76 295.74 93.4662 295.055C93.2377 295.903 92.8134 296.687 92.2584 297.438L90.8874 299.298L89.1247 298.091L90.4304 296.132C91.0833 295.218 91.6056 294.728 92.2584 294.173C91.3444 294.043 90.6263 293.945 89.647 293.586ZM103.355 293.586L101.168 292.802L101.918 290.811L104.04 291.497C105.15 291.888 105.77 292.247 106.456 292.704C106.26 291.921 106.162 291.138 106.162 290.028V287.71H108.284V290.028C108.284 291.138 108.186 291.954 108.023 292.704C108.643 292.28 109.296 291.888 110.406 291.497L112.56 290.778L113.311 292.802L111.091 293.586C110.047 293.945 109.198 294.075 108.48 294.173C109.165 294.761 109.655 295.251 110.242 296.132L111.548 298.091L109.785 299.298L108.48 297.438C107.794 296.491 107.468 295.74 107.174 295.055C106.945 295.903 106.521 296.687 105.966 297.438L104.595 299.298L102.832 298.091L104.138 296.132C104.791 295.218 105.313 294.728 105.966 294.173C105.052 294.043 104.334 293.945 103.355 293.586ZM117.062 293.586L114.875 292.802L115.626 290.811L117.748 291.497C118.858 291.888 119.478 292.247 120.163 292.704C119.968 291.921 119.87 291.138 119.87 290.028V287.71H121.991V290.028C121.991 291.138 121.894 291.954 121.73 292.704C122.351 292.28 123.003 291.888 124.113 291.497L126.268 290.778L127.019 292.802L124.799 293.586C123.754 293.945 122.905 294.075 122.187 294.173C122.873 294.761 123.362 295.251 123.95 296.132L125.256 298.091L123.493 299.298L122.187 297.438C121.502 296.491 121.175 295.74 120.882 295.055C120.653 295.903 120.229 296.687 119.674 297.438L118.303 299.298L116.54 298.091L117.846 296.132C118.499 295.218 119.021 294.728 119.674 294.173C118.76 294.043 118.042 293.945 117.062 293.586ZM130.77 293.586L128.583 292.802L129.334 290.811L131.456 291.497C132.565 291.888 133.186 292.247 133.871 292.704C133.675 291.921 133.577 291.138 133.577 290.028V287.71H135.699V290.028C135.699 291.138 135.601 291.954 135.438 292.704C136.058 292.28 136.711 291.888 137.821 291.497L139.975 290.778L140.726 292.802L138.506 293.586C137.462 293.945 136.613 294.075 135.895 294.173C136.581 294.761 137.07 295.251 137.658 296.132L138.963 298.091L137.201 299.298L135.895 297.438C135.209 296.491 134.883 295.74 134.589 295.055C134.361 295.903 133.936 296.687 133.381 297.438L132.01 299.298L130.248 298.091L131.553 296.132C132.206 295.218 132.729 294.728 133.381 294.173C132.467 294.043 131.749 293.945 130.77 293.586ZM144.478 293.586L142.291 292.802L143.041 290.811L145.163 291.497C146.273 291.888 146.893 292.247 147.579 292.704C147.383 291.921 147.285 291.138 147.285 290.028V287.71H149.407V290.028C149.407 291.138 149.309 291.954 149.146 292.704C149.766 292.28 150.419 291.888 151.529 291.497L153.683 290.778L154.434 292.802L152.214 293.586C151.17 293.945 150.321 294.075 149.603 294.173C150.288 294.761 150.778 295.251 151.365 296.132L152.671 298.091L150.908 299.298L149.603 297.438C148.917 296.491 148.591 295.74 148.297 295.055C148.068 295.903 147.644 296.687 147.089 297.438L145.718 299.298L143.955 298.091L145.261 296.132C145.914 295.218 146.436 294.728 147.089 294.173C146.175 294.043 145.457 293.945 144.478 293.586ZM158.185 293.586L155.998 292.802L156.749 290.811L158.871 291.497C159.981 291.888 160.601 292.247 161.286 292.704C161.091 291.921 160.993 291.138 160.993 290.028V287.71H163.114V290.028C163.114 291.138 163.017 291.954 162.853 292.704C163.474 292.28 164.126 291.888 165.236 291.497L167.391 290.778L168.142 292.802L165.922 293.586C164.877 293.945 164.029 294.075 163.31 294.173C163.996 294.761 164.486 295.251 165.073 296.132L166.379 298.091L164.616 299.298L163.31 297.438C162.625 296.491 162.298 295.74 162.005 295.055C161.776 295.903 161.352 296.687 160.797 297.438L159.426 299.298L157.663 298.091L158.969 296.132C159.622 295.218 160.144 294.728 160.797 294.173C159.883 294.043 159.165 293.945 158.185 293.586ZM171.893 293.586L169.706 292.802L170.457 290.811L172.579 291.497C173.688 291.888 174.309 292.247 174.994 292.704C174.798 291.921 174.7 291.138 174.7 290.028V287.71H176.822V290.028C176.822 291.138 176.724 291.954 176.561 292.704C177.181 292.28 177.834 291.888 178.944 291.497L181.098 290.778L181.849 292.802L179.63 293.586C178.585 293.945 177.736 294.075 177.018 294.173C177.704 294.761 178.193 295.251 178.781 296.132L180.087 298.091L178.324 299.298L177.018 297.438C176.333 296.491 176.006 295.74 175.712 295.055C175.484 295.903 175.059 296.687 174.504 297.438L173.133 299.298L171.371 298.091L172.676 296.132C173.329 295.218 173.852 294.728 174.504 294.173C173.59 294.043 172.872 293.945 171.893 293.586ZM185.601 293.586L183.414 292.802L184.164 290.811L186.286 291.497C187.396 291.888 188.016 292.247 188.702 292.704C188.506 291.921 188.408 291.138 188.408 290.028V287.71H190.53V290.028C190.53 291.138 190.432 291.954 190.269 292.704C190.889 292.28 191.542 291.888 192.652 291.497L194.806 290.778L195.557 292.802L193.337 293.586C192.293 293.945 191.444 294.075 190.726 294.173C191.411 294.761 191.901 295.251 192.488 296.132L193.794 298.091L192.031 299.298L190.726 297.438C190.04 296.491 189.714 295.74 189.42 295.055C189.191 295.903 188.767 296.687 188.212 297.438L186.841 299.298L185.078 298.091L186.384 296.132C187.037 295.218 187.559 294.728 188.212 294.173C187.298 294.043 186.58 293.945 185.601 293.586ZM199.308 293.586L197.121 292.802L197.872 290.811L199.994 291.497C201.104 291.888 201.724 292.247 202.409 292.704C202.214 291.921 202.116 291.138 202.116 290.028V287.71H204.238V290.028C204.238 291.138 204.14 291.954 203.976 292.704C204.597 292.28 205.249 291.888 206.359 291.497L208.514 290.778L209.265 292.802L207.045 293.586C206 293.945 205.152 294.075 204.433 294.173C205.119 294.761 205.609 295.251 206.196 296.132L207.502 298.091L205.739 299.298L204.433 297.438C203.748 296.491 203.421 295.74 203.128 295.055C202.899 295.903 202.475 296.687 201.92 297.438L200.549 299.298L198.786 298.091L200.092 296.132C200.745 295.218 201.267 294.728 201.92 294.173C201.006 294.043 200.288 293.945 199.308 293.586ZM213.016 293.586L210.829 292.802L211.58 290.811L213.702 291.497C214.811 291.888 215.432 292.247 216.117 292.704C215.921 291.921 215.823 291.138 215.823 290.028V287.71H217.945V290.028C217.945 291.138 217.847 291.954 217.684 292.704C218.304 292.28 218.957 291.888 220.067 291.497L222.221 290.778L222.972 292.802L220.753 293.586C219.708 293.945 218.859 294.075 218.141 294.173C218.827 294.761 219.316 295.251 219.904 296.132L221.21 298.091L219.447 299.298L218.141 297.438C217.456 296.491 217.129 295.74 216.835 295.055C216.607 295.903 216.182 296.687 215.628 297.438L214.256 299.298L212.494 298.091L213.799 296.132C214.452 295.218 214.975 294.728 215.628 294.173C214.713 294.043 213.995 293.945 213.016 293.586ZM226.724 293.586L224.537 292.802L225.287 290.811L227.409 291.497C228.519 291.888 229.139 292.247 229.825 292.704C229.629 291.921 229.531 291.138 229.531 290.028V287.71H231.653V290.028C231.653 291.138 231.555 291.954 231.392 292.704C232.012 292.28 232.665 291.888 233.775 291.497L235.929 290.778L236.68 292.802L234.46 293.586C233.416 293.945 232.567 294.075 231.849 294.173C232.534 294.761 233.024 295.251 233.611 296.132L234.917 298.091L233.154 299.298L231.849 297.438C231.163 296.491 230.837 295.74 230.543 295.055C230.314 295.903 229.89 296.687 229.335 297.438L227.964 299.298L226.201 298.091L227.507 296.132C228.16 295.218 228.682 294.728 229.335 294.173C228.421 294.043 227.703 293.945 226.724 293.586Z" fill="black"/>
<rect x="54.7252" y="242.905" width="660.549" height="80.6484" stroke="#EBEAF3" stroke-width="5.7606"/>
</svg>
