<svg width="770" height="392" viewBox="0 0 770 392" fill="none" xmlns="http://www.w3.org/2000/svg">
<rect width="770" height="391.721" fill="white"/>
<path d="M57.9818 53.8289V51.4094H72.3104V53.8289H66.4768V70.8457H63.8423V53.8289H57.9818ZM71.5421 64.2594C71.5421 60.2001 74.4454 57.3505 78.3972 57.3505C82.3221 57.3505 85.2254 60.2001 85.2254 64.2594C85.2254 68.3187 82.3221 71.1683 78.3972 71.1683C74.4454 71.1683 71.5421 68.3187 71.5421 64.2594ZM74.096 64.2594C74.096 67.0015 75.8433 68.9101 78.3972 68.9101C80.9242 68.9101 82.6985 67.0015 82.6985 64.2594C82.6985 61.5174 80.9242 59.6087 78.3972 59.6087C75.8433 59.6087 74.096 61.5174 74.096 64.2594ZM87.1625 64.2594C87.1625 60.2001 90.0658 57.3505 94.0176 57.3505C97.9425 57.3505 100.846 60.2001 100.846 64.2594C100.846 68.3187 97.9425 71.1683 94.0176 71.1683C90.0658 71.1683 87.1625 68.3187 87.1625 64.2594ZM89.7163 64.2594C89.7163 67.0015 91.4637 68.9101 94.0176 68.9101C96.5446 68.9101 98.3188 67.0015 98.3188 64.2594C98.3188 61.5174 96.5446 59.6087 94.0176 59.6087C91.4637 59.6087 89.7163 61.5174 89.7163 64.2594ZM106.224 70.8457H103.697V51.06H106.224V70.8457ZM120.359 51.4094V68.3994H128.908V70.8457H117.725V51.4094H120.359ZM132.576 54.5816C131.662 54.5816 130.91 53.8289 130.91 52.9149C130.91 51.974 131.662 51.2481 132.576 51.2481C133.49 51.2481 134.243 51.974 134.243 52.9149C134.243 53.8289 133.49 54.5816 132.576 54.5816ZM131.34 70.8457V57.7H133.867V70.8457H131.34ZM136.46 67.0283H138.88C138.88 68.3725 139.901 69.179 141.568 69.179C143.342 69.179 144.364 68.4531 144.364 67.2434C144.364 66.3563 143.933 65.8186 142.562 65.4691L140.251 64.9315C137.912 64.3669 136.81 63.211 136.81 61.2754C136.81 58.856 138.853 57.3237 141.756 57.3237C144.632 57.3237 146.514 58.9366 146.568 61.4367H144.149C144.095 60.1195 143.208 59.2861 141.675 59.2861C140.089 59.2861 139.202 59.9851 139.202 61.1948C139.202 62.0819 139.847 62.6733 141.138 62.9959L143.45 63.5605C145.681 64.0981 146.783 65.1197 146.783 67.0821C146.783 69.5822 144.632 71.1683 141.514 71.1683C138.422 71.1683 136.46 69.5284 136.46 67.0283ZM153.295 70.8457H150.768V59.8238H148.187V57.7H150.768V53.5869H153.295V57.7H155.876V59.8238H153.295V70.8457Z" fill="black"/>
<rect x="57.6055" y="99.7598" width="312.34" height="234.643" fill="#F5F4FC"/>
<rect x="57.6055" y="99.7598" width="312.34" height="17.7639" fill="#94B1F3"/>
<g clip-path="url(#clip0_53_1091)">
<path d="M104.007 141.818H82.3574C80.9777 141.818 79.8594 142.937 79.8594 144.316V165.966C79.8594 167.346 80.9777 168.464 82.3574 168.464H104.007C105.386 168.464 106.504 167.346 106.504 165.966V144.316C106.504 142.937 105.386 141.818 104.007 141.818ZM104.839 165.966C104.839 166.426 104.466 166.799 104.007 166.799H82.3574C81.8975 166.799 81.5247 166.426 81.5247 165.966V144.316C81.5247 143.857 81.8975 143.484 82.3574 143.484H104.007C104.466 143.484 104.839 143.857 104.839 144.316V165.966Z" fill="black"/>
<path d="M97.9528 156.214C97.628 155.891 97.1036 155.891 96.7788 156.214L94.8637 158.129L91.2916 154.557C90.9668 154.234 90.4423 154.234 90.1175 154.557L84.2889 160.385C83.967 160.714 83.9721 161.241 84.3005 161.563C84.4532 161.713 84.6578 161.798 84.8717 161.801H101.525C101.985 161.804 102.36 161.433 102.362 160.973C102.364 160.749 102.275 160.535 102.116 160.377L97.9528 156.214Z" fill="black"/>
<path d="M95.662 153.467C97.0416 153.467 98.16 152.348 98.16 150.969C98.16 149.589 97.0416 148.471 95.662 148.471C94.2824 148.471 93.1641 149.589 93.1641 150.969C93.1641 152.348 94.2824 153.467 95.662 153.467Z" fill="black"/>
</g>
<path d="M123.019 164.148V147.083H133.718V149.3H125.594V154.499H133.16V156.707H125.594V161.932H133.818V164.148H123.019ZM141.749 164.398C140.716 164.398 139.793 164.135 138.982 163.607C138.177 163.074 137.544 162.315 137.083 161.332C136.627 160.343 136.399 159.157 136.399 157.774C136.399 156.391 136.63 155.208 137.091 154.224C137.558 153.241 138.196 152.488 139.007 151.966C139.818 151.444 140.738 151.183 141.765 151.183C142.56 151.183 143.199 151.316 143.682 151.583C144.171 151.844 144.548 152.15 144.815 152.5C145.087 152.85 145.298 153.158 145.448 153.424H145.598V147.083H148.09V164.148H145.657V162.157H145.448C145.298 162.429 145.082 162.74 144.798 163.09C144.521 163.44 144.137 163.746 143.649 164.007C143.16 164.268 142.526 164.398 141.749 164.398ZM142.299 162.274C143.015 162.274 143.621 162.085 144.115 161.707C144.615 161.324 144.993 160.793 145.248 160.115C145.51 159.438 145.64 158.649 145.64 157.749C145.64 156.86 145.512 156.083 145.257 155.416C145.001 154.749 144.626 154.23 144.132 153.858C143.637 153.486 143.026 153.299 142.299 153.299C141.549 153.299 140.924 153.494 140.424 153.883C139.924 154.272 139.546 154.802 139.291 155.474C139.041 156.146 138.916 156.905 138.916 157.749C138.916 158.605 139.043 159.374 139.299 160.057C139.555 160.74 139.932 161.282 140.432 161.682C140.938 162.076 141.56 162.274 142.299 162.274ZM151.646 164.148V151.35H154.137V164.148H151.646ZM152.904 149.375C152.471 149.375 152.098 149.23 151.787 148.942C151.482 148.647 151.329 148.297 151.329 147.892C151.329 147.481 151.482 147.131 151.787 146.842C152.098 146.547 152.471 146.4 152.904 146.4C153.337 146.4 153.707 146.547 154.012 146.842C154.323 147.131 154.479 147.481 154.479 147.892C154.479 148.297 154.323 148.647 154.012 148.942C153.707 149.23 153.337 149.375 152.904 149.375ZM163.463 151.35V153.349H156.472V151.35H163.463ZM158.347 148.283H160.839V160.39C160.839 160.874 160.911 161.238 161.055 161.482C161.2 161.721 161.386 161.885 161.613 161.974C161.847 162.057 162.1 162.099 162.372 162.099C162.572 162.099 162.747 162.085 162.897 162.057C163.047 162.029 163.163 162.007 163.247 161.99L163.697 164.048C163.552 164.104 163.347 164.16 163.08 164.215C162.813 164.276 162.48 164.31 162.08 164.315C161.425 164.326 160.814 164.21 160.247 163.965C159.68 163.721 159.222 163.343 158.872 162.832C158.522 162.321 158.347 161.679 158.347 160.907V148.283ZM175.204 147.083V164.148H172.629V147.083H175.204ZM178.753 164.148V151.35H181.145V153.433H181.303C181.57 152.727 182.006 152.177 182.611 151.783C183.217 151.383 183.942 151.183 184.786 151.183C185.642 151.183 186.358 151.383 186.936 151.783C187.519 152.183 187.95 152.733 188.228 153.433H188.361C188.666 152.75 189.152 152.205 189.819 151.8C190.486 151.389 191.28 151.183 192.202 151.183C193.363 151.183 194.31 151.547 195.044 152.275C195.782 153.002 196.152 154.099 196.152 155.566V164.148H193.66V155.799C193.66 154.933 193.424 154.305 192.952 153.916C192.48 153.527 191.916 153.333 191.261 153.333C190.45 153.333 189.819 153.583 189.369 154.083C188.919 154.577 188.694 155.213 188.694 155.991V164.148H186.211V155.641C186.211 154.947 185.994 154.388 185.561 153.966C185.128 153.544 184.564 153.333 183.87 153.333C183.397 153.333 182.961 153.458 182.561 153.708C182.167 153.952 181.848 154.294 181.603 154.733C181.364 155.172 181.245 155.68 181.245 156.258V164.148H178.753ZM203.216 164.432C202.405 164.432 201.671 164.282 201.016 163.982C200.36 163.676 199.841 163.235 199.458 162.657C199.08 162.079 198.891 161.371 198.891 160.532C198.891 159.81 199.03 159.216 199.308 158.749C199.585 158.282 199.96 157.913 200.433 157.641C200.905 157.369 201.433 157.163 202.016 157.024C202.599 156.885 203.193 156.78 203.799 156.707C204.566 156.619 205.188 156.546 205.665 156.491C206.143 156.43 206.49 156.333 206.707 156.199C206.924 156.066 207.032 155.849 207.032 155.549V155.491C207.032 154.763 206.826 154.199 206.415 153.799C206.01 153.399 205.404 153.2 204.599 153.2C203.76 153.2 203.099 153.386 202.616 153.758C202.138 154.124 201.807 154.533 201.624 154.983L199.283 154.449C199.56 153.672 199.966 153.044 200.499 152.566C201.038 152.083 201.657 151.733 202.357 151.516C203.057 151.294 203.793 151.183 204.566 151.183C205.077 151.183 205.618 151.244 206.19 151.366C206.768 151.483 207.307 151.7 207.807 152.016C208.312 152.333 208.726 152.786 209.048 153.374C209.371 153.958 209.532 154.716 209.532 155.649V164.148H207.099V162.399H206.999C206.838 162.721 206.596 163.037 206.274 163.349C205.952 163.66 205.538 163.918 205.032 164.123C204.527 164.329 203.921 164.432 203.216 164.432ZM203.757 162.432C204.446 162.432 205.035 162.296 205.524 162.024C206.018 161.751 206.393 161.396 206.649 160.957C206.91 160.513 207.04 160.038 207.04 159.532V157.882C206.951 157.971 206.779 158.055 206.524 158.132C206.274 158.205 205.988 158.268 205.665 158.324C205.343 158.374 205.029 158.421 204.724 158.466C204.418 158.505 204.163 158.538 203.957 158.566C203.474 158.627 203.032 158.73 202.632 158.874C202.238 159.018 201.921 159.227 201.682 159.499C201.449 159.766 201.333 160.121 201.333 160.565C201.333 161.182 201.56 161.649 202.016 161.965C202.471 162.276 203.052 162.432 203.757 162.432ZM218.216 169.215C217.2 169.215 216.325 169.081 215.592 168.815C214.864 168.548 214.269 168.195 213.808 167.756C213.347 167.318 213.003 166.837 212.775 166.315L214.917 165.432C215.067 165.676 215.267 165.934 215.517 166.207C215.772 166.484 216.116 166.72 216.55 166.915C216.989 167.109 217.552 167.206 218.241 167.206C219.186 167.206 219.966 166.976 220.583 166.515C221.199 166.059 221.508 165.332 221.508 164.332V161.815H221.349C221.199 162.088 220.983 162.39 220.699 162.724C220.422 163.057 220.038 163.346 219.549 163.59C219.061 163.835 218.425 163.957 217.641 163.957C216.63 163.957 215.719 163.721 214.908 163.249C214.103 162.771 213.464 162.068 212.992 161.14C212.525 160.207 212.292 159.06 212.292 157.699C212.292 156.338 212.522 155.172 212.983 154.199C213.45 153.227 214.089 152.483 214.9 151.966C215.711 151.444 216.63 151.183 217.658 151.183C218.452 151.183 219.094 151.316 219.583 151.583C220.072 151.844 220.452 152.15 220.724 152.5C221.002 152.85 221.216 153.158 221.366 153.424H221.549V151.35H223.991V164.432C223.991 165.532 223.735 166.434 223.224 167.14C222.713 167.845 222.021 168.367 221.149 168.706C220.283 169.045 219.305 169.215 218.216 169.215ZM218.191 161.89C218.908 161.89 219.513 161.724 220.008 161.39C220.508 161.052 220.885 160.568 221.141 159.941C221.402 159.307 221.533 158.549 221.533 157.666C221.533 156.805 221.405 156.046 221.149 155.391C220.894 154.735 220.519 154.224 220.024 153.858C219.53 153.486 218.919 153.299 218.191 153.299C217.441 153.299 216.816 153.494 216.316 153.883C215.817 154.266 215.439 154.788 215.183 155.449C214.933 156.11 214.808 156.849 214.808 157.666C214.808 158.505 214.936 159.241 215.192 159.874C215.447 160.507 215.825 161.002 216.325 161.357C216.83 161.713 217.452 161.89 218.191 161.89ZM232.848 164.407C231.587 164.407 230.501 164.137 229.59 163.598C228.685 163.054 227.985 162.29 227.49 161.307C227.002 160.318 226.757 159.16 226.757 157.832C226.757 156.521 227.002 155.366 227.49 154.366C227.985 153.366 228.674 152.586 229.557 152.025C230.446 151.464 231.484 151.183 232.673 151.183C233.395 151.183 234.095 151.302 234.773 151.541C235.451 151.78 236.059 152.155 236.598 152.666C237.137 153.177 237.562 153.841 237.873 154.658C238.184 155.469 238.339 156.455 238.339 157.616V158.499H228.165V156.633H235.898C235.898 155.977 235.765 155.397 235.498 154.891C235.231 154.38 234.856 153.977 234.373 153.683C233.895 153.388 233.334 153.241 232.69 153.241C231.99 153.241 231.379 153.413 230.857 153.758C230.34 154.097 229.94 154.541 229.657 155.091C229.379 155.635 229.24 156.227 229.24 156.866V158.324C229.24 159.179 229.39 159.907 229.69 160.507C229.996 161.107 230.421 161.565 230.965 161.882C231.509 162.193 232.145 162.349 232.873 162.349C233.345 162.349 233.776 162.282 234.165 162.149C234.554 162.01 234.89 161.804 235.173 161.532C235.456 161.26 235.673 160.924 235.823 160.524L238.181 160.949C237.992 161.643 237.653 162.251 237.164 162.774C236.681 163.29 236.073 163.693 235.34 163.982C234.612 164.265 233.781 164.407 232.848 164.407ZM256.821 151.566C256.732 150.778 256.365 150.166 255.721 149.733C255.077 149.294 254.266 149.075 253.288 149.075C252.588 149.075 251.982 149.186 251.471 149.408C250.96 149.625 250.563 149.925 250.28 150.308C250.002 150.686 249.863 151.116 249.863 151.6C249.863 152.005 249.958 152.355 250.146 152.65C250.341 152.944 250.594 153.191 250.905 153.391C251.221 153.586 251.56 153.749 251.921 153.883C252.282 154.011 252.63 154.116 252.963 154.199L254.629 154.633C255.174 154.766 255.732 154.947 256.304 155.174C256.876 155.402 257.407 155.702 257.896 156.074C258.385 156.446 258.779 156.907 259.079 157.457C259.384 158.007 259.537 158.666 259.537 159.432C259.537 160.399 259.287 161.257 258.787 162.007C258.293 162.757 257.574 163.349 256.629 163.782C255.69 164.215 254.554 164.432 253.221 164.432C251.944 164.432 250.838 164.229 249.905 163.823C248.972 163.418 248.241 162.843 247.713 162.099C247.186 161.349 246.894 160.46 246.838 159.432H249.422C249.472 160.049 249.672 160.563 250.021 160.974C250.377 161.379 250.83 161.682 251.38 161.882C251.935 162.076 252.543 162.174 253.205 162.174C253.932 162.174 254.579 162.06 255.146 161.832C255.718 161.599 256.168 161.276 256.496 160.865C256.824 160.449 256.987 159.963 256.987 159.407C256.987 158.902 256.843 158.488 256.554 158.166C256.271 157.843 255.885 157.577 255.396 157.366C254.913 157.155 254.366 156.969 253.754 156.807L251.738 156.258C250.371 155.885 249.288 155.338 248.488 154.616C247.694 153.894 247.297 152.938 247.297 151.75C247.297 150.766 247.563 149.908 248.097 149.175C248.63 148.442 249.352 147.872 250.263 147.467C251.174 147.056 252.202 146.85 253.346 146.85C254.502 146.85 255.521 147.053 256.404 147.458C257.293 147.864 257.993 148.422 258.504 149.133C259.015 149.839 259.282 150.65 259.304 151.566H256.821ZM268.388 151.35V153.349H261.397V151.35H268.388ZM263.272 148.283H265.764V160.39C265.764 160.874 265.836 161.238 265.98 161.482C266.125 161.721 266.311 161.885 266.539 161.974C266.772 162.057 267.025 162.099 267.297 162.099C267.497 162.099 267.672 162.085 267.822 162.057C267.972 162.029 268.088 162.007 268.172 161.99L268.622 164.048C268.477 164.104 268.272 164.16 268.005 164.215C267.739 164.276 267.405 164.31 267.005 164.315C266.35 164.326 265.739 164.21 265.172 163.965C264.605 163.721 264.147 163.343 263.797 162.832C263.447 162.321 263.272 161.679 263.272 160.907V148.283ZM272.719 168.948C272.347 168.948 272.008 168.917 271.703 168.856C271.397 168.801 271.169 168.74 271.019 168.673L271.619 166.632C272.075 166.754 272.48 166.807 272.836 166.79C273.191 166.773 273.505 166.64 273.778 166.39C274.055 166.14 274.3 165.732 274.511 165.165L274.819 164.315L270.136 151.35H272.803L276.044 161.282H276.177L279.419 151.35H282.093L276.819 165.857C276.574 166.523 276.263 167.087 275.886 167.548C275.508 168.015 275.058 168.365 274.536 168.598C274.014 168.831 273.408 168.948 272.719 168.948ZM286.926 147.083V164.148H284.435V147.083H286.926ZM295.794 164.407C294.533 164.407 293.447 164.137 292.536 163.598C291.631 163.054 290.931 162.29 290.436 161.307C289.947 160.318 289.703 159.16 289.703 157.832C289.703 156.521 289.947 155.366 290.436 154.366C290.931 153.366 291.62 152.586 292.503 152.025C293.392 151.464 294.43 151.183 295.619 151.183C296.341 151.183 297.041 151.302 297.719 151.541C298.397 151.78 299.005 152.155 299.544 152.666C300.083 153.177 300.508 153.841 300.819 154.658C301.13 155.469 301.285 156.455 301.285 157.616V158.499H291.111V156.633H298.844C298.844 155.977 298.71 155.397 298.444 154.891C298.177 154.38 297.802 153.977 297.319 153.683C296.841 153.388 296.28 153.241 295.636 153.241C294.936 153.241 294.325 153.413 293.803 153.758C293.286 154.097 292.886 154.541 292.603 155.091C292.325 155.635 292.186 156.227 292.186 156.866V158.324C292.186 159.179 292.336 159.907 292.636 160.507C292.942 161.107 293.367 161.565 293.911 161.882C294.455 162.193 295.091 162.349 295.819 162.349C296.291 162.349 296.722 162.282 297.111 162.149C297.499 162.01 297.836 161.804 298.119 161.532C298.402 161.26 298.619 160.924 298.769 160.524L301.127 160.949C300.938 161.643 300.599 162.251 300.11 162.774C299.627 163.29 299.019 163.693 298.286 163.982C297.558 164.265 296.727 164.407 295.794 164.407Z" fill="black"/>
<path opacity="0.5" d="M81.1275 200.746V190.08H82.419V199.6H87.3769V200.746H81.1275ZM91.564 200.934C91.0571 200.934 90.597 200.838 90.1839 200.647C89.7707 200.453 89.4426 200.173 89.1996 199.809C88.9566 199.441 88.8351 198.996 88.8351 198.475C88.8351 198.017 88.9253 197.646 89.1059 197.361C89.2864 197.073 89.5277 196.847 89.8298 196.684C90.1318 196.521 90.4651 196.399 90.8297 196.319C91.1977 196.236 91.5674 196.17 91.9389 196.122C92.425 196.059 92.819 196.012 93.1211 195.981C93.4266 195.946 93.6488 195.889 93.7877 195.809C93.93 195.729 94.0012 195.59 94.0012 195.392V195.351C94.0012 194.837 93.8606 194.438 93.5794 194.153C93.3016 193.868 92.8798 193.726 92.3139 193.726C91.7271 193.726 91.2671 193.854 90.9338 194.111C90.6005 194.368 90.3662 194.643 90.2308 194.934L89.0642 194.518C89.2725 194.031 89.5503 193.653 89.8975 193.382C90.2481 193.108 90.63 192.917 91.0432 192.809C91.4598 192.698 91.8695 192.643 92.2722 192.643C92.5291 192.643 92.8242 192.674 93.1575 192.736C93.4943 192.795 93.8189 192.919 94.1314 193.106C94.4474 193.294 94.7095 193.577 94.9178 193.955C95.1261 194.334 95.2303 194.84 95.2303 195.476V200.746H94.0012V199.663H93.9387C93.8554 199.836 93.7165 200.022 93.5221 200.22C93.3277 200.418 93.069 200.586 92.7461 200.725C92.4232 200.864 92.0292 200.934 91.564 200.934ZM91.7514 199.83C92.2375 199.83 92.6472 199.734 92.9805 199.543C93.3173 199.352 93.5707 199.106 93.7408 198.804C93.9144 198.502 94.0012 198.184 94.0012 197.851V196.726C93.9491 196.788 93.8346 196.845 93.6575 196.898C93.4839 196.946 93.2825 196.99 93.0534 197.028C92.8277 197.062 92.6073 197.094 92.392 197.121C92.1802 197.146 92.0084 197.167 91.8764 197.184C91.557 197.226 91.2584 197.293 90.9807 197.387C90.7064 197.477 90.4842 197.614 90.3141 197.798C90.1474 197.979 90.0641 198.226 90.0641 198.538C90.0641 198.965 90.2221 199.288 90.538 199.507C90.8574 199.722 91.2619 199.83 91.7514 199.83ZM103.14 194.538L102.036 194.851C101.966 194.667 101.864 194.488 101.728 194.314C101.596 194.137 101.416 193.992 101.187 193.877C100.958 193.762 100.664 193.705 100.307 193.705C99.8171 193.705 99.4091 193.818 99.0828 194.044C98.7599 194.266 98.5984 194.549 98.5984 194.892C98.5984 195.198 98.7095 195.439 98.9317 195.616C99.1539 195.793 99.5011 195.941 99.9733 196.059L101.161 196.351C101.876 196.524 102.409 196.79 102.759 197.147C103.11 197.502 103.285 197.958 103.285 198.517C103.285 198.975 103.154 199.385 102.89 199.746C102.629 200.107 102.265 200.392 101.796 200.6C101.327 200.809 100.782 200.913 100.161 200.913C99.3449 200.913 98.6696 200.736 98.1349 200.382C97.6003 200.027 97.2617 199.51 97.1194 198.83L98.286 198.538C98.3971 198.968 98.6071 199.291 98.9161 199.507C99.2286 199.722 99.6365 199.83 100.14 199.83C100.713 199.83 101.168 199.708 101.504 199.465C101.845 199.218 102.015 198.923 102.015 198.58C102.015 198.302 101.918 198.069 101.723 197.882C101.529 197.691 101.23 197.548 100.827 197.455L99.4942 197.142C98.7616 196.969 98.2235 196.7 97.8797 196.335C97.5395 195.967 97.3694 195.507 97.3694 194.955C97.3694 194.504 97.4961 194.104 97.7495 193.757C98.0065 193.41 98.3554 193.137 98.7963 192.94C99.2407 192.742 99.7441 192.643 100.307 192.643C101.098 192.643 101.72 192.816 102.171 193.164C102.626 193.511 102.949 193.969 103.14 194.538ZM108.614 192.747V193.788H104.469V192.747H108.614ZM105.677 190.83H106.906V198.455C106.906 198.802 106.957 199.062 107.057 199.236C107.161 199.406 107.293 199.521 107.453 199.58C107.616 199.635 107.788 199.663 107.969 199.663C108.104 199.663 108.215 199.656 108.302 199.642C108.389 199.625 108.458 199.611 108.51 199.6L108.76 200.704C108.677 200.736 108.561 200.767 108.411 200.798C108.262 200.833 108.073 200.85 107.844 200.85C107.496 200.85 107.156 200.776 106.823 200.626C106.493 200.477 106.219 200.25 106 199.944C105.785 199.639 105.677 199.253 105.677 198.788V190.83ZM121.754 190.08H123.045V197.142C123.045 197.871 122.873 198.522 122.53 199.095C122.189 199.665 121.709 200.114 121.087 200.444C120.466 200.77 119.737 200.934 118.9 200.934C118.063 200.934 117.334 200.77 116.713 200.444C116.091 200.114 115.608 199.665 115.265 199.095C114.925 198.522 114.754 197.871 114.754 197.142V190.08H116.046V197.038C116.046 197.559 116.161 198.022 116.39 198.429C116.619 198.831 116.945 199.149 117.369 199.382C117.796 199.611 118.306 199.725 118.9 199.725C119.494 199.725 120.004 199.611 120.431 199.382C120.858 199.149 121.184 198.831 121.41 198.429C121.639 198.022 121.754 197.559 121.754 197.038V190.08ZM125.458 203.746V192.747H126.645V194.018H126.791C126.881 193.879 127.006 193.702 127.166 193.486C127.329 193.268 127.562 193.073 127.864 192.903C128.169 192.73 128.582 192.643 129.103 192.643C129.777 192.643 130.37 192.811 130.884 193.148C131.398 193.485 131.799 193.962 132.087 194.58C132.375 195.198 132.52 195.927 132.52 196.767C132.52 197.614 132.375 198.349 132.087 198.97C131.799 199.588 131.4 200.067 130.89 200.408C130.379 200.744 129.791 200.913 129.124 200.913C128.61 200.913 128.199 200.828 127.89 200.658C127.581 200.484 127.343 200.288 127.176 200.069C127.01 199.847 126.881 199.663 126.791 199.517H126.687V203.746H125.458ZM126.666 196.746C126.666 197.351 126.755 197.884 126.932 198.345C127.109 198.804 127.367 199.163 127.708 199.423C128.048 199.68 128.464 199.809 128.957 199.809C129.471 199.809 129.9 199.673 130.244 199.402C130.591 199.128 130.851 198.76 131.025 198.298C131.202 197.833 131.291 197.316 131.291 196.746C131.291 196.184 131.204 195.677 131.03 195.226C130.86 194.771 130.601 194.412 130.254 194.148C129.91 193.88 129.478 193.747 128.957 193.747C128.457 193.747 128.037 193.874 127.697 194.127C127.357 194.377 127.1 194.728 126.926 195.179C126.753 195.627 126.666 196.149 126.666 196.746ZM137.415 200.913C136.748 200.913 136.16 200.744 135.649 200.408C135.139 200.067 134.74 199.588 134.452 198.97C134.164 198.349 134.019 197.614 134.019 196.767C134.019 195.927 134.164 195.198 134.452 194.58C134.74 193.962 135.141 193.485 135.655 193.148C136.169 192.811 136.762 192.643 137.436 192.643C137.957 192.643 138.368 192.73 138.67 192.903C138.976 193.073 139.208 193.268 139.368 193.486C139.531 193.702 139.658 193.879 139.748 194.018H139.852V190.08H141.081V200.746H139.894V199.517H139.748C139.658 199.663 139.529 199.847 139.363 200.069C139.196 200.288 138.958 200.484 138.649 200.658C138.34 200.828 137.929 200.913 137.415 200.913ZM137.582 199.809C138.075 199.809 138.491 199.68 138.831 199.423C139.172 199.163 139.43 198.804 139.607 198.345C139.784 197.884 139.873 197.351 139.873 196.746C139.873 196.149 139.786 195.627 139.613 195.179C139.439 194.728 139.182 194.377 138.842 194.127C138.502 193.874 138.082 193.747 137.582 193.747C137.061 193.747 136.627 193.88 136.28 194.148C135.936 194.412 135.677 194.771 135.504 195.226C135.334 195.677 135.248 196.184 135.248 196.746C135.248 197.316 135.335 197.833 135.509 198.298C135.686 198.76 135.946 199.128 136.29 199.402C136.637 199.673 137.068 199.809 137.582 199.809ZM145.857 200.934C145.35 200.934 144.89 200.838 144.477 200.647C144.064 200.453 143.735 200.173 143.492 199.809C143.249 199.441 143.128 198.996 143.128 198.475C143.128 198.017 143.218 197.646 143.399 197.361C143.579 197.073 143.821 196.847 144.123 196.684C144.425 196.521 144.758 196.399 145.123 196.319C145.491 196.236 145.86 196.17 146.232 196.122C146.718 196.059 147.112 196.012 147.414 195.981C147.719 195.946 147.942 195.889 148.081 195.809C148.223 195.729 148.294 195.59 148.294 195.392V195.351C148.294 194.837 148.153 194.438 147.872 194.153C147.594 193.868 147.173 193.726 146.607 193.726C146.02 193.726 145.56 193.854 145.227 194.111C144.893 194.368 144.659 194.643 144.524 194.934L143.357 194.518C143.565 194.031 143.843 193.653 144.19 193.382C144.541 193.108 144.923 192.917 145.336 192.809C145.753 192.698 146.162 192.643 146.565 192.643C146.822 192.643 147.117 192.674 147.45 192.736C147.787 192.795 148.112 192.919 148.424 193.106C148.74 193.294 149.002 193.577 149.211 193.955C149.419 194.334 149.523 194.84 149.523 195.476V200.746H148.294V199.663H148.232C148.148 199.836 148.009 200.022 147.815 200.22C147.621 200.418 147.362 200.586 147.039 200.725C146.716 200.864 146.322 200.934 145.857 200.934ZM146.044 199.83C146.53 199.83 146.94 199.734 147.273 199.543C147.61 199.352 147.864 199.106 148.034 198.804C148.207 198.502 148.294 198.184 148.294 197.851V196.726C148.242 196.788 148.127 196.845 147.95 196.898C147.777 196.946 147.575 196.99 147.346 197.028C147.121 197.062 146.9 197.094 146.685 197.121C146.473 197.146 146.301 197.167 146.169 197.184C145.85 197.226 145.551 197.293 145.274 197.387C144.999 197.477 144.777 197.614 144.607 197.798C144.44 197.979 144.357 198.226 144.357 198.538C144.357 198.965 144.515 199.288 144.831 199.507C145.15 199.722 145.555 199.83 146.044 199.83ZM155.245 192.747V193.788H151.1V192.747H155.245ZM152.308 190.83H153.537V198.455C153.537 198.802 153.587 199.062 153.688 199.236C153.792 199.406 153.924 199.521 154.084 199.58C154.247 199.635 154.419 199.663 154.599 199.663C154.735 199.663 154.846 199.656 154.933 199.642C155.02 199.625 155.089 199.611 155.141 199.6L155.391 200.704C155.308 200.736 155.191 200.767 155.042 200.798C154.893 200.833 154.704 200.85 154.474 200.85C154.127 200.85 153.787 200.776 153.454 200.626C153.124 200.477 152.85 200.25 152.631 199.944C152.416 199.639 152.308 199.253 152.308 198.788V190.83ZM160.362 200.913C159.591 200.913 158.926 200.743 158.367 200.402C157.812 200.059 157.383 199.58 157.081 198.965C156.782 198.347 156.633 197.628 156.633 196.809C156.633 195.99 156.782 195.267 157.081 194.643C157.383 194.014 157.803 193.525 158.341 193.174C158.883 192.82 159.515 192.643 160.237 192.643C160.654 192.643 161.065 192.712 161.471 192.851C161.877 192.99 162.247 193.216 162.58 193.528C162.914 193.837 163.179 194.247 163.377 194.757C163.575 195.267 163.674 195.896 163.674 196.642V197.163H157.508V196.101H162.424C162.424 195.649 162.334 195.247 162.153 194.892C161.976 194.538 161.723 194.259 161.393 194.054C161.067 193.849 160.681 193.747 160.237 193.747C159.747 193.747 159.324 193.868 158.966 194.111C158.612 194.351 158.34 194.663 158.149 195.049C157.958 195.434 157.862 195.847 157.862 196.288V196.996C157.862 197.601 157.966 198.113 158.175 198.533C158.386 198.949 158.68 199.267 159.055 199.486C159.43 199.701 159.865 199.809 160.362 199.809C160.685 199.809 160.976 199.764 161.237 199.673C161.501 199.58 161.728 199.441 161.919 199.257C162.11 199.069 162.258 198.837 162.362 198.559L163.549 198.892C163.424 199.295 163.214 199.649 162.919 199.955C162.624 200.257 162.259 200.493 161.825 200.663C161.391 200.829 160.904 200.913 160.362 200.913ZM168.564 200.913C167.898 200.913 167.309 200.744 166.799 200.408C166.288 200.067 165.889 199.588 165.601 198.97C165.313 198.349 165.169 197.614 165.169 196.767C165.169 195.927 165.313 195.198 165.601 194.58C165.889 193.962 166.29 193.485 166.804 193.148C167.318 192.811 167.912 192.643 168.585 192.643C169.106 192.643 169.517 192.73 169.819 192.903C170.125 193.073 170.357 193.268 170.517 193.486C170.68 193.702 170.807 193.879 170.897 194.018H171.001V190.08H172.231V200.746H171.043V199.517H170.897C170.807 199.663 170.679 199.847 170.512 200.069C170.345 200.288 170.107 200.484 169.798 200.658C169.489 200.828 169.078 200.913 168.564 200.913ZM168.731 199.809C169.224 199.809 169.641 199.68 169.981 199.423C170.321 199.163 170.58 198.804 170.757 198.345C170.934 197.884 171.022 197.351 171.022 196.746C171.022 196.149 170.936 195.627 170.762 195.179C170.588 194.728 170.331 194.377 169.991 194.127C169.651 193.874 169.231 193.747 168.731 193.747C168.21 193.747 167.776 193.88 167.429 194.148C167.085 194.412 166.827 194.771 166.653 195.226C166.483 195.677 166.398 196.184 166.398 196.746C166.398 197.316 166.485 197.833 166.658 198.298C166.835 198.76 167.096 199.128 167.439 199.402C167.787 199.673 168.217 199.809 168.731 199.809Z" fill="black"/>
<path opacity="0.5" d="M263.499 200.746V190.08H269.894V191.226H264.79V194.83H269.415V195.976H264.79V200.746H263.499ZM274.706 200.913C273.935 200.913 273.27 200.743 272.711 200.402C272.156 200.059 271.727 199.58 271.425 198.965C271.126 198.347 270.977 197.628 270.977 196.809C270.977 195.99 271.126 195.267 271.425 194.643C271.727 194.014 272.147 193.525 272.685 193.174C273.227 192.82 273.859 192.643 274.581 192.643C274.997 192.643 275.409 192.712 275.815 192.851C276.221 192.99 276.591 193.216 276.924 193.528C277.258 193.837 277.523 194.247 277.721 194.757C277.919 195.267 278.018 195.896 278.018 196.642V197.163H271.852V196.101H276.768C276.768 195.649 276.678 195.247 276.497 194.892C276.32 194.538 276.067 194.259 275.737 194.054C275.411 193.849 275.025 193.747 274.581 193.747C274.091 193.747 273.668 193.868 273.31 194.111C272.956 194.351 272.683 194.663 272.492 195.049C272.302 195.434 272.206 195.847 272.206 196.288V196.996C272.206 197.601 272.31 198.113 272.519 198.533C272.73 198.949 273.024 199.267 273.399 199.486C273.774 199.701 274.209 199.809 274.706 199.809C275.029 199.809 275.32 199.764 275.581 199.673C275.845 199.58 276.072 199.441 276.263 199.257C276.454 199.069 276.601 198.837 276.706 198.559L277.893 198.892C277.768 199.295 277.558 199.649 277.263 199.955C276.968 200.257 276.603 200.493 276.169 200.663C275.735 200.829 275.247 200.913 274.706 200.913ZM280.054 200.746V190.08H281.283V194.018H281.387C281.478 193.879 281.603 193.702 281.762 193.486C281.926 193.268 282.158 193.073 282.46 192.903C282.766 192.73 283.179 192.643 283.7 192.643C284.373 192.643 284.967 192.811 285.481 193.148C285.995 193.485 286.396 193.962 286.684 194.58C286.972 195.198 287.116 195.927 287.116 196.767C287.116 197.614 286.972 198.349 286.684 198.97C286.396 199.588 285.996 200.067 285.486 200.408C284.976 200.744 284.387 200.913 283.721 200.913C283.207 200.913 282.795 200.828 282.486 200.658C282.177 200.484 281.939 200.288 281.773 200.069C281.606 199.847 281.478 199.663 281.387 199.517H281.242V200.746H280.054ZM281.262 196.746C281.262 197.351 281.351 197.884 281.528 198.345C281.705 198.804 281.964 199.163 282.304 199.423C282.644 199.68 283.061 199.809 283.554 199.809C284.068 199.809 284.497 199.673 284.84 199.402C285.187 199.128 285.448 198.76 285.621 198.298C285.798 197.833 285.887 197.316 285.887 196.746C285.887 196.184 285.8 195.677 285.627 195.226C285.456 194.771 285.198 194.412 284.851 194.148C284.507 193.88 284.075 193.747 283.554 193.747C283.054 193.747 282.634 193.874 282.294 194.127C281.953 194.377 281.696 194.728 281.523 195.179C281.349 195.627 281.262 196.149 281.262 196.746ZM296.849 190.08V200.746H295.558V191.435H295.495L292.892 193.164V191.851L295.558 190.08H296.849ZM303.333 200.892C302.618 200.892 301.986 200.765 301.438 200.512C300.892 200.255 300.467 199.902 300.162 199.455C299.856 199.003 299.705 198.489 299.709 197.913C299.705 197.462 299.794 197.045 299.974 196.663C300.155 196.278 300.401 195.957 300.714 195.7C301.03 195.439 301.382 195.274 301.771 195.205V195.142C301.26 195.011 300.854 194.724 300.552 194.283C300.25 193.839 300.101 193.334 300.104 192.768C300.101 192.226 300.238 191.742 300.516 191.315C300.794 190.888 301.175 190.551 301.662 190.304C302.151 190.058 302.708 189.935 303.333 189.935C303.951 189.935 304.503 190.058 304.989 190.304C305.475 190.551 305.857 190.888 306.135 191.315C306.416 191.742 306.559 192.226 306.562 192.768C306.559 193.334 306.404 193.839 306.099 194.283C305.797 194.724 305.396 195.011 304.896 195.142V195.205C305.281 195.274 305.628 195.439 305.937 195.7C306.246 195.957 306.493 196.278 306.677 196.663C306.861 197.045 306.954 197.462 306.958 197.913C306.954 198.489 306.798 199.003 306.489 199.455C306.184 199.902 305.758 200.255 305.213 200.512C304.672 200.765 304.045 200.892 303.333 200.892ZM303.333 199.746C303.816 199.746 304.232 199.668 304.583 199.512C304.934 199.356 305.205 199.135 305.396 198.85C305.586 198.566 305.684 198.232 305.687 197.851C305.684 197.448 305.58 197.092 305.375 196.783C305.17 196.474 304.89 196.231 304.536 196.054C304.186 195.877 303.785 195.788 303.333 195.788C302.878 195.788 302.472 195.877 302.115 196.054C301.76 196.231 301.481 196.474 301.276 196.783C301.075 197.092 300.976 197.448 300.979 197.851C300.976 198.232 301.068 198.566 301.255 198.85C301.446 199.135 301.719 199.356 302.073 199.512C302.427 199.668 302.847 199.746 303.333 199.746ZM303.333 194.684C303.715 194.684 304.054 194.608 304.349 194.455C304.647 194.302 304.882 194.089 305.052 193.814C305.222 193.54 305.309 193.219 305.312 192.851C305.309 192.49 305.224 192.176 305.057 191.908C304.89 191.638 304.659 191.429 304.364 191.283C304.069 191.134 303.726 191.06 303.333 191.06C302.934 191.06 302.585 191.134 302.286 191.283C301.988 191.429 301.757 191.638 301.594 191.908C301.431 192.176 301.351 192.49 301.354 192.851C301.351 193.219 301.432 193.54 301.599 193.814C301.769 194.089 302.003 194.302 302.302 194.455C302.601 194.608 302.944 194.684 303.333 194.684ZM310.478 199.288L310.395 199.85C310.336 200.246 310.246 200.67 310.124 201.121C310.006 201.572 309.883 201.998 309.754 202.397C309.626 202.796 309.52 203.114 309.437 203.35H308.499C308.545 203.128 308.604 202.834 308.676 202.47C308.749 202.105 308.822 201.697 308.895 201.246C308.972 200.798 309.034 200.34 309.083 199.871L309.145 199.288H310.478ZM316.859 200.746V199.809L320.38 195.955C320.793 195.504 321.133 195.111 321.4 194.778C321.668 194.441 321.866 194.125 321.994 193.83C322.126 193.532 322.192 193.219 322.192 192.893C322.192 192.518 322.102 192.193 321.921 191.919C321.744 191.645 321.501 191.433 321.192 191.283C320.883 191.134 320.536 191.06 320.151 191.06C319.741 191.06 319.383 191.145 319.078 191.315C318.776 191.481 318.541 191.716 318.375 192.018C318.212 192.32 318.13 192.674 318.13 193.08H316.901C316.901 192.455 317.045 191.907 317.333 191.435C317.621 190.962 318.014 190.594 318.51 190.33C319.01 190.067 319.571 189.935 320.192 189.935C320.817 189.935 321.371 190.067 321.854 190.33C322.336 190.594 322.715 190.95 322.989 191.398C323.263 191.846 323.4 192.344 323.4 192.893C323.4 193.285 323.329 193.669 323.187 194.044C323.048 194.415 322.805 194.83 322.458 195.288C322.114 195.743 321.637 196.299 321.025 196.955L318.63 199.517V199.6H323.588V200.746H316.859ZM329.217 200.892C328.433 200.892 327.764 200.678 327.212 200.251C326.66 199.821 326.239 199.198 325.947 198.382C325.655 197.562 325.509 196.573 325.509 195.413C325.509 194.261 325.655 193.276 325.947 192.46C326.242 191.641 326.666 191.016 327.218 190.586C327.773 190.152 328.44 189.935 329.217 189.935C329.995 189.935 330.66 190.152 331.212 190.586C331.767 191.016 332.191 191.641 332.483 192.46C332.778 193.276 332.925 194.261 332.925 195.413C332.925 196.573 332.78 197.562 332.488 198.382C332.196 199.198 331.774 199.821 331.222 200.251C330.67 200.678 330.002 200.892 329.217 200.892ZM329.217 199.746C329.995 199.746 330.599 199.371 331.03 198.621C331.46 197.871 331.675 196.802 331.675 195.413C331.675 194.49 331.577 193.703 331.379 193.054C331.184 192.405 330.903 191.91 330.535 191.57C330.17 191.23 329.731 191.06 329.217 191.06C328.447 191.06 327.844 191.44 327.41 192.2C326.976 192.957 326.759 194.028 326.759 195.413C326.759 196.337 326.857 197.121 327.051 197.767C327.245 198.413 327.525 198.904 327.889 199.241C328.257 199.578 328.7 199.746 329.217 199.746ZM334.904 200.746V199.809L338.425 195.955C338.838 195.504 339.178 195.111 339.446 194.778C339.713 194.441 339.911 194.125 340.039 193.83C340.171 193.532 340.237 193.219 340.237 192.893C340.237 192.518 340.147 192.193 339.966 191.919C339.789 191.645 339.546 191.433 339.237 191.283C338.928 191.134 338.581 191.06 338.196 191.06C337.786 191.06 337.428 191.145 337.123 191.315C336.821 191.481 336.586 191.716 336.42 192.018C336.257 192.32 336.175 192.674 336.175 193.08H334.946C334.946 192.455 335.09 191.907 335.378 191.435C335.666 190.962 336.059 190.594 336.555 190.33C337.055 190.067 337.616 189.935 338.237 189.935C338.862 189.935 339.416 190.067 339.899 190.33C340.381 190.594 340.76 190.95 341.034 191.398C341.308 191.846 341.445 192.344 341.445 192.893C341.445 193.285 341.374 193.669 341.232 194.044C341.093 194.415 340.85 194.83 340.503 195.288C340.159 195.743 339.682 196.299 339.071 196.955L336.675 199.517V199.6H341.633V200.746H334.904ZM343.305 198.559V197.496L347.992 190.08H348.762V191.726H348.242L344.7 197.33V197.413H351.012V198.559H343.305ZM348.325 200.746V198.236V197.741V190.08H349.554V200.746H348.325Z" fill="black"/>
<ellipse cx="90.1979" cy="304.022" rx="10.362" ry="10.3622" fill="#94B1F3"/>
<ellipse cx="90.1948" cy="304.019" rx="4.44085" ry="4.44096" fill="white"/>
<path opacity="0.5" d="M112.779 297.723V310.521H110.848V297.723H112.779ZM117.309 304.822V310.521H115.441V300.922H117.234V302.485H117.353C117.574 301.976 117.92 301.568 118.391 301.26C118.865 300.952 119.463 300.797 120.184 300.797C120.838 300.797 121.411 300.935 121.903 301.21C122.394 301.481 122.776 301.885 123.046 302.422C123.317 302.96 123.453 303.624 123.453 304.416V310.521H121.584V304.641C121.584 303.945 121.403 303.401 121.04 303.01C120.678 302.614 120.18 302.416 119.547 302.416C119.113 302.416 118.728 302.51 118.391 302.697C118.057 302.885 117.793 303.16 117.597 303.522C117.405 303.88 117.309 304.314 117.309 304.822ZM130.766 310.521V297.723H135.328C136.324 297.723 137.149 297.904 137.803 298.266C138.457 298.629 138.946 299.125 139.271 299.754C139.596 300.379 139.759 301.083 139.759 301.866C139.759 302.654 139.594 303.362 139.265 303.991C138.94 304.616 138.448 305.112 137.79 305.478C137.136 305.841 136.313 306.022 135.322 306.022H132.184V304.385H135.147C135.776 304.385 136.286 304.276 136.678 304.06C137.069 303.839 137.357 303.539 137.54 303.16C137.724 302.781 137.815 302.349 137.815 301.866C137.815 301.383 137.724 300.954 137.54 300.579C137.357 300.204 137.067 299.91 136.672 299.698C136.28 299.485 135.763 299.379 135.122 299.379H132.697V310.521H130.766ZM141.873 310.521V300.922H143.679V302.447H143.779C143.954 301.931 144.262 301.524 144.704 301.229C145.149 300.929 145.653 300.779 146.216 300.779C146.333 300.779 146.47 300.783 146.628 300.791C146.791 300.8 146.918 300.81 147.01 300.822V302.61C146.935 302.589 146.801 302.566 146.61 302.541C146.418 302.512 146.226 302.497 146.035 302.497C145.593 302.497 145.199 302.591 144.854 302.778C144.512 302.962 144.241 303.218 144.041 303.547C143.841 303.872 143.741 304.243 143.741 304.66V310.521H141.873ZM152.326 310.715C151.426 310.715 150.641 310.509 149.97 310.097C149.299 309.684 148.779 309.107 148.408 308.365C148.037 307.624 147.852 306.757 147.852 305.766C147.852 304.77 148.037 303.899 148.408 303.153C148.779 302.408 149.299 301.829 149.97 301.416C150.641 301.004 151.426 300.797 152.326 300.797C153.226 300.797 154.012 301.004 154.682 301.416C155.353 301.829 155.874 302.408 156.245 303.153C156.615 303.899 156.801 304.77 156.801 305.766C156.801 306.757 156.615 307.624 156.245 308.365C155.874 309.107 155.353 309.684 154.682 310.097C154.012 310.509 153.226 310.715 152.326 310.715ZM152.333 309.147C152.916 309.147 153.399 308.992 153.782 308.684C154.166 308.376 154.449 307.965 154.632 307.453C154.82 306.941 154.914 306.376 154.914 305.759C154.914 305.147 154.82 304.585 154.632 304.072C154.449 303.556 154.166 303.141 153.782 302.828C153.399 302.516 152.916 302.36 152.333 302.36C151.745 302.36 151.258 302.516 150.87 302.828C150.487 303.141 150.201 303.556 150.014 304.072C149.831 304.585 149.739 305.147 149.739 305.759C149.739 306.376 149.831 306.941 150.014 307.453C150.201 307.965 150.487 308.376 150.87 308.684C151.258 308.992 151.745 309.147 152.333 309.147ZM162.93 310.715C162.001 310.715 161.201 310.505 160.53 310.084C159.864 309.659 159.351 309.074 158.993 308.328C158.634 307.582 158.455 306.728 158.455 305.766C158.455 304.791 158.639 303.93 159.005 303.185C159.372 302.435 159.889 301.849 160.555 301.429C161.222 301.008 162.007 300.797 162.911 300.797C163.64 300.797 164.29 300.933 164.861 301.204C165.432 301.47 165.892 301.845 166.242 302.329C166.596 302.812 166.807 303.376 166.873 304.022H165.055C164.955 303.572 164.726 303.185 164.367 302.86C164.013 302.535 163.538 302.372 162.942 302.372C162.422 302.372 161.965 302.51 161.574 302.785C161.186 303.056 160.884 303.443 160.668 303.947C160.451 304.447 160.343 305.039 160.343 305.722C160.343 306.422 160.449 307.026 160.661 307.534C160.874 308.043 161.174 308.436 161.561 308.715C161.953 308.995 162.413 309.134 162.942 309.134C163.297 309.134 163.617 309.07 163.905 308.94C164.196 308.807 164.44 308.618 164.636 308.372C164.836 308.126 164.976 307.83 165.055 307.484H166.873C166.807 308.105 166.605 308.659 166.267 309.147C165.93 309.634 165.478 310.017 164.911 310.297C164.349 310.576 163.688 310.715 162.93 310.715ZM173.009 310.715C172.063 310.715 171.248 310.513 170.565 310.109C169.886 309.701 169.361 309.128 168.99 308.39C168.624 307.649 168.44 306.78 168.44 305.784C168.44 304.801 168.624 303.935 168.99 303.185C169.361 302.435 169.878 301.849 170.54 301.429C171.207 301.008 171.986 300.797 172.877 300.797C173.419 300.797 173.944 300.887 174.452 301.066C174.961 301.245 175.417 301.527 175.821 301.91C176.225 302.293 176.544 302.791 176.777 303.403C177.01 304.012 177.127 304.751 177.127 305.622V306.284H169.496V304.885H175.296C175.296 304.393 175.196 303.958 174.996 303.578C174.796 303.195 174.515 302.893 174.152 302.672C173.794 302.451 173.373 302.341 172.89 302.341C172.365 302.341 171.907 302.47 171.515 302.728C171.128 302.983 170.828 303.316 170.615 303.728C170.407 304.137 170.303 304.58 170.303 305.06V306.153C170.303 306.795 170.415 307.341 170.64 307.791C170.869 308.24 171.188 308.584 171.596 308.822C172.005 309.055 172.482 309.172 173.027 309.172C173.381 309.172 173.704 309.122 173.996 309.022C174.288 308.917 174.54 308.763 174.752 308.559C174.965 308.355 175.127 308.103 175.24 307.803L177.008 308.122C176.867 308.643 176.612 309.099 176.246 309.49C175.883 309.878 175.427 310.18 174.877 310.396C174.331 310.609 173.709 310.715 173.009 310.715ZM186.393 303.266L184.7 303.566C184.629 303.349 184.516 303.143 184.362 302.947C184.212 302.751 184.008 302.591 183.75 302.466C183.491 302.341 183.169 302.279 182.781 302.279C182.252 302.279 181.81 302.397 181.456 302.635C181.102 302.868 180.925 303.17 180.925 303.541C180.925 303.862 181.044 304.12 181.281 304.316C181.519 304.512 181.902 304.672 182.431 304.797L183.956 305.147C184.839 305.351 185.497 305.666 185.931 306.091C186.364 306.516 186.581 307.068 186.581 307.747C186.581 308.322 186.414 308.834 186.081 309.284C185.752 309.73 185.291 310.08 184.7 310.334C184.112 310.588 183.431 310.715 182.656 310.715C181.581 310.715 180.704 310.486 180.025 310.028C179.346 309.565 178.929 308.909 178.775 308.059L180.581 307.784C180.694 308.255 180.925 308.611 181.275 308.853C181.625 309.09 182.081 309.209 182.644 309.209C183.256 309.209 183.746 309.082 184.112 308.828C184.479 308.57 184.662 308.255 184.662 307.884C184.662 307.584 184.55 307.332 184.325 307.128C184.104 306.924 183.764 306.77 183.306 306.666L181.681 306.309C180.785 306.105 180.123 305.78 179.694 305.334C179.269 304.889 179.056 304.324 179.056 303.641C179.056 303.074 179.215 302.579 179.531 302.154C179.848 301.729 180.285 301.397 180.844 301.16C181.402 300.918 182.042 300.797 182.762 300.797C183.8 300.797 184.616 301.022 185.212 301.472C185.808 301.918 186.202 302.516 186.393 303.266ZM195.828 303.266L194.135 303.566C194.064 303.349 193.951 303.143 193.797 302.947C193.647 302.751 193.443 302.591 193.185 302.466C192.926 302.341 192.604 302.279 192.216 302.279C191.687 302.279 191.245 302.397 190.891 302.635C190.537 302.868 190.36 303.17 190.36 303.541C190.36 303.862 190.479 304.12 190.716 304.316C190.954 304.512 191.337 304.672 191.866 304.797L193.391 305.147C194.274 305.351 194.933 305.666 195.366 306.091C195.799 306.516 196.016 307.068 196.016 307.747C196.016 308.322 195.849 308.834 195.516 309.284C195.187 309.73 194.726 310.08 194.135 310.334C193.547 310.588 192.866 310.715 192.091 310.715C191.016 310.715 190.139 310.486 189.46 310.028C188.781 309.565 188.364 308.909 188.21 308.059L190.016 307.784C190.129 308.255 190.36 308.611 190.71 308.853C191.06 309.09 191.516 309.209 192.079 309.209C192.691 309.209 193.181 309.082 193.547 308.828C193.914 308.57 194.097 308.255 194.097 307.884C194.097 307.584 193.985 307.332 193.76 307.128C193.539 306.924 193.199 306.77 192.741 306.666L191.116 306.309C190.22 306.105 189.558 305.78 189.129 305.334C188.704 304.889 188.491 304.324 188.491 303.641C188.491 303.074 188.65 302.579 188.966 302.154C189.283 301.729 189.721 301.397 190.279 301.16C190.837 300.918 191.477 300.797 192.197 300.797C193.235 300.797 194.051 301.022 194.647 301.472C195.243 301.918 195.637 302.516 195.828 303.266Z" fill="black"/>
<rect x="400.051" y="99.7598" width="312.34" height="234.643" fill="#F5F4FC"/>
<rect x="400.051" y="99.7598" width="312.34" height="17.7639" fill="#94B1F3"/>
<g clip-path="url(#clip1_53_1091)">
<path d="M443.928 141.824H427.194C424.458 141.827 422.241 144.044 422.238 146.78V163.515C422.241 166.25 424.458 168.467 427.194 168.47H443.928C446.663 168.467 448.88 166.25 448.883 163.515V146.78C448.88 144.044 446.663 141.827 443.928 141.824ZM447.044 146.78V148.386H442.384L438.899 143.664H443.928C445.648 143.666 447.042 145.06 447.044 146.78ZM436.613 143.664L440.098 148.386H434.508L431.023 143.664H436.613ZM424.078 146.78C424.08 145.06 425.474 143.666 427.194 143.664H428.737L432.222 148.386H424.078V146.78ZM443.928 166.631H427.194C425.474 166.629 424.08 165.235 424.078 163.515V150.226H447.044V163.515C447.042 165.235 445.648 166.629 443.928 166.631Z" fill="black"/>
<path d="M440.445 157.621L433.169 153.42C432.729 153.166 432.166 153.317 431.912 153.757C431.832 153.897 431.789 154.055 431.789 154.217V162.619C431.789 163.127 432.201 163.539 432.709 163.539C432.87 163.539 433.029 163.496 433.169 163.415L440.445 159.214C440.885 158.96 441.035 158.398 440.781 157.958C440.701 157.818 440.585 157.702 440.445 157.621ZM433.628 161.026V155.81L438.146 158.418L433.628 161.026Z" fill="black"/>
</g>
<path d="M479.615 152.637H477.015C476.915 152.081 476.729 151.592 476.457 151.17C476.185 150.748 475.851 150.39 475.457 150.095C475.063 149.801 474.621 149.579 474.132 149.429C473.649 149.279 473.135 149.204 472.591 149.204C471.607 149.204 470.727 149.451 469.949 149.945C469.177 150.44 468.566 151.165 468.116 152.12C467.672 153.076 467.449 154.242 467.449 155.62C467.449 157.009 467.672 158.181 468.116 159.136C468.566 160.092 469.18 160.814 469.957 161.303C470.735 161.791 471.61 162.036 472.582 162.036C473.121 162.036 473.632 161.964 474.115 161.819C474.604 161.669 475.046 161.45 475.44 161.161C475.835 160.872 476.168 160.519 476.44 160.103C476.718 159.681 476.91 159.197 477.015 158.653L479.615 158.661C479.476 159.5 479.207 160.272 478.807 160.978C478.412 161.678 477.904 162.283 477.282 162.794C476.665 163.3 475.96 163.691 475.165 163.969C474.371 164.247 473.504 164.386 472.566 164.386C471.088 164.386 469.771 164.036 468.616 163.336C467.46 162.63 466.549 161.622 465.883 160.311C465.222 159 464.891 157.436 464.891 155.62C464.891 153.798 465.225 152.234 465.891 150.929C466.558 149.618 467.469 148.612 468.624 147.912C469.78 147.207 471.093 146.854 472.566 146.854C473.471 146.854 474.315 146.985 475.099 147.246C475.887 147.501 476.596 147.879 477.223 148.379C477.851 148.873 478.371 149.479 478.782 150.195C479.193 150.906 479.47 151.72 479.615 152.637ZM482.496 164.152V151.354H484.904V153.387H485.037C485.271 152.698 485.682 152.156 486.27 151.762C486.865 151.362 487.537 151.162 488.287 151.162C488.442 151.162 488.626 151.168 488.837 151.179C489.053 151.19 489.223 151.204 489.345 151.22V153.603C489.245 153.576 489.067 153.545 488.812 153.512C488.556 153.473 488.301 153.453 488.045 153.453C487.456 153.453 486.931 153.578 486.47 153.828C486.015 154.073 485.654 154.414 485.387 154.853C485.121 155.287 484.987 155.781 484.987 156.336V164.152H482.496ZM496.559 164.411C495.298 164.411 494.212 164.141 493.301 163.602C492.396 163.058 491.696 162.294 491.201 161.311C490.712 160.322 490.468 159.164 490.468 157.836C490.468 156.525 490.712 155.37 491.201 154.37C491.696 153.37 492.384 152.59 493.268 152.029C494.156 151.467 495.195 151.187 496.384 151.187C497.106 151.187 497.806 151.306 498.484 151.545C499.162 151.784 499.77 152.159 500.309 152.67C500.847 153.181 501.272 153.845 501.584 154.662C501.895 155.473 502.05 156.459 502.05 157.62V158.503H491.876V156.636H499.609C499.609 155.981 499.475 155.4 499.209 154.895C498.942 154.384 498.567 153.981 498.084 153.687C497.606 153.392 497.045 153.245 496.401 153.245C495.701 153.245 495.09 153.417 494.568 153.762C494.051 154.101 493.651 154.545 493.368 155.095C493.09 155.639 492.951 156.231 492.951 156.87V158.328C492.951 159.183 493.101 159.911 493.401 160.511C493.707 161.111 494.131 161.569 494.676 161.886C495.22 162.197 495.856 162.353 496.584 162.353C497.056 162.353 497.487 162.286 497.876 162.153C498.264 162.014 498.6 161.808 498.884 161.536C499.167 161.264 499.384 160.928 499.534 160.528L501.892 160.953C501.703 161.647 501.364 162.255 500.875 162.777C500.392 163.294 499.784 163.697 499.05 163.986C498.323 164.269 497.492 164.411 496.559 164.411ZM508.539 164.436C507.728 164.436 506.995 164.286 506.339 163.986C505.684 163.68 505.164 163.239 504.781 162.661C504.403 162.083 504.215 161.375 504.215 160.536C504.215 159.814 504.353 159.219 504.631 158.753C504.909 158.286 505.284 157.917 505.756 157.645C506.228 157.372 506.756 157.167 507.339 157.028C507.922 156.889 508.517 156.784 509.122 156.711C509.889 156.623 510.511 156.55 510.989 156.495C511.467 156.434 511.814 156.336 512.03 156.203C512.247 156.07 512.355 155.853 512.355 155.553V155.495C512.355 154.767 512.15 154.203 511.739 153.803C511.333 153.403 510.728 153.203 509.922 153.203C509.083 153.203 508.422 153.39 507.939 153.762C507.461 154.128 507.131 154.537 506.948 154.987L504.606 154.453C504.884 153.676 505.289 153.048 505.823 152.57C506.362 152.087 506.981 151.737 507.681 151.52C508.381 151.298 509.117 151.187 509.889 151.187C510.4 151.187 510.942 151.248 511.514 151.37C512.092 151.487 512.63 151.704 513.13 152.02C513.636 152.337 514.05 152.79 514.372 153.378C514.694 153.962 514.855 154.72 514.855 155.653V164.152H512.422V162.403H512.322C512.161 162.725 511.919 163.041 511.597 163.352C511.275 163.664 510.861 163.922 510.356 164.127C509.85 164.333 509.245 164.436 508.539 164.436ZM509.081 162.436C509.77 162.436 510.358 162.3 510.847 162.028C511.342 161.755 511.717 161.4 511.972 160.961C512.233 160.517 512.364 160.042 512.364 159.536V157.886C512.275 157.975 512.103 158.058 511.847 158.136C511.597 158.208 511.311 158.272 510.989 158.328C510.667 158.378 510.353 158.425 510.047 158.47C509.742 158.508 509.486 158.542 509.281 158.57C508.797 158.631 508.356 158.733 507.956 158.878C507.561 159.022 507.245 159.231 507.006 159.503C506.773 159.769 506.656 160.125 506.656 160.569C506.656 161.186 506.884 161.653 507.339 161.969C507.795 162.28 508.375 162.436 509.081 162.436ZM524.148 151.354V153.353H517.157V151.354H524.148ZM519.032 148.287H521.523V160.394C521.523 160.878 521.595 161.242 521.74 161.486C521.884 161.725 522.07 161.889 522.298 161.978C522.531 162.061 522.784 162.103 523.056 162.103C523.256 162.103 523.431 162.089 523.581 162.061C523.731 162.033 523.848 162.011 523.931 161.994L524.381 164.052C524.237 164.108 524.031 164.163 523.765 164.219C523.498 164.28 523.165 164.313 522.765 164.319C522.109 164.33 521.498 164.213 520.932 163.969C520.365 163.725 519.907 163.347 519.557 162.836C519.207 162.325 519.032 161.683 519.032 160.911V148.287ZM532.283 164.411C531.022 164.411 529.936 164.141 529.025 163.602C528.119 163.058 527.419 162.294 526.925 161.311C526.436 160.322 526.192 159.164 526.192 157.836C526.192 156.525 526.436 155.37 526.925 154.37C527.419 153.37 528.108 152.59 528.991 152.029C529.88 151.467 530.919 151.187 532.108 151.187C532.83 151.187 533.53 151.306 534.207 151.545C534.885 151.784 535.493 152.159 536.032 152.67C536.571 153.181 536.996 153.845 537.307 154.662C537.618 155.473 537.774 156.459 537.774 157.62V158.503H527.6V156.636H535.332C535.332 155.981 535.199 155.4 534.932 154.895C534.666 154.384 534.291 153.981 533.807 153.687C533.33 153.392 532.769 153.245 532.124 153.245C531.424 153.245 530.813 153.417 530.291 153.762C529.775 154.101 529.375 154.545 529.091 155.095C528.813 155.639 528.675 156.231 528.675 156.87V158.328C528.675 159.183 528.825 159.911 529.125 160.511C529.43 161.111 529.855 161.569 530.399 161.886C530.944 162.197 531.58 162.353 532.308 162.353C532.78 162.353 533.21 162.286 533.599 162.153C533.988 162.014 534.324 161.808 534.607 161.536C534.891 161.264 535.107 160.928 535.257 160.528L537.615 160.953C537.427 161.647 537.088 162.255 536.599 162.777C536.116 163.294 535.507 163.697 534.774 163.986C534.046 164.269 533.216 164.411 532.283 164.411ZM548.439 147.087L553.189 160.986H553.381L558.13 147.087H560.913L554.772 164.152H551.797L545.656 147.087H548.439ZM563.177 164.152V151.354H565.669V164.152H563.177ZM564.436 149.379C564.002 149.379 563.63 149.234 563.319 148.945C563.014 148.651 562.861 148.301 562.861 147.896C562.861 147.485 563.014 147.135 563.319 146.846C563.63 146.551 564.002 146.404 564.436 146.404C564.869 146.404 565.238 146.551 565.544 146.846C565.855 147.135 566.011 147.485 566.011 147.896C566.011 148.301 565.855 148.651 565.544 148.945C565.238 149.234 564.869 149.379 564.436 149.379ZM573.812 164.402C572.779 164.402 571.856 164.138 571.045 163.611C570.24 163.077 569.607 162.319 569.146 161.336C568.69 160.347 568.462 159.161 568.462 157.778C568.462 156.395 568.693 155.212 569.154 154.228C569.621 153.245 570.259 152.492 571.07 151.97C571.881 151.448 572.801 151.187 573.829 151.187C574.623 151.187 575.262 151.32 575.745 151.587C576.234 151.848 576.612 152.154 576.878 152.503C577.15 152.853 577.362 153.162 577.511 153.428H577.661V147.087H580.153V164.152H577.72V162.161H577.511C577.362 162.433 577.145 162.744 576.862 163.094C576.584 163.444 576.201 163.75 575.712 164.011C575.223 164.272 574.59 164.402 573.812 164.402ZM574.362 162.278C575.078 162.278 575.684 162.089 576.178 161.711C576.678 161.328 577.056 160.797 577.312 160.119C577.573 159.442 577.703 158.653 577.703 157.753C577.703 156.864 577.575 156.086 577.32 155.42C577.064 154.753 576.689 154.234 576.195 153.862C575.701 153.489 575.09 153.303 574.362 153.303C573.612 153.303 572.987 153.498 572.487 153.887C571.987 154.276 571.609 154.806 571.354 155.478C571.104 156.15 570.979 156.909 570.979 157.753C570.979 158.608 571.107 159.378 571.362 160.061C571.618 160.744 571.995 161.286 572.495 161.686C573.001 162.08 573.623 162.278 574.362 162.278ZM589.225 164.411C587.964 164.411 586.878 164.141 585.967 163.602C585.061 163.058 584.362 162.294 583.867 161.311C583.378 160.322 583.134 159.164 583.134 157.836C583.134 156.525 583.378 155.37 583.867 154.37C584.362 153.37 585.05 152.59 585.934 152.029C586.822 151.467 587.861 151.187 589.05 151.187C589.772 151.187 590.472 151.306 591.15 151.545C591.827 151.784 592.436 152.159 592.975 152.67C593.513 153.181 593.938 153.845 594.249 154.662C594.561 155.473 594.716 156.459 594.716 157.62V158.503H584.542V156.636H592.275C592.275 155.981 592.141 155.4 591.875 154.895C591.608 154.384 591.233 153.981 590.75 153.687C590.272 153.392 589.711 153.245 589.067 153.245C588.367 153.245 587.756 153.417 587.233 153.762C586.717 154.101 586.317 154.545 586.034 155.095C585.756 155.639 585.617 156.231 585.617 156.87V158.328C585.617 159.183 585.767 159.911 586.067 160.511C586.372 161.111 586.797 161.569 587.342 161.886C587.886 162.197 588.522 162.353 589.25 162.353C589.722 162.353 590.153 162.286 590.541 162.153C590.93 162.014 591.266 161.808 591.55 161.536C591.833 161.264 592.05 160.928 592.2 160.528L594.558 160.953C594.369 161.647 594.03 162.255 593.541 162.777C593.058 163.294 592.45 163.697 591.716 163.986C590.989 164.269 590.158 164.411 589.225 164.411ZM602.872 164.411C601.672 164.411 600.625 164.136 599.73 163.586C598.836 163.036 598.141 162.266 597.647 161.278C597.153 160.289 596.905 159.133 596.905 157.811C596.905 156.484 597.153 155.323 597.647 154.328C598.141 153.334 598.836 152.562 599.73 152.012C600.625 151.462 601.672 151.187 602.872 151.187C604.071 151.187 605.119 151.462 606.013 152.012C606.907 152.562 607.602 153.334 608.096 154.328C608.59 155.323 608.838 156.484 608.838 157.811C608.838 159.133 608.59 160.289 608.096 161.278C607.602 162.266 606.907 163.036 606.013 163.586C605.119 164.136 604.071 164.411 602.872 164.411ZM602.88 162.319C603.658 162.319 604.302 162.114 604.813 161.703C605.324 161.292 605.702 160.744 605.946 160.061C606.196 159.378 606.321 158.625 606.321 157.803C606.321 156.986 606.196 156.236 605.946 155.553C605.702 154.864 605.324 154.312 604.813 153.895C604.302 153.478 603.658 153.27 602.88 153.27C602.097 153.27 601.447 153.478 600.93 153.895C600.419 154.312 600.038 154.864 599.788 155.553C599.544 156.236 599.422 156.986 599.422 157.803C599.422 158.625 599.544 159.378 599.788 160.061C600.038 160.744 600.419 161.292 600.93 161.703C601.447 162.114 602.097 162.319 602.88 162.319ZM627.336 151.57C627.247 150.781 626.88 150.17 626.236 149.737C625.592 149.298 624.78 149.079 623.803 149.079C623.103 149.079 622.497 149.19 621.986 149.412C621.475 149.629 621.078 149.929 620.795 150.312C620.517 150.69 620.378 151.12 620.378 151.604C620.378 152.009 620.473 152.359 620.661 152.653C620.856 152.948 621.109 153.195 621.42 153.395C621.736 153.589 622.075 153.753 622.436 153.887C622.797 154.014 623.145 154.12 623.478 154.203L625.144 154.637C625.689 154.77 626.247 154.95 626.819 155.178C627.391 155.406 627.922 155.706 628.411 156.078C628.9 156.45 629.294 156.911 629.594 157.461C629.899 158.011 630.052 158.67 630.052 159.436C630.052 160.403 629.802 161.261 629.302 162.011C628.808 162.761 628.088 163.352 627.144 163.786C626.205 164.219 625.069 164.436 623.736 164.436C622.458 164.436 621.353 164.233 620.42 163.827C619.487 163.422 618.756 162.847 618.228 162.103C617.701 161.353 617.409 160.464 617.353 159.436H619.937C619.987 160.053 620.186 160.567 620.536 160.978C620.892 161.383 621.345 161.686 621.895 161.886C622.45 162.08 623.058 162.178 623.719 162.178C624.447 162.178 625.094 162.064 625.661 161.836C626.233 161.603 626.683 161.28 627.011 160.869C627.339 160.453 627.502 159.967 627.502 159.411C627.502 158.906 627.358 158.492 627.069 158.17C626.786 157.847 626.4 157.581 625.911 157.37C625.428 157.159 624.88 156.972 624.269 156.811L622.253 156.261C620.886 155.889 619.803 155.342 619.003 154.62C618.209 153.898 617.812 152.942 617.812 151.754C617.812 150.77 618.078 149.912 618.612 149.179C619.145 148.446 619.867 147.876 620.778 147.471C621.689 147.06 622.717 146.854 623.861 146.854C625.017 146.854 626.036 147.057 626.919 147.462C627.808 147.868 628.508 148.426 629.019 149.137C629.53 149.843 629.797 150.654 629.819 151.57H627.336ZM638.903 151.354V153.353H631.912V151.354H638.903ZM633.787 148.287H636.279V160.394C636.279 160.878 636.351 161.242 636.495 161.486C636.64 161.725 636.826 161.889 637.054 161.978C637.287 162.061 637.54 162.103 637.812 162.103C638.012 162.103 638.187 162.089 638.337 162.061C638.487 162.033 638.603 162.011 638.687 161.994L639.137 164.052C638.992 164.108 638.787 164.163 638.52 164.219C638.253 164.28 637.92 164.313 637.52 164.319C636.865 164.33 636.254 164.213 635.687 163.969C635.12 163.725 634.662 163.347 634.312 162.836C633.962 162.325 633.787 161.683 633.787 160.911V148.287ZM643.234 168.952C642.862 168.952 642.523 168.921 642.218 168.86C641.912 168.805 641.684 168.744 641.534 168.677L642.134 166.635C642.59 166.758 642.995 166.81 643.351 166.794C643.706 166.777 644.02 166.644 644.292 166.394C644.57 166.144 644.815 165.736 645.026 165.169L645.334 164.319L640.651 151.354H643.318L646.559 161.286H646.692L649.934 151.354H652.608L647.334 165.861C647.089 166.527 646.778 167.091 646.401 167.552C646.023 168.019 645.573 168.369 645.051 168.602C644.529 168.835 643.923 168.952 643.234 168.952ZM657.441 147.087V164.152H654.95V147.087H657.441ZM666.309 164.411C665.048 164.411 663.962 164.141 663.051 163.602C662.146 163.058 661.446 162.294 660.951 161.311C660.462 160.322 660.218 159.164 660.218 157.836C660.218 156.525 660.462 155.37 660.951 154.37C661.446 153.37 662.134 152.59 663.018 152.029C663.907 151.467 664.945 151.187 666.134 151.187C666.856 151.187 667.556 151.306 668.234 151.545C668.912 151.784 669.52 152.159 670.059 152.67C670.598 153.181 671.022 153.845 671.334 154.662C671.645 155.473 671.8 156.459 671.8 157.62V158.503H661.626V156.636H669.359C669.359 155.981 669.225 155.4 668.959 154.895C668.692 154.384 668.317 153.981 667.834 153.687C667.356 153.392 666.795 153.245 666.151 153.245C665.451 153.245 664.84 153.417 664.318 153.762C663.801 154.101 663.401 154.545 663.118 155.095C662.84 155.639 662.701 156.231 662.701 156.87V158.328C662.701 159.183 662.851 159.911 663.151 160.511C663.457 161.111 663.882 161.569 664.426 161.886C664.97 162.197 665.606 162.353 666.334 162.353C666.806 162.353 667.237 162.286 667.626 162.153C668.014 162.014 668.351 161.808 668.634 161.536C668.917 161.264 669.134 160.928 669.284 160.528L671.642 160.953C671.453 161.647 671.114 162.255 670.625 162.777C670.142 163.294 669.534 163.697 668.8 163.986C668.073 164.269 667.242 164.411 666.309 164.411Z" fill="black"/>
<path opacity="0.5" d="M423.549 200.75V190.084H424.841V199.604H429.799V200.75H423.549ZM433.986 200.937C433.479 200.937 433.019 200.842 432.606 200.651C432.193 200.457 431.865 200.177 431.621 199.813C431.378 199.445 431.257 199 431.257 198.479C431.257 198.021 431.347 197.65 431.528 197.365C431.708 197.077 431.95 196.851 432.252 196.688C432.554 196.525 432.887 196.403 433.252 196.323C433.62 196.24 433.989 196.174 434.361 196.125C434.847 196.063 435.241 196.016 435.543 195.985C435.848 195.95 436.071 195.893 436.21 195.813C436.352 195.733 436.423 195.594 436.423 195.396V195.355C436.423 194.841 436.282 194.442 436.001 194.157C435.724 193.872 435.302 193.73 434.736 193.73C434.149 193.73 433.689 193.858 433.356 194.115C433.022 194.372 432.788 194.646 432.653 194.938L431.486 194.521C431.694 194.035 431.972 193.657 432.319 193.386C432.67 193.112 433.052 192.921 433.465 192.813C433.882 192.702 434.291 192.647 434.694 192.647C434.951 192.647 435.246 192.678 435.579 192.74C435.916 192.799 436.241 192.923 436.553 193.11C436.869 193.298 437.131 193.581 437.34 193.959C437.548 194.337 437.652 194.844 437.652 195.48V200.75H436.423V199.667H436.361C436.277 199.84 436.138 200.026 435.944 200.224C435.75 200.422 435.491 200.59 435.168 200.729C434.845 200.868 434.451 200.937 433.986 200.937ZM434.173 199.833C434.659 199.833 435.069 199.738 435.402 199.547C435.739 199.356 435.993 199.11 436.163 198.807C436.336 198.505 436.423 198.188 436.423 197.854V196.73C436.371 196.792 436.256 196.849 436.079 196.901C435.906 196.95 435.704 196.993 435.475 197.032C435.25 197.066 435.029 197.098 434.814 197.125C434.602 197.15 434.43 197.17 434.298 197.188C433.979 197.23 433.68 197.297 433.403 197.391C433.128 197.481 432.906 197.618 432.736 197.802C432.569 197.983 432.486 198.229 432.486 198.542C432.486 198.969 432.644 199.292 432.96 199.511C433.279 199.726 433.684 199.833 434.173 199.833ZM445.562 194.542L444.457 194.855C444.388 194.671 444.286 194.492 444.15 194.318C444.018 194.141 443.838 193.995 443.609 193.881C443.379 193.766 443.086 193.709 442.728 193.709C442.239 193.709 441.831 193.822 441.505 194.048C441.182 194.27 441.02 194.553 441.02 194.896C441.02 195.202 441.131 195.443 441.354 195.62C441.576 195.797 441.923 195.945 442.395 196.063L443.583 196.355C444.298 196.528 444.831 196.794 445.181 197.151C445.532 197.506 445.707 197.962 445.707 198.521C445.707 198.979 445.575 199.389 445.312 199.75C445.051 200.111 444.687 200.396 444.218 200.604C443.749 200.812 443.204 200.917 442.583 200.917C441.767 200.917 441.091 200.74 440.557 200.385C440.022 200.031 439.684 199.514 439.541 198.834L440.708 198.542C440.819 198.972 441.029 199.295 441.338 199.511C441.65 199.726 442.058 199.833 442.562 199.833C443.135 199.833 443.589 199.712 443.926 199.469C444.267 199.222 444.437 198.927 444.437 198.584C444.437 198.306 444.339 198.073 444.145 197.886C443.951 197.695 443.652 197.552 443.249 197.459L441.916 197.146C441.183 196.973 440.645 196.704 440.302 196.339C439.961 195.971 439.791 195.511 439.791 194.959C439.791 194.508 439.918 194.108 440.171 193.761C440.428 193.414 440.777 193.141 441.218 192.943C441.663 192.746 442.166 192.647 442.728 192.647C443.52 192.647 444.142 192.82 444.593 193.167C445.048 193.515 445.371 193.973 445.562 194.542ZM451.036 192.751V193.792H446.891V192.751H451.036ZM448.099 190.834H449.328V198.459C449.328 198.806 449.378 199.066 449.479 199.24C449.583 199.41 449.715 199.524 449.875 199.583C450.038 199.639 450.21 199.667 450.39 199.667C450.526 199.667 450.637 199.66 450.724 199.646C450.811 199.629 450.88 199.615 450.932 199.604L451.182 200.708C451.099 200.74 450.982 200.771 450.833 200.802C450.684 200.837 450.495 200.854 450.265 200.854C449.918 200.854 449.578 200.78 449.245 200.63C448.915 200.481 448.641 200.254 448.422 199.948C448.207 199.642 448.099 199.257 448.099 198.792V190.834ZM464.176 190.084H465.467V197.146C465.467 197.875 465.295 198.526 464.952 199.099C464.611 199.669 464.13 200.118 463.509 200.448C462.888 200.774 462.158 200.937 461.322 200.937C460.485 200.937 459.756 200.774 459.134 200.448C458.513 200.118 458.03 199.669 457.687 199.099C457.346 198.526 457.176 197.875 457.176 197.146V190.084H458.468V197.042C458.468 197.563 458.582 198.026 458.812 198.433C459.041 198.835 459.367 199.153 459.791 199.386C460.218 199.615 460.728 199.729 461.322 199.729C461.915 199.729 462.426 199.615 462.853 199.386C463.28 199.153 463.606 198.835 463.832 198.433C464.061 198.026 464.176 197.563 464.176 197.042V190.084ZM467.88 203.75V192.751H469.067V194.021H469.213C469.303 193.883 469.428 193.706 469.588 193.49C469.751 193.272 469.984 193.077 470.286 192.907C470.591 192.733 471.004 192.647 471.525 192.647C472.199 192.647 472.792 192.815 473.306 193.152C473.82 193.489 474.221 193.966 474.509 194.584C474.797 195.202 474.941 195.931 474.941 196.771C474.941 197.618 474.797 198.353 474.509 198.974C474.221 199.592 473.822 200.071 473.311 200.411C472.801 200.748 472.213 200.917 471.546 200.917C471.032 200.917 470.621 200.832 470.312 200.661C470.003 200.488 469.765 200.292 469.598 200.073C469.432 199.851 469.303 199.667 469.213 199.521H469.109V203.75H467.88ZM469.088 196.75C469.088 197.354 469.176 197.887 469.353 198.349C469.531 198.807 469.789 199.167 470.129 199.427C470.47 199.684 470.886 199.813 471.379 199.813C471.893 199.813 472.322 199.677 472.666 199.406C473.013 199.132 473.273 198.764 473.447 198.302C473.624 197.837 473.712 197.32 473.712 196.75C473.712 196.188 473.626 195.681 473.452 195.23C473.282 194.775 473.023 194.416 472.676 194.152C472.332 193.884 471.9 193.751 471.379 193.751C470.879 193.751 470.459 193.877 470.119 194.131C469.779 194.381 469.522 194.731 469.348 195.183C469.175 195.631 469.088 196.153 469.088 196.75ZM479.837 200.917C479.17 200.917 478.582 200.748 478.071 200.411C477.561 200.071 477.162 199.592 476.874 198.974C476.585 198.353 476.441 197.618 476.441 196.771C476.441 195.931 476.585 195.202 476.874 194.584C477.162 193.966 477.563 193.489 478.077 193.152C478.59 192.815 479.184 192.647 479.858 192.647C480.378 192.647 480.79 192.733 481.092 192.907C481.397 193.077 481.63 193.272 481.79 193.49C481.953 193.706 482.08 193.883 482.17 194.021H482.274V190.084H483.503V200.75H482.316V199.521H482.17C482.08 199.667 481.951 199.851 481.785 200.073C481.618 200.292 481.38 200.488 481.071 200.661C480.762 200.832 480.351 200.917 479.837 200.917ZM480.003 199.813C480.496 199.813 480.913 199.684 481.253 199.427C481.594 199.167 481.852 198.807 482.029 198.349C482.206 197.887 482.295 197.354 482.295 196.75C482.295 196.153 482.208 195.631 482.035 195.183C481.861 194.731 481.604 194.381 481.264 194.131C480.924 193.877 480.503 193.751 480.003 193.751C479.483 193.751 479.049 193.884 478.702 194.152C478.358 194.416 478.099 194.775 477.926 195.23C477.755 195.681 477.67 196.188 477.67 196.75C477.67 197.32 477.757 197.837 477.931 198.302C478.108 198.764 478.368 199.132 478.712 199.406C479.059 199.677 479.49 199.813 480.003 199.813ZM488.279 200.937C487.772 200.937 487.312 200.842 486.899 200.651C486.485 200.457 486.157 200.177 485.914 199.813C485.671 199.445 485.55 199 485.55 198.479C485.55 198.021 485.64 197.65 485.821 197.365C486.001 197.077 486.242 196.851 486.544 196.688C486.847 196.525 487.18 196.403 487.544 196.323C487.912 196.24 488.282 196.174 488.654 196.125C489.14 196.063 489.534 196.016 489.836 195.985C490.141 195.95 490.364 195.893 490.502 195.813C490.645 195.733 490.716 195.594 490.716 195.396V195.355C490.716 194.841 490.575 194.442 490.294 194.157C490.016 193.872 489.595 193.73 489.029 193.73C488.442 193.73 487.982 193.858 487.649 194.115C487.315 194.372 487.081 194.646 486.945 194.938L485.779 194.521C485.987 194.035 486.265 193.657 486.612 193.386C486.963 193.112 487.345 192.921 487.758 192.813C488.175 192.702 488.584 192.647 488.987 192.647C489.244 192.647 489.539 192.678 489.872 192.74C490.209 192.799 490.534 192.923 490.846 193.11C491.162 193.298 491.424 193.581 491.633 193.959C491.841 194.337 491.945 194.844 491.945 195.48V200.75H490.716V199.667H490.653C490.57 199.84 490.431 200.026 490.237 200.224C490.042 200.422 489.784 200.59 489.461 200.729C489.138 200.868 488.744 200.937 488.279 200.937ZM488.466 199.833C488.952 199.833 489.362 199.738 489.695 199.547C490.032 199.356 490.285 199.11 490.456 198.807C490.629 198.505 490.716 198.188 490.716 197.854V196.73C490.664 196.792 490.549 196.849 490.372 196.901C490.199 196.95 489.997 196.993 489.768 197.032C489.542 197.066 489.322 197.098 489.107 197.125C488.895 197.15 488.723 197.17 488.591 197.188C488.272 197.23 487.973 197.297 487.695 197.391C487.421 197.481 487.199 197.618 487.029 197.802C486.862 197.983 486.779 198.229 486.779 198.542C486.779 198.969 486.937 199.292 487.253 199.511C487.572 199.726 487.977 199.833 488.466 199.833ZM497.667 192.751V193.792H493.522V192.751H497.667ZM494.73 190.834H495.959V198.459C495.959 198.806 496.009 199.066 496.11 199.24C496.214 199.41 496.346 199.524 496.506 199.583C496.669 199.639 496.841 199.667 497.021 199.667C497.157 199.667 497.268 199.66 497.355 199.646C497.441 199.629 497.511 199.615 497.563 199.604L497.813 200.708C497.73 200.74 497.613 200.771 497.464 200.802C497.315 200.837 497.125 200.854 496.896 200.854C496.549 200.854 496.209 200.78 495.876 200.63C495.546 200.481 495.271 200.254 495.053 199.948C494.838 199.642 494.73 199.257 494.73 198.792V190.834ZM502.784 200.917C502.013 200.917 501.348 200.747 500.789 200.406C500.234 200.063 499.805 199.583 499.503 198.969C499.204 198.351 499.055 197.632 499.055 196.813C499.055 195.994 499.204 195.271 499.503 194.646C499.805 194.018 500.225 193.528 500.763 193.178C501.305 192.824 501.937 192.647 502.659 192.647C503.075 192.647 503.487 192.716 503.893 192.855C504.299 192.994 504.669 193.219 505.002 193.532C505.336 193.841 505.601 194.251 505.799 194.761C505.997 195.271 506.096 195.9 506.096 196.646V197.167H499.93V196.105H504.846C504.846 195.653 504.756 195.251 504.575 194.896C504.398 194.542 504.145 194.263 503.815 194.058C503.489 193.853 503.103 193.751 502.659 193.751C502.169 193.751 501.746 193.872 501.388 194.115C501.034 194.355 500.761 194.667 500.57 195.053C500.38 195.438 500.284 195.851 500.284 196.292V197C500.284 197.604 500.388 198.117 500.596 198.537C500.808 198.953 501.102 199.271 501.477 199.49C501.852 199.705 502.287 199.813 502.784 199.813C503.107 199.813 503.398 199.767 503.659 199.677C503.923 199.583 504.15 199.445 504.341 199.261C504.532 199.073 504.679 198.84 504.784 198.563L505.971 198.896C505.846 199.299 505.636 199.653 505.341 199.958C505.046 200.26 504.681 200.497 504.247 200.667C503.813 200.833 503.325 200.917 502.784 200.917ZM510.986 200.917C510.32 200.917 509.731 200.748 509.221 200.411C508.71 200.071 508.311 199.592 508.023 198.974C507.735 198.353 507.591 197.618 507.591 196.771C507.591 195.931 507.735 195.202 508.023 194.584C508.311 193.966 508.712 193.489 509.226 193.152C509.74 192.815 510.333 192.647 511.007 192.647C511.528 192.647 511.939 192.733 512.241 192.907C512.547 193.077 512.779 193.272 512.939 193.49C513.102 193.706 513.229 193.883 513.319 194.021H513.423V190.084H514.652V200.75H513.465V199.521H513.319C513.229 199.667 513.1 199.851 512.934 200.073C512.767 200.292 512.529 200.488 512.22 200.661C511.911 200.832 511.5 200.917 510.986 200.917ZM511.153 199.813C511.646 199.813 512.062 199.684 512.403 199.427C512.743 199.167 513.002 198.807 513.179 198.349C513.356 197.887 513.444 197.354 513.444 196.75C513.444 196.153 513.357 195.631 513.184 195.183C513.01 194.731 512.753 194.381 512.413 194.131C512.073 193.877 511.653 193.751 511.153 193.751C510.632 193.751 510.198 193.884 509.851 194.152C509.507 194.416 509.248 194.775 509.075 195.23C508.905 195.681 508.82 196.188 508.82 196.75C508.82 197.32 508.906 197.837 509.08 198.302C509.257 198.764 509.517 199.132 509.861 199.406C510.208 199.677 510.639 199.813 511.153 199.813Z" fill="black"/>
<path opacity="0.5" d="M608.212 200.75H604.92V190.084H608.358C609.392 190.084 610.278 190.298 611.014 190.725C611.75 191.149 612.314 191.758 612.706 192.553C613.098 193.344 613.295 194.292 613.295 195.396C613.295 196.507 613.097 197.464 612.701 198.266C612.305 199.064 611.729 199.679 610.972 200.109C610.215 200.536 609.295 200.75 608.212 200.75ZM606.212 199.604H608.128C609.01 199.604 609.741 199.434 610.321 199.094C610.901 198.754 611.333 198.269 611.618 197.641C611.902 197.013 612.045 196.264 612.045 195.396C612.045 194.535 611.904 193.794 611.623 193.173C611.342 192.548 610.922 192.069 610.363 191.735C609.804 191.398 609.108 191.23 608.274 191.23H606.212V199.604ZM618.648 200.917C617.878 200.917 617.213 200.747 616.654 200.406C616.098 200.063 615.669 199.583 615.367 198.969C615.069 198.351 614.919 197.632 614.919 196.813C614.919 195.994 615.069 195.271 615.367 194.646C615.669 194.018 616.089 193.528 616.628 193.178C617.169 192.824 617.801 192.647 618.523 192.647C618.94 192.647 619.351 192.716 619.758 192.855C620.164 192.994 620.534 193.219 620.867 193.532C621.2 193.841 621.466 194.251 621.664 194.761C621.861 195.271 621.96 195.9 621.96 196.646V197.167H615.794V196.105H620.711C620.711 195.653 620.62 195.251 620.44 194.896C620.263 194.542 620.009 194.263 619.679 194.058C619.353 193.853 618.968 193.751 618.523 193.751C618.034 193.751 617.61 193.872 617.253 194.115C616.898 194.355 616.626 194.667 616.435 195.053C616.244 195.438 616.149 195.851 616.149 196.292V197C616.149 197.604 616.253 198.117 616.461 198.537C616.673 198.953 616.966 199.271 617.341 199.49C617.716 199.705 618.152 199.813 618.648 199.813C618.971 199.813 619.263 199.767 619.523 199.677C619.787 199.583 620.014 199.445 620.205 199.261C620.396 199.073 620.544 198.84 620.648 198.563L621.835 198.896C621.71 199.299 621.5 199.653 621.205 199.958C620.91 200.26 620.546 200.497 620.112 200.667C619.678 200.833 619.19 200.917 618.648 200.917ZM627.08 200.917C626.33 200.917 625.684 200.74 625.142 200.385C624.601 200.031 624.184 199.544 623.893 198.922C623.601 198.301 623.455 197.591 623.455 196.792C623.455 195.98 623.604 195.263 623.903 194.641C624.205 194.016 624.625 193.528 625.163 193.178C625.705 192.824 626.337 192.647 627.059 192.647C627.621 192.647 628.128 192.751 628.58 192.959C629.031 193.167 629.401 193.459 629.689 193.834C629.977 194.209 630.156 194.646 630.225 195.146H628.996C628.902 194.782 628.694 194.459 628.371 194.178C628.052 193.893 627.621 193.751 627.08 193.751C626.601 193.751 626.181 193.876 625.819 194.126C625.462 194.372 625.182 194.721 624.981 195.172C624.783 195.62 624.684 196.146 624.684 196.75C624.684 197.368 624.781 197.907 624.976 198.365C625.174 198.823 625.451 199.179 625.809 199.432C626.17 199.686 626.594 199.813 627.08 199.813C627.399 199.813 627.689 199.757 627.949 199.646C628.21 199.535 628.43 199.375 628.611 199.167C628.791 198.959 628.92 198.709 628.996 198.417H630.225C630.156 198.889 629.984 199.314 629.71 199.693C629.439 200.068 629.08 200.366 628.632 200.589C628.187 200.807 627.67 200.917 627.08 200.917ZM636.126 200.75V199.813L639.646 195.959C640.059 195.507 640.4 195.115 640.667 194.782C640.934 194.445 641.132 194.129 641.261 193.834C641.393 193.535 641.459 193.223 641.459 192.897C641.459 192.522 641.368 192.197 641.188 191.923C641.011 191.648 640.768 191.437 640.459 191.287C640.15 191.138 639.802 191.063 639.417 191.063C639.007 191.063 638.65 191.149 638.344 191.319C638.042 191.485 637.808 191.72 637.641 192.022C637.478 192.324 637.396 192.678 637.396 193.084H636.167C636.167 192.459 636.311 191.911 636.6 191.438C636.888 190.966 637.28 190.598 637.777 190.334C638.277 190.07 638.837 189.939 639.459 189.939C640.084 189.939 640.637 190.07 641.12 190.334C641.603 190.598 641.981 190.954 642.255 191.402C642.53 191.85 642.667 192.348 642.667 192.897C642.667 193.289 642.596 193.673 642.453 194.048C642.314 194.419 642.071 194.834 641.724 195.292C641.38 195.747 640.903 196.303 640.292 196.959L637.896 199.521V199.604H642.854V200.75H636.126ZM648.755 190.084V200.75H647.463V191.438H647.401L644.797 193.167V191.855L647.463 190.084H648.755ZM653.046 199.292L652.963 199.854C652.904 200.25 652.813 200.674 652.692 201.125C652.574 201.576 652.451 202.002 652.322 202.401C652.194 202.8 652.088 203.118 652.004 203.354H651.067C651.112 203.132 651.171 202.838 651.244 202.474C651.317 202.109 651.39 201.701 651.463 201.25C651.539 200.802 651.602 200.344 651.65 199.875L651.713 199.292H653.046ZM659.427 200.75V199.813L662.947 195.959C663.36 195.507 663.701 195.115 663.968 194.782C664.235 194.445 664.433 194.129 664.562 193.834C664.694 193.535 664.76 193.223 664.76 192.897C664.76 192.522 664.669 192.197 664.489 191.923C664.312 191.648 664.069 191.437 663.76 191.287C663.451 191.138 663.104 191.063 662.718 191.063C662.308 191.063 661.951 191.149 661.645 191.319C661.343 191.485 661.109 191.72 660.942 192.022C660.779 192.324 660.698 192.678 660.698 193.084H659.468C659.468 192.459 659.613 191.911 659.901 191.438C660.189 190.966 660.581 190.598 661.078 190.334C661.578 190.07 662.138 189.939 662.76 189.939C663.385 189.939 663.939 190.07 664.421 190.334C664.904 190.598 665.282 190.954 665.556 191.402C665.831 191.85 665.968 192.348 665.968 192.897C665.968 193.289 665.897 193.673 665.754 194.048C665.615 194.419 665.372 194.834 665.025 195.292C664.682 195.747 664.204 196.303 663.593 196.959L661.197 199.521V199.604H666.155V200.75H659.427ZM671.785 200.896C671 200.896 670.332 200.682 669.78 200.255C669.228 199.825 668.806 199.202 668.514 198.386C668.223 197.566 668.077 196.577 668.077 195.417C668.077 194.265 668.223 193.28 668.514 192.464C668.81 191.645 669.233 191.02 669.785 190.59C670.341 190.156 671.007 189.939 671.785 189.939C672.563 189.939 673.228 190.156 673.78 190.59C674.335 191.02 674.759 191.645 675.05 192.464C675.345 193.28 675.493 194.265 675.493 195.417C675.493 196.577 675.347 197.566 675.056 198.386C674.764 199.202 674.342 199.825 673.79 200.255C673.238 200.682 672.57 200.896 671.785 200.896ZM671.785 199.75C672.563 199.75 673.167 199.375 673.597 198.625C674.028 197.875 674.243 196.806 674.243 195.417C674.243 194.494 674.144 193.707 673.946 193.058C673.752 192.409 673.471 191.914 673.103 191.574C672.738 191.234 672.299 191.063 671.785 191.063C671.014 191.063 670.412 191.444 669.978 192.204C669.544 192.961 669.327 194.032 669.327 195.417C669.327 196.341 669.424 197.125 669.619 197.771C669.813 198.417 670.092 198.908 670.457 199.245C670.825 199.582 671.268 199.75 671.785 199.75ZM677.472 200.75V199.813L680.992 195.959C681.406 195.507 681.746 195.115 682.013 194.782C682.28 194.445 682.478 194.129 682.607 193.834C682.739 193.535 682.805 193.223 682.805 192.897C682.805 192.522 682.714 192.197 682.534 191.923C682.357 191.648 682.114 191.437 681.805 191.287C681.496 191.138 681.149 191.063 680.763 191.063C680.354 191.063 679.996 191.149 679.69 191.319C679.388 191.485 679.154 191.72 678.987 192.022C678.824 192.324 678.743 192.678 678.743 193.084H677.514C677.514 192.459 677.658 191.911 677.946 191.438C678.234 190.966 678.626 190.598 679.123 190.334C679.623 190.07 680.183 189.939 680.805 189.939C681.43 189.939 681.984 190.07 682.466 190.334C682.949 190.598 683.327 190.954 683.602 191.402C683.876 191.85 684.013 192.348 684.013 192.897C684.013 193.289 683.942 193.673 683.799 194.048C683.661 194.419 683.418 194.834 683.07 195.292C682.727 195.747 682.249 196.303 681.638 196.959L679.243 199.521V199.604H684.2V200.75H677.472ZM685.872 198.563V197.5L690.559 190.084H691.33V191.73H690.809L687.268 197.334V197.417H693.58V198.563H685.872ZM690.892 200.75V198.24V197.745V190.084H692.122V200.75H690.892Z" fill="black"/>
<ellipse cx="432.62" cy="304.026" rx="10.362" ry="10.3622" fill="#94B1F3"/>
<ellipse cx="432.617" cy="304.023" rx="4.44085" ry="4.44096" fill="white"/>
<path opacity="0.5" d="M453.269 310.525V297.727H457.831C458.823 297.727 459.646 297.897 460.3 298.239C460.958 298.581 461.45 299.054 461.775 299.658C462.1 300.258 462.262 300.951 462.262 301.739C462.262 302.522 462.098 303.212 461.769 303.807C461.444 304.399 460.952 304.859 460.294 305.188C459.64 305.518 458.817 305.682 457.825 305.682H454.369V304.02H457.65C458.275 304.02 458.783 303.93 459.175 303.751C459.571 303.572 459.86 303.312 460.044 302.97C460.227 302.628 460.319 302.218 460.319 301.739C460.319 301.255 460.225 300.837 460.037 300.483C459.854 300.128 459.565 299.858 459.169 299.67C458.777 299.479 458.263 299.383 457.625 299.383H455.2V310.525H453.269ZM459.588 304.751L462.75 310.525H460.55L457.45 304.751H459.588ZM468.479 310.719C467.533 310.719 466.719 310.517 466.035 310.113C465.356 309.705 464.831 309.132 464.46 308.394C464.094 307.653 463.911 306.784 463.911 305.788C463.911 304.805 464.094 303.939 464.46 303.189C464.831 302.439 465.348 301.853 466.01 301.433C466.677 301.012 467.456 300.801 468.348 300.801C468.889 300.801 469.414 300.891 469.922 301.07C470.431 301.249 470.887 301.53 471.291 301.914C471.695 302.297 472.014 302.795 472.247 303.407C472.481 304.016 472.597 304.755 472.597 305.626V306.288H464.967V304.888H470.766C470.766 304.397 470.666 303.961 470.466 303.582C470.266 303.199 469.985 302.897 469.622 302.676C469.264 302.455 468.843 302.345 468.36 302.345C467.835 302.345 467.377 302.474 466.985 302.732C466.598 302.987 466.298 303.32 466.085 303.732C465.877 304.141 465.773 304.584 465.773 305.063V306.157C465.773 306.799 465.885 307.344 466.11 307.794C466.339 308.244 466.658 308.588 467.066 308.826C467.475 309.059 467.952 309.176 468.498 309.176C468.852 309.176 469.175 309.126 469.466 309.026C469.758 308.921 470.01 308.767 470.222 308.563C470.435 308.359 470.597 308.107 470.71 307.807L472.478 308.126C472.337 308.646 472.083 309.103 471.716 309.494C471.354 309.882 470.897 310.184 470.347 310.4C469.802 310.613 469.179 310.719 468.479 310.719ZM474.67 300.926H476.539V311.15C476.539 311.792 476.422 312.334 476.189 312.775C475.96 313.217 475.618 313.552 475.164 313.781C474.714 314.01 474.158 314.125 473.496 314.125C473.429 314.125 473.366 314.125 473.308 314.125C473.246 314.125 473.181 314.123 473.114 314.119V312.513C473.173 312.513 473.225 312.513 473.271 312.513C473.312 312.513 473.36 312.513 473.414 312.513C473.856 312.513 474.175 312.394 474.37 312.156C474.57 311.923 474.67 311.584 474.67 311.138V300.926ZM475.595 299.445C475.27 299.445 474.991 299.337 474.758 299.12C474.529 298.899 474.414 298.637 474.414 298.333C474.414 298.025 474.529 297.762 474.758 297.545C474.991 297.325 475.27 297.214 475.595 297.214C475.92 297.214 476.197 297.325 476.426 297.545C476.66 297.762 476.776 298.025 476.776 298.333C476.776 298.637 476.66 298.899 476.426 299.12C476.197 299.337 475.92 299.445 475.595 299.445ZM483.19 310.719C482.244 310.719 481.43 310.517 480.746 310.113C480.067 309.705 479.542 309.132 479.172 308.394C478.805 307.653 478.622 306.784 478.622 305.788C478.622 304.805 478.805 303.939 479.172 303.189C479.542 302.439 480.059 301.853 480.721 301.433C481.388 301.012 482.167 300.801 483.059 300.801C483.6 300.801 484.125 300.891 484.634 301.07C485.142 301.249 485.598 301.53 486.002 301.914C486.406 302.297 486.725 302.795 486.958 303.407C487.192 304.016 487.308 304.755 487.308 305.626V306.288H479.678V304.888H485.477C485.477 304.397 485.377 303.961 485.177 303.582C484.977 303.199 484.696 302.897 484.334 302.676C483.975 302.455 483.554 302.345 483.071 302.345C482.546 302.345 482.088 302.474 481.696 302.732C481.309 302.987 481.009 303.32 480.796 303.732C480.588 304.141 480.484 304.584 480.484 305.063V306.157C480.484 306.799 480.596 307.344 480.821 307.794C481.051 308.244 481.369 308.588 481.778 308.826C482.186 309.059 482.663 309.176 483.209 309.176C483.563 309.176 483.886 309.126 484.177 309.026C484.469 308.921 484.721 308.767 484.933 308.563C485.146 308.359 485.308 308.107 485.421 307.807L487.19 308.126C487.048 308.646 486.794 309.103 486.427 309.494C486.065 309.882 485.608 310.184 485.058 310.4C484.513 310.613 483.89 310.719 483.19 310.719ZM493.425 310.719C492.496 310.719 491.696 310.509 491.025 310.088C490.358 309.663 489.846 309.078 489.488 308.332C489.129 307.586 488.95 306.732 488.95 305.77C488.95 304.795 489.134 303.934 489.5 303.189C489.867 302.439 490.383 301.853 491.05 301.433C491.717 301.012 492.502 300.801 493.406 300.801C494.135 300.801 494.785 300.937 495.356 301.208C495.927 301.474 496.387 301.849 496.737 302.332C497.091 302.816 497.302 303.38 497.368 304.026H495.55C495.45 303.576 495.22 303.189 494.862 302.864C494.508 302.539 494.033 302.376 493.437 302.376C492.917 302.376 492.46 302.514 492.069 302.789C491.681 303.059 491.379 303.447 491.163 303.951C490.946 304.451 490.838 305.043 490.838 305.726C490.838 306.426 490.944 307.03 491.156 307.538C491.369 308.046 491.669 308.44 492.056 308.719C492.448 308.998 492.908 309.138 493.437 309.138C493.791 309.138 494.112 309.073 494.4 308.944C494.691 308.811 494.935 308.621 495.131 308.376C495.331 308.13 495.47 307.834 495.55 307.488H497.368C497.302 308.109 497.099 308.663 496.762 309.151C496.425 309.638 495.972 310.021 495.406 310.3C494.843 310.58 494.183 310.719 493.425 310.719ZM503.847 300.926V302.426H498.604V300.926H503.847ZM500.01 298.627H501.879V307.707C501.879 308.069 501.933 308.342 502.041 308.526C502.149 308.705 502.289 308.828 502.46 308.894C502.635 308.957 502.824 308.988 503.029 308.988C503.179 308.988 503.31 308.978 503.422 308.957C503.535 308.936 503.622 308.919 503.685 308.907L504.022 310.45C503.914 310.492 503.76 310.534 503.56 310.575C503.36 310.621 503.11 310.646 502.81 310.65C502.318 310.659 501.86 310.571 501.435 310.388C501.01 310.205 500.666 309.921 500.404 309.538C500.141 309.155 500.01 308.673 500.01 308.094V298.627ZM509.948 310.719C509.002 310.719 508.188 310.517 507.505 310.113C506.826 309.705 506.301 309.132 505.93 308.394C505.563 307.653 505.38 306.784 505.38 305.788C505.38 304.805 505.563 303.939 505.93 303.189C506.301 302.439 506.817 301.853 507.48 301.433C508.146 301.012 508.925 300.801 509.817 300.801C510.359 300.801 510.884 300.891 511.392 301.07C511.9 301.249 512.356 301.53 512.76 301.914C513.165 302.297 513.483 302.795 513.717 303.407C513.95 304.016 514.067 304.755 514.067 305.626V306.288H506.436V304.888H512.235C512.235 304.397 512.135 303.961 511.936 303.582C511.736 303.199 511.454 302.897 511.092 302.676C510.734 302.455 510.313 302.345 509.829 302.345C509.305 302.345 508.846 302.474 508.455 302.732C508.067 302.987 507.767 303.32 507.555 303.732C507.346 304.141 507.242 304.584 507.242 305.063V306.157C507.242 306.799 507.355 307.344 507.58 307.794C507.809 308.244 508.128 308.588 508.536 308.826C508.944 309.059 509.421 309.176 509.967 309.176C510.321 309.176 510.644 309.126 510.936 309.026C511.227 308.921 511.479 308.767 511.692 308.563C511.904 308.359 512.067 308.107 512.179 307.807L513.948 308.126C513.806 308.646 513.552 309.103 513.185 309.494C512.823 309.882 512.367 310.184 511.817 310.4C511.271 310.613 510.648 310.719 509.948 310.719ZM519.733 310.713C518.958 310.713 518.267 310.515 517.658 310.119C517.054 309.719 516.579 309.151 516.234 308.413C515.892 307.672 515.721 306.782 515.721 305.745C515.721 304.707 515.894 303.82 516.24 303.082C516.59 302.345 517.069 301.78 517.677 301.389C518.285 300.997 518.975 300.801 519.746 300.801C520.341 300.801 520.821 300.901 521.183 301.101C521.55 301.297 521.833 301.526 522.033 301.789C522.237 302.051 522.395 302.282 522.508 302.482H522.62V297.727H524.489V310.525H522.664V309.032H522.508C522.395 309.236 522.233 309.469 522.02 309.732C521.812 309.994 521.525 310.223 521.158 310.419C520.791 310.615 520.316 310.713 519.733 310.713ZM520.146 309.119C520.683 309.119 521.137 308.978 521.508 308.694C521.883 308.407 522.166 308.009 522.358 307.501C522.554 306.992 522.652 306.401 522.652 305.726C522.652 305.059 522.556 304.476 522.364 303.976C522.173 303.476 521.891 303.087 521.521 302.807C521.15 302.528 520.691 302.389 520.146 302.389C519.583 302.389 519.114 302.535 518.74 302.826C518.365 303.118 518.081 303.516 517.89 304.02C517.702 304.524 517.608 305.093 517.608 305.726C517.608 306.367 517.704 306.944 517.896 307.457C518.088 307.969 518.371 308.376 518.746 308.676C519.125 308.971 519.592 309.119 520.146 309.119Z" fill="black"/>
<defs>
<clipPath id="clip0_53_1091">
<rect width="26.6451" height="26.6458" fill="white" transform="translate(79.8359 141.826)"/>
</clipPath>
<clipPath id="clip1_53_1091">
<rect width="26.6451" height="26.6458" fill="white" transform="translate(422.258 141.83)"/>
</clipPath>
</defs>
</svg>
