<svg width="770" height="392" viewBox="0 0 770 392" fill="none" xmlns="http://www.w3.org/2000/svg">
<rect width="770" height="391.721" fill="white"/>
<path d="M66.7168 240.462H62.1487V246.902H59.7023V228.854H66.7168C70.2615 228.854 72.5331 231.176 72.5331 234.646C72.5331 238.016 70.2365 240.462 66.7168 240.462ZM66.2925 231.051H62.1487V238.265H66.1926C68.614 238.265 69.962 236.842 69.962 234.621C69.962 232.349 68.589 231.051 66.2925 231.051ZM77.301 246.902H74.9545V228.53H77.301V246.902ZM86.0223 247.202C82.4276 247.202 79.9564 244.606 79.9564 240.811C79.9564 236.992 82.3777 234.346 85.9224 234.346C89.3922 234.346 91.6638 236.743 91.6638 240.362V241.236L82.2279 241.261C82.4027 243.832 83.7507 245.255 86.0722 245.255C87.8945 245.255 89.0927 244.506 89.4921 243.108H91.6888C91.0897 245.729 89.0427 247.202 86.0223 247.202ZM85.9224 236.318C83.8755 236.318 82.5774 237.541 82.2779 239.688H89.3173C89.3173 237.666 87.9943 236.318 85.9224 236.318ZM97.7324 247.202C95.1114 247.202 93.5637 245.729 93.5637 243.507C93.5637 241.261 95.2362 239.863 98.1069 239.638L101.951 239.339V238.989C101.951 236.942 100.728 236.218 99.0804 236.218C97.1084 236.218 95.9851 237.092 95.9851 238.565H93.9381C93.9381 236.019 96.035 234.346 99.1803 234.346C102.201 234.346 104.248 235.944 104.248 239.239V246.902H102.251L102.001 244.93C101.377 246.328 99.7045 247.202 97.7324 247.202ZM98.4064 245.38C100.628 245.38 101.976 243.932 101.976 241.635V240.986L98.8558 241.236C96.7839 241.436 95.9351 242.234 95.9351 243.433C95.9351 244.731 96.8837 245.38 98.4064 245.38ZM106.499 243.358H108.745C108.745 244.606 109.694 245.355 111.242 245.355C112.889 245.355 113.838 244.681 113.838 243.557C113.838 242.734 113.438 242.234 112.165 241.91L110.019 241.411C107.847 240.886 106.823 239.813 106.823 238.016C106.823 235.769 108.72 234.346 111.416 234.346C114.087 234.346 115.835 235.844 115.885 238.165H113.638C113.588 236.942 112.764 236.168 111.342 236.168C109.869 236.168 109.045 236.817 109.045 237.941C109.045 238.765 109.644 239.314 110.842 239.613L112.989 240.137C115.061 240.637 116.084 241.585 116.084 243.408C116.084 245.729 114.087 247.202 111.192 247.202C108.321 247.202 106.499 245.679 106.499 243.358ZM127.124 234.696H129.445V246.902H127.349L127.099 245.055C126.4 246.328 124.777 247.202 122.98 247.202C120.134 247.202 118.537 245.28 118.537 242.284V234.696H120.883V241.51C120.883 244.131 122.007 245.13 123.804 245.13C125.951 245.13 127.124 243.757 127.124 241.136V234.696ZM139.839 234.596V236.743H138.791C136.569 236.743 135.196 238.091 135.196 240.437V246.902H132.85V234.721H135.047L135.196 236.568C135.696 235.295 136.919 234.446 138.591 234.446C139.016 234.446 139.365 234.496 139.839 234.596ZM146.869 247.202C143.274 247.202 140.803 244.606 140.803 240.811C140.803 236.992 143.224 234.346 146.769 234.346C150.239 234.346 152.51 236.743 152.51 240.362V241.236L143.074 241.261C143.249 243.832 144.597 245.255 146.919 245.255C148.741 245.255 149.939 244.506 150.338 243.108H152.535C151.936 245.729 149.889 247.202 146.869 247.202ZM146.769 236.318C144.722 236.318 143.424 237.541 143.124 239.688H150.164C150.164 237.666 148.841 236.318 146.769 236.318ZM165.526 247.202C162.905 247.202 161.358 245.729 161.358 243.507C161.358 241.261 163.03 239.863 165.901 239.638L169.745 239.339V238.989C169.745 236.942 168.522 236.218 166.874 236.218C164.902 236.218 163.779 237.092 163.779 238.565H161.732C161.732 236.019 163.829 234.346 166.974 234.346C169.995 234.346 172.042 235.944 172.042 239.239V246.902H170.045L169.795 244.93C169.171 246.328 167.498 247.202 165.526 247.202ZM166.2 245.38C168.422 245.38 169.77 243.932 169.77 241.635V240.986L166.65 241.236C164.578 241.436 163.729 242.234 163.729 243.433C163.729 244.731 164.678 245.38 166.2 245.38ZM177.638 246.902H175.291V234.696H177.413L177.663 236.568C178.437 235.17 179.984 234.346 181.707 234.346C184.927 234.346 186.4 236.318 186.4 239.439V246.902H184.053V239.963C184.053 237.491 182.905 236.493 181.108 236.493C178.911 236.493 177.638 238.066 177.638 240.437V246.902ZM194.542 247.202C190.998 247.202 188.851 244.556 188.851 240.836C188.851 237.092 191.023 234.346 194.642 234.346C196.514 234.346 198.087 235.17 198.911 236.668V228.53H201.232V246.902H199.135L198.936 244.681C198.137 246.353 196.489 247.202 194.542 247.202ZM195.017 245.08C197.413 245.08 198.886 243.308 198.886 240.762C198.886 238.265 197.413 236.468 195.017 236.468C192.62 236.468 191.222 238.265 191.222 240.762C191.222 243.283 192.62 245.08 195.017 245.08ZM210.445 243.358H212.691C212.691 244.606 213.64 245.355 215.187 245.355C216.835 245.355 217.784 244.681 217.784 243.557C217.784 242.734 217.384 242.234 216.111 241.91L213.964 241.411C211.793 240.886 210.769 239.813 210.769 238.016C210.769 235.769 212.666 234.346 215.362 234.346C218.033 234.346 219.781 235.844 219.831 238.165H217.584C217.534 236.942 216.71 236.168 215.287 236.168C213.815 236.168 212.991 236.817 212.991 237.941C212.991 238.765 213.59 239.314 214.788 239.613L216.935 240.137C219.007 240.637 220.03 241.585 220.03 243.408C220.03 245.729 218.033 247.202 215.138 247.202C212.267 247.202 210.445 245.679 210.445 243.358ZM221.834 240.787C221.834 237.017 224.53 234.371 228.199 234.371C231.844 234.371 234.54 237.017 234.54 240.787C234.54 244.556 231.844 247.202 228.199 247.202C224.53 247.202 221.834 244.556 221.834 240.787ZM224.205 240.787C224.205 243.333 225.828 245.105 228.199 245.105C230.546 245.105 232.193 243.333 232.193 240.787C232.193 238.24 230.546 236.468 228.199 236.468C225.828 236.468 224.205 238.24 224.205 240.787ZM250.952 234.596V236.743H249.904C247.682 236.743 246.309 238.091 246.309 240.437V246.902H243.963V234.721H246.159L246.309 236.568C246.808 235.295 248.032 234.446 249.704 234.446C250.128 234.446 250.478 234.496 250.952 234.596ZM257.981 247.202C254.387 247.202 251.915 244.606 251.915 240.811C251.915 236.992 254.337 234.346 257.882 234.346C261.351 234.346 263.623 236.743 263.623 240.362V241.236L254.187 241.261C254.362 243.832 255.71 245.255 258.031 245.255C259.854 245.255 261.052 244.506 261.451 243.108H263.648C263.049 245.729 261.002 247.202 257.981 247.202ZM257.882 236.318C255.835 236.318 254.537 237.541 254.237 239.688H261.276C261.276 237.666 259.953 236.318 257.882 236.318ZM269.692 247.202C267.07 247.202 265.523 245.729 265.523 243.507C265.523 241.261 267.195 239.863 270.066 239.638L273.91 239.339V238.989C273.91 236.942 272.687 236.218 271.04 236.218C269.067 236.218 267.944 237.092 267.944 238.565H265.897C265.897 236.019 267.994 234.346 271.139 234.346C274.16 234.346 276.207 235.944 276.207 239.239V246.902H274.21L273.96 244.93C273.336 246.328 271.664 247.202 269.692 247.202ZM270.366 245.38C272.587 245.38 273.935 243.932 273.935 241.635V240.986L270.815 241.236C268.743 241.436 267.894 242.234 267.894 243.433C267.894 244.731 268.843 245.38 270.366 245.38ZM284.349 247.202C280.804 247.202 278.658 244.556 278.658 240.836C278.658 237.092 280.829 234.346 284.449 234.346C286.321 234.346 287.894 235.17 288.718 236.668V228.53H291.039V246.902H288.942L288.742 244.681C287.944 246.353 286.296 247.202 284.349 247.202ZM284.823 245.08C287.22 245.08 288.693 243.308 288.693 240.762C288.693 238.265 287.22 236.468 284.823 236.468C282.427 236.468 281.029 238.265 281.029 240.762C281.029 243.283 282.427 245.08 284.823 245.08ZM304.695 246.902H302.348V236.668H299.952V234.696H302.348V230.876H304.695V234.696H307.091V236.668H304.695V246.902ZM311.543 246.877H309.197V228.53H311.543V236.568C312.317 235.245 313.79 234.346 315.687 234.346C318.808 234.346 320.305 236.318 320.305 239.439V246.902H317.959V239.963C317.959 237.491 316.786 236.493 315.038 236.493C312.767 236.493 311.543 238.14 311.543 240.237V246.877ZM328.822 247.202C325.228 247.202 322.757 244.606 322.757 240.811C322.757 236.992 325.178 234.346 328.723 234.346C332.192 234.346 334.464 236.743 334.464 240.362V241.236L325.028 241.261C325.203 243.832 326.551 245.255 328.872 245.255C330.695 245.255 331.893 244.506 332.292 243.108H334.489C333.89 245.729 331.843 247.202 328.822 247.202ZM328.723 236.318C326.676 236.318 325.378 237.541 325.078 239.688H332.118C332.118 237.666 330.795 236.318 328.723 236.318ZM346.532 246.902L342.538 234.696H344.959L346.981 241.036C347.256 241.935 347.505 242.858 347.73 243.932C347.93 242.858 348.254 241.835 348.529 241.036L350.576 234.696H352.972L354.994 241.036C355.194 241.635 355.593 243.058 355.793 243.932C355.993 242.958 356.217 242.11 356.567 241.036L358.614 234.696H361.06L356.891 246.902H354.669L352.548 240.362C352.148 239.139 351.899 238.19 351.774 237.516C351.649 238.116 351.424 238.914 350.975 240.387L348.853 246.902H346.532ZM366.08 247.202C363.459 247.202 361.912 245.729 361.912 243.507C361.912 241.261 363.584 239.863 366.455 239.638L370.299 239.339V238.989C370.299 236.942 369.076 236.218 367.428 236.218C365.456 236.218 364.333 237.092 364.333 238.565H362.286C362.286 236.019 364.383 234.346 367.528 234.346C370.549 234.346 372.596 235.944 372.596 239.239V246.902H370.599L370.349 244.93C369.725 246.328 368.052 247.202 366.08 247.202ZM366.754 245.38C368.976 245.38 370.324 243.932 370.324 241.635V240.986L367.204 241.236C365.132 241.436 364.283 242.234 364.283 243.433C364.283 244.731 365.232 245.38 366.754 245.38ZM374.847 243.358H377.093C377.093 244.606 378.042 245.355 379.59 245.355C381.237 245.355 382.186 244.681 382.186 243.557C382.186 242.734 381.786 242.234 380.513 241.91L378.366 241.411C376.195 240.886 375.171 239.813 375.171 238.016C375.171 235.769 377.068 234.346 379.764 234.346C382.435 234.346 384.183 235.844 384.233 238.165H381.986C381.936 236.942 381.112 236.168 379.689 236.168C378.217 236.168 377.393 236.817 377.393 237.941C377.393 238.765 377.992 239.314 379.19 239.613L381.337 240.137C383.409 240.637 384.432 241.585 384.432 243.408C384.432 245.729 382.435 247.202 379.54 247.202C376.669 247.202 374.847 245.679 374.847 243.358ZM396.207 246.877H393.86V228.53H396.207V236.568C396.981 235.245 398.453 234.346 400.35 234.346C403.471 234.346 404.969 236.318 404.969 239.439V246.902H402.622V239.963C402.622 237.491 401.449 236.493 399.701 236.493C397.43 236.493 396.207 238.14 396.207 240.237V246.877ZM407.42 240.787C407.42 237.017 410.116 234.371 413.785 234.371C417.43 234.371 420.126 237.017 420.126 240.787C420.126 244.556 417.43 247.202 413.785 247.202C410.116 247.202 407.42 244.556 407.42 240.787ZM409.791 240.787C409.791 243.333 411.414 245.105 413.785 245.105C416.132 245.105 417.779 243.333 417.779 240.787C417.779 238.24 416.132 236.468 413.785 236.468C411.414 236.468 409.791 238.24 409.791 240.787ZM422.723 252.369V234.696H424.845L425.02 236.892C425.844 235.22 427.491 234.346 429.438 234.346C432.933 234.346 435.105 236.967 435.105 240.712C435.105 244.431 433.058 247.227 429.438 247.227C427.491 247.227 425.868 246.403 425.07 244.905V252.369H422.723ZM425.095 240.811C425.095 243.308 426.542 245.105 428.939 245.105C431.335 245.105 432.758 243.308 432.758 240.811C432.758 238.29 431.335 236.493 428.939 236.493C426.542 236.493 425.095 238.265 425.095 240.811ZM442.958 247.202C439.363 247.202 436.892 244.606 436.892 240.811C436.892 236.992 439.314 234.346 442.858 234.346C446.328 234.346 448.6 236.743 448.6 240.362V241.236L439.164 241.261C439.339 243.832 440.686 245.255 443.008 245.255C444.83 245.255 446.028 244.506 446.428 243.108H448.625C448.026 245.729 445.979 247.202 442.958 247.202ZM442.858 236.318C440.811 236.318 439.513 237.541 439.214 239.688H446.253C446.253 237.666 444.93 236.318 442.858 236.318ZM461.491 246.902H459.145V236.668H456.748V234.696H459.145V230.876H461.491V234.696H463.887V236.668H461.491V246.902ZM468.34 246.877H465.993V228.53H468.34V236.568C469.114 235.245 470.586 234.346 472.484 234.346C475.604 234.346 477.102 236.318 477.102 239.439V246.902H474.755V239.963C474.755 237.491 473.582 236.493 471.835 236.493C469.563 236.493 468.34 238.14 468.34 240.237V246.877ZM485.619 247.202C482.024 247.202 479.553 244.606 479.553 240.811C479.553 236.992 481.974 234.346 485.519 234.346C488.989 234.346 491.26 236.743 491.26 240.362V241.236L481.824 241.261C481.999 243.832 483.347 245.255 485.669 245.255C487.491 245.255 488.689 244.506 489.089 243.108H491.285C490.686 245.729 488.639 247.202 485.619 247.202ZM485.519 236.318C483.472 236.318 482.174 237.541 481.874 239.688H488.914C488.914 237.666 487.591 236.318 485.519 236.318ZM499.708 243.358H501.955C501.955 244.606 502.904 245.355 504.451 245.355C506.099 245.355 507.047 244.681 507.047 243.557C507.047 242.734 506.648 242.234 505.375 241.91L503.228 241.411C501.056 240.886 500.033 239.813 500.033 238.016C500.033 235.769 501.93 234.346 504.626 234.346C507.297 234.346 509.044 235.844 509.094 238.165H506.848C506.798 236.942 505.974 236.168 504.551 236.168C503.078 236.168 502.255 236.817 502.255 237.941C502.255 238.765 502.854 239.314 504.052 239.613L506.199 240.137C508.271 240.637 509.294 241.585 509.294 243.408C509.294 245.729 507.297 247.202 504.401 247.202C501.531 247.202 499.708 245.679 499.708 243.358ZM511.097 240.787C511.097 237.017 513.793 234.371 517.463 234.371C521.107 234.371 523.803 237.017 523.803 240.787C523.803 244.556 521.107 247.202 517.463 247.202C513.793 247.202 511.097 244.556 511.097 240.787ZM513.469 240.787C513.469 243.333 515.091 245.105 517.463 245.105C519.809 245.105 521.457 243.333 521.457 240.787C521.457 238.24 519.809 236.468 517.463 236.468C515.091 236.468 513.469 238.24 513.469 240.787ZM535.573 246.902H533.227V234.696H535.323L535.548 236.293C536.172 235.145 537.47 234.346 539.193 234.346C541.09 234.346 542.438 235.295 543.062 236.817C543.636 235.295 545.109 234.346 547.006 234.346C549.802 234.346 551.499 236.094 551.499 238.914V246.902H549.203V239.488C549.203 237.566 548.129 236.468 546.482 236.468C544.709 236.468 543.536 237.716 543.536 239.663V246.902H541.215V239.463C541.215 237.541 540.166 236.493 538.519 236.493C536.746 236.493 535.573 237.716 535.573 239.663V246.902ZM563.189 234.696H565.511V246.902H563.414L563.164 245.055C562.465 246.328 560.843 247.202 559.045 247.202C556.2 247.202 554.602 245.28 554.602 242.284V234.696H556.949V241.51C556.949 244.131 558.072 245.13 559.869 245.13C562.016 245.13 563.189 243.757 563.189 241.136V234.696ZM567.673 243.358H569.92C569.92 244.606 570.868 245.355 572.416 245.355C574.063 245.355 575.012 244.681 575.012 243.557C575.012 242.734 574.613 242.234 573.339 241.91L571.193 241.411C569.021 240.886 567.997 239.813 567.997 238.016C567.997 235.769 569.895 234.346 572.591 234.346C575.262 234.346 577.009 235.844 577.059 238.165H574.812C574.762 236.942 573.939 236.168 572.516 236.168C571.043 236.168 570.219 236.817 570.219 237.941C570.219 238.765 570.818 239.314 572.016 239.613L574.163 240.137C576.235 240.637 577.259 241.585 577.259 243.408C577.259 245.729 575.262 247.202 572.366 247.202C569.495 247.202 567.673 245.679 567.673 243.358ZM583.306 246.902H580.959V236.668H578.563V234.696H580.959V230.876H583.306V234.696H585.702V236.668H583.306V246.902ZM596.98 246.877H594.634V228.53H596.98V236.568C597.754 235.245 599.227 234.346 601.124 234.346C604.244 234.346 605.742 236.318 605.742 239.439V246.902H603.395V239.963C603.395 237.491 602.222 236.493 600.475 236.493C598.203 236.493 596.98 238.14 596.98 240.237V246.877ZM612.562 247.202C609.94 247.202 608.393 245.729 608.393 243.507C608.393 241.261 610.065 239.863 612.936 239.638L616.78 239.339V238.989C616.78 236.942 615.557 236.218 613.91 236.218C611.937 236.218 610.814 237.092 610.814 238.565H608.767C608.767 236.019 610.864 234.346 614.009 234.346C617.03 234.346 619.077 235.944 619.077 239.239V246.902H617.08L616.83 244.93C616.206 246.328 614.534 247.202 612.562 247.202ZM613.236 245.38C615.457 245.38 616.805 243.932 616.805 241.635V240.986L613.685 241.236C611.613 241.436 610.764 242.234 610.764 243.433C610.764 244.731 611.713 245.38 613.236 245.38ZM625.259 246.902L620.341 234.696H622.837L625.508 241.51C625.933 242.659 626.282 243.682 626.482 244.431C626.682 243.632 627.081 242.584 627.505 241.51L630.226 234.696H632.673L627.58 246.902H625.259ZM639.246 247.202C635.651 247.202 633.18 244.606 633.18 240.811C633.18 236.992 635.601 234.346 639.146 234.346C642.616 234.346 644.888 236.743 644.888 240.362V241.236L635.452 241.261C635.626 243.832 636.974 245.255 639.296 245.255C641.118 245.255 642.316 244.506 642.716 243.108H644.913C644.313 245.729 642.266 247.202 639.246 247.202ZM639.146 236.318C637.099 236.318 635.801 237.541 635.502 239.688H642.541C642.541 237.666 641.218 236.318 639.146 236.318ZM657.904 247.202C655.283 247.202 653.735 245.729 653.735 243.507C653.735 241.261 655.408 239.863 658.278 239.638L662.122 239.339V238.989C662.122 236.942 660.899 236.218 659.252 236.218C657.28 236.218 656.156 237.092 656.156 238.565H654.109C654.109 236.019 656.206 234.346 659.352 234.346C662.372 234.346 664.419 235.944 664.419 239.239V246.902H662.422L662.172 244.93C661.548 246.328 659.876 247.202 657.904 247.202ZM658.578 245.38C660.799 245.38 662.147 243.932 662.147 241.635V240.986L659.027 241.236C656.955 241.436 656.106 242.234 656.106 243.433C656.106 244.731 657.055 245.38 658.578 245.38ZM666.67 243.358H668.917C668.917 244.606 669.865 245.355 671.413 245.355C673.061 245.355 674.009 244.681 674.009 243.557C674.009 242.734 673.61 242.234 672.337 241.91L670.19 241.411C668.018 240.886 666.995 239.813 666.995 238.016C666.995 235.769 668.892 234.346 671.588 234.346C674.259 234.346 676.006 235.844 676.056 238.165H673.809C673.76 236.942 672.936 236.168 671.513 236.168C670.04 236.168 669.216 236.817 669.216 237.941C669.216 238.765 669.815 239.314 671.014 239.613L673.16 240.137C675.232 240.637 676.256 241.585 676.256 243.408C676.256 245.729 674.259 247.202 671.363 247.202C668.492 247.202 666.67 245.679 666.67 243.358ZM58.5041 277.787C58.5041 274.017 61.2001 271.371 64.8696 271.371C68.5141 271.371 71.2101 274.017 71.2101 277.787C71.2101 281.556 68.5141 284.202 64.8696 284.202C61.2001 284.202 58.5041 281.556 58.5041 277.787ZM60.8756 277.787C60.8756 280.333 62.4981 282.105 64.8696 282.105C67.2161 282.105 68.8636 280.333 68.8636 277.787C68.8636 275.24 67.2161 273.468 64.8696 273.468C62.4981 273.468 60.8756 275.24 60.8756 277.787ZM76.154 283.902H73.8076V271.696H75.9294L76.179 273.568C76.9528 272.17 78.5005 271.346 80.2229 271.346C83.4431 271.346 84.9159 273.318 84.9159 276.439V283.902H82.5694V276.963C82.5694 274.491 81.4211 273.493 79.6238 273.493C77.4271 273.493 76.154 275.066 76.154 277.437V283.902ZM97.6127 283.902L93.6187 271.696H96.0401L98.062 278.036C98.3366 278.935 98.5862 279.858 98.8109 280.932C99.0106 279.858 99.3351 278.835 99.6097 278.036L101.657 271.696H104.053L106.075 278.036C106.275 278.635 106.674 280.058 106.874 280.932C107.074 279.958 107.298 279.11 107.648 278.036L109.695 271.696H112.141L107.972 283.902H105.751L103.629 277.362C103.229 276.139 102.98 275.19 102.855 274.516C102.73 275.116 102.505 275.914 102.056 277.387L99.9342 283.902H97.6127ZM117.161 284.202C114.54 284.202 112.993 282.729 112.993 280.507C112.993 278.261 114.665 276.863 117.536 276.638L121.38 276.339V275.989C121.38 273.942 120.157 273.218 118.509 273.218C116.537 273.218 115.414 274.092 115.414 275.565H113.367C113.367 273.019 115.464 271.346 118.609 271.346C121.63 271.346 123.677 272.944 123.677 276.239V283.902H121.68L121.43 281.93C120.806 283.328 119.133 284.202 117.161 284.202ZM117.835 282.38C120.057 282.38 121.405 280.932 121.405 278.635V277.986L118.285 278.236C116.213 278.436 115.364 279.234 115.364 280.433C115.364 281.731 116.313 282.38 117.835 282.38ZM125.928 280.358H128.174C128.174 281.606 129.123 282.355 130.671 282.355C132.318 282.355 133.267 281.681 133.267 280.557C133.267 279.734 132.867 279.234 131.594 278.91L129.447 278.411C127.276 277.886 126.252 276.813 126.252 275.016C126.252 272.769 128.149 271.346 130.845 271.346C133.516 271.346 135.264 272.844 135.314 275.165H133.067C133.017 273.942 132.193 273.168 130.77 273.168C129.298 273.168 128.474 273.817 128.474 274.941C128.474 275.765 129.073 276.314 130.271 276.613L132.418 277.137C134.49 277.637 135.513 278.585 135.513 280.408C135.513 282.729 133.516 284.202 130.621 284.202C127.75 284.202 125.928 282.679 125.928 280.358ZM147.562 283.902L143.568 271.696H145.99L148.012 278.036C148.286 278.935 148.536 279.858 148.76 280.932C148.96 279.858 149.285 278.835 149.559 278.036L151.606 271.696H154.003L156.025 278.036C156.224 278.635 156.624 280.058 156.823 280.932C157.023 279.958 157.248 279.11 157.597 278.036L159.644 271.696H162.091L157.922 283.902H155.7L153.578 277.362C153.179 276.139 152.929 275.19 152.804 274.516C152.68 275.116 152.455 275.914 152.006 277.387L149.884 283.902H147.562ZM167.111 284.202C164.49 284.202 162.942 282.729 162.942 280.507C162.942 278.261 164.615 276.863 167.485 276.638L171.33 276.339V275.989C171.33 273.942 170.106 273.218 168.459 273.218C166.487 273.218 165.364 274.092 165.364 275.565H163.317C163.317 273.019 165.413 271.346 168.559 271.346C171.579 271.346 173.626 272.944 173.626 276.239V283.902H171.629L171.38 281.93C170.755 283.328 169.083 284.202 167.111 284.202ZM167.785 282.38C170.007 282.38 171.355 280.932 171.355 278.635V277.986L168.234 278.236C166.162 278.436 165.314 279.234 165.314 280.433C165.314 281.731 166.262 282.38 167.785 282.38ZM179.222 283.902H176.876V271.696H178.998L179.247 273.568C180.021 272.17 181.569 271.346 183.291 271.346C186.511 271.346 187.984 273.318 187.984 276.439V283.902H185.638V276.963C185.638 274.491 184.489 273.493 182.692 273.493C180.495 273.493 179.222 275.066 179.222 277.437V283.902ZM194.679 283.902H192.332V273.668H189.936V271.696H192.332V267.876H194.679V271.696H197.075V273.668H194.679V283.902ZM214.444 271.696H216.766V283.902H214.669L214.419 282.055C213.72 283.328 212.098 284.202 210.3 284.202C207.455 284.202 205.857 282.28 205.857 279.284V271.696H208.204V278.51C208.204 281.131 209.327 282.13 211.124 282.13C213.271 282.13 214.444 280.757 214.444 278.136V271.696ZM220.17 289.369V271.696H222.292L222.467 273.892C223.291 272.22 224.938 271.346 226.885 271.346C230.38 271.346 232.552 273.967 232.552 277.712C232.552 281.431 230.505 284.227 226.885 284.227C224.938 284.227 223.316 283.403 222.517 281.905V289.369H220.17ZM222.542 277.811C222.542 280.308 223.99 282.105 226.386 282.105C228.782 282.105 230.205 280.308 230.205 277.811C230.205 275.29 228.782 273.493 226.386 273.493C223.99 273.493 222.542 275.265 222.542 277.811ZM241.165 277.787C241.165 274.017 243.861 271.371 247.53 271.371C251.175 271.371 253.871 274.017 253.871 277.787C253.871 281.556 251.175 284.202 247.53 284.202C243.861 284.202 241.165 281.556 241.165 277.787ZM243.536 277.787C243.536 280.333 245.159 282.105 247.53 282.105C249.877 282.105 251.524 280.333 251.524 277.787C251.524 275.24 249.877 273.468 247.53 273.468C245.159 273.468 243.536 275.24 243.536 277.787ZM255.097 271.696H256.895V269.749C256.895 266.753 258.542 265.53 260.764 265.53C261.213 265.53 261.737 265.555 262.212 265.63V267.652H261.163C259.64 267.652 259.241 268.426 259.241 269.749V271.696H262.137V273.668H259.241V283.902H256.895V273.668H255.097V271.696ZM273.989 265.854V283.902H271.543V265.854H273.989ZM287.246 283.902L283.252 271.696H285.673L287.695 278.036C287.969 278.935 288.219 279.858 288.444 280.932C288.643 279.858 288.968 278.835 289.243 278.036L291.289 271.696H293.686L295.708 278.036C295.908 278.635 296.307 280.058 296.507 280.932C296.706 279.958 296.931 279.11 297.28 278.036L299.327 271.696H301.774L297.605 283.902H295.383L293.262 277.362C292.862 276.139 292.612 275.19 292.488 274.516C292.363 275.116 292.138 275.914 291.689 277.387L289.567 283.902H287.246ZM304.933 268.8C304.085 268.8 303.386 268.101 303.386 267.252C303.386 266.379 304.085 265.705 304.933 265.705C305.782 265.705 306.481 266.379 306.481 267.252C306.481 268.101 305.782 268.8 304.933 268.8ZM303.785 283.902V271.696H306.132V283.902H303.785ZM311.935 283.902H309.588V265.53H311.935V283.902ZM317.785 283.902H315.439V265.53H317.785V283.902ZM335.055 271.596V273.743H334.006C331.785 273.743 330.412 275.091 330.412 277.437V283.902H328.065V271.721H330.262L330.412 273.568C330.911 272.295 332.134 271.446 333.807 271.446C334.231 271.446 334.58 271.496 335.055 271.596ZM338.404 268.8C337.555 268.8 336.856 268.101 336.856 267.252C336.856 266.379 337.555 265.705 338.404 265.705C339.253 265.705 339.952 266.379 339.952 267.252C339.952 268.101 339.253 268.8 338.404 268.8ZM337.256 283.902V271.696H339.602V283.902H337.256ZM346.429 283.902L341.511 271.696H344.007L346.678 278.51C347.103 279.659 347.452 280.682 347.652 281.431C347.851 280.632 348.251 279.584 348.675 278.51L351.396 271.696H353.842L348.75 283.902H346.429ZM358.718 284.202C356.097 284.202 354.55 282.729 354.55 280.507C354.55 278.261 356.222 276.863 359.093 276.638L362.937 276.339V275.989C362.937 273.942 361.714 273.218 360.066 273.218C358.094 273.218 356.971 274.092 356.971 275.565H354.924C354.924 273.019 357.021 271.346 360.166 271.346C363.187 271.346 365.234 272.944 365.234 276.239V283.902H363.237L362.987 281.93C362.363 283.328 360.69 284.202 358.718 284.202ZM359.392 282.38C361.614 282.38 362.962 280.932 362.962 278.635V277.986L359.842 278.236C357.77 278.436 356.921 279.234 356.921 280.433C356.921 281.731 357.87 282.38 359.392 282.38ZM370.88 283.902H368.533V265.53H370.88V283.902ZM380.361 277.811C380.361 273.992 382.782 271.346 386.352 271.346C389.422 271.346 391.569 273.094 391.993 275.814H389.647C389.247 274.267 387.999 273.443 386.427 273.443C384.205 273.443 382.682 275.14 382.682 277.787C382.682 280.408 384.105 282.105 386.327 282.105C387.999 282.105 389.247 281.231 389.672 279.784H392.018C391.544 282.43 389.272 284.202 386.327 284.202C382.732 284.202 380.361 281.656 380.361 277.811ZM398.064 284.202C395.443 284.202 393.895 282.729 393.895 280.507C393.895 278.261 395.567 276.863 398.438 276.638L402.282 276.339V275.989C402.282 273.942 401.059 273.218 399.412 273.218C397.44 273.218 396.316 274.092 396.316 275.565H394.269C394.269 273.019 396.366 271.346 399.511 271.346C402.532 271.346 404.579 272.944 404.579 276.239V283.902H402.582L402.332 281.93C401.708 283.328 400.036 284.202 398.064 284.202ZM398.738 282.38C400.959 282.38 402.307 280.932 402.307 278.635V277.986L399.187 278.236C397.115 278.436 396.266 279.234 396.266 280.433C396.266 281.731 397.215 282.38 398.738 282.38ZM410.175 283.902H407.828V271.696H409.925L410.15 273.293C410.774 272.145 412.072 271.346 413.795 271.346C415.692 271.346 417.04 272.295 417.664 273.817C418.238 272.295 419.711 271.346 421.608 271.346C424.404 271.346 426.101 273.094 426.101 275.914V283.902H423.805V276.488C423.805 274.566 422.731 273.468 421.084 273.468C419.311 273.468 418.138 274.716 418.138 276.663V283.902H415.817V276.463C415.817 274.541 414.768 273.493 413.121 273.493C411.348 273.493 410.175 274.716 410.175 276.663V283.902ZM434.621 284.202C431.026 284.202 428.555 281.606 428.555 277.811C428.555 273.992 430.976 271.346 434.521 271.346C437.991 271.346 440.263 273.743 440.263 277.362V278.236L430.827 278.261C431.001 280.832 432.349 282.255 434.671 282.255C436.493 282.255 437.691 281.506 438.091 280.108H440.287C439.688 282.729 437.641 284.202 434.621 284.202ZM434.521 273.318C432.474 273.318 431.176 274.541 430.877 276.688H437.916C437.916 274.666 436.593 273.318 434.521 273.318ZM453.154 283.902H450.807V273.668H448.411V271.696H450.807V267.876H453.154V271.696H455.55V273.668H453.154V283.902ZM456.735 277.787C456.735 274.017 459.431 271.371 463.101 271.371C466.745 271.371 469.441 274.017 469.441 277.787C469.441 281.556 466.745 284.202 463.101 284.202C459.431 284.202 456.735 281.556 456.735 277.787ZM459.107 277.787C459.107 280.333 460.729 282.105 463.101 282.105C465.447 282.105 467.095 280.333 467.095 277.787C467.095 275.24 465.447 273.468 463.101 273.468C460.729 273.468 459.107 275.24 459.107 277.787ZM478.066 277.811C478.066 273.992 480.487 271.346 484.057 271.346C487.127 271.346 489.274 273.094 489.698 275.814H487.352C486.953 274.267 485.704 273.443 484.132 273.443C481.91 273.443 480.387 275.14 480.387 277.787C480.387 280.408 481.81 282.105 484.032 282.105C485.704 282.105 486.953 281.231 487.377 279.784H489.723C489.249 282.43 486.977 284.202 484.032 284.202C480.437 284.202 478.066 281.656 478.066 277.811ZM495.769 284.202C493.148 284.202 491.6 282.729 491.6 280.507C491.6 278.261 493.273 276.863 496.143 276.638L499.987 276.339V275.989C499.987 273.942 498.764 273.218 497.117 273.218C495.145 273.218 494.021 274.092 494.021 275.565H491.974C491.974 273.019 494.071 271.346 497.217 271.346C500.237 271.346 502.284 272.944 502.284 276.239V283.902H500.287L500.037 281.93C499.413 283.328 497.741 284.202 495.769 284.202ZM496.443 282.38C498.664 282.38 500.012 280.932 500.012 278.635V277.986L496.892 278.236C494.82 278.436 493.971 279.234 493.971 280.433C493.971 281.731 494.92 282.38 496.443 282.38ZM507.93 283.902H505.584V265.53H507.93V283.902ZM510.585 277.811C510.585 273.992 513.007 271.346 516.576 271.346C519.647 271.346 521.794 273.094 522.218 275.814H519.872C519.472 274.267 518.224 273.443 516.651 273.443C514.43 273.443 512.907 275.14 512.907 277.787C512.907 280.408 514.33 282.105 516.552 282.105C518.224 282.105 519.472 281.231 519.896 279.784H522.243C521.769 282.43 519.497 284.202 516.552 284.202C512.957 284.202 510.585 281.656 510.585 277.811ZM533.156 271.696H535.478V283.902H533.381L533.131 282.055C532.432 283.328 530.81 284.202 529.012 284.202C526.167 284.202 524.569 282.28 524.569 279.284V271.696H526.915V278.51C526.915 281.131 528.039 282.13 529.836 282.13C531.983 282.13 533.156 280.757 533.156 278.136V271.696ZM541.279 283.902H538.932V265.53H541.279V283.902ZM548.302 284.202C545.681 284.202 544.134 282.729 544.134 280.507C544.134 278.261 545.806 276.863 548.677 276.638L552.521 276.339V275.989C552.521 273.942 551.298 273.218 549.65 273.218C547.678 273.218 546.555 274.092 546.555 275.565H544.508C544.508 273.019 546.605 271.346 549.75 271.346C552.771 271.346 554.818 272.944 554.818 276.239V283.902H552.821L552.571 281.93C551.947 283.328 550.274 284.202 548.302 284.202ZM548.976 282.38C551.198 282.38 552.546 280.932 552.546 278.635V277.986L549.426 278.236C547.354 278.436 546.505 279.234 546.505 280.433C546.505 281.731 547.454 282.38 548.976 282.38ZM561.317 283.902H558.971V273.668H556.574V271.696H558.971V267.876H561.317V271.696H563.713V273.668H561.317V283.902ZM570.965 284.202C567.37 284.202 564.899 281.606 564.899 277.811C564.899 273.992 567.32 271.346 570.865 271.346C574.334 271.346 576.606 273.743 576.606 277.362V278.236L567.17 278.261C567.345 280.832 568.693 282.255 571.014 282.255C572.837 282.255 574.035 281.506 574.434 280.108H576.631C576.032 282.729 573.985 284.202 570.965 284.202ZM570.865 273.318C568.818 273.318 567.52 274.541 567.22 276.688H574.26C574.26 274.666 572.937 273.318 570.865 273.318ZM585.054 280.358H587.301C587.301 281.606 588.249 282.355 589.797 282.355C591.445 282.355 592.393 281.681 592.393 280.557C592.393 279.734 591.994 279.234 590.721 278.91L588.574 278.411C586.402 277.886 585.379 276.813 585.379 275.016C585.379 272.769 587.276 271.346 589.972 271.346C592.643 271.346 594.39 272.844 594.44 275.165H592.193C592.143 273.942 591.32 273.168 589.897 273.168C588.424 273.168 587.6 273.817 587.6 274.941C587.6 275.765 588.199 276.314 589.398 276.613L591.544 277.137C593.616 277.637 594.64 278.585 594.64 280.408C594.64 282.729 592.643 284.202 589.747 284.202C586.876 284.202 585.054 282.679 585.054 280.358ZM605.679 271.696H608.001V283.902H605.904L605.654 282.055C604.955 283.328 603.333 284.202 601.536 284.202C598.69 284.202 597.092 282.28 597.092 279.284V271.696H599.439V278.51C599.439 281.131 600.562 282.13 602.359 282.13C604.506 282.13 605.679 280.757 605.679 278.136V271.696ZM613.527 283.902H611.405V265.53H613.752V273.792C614.551 272.195 616.198 271.346 618.195 271.346C621.69 271.346 623.787 274.092 623.787 277.861C623.787 281.556 621.59 284.202 618.045 284.202C616.123 284.202 614.501 283.353 613.702 281.681L613.527 283.902ZM613.777 277.762C613.777 280.308 615.225 282.08 617.621 282.08C620.017 282.08 621.44 280.283 621.44 277.762C621.44 275.265 620.017 273.468 617.621 273.468C615.225 273.468 613.777 275.265 613.777 277.762ZM625.375 280.358H627.621C627.621 281.606 628.57 282.355 630.117 282.355C631.765 282.355 632.714 281.681 632.714 280.557C632.714 279.734 632.314 279.234 631.041 278.91L628.894 278.411C626.723 277.886 625.699 276.813 625.699 275.016C625.699 272.769 627.596 271.346 630.292 271.346C632.963 271.346 634.711 272.844 634.76 275.165H632.514C632.464 273.942 631.64 273.168 630.217 273.168C628.745 273.168 627.921 273.817 627.921 274.941C627.921 275.765 628.52 276.314 629.718 276.613L631.865 277.137C633.937 277.637 634.96 278.585 634.96 280.408C634.96 282.729 632.963 284.202 630.068 284.202C627.197 284.202 625.375 282.679 625.375 280.358ZM642.829 284.202C639.235 284.202 636.764 281.606 636.764 277.811C636.764 273.992 639.185 271.346 642.73 271.346C646.199 271.346 648.471 273.743 648.471 277.362V278.236L639.035 278.261C639.21 280.832 640.558 282.255 642.879 282.255C644.702 282.255 645.9 281.506 646.299 280.108H648.496C647.897 282.729 645.85 284.202 642.829 284.202ZM642.73 273.318C640.683 273.318 639.385 274.541 639.085 276.688H646.125C646.125 274.666 644.802 273.318 642.73 273.318ZM654.415 283.902H652.068V273.668H649.672V271.696H652.068V267.876H654.415V271.696H656.811V273.668H654.415V283.902ZM62.8726 321.202C60.2515 321.202 58.7038 319.729 58.7038 317.507C58.7038 315.261 60.3763 313.863 63.247 313.638L67.0913 313.339V312.989C67.0913 310.942 65.8681 310.218 64.2206 310.218C62.2485 310.218 61.1252 311.092 61.1252 312.565H59.0783C59.0783 310.019 61.1751 308.346 64.3204 308.346C67.3409 308.346 69.3878 309.944 69.3878 313.239V320.902H67.3908L67.1412 318.93C66.5171 320.328 64.8446 321.202 62.8726 321.202ZM63.5466 319.38C65.7682 319.38 67.1162 317.932 67.1162 315.635V314.986L63.9959 315.236C61.924 315.436 61.0753 316.234 61.0753 317.433C61.0753 318.731 62.0238 319.38 63.5466 319.38ZM79.627 308.596V310.743H78.5785C76.3569 310.743 74.9839 312.091 74.9839 314.437V320.902H72.6374V308.721H74.8341L74.9839 310.568C75.4832 309.295 76.7063 308.446 78.3788 308.446C78.8032 308.446 79.1527 308.496 79.627 308.596ZM85.7602 320.902H83.4137V310.668H81.0173V308.696H83.4137V304.876H85.7602V308.696H88.1566V310.668H85.7602V320.902ZM91.4107 305.8C90.5619 305.8 89.863 305.101 89.863 304.252C89.863 303.379 90.5619 302.705 91.4107 302.705C92.2594 302.705 92.9584 303.379 92.9584 304.252C92.9584 305.101 92.2594 305.8 91.4107 305.8ZM90.2624 320.902V308.696H92.6089V320.902H90.2624ZM104.278 320.902V310.668H98.8612V320.902H96.5147V310.668H94.7174V308.696H96.5147V306.749C96.5147 303.753 98.1373 302.53 100.259 302.53C100.708 302.53 101.258 302.555 101.707 302.63V304.652H100.659C99.2357 304.652 98.8612 305.426 98.8612 306.749V308.696H106.625V320.902H104.278ZM105.451 305.7C104.603 305.7 103.954 305.051 103.954 304.202C103.954 303.354 104.603 302.705 105.451 302.705C106.275 302.705 106.924 303.354 106.924 304.202C106.924 305.051 106.275 305.7 105.451 305.7ZM109.161 314.811C109.161 310.992 111.582 308.346 115.152 308.346C118.222 308.346 120.369 310.094 120.793 312.814H118.447C118.047 311.267 116.799 310.443 115.227 310.443C113.005 310.443 111.482 312.14 111.482 314.787C111.482 317.408 112.905 319.105 115.127 319.105C116.799 319.105 118.047 318.231 118.472 316.784H120.818C120.344 319.43 118.072 321.202 115.127 321.202C111.532 321.202 109.161 318.656 109.161 314.811ZM124.442 305.8C123.593 305.8 122.895 305.101 122.895 304.252C122.895 303.379 123.593 302.705 124.442 302.705C125.291 302.705 125.99 303.379 125.99 304.252C125.99 305.101 125.291 305.8 124.442 305.8ZM123.294 320.902V308.696H125.64V320.902H123.294ZM132.617 321.202C129.996 321.202 128.448 319.729 128.448 317.507C128.448 315.261 130.12 313.863 132.991 313.638L136.835 313.339V312.989C136.835 310.942 135.612 310.218 133.965 310.218C131.993 310.218 130.869 311.092 130.869 312.565H128.822C128.822 310.019 130.919 308.346 134.065 308.346C137.085 308.346 139.132 309.944 139.132 313.239V320.902H137.135L136.885 318.93C136.261 320.328 134.589 321.202 132.617 321.202ZM133.291 319.38C135.512 319.38 136.86 317.932 136.86 315.635V314.986L133.74 315.236C131.668 315.436 130.819 316.234 130.819 317.433C130.819 318.731 131.768 319.38 133.291 319.38ZM144.778 320.902H142.431V302.53H144.778V320.902ZM156.206 305.8C155.357 305.8 154.658 305.101 154.658 304.252C154.658 303.379 155.357 302.705 156.206 302.705C157.055 302.705 157.754 303.379 157.754 304.252C157.754 305.101 157.055 305.8 156.206 305.8ZM155.058 320.902V308.696H157.404V320.902H155.058ZM163.157 320.902H160.811V308.696H162.933L163.182 310.568C163.956 309.17 165.504 308.346 167.226 308.346C170.447 308.346 171.919 310.318 171.919 313.439V320.902H169.573V313.963C169.573 311.491 168.425 310.493 166.627 310.493C164.431 310.493 163.157 312.066 163.157 314.437V320.902ZM178.614 320.902H176.268V310.668H173.871V308.696H176.268V304.876H178.614V308.696H181.011V310.668H178.614V320.902ZM188.262 321.202C184.667 321.202 182.196 318.606 182.196 314.811C182.196 310.992 184.617 308.346 188.162 308.346C191.632 308.346 193.903 310.743 193.903 314.362V315.236L184.467 315.261C184.642 317.832 185.99 319.255 188.312 319.255C190.134 319.255 191.332 318.506 191.731 317.108H193.928C193.329 319.729 191.282 321.202 188.262 321.202ZM188.162 310.318C186.115 310.318 184.817 311.541 184.517 313.688H191.557C191.557 311.666 190.234 310.318 188.162 310.318ZM198.92 320.902H196.574V302.53H198.92V320.902ZM204.771 320.902H202.425V302.53H204.771V320.902ZM209.374 305.8C208.525 305.8 207.826 305.101 207.826 304.252C207.826 303.379 208.525 302.705 209.374 302.705C210.222 302.705 210.921 303.379 210.921 304.252C210.921 305.101 210.222 305.8 209.374 305.8ZM208.225 320.902V308.696H210.572V320.902H208.225ZM213.205 314.487C213.205 311.042 215.426 308.346 218.971 308.346C220.943 308.346 222.466 309.245 223.239 310.768L223.414 308.696H225.511V320.403C225.511 324.247 223.14 326.694 219.395 326.694C216.075 326.694 213.804 324.821 213.354 321.726H215.701C216 323.523 217.348 324.572 219.395 324.572C221.692 324.572 223.19 323.074 223.19 320.753V318.306C222.391 319.729 220.793 320.578 218.871 320.578C215.401 320.578 213.205 317.907 213.205 314.487ZM215.551 314.437C215.551 316.734 216.974 318.531 219.27 318.531C221.642 318.531 223.09 316.833 223.09 314.437C223.09 312.091 221.692 310.393 219.295 310.393C216.949 310.393 215.551 312.19 215.551 314.437ZM234.165 321.202C230.57 321.202 228.099 318.606 228.099 314.811C228.099 310.992 230.52 308.346 234.065 308.346C237.534 308.346 239.806 310.743 239.806 314.362V315.236L230.37 315.261C230.545 317.832 231.893 319.255 234.214 319.255C236.037 319.255 237.235 318.506 237.634 317.108H239.831C239.232 319.729 237.185 321.202 234.165 321.202ZM234.065 310.318C232.018 310.318 230.72 311.541 230.42 313.688H237.46C237.46 311.666 236.137 310.318 234.065 310.318ZM244.773 320.902H242.427V308.696H244.549L244.798 310.568C245.572 309.17 247.12 308.346 248.842 308.346C252.063 308.346 253.535 310.318 253.535 313.439V320.902H251.189V313.963C251.189 311.491 250.041 310.493 248.243 310.493C246.047 310.493 244.773 312.066 244.773 314.437V320.902ZM255.987 314.811C255.987 310.992 258.408 308.346 261.978 308.346C265.048 308.346 267.195 310.094 267.619 312.814H265.273C264.873 311.267 263.625 310.443 262.052 310.443C259.831 310.443 258.308 312.14 258.308 314.787C258.308 317.408 259.731 319.105 261.953 319.105C263.625 319.105 264.873 318.231 265.298 316.784H267.644C267.17 319.43 264.898 321.202 261.953 321.202C258.358 321.202 255.987 318.656 255.987 314.811ZM275.387 321.202C271.792 321.202 269.321 318.606 269.321 314.811C269.321 310.992 271.742 308.346 275.287 308.346C278.757 308.346 281.028 310.743 281.028 314.362V315.236L271.593 315.261C271.767 317.832 273.115 319.255 275.437 319.255C277.259 319.255 278.457 318.506 278.857 317.108H281.053C280.454 319.729 278.407 321.202 275.387 321.202ZM275.287 310.318C273.24 310.318 271.942 311.541 271.643 313.688H278.682C278.682 311.666 277.359 310.318 275.287 310.318ZM289.477 317.358H291.723C291.723 318.606 292.672 319.355 294.219 319.355C295.867 319.355 296.816 318.681 296.816 317.557C296.816 316.734 296.416 316.234 295.143 315.91L292.996 315.411C290.825 314.886 289.801 313.813 289.801 312.016C289.801 309.769 291.698 308.346 294.394 308.346C297.065 308.346 298.813 309.844 298.862 312.165H296.616C296.566 310.942 295.742 310.168 294.319 310.168C292.847 310.168 292.023 310.817 292.023 311.941C292.023 312.765 292.622 313.314 293.82 313.613L295.967 314.137C298.039 314.637 299.062 315.585 299.062 317.408C299.062 319.729 297.065 321.202 294.17 321.202C291.299 321.202 289.477 319.679 289.477 317.358ZM300.247 326.369V324.447H301.82C302.943 324.447 303.842 324.272 304.416 322.725L304.84 321.551L299.923 308.696H302.394L305.939 318.531L309.558 308.696H311.98L306.213 323.648C305.39 325.745 304.166 326.619 302.294 326.619C301.52 326.619 300.871 326.519 300.247 326.369ZM312.684 317.358H314.931C314.931 318.606 315.879 319.355 317.427 319.355C319.074 319.355 320.023 318.681 320.023 317.557C320.023 316.734 319.624 316.234 318.35 315.91L316.204 315.411C314.032 314.886 313.008 313.813 313.008 312.016C313.008 309.769 314.906 308.346 317.602 308.346C320.273 308.346 322.02 309.844 322.07 312.165H319.823C319.773 310.942 318.95 310.168 317.527 310.168C316.054 310.168 315.23 310.817 315.23 311.941C315.23 312.765 315.829 313.314 317.027 313.613L319.174 314.137C321.246 314.637 322.27 315.585 322.27 317.408C322.27 319.729 320.273 321.202 317.377 321.202C314.506 321.202 312.684 319.679 312.684 317.358ZM328.317 320.902H325.97V310.668H323.574V308.696H325.97V304.876H328.317V308.696H330.713V310.668H328.317V320.902ZM337.964 321.202C334.369 321.202 331.898 318.606 331.898 314.811C331.898 310.992 334.32 308.346 337.864 308.346C341.334 308.346 343.606 310.743 343.606 314.362V315.236L334.17 315.261C334.344 317.832 335.692 319.255 338.014 319.255C339.836 319.255 341.034 318.506 341.434 317.108H343.631C343.031 319.729 340.985 321.202 337.964 321.202ZM337.864 310.318C335.817 310.318 334.519 311.541 334.22 313.688H341.259C341.259 311.666 339.936 310.318 337.864 310.318ZM348.573 320.902H346.226V308.696H348.323L348.548 310.293C349.172 309.145 350.47 308.346 352.193 308.346C354.09 308.346 355.438 309.295 356.062 310.817C356.636 309.295 358.109 308.346 360.006 308.346C362.802 308.346 364.499 310.094 364.499 312.914V320.902H362.203V313.488C362.203 311.566 361.129 310.468 359.482 310.468C357.709 310.468 356.536 311.716 356.536 313.663V320.902H354.215V313.463C354.215 311.541 353.166 310.493 351.519 310.493C349.746 310.493 348.573 311.716 348.573 313.663V320.902ZM366.607 317.358H368.854C368.854 318.606 369.802 319.355 371.35 319.355C372.997 319.355 373.946 318.681 373.946 317.557C373.946 316.734 373.547 316.234 372.274 315.91L370.127 315.411C367.955 314.886 366.932 313.813 366.932 312.016C366.932 309.769 368.829 308.346 371.525 308.346C374.196 308.346 375.943 309.844 375.993 312.165H373.746C373.696 310.942 372.873 310.168 371.45 310.168C369.977 310.168 369.153 310.817 369.153 311.941C369.153 312.765 369.752 313.314 370.951 313.613L373.097 314.137C375.169 314.637 376.193 315.585 376.193 317.408C376.193 319.729 374.196 321.202 371.3 321.202C368.429 321.202 366.607 319.679 366.607 317.358ZM384.323 308.696H386.12V306.749C386.12 303.753 387.767 302.53 389.989 302.53C390.438 302.53 390.963 302.555 391.437 302.63V304.652H390.388C388.866 304.652 388.466 305.426 388.466 306.749V308.696H391.362V310.668H388.466V320.902H386.12V310.668H384.323V308.696ZM400.533 308.596V310.743H399.484C397.263 310.743 395.89 312.091 395.89 314.437V320.902H393.543V308.721H395.74L395.89 310.568C396.389 309.295 397.612 308.446 399.285 308.446C399.709 308.446 400.059 308.496 400.533 308.596ZM401.496 314.787C401.496 311.017 404.192 308.371 407.861 308.371C411.506 308.371 414.202 311.017 414.202 314.787C414.202 318.556 411.506 321.202 407.861 321.202C404.192 321.202 401.496 318.556 401.496 314.787ZM403.867 314.787C403.867 317.333 405.49 319.105 407.861 319.105C410.208 319.105 411.855 317.333 411.855 314.787C411.855 312.24 410.208 310.468 407.861 310.468C405.49 310.468 403.867 312.24 403.867 314.787ZM419.146 320.902H416.799V308.696H418.896L419.121 310.293C419.745 309.145 421.043 308.346 422.766 308.346C424.663 308.346 426.011 309.295 426.635 310.817C427.209 309.295 428.682 308.346 430.579 308.346C433.375 308.346 435.072 310.094 435.072 312.914V320.902H432.776V313.488C432.776 311.566 431.702 310.468 430.055 310.468C428.282 310.468 427.109 311.716 427.109 313.663V320.902H424.787V313.463C424.787 311.541 423.739 310.493 422.092 310.493C420.319 310.493 419.146 311.716 419.146 313.663V320.902ZM450.043 321.202C446.498 321.202 444.352 318.556 444.352 314.836C444.352 311.092 446.523 308.346 450.143 308.346C452.015 308.346 453.588 309.17 454.412 310.668V302.53H456.733V320.902H454.636L454.437 318.681C453.638 320.353 451.99 321.202 450.043 321.202ZM450.517 319.08C452.914 319.08 454.387 317.308 454.387 314.762C454.387 312.265 452.914 310.468 450.517 310.468C448.121 310.468 446.723 312.265 446.723 314.762C446.723 317.283 448.121 319.08 450.517 319.08ZM463.688 321.202C461.067 321.202 459.519 319.729 459.519 317.507C459.519 315.261 461.192 313.863 464.062 313.638L467.907 313.339V312.989C467.907 310.942 466.683 310.218 465.036 310.218C463.064 310.218 461.941 311.092 461.941 312.565H459.894C459.894 310.019 461.991 308.346 465.136 308.346C468.156 308.346 470.203 309.944 470.203 313.239V320.902H468.206L467.957 318.93C467.333 320.328 465.66 321.202 463.688 321.202ZM464.362 319.38C466.584 319.38 467.932 317.932 467.932 315.635V314.986L464.811 315.236C462.739 315.436 461.891 316.234 461.891 317.433C461.891 318.731 462.839 319.38 464.362 319.38ZM476.703 320.902H474.356V310.668H471.96V308.696H474.356V304.876H476.703V308.696H479.099V310.668H476.703V320.902ZM484.628 321.202C482.007 321.202 480.459 319.729 480.459 317.507C480.459 315.261 482.132 313.863 485.003 313.638L488.847 313.339V312.989C488.847 310.942 487.624 310.218 485.976 310.218C484.004 310.218 482.881 311.092 482.881 312.565H480.834C480.834 310.019 482.931 308.346 486.076 308.346C489.097 308.346 491.143 309.944 491.143 313.239V320.902H489.146L488.897 318.93C488.273 320.328 486.6 321.202 484.628 321.202ZM485.302 319.38C487.524 319.38 488.872 317.932 488.872 315.635V314.986L485.752 315.236C483.68 315.436 482.831 316.234 482.831 317.433C482.831 318.731 483.78 319.38 485.302 319.38ZM496.141 321.202C495.167 321.202 494.343 320.403 494.343 319.455C494.343 318.481 495.167 317.682 496.141 317.682C497.089 317.682 497.913 318.481 497.913 319.455C497.913 320.403 497.089 321.202 496.141 321.202Z" fill="black" fill-opacity="0.5"/>
<path d="M58.0087 89.6986H88.2519V96.4961L72.9863 131.809H65.3247L80.8783 96.4961H58.0087V89.6986ZM104.865 132.5C96.0512 132.5 90.233 126.854 90.233 118.329H97.5489C97.5489 123.11 100.372 125.933 105.038 125.933C109.992 125.933 113.16 122.707 113.16 117.58C113.16 112.683 110.222 109.342 105.153 109.342C101.927 109.342 98.9891 110.955 97.4913 113.144L90.9818 111.762L96.1664 89.6986H118.114V96.4961H101.466L99.2195 105.252C101.236 103.927 103.77 103.178 106.651 103.178C115.061 103.178 120.649 108.881 120.649 117.177C120.649 126.278 114.255 132.5 104.865 132.5ZM146.376 99.9525C146.376 106.462 141.768 111.013 135.374 111.013C128.979 111.013 124.371 106.462 124.371 99.9525C124.371 93.5006 128.979 88.8921 135.374 88.8921C141.768 88.8921 146.376 93.5006 146.376 99.9525ZM169.476 89.7562L137.505 131.809H130.477L162.448 89.7562H169.476ZM140.789 99.9525C140.789 96.6113 138.599 94.3071 135.374 94.3071C132.148 94.3071 130.016 96.6113 130.016 99.9525C130.016 103.294 132.205 105.598 135.374 105.598C138.599 105.598 140.789 103.294 140.789 99.9525ZM175.64 121.497C175.64 127.949 171.089 132.557 164.695 132.557C158.243 132.557 153.692 127.949 153.692 121.497C153.692 115.045 158.243 110.437 164.695 110.437C171.089 110.437 175.64 115.045 175.64 121.497ZM170.052 121.497C170.052 118.156 167.863 115.852 164.695 115.852C161.469 115.852 159.28 118.156 159.28 121.497C159.28 124.838 161.469 127.143 164.695 127.143C167.863 127.143 170.052 124.838 170.052 121.497Z" fill="#BE8DF7"/>
<rect x="57.6055" y="170.898" width="654.788" height="28.803" fill="#E5E5E5"/>
<rect x="57.6055" y="170.898" width="490.635" height="28.803" fill="#BE8DF7"/>
</svg>
