<svg width="520" height="288" viewBox="0 0 520 288" fill="none" xmlns="http://www.w3.org/2000/svg">
<path d="M0.0296829 223.522C33.6522 230.019 118.729 225.208 190.054 153.992C279.211 64.972 297.158 48.7043 364.757 48.7048C438 48.7052 449.874 110.152 522.335 96.7785" stroke="#C8BCF4"/>
<path d="M0.0296829 233.522C33.6522 240.019 118.729 235.208 190.054 163.992C279.211 74.972 297.158 58.7043 364.757 58.7048C438 58.7052 449.874 120.152 522.335 106.778" stroke="#C8BCF4"/>
<path d="M0.0296829 245.522C33.6522 252.019 118.729 247.208 190.054 175.992C279.211 86.972 297.158 70.7043 364.757 70.7048C438 70.7052 449.874 132.152 522.335 118.778" stroke="#C8BCF4"/>
<path d="M0.0296829 258.522C33.6522 265.019 118.729 260.208 190.054 188.992C279.211 99.972 297.158 83.7043 364.757 83.7048C438 83.7052 449.874 145.152 522.335 131.778" stroke="#C8BCF4"/>
</svg>
