<svg width="1024" height="768" viewBox="0 0 1024 768" fill="none" xmlns="http://www.w3.org/2000/svg">
<mask id="path-1-inside-1_1042_6667" fill="white">
<path d="M16 0H512V768H16V0Z"/>
</mask>
<path d="M15.5 0V4H16.5V0H15.5ZM15.5 12V20H16.5V12H15.5ZM15.5 28V36H16.5V28H15.5ZM15.5 44V52H16.5V44H15.5ZM15.5 60V68H16.5V60H15.5ZM15.5 76V84H16.5V76H15.5ZM15.5 92V100H16.5V92H15.5ZM15.5 108V116H16.5V108H15.5ZM15.5 124V132H16.5V124H15.5ZM15.5 140V148H16.5V140H15.5ZM15.5 156V164H16.5V156H15.5ZM15.5 172V180H16.5V172H15.5ZM15.5 188V196H16.5V188H15.5ZM15.5 204V212H16.5V204H15.5ZM15.5 220V228H16.5V220H15.5ZM15.5 236V244H16.5V236H15.5ZM15.5 252V260H16.5V252H15.5ZM15.5 268V276H16.5V268H15.5ZM15.5 284V292H16.5V284H15.5ZM15.5 300V308H16.5V300H15.5ZM15.5 316V324H16.5V316H15.5ZM15.5 332V340H16.5V332H15.5ZM15.5 348V356H16.5V348H15.5ZM15.5 364V372H16.5V364H15.5ZM15.5 380V388H16.5V380H15.5ZM15.5 396V404H16.5V396H15.5ZM15.5 412V420H16.5V412H15.5ZM15.5 428V436H16.5V428H15.5ZM15.5 444V452H16.5V444H15.5ZM15.5 460V468H16.5V460H15.5ZM15.5 476V484H16.5V476H15.5ZM15.5 492V500H16.5V492H15.5ZM15.5 508V516H16.5V508H15.5ZM15.5 524V532H16.5V524H15.5ZM15.5 540V548H16.5V540H15.5ZM15.5 556V564H16.5V556H15.5ZM15.5 572V580H16.5V572H15.5ZM15.5 588V596H16.5V588H15.5ZM15.5 604V612H16.5V604H15.5ZM15.5 620V628H16.5V620H15.5ZM15.5 636V644H16.5V636H15.5ZM15.5 652V660H16.5V652H15.5ZM15.5 668V676H16.5V668H15.5ZM15.5 684V692H16.5V684H15.5ZM15.5 700V708H16.5V700H15.5ZM15.5 716V724H16.5V716H15.5ZM15.5 732V740H16.5V732H15.5ZM15.5 748V756H16.5V748H15.5ZM15.5 764V768H16.5V764H15.5ZM512.5 768V764H511.5V768H512.5ZM512.5 756V748H511.5V756H512.5ZM512.5 740V732H511.5V740H512.5ZM512.5 724V716H511.5V724H512.5ZM512.5 708V700H511.5V708H512.5ZM512.5 692V684H511.5V692H512.5ZM512.5 676V668H511.5V676H512.5ZM512.5 660V652H511.5V660H512.5ZM512.5 644V636H511.5V644H512.5ZM512.5 628V620H511.5V628H512.5ZM512.5 612V604H511.5V612H512.5ZM512.5 596V588H511.5V596H512.5ZM512.5 580V572H511.5V580H512.5ZM512.5 564V556H511.5V564H512.5ZM512.5 548V540H511.5V548H512.5ZM512.5 532V524H511.5V532H512.5ZM512.5 516V508H511.5V516H512.5ZM512.5 500V492H511.5V500H512.5ZM512.5 484V476H511.5V484H512.5ZM512.5 468V460H511.5V468H512.5ZM512.5 452V444H511.5V452H512.5ZM512.5 436V428H511.5V436H512.5ZM512.5 420V412H511.5V420H512.5ZM512.5 404V396H511.5V404H512.5ZM512.5 388V380H511.5V388H512.5ZM512.5 372V364H511.5V372H512.5ZM512.5 356V348H511.5V356H512.5ZM512.5 340V332H511.5V340H512.5ZM512.5 324V316H511.5V324H512.5ZM512.5 308V300H511.5V308H512.5ZM512.5 292V284H511.5V292H512.5ZM512.5 276V268H511.5V276H512.5ZM512.5 260V252H511.5V260H512.5ZM512.5 244V236H511.5V244H512.5ZM512.5 228V220H511.5V228H512.5ZM512.5 212V204H511.5V212H512.5ZM512.5 196V188H511.5V196H512.5ZM512.5 180V172H511.5V180H512.5ZM512.5 164V156H511.5V164H512.5ZM512.5 148V140H511.5V148H512.5ZM512.5 132V124H511.5V132H512.5ZM512.5 116V108H511.5V116H512.5ZM512.5 100V92H511.5V100H512.5ZM512.5 84V76H511.5V84H512.5ZM512.5 68V60H511.5V68H512.5ZM512.5 52V44H511.5V52H512.5ZM512.5 36V28H511.5V36H512.5ZM512.5 20V12H511.5V20H512.5ZM512.5 3.99998V0H511.5V3.99998H512.5ZM15 0V4H17V0H15ZM15 12V20H17V12H15ZM15 28V36H17V28H15ZM15 44V52H17V44H15ZM15 60V68H17V60H15ZM15 76V84H17V76H15ZM15 92V100H17V92H15ZM15 108V116H17V108H15ZM15 124V132H17V124H15ZM15 140V148H17V140H15ZM15 156V164H17V156H15ZM15 172V180H17V172H15ZM15 188V196H17V188H15ZM15 204V212H17V204H15ZM15 220V228H17V220H15ZM15 236V244H17V236H15ZM15 252V260H17V252H15ZM15 268V276H17V268H15ZM15 284V292H17V284H15ZM15 300V308H17V300H15ZM15 316V324H17V316H15ZM15 332V340H17V332H15ZM15 348V356H17V348H15ZM15 364V372H17V364H15ZM15 380V388H17V380H15ZM15 396V404H17V396H15ZM15 412V420H17V412H15ZM15 428V436H17V428H15ZM15 444V452H17V444H15ZM15 460V468H17V460H15ZM15 476V484H17V476H15ZM15 492V500H17V492H15ZM15 508V516H17V508H15ZM15 524V532H17V524H15ZM15 540V548H17V540H15ZM15 556V564H17V556H15ZM15 572V580H17V572H15ZM15 588V596H17V588H15ZM15 604V612H17V604H15ZM15 620V628H17V620H15ZM15 636V644H17V636H15ZM15 652V660H17V652H15ZM15 668V676H17V668H15ZM15 684V692H17V684H15ZM15 700V708H17V700H15ZM15 716V724H17V716H15ZM15 732V740H17V732H15ZM15 748V756H17V748H15ZM15 764V768H17V764H15ZM513 768V764H511V768H513ZM513 756V748H511V756H513ZM513 740V732H511V740H513ZM513 724V716H511V724H513ZM513 708V700H511V708H513ZM513 692V684H511V692H513ZM513 676V668H511V676H513ZM513 660V652H511V660H513ZM513 644V636H511V644H513ZM513 628V620H511V628H513ZM513 612V604H511V612H513ZM513 596V588H511V596H513ZM513 580V572H511V580H513ZM513 564V556H511V564H513ZM513 548V540H511V548H513ZM513 532V524H511V532H513ZM513 516V508H511V516H513ZM513 500V492H511V500H513ZM513 484V476H511V484H513ZM513 468V460H511V468H513ZM513 452V444H511V452H513ZM513 436V428H511V436H513ZM513 420V412H511V420H513ZM513 404V396H511V404H513ZM513 388V380H511V388H513ZM513 372V364H511V372H513ZM513 356V348H511V356H513ZM513 340V332H511V340H513ZM513 324V316H511V324H513ZM513 308V300H511V308H513ZM513 292V284H511V292H513ZM513 276V268H511V276H513ZM513 260V252H511V260H513ZM513 244V236H511V244H513ZM513 228V220H511V228H513ZM513 212V204H511V212H513ZM513 196V188H511V196H513ZM513 180V172H511V180H513ZM513 164V156H511V164H513ZM513 148V140H511V148H513ZM513 132V124H511V132H513ZM513 116V108H511V116H513ZM513 100V92H511V100H513ZM513 84V76H511V84H513ZM513 68V60H511V68H513ZM513 52V44H511V52H513ZM513 36V28H511V36H513ZM513 20V12H511V20H513ZM513 3.99998V0H511V3.99998H513Z" fill="#425466" fill-opacity="0.11" mask="url(#path-1-inside-1_1042_6667)"/>
<mask id="path-3-inside-2_1042_6667" fill="white">
<path d="M512 0H1008V768H512V0Z"/>
</mask>
<path d="M1008.5 768V764H1007.5V768H1008.5ZM1008.5 756V748H1007.5V756H1008.5ZM1008.5 740V732H1007.5V740H1008.5ZM1008.5 724V716H1007.5V724H1008.5ZM1008.5 708V700H1007.5V708H1008.5ZM1008.5 692V684H1007.5V692H1008.5ZM1008.5 676V668H1007.5V676H1008.5ZM1008.5 660V652H1007.5V660H1008.5ZM1008.5 644V636H1007.5V644H1008.5ZM1008.5 628V620H1007.5V628H1008.5ZM1008.5 612V604H1007.5V612H1008.5ZM1008.5 596V588H1007.5V596H1008.5ZM1008.5 580V572H1007.5V580H1008.5ZM1008.5 564V556H1007.5V564H1008.5ZM1008.5 548V540H1007.5V548H1008.5ZM1008.5 532V524H1007.5V532H1008.5ZM1008.5 516V508H1007.5V516H1008.5ZM1008.5 500V492H1007.5V500H1008.5ZM1008.5 484V476H1007.5V484H1008.5ZM1008.5 468V460H1007.5V468H1008.5ZM1008.5 452V444H1007.5V452H1008.5ZM1008.5 436V428H1007.5V436H1008.5ZM1008.5 420V412H1007.5V420H1008.5ZM1008.5 404V396H1007.5V404H1008.5ZM1008.5 388V380H1007.5V388H1008.5ZM1008.5 372V364H1007.5V372H1008.5ZM1008.5 356V348H1007.5V356H1008.5ZM1008.5 340V332H1007.5V340H1008.5ZM1008.5 324V316H1007.5V324H1008.5ZM1008.5 308V300H1007.5V308H1008.5ZM1008.5 292V284H1007.5V292H1008.5ZM1008.5 276V268H1007.5V276H1008.5ZM1008.5 260V252H1007.5V260H1008.5ZM1008.5 244V236H1007.5V244H1008.5ZM1008.5 228V220H1007.5V228H1008.5ZM1008.5 212V204H1007.5V212H1008.5ZM1008.5 196V188H1007.5V196H1008.5ZM1008.5 180V172H1007.5V180H1008.5ZM1008.5 164V156H1007.5V164H1008.5ZM1008.5 148V140H1007.5V148H1008.5ZM1008.5 132V124H1007.5V132H1008.5ZM1008.5 116V108H1007.5V116H1008.5ZM1008.5 100V92H1007.5V100H1008.5ZM1008.5 84V76H1007.5V84H1008.5ZM1008.5 68V60H1007.5V68H1008.5ZM1008.5 52V44H1007.5V52H1008.5ZM1008.5 36V28H1007.5V36H1008.5ZM1008.5 20V12H1007.5V20H1008.5ZM1008.5 3.99998V0H1007.5V3.99998H1008.5ZM1009 768V764H1007V768H1009ZM1009 756V748H1007V756H1009ZM1009 740V732H1007V740H1009ZM1009 724V716H1007V724H1009ZM1009 708V700H1007V708H1009ZM1009 692V684H1007V692H1009ZM1009 676V668H1007V676H1009ZM1009 660V652H1007V660H1009ZM1009 644V636H1007V644H1009ZM1009 628V620H1007V628H1009ZM1009 612V604H1007V612H1009ZM1009 596V588H1007V596H1009ZM1009 580V572H1007V580H1009ZM1009 564V556H1007V564H1009ZM1009 548V540H1007V548H1009ZM1009 532V524H1007V532H1009ZM1009 516V508H1007V516H1009ZM1009 500V492H1007V500H1009ZM1009 484V476H1007V484H1009ZM1009 468V460H1007V468H1009ZM1009 452V444H1007V452H1009ZM1009 436V428H1007V436H1009ZM1009 420V412H1007V420H1009ZM1009 404V396H1007V404H1009ZM1009 388V380H1007V388H1009ZM1009 372V364H1007V372H1009ZM1009 356V348H1007V356H1009ZM1009 340V332H1007V340H1009ZM1009 324V316H1007V324H1009ZM1009 308V300H1007V308H1009ZM1009 292V284H1007V292H1009ZM1009 276V268H1007V276H1009ZM1009 260V252H1007V260H1009ZM1009 244V236H1007V244H1009ZM1009 228V220H1007V228H1009ZM1009 212V204H1007V212H1009ZM1009 196V188H1007V196H1009ZM1009 180V172H1007V180H1009ZM1009 164V156H1007V164H1009ZM1009 148V140H1007V148H1009ZM1009 132V124H1007V132H1009ZM1009 116V108H1007V116H1009ZM1009 100V92H1007V100H1009ZM1009 84V76H1007V84H1009ZM1009 68V60H1007V68H1009ZM1009 52V44H1007V52H1009ZM1009 36V28H1007V36H1009ZM1009 20V12H1007V20H1009ZM1009 3.99998V0H1007V3.99998H1009Z" fill="#425466" fill-opacity="0.11" mask="url(#path-3-inside-2_1042_6667)"/>
</svg>
