<svg width="360" height="812" viewBox="0 0 360 812" fill="none" xmlns="http://www.w3.org/2000/svg">
<mask id="path-1-inside-1_1049_6764" fill="white">
<path d="M6 0H180V812H6V0Z"/>
</mask>
<path d="M5.5 0V3.98039H6.5V0H5.5ZM5.5 11.9412V19.902H6.5V11.9412H5.5ZM5.5 27.8627V35.8235H6.5V27.8627H5.5ZM5.5 43.7843V51.7451H6.5V43.7843H5.5ZM5.5 59.7059V67.6667H6.5V59.7059H5.5ZM5.5 75.6274V83.5882H6.5V75.6274H5.5ZM5.5 91.549V99.5098H6.5V91.549H5.5ZM5.5 107.471V115.431H6.5V107.471H5.5ZM5.5 123.392V131.353H6.5V123.392H5.5ZM5.5 139.314V147.275H6.5V139.314H5.5ZM5.5 155.235V163.196H6.5V155.235H5.5ZM5.5 171.157V179.118H6.5V171.157H5.5ZM5.5 187.078V195.039H6.5V187.078H5.5ZM5.5 203V210.961H6.5V203H5.5ZM5.5 218.922V226.882H6.5V218.922H5.5ZM5.5 234.843V242.804H6.5V234.843H5.5ZM5.5 250.765V258.725H6.5V250.765H5.5ZM5.5 266.686V274.647H6.5V266.686H5.5ZM5.5 282.608V290.569H6.5V282.608H5.5ZM5.5 298.529V306.49H6.5V298.529H5.5ZM5.5 314.451V322.412H6.5V314.451H5.5ZM5.5 330.373V338.333H6.5V330.373H5.5ZM5.5 346.294V354.255H6.5V346.294H5.5ZM5.5 362.216V370.176H6.5V362.216H5.5ZM5.5 378.137V386.098H6.5V378.137H5.5ZM5.5 394.059V402.02H6.5V394.059H5.5ZM5.5 409.98V417.941H6.5V409.98H5.5ZM5.5 425.902V433.863H6.5V425.902H5.5ZM5.5 441.824V449.784H6.5V441.824H5.5ZM5.5 457.745V465.706H6.5V457.745H5.5ZM5.5 473.667V481.627H6.5V473.667H5.5ZM5.5 489.588V497.549H6.5V489.588H5.5ZM5.5 505.51V513.471H6.5V505.51H5.5ZM5.5 521.431V529.392H6.5V521.431H5.5ZM5.5 537.353V545.314H6.5V537.353H5.5ZM5.5 553.274V561.235H6.5V553.274H5.5ZM5.5 569.196V577.157H6.5V569.196H5.5ZM5.5 585.117V593.078H6.5V585.117H5.5ZM5.5 601.039V609H6.5V601.039H5.5ZM5.5 616.96V624.921H6.5V616.96H5.5ZM5.5 632.882V640.843H6.5V632.882H5.5ZM5.5 648.803V656.764H6.5V648.803H5.5ZM5.5 664.725V672.686H6.5V664.725H5.5ZM5.5 680.646V688.607H6.5V680.646H5.5ZM5.5 696.568V704.529H6.5V696.568H5.5ZM5.5 712.489V720.45H6.5V712.489H5.5ZM5.5 728.411V736.372H6.5V728.411H5.5ZM5.5 744.332V752.293H6.5V744.332H5.5ZM5.5 760.254V768.215H6.5V760.254H5.5ZM5.5 776.175V784.136H6.5V776.175H5.5ZM5.5 792.097V800.058H6.5V792.097H5.5ZM5.5 808.018V812H6.5V808.018H5.5ZM5 0V3.98039H7V0H5ZM5 11.9412V19.902H7V11.9412H5ZM5 27.8627V35.8235H7V27.8627H5ZM5 43.7843V51.7451H7V43.7843H5ZM5 59.7059V67.6667H7V59.7059H5ZM5 75.6274V83.5882H7V75.6274H5ZM5 91.549V99.5098H7V91.549H5ZM5 107.471V115.431H7V107.471H5ZM5 123.392V131.353H7V123.392H5ZM5 139.314V147.275H7V139.314H5ZM5 155.235V163.196H7V155.235H5ZM5 171.157V179.118H7V171.157H5ZM5 187.078V195.039H7V187.078H5ZM5 203V210.961H7V203H5ZM5 218.922V226.882H7V218.922H5ZM5 234.843V242.804H7V234.843H5ZM5 250.765V258.725H7V250.765H5ZM5 266.686V274.647H7V266.686H5ZM5 282.608V290.569H7V282.608H5ZM5 298.529V306.49H7V298.529H5ZM5 314.451V322.412H7V314.451H5ZM5 330.373V338.333H7V330.373H5ZM5 346.294V354.255H7V346.294H5ZM5 362.216V370.176H7V362.216H5ZM5 378.137V386.098H7V378.137H5ZM5 394.059V402.02H7V394.059H5ZM5 409.98V417.941H7V409.98H5ZM5 425.902V433.863H7V425.902H5ZM5 441.824V449.784H7V441.824H5ZM5 457.745V465.706H7V457.745H5ZM5 473.667V481.627H7V473.667H5ZM5 489.588V497.549H7V489.588H5ZM5 505.51V513.471H7V505.51H5ZM5 521.431V529.392H7V521.431H5ZM5 537.353V545.314H7V537.353H5ZM5 553.274V561.235H7V553.274H5ZM5 569.196V577.157H7V569.196H5ZM5 585.117V593.078H7V585.117H5ZM5 601.039V609H7V601.039H5ZM5 616.96V624.921H7V616.96H5ZM5 632.882V640.843H7V632.882H5ZM5 648.803V656.764H7V648.803H5ZM5 664.725V672.686H7V664.725H5ZM5 680.646V688.607H7V680.646H5ZM5 696.568V704.529H7V696.568H5ZM5 712.489V720.45H7V712.489H5ZM5 728.411V736.372H7V728.411H5ZM5 744.332V752.293H7V744.332H5ZM5 760.254V768.215H7V760.254H5ZM5 776.175V784.136H7V776.175H5ZM5 792.097V800.058H7V792.097H5ZM5 808.018V812H7V808.018H5Z" fill="#425466" fill-opacity="0.11" mask="url(#path-1-inside-1_1049_6764)"/>
<mask id="path-3-inside-2_1049_6764" fill="white">
<path d="M180 0H354V812H180V0Z"/>
</mask>
<path d="M354.5 812V808.02H353.5V812H354.5ZM354.5 800.059V792.098H353.5V800.059H354.5ZM354.5 784.137V776.176H353.5V784.137H354.5ZM354.5 768.216V760.255H353.5V768.216H354.5ZM354.5 752.294V744.333H353.5V752.294H354.5ZM354.5 736.373V728.412H353.5V736.373H354.5ZM354.5 720.451V712.49H353.5V720.451H354.5ZM354.5 704.529V696.569H353.5V704.529H354.5ZM354.5 688.608V680.647H353.5V688.608H354.5ZM354.5 672.686V664.726H353.5V672.686H354.5ZM354.5 656.765V648.804H353.5V656.765H354.5ZM354.5 640.843V632.882H353.5V640.843H354.5ZM354.5 624.922V616.961H353.5V624.922H354.5ZM354.5 609V601.039H353.5V609H354.5ZM354.5 593.078V585.118H353.5V593.078H354.5ZM354.5 577.157V569.196H353.5V577.157H354.5ZM354.5 561.235V553.275H353.5V561.235H354.5ZM354.5 545.314V537.353H353.5V545.314H354.5ZM354.5 529.392V521.431H353.5V529.392H354.5ZM354.5 513.471V505.51H353.5V513.471H354.5ZM354.5 497.549V489.588H353.5V497.549H354.5ZM354.5 481.627V473.667H353.5V481.627H354.5ZM354.5 465.706V457.745H353.5V465.706H354.5ZM354.5 449.784V441.824H353.5V449.784H354.5ZM354.5 433.863V425.902H353.5V433.863H354.5ZM354.5 417.941V409.98H353.5V417.941H354.5ZM354.5 402.02V394.059H353.5V402.02H354.5ZM354.5 386.098V378.137H353.5V386.098H354.5ZM354.5 370.176V362.216H353.5V370.176H354.5ZM354.5 354.255V346.294H353.5V354.255H354.5ZM354.5 338.333V330.373H353.5V338.333H354.5ZM354.5 322.412V314.451H353.5V322.412H354.5ZM354.5 306.49V298.529H353.5V306.49H354.5ZM354.5 290.569V282.608H353.5V290.569H354.5ZM354.5 274.647V266.686H353.5V274.647H354.5ZM354.5 258.726V250.765H353.5V258.726H354.5ZM354.5 242.804V234.843H353.5V242.804H354.5ZM354.5 226.883V218.922H353.5V226.883H354.5ZM354.5 210.961V203H353.5V210.961H354.5ZM354.5 195.04V187.079H353.5V195.04H354.5ZM354.5 179.118V171.157H353.5V179.118H354.5ZM354.5 163.197V155.236H353.5V163.197H354.5ZM354.5 147.275V139.314H353.5V147.275H354.5ZM354.5 131.354V123.393H353.5V131.354H354.5ZM354.5 115.432V107.471H353.5V115.432H354.5ZM354.5 99.5106V91.5498H353.5V99.5106H354.5ZM354.5 83.589V75.6283H353.5V83.589H354.5ZM354.5 67.6675V59.7068H353.5V67.6675H354.5ZM354.5 51.7461V43.7853H353.5V51.7461H354.5ZM354.5 35.8245V27.8638H353.5V35.8245H354.5ZM354.5 19.903V11.9423H353.5V19.903H354.5ZM354.5 3.98149V0H353.5V3.98149H354.5ZM355 812V808.02H353V812H355ZM355 800.059V792.098H353V800.059H355ZM355 784.137V776.176H353V784.137H355ZM355 768.216V760.255H353V768.216H355ZM355 752.294V744.333H353V752.294H355ZM355 736.373V728.412H353V736.373H355ZM355 720.451V712.49H353V720.451H355ZM355 704.529V696.569H353V704.529H355ZM355 688.608V680.647H353V688.608H355ZM355 672.686V664.726H353V672.686H355ZM355 656.765V648.804H353V656.765H355ZM355 640.843V632.882H353V640.843H355ZM355 624.922V616.961H353V624.922H355ZM355 609V601.039H353V609H355ZM355 593.078V585.118H353V593.078H355ZM355 577.157V569.196H353V577.157H355ZM355 561.235V553.275H353V561.235H355ZM355 545.314V537.353H353V545.314H355ZM355 529.392V521.431H353V529.392H355ZM355 513.471V505.51H353V513.471H355ZM355 497.549V489.588H353V497.549H355ZM355 481.627V473.667H353V481.627H355ZM355 465.706V457.745H353V465.706H355ZM355 449.784V441.824H353V449.784H355ZM355 433.863V425.902H353V433.863H355ZM355 417.941V409.98H353V417.941H355ZM355 402.02V394.059H353V402.02H355ZM355 386.098V378.137H353V386.098H355ZM355 370.176V362.216H353V370.176H355ZM355 354.255V346.294H353V354.255H355ZM355 338.333V330.373H353V338.333H355ZM355 322.412V314.451H353V322.412H355ZM355 306.49V298.529H353V306.49H355ZM355 290.569V282.608H353V290.569H355ZM355 274.647V266.686H353V274.647H355ZM355 258.726V250.765H353V258.726H355ZM355 242.804V234.843H353V242.804H355ZM355 226.883V218.922H353V226.883H355ZM355 210.961V203H353V210.961H355ZM355 195.04V187.079H353V195.04H355ZM355 179.118V171.157H353V179.118H355ZM355 163.197V155.236H353V163.197H355ZM355 147.275V139.314H353V147.275H355ZM355 131.354V123.393H353V131.354H355ZM355 115.432V107.471H353V115.432H355ZM355 99.5106V91.5498H353V99.5106H355ZM355 83.589V75.6283H353V83.589H355ZM355 67.6675V59.7068H353V67.6675H355ZM355 51.7461V43.7853H353V51.7461H355ZM355 35.8245V27.8638H353V35.8245H355ZM355 19.903V11.9423H353V19.903H355ZM355 3.98149V0H353V3.98149H355Z" fill="#425466" fill-opacity="0.11" mask="url(#path-3-inside-2_1049_6764)"/>
</svg>
