<svg width="768" height="1024" viewBox="0 0 768 1024" fill="none" xmlns="http://www.w3.org/2000/svg">
<mask id="path-1-inside-1_1042_8993" fill="white">
<path d="M18 0H384V1024H18V0Z"/>
</mask>
<path d="M17.5 0V4H18.5V0H17.5ZM17.5 12V20H18.5V12H17.5ZM17.5 28V36H18.5V28H17.5ZM17.5 44V52H18.5V44H17.5ZM17.5 60V68H18.5V60H17.5ZM17.5 76V84H18.5V76H17.5ZM17.5 92V100H18.5V92H17.5ZM17.5 108V116H18.5V108H17.5ZM17.5 124V132H18.5V124H17.5ZM17.5 140V148H18.5V140H17.5ZM17.5 156V164H18.5V156H17.5ZM17.5 172V180H18.5V172H17.5ZM17.5 188V196H18.5V188H17.5ZM17.5 204V212H18.5V204H17.5ZM17.5 220V228H18.5V220H17.5ZM17.5 236V244H18.5V236H17.5ZM17.5 252V260H18.5V252H17.5ZM17.5 268V276H18.5V268H17.5ZM17.5 284V292H18.5V284H17.5ZM17.5 300V308H18.5V300H17.5ZM17.5 316V324H18.5V316H17.5ZM17.5 332V340H18.5V332H17.5ZM17.5 348V356H18.5V348H17.5ZM17.5 364V372H18.5V364H17.5ZM17.5 380V388H18.5V380H17.5ZM17.5 396V404H18.5V396H17.5ZM17.5 412V420H18.5V412H17.5ZM17.5 428V436H18.5V428H17.5ZM17.5 444V452H18.5V444H17.5ZM17.5 460V468H18.5V460H17.5ZM17.5 476V484H18.5V476H17.5ZM17.5 492V500H18.5V492H17.5ZM17.5 508V516H18.5V508H17.5ZM17.5 524V532H18.5V524H17.5ZM17.5 540V548H18.5V540H17.5ZM17.5 556V564H18.5V556H17.5ZM17.5 572V580H18.5V572H17.5ZM17.5 588V596H18.5V588H17.5ZM17.5 604V612H18.5V604H17.5ZM17.5 620V628H18.5V620H17.5ZM17.5 636V644H18.5V636H17.5ZM17.5 652V660H18.5V652H17.5ZM17.5 668V676H18.5V668H17.5ZM17.5 684V692H18.5V684H17.5ZM17.5 700V708H18.5V700H17.5ZM17.5 716V724H18.5V716H17.5ZM17.5 732V740H18.5V732H17.5ZM17.5 748V756H18.5V748H17.5ZM17.5 764V772H18.5V764H17.5ZM17.5 780V788H18.5V780H17.5ZM17.5 796V804H18.5V796H17.5ZM17.5 812V820H18.5V812H17.5ZM17.5 828V836H18.5V828H17.5ZM17.5 844V852H18.5V844H17.5ZM17.5 860V868H18.5V860H17.5ZM17.5 876V884H18.5V876H17.5ZM17.5 892V900H18.5V892H17.5ZM17.5 908V916H18.5V908H17.5ZM17.5 924V932H18.5V924H17.5ZM17.5 940V948H18.5V940H17.5ZM17.5 956V964H18.5V956H17.5ZM17.5 972V980H18.5V972H17.5ZM17.5 988V996H18.5V988H17.5ZM17.5 1004V1012H18.5V1004H17.5ZM17.5 1020V1024H18.5V1020H17.5ZM384.5 1024V1020H383.5V1024H384.5ZM384.5 1012V1004H383.5V1012H384.5ZM384.5 996V988H383.5V996H384.5ZM384.5 980V972H383.5V980H384.5ZM384.5 964V956H383.5V964H384.5ZM384.5 948V940H383.5V948H384.5ZM384.5 932V924H383.5V932H384.5ZM384.5 916V908H383.5V916H384.5ZM384.5 900V892H383.5V900H384.5ZM384.5 884V876H383.5V884H384.5ZM384.5 868V860H383.5V868H384.5ZM384.5 852V844H383.5V852H384.5ZM384.5 836V828H383.5V836H384.5ZM384.5 820V812H383.5V820H384.5ZM384.5 804V796H383.5V804H384.5ZM384.5 788V780H383.5V788H384.5ZM384.5 772V764H383.5V772H384.5ZM384.5 756V748H383.5V756H384.5ZM384.5 740V732H383.5V740H384.5ZM384.5 724V716H383.5V724H384.5ZM384.5 708V700H383.5V708H384.5ZM384.5 692V684H383.5V692H384.5ZM384.5 676V668H383.5V676H384.5ZM384.5 660V652H383.5V660H384.5ZM384.5 644V636H383.5V644H384.5ZM384.5 628V620H383.5V628H384.5ZM384.5 612V604H383.5V612H384.5ZM384.5 596V588H383.5V596H384.5ZM384.5 580V572H383.5V580H384.5ZM384.5 564V556H383.5V564H384.5ZM384.5 548V540H383.5V548H384.5ZM384.5 532V524H383.5V532H384.5ZM384.5 516V508H383.5V516H384.5ZM384.5 500V492H383.5V500H384.5ZM384.5 484V476H383.5V484H384.5ZM384.5 468V460H383.5V468H384.5ZM384.5 452V444H383.5V452H384.5ZM384.5 436V428H383.5V436H384.5ZM384.5 420V412H383.5V420H384.5ZM384.5 404V396H383.5V404H384.5ZM384.5 388V380H383.5V388H384.5ZM384.5 372V364H383.5V372H384.5ZM384.5 356V348H383.5V356H384.5ZM384.5 340V332H383.5V340H384.5ZM384.5 324V316H383.5V324H384.5ZM384.5 308V300H383.5V308H384.5ZM384.5 292V284H383.5V292H384.5ZM384.5 276V268H383.5V276H384.5ZM384.5 260V252H383.5V260H384.5ZM384.5 244V236H383.5V244H384.5ZM384.5 228V220H383.5V228H384.5ZM384.5 212V204H383.5V212H384.5ZM384.5 196V188H383.5V196H384.5ZM384.5 180V172H383.5V180H384.5ZM384.5 164V156H383.5V164H384.5ZM384.5 148V140H383.5V148H384.5ZM384.5 132V124H383.5V132H384.5ZM384.5 116V108H383.5V116H384.5ZM384.5 100V92H383.5V100H384.5ZM384.5 84V76H383.5V84H384.5ZM384.5 68V60H383.5V68H384.5ZM384.5 52V44H383.5V52H384.5ZM384.5 36V28H383.5V36H384.5ZM384.5 20V12H383.5V20H384.5ZM384.5 4V0H383.5V4H384.5ZM17 0V4H19V0H17ZM17 12V20H19V12H17ZM17 28V36H19V28H17ZM17 44V52H19V44H17ZM17 60V68H19V60H17ZM17 76V84H19V76H17ZM17 92V100H19V92H17ZM17 108V116H19V108H17ZM17 124V132H19V124H17ZM17 140V148H19V140H17ZM17 156V164H19V156H17ZM17 172V180H19V172H17ZM17 188V196H19V188H17ZM17 204V212H19V204H17ZM17 220V228H19V220H17ZM17 236V244H19V236H17ZM17 252V260H19V252H17ZM17 268V276H19V268H17ZM17 284V292H19V284H17ZM17 300V308H19V300H17ZM17 316V324H19V316H17ZM17 332V340H19V332H17ZM17 348V356H19V348H17ZM17 364V372H19V364H17ZM17 380V388H19V380H17ZM17 396V404H19V396H17ZM17 412V420H19V412H17ZM17 428V436H19V428H17ZM17 444V452H19V444H17ZM17 460V468H19V460H17ZM17 476V484H19V476H17ZM17 492V500H19V492H17ZM17 508V516H19V508H17ZM17 524V532H19V524H17ZM17 540V548H19V540H17ZM17 556V564H19V556H17ZM17 572V580H19V572H17ZM17 588V596H19V588H17ZM17 604V612H19V604H17ZM17 620V628H19V620H17ZM17 636V644H19V636H17ZM17 652V660H19V652H17ZM17 668V676H19V668H17ZM17 684V692H19V684H17ZM17 700V708H19V700H17ZM17 716V724H19V716H17ZM17 732V740H19V732H17ZM17 748V756H19V748H17ZM17 764V772H19V764H17ZM17 780V788H19V780H17ZM17 796V804H19V796H17ZM17 812V820H19V812H17ZM17 828V836H19V828H17ZM17 844V852H19V844H17ZM17 860V868H19V860H17ZM17 876V884H19V876H17ZM17 892V900H19V892H17ZM17 908V916H19V908H17ZM17 924V932H19V924H17ZM17 940V948H19V940H17ZM17 956V964H19V956H17ZM17 972V980H19V972H17ZM17 988V996H19V988H17ZM17 1004V1012H19V1004H17ZM17 1020V1024H19V1020H17ZM385 1024V1020H383V1024H385ZM385 1012V1004H383V1012H385ZM385 996V988H383V996H385ZM385 980V972H383V980H385ZM385 964V956H383V964H385ZM385 948V940H383V948H385ZM385 932V924H383V932H385ZM385 916V908H383V916H385ZM385 900V892H383V900H385ZM385 884V876H383V884H385ZM385 868V860H383V868H385ZM385 852V844H383V852H385ZM385 836V828H383V836H385ZM385 820V812H383V820H385ZM385 804V796H383V804H385ZM385 788V780H383V788H385ZM385 772V764H383V772H385ZM385 756V748H383V756H385ZM385 740V732H383V740H385ZM385 724V716H383V724H385ZM385 708V700H383V708H385ZM385 692V684H383V692H385ZM385 676V668H383V676H385ZM385 660V652H383V660H385ZM385 644V636H383V644H385ZM385 628V620H383V628H385ZM385 612V604H383V612H385ZM385 596V588H383V596H385ZM385 580V572H383V580H385ZM385 564V556H383V564H385ZM385 548V540H383V548H385ZM385 532V524H383V532H385ZM385 516V508H383V516H385ZM385 500V492H383V500H385ZM385 484V476H383V484H385ZM385 468V460H383V468H385ZM385 452V444H383V452H385ZM385 436V428H383V436H385ZM385 420V412H383V420H385ZM385 404V396H383V404H385ZM385 388V380H383V388H385ZM385 372V364H383V372H385ZM385 356V348H383V356H385ZM385 340V332H383V340H385ZM385 324V316H383V324H385ZM385 308V300H383V308H385ZM385 292V284H383V292H385ZM385 276V268H383V276H385ZM385 260V252H383V260H385ZM385 244V236H383V244H385ZM385 228V220H383V228H385ZM385 212V204H383V212H385ZM385 196V188H383V196H385ZM385 180V172H383V180H385ZM385 164V156H383V164H385ZM385 148V140H383V148H385ZM385 132V124H383V132H385ZM385 116V108H383V116H385ZM385 100V92H383V100H385ZM385 84V76H383V84H385ZM385 68V60H383V68H385ZM385 52V44H383V52H385ZM385 36V28H383V36H385ZM385 20V12H383V20H385ZM385 4V0H383V4H385Z" fill="#425466" fill-opacity="0.11" mask="url(#path-1-inside-1_1042_8993)"/>
<mask id="path-3-inside-2_1042_8993" fill="white">
<path d="M384 0H750V1024H384V0Z"/>
</mask>
<path d="M750.5 1024V1020H749.5V1024H750.5ZM750.5 1012V1004H749.5V1012H750.5ZM750.5 996V988H749.5V996H750.5ZM750.5 980V972H749.5V980H750.5ZM750.5 964V956H749.5V964H750.5ZM750.5 948V940H749.5V948H750.5ZM750.5 932V924H749.5V932H750.5ZM750.5 916V908H749.5V916H750.5ZM750.5 900V892H749.5V900H750.5ZM750.5 884V876H749.5V884H750.5ZM750.5 868V860H749.5V868H750.5ZM750.5 852V844H749.5V852H750.5ZM750.5 836V828H749.5V836H750.5ZM750.5 820V812H749.5V820H750.5ZM750.5 804V796H749.5V804H750.5ZM750.5 788V780H749.5V788H750.5ZM750.5 772V764H749.5V772H750.5ZM750.5 756V748H749.5V756H750.5ZM750.5 740V732H749.5V740H750.5ZM750.5 724V716H749.5V724H750.5ZM750.5 708V700H749.5V708H750.5ZM750.5 692V684H749.5V692H750.5ZM750.5 676V668H749.5V676H750.5ZM750.5 660V652H749.5V660H750.5ZM750.5 644V636H749.5V644H750.5ZM750.5 628V620H749.5V628H750.5ZM750.5 612V604H749.5V612H750.5ZM750.5 596V588H749.5V596H750.5ZM750.5 580V572H749.5V580H750.5ZM750.5 564V556H749.5V564H750.5ZM750.5 548V540H749.5V548H750.5ZM750.5 532V524H749.5V532H750.5ZM750.5 516V508H749.5V516H750.5ZM750.5 500V492H749.5V500H750.5ZM750.5 484V476H749.5V484H750.5ZM750.5 468V460H749.5V468H750.5ZM750.5 452V444H749.5V452H750.5ZM750.5 436V428H749.5V436H750.5ZM750.5 420V412H749.5V420H750.5ZM750.5 404V396H749.5V404H750.5ZM750.5 388V380H749.5V388H750.5ZM750.5 372V364H749.5V372H750.5ZM750.5 356V348H749.5V356H750.5ZM750.5 340V332H749.5V340H750.5ZM750.5 324V316H749.5V324H750.5ZM750.5 308V300H749.5V308H750.5ZM750.5 292V284H749.5V292H750.5ZM750.5 276V268H749.5V276H750.5ZM750.5 260V252H749.5V260H750.5ZM750.5 244V236H749.5V244H750.5ZM750.5 228V220H749.5V228H750.5ZM750.5 212V204H749.5V212H750.5ZM750.5 196V188H749.5V196H750.5ZM750.5 180V172H749.5V180H750.5ZM750.5 164V156H749.5V164H750.5ZM750.5 148V140H749.5V148H750.5ZM750.5 132V124H749.5V132H750.5ZM750.5 116V108H749.5V116H750.5ZM750.5 100V92H749.5V100H750.5ZM750.5 84V76H749.5V84H750.5ZM750.5 68V60H749.5V68H750.5ZM750.5 52V44H749.5V52H750.5ZM750.5 36V28H749.5V36H750.5ZM750.5 20V12H749.5V20H750.5ZM750.5 4V0H749.5V4H750.5ZM751 1024V1020H749V1024H751ZM751 1012V1004H749V1012H751ZM751 996V988H749V996H751ZM751 980V972H749V980H751ZM751 964V956H749V964H751ZM751 948V940H749V948H751ZM751 932V924H749V932H751ZM751 916V908H749V916H751ZM751 900V892H749V900H751ZM751 884V876H749V884H751ZM751 868V860H749V868H751ZM751 852V844H749V852H751ZM751 836V828H749V836H751ZM751 820V812H749V820H751ZM751 804V796H749V804H751ZM751 788V780H749V788H751ZM751 772V764H749V772H751ZM751 756V748H749V756H751ZM751 740V732H749V740H751ZM751 724V716H749V724H751ZM751 708V700H749V708H751ZM751 692V684H749V692H751ZM751 676V668H749V676H751ZM751 660V652H749V660H751ZM751 644V636H749V644H751ZM751 628V620H749V628H751ZM751 612V604H749V612H751ZM751 596V588H749V596H751ZM751 580V572H749V580H751ZM751 564V556H749V564H751ZM751 548V540H749V548H751ZM751 532V524H749V532H751ZM751 516V508H749V516H751ZM751 500V492H749V500H751ZM751 484V476H749V484H751ZM751 468V460H749V468H751ZM751 452V444H749V452H751ZM751 436V428H749V436H751ZM751 420V412H749V420H751ZM751 404V396H749V404H751ZM751 388V380H749V388H751ZM751 372V364H749V372H751ZM751 356V348H749V356H751ZM751 340V332H749V340H751ZM751 324V316H749V324H751ZM751 308V300H749V308H751ZM751 292V284H749V292H751ZM751 276V268H749V276H751ZM751 260V252H749V260H751ZM751 244V236H749V244H751ZM751 228V220H749V228H751ZM751 212V204H749V212H751ZM751 196V188H749V196H751ZM751 180V172H749V180H751ZM751 164V156H749V164H751ZM751 148V140H749V148H751ZM751 132V124H749V132H751ZM751 116V108H749V116H751ZM751 100V92H749V100H751ZM751 84V76H749V84H751ZM751 68V60H749V68H751ZM751 52V44H749V52H751ZM751 36V28H749V36H751ZM751 20V12H749V20H751ZM751 4V0H749V4H751Z" fill="#425466" fill-opacity="0.11" mask="url(#path-3-inside-2_1042_8993)"/>
</svg>
