<?xml version="1.0" encoding="UTF-8"?>
<svg id="Layer_1" xmlns="http://www.w3.org/2000/svg" version="1.1" viewBox="0 0 50 51">
  <!-- Generator: Adobe Illustrator 29.8.1, SVG Export Plug-In . SVG Version: 2.1.1 Build 2)  -->
  <defs>
    <style>
      .st0 {
        fill: #46617b;
      }
    </style>
  </defs>
  <path class="st0" d="M26,19.9l-1-19.4-1,19.4c-2.3-6.4-8.5-11.1-15.7-11.1,0,7.2,4.6,13.4,11.1,15.7l-19.4,1,19.4,1c-6.4,2.3-11.1,8.5-11.1,15.7,7.2,0,13.4-4.6,15.7-11.1l1,19.4,1-19.4c2.3,6.4,8.5,11.1,15.7,11.1,0-7.2-4.6-13.4-11.1-15.7l19.4-1-19.4-1c6.4-2.3,11.1-8.5,11.1-15.7-7.2,0-13.4,4.6-15.7,11.1Z"/>
</svg>