<?xml version="1.0" encoding="UTF-8"?><svg id="Layer_2" xmlns="http://www.w3.org/2000/svg" width="402.37" height="156" xmlns:xlink="http://www.w3.org/1999/xlink" viewBox="0 0 402.37 156"><defs><style>.cls-1{fill:none;}.cls-2{fill:#f38ab2;}.cls-3{clip-path:url(#clippath-1);}.cls-4{clip-path:url(#clippath-3);}.cls-5{clip-path:url(#clippath-4);}.cls-6{clip-path:url(#clippath-2);}.cls-7{clip-path:url(#clippath-7);}.cls-8{clip-path:url(#clippath-6);}.cls-9{clip-path:url(#clippath-8);}.cls-10{clip-path:url(#clippath-5);}.cls-11{clip-path:url(#clippath);}</style><clipPath id="clippath"><rect class="cls-1" width="152" height="156"/></clipPath><clipPath id="clippath-1"><rect class="cls-1" x="61.33" y="36" width="90.08" height="90.67"/></clipPath><clipPath id="clippath-2"><rect class="cls-1" x="61.33" y="36" width="90.67" height="90.67"/></clipPath><clipPath id="clippath-3"><rect class="cls-1" x="28" y="65.33" width="90.67" height="89.71"/></clipPath><clipPath id="clippath-4"><rect class="cls-1" x="28" y="65.33" width="90.67" height="90.67"/></clipPath><clipPath id="clippath-5"><rect class="cls-1" x="34.67" y="1.12" width="90.67" height="89.55"/></clipPath><clipPath id="clippath-6"><rect class="cls-1" x="34.67" width="90.67" height="90.67"/></clipPath><clipPath id="clippath-7"><rect class="cls-1" x=".69" y="29.33" width="89.97" height="90.67"/></clipPath><clipPath id="clippath-8"><rect class="cls-1" y="29.33" width="90.67" height="90.67"/></clipPath></defs><g id="Layer_1-2"><path class="cls-2" d="M141.96,52.01h-4.96v-27.13h11.42c1.38,0,2.64.23,3.79.69,1.15.46,2.15,1.1,2.98,1.92.83.81,1.48,1.77,1.94,2.9.47,1.11.71,2.33.71,3.65,0,1.39-.23,2.66-.69,3.81-.46,1.14-1.1,2.13-1.94,2.96-.83.82-1.82,1.45-2.96,1.9-1.14.45-2.39.67-3.75.67h-6.54v8.65ZM141.96,29.32v9.6h6.31c.86,0,1.64-.21,2.33-.65.69-.43,1.24-1.01,1.65-1.75.42-.73.63-1.57.63-2.5,0-.83-.21-1.6-.63-2.31-.41-.72-.96-1.3-1.67-1.73-.7-.44-1.48-.67-2.35-.67h-6.27Z"/><path class="cls-2" d="M166.64,52.01h-4.96v-27.13h11.71c1.36,0,2.61.22,3.77.65,1.15.42,2.15,1.02,2.98,1.81.84.78,1.5,1.71,1.96,2.79.47,1.08.71,2.28.71,3.58s-.23,2.45-.69,3.5c-.46,1.04-1.1,1.95-1.94,2.71-.82.75-1.79,1.31-2.92,1.69l6.15,10.4h-5.71l-5.35-9.63c-.17.02-.34.02-.52.02h-5.19v9.6ZM166.64,29.32v8.9h6.56c.88-.01,1.66-.21,2.35-.58.71-.39,1.26-.92,1.67-1.58.4-.67.6-1.44.6-2.33,0-.82-.21-1.56-.63-2.23-.41-.67-.96-1.19-1.67-1.58-.7-.39-1.48-.58-2.35-.58h-6.54Z"/><path class="cls-2" d="M200.2,52.59c-1.61,0-3.16-.24-4.63-.71-1.46-.47-2.8-1.14-4.02-2-1.21-.88-2.27-1.9-3.17-3.08-.89-1.18-1.58-2.48-2.08-3.9-.49-1.43-.73-2.93-.73-4.5s.24-3.07.73-4.48c.5-1.42,1.19-2.71,2.08-3.9.9-1.18,1.96-2.2,3.17-3.06,1.22-.86,2.56-1.53,4.02-2,1.47-.47,3.01-.71,4.63-.71s3.13.24,4.58.71c1.47.47,2.82,1.14,4.04,2,1.22.86,2.28,1.89,3.17,3.06.9,1.18,1.59,2.48,2.08,3.9.5,1.41.75,2.9.75,4.48s-.25,3.07-.75,4.5c-.49,1.42-1.18,2.72-2.08,3.9-.89,1.18-1.95,2.21-3.17,3.08-1.22.86-2.56,1.53-4.02,2s-2.99.71-4.6.71ZM200.2,48.03c1.33,0,2.58-.23,3.75-.71,1.18-.48,2.21-1.16,3.1-2.02.89-.88,1.58-1.9,2.08-3.06s.75-2.44.75-3.81-.25-2.65-.75-3.83c-.5-1.18-1.2-2.2-2.08-3.06-.89-.86-1.93-1.53-3.1-2-1.17-.48-2.42-.73-3.75-.73s-2.58.24-3.75.73c-1.17.47-2.2,1.15-3.08,2.02-.89.86-1.58,1.89-2.08,3.06-.5,1.17-.75,2.44-.75,3.81s.25,2.65.75,3.81,1.19,2.19,2.08,3.06c.89.86,1.92,1.54,3.08,2.02,1.17.47,2.42.71,3.75.71Z"/><path class="cls-2" d="M224.33,52.01h-4.96v-27.13h18.58v4.46h-13.63v7.83h11.77v4.19h-11.77v10.65Z"/><path class="cls-2" d="M247.3,52.01h-4.96v-27.13h4.96v27.13Z"/><path class="cls-2" d="M266.14,52.59c-1.6,0-3.11-.24-4.54-.71-1.43-.47-2.74-1.14-3.94-2-1.2-.88-2.23-1.9-3.1-3.08-.86-1.18-1.54-2.48-2.02-3.9-.47-1.43-.71-2.93-.71-4.5s.23-3.07.71-4.48c.48-1.42,1.16-2.71,2.02-3.9.88-1.18,1.91-2.2,3.1-3.06,1.19-.86,2.51-1.53,3.94-2,1.43-.47,2.94-.71,4.54-.71,1.44,0,2.86.22,4.27.65,1.42.42,2.73,1.06,3.96,1.94,1.22.86,2.26,1.96,3.1,3.29.84,1.33,1.43,2.91,1.75,4.71h-5.06c-.36-1.39-.94-2.53-1.73-3.42-.79-.9-1.74-1.56-2.85-1.98-1.1-.43-2.29-.65-3.56-.65s-2.48.23-3.6.69c-1.11.46-2.09,1.12-2.94,1.98-.85.85-1.51,1.86-1.98,3.04-.47,1.17-.71,2.47-.71,3.92s.23,2.8.71,3.98c.47,1.18,1.13,2.19,1.98,3.02.84.83,1.82,1.48,2.94,1.94,1.13.45,2.32.67,3.6.67s2.46-.21,3.56-.65c1.09-.43,2.04-1.09,2.83-1.98.8-.89,1.38-2.02,1.73-3.4h5.08c-.32,1.81-.91,3.38-1.75,4.71-.85,1.33-1.89,2.44-3.1,3.31-1.21.86-2.52,1.51-3.94,1.94-1.41.42-2.83.63-4.29.63Z"/><path class="cls-2" d="M288.74,52.01h-4.96v-27.13h4.96v27.13Z"/><path class="cls-2" d="M319.42,52.01h-5.25l-2.15-5.25h-12.48l-2.17,5.25h-5.23l11.27-27.15h4.71l11.29,27.15ZM305.6,31.93l-4.38,10.69h9.08l-4.38-10.69-.13-.65h-.06l-.15.65Z"/><path d="M155.77,88.01h-18.77v-27.13h18.58v4.46h-13.63v6.79h11.77v4.19h-11.77v7.25h13.81v4.44Z"/><path d="M165.24,88.01h-4.96v-27.13h4.27l14.77,19v-19h4.94v27.13h-4.23l-14.79-18.96v18.96Z"/><path d="M203.12,88.59c-1.58,0-3.09-.24-4.52-.71-1.42-.48-2.72-1.16-3.92-2.02-1.2-.88-2.23-1.9-3.1-3.06-.88-1.18-1.56-2.48-2.04-3.9-.47-1.42-.71-2.91-.71-4.48s.23-3.08.71-4.5c.48-1.42,1.17-2.71,2.04-3.9.89-1.18,1.93-2.2,3.13-3.06,1.21-.86,2.53-1.53,3.96-2,1.43-.47,2.94-.71,4.54-.71,1.14,0,2.28.14,3.44.42,1.17.27,2.28.67,3.33,1.21,1.05.53,2.02,1.18,2.9,1.96.88.78,1.61,1.67,2.23,2.67.63,1,1.07,2.11,1.33,3.33h-5.04c-.71-1.58-1.79-2.82-3.25-3.71-1.45-.89-3.14-1.33-5.06-1.33-1.27,0-2.47.23-3.6.69-1.13.46-2.12,1.12-2.98,1.98-.85.85-1.52,1.86-2,3.04-.49,1.17-.73,2.47-.73,3.92s.24,2.8.73,3.98c.48,1.18,1.15,2.19,2,3.02.86.83,1.85,1.48,2.98,1.94,1.14.45,2.34.67,3.6.67,1.63,0,3.03-.28,4.21-.83,1.19-.55,2.16-1.32,2.9-2.29.73-.97,1.23-2.08,1.48-3.33h-8.77v-4.17h14.15c.01,2.22-.29,4.27-.9,6.13-.61,1.85-1.52,3.45-2.71,4.81-1.2,1.36-2.66,2.41-4.4,3.15-1.72.73-3.7,1.1-5.92,1.1Z"/><path d="M238.81,88.01h-17.21v-27.13h4.96v22.69h12.25v4.44Z"/><path d="M247.79,88.01h-4.96v-27.13h4.96v27.13Z"/><path d="M263.39,88.63c-1.95,0-3.62-.25-5.02-.75-1.39-.51-2.53-1.19-3.42-2.04-.89-.84-1.54-1.78-1.96-2.81-.42-1.04-.63-2.09-.63-3.15h4.96c0,.83.23,1.6.71,2.29.47.68,1.16,1.23,2.06,1.65.9.42,1.99.63,3.27.63,4.03,0,6.04-1.35,6.04-4.06,0-.83-.26-1.51-.77-2.02-.52-.53-1.24-.95-2.17-1.27-.93-.33-2.03-.63-3.29-.88-.91-.18-1.83-.4-2.79-.67-.95-.26-1.85-.59-2.73-1-.88-.4-1.66-.9-2.35-1.48-.68-.58-1.22-1.28-1.63-2.1-.41-.83-.6-1.81-.6-2.94,0-1.47.35-2.79,1.06-3.96.71-1.18,1.81-2.11,3.31-2.79,1.5-.68,3.42-1.02,5.77-1.02s4.13.34,5.65,1.02c1.51.67,2.65,1.62,3.42,2.85.76,1.22,1.15,2.64,1.15,4.25h-4.98c0-.69-.19-1.32-.56-1.9-.36-.58-.93-1.04-1.71-1.38-.78-.34-1.79-.52-3.02-.52-1.03,0-1.88.1-2.54.29-.67.2-1.19.46-1.56.79s-.64.71-.79,1.13c-.16.41-.23.82-.23,1.25,0,1.13.56,1.99,1.69,2.58,1.14.6,2.84,1.08,5.1,1.46,1.25.24,2.45.55,3.6.94,1.15.39,2.18.91,3.08,1.54.9.63,1.61,1.42,2.15,2.38.53.96.79,2.11.79,3.46,0,1.77-.46,3.26-1.38,4.48-.92,1.22-2.2,2.16-3.85,2.79-1.66.64-3.6.96-5.83.96Z"/><path d="M283.88,88.01h-4.96v-27.13h4.96v11.25h13.69v-11.25h4.98v27.13h-4.98v-11.44h-13.69v11.44Z"/><path d="M141.96,124.01h-4.96v-27.13h11.42c1.38,0,2.64.23,3.79.69,1.15.46,2.15,1.1,2.98,1.92.83.81,1.48,1.77,1.94,2.9.47,1.11.71,2.33.71,3.65,0,1.39-.23,2.66-.69,3.81-.46,1.14-1.1,2.13-1.94,2.96-.83.82-1.82,1.45-2.96,1.9-1.14.45-2.39.67-3.75.67h-6.54v8.65ZM141.96,101.32v9.6h6.31c.86,0,1.64-.21,2.33-.65.69-.43,1.24-1.01,1.65-1.75.42-.73.63-1.57.63-2.5,0-.83-.21-1.6-.63-2.31-.41-.72-.96-1.3-1.67-1.73-.7-.44-1.48-.67-2.35-.67h-6.27Z"/><path d="M166.64,124.01h-4.96v-27.13h11.71c1.36,0,2.61.22,3.77.65,1.15.42,2.15,1.02,2.98,1.81.84.78,1.5,1.71,1.96,2.79.47,1.08.71,2.28.71,3.58s-.23,2.45-.69,3.5c-.46,1.04-1.1,1.95-1.94,2.71-.82.75-1.79,1.31-2.92,1.69l6.15,10.4h-5.71l-5.35-9.63c-.17.02-.34.02-.52.02h-5.19v9.6ZM166.64,101.32v8.9h6.56c.88-.01,1.66-.21,2.35-.58.71-.39,1.26-.92,1.67-1.58.4-.67.6-1.44.6-2.33,0-.82-.21-1.56-.63-2.23-.41-.67-.96-1.19-1.67-1.58-.7-.39-1.48-.58-2.35-.58h-6.54Z"/><path d="M200.2,124.59c-1.61,0-3.16-.24-4.63-.71-1.46-.47-2.8-1.14-4.02-2-1.21-.88-2.27-1.9-3.17-3.08-.89-1.18-1.58-2.48-2.08-3.9-.49-1.43-.73-2.93-.73-4.5s.24-3.07.73-4.48c.5-1.42,1.19-2.71,2.08-3.9.9-1.18,1.96-2.2,3.17-3.06,1.22-.86,2.56-1.53,4.02-2,1.47-.47,3.01-.71,4.63-.71s3.13.24,4.58.71c1.47.47,2.82,1.14,4.04,2,1.22.86,2.28,1.89,3.17,3.06.9,1.18,1.59,2.48,2.08,3.9.5,1.41.75,2.9.75,4.48s-.25,3.07-.75,4.5c-.49,1.42-1.18,2.72-2.08,3.9-.89,1.18-1.95,2.21-3.17,3.08-1.22.86-2.56,1.53-4.02,2s-2.99.71-4.6.71ZM200.2,120.03c1.33,0,2.58-.23,3.75-.71,1.18-.48,2.21-1.16,3.1-2.02.89-.88,1.58-1.9,2.08-3.06s.75-2.44.75-3.81-.25-2.65-.75-3.83c-.5-1.18-1.2-2.2-2.08-3.06-.89-.86-1.93-1.53-3.1-2-1.17-.48-2.42-.73-3.75-.73s-2.58.24-3.75.73c-1.17.47-2.2,1.15-3.08,2.02-.89.86-1.58,1.89-2.08,3.06-.5,1.17-.75,2.44-.75,3.81s.25,2.65.75,3.81,1.19,2.19,2.08,3.06c.89.86,1.92,1.54,3.08,2.02,1.17.47,2.42.71,3.75.71Z"/><path d="M224.33,124.01h-4.96v-27.13h18.58v4.46h-13.63v7.83h11.77v4.19h-11.77v10.65Z"/><path d="M247.3,124.01h-4.96v-27.13h4.96v27.13Z"/><path d="M266.14,124.59c-1.6,0-3.11-.24-4.54-.71-1.43-.47-2.74-1.14-3.94-2-1.2-.88-2.23-1.9-3.1-3.08-.86-1.18-1.54-2.48-2.02-3.9-.47-1.43-.71-2.93-.71-4.5s.23-3.07.71-4.48c.48-1.42,1.16-2.71,2.02-3.9.88-1.18,1.91-2.2,3.1-3.06,1.19-.86,2.51-1.53,3.94-2,1.43-.47,2.94-.71,4.54-.71,1.44,0,2.86.22,4.27.65,1.42.42,2.73,1.06,3.96,1.94,1.22.86,2.26,1.96,3.1,3.29.84,1.33,1.43,2.91,1.75,4.71h-5.06c-.36-1.39-.94-2.53-1.73-3.42-.79-.9-1.74-1.56-2.85-1.98-1.1-.43-2.29-.65-3.56-.65s-2.48.23-3.6.69c-1.11.46-2.09,1.12-2.94,1.98-.85.85-1.51,1.86-1.98,3.04-.47,1.17-.71,2.47-.71,3.92s.23,2.8.71,3.98c.47,1.18,1.13,2.19,1.98,3.02.84.83,1.82,1.48,2.94,1.94,1.13.45,2.32.67,3.6.67s2.46-.21,3.56-.65c1.09-.43,2.04-1.09,2.83-1.98.8-.89,1.38-2.02,1.73-3.4h5.08c-.32,1.81-.91,3.38-1.75,4.71-.85,1.33-1.89,2.44-3.1,3.31-1.21.86-2.52,1.51-3.94,1.94-1.41.42-2.83.63-4.29.63Z"/><path d="M288.74,124.01h-4.96v-27.13h4.96v27.13Z"/><path d="M313.96,124.01h-18.77v-27.13h18.58v4.46h-13.63v6.79h11.77v4.19h-11.77v7.25h13.81v4.44Z"/><path d="M323.43,124.01h-4.96v-27.13h4.27l14.77,19v-19h4.94v27.13h-4.23l-14.79-18.96v18.96Z"/><path d="M361.31,124.59c-1.6,0-3.11-.24-4.54-.71-1.43-.47-2.74-1.14-3.94-2-1.2-.88-2.23-1.9-3.1-3.08-.86-1.18-1.54-2.48-2.02-3.9-.47-1.43-.71-2.93-.71-4.5s.23-3.07.71-4.48c.48-1.42,1.16-2.71,2.02-3.9.88-1.18,1.91-2.2,3.1-3.06,1.19-.86,2.51-1.53,3.94-2,1.43-.47,2.94-.71,4.54-.71,1.44,0,2.86.22,4.27.65,1.42.42,2.73,1.06,3.96,1.94,1.22.86,2.26,1.96,3.1,3.29.84,1.33,1.43,2.91,1.75,4.71h-5.06c-.36-1.39-.94-2.53-1.73-3.42-.79-.9-1.74-1.56-2.85-1.98-1.1-.43-2.29-.65-3.56-.65s-2.48.23-3.6.69c-1.11.46-2.09,1.12-2.94,1.98-.85.85-1.51,1.86-1.98,3.04-.47,1.17-.71,2.47-.71,3.92s.23,2.8.71,3.98c.47,1.18,1.13,2.19,1.98,3.02.84.83,1.82,1.48,2.94,1.94,1.13.45,2.32.67,3.6.67s2.46-.21,3.56-.65c1.09-.43,2.04-1.09,2.83-1.98.8-.89,1.38-2.02,1.73-3.4h5.08c-.32,1.81-.91,3.38-1.75,4.71-.85,1.33-1.89,2.44-3.1,3.31-1.21.86-2.52,1.51-3.94,1.94-1.41.42-2.83.63-4.29.63Z"/><path d="M391.66,124.01h-4.98v-10.31l-10.67-16.81h5.79l7.38,12.4h.02l7.31-12.4h5.85l-10.71,16.77v10.35Z"/><g class="cls-11"><g class="cls-3"><g class="cls-6"><path class="cls-2" d="M90.5,65.89c.33-.33,1.04-.96,2.13-1.88s2.46-1.82,4.13-2.73c1.67-.9,3.55-1.54,5.65-1.92,2.08-.39,4.29-.24,6.63.44,2.32.67,4.67,2.19,7.04,4.56,1.97,1.97,3.33,3.94,4.08,5.9s1.06,3.87.94,5.73c-.13,1.86-.49,3.59-1.08,5.19-.6,1.6-1.3,3.02-2.1,4.27-.79,1.24-1.52,2.24-2.19,3-.67.77-1.08,1.23-1.25,1.4l-5.98,5.98,15.69,15.69c.3.31.29.63-.04.96l-6.52,6.52c-.33.33-.65.35-.96.04l-23.1-23.1,13.5-13.5c.27-.26.68-.73,1.23-1.42.54-.69,1.04-1.53,1.5-2.5.45-.98.6-2.04.48-3.17s-.73-2.23-1.83-3.33c-1.11-1.11-2.23-1.72-3.38-1.83-1.15-.13-2.23.04-3.23.48-1.01.43-1.86.91-2.56,1.44-.69.53-1.16.91-1.4,1.15l-13.5,13.5-6.92-6.92c-.29-.29-.27-.6.06-.94l13-13Z"/></g></g><g class="cls-4"><g class="cls-5"><path d="M88.47,94.13c.33.33.96,1.04,1.88,2.13s1.82,2.46,2.73,4.13c.9,1.67,1.54,3.55,1.92,5.65.39,2.08.24,4.29-.44,6.63-.67,2.32-2.19,4.67-4.56,7.04-1.97,1.97-3.94,3.33-5.9,4.08s-3.87,1.06-5.73.94c-1.86-.13-3.59-.49-5.19-1.08-1.6-.6-3.02-1.3-4.27-2.1-1.24-.79-2.24-1.52-3-2.19-.77-.67-1.23-1.08-1.4-1.25l-5.98-5.98-15.69,15.69c-.31.3-.63.29-.96-.04l-6.52-6.52c-.33-.33-.35-.65-.04-.96l23.1-23.1,13.5,13.5c.26.27.73.68,1.42,1.23.69.54,1.53,1.04,2.5,1.5.98.45,2.04.6,3.17.48s2.23-.73,3.33-1.83c1.11-1.11,1.72-2.23,1.83-3.38.13-1.15-.04-2.23-.48-3.23-.43-1.01-.91-1.86-1.44-2.56-.53-.69-.91-1.16-1.15-1.4l-13.5-13.5,6.92-6.92c.29-.29.6-.27.94.06l13,13Z"/></g></g><g class="cls-10"><g class="cls-8"><path d="M64.68,61.86c-.33-.33-.96-1.04-1.88-2.13s-1.82-2.46-2.73-4.13c-.9-1.67-1.54-3.55-1.92-5.65-.39-2.08-.24-4.29.44-6.63.67-2.32,2.19-4.67,4.56-7.04,1.97-1.97,3.94-3.33,5.9-4.08s3.87-1.06,5.73-.94c1.86.13,3.59.49,5.19,1.08,1.6.6,3.02,1.3,4.27,2.1,1.24.79,2.24,1.52,3,2.19.77.67,1.23,1.08,1.4,1.25l5.98,5.98,15.69-15.69c.31-.3.63-.29.96.04l6.52,6.52c.33.33.35.65.04.96l-23.1,23.1-13.5-13.5c-.26-.27-.73-.68-1.42-1.23-.69-.54-1.53-1.04-2.5-1.5-.98-.45-2.04-.6-3.17-.48s-2.23.73-3.33,1.83c-1.11,1.11-1.72,2.23-1.83,3.38-.13,1.15.04,2.23.48,3.23.43,1.01.91,1.86,1.44,2.56.53.69.91,1.16,1.15,1.4l13.5,13.5-6.92,6.92c-.29.29-.6.27-.94-.06l-13-13Z"/></g></g><g class="cls-7"><g class="cls-9"><path d="M61.65,90c-.33.33-1.04.96-2.13,1.88s-2.46,1.82-4.13,2.73c-1.67.9-3.55,1.54-5.65,1.92-2.08.39-4.29.24-6.63-.44-2.32-.67-4.67-2.19-7.04-4.56-1.97-1.97-3.33-3.94-4.08-5.9s-1.06-3.87-.94-5.73c.13-1.86.49-3.59,1.08-5.19.6-1.6,1.3-3.02,2.1-4.27.79-1.24,1.52-2.24,2.19-3,.67-.77,1.08-1.23,1.25-1.4l5.98-5.98-15.69-15.69c-.3-.31-.29-.63.04-.96l6.52-6.52c.33-.33.65-.35.96-.04l23.1,23.1-13.5,13.5c-.27.26-.68.73-1.23,1.42-.54.69-1.04,1.53-1.5,2.5-.45.98-.6,2.04-.48,3.17s.73,2.23,1.83,3.33c1.11,1.11,2.23,1.72,3.38,1.83,1.15.13,2.23-.04,3.23-.48,1.01-.43,1.86-.91,2.56-1.44.69-.53,1.16-.91,1.4-1.15l13.5-13.5,6.92,6.92c.29.29.27.6-.06.94l-13,13Z"/></g></g></g></g></svg>