<svg width="306" height="166" viewBox="0 0 306 166" fill="none" xmlns="http://www.w3.org/2000/svg">
<path d="M38.1172 57.8863C38.7206 50.6248 43.9493 44.3097 51.2002 42.9676L273.635 1.26095C282.302 -0.343154 290.746 5.61497 292.301 14.5521L305.19 87.424C306.745 96.3612 300.745 105.069 292.079 106.673L259.516 112.785" stroke="url(#paint0_linear_4013_23231)" stroke-width="0.633333" stroke-miterlimit="10"/>
<path d="M232.535 42.1107L283.165 32.6172L284.661 41.1039L234.031 50.5975L232.535 42.1107Z" stroke="url(#paint1_linear_4013_23231)" stroke-width="0.540176"/>
<path d="M149.754 57.1484L204.841 46.8191L206.431 55.8378L198.016 57.4157" stroke="url(#paint2_linear_4013_23231)" stroke-width="0.540176"/>
<g clip-path="url(#clip0_4013_23231)">
<path d="M268.19 78.3667L268.586 78.471L287.461 83.4505C287.573 83.0434 287.462 82.585 287.168 82.0839C286.826 81.4981 286.261 80.9048 285.644 80.3681C285.031 79.8339 284.381 79.3683 283.884 79.0355C283.635 78.8693 283.425 78.7369 283.278 78.6461C283.204 78.6008 283.146 78.5659 283.107 78.5425L283.062 78.5161L283.051 78.5096L283.049 78.5082L283.049 78.5081L283.048 78.5078L283.048 78.5077L275.049 73.925L274.913 73.8472V73.6907V73.6894V73.688V73.6867V73.6854V73.684V73.6827V73.6814V73.6801V73.6788V73.6775V73.6762V73.675V73.6737V73.6724V73.6711V73.6699V73.6686V73.6674V73.6661V73.6649V73.6636V73.6624V73.6612V73.6599V73.6587V73.6575V73.6563V73.6551V73.6539V73.6527V73.6515V73.6503V73.6491V73.6479V73.6468V73.6456V73.6444V73.6433V73.6421V73.641V73.6398V73.6387V73.6375V73.6364V73.6353V73.6341V73.633V73.6319V73.6308V73.6297V73.6286V73.6275V73.6264V73.6253V73.6242V73.6231V73.622V73.621V73.6199V73.6188V73.6178V73.6167V73.6157V73.6146V73.6136V73.6125V73.6115V73.6104V73.6094V73.6084V73.6074V73.6063V73.6053V73.6043V73.6033V73.6023V73.6013V73.6003V73.5993V73.5983V73.5973V73.5963V73.5954V73.5944V73.5934V73.5924V73.5915V73.5905V73.5896V73.5886V73.5877V73.5867V73.5858V73.5848V73.5839V73.5829V73.582V73.5811V73.5802V73.5792V73.5783V73.5774V73.5765V73.5756V73.5747V73.5738V73.5729V73.572V73.5711V73.5702V73.5693V73.5684V73.5675V73.5667V73.5658V73.5649V73.564V73.5632V73.5623V73.5614V73.5606V73.5597V73.5589V73.558V73.5572V73.5563V73.5555V73.5546V73.5538V73.553V73.5521V73.5513V73.5505V73.5496V73.5488V73.548V73.5472V73.5464V73.5456V73.5448V73.5439V73.5431V73.5423V73.5415V73.5407V73.5399V73.5391V73.5384V73.5376V73.5368V73.536V73.5352V73.5344V73.5336V73.5329V73.5321V73.5313V73.5306V73.5298V73.529V73.5283V73.5275V73.5267V73.526V73.5252V73.5245V73.5237V73.523V73.5222V73.5215V73.5207V73.52V73.5192V73.5185V73.5177V73.517V73.5163V73.5155V73.5148V73.5141V73.5133V73.5126V73.5119V73.5112V73.5104V73.5097V73.509V73.5083V73.5076V73.5068V73.5061V73.5054V73.5047V73.504V73.5033V73.5026V73.5019V73.5012V73.5004V73.4997V73.499V73.4983V73.4976V73.4969V73.4962V73.4955V73.4948V73.4942V73.4935V73.4928V73.4921V73.4914V73.4907V73.49V73.4893V73.4886V73.4879V73.4872V73.4866V73.4859V73.4852V73.4845V73.4838V73.4831V73.4825V73.4818V73.4811V73.4804V73.4797V73.4791V73.4784V73.4777V73.477V73.4764V73.4757V73.475V73.4743V73.4737V73.473V73.4723V73.4716V73.471V73.4703V73.4696V73.4689V73.4683V73.4676V73.4669V73.4663V73.4656V73.4649V73.4642V73.4636V73.4629V73.4622V73.4616V73.4609V73.4602V73.4595V73.4589V73.4582V73.4575V73.4569V73.4562V73.4555V73.4548V73.4542V73.4535V73.4528V73.4521V73.4515V73.4508V73.4501V73.4495V73.4488V73.4481V73.4474V73.4468V73.4461V73.4454V73.4447V73.444V73.4434V73.4427V73.442V73.4413V73.4406V73.44V73.4393V73.4386V73.4379V73.4372V73.4365V73.4359V73.4352V73.4345V73.4338V73.4331V73.4324V73.4317V73.431V73.4303V73.4297V73.429V73.4283V73.4276V73.4269V73.4262V73.4255V73.4248V73.4241V73.4234V73.4227V73.422V73.4213V73.4205V73.4198V73.4191V73.4184V73.4177V73.417V73.4163V73.4156V73.4148V73.4141V73.4134V73.4127V73.412V73.4112V73.4105V73.4098V73.409V73.4083V73.4076V73.4068V73.4061V73.4054V73.4046V73.4039V73.4031V73.4024V73.4017V73.4009V73.4002V73.3994V73.3987V73.3979V73.3971V73.3964V73.3956V73.3949V73.3941V73.3933V73.3926V73.3918V73.391V73.3902V73.3895V73.3887V73.3879V73.3871V73.3863V73.3855V73.3848V73.384V73.3832V73.3824V73.3816V73.3808V73.38V73.3792V73.3784V73.3776V73.3767V73.3759V73.3751V73.3743V73.3735V73.3726V73.3718V73.371V73.3701V73.3693V73.3685V73.3676V73.3668V73.3659V73.3651V73.3642V73.3634V73.3625V73.3617V73.3608V73.3599V73.3591V73.3582V73.3573V73.3565V73.3556V73.3547V73.3538V73.3529V73.352V73.3511V73.3502V73.3493V73.3484V73.3475V73.3466V73.3457V73.3448V73.3439V73.343V73.342V73.3411V73.3402V73.3392V73.3383V73.3374V73.3364V73.3355V73.3345V73.3336V73.3326V73.3316V73.3307V73.3297V73.3287V73.3277V73.3268V73.3258V73.3248V73.3238V73.3228V73.3218V73.3208V73.3198V73.3188V73.3178V73.3168V73.3158V73.3147V73.3137V73.3127V73.3116V73.3106V73.3096V73.3085V73.3075V73.3064V73.3053V73.3043V73.3032V73.3021V73.3011V73.3V73.2989V73.2978V73.2967V73.2956V73.2945V73.2934V73.2923V73.2912V73.2901V73.289V73.2878V73.2867V73.2856V73.2844V73.2833V73.2822V73.281V73.2798V73.2787V73.2775V73.2763V73.2752V73.274V73.2728V73.2716V73.2704V73.2692V73.268V73.2668V73.2656V73.2644V73.2632V73.262V73.2607V73.2595V73.2584V73.2583L274.474 70.9923L274.469 70.9668V70.9408C274.469 70.7051 274.364 70.56 274.188 70.4591C274 70.3513 273.729 70.2969 273.428 70.2943L272.118 70.5195L272.095 70.5234H272.072C272.052 70.5234 272 70.5358 271.904 70.6102C271.811 70.682 271.714 70.7815 271.6 70.8997C271.459 71.045 271.454 71.1728 271.454 71.3991V71.8651L271.049 71.6335L267.049 69.3419L267.016 69.3229L266.99 69.2956L266.768 69.0664L266.707 69.0038L266.694 68.9176L266.961 68.8784L266.694 68.9176L266.694 68.9173L266.694 68.9163L266.693 68.9122L266.691 68.896L266.682 68.8325L266.646 68.5895C266.614 68.3793 266.569 68.077 266.514 67.7084C266.403 66.9712 266.25 65.9692 266.084 64.9101C265.749 62.7854 265.362 60.4498 265.143 59.5466C264.941 58.7127 264.327 58.0142 263.732 57.5124C263.438 57.2644 263.157 57.071 262.949 56.9399C262.892 56.9035 262.84 56.8719 262.795 56.8455C262.76 56.8862 262.719 56.9344 262.675 56.9895C262.517 57.1829 262.31 57.4591 262.109 57.7897C261.703 58.4599 261.352 59.3118 261.452 60.1379C261.562 61.0465 261.95 63.3875 262.311 65.5103C262.492 66.5697 262.665 67.5719 262.794 68.3093C262.858 68.678 262.911 68.9804 262.948 69.1907L262.99 69.4337L263.002 69.4973L263.004 69.5135L263.005 69.5176L263.005 69.5187L263.005 69.5189L262.739 69.5659L263.005 69.519L263.027 69.6439L262.945 69.7406L259.834 73.4072L259.566 73.7232L259.385 73.3503C259.296 73.1667 259.172 73.0477 259.047 72.9925C258.928 72.9401 258.792 72.9364 258.641 73.0141L258.604 73.0332L258.563 73.0403L257.23 73.2694L257.207 73.2733H257.184C256.967 73.2733 256.828 73.3745 256.727 73.561C256.621 73.758 256.568 74.0409 256.565 74.3528L257.005 76.6184L257.01 76.6438V76.6698V76.8989V76.9957L256.948 77.0705L250.726 84.6327L250.721 84.6393L250.721 84.6392L250.721 84.6393L250.72 84.6398L250.718 84.642L250.71 84.6517L250.676 84.6908C250.647 84.7255 250.603 84.777 250.549 84.8434C250.439 84.9762 250.284 85.1685 250.104 85.4051C249.744 85.8791 249.287 86.5272 248.892 87.2288C248.495 87.9341 248.173 88.6751 248.066 89.338C247.973 89.9091 248.045 90.3881 248.33 90.7489L264.359 79.2005L264.705 78.9517L264.783 79.3701L267.005 91.2863L267.028 91.411L266.947 91.5085L264.28 94.7166L264.274 94.7246L268.19 78.3667ZM268.19 78.3667L268.25 78.7713L270.027 90.9166L270.046 91.0457L270.159 91.1111L273.713 93.1725L273.713 93.1725L273.713 93.1728L273.715 93.1735L273.716 93.1743L273.727 93.1812C273.738 93.1875 273.753 93.197 273.773 93.2094C273.813 93.2343 273.87 93.271 273.938 93.3173C274.075 93.4102 274.253 93.5396 274.422 93.6876C274.594 93.8377 274.746 93.9966 274.84 94.1469C274.849 94.1609 274.857 94.1744 274.864 94.1875L270.581 93.1359L270.247 93.0538V93.3982C270.247 93.6561 270.12 93.9392 269.897 94.1946C269.686 94.4359 269.41 94.6292 269.138 94.7318C268.369 94.7166 267.839 94.3189 267.663 93.7735L267.551 93.4287L267.253 93.634L263.497 96.2163C263.487 96.1613 263.487 96.1 263.496 96.0312C263.521 95.8556 263.606 95.6546 263.723 95.4532C263.838 95.2551 263.974 95.0739 264.084 94.9409C264.138 94.8748 264.184 94.8217 264.217 94.7854C264.233 94.7673 264.246 94.7535 264.255 94.7444L264.264 94.7344L264.266 94.7323L264.267 94.732L264.267 94.7319L264.267 94.7319L268.19 78.3667Z" stroke="url(#paint3_linear_4013_23231)" stroke-width="0.540176"/>
</g>
<path d="M291.856 20.5718L97.0156 57.1484" stroke="url(#paint4_linear_4013_23231)" stroke-width="0.633333"/>
<path d="M61.1493 49.4246L60.9616 48.36L68.3795 46.9691L68.5672 48.0337L65.4571 48.6169L67.0167 57.4623L65.819 57.6869L64.2594 48.8414L61.1493 49.4246ZM71.4256 46.3979L73.1729 56.308L71.9752 56.5326L70.2279 46.6225L71.4256 46.3979ZM82.3318 47.5522L81.1342 47.7768C81.0025 47.4449 80.825 47.1649 80.6019 46.9368C80.382 46.7081 80.1308 46.5286 79.8484 46.3982C79.5686 46.2641 79.2695 46.1802 78.9509 46.1466C78.6323 46.113 78.3089 46.127 77.9805 46.1886C77.3816 46.3009 76.8659 46.5542 76.4332 46.9486C76.0037 47.3424 75.6977 47.8614 75.5153 48.5054C75.336 49.1489 75.3221 49.8997 75.4734 50.7578C75.6247 51.6159 75.894 52.3135 76.2814 52.8508C76.6721 53.3874 77.1356 53.762 77.672 53.9747C78.2116 54.1868 78.7808 54.2367 79.3797 54.1244C79.7081 54.0628 80.0156 53.9585 80.3023 53.8114C80.5891 53.6643 80.8407 53.4789 81.0573 53.2549C81.2766 53.0272 81.4502 52.7664 81.5779 52.4725C81.7084 52.1747 81.7789 51.8483 81.7894 51.493L82.9871 51.2685C82.9862 51.7918 82.9019 52.2759 82.7342 52.7206C82.5665 53.1652 82.3303 53.5611 82.0256 53.9082C81.7204 54.252 81.36 54.5379 80.9446 54.7657C80.5323 54.993 80.0766 55.1534 79.5776 55.247C78.7341 55.4052 77.9475 55.3394 77.2179 55.0496C76.4883 54.7599 75.8681 54.2696 75.3571 53.579C74.8462 52.8883 74.4986 52.0203 74.3143 50.9751C74.13 49.9299 74.1591 48.9913 74.4016 48.1594C74.644 47.3274 75.0573 46.6434 75.6412 46.1074C76.2252 45.5713 76.939 45.2242 77.7825 45.066C78.2816 44.9724 78.7628 44.9572 79.2263 45.0202C79.6929 45.0827 80.1281 45.221 80.5317 45.4353C80.9348 45.6463 81.2907 45.9295 81.5995 46.2848C81.9077 46.637 82.1518 47.0594 82.3318 47.5522ZM85.4685 54.0025L83.7212 44.0924L84.9189 43.8678L85.7857 48.7841L85.9016 48.7624L89.4778 43.013L91.0425 42.7196L87.6776 47.9695L92.7898 52.6296L91.341 52.9013L87.0903 48.9394L86.0997 50.5649L86.6662 53.7779L85.4685 54.0025ZM94.34 52.339L92.5927 42.4289L98.5618 41.3097L98.7495 42.3742L93.9781 43.2689L94.5685 46.6174L99.0308 45.7807L99.2185 46.8452L94.7562 47.682L95.35 51.0498L100.199 50.1406L100.386 51.2052L94.34 52.339ZM100.367 42.0708L100.18 41.0063L107.598 39.6154L107.785 40.6799L104.675 41.2631L106.235 50.1086L105.037 50.3332L103.477 41.4877L100.367 42.0708Z" fill="#F98DC6"/>
<path d="M134.795 39.1594L135.029 39.5559L140.417 48.6679C140.497 48.5732 140.559 48.4355 140.6 48.2437C140.672 47.9079 140.663 47.4763 140.609 47.0308C140.556 46.5905 140.462 46.1605 140.38 45.8387C140.34 45.6783 140.302 45.5461 140.276 45.4543C140.262 45.4085 140.251 45.3729 140.244 45.349L140.236 45.3222L140.234 45.3157L140.233 45.3143L140.233 45.3142L134.795 39.1594ZM134.795 39.1594L134.509 39.5202L130.509 44.5616L130.407 44.6898L130.453 44.8469L131.064 46.9485L130.364 45.745L130.065 45.2308L129.805 45.7661C129.736 45.909 129.654 45.9512 129.572 45.9633C129.477 45.9773 129.341 45.955 129.173 45.8759C129.018 45.6932 128.91 45.3978 129.042 45.1258L129.223 44.7528L128.815 44.6764L127.255 44.3838L129.456 44.1568L129.607 44.1412L129.69 44.0137L133.245 38.514L133.504 38.1128L133.034 38.0302L122.921 36.255C122.982 36.1481 123.084 36.0431 123.235 35.939C123.505 35.7535 123.883 35.6073 124.286 35.4965C124.684 35.3868 125.086 35.3176 125.391 35.2757C125.542 35.2549 125.668 35.241 125.756 35.2324C125.8 35.2281 125.834 35.2251 125.857 35.2232L125.883 35.2212L125.889 35.2207L125.89 35.2206L125.89 35.2206L125.89 35.2207L125.897 35.2201L131.008 34.7618L131.151 34.7489L131.235 34.6326L131.902 33.716L131.919 33.6932L131.931 33.6679C132.003 33.5183 132.091 33.4786 132.144 33.4695C132.207 33.4587 132.268 33.4809 132.307 33.521L132.329 33.5437L132.355 33.5615L132.993 34.0002C133.102 34.1224 133.107 34.2327 133.107 34.4464V34.7941L133.453 34.7617L135.897 34.5325L136.05 34.5181L136.134 34.3891L135.868 34.2172L136.134 34.3891L136.134 34.389L136.134 34.3885L136.135 34.3867L136.14 34.3794L136.159 34.3507L136.23 34.2409C136.292 34.1459 136.381 34.0093 136.49 33.8432C136.708 33.511 137.006 33.0611 137.325 32.5899C137.643 32.1185 137.982 31.6273 138.281 31.2121C138.585 30.7906 138.836 30.4656 138.984 30.3128L139 30.2968L139.013 30.2787C139.287 29.9019 139.709 29.7007 140.091 29.5957C140.258 29.5496 140.411 29.524 140.529 29.5097C140.557 29.6153 140.588 29.7518 140.61 29.9067C140.659 30.2655 140.655 30.6898 140.491 31.058C140.307 31.2571 140.047 31.5988 139.767 31.9875C139.462 32.4102 139.12 32.9073 138.8 33.3811C138.479 33.8552 138.18 34.3076 137.961 34.6413C137.851 34.8082 137.762 34.9455 137.699 35.0412L137.627 35.1519L137.608 35.181L137.604 35.1885L137.602 35.1904L137.602 35.1909L137.602 35.191L137.868 35.363L137.602 35.1911L137.551 35.2695V35.363V35.5922V35.6333L137.562 35.6731L138.228 38.1939L138.757 38.1252L138.802 38.1193C138.798 38.1238 138.794 38.1283 138.79 38.1328C138.779 38.144 138.768 38.1535 138.757 38.1614C138.736 38.1768 138.715 38.1866 138.699 38.1927C138.687 38.197 138.678 38.1993 138.673 38.2004L138.666 38.2016L138.664 38.2019C138.664 38.2019 138.665 38.2019 138.666 38.2018L138.671 38.2014C138.676 38.2012 138.682 38.2009 138.69 38.2008C138.707 38.2004 138.728 38.2004 138.757 38.2004H138.891L138.946 38.1436C138.986 38.1627 139.033 38.1795 139.087 38.1898L139.688 38.603L139.705 38.6143L139.723 38.6235C139.862 38.6955 139.906 38.7854 139.916 38.8509C139.928 38.9267 139.902 38.9973 139.863 39.0382L139.847 39.0543L139.834 39.0724L139.167 39.989L139.107 40.0723V40.0878L138.785 40.0878L138.896 40.489L140.229 45.3013L140.229 45.3014L140.233 45.3141L134.795 39.1594Z" stroke="#F98DC6" stroke-width="0.633333"/>
<path d="M215.418 11.5781L223.382 56.6484" stroke="url(#paint5_linear_4013_23231)" stroke-opacity="0.6" stroke-width="1.26667" stroke-miterlimit="10" stroke-dasharray="2.56 2.56"/>
<path fill-rule="evenodd" clip-rule="evenodd" d="M242.99 165.117H16.9994C8.11084 165.117 1 157.554 1 148.617V74.3704C1 65.2041 8.33305 57.8711 16.9994 57.8711H242.99C251.878 57.8711 258.989 65.4333 258.989 74.3704V148.617C258.989 157.554 251.656 165.117 242.99 165.117Z" stroke="url(#paint6_linear_4013_23231)" stroke-width="0.633333" stroke-miterlimit="10"/>
<path d="M195.473 90.4498H246.931V99.0759H195.473V90.4498Z" stroke="url(#paint7_linear_4013_23231)" stroke-width="0.540176"/>
<path d="M24.8092 90.4498H167.152V99.0759H24.8092V90.4498Z" stroke="#F98DC6" stroke-width="0.540176"/>
<path d="M24.8092 104.887H167.152V113.513H24.8092V104.887Z" stroke="#F98DC6" stroke-width="0.540176"/>
<path d="M24.8092 152.325H167.152V155.68H24.8092V152.325Z" stroke="url(#paint8_linear_4013_23231)" stroke-width="0.540176"/>
<path d="M24.8092 120.473H73.378V146.515H24.8092V120.473Z" stroke="#F98DC6" stroke-width="0.540176"/>
<path d="M78.5826 120.473H127.151V146.515H78.5826V120.473Z" stroke="url(#paint9_linear_4013_23231)" stroke-width="0.540176"/>
<path d="M224.648 132.786L224.255 132.601L224.263 133.035L224.485 145.181L224.487 145.305L224.583 145.384L227.916 148.134L227.922 148.139L227.928 148.143L227.928 148.143L227.928 148.143L227.928 148.143L227.931 148.145L227.942 148.154C227.946 148.157 227.951 148.16 227.956 148.164C227.965 148.171 227.975 148.179 227.987 148.189C228.027 148.219 228.083 148.265 228.149 148.321C228.282 148.434 228.453 148.59 228.609 148.764C228.767 148.941 228.897 149.122 228.963 149.284C228.975 149.313 228.984 149.34 228.991 149.364L224.869 147.451L224.592 147.323L224.498 147.613C224.402 147.911 224.206 148.216 223.96 148.444C223.712 148.674 223.441 148.801 223.199 148.801C222.495 148.801 222.113 148.27 221.901 147.613L221.807 147.323L221.53 147.451L217.408 149.364C217.415 149.34 217.424 149.313 217.436 149.284C217.502 149.122 217.631 148.941 217.79 148.764C217.945 148.59 218.116 148.434 218.25 148.321C218.316 148.265 218.372 148.219 218.411 148.189C218.431 148.173 218.446 148.161 218.457 148.154L218.468 148.145L218.47 148.143L218.471 148.143L218.471 148.143L218.471 148.143L218.481 148.136L218.49 148.128L221.6 145.378L221.694 145.295L221.692 145.171L221.469 133.025L221.462 132.608L221.084 132.786L203.31 141.159C203.103 140.724 203.126 140.219 203.32 139.664C203.544 139.02 203.987 138.347 204.493 137.727C204.996 137.11 205.549 136.561 205.977 136.165C206.191 135.967 206.373 135.809 206.501 135.7C206.565 135.645 206.616 135.603 206.65 135.575L206.689 135.543L206.699 135.535L206.701 135.534L206.702 135.533L206.702 135.533L206.702 135.533L206.707 135.528L214.041 129.341L214.136 129.26V129.135V128.905V126.614C214.136 126.329 214.228 126.114 214.366 125.971C214.503 125.829 214.708 125.738 214.977 125.738H216.533C216.703 125.738 216.806 125.78 216.889 125.848C216.982 125.925 217.073 126.055 217.179 126.273L217.33 126.585L217.595 126.363L221.151 123.384L221.247 123.303V123.177H220.977L221.247 123.176V123.176V123.176V123.175V123.174V123.173V123.172V123.171V123.17V123.168V123.166V123.164V123.162V123.16V123.157V123.155V123.152V123.149V123.146V123.143V123.139V123.136V123.132V123.128V123.124V123.12V123.115V123.111V123.106V123.101V123.096V123.091V123.086V123.08V123.075V123.069V123.063V123.057V123.051V123.044V123.038V123.031V123.024V123.017V123.01V123.003V122.996V122.988V122.98V122.973V122.965V122.956V122.948V122.94V122.931V122.923V122.914V122.905V122.896V122.886V122.877V122.867V122.858V122.848V122.838V122.828V122.818V122.808V122.797V122.786V122.776V122.765V122.754V122.743V122.732V122.72V122.709V122.697V122.685V122.673V122.661V122.649V122.637V122.625V122.612V122.599V122.587V122.574V122.561V122.548V122.535V122.521V122.508V122.494V122.48V122.467V122.453V122.439V122.424V122.41V122.396V122.381V122.367V122.352V122.337V122.322V122.307V122.292V122.277V122.261V122.246V122.23V122.214V122.199V122.183V122.167V122.15V122.134V122.118V122.101V122.085V122.068V122.052V122.035V122.018V122.001V121.984V121.966V121.949V121.932V121.914V121.896V121.879V121.861V121.843V121.825V121.807V121.789V121.77V121.752V121.734V121.715V121.696V121.678V121.659V121.64V121.621V121.602V121.583V121.564V121.544V121.525V121.505V121.486V121.466V121.446V121.427V121.407V121.387V121.367V121.347V121.326V121.306V121.286V121.265V121.245V121.224V121.204V121.183V121.162V121.141V121.12V121.099V121.078V121.057V121.036V121.014V120.993V120.972V120.95V120.929V120.907V120.885V120.863V120.842V120.82V120.798V120.776V120.754V120.732V120.709V120.687V120.665V120.642V120.62V120.598V120.575V120.552V120.53V120.507V120.484V120.462V120.439V120.416V120.393V120.37V120.347V120.324V120.3V120.277V120.254V120.231V120.207V120.184V120.16V120.137V120.113V120.09V120.066V120.042V120.019V119.995V119.971V119.947V119.923V119.899V119.875V119.851V119.827V119.803V119.779V119.755V119.731V119.707V119.682V119.658V119.634V119.609V119.585V119.561V119.536V119.512V119.487V119.463V119.438V119.414V119.389V119.364V119.34V119.315V119.29V119.265V119.241V119.216V119.191V119.166V119.141V119.117V119.092V119.067V119.042V119.017V118.992V118.967V118.942V118.917V118.892V118.867V118.842V118.817V118.792V118.767V118.741V118.716V118.691V118.666V118.641V118.616V118.591V118.565V118.54V118.515V118.49V118.465V118.44V118.414V118.389V118.364V118.339V118.314V118.288V118.263V118.238V118.213V118.187V118.162V118.137V118.112V118.087V118.061V118.036V118.011V117.986V117.961V117.936V117.91V117.885V117.86V117.835V117.81V117.785V117.76V117.735V117.71V117.685V117.66V117.634V117.609V117.584V117.56V117.535V117.51V117.485V117.46V117.435V117.41V117.385V117.36V117.336V117.311V117.286V117.261V117.237V117.212V117.187V117.163V117.138V117.113V117.089V117.064V117.04V117.015V116.991V116.967V116.942V116.918V116.894V116.869V116.845V116.821V116.797V116.773V116.748V116.724V116.7V116.676V116.652V116.629V116.605V116.581V116.557V116.533V116.51V116.486V116.462V116.439V116.415V116.392V116.368V116.345V116.322V116.298V116.275V116.252V116.229V116.206V116.182V116.159V116.137V116.114V116.091V116.068V116.045V116.023V116V115.977V115.955V115.932V115.91V115.888V115.865V115.843V115.821V115.799V115.777V115.755V115.733V115.711V115.689V115.667V115.646V115.624V115.603V115.581V115.56V115.538V115.517V115.496V115.475V115.454V115.433V115.412V115.391V115.37V115.35V115.329V115.308V115.288V115.267V115.247V115.227V115.207V115.187V115.167V115.147V115.127V115.107V115.087V115.068V115.048V115.029V115.009V114.99V114.971V114.952V114.933V114.914V114.895V114.876V114.857V114.839V114.82V114.802V114.784V114.765V114.747V114.729V114.711V114.693V114.676V114.658V114.64V114.623V114.605V114.588V114.571V114.554V114.537V114.52V114.503V114.486V114.47V114.453V114.437V114.421V114.404V114.388V114.372V114.356V114.341V114.325V114.309V114.294V114.279V114.263V114.248V114.233V114.218V114.203V114.189V114.174V114.16V114.145V114.131V114.117V114.103V114.089V114.075V114.062V114.048V114.035V114.021V114.008V113.995V113.982V113.969V113.957V113.944V113.932V113.919V113.907V113.895V113.883V113.871V113.859V113.848V113.836V113.825V113.814V113.803V113.792V113.781C221.247 112.957 221.701 112.158 222.189 111.543C222.429 111.24 222.67 110.991 222.851 110.818C222.898 110.774 222.94 110.735 222.977 110.701C223.014 110.735 223.057 110.774 223.103 110.818C223.284 110.991 223.525 111.24 223.765 111.543C224.253 112.158 224.707 112.957 224.707 113.781V113.797L224.709 113.814C224.817 114.708 224.818 117.035 224.79 119.163C224.776 120.221 224.756 121.223 224.738 121.96C224.73 122.328 224.722 122.631 224.716 122.841L224.709 123.084L224.708 123.147L224.707 123.163L224.707 123.167L224.707 123.168L224.707 123.169L224.977 123.177L224.707 123.169L224.704 123.283L224.783 123.365L225.005 123.594L225.015 123.604L225.026 123.613L228.581 126.592L229.025 126.963V126.385C229.025 126.193 229.028 126.072 229.115 125.952C229.238 125.925 229.345 125.869 229.417 125.832C229.423 125.829 229.429 125.826 229.434 125.823C229.561 125.757 229.611 125.738 229.643 125.738H231.199C231.468 125.738 231.673 125.829 231.811 125.971C231.949 126.114 232.04 126.329 232.04 126.614V128.905C232.04 128.907 232.04 128.908 232.04 128.909C232.039 128.91 232.037 128.912 232.034 128.915C232.028 128.923 232.02 128.931 232.005 128.947L232.001 128.951C231.939 129.014 231.818 129.139 231.818 129.364V129.49L231.914 129.571L239.024 135.528L239.025 135.528L239.025 135.529L239.025 135.529L239.027 135.531L239.037 135.539L239.076 135.573C239.111 135.603 239.161 135.647 239.226 135.704C239.354 135.819 239.536 135.986 239.751 136.193C240.18 136.607 240.733 137.178 241.237 137.81C241.744 138.446 242.188 139.127 242.413 139.762C242.606 140.307 242.626 140.779 242.431 141.163L224.648 132.786Z" stroke="url(#paint10_linear_4013_23231)" stroke-width="0.540176"/>
<path d="M26.2734 66.0926L26.2735 65.0117L33.8204 65.0121L33.8204 66.093L30.6562 66.0928L30.6557 75.0745L29.4372 75.0744L29.4377 66.0928L26.2734 66.0926ZM36.9195 65.0122L36.919 75.0748L35.7005 75.0747L35.701 65.0122L36.9195 65.0122ZM47.4598 68.1573L46.2413 68.1573C46.1692 67.8068 46.0431 67.4988 45.863 67.2335C45.6861 66.9682 45.4699 66.7454 45.2145 66.5653C44.9622 66.3818 44.6822 66.2442 44.3743 66.1525C44.0664 66.0608 43.7454 66.0149 43.4113 66.0149C42.802 66.0148 42.2501 66.1688 41.7554 66.4766C41.2641 66.7845 40.8726 67.2382 40.5811 67.8376C40.2928 68.437 40.1486 69.1724 40.1486 70.0437C40.1486 70.915 40.2926 71.6504 40.5809 72.2498C40.8724 72.8492 41.2638 73.3029 41.7551 73.6109C42.2497 73.9188 42.8016 74.0728 43.4109 74.0728C43.745 74.0728 44.066 74.027 44.3739 73.9353C44.6818 73.8436 44.9619 73.7077 45.2141 73.5275C45.4696 73.3441 45.6858 73.1197 45.8627 72.8544C46.0429 72.5858 46.169 72.2779 46.2411 71.9307L47.4596 71.9308C47.3679 72.445 47.2008 72.9053 46.9584 73.3114C46.716 73.7176 46.4146 74.0631 46.0543 74.3481C45.6939 74.6298 45.2894 74.8443 44.8406 74.9917C44.3951 75.1391 43.9185 75.2127 43.4108 75.2127C42.5526 75.2127 41.7894 75.003 41.1212 74.5837C40.453 74.1644 39.9273 73.5682 39.5441 72.7951C39.1609 72.0221 38.9693 71.1049 38.9694 70.0436C38.9694 68.9823 39.1611 68.0652 39.5444 67.2922C39.9277 66.5191 40.4534 65.923 41.1217 65.5038C41.7899 65.0845 42.5531 64.8749 43.4113 64.875C43.919 64.875 44.3956 64.9487 44.8411 65.0961C45.2899 65.2436 45.6944 65.4598 46.0547 65.7448C46.415 66.0265 46.7163 66.3704 46.9587 66.7766C47.2011 67.1795 47.3681 67.6398 47.4598 68.1573ZM49.4285 75.0754L49.429 65.0129L50.6475 65.0129L50.6472 70.0049L50.7652 70.0049L55.2857 65.0132L56.8776 65.0132L52.6519 69.553L56.8771 75.0758L55.4031 75.0757L51.905 70.398L50.6472 71.813L50.647 75.0755L49.4285 75.0754ZM58.4543 75.0759L58.4548 65.0133L64.5278 65.0136L64.5277 66.0946L59.6733 66.0943L59.6731 69.4944L64.2131 69.4946L64.213 70.5755L59.6731 70.5753L59.6729 73.995L64.6059 73.9953L64.6059 75.0762L58.4543 75.0759ZM66.1737 66.0947L66.1737 65.0137L73.7207 65.0141L73.7206 66.095L70.5564 66.0949L70.556 75.0765L69.3374 75.0765L69.3379 66.0948L66.1737 66.0947Z" fill="#F98DC6"/>
<path d="M100.239 69.6365L100.404 70.0849L104.064 80.0754C104.148 79.9981 104.224 79.8815 104.292 79.7159C104.419 79.4087 104.485 78.998 104.512 78.5669C104.539 78.1408 104.526 77.7183 104.505 77.4002C104.495 77.2418 104.483 77.1105 104.474 77.0194C104.47 76.9738 104.466 76.9383 104.463 76.9146L104.46 76.8879L104.459 76.8815L104.459 76.8801L104.459 76.88L100.239 69.6365ZM100.239 69.6365L99.8903 69.9623L95.2238 74.3163L95.1096 74.4229L95.1246 74.5784L95.3334 76.7311L94.8496 75.3591L94.7288 75.0164L94.4059 75.183C94.2196 75.279 94.0469 75.3196 93.9121 75.3196C93.776 75.3196 93.702 75.2798 93.6673 75.244C93.6627 75.2393 93.6403 75.2095 93.6201 75.1364C93.6011 75.0679 93.5899 74.9822 93.5899 74.8915C93.5899 74.8008 93.6011 74.7152 93.6201 74.6467C93.6403 74.5736 93.6627 74.5438 93.6673 74.5391L94.0039 74.1919L93.5511 74.0221L92.1461 73.4953L94.2963 73.717L94.4491 73.7328L94.5561 73.6225L99.0004 69.0393L99.3324 68.6969L98.888 68.5238L89.1874 64.7447C89.2631 64.6486 89.3811 64.5638 89.5496 64.4901C89.844 64.3613 90.239 64.293 90.6555 64.2653C91.067 64.2379 91.4754 64.2515 91.7831 64.2724C91.9363 64.2828 92.0632 64.2949 92.1514 64.3044C92.1954 64.3091 92.2296 64.3132 92.2526 64.316L92.2783 64.3193L92.2843 64.3201L92.2856 64.3203L92.2857 64.3203L92.2858 64.3203L92.2858 64.3203L92.2931 64.3213L92.3006 64.322L97.4114 64.7803L97.5619 64.7938L97.6671 64.6854L98.556 63.7687L98.556 63.7687C98.5948 63.7287 98.6721 63.6931 98.7731 63.6931C98.874 63.6931 98.9513 63.7287 98.9901 63.7687L99.4345 64.227C99.5614 64.3578 99.5674 64.4683 99.5674 64.6941V64.9824L99.8545 65.0094L102.299 65.2385L102.45 65.2527L102.556 65.1437L102.328 64.9232L102.556 65.1437L102.556 65.1436L102.556 65.1431L102.558 65.1415L102.564 65.1351L102.588 65.1101L102.681 65.0143L103.018 64.6675L104.083 63.5682L106.111 61.4772C106.362 61.2186 106.764 61.1126 107.156 61.0857C107.323 61.0742 107.476 61.0779 107.595 61.0857C107.603 61.2107 107.607 61.3735 107.596 61.5513C107.569 61.9595 107.465 62.3796 107.212 62.6403L107.196 62.6564L107.183 62.6745C106.868 63.1078 106 64.0046 105.188 64.8134C104.787 65.213 104.406 65.5843 104.126 65.8557C103.985 65.9914 103.87 66.1021 103.79 66.1788L103.698 66.2672L103.674 66.2902L103.668 66.296L103.666 66.2975L103.666 66.2978L103.666 66.2979L103.884 66.5273L103.666 66.2979L103.567 66.3915V66.5273V66.7565V66.7704L103.569 66.7843L103.791 69.305L103.851 69.9947L104.333 69.4977C104.391 69.4379 104.426 69.4021 104.453 69.3768C104.458 69.3723 104.463 69.3686 104.466 69.3656C104.482 69.3649 104.506 69.3647 104.551 69.3647C104.564 69.3647 104.609 69.3768 104.677 69.4236C104.705 69.4433 104.73 69.4634 104.747 69.4787C104.756 69.4861 104.762 69.492 104.765 69.4955L104.768 69.4984L104.769 69.4987L104.769 69.4988L104.769 69.4988L104.769 69.4989L105.212 69.9559C105.252 69.9972 105.289 70.0821 105.289 70.1938C105.289 70.3056 105.252 70.3904 105.212 70.4317L104.323 71.3483L104.234 71.4405V71.4813L103.983 71.4813L104.013 71.8258L104.457 76.8672L104.457 76.8672L104.459 76.8799L100.239 69.6365Z" stroke="#F98DC6" stroke-width="0.633333"/>
<path d="M183.875 57.4023V162.127" stroke="url(#paint11_linear_4013_23231)" stroke-opacity="0.6" stroke-width="1.26667" stroke-miterlimit="10" stroke-dasharray="2.56 2.56"/>
<path d="M6.25086 82.9609C6.25086 104.212 6.09733 125.676 5.63672 146.928" stroke="#F98DC6" stroke-width="0.633333" stroke-miterlimit="10"/>
<path d="M10.1056 133.031C9.88335 139.677 9.88334 146.322 10.55 152.968" stroke="#F98DC6" stroke-width="0.633333" stroke-miterlimit="10"/>
<line x1="1.95312" y1="80.1091" x2="256.208" y2="80.1091" stroke="url(#paint12_linear_4013_23231)" stroke-width="0.633333"/>
<defs>
<linearGradient id="paint0_linear_4013_23231" x1="40.9014" y1="46.5357" x2="280.852" y2="76.1647" gradientUnits="userSpaceOnUse">
<stop stop-color="#F98DC6"/>
<stop offset="1" stop-color="#F98DC6" stop-opacity="0"/>
</linearGradient>
<linearGradient id="paint1_linear_4013_23231" x1="233.104" y1="46.6226" x2="284.312" y2="37.5645" gradientUnits="userSpaceOnUse">
<stop stop-color="#F98DC6"/>
<stop offset="1" stop-color="#F98DC6" stop-opacity="0"/>
</linearGradient>
<linearGradient id="paint2_linear_4013_23231" x1="65.2205" y1="77.8926" x2="205.909" y2="52.8654" gradientUnits="userSpaceOnUse">
<stop stop-color="#F98DC6"/>
<stop offset="1" stop-color="#F98DC6" stop-opacity="0"/>
</linearGradient>
<linearGradient id="paint3_linear_4013_23231" x1="247.794" y1="77.5666" x2="274.275" y2="77.3245" gradientUnits="userSpaceOnUse">
<stop stop-color="#F98DC6"/>
<stop offset="1" stop-color="#F98DC6" stop-opacity="0"/>
</linearGradient>
<linearGradient id="paint4_linear_4013_23231" x1="42.1902" y1="68.8958" x2="291.296" y2="17.9343" gradientUnits="userSpaceOnUse">
<stop stop-color="#F98DC6"/>
<stop offset="1" stop-color="#F98DC6" stop-opacity="0"/>
</linearGradient>
<linearGradient id="paint5_linear_4013_23231" x1="217.283" y1="27.5149" x2="241.932" y2="32.1507" gradientUnits="userSpaceOnUse">
<stop stop-color="#F98DC6"/>
<stop offset="0.765" stop-color="#F98DC6" stop-opacity="0"/>
</linearGradient>
<linearGradient id="paint6_linear_4013_23231" x1="1.23391" y1="114.199" x2="269.59" y2="161.014" gradientUnits="userSpaceOnUse">
<stop stop-color="#F98DC6"/>
<stop offset="1" stop-color="#F98DC6" stop-opacity="0"/>
</linearGradient>
<linearGradient id="paint7_linear_4013_23231" x1="195.25" y1="94.994" x2="247.201" y2="94.9652" gradientUnits="userSpaceOnUse">
<stop stop-color="#F98DC6"/>
<stop offset="1" stop-color="#F98DC6" stop-opacity="0"/>
</linearGradient>
<linearGradient id="paint8_linear_4013_23231" x1="24.6686" y1="154.101" x2="167.42" y2="153.589" gradientUnits="userSpaceOnUse">
<stop stop-color="#F98DC6"/>
<stop offset="1" stop-color="#F98DC6" stop-opacity="0"/>
</linearGradient>
<linearGradient id="paint9_linear_4013_23231" x1="78.357" y1="134.165" x2="127.422" y2="134.156" gradientUnits="userSpaceOnUse">
<stop stop-color="#F98DC6"/>
<stop offset="1" stop-color="#F98DC6" stop-opacity="0"/>
</linearGradient>
<linearGradient id="paint10_linear_4013_23231" x1="202.931" y1="131.045" x2="242.838" y2="131.041" gradientUnits="userSpaceOnUse">
<stop stop-color="#F98DC6"/>
<stop offset="1" stop-color="#F98DC6" stop-opacity="0"/>
</linearGradient>
<linearGradient id="paint11_linear_4013_23231" x1="183.977" y1="73.587" x2="185.378" y2="73.6013" gradientUnits="userSpaceOnUse">
<stop stop-color="#F98DC6"/>
<stop offset="0.765" stop-color="#F98DC6" stop-opacity="0"/>
</linearGradient>
<linearGradient id="paint12_linear_4013_23231" x1="2.18365" y1="80.951" x2="256.052" y2="74.6454" gradientUnits="userSpaceOnUse">
<stop stop-color="#F98DC6"/>
<stop offset="1" stop-color="#F98DC6" stop-opacity="0"/>
</linearGradient>
<clipPath id="clip0_4013_23231">
<rect width="28" height="40" fill="white" transform="translate(259.516 56.6484)"/>
</clipPath>
</defs>
</svg>
