<svg class="Icon_Icon__u5MIj ChooseYourCardSlider_Mastercard__l0gH0" viewBox="0 0 87 58"><path d="M55.3609 49.1341H31.6367V8.80078H55.3609V49.1341Z" fill="#FF5F00"></path><path d="M33.3495 28.9671C33.3495 20.6633 37.3187 13.2664 43.5 8.49973C38.9798 5.01409 33.2751 2.93359 27.0751 2.93359C12.3979 2.93359 0.5 14.589 0.5 28.9671C0.5 43.3449 12.3979 55.0003 27.0751 55.0003C33.2751 55.0003 38.9798 52.9199 43.5 49.4342C37.3187 44.6675 33.3495 37.2706 33.3495 28.9671Z" fill="#EB001B"></path><path d="M86.5 28.9671C86.5 43.3449 74.6026 55.0003 59.9258 55.0003C53.7261 55.0003 48.0217 52.9199 43.5 49.4342C49.6827 44.6675 53.6517 37.2706 53.6517 28.9671C53.6517 20.6633 49.6827 13.2664 43.5 8.49973C48.0217 5.01409 53.7261 2.93359 59.9258 2.93359C74.6026 2.93359 86.5 14.589 86.5 28.9671Z" fill="#F79E1B"></path></svg>