<svg xmlns="http://www.w3.org/2000/svg" xmlns:xlink="http://www.w3.org/1999/xlink" viewBox="0 0 392 370" width="392" height="370" preserveAspectRatio="xMidYMid meet" style="width: 100%; height: 100%; transform: translate3d(0px, 0px, 0px); content-visibility: visible;"><defs><clipPath id="__lottie_element_148"><rect width="392" height="370" x="0" y="0"></rect></clipPath></defs><g clip-path="url(#__lottie_element_148)"><g transform="matrix(0.9999988079071045,0,0,0.9999988079071045,30.500198364257812,27.390182495117188)" opacity="0.11999963952180505" style="display: block;"><g opacity="1" transform="matrix(1,0,0,1,166,158)"><path fill="rgb(249,141,198)" fill-opacity="1" d=" M-166,-102 C-166,-132.92799377441406 -140.92799377441406,-158 -110,-158 C-110,-158 136,-158 136,-158 C152.56900024414062,-158 166,-144.56900024414062 166,-128 C166,-128 166,102 166,102 C166,132.92799377441406 140.92799377441406,158 110,158 C110,158 -136,158 -136,158 C-152.56900024414062,158 -166,144.56900024414062 -166,128 C-166,128 -166,-102 -166,-102z"></path></g><g opacity="1" transform="matrix(1,0,0,1,166,158)"><path stroke-linecap="butt" stroke-linejoin="miter" fill-opacity="0" stroke-miterlimit="4" stroke="rgb(249,141,198)" stroke-opacity="1" stroke-width="1" d=" M-110,-157.5 C-110,-157.5 136,-157.5 136,-157.5 C152.29200744628906,-157.5 165.5,-144.29200744628906 165.5,-128 C165.5,-128 165.5,102 165.5,102 C165.5,132.65199279785156 140.65199279785156,157.5 110,157.5 C110,157.5 -136,157.5 -136,157.5 C-152.29200744628906,157.5 -165.5,144.29200744628906 -165.5,128 C-165.5,128 -165.5,-102 -165.5,-102 C-165.5,-132.65199279785156 -140.65199279785156,-157.5 -110,-157.5z"></path></g></g><g transform="matrix(0.9999966621398926,0,0,0.9999966621398926,46.50050354003906,43.390472412109375)" opacity="0.15999866538865606" style="display: block;"><g opacity="1" transform="matrix(1,0,0,1,150,142)"><path fill="rgb(249,141,198)" fill-opacity="1" d=" M-150,-97 C-150,-121.85299682617188 -129.85299682617188,-142 -105,-142 C-105,-142 130,-142 130,-142 C141.04600524902344,-142 150,-133.04600524902344 150,-122 C150,-122 150,97 150,97 C150,121.85299682617188 129.85299682617188,142 105,142 C105,142 -130,142 -130,142 C-141.04600524902344,142 -150,133.04600524902344 -150,122 C-150,122 -150,-97 -150,-97z"></path></g><g opacity="1" transform="matrix(1,0,0,1,150,142)"><path stroke-linecap="butt" stroke-linejoin="miter" fill-opacity="0" stroke-miterlimit="4" stroke="rgb(249,141,198)" stroke-opacity="1" stroke-width="1" d=" M-105,-141.5 C-105,-141.5 130,-141.5 130,-141.5 C140.77000427246094,-141.5 149.5,-132.77000427246094 149.5,-122 C149.5,-122 149.5,97 149.5,97 C149.5,121.5770034790039 129.57699584960938,141.5 105,141.5 C105,141.5 -130,141.5 -130,141.5 C-140.77000427246094,141.5 -149.5,132.77000427246094 -149.5,122 C-149.5,122 -149.5,-97 -149.5,-97 C-149.5,-121.5770034790039 -129.57699584960938,-141.5 -105,-141.5z"></path></g></g><g transform="matrix(1,0,0,1,33,27.389999389648438)" opacity="1" style="display: block;"><g opacity="1" transform="matrix(1,0,0,1,0,0)"><path stroke-linecap="butt" stroke-linejoin="miter" fill-opacity="0" stroke-miterlimit="4" stroke="rgb(219,146,255)" stroke-opacity="1" stroke-width="1" d=" M111,46.5 C111,46.5 111,0.5 111,0.5"></path></g><g opacity="1" transform="matrix(1,0,0,1,0,0)"><path stroke-linecap="butt" stroke-linejoin="miter" fill-opacity="0" stroke-miterlimit="4" stroke="rgb(255,255,255)" stroke-opacity="1" stroke-width="1" d=" M220,46.5 C220,46.5 220,0.5 220,0.5"></path></g><g opacity="1" transform="matrix(1,0,0,1,0,0)"><path stroke-linecap="butt" stroke-linejoin="miter" fill-opacity="0" stroke-miterlimit="4" stroke="rgb(255,255,255)" stroke-opacity="1" stroke-width="1" d=" M111,315.5 C111,315.5 111,268.5 111,268.5"></path></g><g opacity="1" transform="matrix(1,0,0,1,0,0)"><path stroke-linecap="butt" stroke-linejoin="miter" fill-opacity="0" stroke-miterlimit="4" stroke="rgb(37,36,57)" stroke-opacity="1" stroke-width="1" d=" M220,315.5 C220,315.5 220,268.5 220,268.5"></path></g><g opacity="1" transform="matrix(1,0,0,1,0,0)"><path stroke-linecap="butt" stroke-linejoin="miter" fill-opacity="0" stroke-miterlimit="4" stroke="rgb(225,225,225)" stroke-opacity="1" stroke-width="1" d=" M284.5,212 C284.5,212 330.5,212 330.5,212"></path></g><g opacity="1" transform="matrix(1,0,0,1,0,0)"><path stroke-linecap="butt" stroke-linejoin="miter" fill-opacity="0" stroke-miterlimit="4" stroke="rgb(37,36,57)" stroke-opacity="1" stroke-width="1" d=" M0.5,212 C0.5,212 46.5,212 46.5,212"></path></g><g opacity="1" transform="matrix(1,0,0,1,0,0)"><path stroke-linecap="butt" stroke-linejoin="miter" fill-opacity="0" stroke-miterlimit="4" stroke="rgb(219,146,255)" stroke-opacity="1" stroke-width="1" d=" M284.5,103 C284.5,103 330.5,103 330.5,103"></path></g><g opacity="1" transform="matrix(1,0,0,1,0,0)"><path stroke-linecap="butt" stroke-linejoin="miter" fill-opacity="0" stroke-miterlimit="4" stroke="rgb(225,225,225)" stroke-opacity="1" stroke-width="1" d=" M0.5,103 C0.5,103 46.5,103 46.5,103"></path></g></g><g transform="matrix(1,0,0,1,106.73799896240234,88.15499877929688)" opacity="1" style="display: block;"><g opacity="1" transform="matrix(1,0,0,1,90.26200103759766,97.23500061035156)"><path fill="rgb(255,255,255)" fill-opacity="0.38" d=" M-89.26200103759766,-44.23400115966797 C-89.26200103759766,-68.74700164794922 -89.26200103759766,-81.00499725341797 -81.64600372314453,-88.62000274658203 C-74.03099822998047,-96.23500061035156 -61.775001525878906,-96.23400115966797 -37.262001037597656,-96.23400115966797 C-37.262001037597656,-96.23400115966797 37.262001037597656,-96.23400115966797 37.262001037597656,-96.23400115966797 C61.775001525878906,-96.23400115966797 74.03099822998047,-96.23500061035156 81.64600372314453,-88.62000274658203 C89.26200103759766,-81.00499725341797 89.26200103759766,-68.74700164794922 89.26200103759766,-44.23400115966797 C89.26200103759766,-44.23400115966797 89.26200103759766,44.23500061035156 89.26200103759766,44.23500061035156 C89.26200103759766,68.74800109863281 89.26200103759766,81.00299835205078 81.64600372314453,88.61799621582031 C74.03099822998047,96.23400115966797 61.775001525878906,96.23400115966797 37.262001037597656,96.23400115966797 C37.262001037597656,96.23400115966797 -37.262001037597656,96.23400115966797 -37.262001037597656,96.23400115966797 C-61.775001525878906,96.23400115966797 -74.03099822998047,96.23400115966797 -81.64600372314453,88.61799621582031 C-89.26200103759766,81.00299835205078 -89.26200103759766,68.74800109863281 -89.26200103759766,44.23500061035156 C-89.26200103759766,44.23500061035156 -89.26200103759766,-44.23400115966797 -89.26200103759766,-44.23400115966797z"></path></g><g opacity="1" transform="matrix(1,0,0,1,89.76200103759766,97.23500061035156)"><path fill="rgb(249,142,198)" fill-opacity="0.18" d=" M-89.76200103759766,-70.23400115966797 C-89.76200103759766,-85.14600372314453 -77.6729965209961,-97.23400115966797 -62.762001037597656,-97.23400115966797 C-62.762001037597656,-97.23400115966797 62.762001037597656,-97.23400115966797 62.762001037597656,-97.23400115966797 C77.6729965209961,-97.23400115966797 89.76200103759766,-85.14600372314453 89.76200103759766,-70.23400115966797 C89.76200103759766,-84.04100036621094 78.12100219726562,-95.23400115966797 63.762001037597656,-95.23400115966797 C63.762001037597656,-95.23400115966797 -62.762001037597656,-95.23400115966797 -62.762001037597656,-95.23400115966797 C-76.56900024414062,-95.23400115966797 -87.76200103759766,-84.04100036621094 -87.76200103759766,-70.23400115966797 C-87.76200103759766,-70.23400115966797 -89.76200103759766,-70.23400115966797 -89.76200103759766,-70.23400115966797z M89.76200103759766,70.23400115966797 C89.76200103759766,85.1449966430664 77.6729965209961,97.23400115966797 62.762001037597656,97.23400115966797 C62.762001037597656,97.23400115966797 -62.762001037597656,97.23400115966797 -62.762001037597656,97.23400115966797 C-77.6729965209961,97.23400115966797 -89.76200103759766,85.1449966430664 -89.76200103759766,70.23400115966797 C-89.76200103759766,70.23400115966797 -87.76200103759766,70.23400115966797 -87.76200103759766,70.23400115966797 C-87.76200103759766,84.04100036621094 -76.56900024414062,95.23400115966797 -62.762001037597656,95.23400115966797 C-62.762001037597656,95.23400115966797 63.762001037597656,95.23400115966797 63.762001037597656,95.23400115966797 C78.12100219726562,95.23400115966797 89.76200103759766,84.04100036621094 89.76200103759766,70.23400115966797z M-62.762001037597656,97.23400115966797 C-77.6729965209961,97.23400115966797 -89.76200103759766,85.1449966430664 -89.76200103759766,70.23400115966797 C-89.76200103759766,70.23400115966797 -89.76200103759766,-70.23400115966797 -89.76200103759766,-70.23400115966797 C-89.76200103759766,-85.14600372314453 -77.6729965209961,-97.23400115966797 -62.762001037597656,-97.23400115966797 C-62.762001037597656,-97.23400115966797 -62.762001037597656,-95.23400115966797 -62.762001037597656,-95.23400115966797 C-76.56900024414062,-95.23400115966797 -87.76200103759766,-84.04100036621094 -87.76200103759766,-70.23400115966797 C-87.76200103759766,-70.23400115966797 -87.76200103759766,70.23400115966797 -87.76200103759766,70.23400115966797 C-87.76200103759766,84.04100036621094 -76.56900024414062,95.23400115966797 -62.762001037597656,95.23400115966797 C-62.762001037597656,95.23400115966797 -62.762001037597656,97.23400115966797 -62.762001037597656,97.23400115966797z M89.76200103759766,-96.23400115966797 C89.76200103759766,-96.23400115966797 89.76200103759766,96.23400115966797 89.76200103759766,96.23400115966797 C89.76200103759766,96.23400115966797 89.76200103759766,-96.23400115966797 89.76200103759766,-96.23400115966797z"></path></g></g><g transform="matrix(1,0,0,1,118.58200073242188,78.52200317382812)" opacity="1" style="display: block;"><g opacity="1" transform="matrix(1,0,0,1,77.91799926757812,94.86799621582031)"><path fill="rgb(255,255,255)" fill-opacity="1" d=" M-51.667999267578125,-94.61799621582031 C-51.667999267578125,-94.61799621582031 51.667999267578125,-94.61799621582031 51.667999267578125,-94.61799621582031 C66.0270004272461,-94.61799621582031 77.66799926757812,-82.97699737548828 77.66799926757812,-68.61799621582031 C77.66799926757812,-68.61799621582031 77.66799926757812,68.61799621582031 77.66799926757812,68.61799621582031 C77.66799926757812,82.97699737548828 66.0270004272461,94.61799621582031 51.667999267578125,94.61799621582031 C51.667999267578125,94.61799621582031 -51.667999267578125,94.61799621582031 -51.667999267578125,94.61799621582031 C-66.0270004272461,94.61799621582031 -77.66799926757812,82.97699737548828 -77.66799926757812,68.61799621582031 C-77.66799926757812,68.61799621582031 -77.66799926757812,-68.61799621582031 -77.66799926757812,-68.61799621582031 C-77.66799926757812,-82.97699737548828 -66.0270004272461,-94.61799621582031 -51.667999267578125,-94.61799621582031z"></path></g><g opacity="1" transform="matrix(1,0,0,1,77.91699981689453,94.86799621582031)"><path stroke-linecap="butt" stroke-linejoin="miter" fill-opacity="0" stroke-miterlimit="4" stroke="rgb(249,142,198)" stroke-opacity="0.18" stroke-width="0.736" d=" M-51.66699981689453,-94.25 C-51.66699981689453,-94.25 51.66699981689453,-94.25 51.66699981689453,-94.25 C65.822998046875,-94.25 77.29900360107422,-82.77400207519531 77.29900360107422,-68.61799621582031 C77.29900360107422,-68.61799621582031 77.29900360107422,68.61799621582031 77.29900360107422,68.61799621582031 C77.29900360107422,82.77400207519531 65.822998046875,94.25 51.66699981689453,94.25 C51.66699981689453,94.25 -51.66699981689453,94.25 -51.66699981689453,94.25 C-65.822998046875,94.25 -77.29900360107422,82.77400207519531 -77.29900360107422,68.61799621582031 C-77.29900360107422,68.61799621582031 -77.29900360107422,-68.61799621582031 -77.29900360107422,-68.61799621582031 C-77.29900360107422,-82.77400207519531 -65.822998046875,-94.25 -51.66699981689453,-94.25z"></path></g></g><g transform="matrix(1,0,0,1,142.88900756835938,104.88999938964844)" opacity="1" style="display: block;"><g opacity="1" transform="matrix(1,0,0,1,0,0)"><path stroke-linecap="round" stroke-linejoin="miter" fill-opacity="0" stroke-miterlimit="4" stroke="rgb(0,0,0)" stroke-opacity="1" stroke-width="2" d=" M1,1 C1,1 75.36299896240234,1 75.36299896240234,1"></path></g><g opacity="1" transform="matrix(1,0,0,1,0,0)"><path stroke-linecap="round" stroke-linejoin="miter" fill-opacity="0" stroke-miterlimit="4" stroke="rgb(243,138,178)" stroke-opacity="1" stroke-width="2" d=" M1,12 C1,12 92.2229995727539,12 92.2229995727539,12"></path></g><g opacity="1" transform="matrix(1,0,0,1,0,0)"><path stroke-linecap="round" stroke-linejoin="miter" fill-opacity="0" stroke-miterlimit="4" stroke="rgb(0,0,0)" stroke-opacity="1" stroke-width="2" d=" M1,23 C1,23 57.512001037597656,23 57.512001037597656,23"></path></g><g opacity="1" transform="matrix(1,0,0,1,0,0)"><path stroke-linecap="round" stroke-linejoin="miter" fill-opacity="0" stroke-miterlimit="4" stroke="rgb(243,138,178)" stroke-opacity="1" stroke-width="2" d=" M1,34 C1,34 45,34 45,34"></path></g><g opacity="1" transform="matrix(1,0,0,1,0,0)"><path stroke-linecap="round" stroke-linejoin="miter" fill-opacity="0" stroke-miterlimit="4" stroke="rgb(0,0,0)" stroke-opacity="1" stroke-width="2" d=" M1,45 C1,45 68,45 68,45"></path></g><g opacity="1" transform="matrix(1,0,0,1,0,0)"><path stroke-linecap="round" stroke-linejoin="miter" fill-opacity="0" stroke-miterlimit="4" stroke="rgb(243,138,178)" stroke-opacity="1" stroke-width="2" d=" M1,56 C1,56 81,56 81,56"></path></g></g><g transform="matrix(1,0,0,1,206.5,197.38999938964844)" opacity="1" style="display: block;"><g opacity="1" transform="matrix(1,0,0,1,0,0)"><path stroke-linecap="round" stroke-linejoin="miter" fill-opacity="0" stroke-miterlimit="4" stroke="rgb(231,231,231)" stroke-opacity="1" stroke-width="1" d=" M53.5,0.5 C53.5,0.5 15.5,0.5 15.5,0.5"></path></g><g opacity="1" transform="matrix(1,0,0,1,0,0)"><path stroke-linecap="round" stroke-linejoin="miter" fill-opacity="0" stroke-miterlimit="4" stroke="rgb(231,231,231)" stroke-opacity="1" stroke-width="1" d=" M53.5,9.5 C53.5,9.5 0.5,9.5 0.5,9.5"></path></g><g opacity="1" transform="matrix(1,0,0,1,0,0)"><path stroke-linecap="round" stroke-linejoin="miter" fill-opacity="0" stroke-miterlimit="4" stroke="rgb(231,231,231)" stroke-opacity="1" stroke-width="1" d=" M53.5,18.5 C53.5,18.5 27.5,18.5 27.5,18.5"></path></g><g opacity="1" transform="matrix(1,0,0,1,0,0)"><path stroke-linecap="round" stroke-linejoin="miter" fill-opacity="0" stroke-miterlimit="4" stroke="rgb(231,231,231)" stroke-opacity="1" stroke-width="1" d=" M53.5,27.5 C53.5,27.5 8.5,27.5 8.5,27.5"></path></g><g opacity="1" transform="matrix(1,0,0,1,0,0)"><path stroke-linecap="round" stroke-linejoin="miter" fill-opacity="0" stroke-miterlimit="4" stroke="rgb(231,231,231)" stroke-opacity="1" stroke-width="1" d=" M53.5,36.5 C53.5,36.5 19.5,36.5 19.5,36.5"></path></g><g opacity="1" transform="matrix(1,0,0,1,0,0)"><path stroke-linecap="round" stroke-linejoin="miter" fill-opacity="0" stroke-miterlimit="4" stroke="rgb(231,231,231)" stroke-opacity="1" stroke-width="1" d=" M53.5,45.5 C53.5,45.5 5.5,45.5 5.5,45.5"></path></g></g><g transform="matrix(1,0,0,1,143.75,178.75)" opacity="1" style="display: block;"><g opacity="1" transform="matrix(1,0,0,1,18.385000228881836,6.2220001220703125)"><path fill="rgb(0,0,0)" fill-opacity="1" d=" M-0.1770000010728836,-5.756999969482422 C-0.1770000010728836,-5.756999969482422 -2.5989999771118164,5.795000076293945 -2.5989999771118164,5.795000076293945 C-2.5989999771118164,5.795000076293945 -5.531000137329102,5.795000076293945 -5.531000137329102,5.795000076293945 C-5.531000137329102,5.795000076293945 -3.1050000190734863,-5.756999969482422 -3.1050000190734863,-5.756999969482422 C-3.1050000190734863,-5.756999969482422 -0.1770000010728836,-5.756999969482422 -0.1770000010728836,-5.756999969482422z M12.156000137329102,1.7020000219345093 C12.156000137329102,1.7020000219345093 13.697999954223633,-2.63700008392334 13.697999954223633,-2.63700008392334 C13.697999954223633,-2.63700008392334 14.586000442504883,1.7020000219345093 14.586000442504883,1.7020000219345093 C14.586000442504883,1.7020000219345093 12.156000137329102,1.7020000219345093 12.156000137329102,1.7020000219345093z M15.423999786376953,5.795000076293945 C15.423999786376953,5.795000076293945 18.13599967956543,5.795000076293945 18.13599967956543,5.795000076293945 C18.13599967956543,5.795000076293945 15.770000457763672,-5.756999969482422 15.770000457763672,-5.756999969482422 C15.770000457763672,-5.756999969482422 13.267999649047852,-5.756999969482422 13.267999649047852,-5.756999969482422 C13.267999649047852,-5.756999969482422 13.255999565124512,-5.756999969482422 13.255999565124512,-5.756999969482422 C12.701000213623047,-5.756999969482422 12.225000381469727,-5.410999774932861 12.02400016784668,-4.919000148773193 C12.02400016784668,-4.919000148773193 12.020000457763672,-4.909999847412109 12.020000457763672,-4.909999847412109 C12.020000457763672,-4.909999847412109 7.624000072479248,5.795000076293945 7.624000072479248,5.795000076293945 C7.624000072479248,5.795000076293945 10.701000213623047,5.795000076293945 10.701000213623047,5.795000076293945 C10.701000213623047,5.795000076293945 11.312000274658203,4.068999767303467 11.312000274658203,4.068999767303467 C11.312000274658203,4.068999767303467 15.072999954223633,4.068999767303467 15.072999954223633,4.068999767303467 C15.072999954223633,4.068999767303467 15.423999786376953,5.795000076293945 15.423999786376953,5.795000076293945z M7.775000095367432,2.0239999294281006 C7.7870001792907715,-1.0260000228881836 3.6410000324249268,-1.194000005722046 3.6700000762939453,-2.556999921798706 C3.678999900817871,-2.9709999561309814 4.064000129699707,-3.4130001068115234 4.910999774932861,-3.5250000953674316 C5.067999839782715,-3.5409998893737793 5.25,-3.5510001182556152 5.434000015258789,-3.5510001182556152 C6.294000148773193,-3.5510001182556152 7.109000205993652,-3.3510000705718994 7.835000038146973,-2.99399995803833 C7.835000038146973,-2.99399995803833 7.802000045776367,-3.007999897003174 7.802000045776367,-3.007999897003174 C7.802000045776367,-3.007999897003174 8.315999984741211,-5.459000110626221 8.315999984741211,-5.459000110626221 C7.501999855041504,-5.781000137329102 6.559999942779541,-5.9679999351501465 5.576000213623047,-5.9720001220703125 C5.576000213623047,-5.9720001220703125 5.573999881744385,-5.9720001220703125 5.573999881744385,-5.9720001220703125 C2.677000045776367,-5.9720001220703125 0.6380000114440918,-4.400000095367432 0.6200000047683716,-2.1510000228881836 C0.6019999980926514,-0.48899999260902405 2.0759999752044678,0.43799999356269836 3.187000036239624,0.9929999709129333 C4.329999923706055,1.559000015258789 4.7129998207092285,1.9229999780654907 4.706999778747559,2.427000045776367 C4.699999809265137,3.2039999961853027 3.7980000972747803,3.5450000762939453 2.9539999961853027,3.558000087738037 C2.9149999618530273,3.559999942779541 2.868000030517578,3.559999942779541 2.822000026702881,3.559999942779541 C1.7680000066757202,3.559999942779541 0.7760000228881836,3.2899999618530273 -0.09000000357627869,2.812000036239624 C-0.09000000357627869,2.812000036239624 -0.05700000002980232,2.8269999027252197 -0.05700000002980232,2.8269999027252197 C-0.05700000002980232,2.8269999027252197 -0.5879999995231628,5.359000205993652 -0.5879999995231628,5.359000205993652 C0.3619999885559082,5.747000217437744 1.4639999866485596,5.9720001220703125 2.618000030517578,5.9720001220703125 C2.618000030517578,5.9720001220703125 2.671999931335449,5.9720001220703125 2.671999931335449,5.9720001220703125 C2.671999931335449,5.9720001220703125 2.6710000038146973,5.9720001220703125 2.6710000038146973,5.9720001220703125 C5.75,5.9720001220703125 7.76200008392334,4.421000003814697 7.7729997634887695,2.0190000534057617 C7.7729997634887695,2.0190000534057617 7.775000095367432,2.0239999294281006 7.775000095367432,2.0239999294281006z M-4.364999771118164,-5.756999969482422 C-4.364999771118164,-5.756999969482422 -9.11299991607666,5.795000076293945 -9.11299991607666,5.795000076293945 C-9.11299991607666,5.795000076293945 -12.211000442504883,5.795000076293945 -12.211000442504883,5.795000076293945 C-12.211000442504883,5.795000076293945 -14.54800033569336,-3.427000045776367 -14.54800033569336,-3.427000045776367 C-14.593000411987305,-3.875 -14.862000465393066,-4.25 -15.237000465393066,-4.438000202178955 C-15.237000465393066,-4.438000202178955 -15.244000434875488,-4.441999912261963 -15.244000434875488,-4.441999912261963 C-16.076000213623047,-4.857999801635742 -17.04400062561035,-5.197999954223633 -18.055999755859375,-5.410999774932861 C-18.055999755859375,-5.410999774932861 -18.13599967956543,-5.423999786376953 -18.13599967956543,-5.423999786376953 C-18.13599967956543,-5.423999786376953 -18.06599998474121,-5.758999824523926 -18.06599998474121,-5.758999824523926 C-18.06599998474121,-5.758999824523926 -13.07800006866455,-5.758999824523926 -13.07800006866455,-5.758999824523926 C-12.39900016784668,-5.758999824523926 -11.833999633789062,-5.251999855041504 -11.729000091552734,-4.590000152587891 C-11.729000091552734,-4.590000152587891 -11.727999687194824,-4.581999778747559 -11.727999687194824,-4.581999778747559 C-11.727999687194824,-4.581999778747559 -10.493000030517578,2.1029999256134033 -10.493000030517578,2.1029999256134033 C-10.493000030517578,2.1029999256134033 -7.442999839782715,-5.760000228881836 -7.442999839782715,-5.760000228881836 C-7.442999839782715,-5.760000228881836 -4.364999771118164,-5.756999969482422 -4.364999771118164,-5.756999969482422z"></path></g></g><g transform="matrix(1,0,0,1,143.37701416015625,201.9810028076172)" opacity="1" style="display: block;"><g opacity="1" transform="matrix(1,0,0,1,8.008000373840332,9.760000228881836)"><path fill="rgb(226,24,54)" fill-opacity="1" d=" M-1.5850000381469727,-9.510000228881836 C-1.5850000381469727,-9.510000228881836 6.0329999923706055,-9.510000228881836 6.0329999923706055,-9.510000228881836 C7.0960001945495605,-9.510000228881836 7.757999897003174,-8.647000312805176 7.508999824523926,-7.584000110626221 C7.508999824523926,-7.584000110626221 3.9630000591278076,7.585999965667725 3.9630000591278076,7.585999965667725 C3.7130000591278076,8.645000457763672 2.6480000019073486,9.510000228881836 1.5839999914169312,9.510000228881836 C1.5839999914169312,9.510000228881836 -6.0329999923706055,9.510000228881836 -6.0329999923706055,9.510000228881836 C-7.09499979019165,9.510000228881836 -7.757999897003174,8.645000457763672 -7.510000228881836,7.585999965667725 C-7.510000228881836,7.585999965667725 -3.9619998931884766,-7.584000110626221 -3.9619998931884766,-7.584000110626221 C-3.7139999866485596,-8.647000312805176 -2.6500000953674316,-9.510000228881836 -1.5850000381469727,-9.510000228881836z"></path></g><g opacity="1" transform="matrix(1,0,0,1,15.232000350952148,9.760000228881836)"><path fill="rgb(0,68,124)" fill-opacity="1" d=" M-1.8240000009536743,-9.510000228881836 C-1.8240000009536743,-9.510000228881836 6.935999870300293,-9.510000228881836 6.935999870300293,-9.510000228881836 C7.999000072479248,-9.510000228881836 7.519999980926514,-8.647000312805176 7.269999980926514,-7.584000110626221 C7.269999980926514,-7.584000110626221 3.7230000495910645,7.585999965667725 3.7230000495910645,7.585999965667725 C3.4739999771118164,8.645000457763672 3.552000045776367,9.510000228881836 2.4860000610351562,9.510000228881836 C2.4860000610351562,9.510000228881836 -6.2729997634887695,9.510000228881836 -6.2729997634887695,9.510000228881836 C-7.339000225067139,9.510000228881836 -7.999000072479248,8.645000457763672 -7.749000072479248,7.585999965667725 C-7.749000072479248,7.585999965667725 -4.202000141143799,-7.584000110626221 -4.202000141143799,-7.584000110626221 C-3.950000047683716,-8.647000312805176 -2.888000011444092,-9.510000228881836 -1.8240000009536743,-9.510000228881836z"></path></g><g opacity="1" transform="matrix(1,0,0,1,23.4060001373291,9.760000228881836)"><path fill="rgb(0,123,132)" fill-opacity="1" d=" M-1.5850000381469727,-9.510000228881836 C-1.5850000381469727,-9.510000228881836 6.0320000648498535,-9.510000228881836 6.0320000648498535,-9.510000228881836 C7.0970001220703125,-9.510000228881836 7.758999824523926,-8.647000312805176 7.507999897003174,-7.584000110626221 C7.507999897003174,-7.584000110626221 3.9619998931884766,7.585999965667725 3.9619998931884766,7.585999965667725 C3.7119998931884766,8.645000457763672 2.6470000743865967,9.510000228881836 1.5820000171661377,9.510000228881836 C1.5820000171661377,9.510000228881836 -6.0320000648498535,9.510000228881836 -6.0320000648498535,9.510000228881836 C-7.0980000495910645,9.510000228881836 -7.758999824523926,8.645000457763672 -7.508999824523926,7.585999965667725 C-7.508999824523926,7.585999965667725 -3.9619998931884766,-7.584000110626221 -3.9619998931884766,-7.584000110626221 C-3.7139999866485596,-8.647000312805176 -2.6510000228881836,-9.510000228881836 -1.5850000381469727,-9.510000228881836z"></path></g><g opacity="1" transform="matrix(1,0,0,1,16.256000518798828,10.211999893188477)"><path fill="rgb(254,254,254)" fill-opacity="1" d=" M-7.8429999351501465,-5.104000091552734 C-8.62600040435791,-5.0960001945495605 -8.857999801635742,-5.103000164031982 -8.932000160217285,-5.119999885559082 C-8.960000038146973,-4.986000061035156 -9.48900032043457,-2.556999921798706 -9.489999771118164,-2.555000066757202 C-9.604000091552734,-2.063999891281128 -9.687000274658203,-1.7120000123977661 -9.968000411987305,-1.4859999418258667 C-10.128000259399414,-1.3550000190734863 -10.314000129699707,-1.2920000553131104 -10.529999732971191,-1.2920000553131104 C-10.878000259399414,-1.2920000553131104 -11.079999923706055,-1.4639999866485596 -11.11400032043457,-1.7899999618530273 C-11.11400032043457,-1.7899999618530273 -11.121000289916992,-1.9019999504089355 -11.121000289916992,-1.9019999504089355 C-11.121000289916992,-1.9019999504089355 -11.015000343322754,-2.559000015258789 -11.015000343322754,-2.562999963760376 C-11.015000343322754,-2.562999963760376 -10.460000038146973,-4.7779998779296875 -10.361000061035156,-5.070000171661377 C-10.354999542236328,-5.086999893188477 -10.354000091552734,-5.0960001945495605 -10.352999687194824,-5.104000091552734 C-11.432999610900879,-5.093999862670898 -11.62399959564209,-5.103000164031982 -11.63700008392334,-5.119999885559082 C-11.644000053405762,-5.0960001945495605 -11.670999526977539,-4.960000038146973 -11.670999526977539,-4.960000038146973 C-11.670999526977539,-4.960000038146973 -12.23799991607666,-2.4639999866485596 -12.23799991607666,-2.4639999866485596 C-12.23799991607666,-2.4639999866485596 -12.28600025177002,-2.253000020980835 -12.28600025177002,-2.253000020980835 C-12.28600025177002,-2.253000020980835 -12.380000114440918,-1.5609999895095825 -12.380000114440918,-1.5609999895095825 C-12.380000114440918,-1.3559999465942383 -12.34000015258789,-1.187999963760376 -12.258999824523926,-1.0460000038146973 C-12.00100040435791,-0.597000002861023 -11.265000343322754,-0.5289999842643738 -10.848999977111816,-0.5289999842643738 C-10.312000274658203,-0.5289999842643738 -9.809000015258789,-0.6420000195503235 -9.468000411987305,-0.8500000238418579 C-8.878000259399414,-1.1970000267028809 -8.722999572753906,-1.7400000095367432 -8.586000442504883,-2.2230000495910645 C-8.586000442504883,-2.2230000495910645 -8.522000312805176,-2.4709999561309814 -8.522000312805176,-2.4709999561309814 C-8.522000312805176,-2.4709999561309814 -7.949999809265137,-4.770999908447266 -7.853000164031982,-5.070000171661377 C-7.848999977111816,-5.086999893188477 -7.8480000495910645,-5.0960001945495605 -7.8429999351501465,-5.104000091552734z M-5.8979997634887695,-3.249000072479248 C-6.035999774932861,-3.249000072479248 -6.288000106811523,-3.2139999866485596 -6.513999938964844,-3.1040000915527344 C-6.5960001945495605,-3.062000036239624 -6.673999786376953,-3.0139999389648438 -6.75600004196167,-2.9649999141693115 C-6.75600004196167,-2.9649999141693115 -6.682000160217285,-3.2320001125335693 -6.682000160217285,-3.2320001125335693 C-6.682000160217285,-3.2320001125335693 -6.7220001220703125,-3.2769999504089355 -6.7220001220703125,-3.2769999504089355 C-7.202000141143799,-3.180000066757202 -7.309000015258789,-3.1659998893737793 -7.751999855041504,-3.1040000915527344 C-7.751999855041504,-3.1040000915527344 -7.789000034332275,-3.0789999961853027 -7.789000034332275,-3.0789999961853027 C-7.841000080108643,-2.6549999713897705 -7.886000156402588,-2.3359999656677246 -8.07699966430664,-1.5010000467300415 C-8.149999618530273,-1.1929999589920044 -8.225000381469727,-0.8809999823570251 -8.300999641418457,-0.5740000009536743 C-8.300999641418457,-0.5740000009536743 -8.279999732971191,-0.5350000262260437 -8.279999732971191,-0.5350000262260437 C-7.826000213623047,-0.5590000152587891 -7.689000129699707,-0.5590000152587891 -7.294000148773193,-0.5529999732971191 C-7.294000148773193,-0.5529999732971191 -7.26200008392334,-0.5870000123977661 -7.26200008392334,-0.5870000123977661 C-7.211999893188477,-0.8429999947547913 -7.204999923706055,-0.902999997138977 -7.093999862670898,-1.4210000038146973 C-7.041999816894531,-1.6670000553131104 -6.933000087738037,-2.2070000171661377 -6.880000114440918,-2.4000000953674316 C-6.781000137329102,-2.444999933242798 -6.684000015258789,-2.490000009536743 -6.591000080108643,-2.490000009536743 C-6.369999885559082,-2.490000009536743 -6.396999835968018,-2.2980000972747803 -6.40500020980835,-2.2209999561309814 C-6.414999961853027,-2.0929999351501465 -6.494999885559082,-1.6720000505447388 -6.578000068664551,-1.3109999895095825 C-6.578000068664551,-1.3109999895095825 -6.632999897003174,-1.0789999961853027 -6.632999897003174,-1.0789999961853027 C-6.671999931335449,-0.9079999923706055 -6.714000225067139,-0.7409999966621399 -6.751999855041504,-0.5699999928474426 C-6.751999855041504,-0.5699999928474426 -6.735000133514404,-0.5350000262260437 -6.735000133514404,-0.5350000262260437 C-6.288000106811523,-0.5590000152587891 -6.1519999504089355,-0.5590000152587891 -5.769000053405762,-0.5529999732971191 C-5.769000053405762,-0.5529999732971191 -5.723999977111816,-0.5870000123977661 -5.723999977111816,-0.5870000123977661 C-5.65500020980835,-0.9869999885559082 -5.635000228881836,-1.0950000286102295 -5.513000011444092,-1.6759999990463257 C-5.513000011444092,-1.6759999990463257 -5.451000213623047,-1.9429999589920044 -5.451000213623047,-1.9429999589920044 C-5.330999851226807,-2.4660000801086426 -5.270999908447266,-2.7309999465942383 -5.361999988555908,-2.947000026702881 C-5.456999778747559,-3.188999891281128 -5.686999797821045,-3.249000072479248 -5.8979997634887695,-3.249000072479248z M-3.7260000705718994,-2.7009999752044678 C-3.9639999866485596,-2.6559998989105225 -4.116000175476074,-2.624000072479248 -4.265999794006348,-2.6050000190734863 C-4.415999889373779,-2.5810000896453857 -4.561999797821045,-2.559000015258789 -4.791999816894531,-2.5269999504089355 C-4.791999816894531,-2.5269999504089355 -4.809999942779541,-2.51200008392334 -4.809999942779541,-2.51200008392334 C-4.809999942779541,-2.51200008392334 -4.826000213623047,-2.499000072479248 -4.826000213623047,-2.499000072479248 C-4.849999904632568,-2.328000068664551 -4.867000102996826,-2.180999994277954 -4.89900016784668,-2.006999969482422 C-4.926000118255615,-1.8279999494552612 -4.9670000076293945,-1.6230000257492065 -5.034999847412109,-1.3309999704360962 C-5.086999893188477,-1.1069999933242798 -5.113999843597412,-1.0299999713897705 -5.14300012588501,-0.9509999752044678 C-5.171999931335449,-0.871999979019165 -5.203999996185303,-0.7950000166893005 -5.263000011444092,-0.5740000009536743 C-5.263000011444092,-0.5740000009536743 -5.249000072479248,-0.5550000071525574 -5.249000072479248,-0.5550000071525574 C-5.249000072479248,-0.5550000071525574 -5.23799991607666,-0.5350000262260437 -5.23799991607666,-0.5350000262260437 C-5.0229997634887695,-0.5450000166893005 -4.881999969482422,-0.5540000200271606 -4.73799991607666,-0.5550000071525574 C-4.593999862670898,-0.5600000023841858 -4.443999767303467,-0.5540000200271606 -4.2129998207092285,-0.5529999732971191 C-4.2129998207092285,-0.5529999732971191 -4.192999839782715,-0.5699999928474426 -4.192999839782715,-0.5699999928474426 C-4.192999839782715,-0.5699999928474426 -4.171000003814697,-0.5870000123977661 -4.171000003814697,-0.5870000123977661 C-4.13700008392334,-0.7860000133514404 -4.131999969482422,-0.8389999866485596 -4.111999988555908,-0.9359999895095825 C-4.0920000076293945,-1.0399999618530273 -4.057000160217285,-1.184999942779541 -3.9709999561309814,-1.5700000524520874 C-3.930999994277954,-1.75 -3.885999917984009,-1.9290000200271606 -3.8440001010894775,-2.11299991607666 C-3.799999952316284,-2.296999931335449 -3.753999948501587,-2.4779999256134033 -3.7109999656677246,-2.6579999923706055 C-3.7109999656677246,-2.6579999923706055 -3.7170000076293945,-2.680000066757202 -3.7170000076293945,-2.680000066757202 C-3.7170000076293945,-2.680000066757202 -3.7260000705718994,-2.7009999752044678 -3.7260000705718994,-2.7009999752044678z M-3.7209999561309814,-3.438999891281128 C-3.937000036239624,-3.565999984741211 -4.316999912261963,-3.5250000953674316 -4.572000026702881,-3.3499999046325684 C-4.826000213623047,-3.177999973297119 -4.855000019073486,-2.934000015258789 -4.639999866485596,-2.805000066757202 C-4.427999973297119,-2.680999994277954 -4.046999931335449,-2.7179999351501465 -3.7939999103546143,-2.8949999809265137 C-3.5399999618530273,-3.071000099182129 -3.507999897003174,-3.312999963760376 -3.7209999561309814,-3.438999891281128z M-2.4140000343322754,-0.4950000047683716 C-1.9769999980926514,-0.4950000047683716 -1.5290000438690186,-0.6159999966621399 -1.190999984741211,-0.9729999899864197 C-0.9319999814033508,-1.2619999647140503 -0.8130000233650208,-1.690999984741211 -0.7710000276565552,-1.8680000305175781 C-0.6370000243186951,-2.4539999961853027 -0.7419999837875366,-2.7279999256134033 -0.8730000257492065,-2.8949999809265137 C-1.0720000267028809,-3.1500000953674316 -1.4249999523162842,-3.2320001125335693 -1.7899999618530273,-3.2320001125335693 C-2.009999990463257,-3.2320001125335693 -2.5339999198913574,-3.2100000381469727 -2.943000078201294,-2.8350000381469727 C-3.236999988555908,-2.563999891281128 -3.371999979019165,-2.194999933242798 -3.4539999961853027,-1.8420000076293945 C-3.5369999408721924,-1.4830000400543213 -3.631999969482422,-0.8360000252723694 -3.0350000858306885,-0.5960000157356262 C-2.8510000705718994,-0.5170000195503235 -2.5850000381469727,-0.4950000047683716 -2.4140000343322754,-0.4950000047683716z M-2.447999954223633,-1.815999984741211 C-2.3469998836517334,-2.259999990463257 -2.2279999256134033,-2.632999897003174 -1.9249999523162842,-2.632999897003174 C-1.687000036239624,-2.632999897003174 -1.6690000295639038,-2.3550000190734863 -1.774999976158142,-1.909999966621399 C-1.7940000295639038,-1.8109999895095825 -1.88100004196167,-1.4429999589920044 -1.9980000257492065,-1.2860000133514404 C-2.0810000896453857,-1.1699999570846558 -2.177999973297119,-1.100000023841858 -2.2850000858306885,-1.100000023841858 C-2.316999912261963,-1.100000023841858 -2.506999969482422,-1.1009999513626099 -2.509999990463257,-1.3819999694824219 C-2.510999917984009,-1.5210000276565552 -2.4830000400543213,-1.6619999408721924 -2.447999954223633,-1.815999984741211z M0.32199999690055847,-0.5529999732971191 C0.32199999690055847,-0.5529999732971191 0.35600000619888306,-0.5870000123977661 0.35600000619888306,-0.5870000123977661 C0.40400001406669617,-0.8429999947547913 0.41200000047683716,-0.902999997138977 0.5199999809265137,-1.4210000038146973 C0.5730000138282776,-1.6670000553131104 0.6840000152587891,-2.2070000171661377 0.7369999885559082,-2.4000000953674316 C0.8349999785423279,-2.444999933242798 0.9309999942779541,-2.490000009536743 1.0269999504089355,-2.490000009536743 C1.246000051498413,-2.490000009536743 1.2200000286102295,-2.2980000972747803 1.2109999656677246,-2.2209999561309814 C1.2029999494552612,-2.0929999351501465 1.121999979019165,-1.6720000505447388 1.0379999876022339,-1.3109999895095825 C1.0379999876022339,-1.3109999895095825 0.9860000014305115,-1.0789999961853027 0.9860000014305115,-1.0789999961853027 C0.9459999799728394,-0.9070000052452087 0.902999997138977,-0.7409999966621399 0.8640000224113464,-0.5699999928474426 C0.8640000224113464,-0.5699999928474426 0.8809999823570251,-0.5350000262260437 0.8809999823570251,-0.5350000262260437 C1.3300000429153442,-0.5590000152587891 1.4609999656677246,-0.5600000023841858 1.8459999561309814,-0.5529999732971191 C1.8459999561309814,-0.5529999732971191 1.8919999599456787,-0.5870000123977661 1.8919999599456787,-0.5870000123977661 C1.9589999914169312,-0.9869999885559082 1.9780000448226929,-1.0950000286102295 2.1040000915527344,-1.6759999990463257 C2.1040000915527344,-1.6759999990463257 2.1640000343322754,-1.9429999589920044 2.1640000343322754,-1.9429999589920044 C2.2839999198913574,-2.4660000801086426 2.3450000286102295,-2.7309999465942383 2.25600004196167,-2.947000026702881 C2.1579999923706055,-3.188999891281128 1.9259999990463257,-3.249000072479248 1.718000054359436,-3.249000072479248 C1.5800000429153442,-3.249000072479248 1.3270000219345093,-3.2149999141693115 1.1019999980926514,-3.1040000915527344 C1.0219999551773071,-3.062000036239624 0.9409999847412109,-3.0139999389648438 0.8619999885559082,-2.9649999141693115 C0.8619999885559082,-2.9649999141693115 0.9309999942779541,-3.2320001125335693 0.9309999942779541,-3.2320001125335693 C0.9309999942779541,-3.2320001125335693 0.8939999938011169,-3.2769999504089355 0.8939999938011169,-3.2769999504089355 C0.41499999165534973,-3.180000066757202 0.3050000071525574,-3.1659998893737793 -0.13699999451637268,-3.1040000915527344 C-0.13699999451637268,-3.1040000915527344 -0.17100000381469727,-3.0789999961853027 -0.17100000381469727,-3.0789999961853027 C-0.22499999403953552,-2.6540000438690186 -0.26899999380111694,-2.3359999656677246 -0.45899999141693115,-1.5010000467300415 C-0.5320000052452087,-1.1929999589920044 -0.6069999933242798,-0.8809999823570251 -0.6830000281333923,-0.5740000009536743 C-0.6830000281333923,-0.5740000009536743 -0.6629999876022339,-0.5350000262260437 -0.6629999876022339,-0.5350000262260437 C-0.20800000429153442,-0.5590000152587891 -0.07199999690055847,-0.5600000023841858 0.32199999690055847,-0.5529999732971191z M3.619999885559082,-0.5350000262260437 C3.6489999294281006,-0.671999990940094 3.815999984741211,-1.4859999418258667 3.818000078201294,-1.4859999418258667 C3.818000078201294,-1.4859999418258667 3.9609999656677246,-2.0829999446868896 3.9690001010894775,-2.1050000190734863 C3.9690001010894775,-2.1050000190734863 4.013999938964844,-2.1670000553131104 4.059000015258789,-2.190999984741211 C4.059000015258789,-2.190999984741211 4.125,-2.190999984741211 4.125,-2.190999984741211 C4.749000072479248,-2.190999984741211 5.453000068664551,-2.190999984741211 6.005000114440918,-2.5959999561309814 C6.38100004196167,-2.872999906539917 6.638000011444092,-3.2829999923706055 6.751999855041504,-3.7809998989105225 C6.7820000648498535,-3.9030001163482666 6.803999900817871,-4.048999786376953 6.803999900817871,-4.195000171661377 C6.803999900817871,-4.385000228881836 6.764999866485596,-4.573999881744385 6.6539998054504395,-4.7210001945495605 C6.373000144958496,-5.113999843597412 5.811999797821045,-5.120999813079834 5.164999961853027,-5.124000072479248 C5.163000106811523,-5.124000072479248 4.8460001945495605,-5.119999885559082 4.8460001945495605,-5.119999885559082 C4.01800012588501,-5.110000133514404 3.686000108718872,-5.113999843597412 3.5490000247955322,-5.130000114440918 C3.5380001068115234,-5.070000171661377 3.5160000324249268,-4.961999893188477 3.5160000324249268,-4.961999893188477 C3.5160000324249268,-4.961999893188477 3.2190001010894775,-3.5920000076293945 3.2190001010894775,-3.5899999141693115 C3.2190001010894775,-3.5899999141693115 2.509000062942505,-0.6769999861717224 2.4760000705718994,-0.5400000214576721 C3.1989998817443848,-0.5490000247955322 3.496000051498413,-0.5490000247955322 3.619999885559082,-0.5350000262260437z M4.170000076293945,-2.9690001010894775 C4.170000076293945,-2.9690001010894775 4.486000061035156,-4.335999965667725 4.484000205993652,-4.330999851226807 C4.484000205993652,-4.330999851226807 4.49399995803833,-4.4019999504089355 4.49399995803833,-4.4019999504089355 C4.49399995803833,-4.4019999504089355 4.499000072479248,-4.453999996185303 4.499000072479248,-4.453999996185303 C4.499000072479248,-4.453999996185303 4.625,-4.442999839782715 4.625,-4.442999839782715 C4.625,-4.442999839782715 5.276000022888184,-4.38700008392334 5.290999889373779,-4.385000228881836 C5.547999858856201,-4.285999774932861 5.6529998779296875,-4.03000020980835 5.579999923706055,-3.697000026702881 C5.51200008392334,-3.3929998874664307 5.314000129699707,-3.13700008392334 5.059000015258789,-3.0139999389648438 C4.849999904632568,-2.9089999198913574 4.5929999351501465,-2.9000000953674316 4.328000068664551,-2.9000000953674316 C4.328000068664551,-2.9000000953674316 4.1570000648498535,-2.9000000953674316 4.1570000648498535,-2.9000000953674316 C4.1570000648498535,-2.9000000953674316 4.170000076293945,-2.9690001010894775 4.170000076293945,-2.9690001010894775z M6.133999824523926,-1.7899999618530273 C6.051000118255615,-1.4359999895095825 5.954999923706055,-0.7889999747276306 6.548999786376953,-0.5590000152587891 C6.738999843597412,-0.4790000021457672 6.9079999923706055,-0.45500001311302185 7.080999851226807,-0.46399998664855957 C7.263000011444092,-0.4729999899864197 7.432000160217285,-0.5640000104904175 7.5879998207092285,-0.6949999928474426 C7.573999881744385,-0.6420000195503235 7.559999942779541,-0.5889999866485596 7.546000003814697,-0.5350000262260437 C7.546000003814697,-0.5350000262260437 7.572999954223633,-0.49900001287460327 7.572999954223633,-0.49900001287460327 C8,-0.5170000195503235 8.131999969482422,-0.5170000195503235 8.595000267028809,-0.5139999985694885 C8.595000267028809,-0.5139999985694885 8.63700008392334,-0.5460000038146973 8.63700008392334,-0.5460000038146973 C8.704999923706055,-0.9419999718666077 8.769000053405762,-1.3259999752044678 8.944000244140625,-2.0829999446868896 C9.029999732971191,-2.446000099182129 9.114999771118164,-2.805999994277954 9.20300006866455,-3.1670000553131104 C9.20300006866455,-3.1670000553131104 9.189000129699707,-3.2060000896453857 9.189000129699707,-3.2060000896453857 C8.711000442504883,-3.118000030517578 8.583999633789062,-3.0999999046325684 8.12399959564209,-3.0350000858306885 C8.12399959564209,-3.0350000858306885 8.08899974822998,-3.006999969482422 8.08899974822998,-3.006999969482422 C8.083999633789062,-2.9700000286102295 8.079999923706055,-2.933000087738037 8.074999809265137,-2.8980000019073486 C8.003999710083008,-3.013000011444092 7.900000095367432,-3.1110000610351562 7.739999771118164,-3.1730000972747803 C7.535999774932861,-3.253000020980835 7.056000232696533,-3.1500000953674316 6.64300012588501,-2.7750000953674316 C6.353000164031982,-2.507999897003174 6.2129998207092285,-2.1419999599456787 6.133999824523926,-1.7899999618530273z M7.138000011444092,-1.7699999809265137 C7.239999771118164,-2.2060000896453857 7.357999801635742,-2.5739998817443848 7.663000106811523,-2.5739998817443848 C7.855000019073486,-2.5739998817443848 7.955999851226807,-2.3980000019073486 7.935999870300293,-2.0959999561309814 C7.920000076293945,-2.0209999084472656 7.9019999504089355,-1.9420000314712524 7.88100004196167,-1.8519999980926514 C7.849999904632568,-1.722000002861023 7.816999912261963,-1.593000054359436 7.784999847412109,-1.4639999866485596 C7.752999782562256,-1.3760000467300415 7.715000152587891,-1.2929999828338623 7.672999858856201,-1.2380000352859497 C7.593999862670898,-1.1269999742507935 7.4079999923706055,-1.059000015258789 7.301000118255615,-1.059000015258789 C7.269999980926514,-1.059000015258789 7.081999778747559,-1.059000015258789 7.076000213623047,-1.3350000381469727 C7.073999881744385,-1.4730000495910645 7.103000164031982,-1.6139999628067017 7.138000011444092,-1.7699999809265137z M12.380000114440918,-3.2100000381469727 C12.380000114440918,-3.2100000381469727 12.343000411987305,-3.250999927520752 12.343000411987305,-3.250999927520752 C11.869999885559082,-3.1559998989105225 11.784000396728516,-3.1419999599456787 11.350000381469727,-3.0829999446868896 C11.350000381469727,-3.0829999446868896 11.317999839782715,-3.0510001182556152 11.317999839782715,-3.0510001182556152 C11.317000389099121,-3.0450000762939453 11.3149995803833,-3.0380001068115234 11.312999725341797,-3.0309998989105225 C11.312999725341797,-3.0309998989105225 11.312000274658203,-3.0380001068115234 11.312000274658203,-3.0380001068115234 C10.98799991607666,-2.2950000762939453 10.998000144958496,-2.4549999237060547 10.734000205993652,-1.8700000047683716 C10.732999801635742,-1.8969999551773071 10.732999801635742,-1.9119999408721924 10.730999946594238,-1.940999984741211 C10.730999946594238,-1.940999984741211 10.664999961853027,-3.2100000381469727 10.664999961853027,-3.2100000381469727 C10.664999961853027,-3.2100000381469727 10.62399959564209,-3.250999927520752 10.62399959564209,-3.250999927520752 C10.128999710083008,-3.1559998989105225 10.116999626159668,-3.1419999599456787 9.659000396728516,-3.0829999446868896 C9.659000396728516,-3.0829999446868896 9.62399959564209,-3.0510001182556152 9.62399959564209,-3.0510001182556152 C9.619000434875488,-3.0350000858306885 9.619000434875488,-3.0190000534057617 9.616000175476074,-3.000999927520752 C9.616000175476074,-3.000999927520752 9.619000434875488,-2.994999885559082 9.619000434875488,-2.994999885559082 C9.675999641418457,-2.7039999961853027 9.661999702453613,-2.7690000534057617 9.720000267028809,-2.309000015258789 C9.746000289916992,-2.0840001106262207 9.781999588012695,-1.8559999465942383 9.809000015258789,-1.6330000162124634 C9.854000091552734,-1.2610000371932983 9.878999710083008,-1.0770000219345093 9.934000015258789,-0.5080000162124634 C9.625,0 9.552000045776367,0.19099999964237213 9.255000114440918,0.6370000243186951 C9.255000114440918,0.6370000243186951 9.256999969482422,0.640999972820282 9.256999969482422,0.640999972820282 C9.256999969482422,0.640999972820282 9.04699993133545,0.9710000157356262 9.04699993133545,0.9710000157356262 C9.02299976348877,1.00600004196167 9.001999855041504,1.0299999713897705 8.970999717712402,1.0399999618530273 C8.937999725341797,1.055999994277954 8.894000053405762,1.059000015258789 8.833999633789062,1.059000015258789 C8.833999633789062,1.059000015258789 8.718000411987305,1.059000015258789 8.718000411987305,1.059000015258789 C8.718000411987305,1.059000015258789 8.545000076293945,1.6319999694824219 8.545000076293945,1.6319999694824219 C8.545000076293945,1.6319999694824219 9.13700008392334,1.6410000324249268 9.13700008392334,1.6410000324249268 C9.484000205993652,1.6399999856948853 9.70300006866455,1.4780000448226929 9.819999694824219,1.2599999904632568 C9.819999694824219,1.2599999904632568 10.192000389099121,0.6259999871253967 10.192000389099121,0.6259999871253967 C10.192000389099121,0.6259999871253967 10.187000274658203,0.6259999871253967 10.187000274658203,0.6259999871253967 C10.187000274658203,0.6259999871253967 10.22599983215332,0.5809999704360962 10.22599983215332,0.5809999704360962 C10.47599983215332,0.04399999976158142 12.380000114440918,-3.2100000381469727 12.380000114440918,-3.2100000381469727z M6.133999824523926,4.297999858856201 C6.133999824523926,4.297999858856201 5.882999897003174,4.297999858856201 5.882999897003174,4.297999858856201 C5.882999897003174,4.297999858856201 6.811999797821045,1.2359999418258667 6.811999797821045,1.2359999418258667 C6.811999797821045,1.2359999418258667 7.120999813079834,1.2359999418258667 7.120999813079834,1.2359999418258667 C7.120999813079834,1.2359999418258667 7.218999862670898,0.9210000038146973 7.218999862670898,0.9210000038146973 C7.218999862670898,0.9210000038146973 7.228000164031982,1.2710000276565552 7.228000164031982,1.2710000276565552 C7.2170000076293945,1.4880000352859497 7.388000011444092,1.6799999475479126 7.836999893188477,1.6480000019073486 C7.836999893188477,1.6480000019073486 8.357999801635742,1.6480000019073486 8.357999801635742,1.6480000019073486 C8.357999801635742,1.6480000019073486 8.53600025177002,1.059000015258789 8.53600025177002,1.059000015258789 C8.53600025177002,1.059000015258789 8.340999603271484,1.059000015258789 8.340999603271484,1.059000015258789 C8.227999687194824,1.059000015258789 8.175999641418457,1.0299999713897705 8.182999610900879,0.968999981880188 C8.182999610900879,0.968999981880188 8.17300033569336,0.6129999756813049 8.17300033569336,0.6129999756813049 C8.17300033569336,0.6129999756813049 7.210000038146973,0.6129999756813049 7.210000038146973,0.6129999756813049 C7.210000038146973,0.6129999756813049 7.210000038146973,0.6150000095367432 7.210000038146973,0.6150000095367432 C6.89900016784668,0.6209999918937683 5.968999862670898,0.6449999809265137 5.78000020980835,0.6949999928474426 C5.552999973297119,0.753000020980835 5.313000202178955,0.9240000247955322 5.313000202178955,0.9240000247955322 C5.313000202178955,0.9240000247955322 5.4070000648498535,0.609000027179718 5.4070000648498535,0.609000027179718 C5.4070000648498535,0.609000027179718 4.50600004196167,0.609000027179718 4.50600004196167,0.609000027179718 C4.50600004196167,0.609000027179718 4.317999839782715,1.2359999418258667 4.317999839782715,1.2359999418258667 C4.317999839782715,1.2359999418258667 3.377000093460083,4.343999862670898 3.377000093460083,4.343999862670898 C3.377000093460083,4.343999862670898 3.194000005722046,4.343999862670898 3.194000005722046,4.343999862670898 C3.194000005722046,4.343999862670898 3.015000104904175,4.929999828338623 3.015000104904175,4.929999828338623 C3.015000104904175,4.929999828338623 4.809000015258789,4.929999828338623 4.809000015258789,4.929999828338623 C4.809000015258789,4.929999828338623 4.749000072479248,5.124000072479248 4.749000072479248,5.124000072479248 C4.749000072479248,5.124000072479248 5.632999897003174,5.124000072479248 5.632999897003174,5.124000072479248 C5.632999897003174,5.124000072479248 5.691999912261963,4.929999828338623 5.691999912261963,4.929999828338623 C5.691999912261963,4.929999828338623 5.940000057220459,4.929999828338623 5.940000057220459,4.929999828338623 C5.940000057220459,4.929999828338623 6.133999824523926,4.297999858856201 6.133999824523926,4.297999858856201z M5.3979997634887695,1.8569999933242798 C5.254000186920166,1.8969999551773071 4.985000133514404,2.0179998874664307 4.985000133514404,2.0179998874664307 C4.985000133514404,2.0179998874664307 5.223999977111816,1.2359999418258667 5.223999977111816,1.2359999418258667 C5.223999977111816,1.2359999418258667 5.940000057220459,1.2359999418258667 5.940000057220459,1.2359999418258667 C5.940000057220459,1.2359999418258667 5.767000198364258,1.8049999475479126 5.767000198364258,1.8049999475479126 C5.767000198364258,1.8049999475479126 5.546000003814697,1.8179999589920044 5.3979997634887695,1.8569999933242798z M5.4120001792907715,2.9749999046325684 C5.4120001792907715,2.9749999046325684 5.186999797821045,3.003000020980835 5.039000034332275,3.0360000133514404 C4.89300012588501,3.0799999237060547 4.619999885559082,3.2190001010894775 4.619999885559082,3.2190001010894775 C4.619999885559082,3.2190001010894775 4.867000102996826,2.4059998989105225 4.867000102996826,2.4059998989105225 C4.867000102996826,2.4059998989105225 5.585999965667725,2.4059998989105225 5.585999965667725,2.4059998989105225 C5.585999965667725,2.4059998989105225 5.4120001792907715,2.9749999046325684 5.4120001792907715,2.9749999046325684z M5.011000156402588,4.304999828338623 C5.011000156402588,4.304999828338623 4.293000221252441,4.304999828338623 4.293000221252441,4.304999828338623 C4.293000221252441,4.304999828338623 4.500999927520752,3.618000030517578 4.500999927520752,3.618000030517578 C4.500999927520752,3.618000030517578 5.2170000076293945,3.618000030517578 5.2170000076293945,3.618000030517578 C5.2170000076293945,3.618000030517578 5.011000156402588,4.304999828338623 5.011000156402588,4.304999828338623z M6.739999771118164,2.4059998989105225 C6.739999771118164,2.4059998989105225 7.775000095367432,2.4059998989105225 7.775000095367432,2.4059998989105225 C7.775000095367432,2.4059998989105225 7.625999927520752,2.884999990463257 7.625999927520752,2.884999990463257 C7.625999927520752,2.884999990463257 6.578000068664551,2.884999990463257 6.578000068664551,2.884999990463257 C6.578000068664551,2.884999990463257 6.420000076293945,3.4100000858306885 6.420000076293945,3.4100000858306885 C6.420000076293945,3.4100000858306885 7.3379998207092285,3.4100000858306885 7.3379998207092285,3.4100000858306885 C7.3379998207092285,3.4100000858306885 6.64300012588501,4.385000228881836 6.64300012588501,4.385000228881836 C6.593999862670898,4.456999778747559 6.551000118255615,4.480999946594238 6.501999855041504,4.500999927520752 C6.453000068664551,4.526000022888184 6.389999866485596,4.554999828338623 6.315999984741211,4.554999828338623 C6.315999984741211,4.554999828338623 6.060999870300293,4.554999828338623 6.060999870300293,4.554999828338623 C6.060999870300293,4.554999828338623 5.886000156402588,5.130000114440918 5.886000156402588,5.130000114440918 C5.886000156402588,5.130000114440918 6.552000045776367,5.130000114440918 6.552000045776367,5.130000114440918 C6.8979997634887695,5.130000114440918 7.103000164031982,4.9720001220703125 7.254000186920166,4.765999794006348 C7.254000186920166,4.765999794006348 7.730000019073486,4.118000030517578 7.730000019073486,4.118000030517578 C7.730000019073486,4.118000030517578 7.831999778747559,4.7769999504089355 7.831999778747559,4.7769999504089355 C7.854000091552734,4.901000022888184 7.942999839782715,4.9730000495910645 8.003999710083008,5.000999927520752 C8.069999694824219,5.034999847412109 8.138999938964844,5.0920000076293945 8.236000061035156,5.099999904632568 C8.340999603271484,5.105000019073486 8.416000366210938,5.10699987411499 8.465999603271484,5.10699987411499 C8.465999603271484,5.10699987411499 8.793000221252441,5.10699987411499 8.793000221252441,5.10699987411499 C8.793000221252441,5.10699987411499 8.989999771118164,4.465000152587891 8.989999771118164,4.465000152587891 C8.989999771118164,4.465000152587891 8.861000061035156,4.465000152587891 8.861000061035156,4.465000152587891 C8.786999702453613,4.465000152587891 8.659000396728516,4.453000068664551 8.63700008392334,4.429999828338623 C8.616000175476074,4.4019999504089355 8.616000175476074,4.357999801635742 8.604000091552734,4.291999816894531 C8.604000091552734,4.291999816894531 8.5,3.630000114440918 8.5,3.630000114440918 C8.5,3.630000114440918 8.074999809265137,3.630000114440918 8.074999809265137,3.630000114440918 C8.074999809265137,3.630000114440918 8.26200008392334,3.4100000858306885 8.26200008392334,3.4100000858306885 C8.26200008392334,3.4100000858306885 9.307999610900879,3.4100000858306885 9.307999610900879,3.4100000858306885 C9.307999610900879,3.4100000858306885 9.468999862670898,2.884999990463257 9.468999862670898,2.884999990463257 C9.468999862670898,2.884999990463257 8.5,2.884999990463257 8.5,2.884999990463257 C8.5,2.884999990463257 8.651000022888184,2.4059998989105225 8.651000022888184,2.4059998989105225 C8.651000022888184,2.4059998989105225 9.616999626159668,2.4059998989105225 9.616999626159668,2.4059998989105225 C9.616999626159668,2.4059998989105225 9.795999526977539,1.8140000104904175 9.795999526977539,1.8140000104904175 C9.795999526977539,1.8140000104904175 6.915999889373779,1.8140000104904175 6.915999889373779,1.8140000104904175 C6.915999889373779,1.8140000104904175 6.739999771118164,2.4059998989105225 6.739999771118164,2.4059998989105225z M-2.000999927520752,4.438000202178955 C-2.000999927520752,4.438000202178955 -1.7599999904632568,3.63700008392334 -1.7599999904632568,3.63700008392334 C-1.7599999904632568,3.63700008392334 -0.7670000195503235,3.63700008392334 -0.7670000195503235,3.63700008392334 C-0.7670000195503235,3.63700008392334 -0.5860000252723694,3.0420000553131104 -0.5860000252723694,3.0420000553131104 C-0.5860000252723694,3.0420000553131104 -1.5789999961853027,3.0420000553131104 -1.5789999961853027,3.0420000553131104 C-1.5789999961853027,3.0420000553131104 -1.4279999732971191,2.5490000247955322 -1.4279999732971191,2.5490000247955322 C-1.4279999732971191,2.5490000247955322 -0.4569999873638153,2.5490000247955322 -0.4569999873638153,2.5490000247955322 C-0.4569999873638153,2.5490000247955322 -0.2770000100135803,1.9730000495910645 -0.2770000100135803,1.9730000495910645 C-0.2770000100135803,1.9730000495910645 -2.7060000896453857,1.9730000495910645 -2.7060000896453857,1.9730000495910645 C-2.7060000896453857,1.9730000495910645 -2.882999897003174,2.5490000247955322 -2.882999897003174,2.5490000247955322 C-2.882999897003174,2.5490000247955322 -2.3310000896453857,2.5490000247955322 -2.3310000896453857,2.5490000247955322 C-2.3310000896453857,2.5490000247955322 -2.4779999256134033,3.0420000553131104 -2.4779999256134033,3.0420000553131104 C-2.4779999256134033,3.0420000553131104 -3.0309998989105225,3.0420000553131104 -3.0309998989105225,3.0420000553131104 C-3.0309998989105225,3.0420000553131104 -3.2149999141693115,3.6480000019073486 -3.2149999141693115,3.6480000019073486 C-3.2149999141693115,3.6480000019073486 -2.6630001068115234,3.6480000019073486 -2.6630001068115234,3.6480000019073486 C-2.6630001068115234,3.6480000019073486 -2.984999895095825,4.705999851226807 -2.984999895095825,4.705999851226807 C-3.0280001163482666,4.8460001945495605 -2.9649999141693115,4.900000095367432 -2.9240000247955322,4.965000152587891 C-2.882999897003174,5.0279998779296875 -2.8410000801086426,5.070000171661377 -2.746000051498413,5.093999862670898 C-2.6489999294281006,5.116000175476074 -2.5820000171661377,5.130000114440918 -2.492000102996826,5.130000114440918 C-2.492000102996826,5.130000114440918 -1.3730000257492065,5.130000114440918 -1.3730000257492065,5.130000114440918 C-1.3730000257492065,5.130000114440918 -1.1729999780654907,4.468999862670898 -1.1729999780654907,4.468999862670898 C-1.1729999780654907,4.468999862670898 -1.6690000295639038,4.538000106811523 -1.6690000295639038,4.538000106811523 C-1.7649999856948853,4.538000106811523 -2.0299999713897705,4.5269999504089355 -2.000999927520752,4.438000202178955z M-1.8880000114440918,0.6050000190734863 C-1.8880000114440918,0.6050000190734863 -2.1389999389648438,1.059000015258789 -2.1389999389648438,1.059000015258789 C-2.193000078201294,1.1579999923706055 -2.240999937057495,1.218000054359436 -2.2850000858306885,1.246999979019165 C-2.322999954223633,1.2699999809265137 -2.4000000953674316,1.281000018119812 -2.509999990463257,1.281000018119812 C-2.509999990463257,1.281000018119812 -2.6410000324249268,1.281000018119812 -2.6410000324249268,1.281000018119812 C-2.6410000324249268,1.281000018119812 -2.816999912261963,1.8609999418258667 -2.816999912261963,1.8609999418258667 C-2.816999912261963,1.8609999418258667 -2.38100004196167,1.8609999418258667 -2.38100004196167,1.8609999418258667 C-2.1710000038146973,1.8609999418258667 -2.009999990463257,1.7829999923706055 -1.9329999685287476,1.7450000047683716 C-1.8509999513626099,1.7009999752044678 -1.8289999961853027,1.7259999513626099 -1.7649999856948853,1.6649999618530273 C-1.7649999856948853,1.6649999618530273 -1.6180000305175781,1.5379999876022339 -1.6180000305175781,1.5379999876022339 C-1.6180000305175781,1.5379999876022339 -0.25600001215934753,1.5379999876022339 -0.25600001215934753,1.5379999876022339 C-0.25600001215934753,1.5379999876022339 -0.07599999755620956,0.9340000152587891 -0.07599999755620956,0.9340000152587891 C-0.07599999755620956,0.9340000152587891 -1.0720000267028809,0.9340000152587891 -1.0720000267028809,0.9340000152587891 C-1.0720000267028809,0.9340000152587891 -0.8980000019073486,0.6050000190734863 -0.8980000019073486,0.6050000190734863 C-0.8980000019073486,0.6050000190734863 -1.8880000114440918,0.6050000190734863 -1.8880000114440918,0.6050000190734863z M0.12200000137090683,4.448999881744385 C0.0989999994635582,4.415999889373779 0.11599999666213989,4.357999801635742 0.1509999930858612,4.236000061035156 C0.1509999930858612,4.236000061035156 0.5230000019073486,3.007999897003174 0.5230000019073486,3.007999897003174 C0.5230000019073486,3.007999897003174 1.847000002861023,3.007999897003174 1.847000002861023,3.007999897003174 C2.0399999618530273,3.005000114440918 2.178999900817871,3.003000020980835 2.2699999809265137,2.996999979019165 C2.367000102996826,2.9860000610351562 2.4730000495910645,2.953000068664551 2.5880000591278076,2.8910000324249268 C2.7070000171661377,2.8259999752044678 2.7679998874664307,2.756999969482422 2.819999933242798,2.677999973297119 C2.877000093460083,2.5999999046325684 2.9690001010894775,2.4260001182556152 3.0480000972747803,2.1610000133514404 C3.0480000972747803,2.1610000133514404 3.5160000324249268,0.609000027179718 3.5160000324249268,0.609000027179718 C3.5160000324249268,0.609000027179718 2.1419999599456787,0.6169999837875366 2.1419999599456787,0.6169999837875366 C2.1419999599456787,0.6169999837875366 1.718999981880188,0.6790000200271606 1.5329999923706055,0.746999979019165 C1.3450000286102295,0.8240000009536743 1.0770000219345093,1.0379999876022339 1.0770000219345093,1.0379999876022339 C1.0770000219345093,1.0379999876022339 1.2009999752044678,0.6129999756813049 1.2009999752044678,0.6129999756813049 C1.2009999752044678,0.6129999756813049 0.35199999809265137,0.6129999756813049 0.35199999809265137,0.6129999756813049 C0.35199999809265137,0.6129999756813049 -0.8360000252723694,4.538000106811523 -0.8360000252723694,4.538000106811523 C-0.878000020980835,4.690999984741211 -0.906000018119812,4.801000118255615 -0.9129999876022339,4.868000030517578 C-0.9150000214576721,4.939000129699707 -0.8220000267028809,5.010000228881836 -0.7620000243186951,5.064000129699707 C-0.6909999847412109,5.117000102996826 -0.5860000252723694,5.107999801635742 -0.48500001430511475,5.117000102996826 C-0.3790000081062317,5.125 -0.2280000001192093,5.130000114440918 -0.019999999552965164,5.130000114440918 C-0.019999999552965164,5.130000114440918 0.6320000290870667,5.130000114440918 0.6320000290870667,5.130000114440918 C0.6320000290870667,5.130000114440918 0.8320000171661377,4.455999851226807 0.8320000171661377,4.455999851226807 C0.8320000171661377,4.455999851226807 0.24899999797344208,4.51200008392334 0.24899999797344208,4.51200008392334 C0.1860000044107437,4.51200008392334 0.14100000262260437,4.4770002365112305 0.12200000137090683,4.448999881744385z M0.7630000114440918,2.180000066757202 C0.7630000114440918,2.180000066757202 2.1540000438690186,2.180000066757202 2.1540000438690186,2.180000066757202 C2.1540000438690186,2.180000066757202 2.065000057220459,2.4560000896453857 2.065000057220459,2.4560000896453857 C2.052999973297119,2.4630000591278076 2.0230000019073486,2.441999912261963 1.8819999694824219,2.4579999446868896 C1.8819999694824219,2.4579999446868896 0.6779999732971191,2.4579999446868896 0.6779999732971191,2.4579999446868896 C0.6779999732971191,2.4579999446868896 0.7630000114440918,2.180000066757202 0.7630000114440918,2.180000066757202z M1.0420000553131104,1.2549999952316284 C1.0420000553131104,1.2549999952316284 2.444000005722046,1.2549999952316284 2.444000005722046,1.2549999952316284 C2.444000005722046,1.2549999952316284 2.3429999351501465,1.5870000123977661 2.3429999351501465,1.5870000123977661 C2.3429999351501465,1.5870000123977661 1.6820000410079956,1.5809999704360962 1.5770000219345093,1.600000023841858 C1.1109999418258667,1.6799999475479126 0.8389999866485596,1.9279999732971191 0.8389999866485596,1.9279999732971191 C0.8389999866485596,1.9279999732971191 1.0420000553131104,1.2549999952316284 1.0420000553131104,1.2549999952316284z M2.0969998836517334,3.380000114440918 C2.0850000381469727,3.4210000038146973 2.066999912261963,3.446000099182129 2.0409998893737793,3.4649999141693115 C2.013000011444092,3.4830000400543213 1.968000054359436,3.490000009536743 1.8990000486373901,3.490000009536743 C1.8990000486373901,3.490000009536743 1.7009999752044678,3.490000009536743 1.7009999752044678,3.490000009536743 C1.7009999752044678,3.490000009536743 1.7130000591278076,3.1540000438690186 1.7130000591278076,3.1540000438690186 C1.7130000591278076,3.1540000438690186 0.8889999985694885,3.1540000438690186 0.8889999985694885,3.1540000438690186 C0.8889999985694885,3.1540000438690186 0.8550000190734863,4.797999858856201 0.8550000190734863,4.797999858856201 C0.8539999723434448,4.915999889373779 0.8659999966621399,4.985000133514404 0.953000009059906,5.039999961853027 C1.0399999618530273,5.107999801635742 1.3079999685287476,5.117000102996826 1.6690000295639038,5.117000102996826 C1.6690000295639038,5.117000102996826 2.186000108718872,5.117000102996826 2.186000108718872,5.117000102996826 C2.186000108718872,5.117000102996826 2.371999979019165,4.500999927520752 2.371999979019165,4.500999927520752 C2.371999979019165,4.500999927520752 1.9229999780654907,4.5269999504089355 1.9229999780654907,4.5269999504089355 C1.9229999780654907,4.5269999504089355 1.7730000019073486,4.534999847412109 1.7730000019073486,4.534999847412109 C1.753000020980835,4.5269999504089355 1.7330000400543213,4.519000053405762 1.7109999656677246,4.497000217437744 C1.6929999589920044,4.478000164031982 1.6610000133514404,4.488999843597412 1.6660000085830688,4.369999885559082 C1.6660000085830688,4.369999885559082 1.6690000295639038,3.9489998817443848 1.6690000295639038,3.9489998817443848 C1.6690000295639038,3.9489998817443848 2.1410000324249268,3.930000066757202 2.1410000324249268,3.930000066757202 C2.3949999809265137,3.930000066757202 2.503999948501587,3.8469998836517334 2.5969998836517334,3.7679998874664307 C2.686000108718872,3.693000078201294 2.7149999141693115,3.6080000400543213 2.747999906539917,3.490000009536743 C2.747999906539917,3.490000009536743 2.8269999027252197,3.118000030517578 2.8269999027252197,3.118000030517578 C2.8269999027252197,3.118000030517578 2.178999900817871,3.118000030517578 2.178999900817871,3.118000030517578 C2.178999900817871,3.118000030517578 2.0969998836517334,3.380000114440918 2.0969998836517334,3.380000114440918z"></path></g></g><g transform="matrix(1,0,0,1,143.79299926757812,231.20199584960938)" opacity="1" style="display: block;"><g opacity="1" transform="matrix(1,0,0,1,15.286999702453613,9.545000076293945)"><path fill="rgb(255,95,0)" fill-opacity="1" d=" M4.067999839782715,7.302999973297119 C4.067999839782715,7.302999973297119 -4.067999839782715,7.302999973297119 -4.067999839782715,7.302999973297119 C-4.067999839782715,7.302999973297119 -4.067999839782715,-7.302999973297119 -4.067999839782715,-7.302999973297119 C-4.067999839782715,-7.302999973297119 4.067999839782715,-7.302999973297119 4.067999839782715,-7.302999973297119 C4.067999839782715,-7.302999973297119 4.067999839782715,7.302999973297119 4.067999839782715,7.302999973297119z"></path></g><g opacity="1" transform="matrix(1,0,0,1,7.770999908447266,9.538999557495117)"><path fill="rgb(235,0,27)" fill-opacity="1" d=" M3.9709999561309814,0 C3.9709999561309814,-2.9630000591278076 5.359000205993652,-5.6020002365112305 7.520999908447266,-7.302999973297119 C5.940000057220459,-8.54699993133545 3.944000005722046,-9.288999557495117 1.774999976158142,-9.288999557495117 C-3.359999895095825,-9.288999557495117 -7.520999908447266,-5.130000114440918 -7.520999908447266,0 C-7.520999908447266,5.130000114440918 -3.359999895095825,9.288999557495117 1.774999976158142,9.288999557495117 C3.944000005722046,9.288999557495117 5.940000057220459,8.545999526977539 7.520999908447266,7.302999973297119 C5.359000205993652,5.6020002365112305 3.9709999561309814,2.9630000591278076 3.9709999561309814,0z"></path></g><g opacity="1" transform="matrix(1,0,0,1,22.81100082397461,9.538999557495117)"><path fill="rgb(247,158,27)" fill-opacity="1" d=" M7.521999835968018,0 C7.521999835968018,5.130000114440918 3.3589999675750732,9.288999557495117 -1.774999976158142,9.288999557495117 C-3.944000005722046,9.288999557495117 -5.940000057220459,8.545999526977539 -7.521999835968018,7.302999973297119 C-5.359000205993652,5.6020002365112305 -3.9700000286102295,2.9630000591278076 -3.9700000286102295,0 C-3.9700000286102295,-2.9630000591278076 -5.359000205993652,-5.6020002365112305 -7.521999835968018,-7.302999973297119 C-5.940000057220459,-8.54699993133545 -3.944000005722046,-9.288999557495117 -1.774999976158142,-9.288999557495117 C3.3589999675750732,-9.288999557495117 7.521999835968018,-5.130000114440918 7.521999835968018,0z"></path></g></g><g transform="matrix(1,0,0,1,270.0050048828125,268.302001953125)" opacity="1" style="display: block;"><g opacity="1" transform="matrix(1,0,0,1,11.39799976348877,9.95199966430664)"><path fill="rgb(243,138,178)" fill-opacity="1" d=" M-0.7870000004768372,8.312999725341797 C-0.7870000004768372,8.312999725341797 -10.378999710083008,-7.008999824523926 -10.378999710083008,-7.008999824523926 C-11.14799976348877,-8.23799991607666 -10.163000106811523,-9.70199966430664 -8.734999656677246,-9.45300006866455 C-8.734999656677246,-9.45300006866455 9.072999954223633,-6.349999904632568 9.072999954223633,-6.349999904632568 C10.687000274658203,-6.068999767303467 11.14799976348877,-3.9739999771118164 9.758999824523926,-3.234999895095825 C9.758999824523926,-3.234999895095825 3.8489999771118164,-0.0949999988079071 3.8489999771118164,-0.0949999988079071 C3.3889999389648438,0.14900000393390656 3.0869998931884766,0.597000002861023 3.0350000858306885,1.1150000095367432 C3.0350000858306885,1.1150000095367432 2.3559999465942383,7.7729997634887695 2.3559999465942383,7.7729997634887695 C2.196000099182129,9.338000297546387 0.0820000022649765,9.70199966430664 -0.7870000004768372,8.312999725341797z"></path></g></g><g transform="matrix(1,0,0,1,293.0320129394531,22.389999389648438)" opacity="1" style="display: block;"><g opacity="1" transform="matrix(1,0,0,1,36.5,82.5)"><path stroke-linecap="round" stroke-linejoin="miter" fill-opacity="0" stroke-miterlimit="4" stroke="rgb(37,36,57)" stroke-opacity="1" stroke-width="4" d=" M32.5,78.5 C32.5,78.5 32.5,-48.5 32.5,-48.5 C32.5,-65.06800079345703 19.069000244140625,-78.5 2.5,-78.5 C2.5,-78.5 -32.5,-78.5 -32.5,-78.5"></path></g></g><g transform="matrix(1,0,0,1,28.781997680664062,254.6400146484375)" opacity="1" style="display: block;"><g opacity="1" transform="matrix(1,0,0,1,70.75,46.25)"><path stroke-linecap="round" stroke-linejoin="miter" fill-opacity="0" stroke-miterlimit="4" stroke="rgb(243,138,178)" stroke-opacity="1" stroke-width="4" d=" M66.75,42.25 C66.75,42.25 -36.75,42.25 -36.75,42.25 C-53.319000244140625,42.25 -66.75,28.819000244140625 -66.75,12.25 C-66.75,12.25 -66.75,-42.25 -66.75,-42.25"></path></g></g><g transform="matrix(1,0,0,1,24.799001693725586,247.64199829101562)" opacity="1" style="display: block;"><g opacity="1" transform="matrix(1,0,0,1,7.982999801635742,7.98199987411499)"><path fill="rgb(243,138,178)" fill-opacity="1" d=" M0,-7.73199987411499 C4.270999908447266,-7.73199987411499 7.732999801635742,-4.269999980926514 7.732999801635742,0.0010000000474974513 C7.732999801635742,4.270999908447266 4.270999908447266,7.73199987411499 0,7.73199987411499 C-4.270999908447266,7.73199987411499 -7.732999801635742,4.270999908447266 -7.732999801635742,0.0010000000474974513 C-7.732999801635742,-4.269999980926514 -4.270999908447266,-7.73199987411499 0,-7.73199987411499z"></path></g></g></g></svg>