<svg xmlns="http://www.w3.org/2000/svg" xmlns:xlink="http://www.w3.org/1999/xlink" viewBox="0 0 384 782" width="384" height="782" preserveAspectRatio="xMidYMid meet" style="width: 100%; height: 100%; transform: translate3d(0px, 0px, 0px); content-visibility: visible;"><defs><clipPath id="__lottie_element_55"><rect width="384" height="782" x="0" y="0"></rect></clipPath><linearGradient id="__lottie_element_59" spreadMethod="pad" gradientUnits="userSpaceOnUse" x1="0" y1="0" x2="100" y2="0"><stop offset="0%" stop-color="rgb(255,222,173)"></stop><stop offset="23%" stop-color="rgb(255,211,194)"></stop><stop offset="49%" stop-color="rgb(255,201,214)"></stop><stop offset="75%" stop-color="rgb(252,171,206)"></stop><stop offset="100%" stop-color="rgb(249,141,198)"></stop></linearGradient><linearGradient id="__lottie_element_63" spreadMethod="pad" gradientUnits="userSpaceOnUse" x1="-124" y1="12" x2="90" y2="80"><stop offset="0%" stop-color="rgb(255,222,173)"></stop><stop offset="23%" stop-color="rgb(255,211,194)"></stop><stop offset="49%" stop-color="rgb(255,201,214)"></stop><stop offset="75%" stop-color="rgb(252,171,206)"></stop><stop offset="100%" stop-color="rgb(249,141,198)"></stop></linearGradient><linearGradient id="__lottie_element_67" spreadMethod="pad" gradientUnits="userSpaceOnUse" x1="26" y1="30" x2="-34" y2="-18"><stop offset="0%" stop-color="rgb(255,222,173)"></stop><stop offset="23%" stop-color="rgb(255,211,194)"></stop><stop offset="49%" stop-color="rgb(255,201,214)"></stop><stop offset="75%" stop-color="rgb(252,171,206)"></stop><stop offset="100%" stop-color="rgb(249,141,198)"></stop></linearGradient><linearGradient id="__lottie_element_71" spreadMethod="pad" gradientUnits="userSpaceOnUse" x1="122" y1="-108" x2="-130" y2="100"><stop offset="0%" stop-color="rgb(255,222,173)"></stop><stop offset="23%" stop-color="rgb(255,211,194)"></stop><stop offset="49%" stop-color="rgb(255,201,214)"></stop><stop offset="75%" stop-color="rgb(252,171,206)"></stop><stop offset="100%" stop-color="rgb(249,141,198)"></stop></linearGradient><linearGradient id="__lottie_element_75" spreadMethod="pad" gradientUnits="userSpaceOnUse" x1="-24" y1="24" x2="26" y2="-32"><stop offset="0%" stop-color="rgb(255,222,173)"></stop><stop offset="23%" stop-color="rgb(255,211,194)"></stop><stop offset="49%" stop-color="rgb(255,201,214)"></stop><stop offset="75%" stop-color="rgb(252,171,206)"></stop><stop offset="100%" stop-color="rgb(249,141,198)"></stop></linearGradient><linearGradient id="__lottie_element_79" spreadMethod="pad" gradientUnits="userSpaceOnUse" x1="-132" y1="112" x2="108" y2="-94"><stop offset="0%" stop-color="rgb(255,222,173)"></stop><stop offset="23%" stop-color="rgb(255,211,194)"></stop><stop offset="49%" stop-color="rgb(255,201,214)"></stop><stop offset="75%" stop-color="rgb(252,171,206)"></stop><stop offset="100%" stop-color="rgb(249,141,198)"></stop></linearGradient><linearGradient id="__lottie_element_83" spreadMethod="pad" gradientUnits="userSpaceOnUse" x1="-140" y1="286" x2="130" y2="-306"><stop offset="0%" stop-color="rgb(255,222,173)"></stop><stop offset="23%" stop-color="rgb(255,211,194)"></stop><stop offset="49%" stop-color="rgb(255,201,214)"></stop><stop offset="75%" stop-color="rgb(252,171,206)"></stop><stop offset="100%" stop-color="rgb(249,141,198)"></stop></linearGradient><linearGradient id="__lottie_element_87" spreadMethod="pad" gradientUnits="userSpaceOnUse" x1="-131" y1="289" x2="136" y2="-316"><stop offset="0%" stop-color="rgb(255,222,173)"></stop><stop offset="10%" stop-color="rgb(255,211,194)"></stop><stop offset="49%" stop-color="rgb(255,201,214)"></stop><stop offset="75%" stop-color="rgb(252,171,206)"></stop><stop offset="100%" stop-color="rgb(249,141,198)"></stop></linearGradient></defs><g clip-path="url(#__lottie_element_55)"><g transform="matrix(1,0,0,1,-1.375,-1.31201171875)" opacity="1" style="display: block;"><g opacity="1" transform="matrix(1,0,0,1,193.5,392.5)"><path stroke="url(#__lottie_element_87)" stroke-linecap="round" stroke-linejoin="miter" fill-opacity="0" stroke-miterlimit="4" stroke-opacity="1" stroke-width="3" d=" M-140,-389.5 C-140,-389.5 140,-389.5 140,-389.5 C167.88999938964844,-389.5 190.5,-366.8900146484375 190.5,-339 C190.5,-339 190.5,339 190.5,339 C190.5,366.8900146484375 167.88999938964844,389.5 140,389.5 C140,389.5 -140,389.5 -140,389.5 C-167.88999938964844,389.5 -190.5,366.8900146484375 -190.5,339 C-190.5,339 -190.5,-339 -190.5,-339 C-190.5,-366.8900146484375 -167.88999938964844,-389.5 -140,-389.5z"></path></g></g><g transform="matrix(1,0,0,1,8.625,9.576995849609375)" opacity="1" style="display: block;"><g opacity="1" transform="matrix(1,0,0,1,184,383)"><path stroke="url(#__lottie_element_83)" stroke-linecap="round" stroke-linejoin="miter" fill-opacity="0" stroke-miterlimit="4" stroke-opacity="1" stroke-width="2" d=" M182,336 C182,360.8529968261719 161.85299682617188,381 137,381 C137,381 -137,381 -137,381 C-161.85299682617188,381 -182,360.8529968261719 -182,336 C-182,336 -182,-336 -182,-336 C-182,-360.8529968261719 -161.85299682617188,-381 -137,-381 C-137,-381 137,-381 137,-381 C161.85299682617188,-381 182,-360.8529968261719 182,-336 C182,-336 182,336 182,336z"></path></g></g><g transform="matrix(1,0,0,1,28.125,124.04499816894531)" opacity="1" style="display: block;"><g opacity="1" transform="matrix(1,0,0,1,164,145.53199768066406)"><path stroke="url(#__lottie_element_79)" stroke-linecap="round" stroke-linejoin="miter" fill-opacity="0" stroke-miterlimit="4" stroke-opacity="1" stroke-width="2" d=" M-135.3350067138672,-143.53199768066406 C-150.06199645996094,-143.53199768066406 -162,-131.593994140625 -162,-116.86699676513672 C-162,-116.86699676513672 -162,116.86699676513672 -162,116.86699676513672 C-162,131.593994140625 -150.06199645996094,143.53199768066406 -135.3350067138672,143.53199768066406 C-135.3350067138672,143.53199768066406 135.3350067138672,143.53199768066406 135.3350067138672,143.53199768066406 C150.06100463867188,143.53199768066406 162,131.593994140625 162,116.86699676513672 C162,116.86699676513672 162,-116.86699676513672 162,-116.86699676513672 C162,-131.593994140625 150.06100463867188,-143.53199768066406 135.3350067138672,-143.53199768066406 C135.3350067138672,-143.53199768066406 -135.3350067138672,-143.53199768066406 -135.3350067138672,-143.53199768066406z"></path></g></g><g transform="matrix(1,0,0,1,58.15700149536133,284.1100158691406)" opacity="1" style="display: block;"><g opacity="1" transform="matrix(1,0,0,1,37.46799850463867,37.46799850463867)"><path stroke="url(#__lottie_element_75)" stroke-linecap="round" stroke-linejoin="miter" fill-opacity="0" stroke-miterlimit="4" stroke-opacity="1" stroke-width="2" d=" M0,-35.46799850463867 C-19.58799934387207,-35.46799850463867 -35.46799850463867,-19.58799934387207 -35.46799850463867,0 C-35.46799850463867,19.58799934387207 -19.58799934387207,35.46799850463867 0,35.46799850463867 C19.58799934387207,35.46799850463867 35.46799850463867,19.58799934387207 35.46799850463867,0 C35.46799850463867,-19.58799934387207 19.58799934387207,-35.46799850463867 0,-35.46799850463867z"></path></g></g><g transform="matrix(1,0,0,1,28.125,418.592041015625)" opacity="1" style="display: block;"><g opacity="1" transform="matrix(1,0,0,1,166,144.98500061035156)"><path stroke="url(#__lottie_element_71)" stroke-linecap="round" stroke-linejoin="miter" fill-opacity="0" stroke-miterlimit="4" stroke-opacity="1" stroke-width="2" d=" M-135.3350067138672,-142.98500061035156 C-150.06199645996094,-142.98500061035156 -162,-131.0469970703125 -162,-116.31999969482422 C-162,-116.31999969482422 -162,116.31999969482422 -162,116.31999969482422 C-162,131.0469970703125 -150.06199645996094,142.98500061035156 -135.3350067138672,142.98500061035156 C-135.3350067138672,142.98500061035156 135.3350067138672,142.98500061035156 135.3350067138672,142.98500061035156 C150.06100463867188,142.98500061035156 162,131.0469970703125 162,116.31999969482422 C162,116.31999969482422 162,-116.31999969482422 162,-116.31999969482422 C162,-131.0469970703125 150.06100463867188,-142.98500061035156 135.3350067138672,-142.98500061035156 C135.3350067138672,-142.98500061035156 -135.3350067138672,-142.98500061035156 -135.3350067138672,-142.98500061035156z"></path></g></g><g transform="matrix(1,0,0,1,241.15699768066406,548.1099853515625)" opacity="1" style="display: block;"><g opacity="1" transform="matrix(1,0,0,1,37.46799850463867,37.46799850463867)"><path stroke="url(#__lottie_element_67)" stroke-linecap="round" stroke-linejoin="miter" fill-opacity="0" stroke-miterlimit="4" stroke-opacity="1" stroke-width="2" d=" M0,-35.46799850463867 C-19.58799934387207,-35.46799850463867 -35.46799850463867,-19.589000701904297 -35.46799850463867,0 C-35.46799850463867,19.58799934387207 -19.58799934387207,35.46799850463867 0,35.46799850463867 C19.58799934387207,35.46799850463867 35.46799850463867,19.58799934387207 35.46799850463867,0 C35.46799850463867,-19.589000701904297 19.58799934387207,-35.46799850463867 0,-35.46799850463867z"></path></g></g><g transform="matrix(1,0,0,1,28.125,711.0450439453125)" opacity="1" style="display: block;"><g opacity="1" transform="matrix(1,0,0,1,164,27.65999984741211)"><path stroke="url(#__lottie_element_63)" stroke-linecap="round" stroke-linejoin="miter" fill-opacity="0" stroke-miterlimit="4" stroke-opacity="1" stroke-width="2" d=" M162,25.65999984741211 C162,25.65999984741211 162,-0.6600000262260437 162,-0.6600000262260437 C162,-14.467000007629395 150.8070068359375,-25.65999984741211 137,-25.65999984741211 C137,-25.65999984741211 -136,-25.65999984741211 -136,-25.65999984741211 C-150.35899353027344,-25.65999984741211 -162,-14.020000457763672 -162,0.3400000035762787 C-162,0.3400000035762787 -162,25.65999984741211 -162,25.65999984741211"></path></g></g><g transform="matrix(1,0,0,1,131.125,760.18798828125)" opacity="1" style="display: block;"><g opacity="1" transform="matrix(1,0,0,1,0,0)"><path stroke="url(#__lottie_element_59)" stroke-linecap="round" stroke-linejoin="miter" fill-opacity="0" stroke-miterlimit="4" stroke-opacity="1" stroke-width="2" d=" M121,1 C121,1 1,1 1,1"></path></g></g></g></svg>