<svg xmlns="http://www.w3.org/2000/svg" xmlns:xlink="http://www.w3.org/1999/xlink" viewBox="0 0 382 366" width="382" height="366" preserveAspectRatio="xMidYMid meet" style="width: 100%; height: 100%; transform: translate3d(0px, 0px, 0px); content-visibility: visible;"><defs><clipPath id="__lottie_element_89"><rect width="382" height="366" x="0" y="0"></rect></clipPath></defs><g clip-path="url(#__lottie_element_89)"><g transform="matrix(0.9999910593032837,0,0,0.9999910593032837,20.001480102539062,25.001419067382812)" opacity="0.11999732848651636" style="display: block;"><g opacity="1" transform="matrix(1,0,0,1,166,158)"><path fill="rgb(249,141,198)" fill-opacity="1" d=" M-166,-128 C-166,-144.56900024414062 -152.5679931640625,-158 -136,-158 C-136,-158 110,-158 110,-158 C140.92799377441406,-158 166,-132.92799377441406 166,-102 C166,-102 166,128 166,128 C166,144.56900024414062 152.56900024414062,158 136,158 C136,158 -110,158 -110,158 C-140.92799377441406,158 -166,132.92799377441406 -166,102 C-166,102 -166,-128 -166,-128z"></path></g><g opacity="1" transform="matrix(1,0,0,1,166,158)"><path stroke-linecap="butt" stroke-linejoin="miter" fill-opacity="0" stroke-miterlimit="4" stroke="rgb(249,141,198)" stroke-opacity="0.15" stroke-width="1" d=" M-136,-157.5 C-136,-157.5 110,-157.5 110,-157.5 C140.65199279785156,-157.5 165.5,-132.65199279785156 165.5,-102 C165.5,-102 165.5,128 165.5,128 C165.5,144.29200744628906 152.29200744628906,157.5 136,157.5 C136,157.5 -110,157.5 -110,157.5 C-140.65199279785156,157.5 -165.5,132.65199279785156 -165.5,102 C-165.5,102 -165.5,-128 -165.5,-128 C-165.5,-144.29200744628906 -152.29200744628906,-157.5 -136,-157.5z"></path></g></g><g transform="matrix(0.9999944567680359,0,0,0.9999944567680359,36.000823974609375,41.00079345703125)" opacity="0.15999778447812432" style="display: block;"><g opacity="1" transform="matrix(1,0,0,1,150,142)"><path fill="rgb(249,141,198)" fill-opacity="1" d=" M-150,-122 C-150,-133.04600524902344 -141.04600524902344,-142 -130,-142 C-130,-142 105,-142 105,-142 C129.85299682617188,-142 150,-121.85299682617188 150,-97 C150,-97 150,122 150,122 C150,133.04600524902344 141.04600524902344,142 130,142 C130,142 -104,142 -104,142 C-129.40499877929688,142 -150,121.40499877929688 -150,96 C-150,96 -150,-122 -150,-122z"></path></g><g opacity="1" transform="matrix(1,0,0,1,150,142)"><path stroke-linecap="butt" stroke-linejoin="miter" fill-opacity="0" stroke-miterlimit="4" stroke="rgb(249,141,198)" stroke-opacity="1" stroke-width="1" d=" M-130,-141.5 C-130,-141.5 105,-141.5 105,-141.5 C129.57699584960938,-141.5 149.5,-121.5770034790039 149.5,-97 C149.5,-97 149.5,122 149.5,122 C149.5,132.77000427246094 140.77000427246094,141.5 130,141.5 C130,141.5 -104,141.5 -104,141.5 C-129.12899780273438,141.5 -149.5,121.12899780273438 -149.5,96 C-149.5,96 -149.5,-122 -149.5,-122 C-149.5,-132.77000427246094 -140.77000427246094,-141.5 -130,-141.5z"></path></g></g><g transform="matrix(1,0,0,0.8726599812507629,52,89.56356048583984)" opacity="1" style="display: block;"><g opacity="1" transform="matrix(1,0,0,1,0,0)"><path stroke-linecap="round" stroke-linejoin="miter" fill-opacity="0" stroke-miterlimit="4" stroke="rgb(219,146,255)" stroke-opacity="0.48" stroke-width="1" d=" M0.5,1 C0.5,1 0.5,223 0.5,223"></path></g><g opacity="1" transform="matrix(1,0,0,1,0,0)"><path stroke-linecap="butt" stroke-linejoin="miter" fill-opacity="0" stroke-miterlimit="4" stroke="rgb(127,127,127)" stroke-opacity="0.28" stroke-width="1" d=" M16.5,0.5 C16.5,0.5 16.5,267.5 16.5,267.5"></path></g><g opacity="1" transform="matrix(1,0,0,1,0,0)"><path stroke-linecap="round" stroke-linejoin="miter" fill-opacity="0" stroke-miterlimit="4" stroke="rgb(219,146,255)" stroke-opacity="0.48" stroke-width="1" d=" M42,118.5 C42,118.5 42,234.5 42,234.5"></path></g><g opacity="1" transform="matrix(1,0,0,1,0,0)"><path stroke-linecap="butt" stroke-linejoin="miter" fill-opacity="0" stroke-miterlimit="4" stroke="rgb(127,127,127)" stroke-opacity="0.28" stroke-width="1" d=" M68.5,0.5 C68.5,0.5 68.5,267.5 68.5,267.5"></path></g><g opacity="1" transform="matrix(1,0,0,1,0,0)"><path stroke-linecap="butt" stroke-linejoin="miter" fill-opacity="0" stroke-miterlimit="4" stroke="rgb(127,127,127)" stroke-opacity="0.28" stroke-width="1" d=" M94.5,0.5 C94.5,0.5 94.5,267.5 94.5,267.5"></path></g><g opacity="1" transform="matrix(1,0,0,1,0,0)"><path stroke-linecap="round" stroke-linejoin="miter" fill-opacity="0" stroke-miterlimit="4" stroke="rgb(219,146,255)" stroke-opacity="0.48" stroke-width="1" d=" M120,0.5 C120,0.5 120,104.5 120,104.5"></path></g><g opacity="1" transform="matrix(1,0,0,1,0,0)"><path stroke-linecap="butt" stroke-linejoin="miter" fill-opacity="0" stroke-miterlimit="4" stroke="rgb(127,127,127)" stroke-opacity="0.28" stroke-width="1" d=" M146.5,0.5 C146.5,0.5 146.5,267.5 146.5,267.5"></path></g><g opacity="1" transform="matrix(1,0,0,1,0,0)"><path stroke-linecap="round" stroke-linejoin="miter" fill-opacity="0" stroke-miterlimit="4" stroke="rgb(219,146,255)" stroke-opacity="0.48" stroke-width="1" d=" M172,192.5 C172,192.5 172,234.5 172,234.5"></path></g><g opacity="1" transform="matrix(1,0,0,1,0,0)"><path stroke-linecap="butt" stroke-linejoin="miter" fill-opacity="0" stroke-miterlimit="4" stroke="rgb(127,127,127)" stroke-opacity="0.28" stroke-width="1" d=" M198.5,0.5 C198.5,0.5 198.5,267.5 198.5,267.5"></path></g><g opacity="1" transform="matrix(1,0,0,1,0,0)"><path stroke-linecap="butt" stroke-linejoin="miter" fill-opacity="0" stroke-miterlimit="4" stroke="rgb(127,127,127)" stroke-opacity="0.28" stroke-width="1" d=" M224.5,0.5 C224.5,0.5 224.5,267.5 224.5,267.5"></path></g><g opacity="1" transform="matrix(1,0,0,1,0,0)"><path stroke-linecap="butt" stroke-linejoin="miter" fill-opacity="0" stroke-miterlimit="4" stroke="rgb(127,127,127)" stroke-opacity="0.28" stroke-width="1" d=" M250.5,0.5 C250.5,0.5 250.5,267.5 250.5,267.5"></path></g><g opacity="1" transform="matrix(1,0,0,1,0,0)"><path stroke-linecap="round" stroke-linejoin="miter" fill-opacity="0" stroke-miterlimit="4" stroke="rgb(219,146,255)" stroke-opacity="0.48" stroke-width="1" d=" M268,0.5 C268,0.5 268,233.5 268,233.5"></path></g></g><g transform="matrix(1,0,0,1,63,59)" opacity="1" style="display: block;"><g opacity="1" transform="matrix(1,0,0,1,5,5)"><path fill="rgb(249,142,198)" fill-opacity="1" d=" M0,-5 C2.760999917984009,-5 5,-2.760999917984009 5,0 C5,2.760999917984009 2.760999917984009,5 0,5 C-2.760999917984009,5 -5,2.760999917984009 -5,0 C-5,-2.760999917984009 -2.760999917984009,-5 0,-5z"></path></g></g><g transform="matrix(1,0,0,1,89,59)" opacity="1" style="display: block;"><g opacity="1" transform="matrix(1,0,0,1,5,5)"><path fill="rgb(249,142,198)" fill-opacity="1" d=" M0,-5 C2.760999917984009,-5 5,-2.760999917984009 5,0 C5,2.760999917984009 2.760999917984009,5 0,5 C-2.760999917984009,5 -5,2.760999917984009 -5,0 C-5,-2.760999917984009 -2.760999917984009,-5 0,-5z"></path></g></g><g transform="matrix(1,0,0,1,115.26000213623047,59)" opacity="1" style="display: block;"><g opacity="1" transform="matrix(1,0,0,1,5,5)"><path fill="rgb(249,142,198)" fill-opacity="1" d=" M0,-5 C2.760999917984009,-5 5,-2.760999917984009 5,0 C5,2.760999917984009 2.760999917984009,5 0,5 C-2.760999917984009,5 -5,2.760999917984009 -5,0 C-5,-2.760999917984009 -2.760999917984009,-5 0,-5z"></path></g></g><g transform="matrix(1,0,0,1,140.9250030517578,59)" opacity="1" style="display: block;"><g opacity="1" transform="matrix(1,0,0,1,5,5)"><path fill="rgb(249,142,198)" fill-opacity="1" d=" M0,-5 C2.760999917984009,-5 5,-2.760999917984009 5,0 C5,2.760999917984009 2.760999917984009,5 0,5 C-2.760999917984009,5 -5,2.760999917984009 -5,0 C-5,-2.760999917984009 -2.760999917984009,-5 0,-5z"></path></g></g><g transform="matrix(1,0,0,1,167,59)" opacity="1" style="display: block;"><g opacity="1" transform="matrix(1,0,0,1,5,5)"><path fill="rgb(249,142,198)" fill-opacity="1" d=" M0,-5 C2.760999917984009,-5 5,-2.760999917984009 5,0 C5,2.760999917984009 2.760999917984009,5 0,5 C-2.760999917984009,5 -5,2.760999917984009 -5,0 C-5,-2.760999917984009 -2.760999917984009,-5 0,-5z"></path></g></g><g transform="matrix(1,0,0,1,193,59)" opacity="1" style="display: block;"><g opacity="1" transform="matrix(1,0,0,1,5,5)"><path fill="rgb(249,142,198)" fill-opacity="1" d=" M0,-5 C2.760999917984009,-5 5,-2.760999917984009 5,0 C5,2.760999917984009 2.760999917984009,5 0,5 C-2.760999917984009,5 -5,2.760999917984009 -5,0 C-5,-2.760999917984009 -2.760999917984009,-5 0,-5z"></path></g></g><g transform="matrix(1,0,0,1,219,59)" opacity="1" style="display: block;"><g opacity="1" transform="matrix(1,0,0,1,5,5)"><path fill="rgb(249,142,198)" fill-opacity="1" d=" M0,-5 C2.760999917984009,-5 5,-2.760999917984009 5,0 C5,2.760999917984009 2.760999917984009,5 0,5 C-2.760999917984009,5 -5,2.760999917984009 -5,0 C-5,-2.760999917984009 -2.760999917984009,-5 0,-5z"></path></g></g><g transform="matrix(1,0,0,1,245,59)" opacity="1" style="display: block;"><g opacity="1" transform="matrix(1,0,0,1,5,5)"><path fill="rgb(249,142,198)" fill-opacity="1" d=" M0,-5 C2.760999917984009,-5 5,-2.760999917984009 5,0 C5,2.760999917984009 2.760999917984009,5 0,5 C-2.760999917984009,5 -5,2.760999917984009 -5,0 C-5,-2.760999917984009 -2.760999917984009,-5 0,-5z"></path></g></g><g transform="matrix(1,0,0,1,271,59)" opacity="1" style="display: block;"><g opacity="1" transform="matrix(1,0,0,1,5,5)"><path fill="rgb(249,142,198)" fill-opacity="1" d=" M0,-5 C2.760999917984009,-5 5,-2.760999917984009 5,0 C5,2.760999917984009 2.760999917984009,5 0,5 C-2.760999917984009,5 -5,2.760999917984009 -5,0 C-5,-2.760999917984009 -2.760999917984009,-5 0,-5z"></path></g></g><g transform="matrix(1,0,0,1,297,59)" opacity="1" style="display: block;"><g opacity="1" transform="matrix(1,0,0,1,5,5)"><path fill="rgb(249,142,198)" fill-opacity="1" d=" M0,-5 C2.760999917984009,-5 5,-2.760999917984009 5,0 C5,2.760999917984009 2.760999917984009,5 0,5 C-2.760999917984009,5 -5,2.760999917984009 -5,0 C-5,-2.760999917984009 -2.760999917984009,-5 0,-5z"></path></g></g><g transform="matrix(1,0,0,1,78.86700439453125,122)" opacity="1" style="display: block;"><g opacity="1" transform="matrix(1,0,0,1,85.5,27)"><path fill="rgb(255,255,255)" fill-opacity="1" d=" M-73.5,-27 C-73.5,-27 73.5,-27 73.5,-27 C80.12699890136719,-27 85.5,-21.62700080871582 85.5,-15 C85.5,-15 85.5,15 85.5,15 C85.5,21.62700080871582 80.12699890136719,27 73.5,27 C73.5,27 -73.5,27 -73.5,27 C-80.12699890136719,27 -85.5,21.62700080871582 -85.5,15 C-85.5,15 -85.5,-15 -85.5,-15 C-85.5,-21.62700080871582 -80.12699890136719,-27 -73.5,-27z"></path></g><g opacity="1" transform="matrix(1,0,0,1,85.5,27)"><path stroke-linecap="butt" stroke-linejoin="miter" fill-opacity="0" stroke-miterlimit="4" stroke="rgb(249,142,198)" stroke-opacity="1" stroke-width="1" d=" M-73.5,-26.5 C-73.5,-26.5 73.5,-26.5 73.5,-26.5 C79.85099792480469,-26.5 85,-21.35099983215332 85,-15 C85,-15 85,15 85,15 C85,21.35099983215332 79.85099792480469,26.5 73.5,26.5 C73.5,26.5 -73.5,26.5 -73.5,26.5 C-79.85099792480469,26.5 -85,21.35099983215332 -85,15 C-85,15 -85,-15 -85,-15 C-85,-21.35099983215332 -79.85099792480469,-26.5 -73.5,-26.5z"></path></g><g opacity="1" transform="matrix(1,0,0,1,85.5,27)"><path fill="rgb(255,255,255)" fill-opacity="1" d=" M-71.5,-21 C-71.5,-21 71.5,-21 71.5,-21 C75.91799926757812,-21 79.5,-17.417999267578125 79.5,-13 C79.5,-13 79.5,13 79.5,13 C79.5,17.417999267578125 75.91799926757812,21 71.5,21 C71.5,21 -71.5,21 -71.5,21 C-75.91799926757812,21 -79.5,17.417999267578125 -79.5,13 C-79.5,13 -79.5,-13 -79.5,-13 C-79.5,-17.417999267578125 -75.91799926757812,-21 -71.5,-21z"></path></g><g opacity="1" transform="matrix(1,0,0,1,85.5,27)"><path stroke-linecap="butt" stroke-linejoin="miter" fill-opacity="0" stroke-miterlimit="4" stroke="rgb(249,142,198)" stroke-opacity="1" stroke-width="0.736" d=" M-71.5,-20.631999969482422 C-71.5,-20.631999969482422 71.5,-20.631999969482422 71.5,-20.631999969482422 C75.71499633789062,-20.631999969482422 79.13200378417969,-17.21500015258789 79.13200378417969,-13 C79.13200378417969,-13 79.13200378417969,13 79.13200378417969,13 C79.13200378417969,17.21500015258789 75.71499633789062,20.631999969482422 71.5,20.631999969482422 C71.5,20.631999969482422 -71.5,20.631999969482422 -71.5,20.631999969482422 C-75.71499633789062,20.631999969482422 -79.13200378417969,17.21500015258789 -79.13200378417969,13 C-79.13200378417969,13 -79.13200378417969,-13 -79.13200378417969,-13 C-79.13200378417969,-17.21500015258789 -75.71499633789062,-20.631999969482422 -71.5,-20.631999969482422z"></path></g><g opacity="1" transform="matrix(1,0,0,1,85.4229965209961,28.73900032043457)"><path fill="rgb(10,37,64)" fill-opacity="1" d=" M-58.650001525878906,-3.739000082015991 C-58.650001525878906,-3.739000082015991 -60.058998107910156,-3.739000082015991 -60.058998107910156,-3.739000082015991 C-60.143001556396484,-4.144000053405762 -60.28900146484375,-4.5 -60.49700164794922,-4.807000160217285 C-60.70100021362305,-5.113999843597412 -60.95100021362305,-5.372000217437744 -61.24700164794922,-5.579999923706055 C-61.53900146484375,-5.791999816894531 -61.861000061035156,-5.951000213623047 -62.21699905395508,-6.057000160217285 C-62.57400131225586,-6.163000106811523 -62.94499969482422,-6.216000080108643 -63.33100128173828,-6.216000080108643 C-64.03600311279297,-6.216000080108643 -64.67500305175781,-6.038000106811523 -65.24700164794922,-5.682000160217285 C-65.81500244140625,-5.326000213623047 -66.26699829101562,-4.801000118255615 -66.60399627685547,-4.107999801635742 C-66.93699645996094,-3.4149999618530273 -67.10399627685547,-2.565000057220459 -67.10399627685547,-1.5570000410079956 C-67.10399627685547,-0.550000011920929 -66.93699645996094,0.3009999990463257 -66.60399627685547,0.9940000176429749 C-66.26699829101562,1.687000036239624 -65.81500244140625,2.2119998931884766 -65.24700164794922,2.568000078201294 C-64.67500305175781,2.9240000247955322 -64.03600311279297,3.1019999980926514 -63.33100128173828,3.1019999980926514 C-62.94499969482422,3.1019999980926514 -62.57400131225586,3.0490000247955322 -62.21699905395508,2.943000078201294 C-61.861000061035156,2.8369998931884766 -61.53900146484375,2.680000066757202 -61.24700164794922,2.4709999561309814 C-60.95100021362305,2.259000062942505 -60.70100021362305,2 -60.49700164794922,1.6929999589920044 C-60.28900146484375,1.3819999694824219 -60.143001556396484,1.0260000228881836 -60.058998107910156,0.625 C-60.058998107910156,0.625 -58.650001525878906,0.625 -58.650001525878906,0.625 C-58.75600051879883,1.218999981880188 -58.95000076293945,1.7519999742507935 -59.22999954223633,2.2209999561309814 C-59.5099983215332,2.690999984741211 -59.85900115966797,3.0910000801086426 -60.275001525878906,3.4200000762939453 C-60.69200134277344,3.746000051498413 -61.159000396728516,3.99399995803833 -61.678001403808594,4.164000034332275 C-62.19300079345703,4.335000038146973 -62.74399948120117,4.420000076293945 -63.33100128173828,4.420000076293945 C-64.3239974975586,4.420000076293945 -65.20600128173828,4.177999973297119 -65.97899627685547,3.693000078201294 C-66.7509994506836,3.2079999446868896 -67.35900115966797,2.5190000534057617 -67.8030014038086,1.625 C-68.24600219726562,0.7310000061988831 -68.46700286865234,-0.33000001311302185 -68.46700286865234,-1.5570000410079956 C-68.46700286865234,-2.7839999198913574 -68.24600219726562,-3.8450000286102295 -67.8030014038086,-4.738999843597412 C-67.35900115966797,-5.632999897003174 -66.7509994506836,-6.322000026702881 -65.97899627685547,-6.807000160217285 C-65.20600128173828,-7.291999816894531 -64.3239974975586,-7.533999919891357 -63.33100128173828,-7.533999919891357 C-62.74399948120117,-7.533999919891357 -62.19300079345703,-7.448999881744385 -61.678001403808594,-7.2789998054504395 C-61.159000396728516,-7.107999801635742 -60.69200134277344,-6.857999801635742 -60.275001525878906,-6.5289998054504395 C-59.85900115966797,-6.203000068664551 -59.5099983215332,-5.804999828338623 -59.22999954223633,-5.335999965667725 C-58.95000076293945,-4.869999885559082 -58.75600051879883,-4.336999893188477 -58.650001525878906,-3.739000082015991z M-53.32899856567383,4.442999839782715 C-54.117000579833984,4.442999839782715 -54.808998107910156,4.255000114440918 -55.40399932861328,3.880000114440918 C-55.99399948120117,3.505000114440918 -56.457000732421875,2.9809999465942383 -56.790000915527344,2.305999994277954 C-57.11899948120117,1.6319999694824219 -57.284000396728516,0.843999981880188 -57.284000396728516,-0.05700000002980232 C-57.284000396728516,-0.9660000205039978 -57.11899948120117,-1.7599999904632568 -56.790000915527344,-2.437999963760376 C-56.457000732421875,-3.115999937057495 -55.99399948120117,-3.6419999599456787 -55.40399932861328,-4.017000198364258 C-54.808998107910156,-4.392000198364258 -54.117000579833984,-4.579999923706055 -53.32899856567383,-4.579999923706055 C-52.54100036621094,-4.579999923706055 -51.85100173950195,-4.392000198364258 -51.2599983215332,-4.017000198364258 C-50.66600036621094,-3.6419999599456787 -50.20399856567383,-3.115999937057495 -49.874000549316406,-2.437999963760376 C-49.54100036621094,-1.7599999904632568 -49.374000549316406,-0.9660000205039978 -49.374000549316406,-0.05700000002980232 C-49.374000549316406,0.843999981880188 -49.54100036621094,1.6319999694824219 -49.874000549316406,2.305999994277954 C-50.20399856567383,2.9809999465942383 -50.66600036621094,3.505000114440918 -51.2599983215332,3.880000114440918 C-51.85100173950195,4.255000114440918 -52.54100036621094,4.442999839782715 -53.32899856567383,4.442999839782715z M-53.32899856567383,3.23799991607666 C-52.72999954223633,3.23799991607666 -52.23899841308594,3.0850000381469727 -51.85200119018555,2.7780001163482666 C-51.465999603271484,2.4709999561309814 -51.17900085449219,2.068000078201294 -50.99300003051758,1.5679999589920044 C-50.80799865722656,1.0679999589920044 -50.71500015258789,0.5260000228881836 -50.71500015258789,-0.05700000002980232 C-50.71500015258789,-0.640999972820282 -50.80799865722656,-1.184000015258789 -50.99300003051758,-1.687999963760376 C-51.17900085449219,-2.191999912261963 -51.465999603271484,-2.5989999771118164 -51.85200119018555,-2.9089999198913574 C-52.23899841308594,-3.2200000286102295 -52.72999954223633,-3.375 -53.32899856567383,-3.375 C-53.926998138427734,-3.375 -54.42100143432617,-3.2200000286102295 -54.80699920654297,-2.9089999198913574 C-55.19300079345703,-2.5989999771118164 -55.479000091552734,-2.191999912261963 -55.665000915527344,-1.687999963760376 C-55.849998474121094,-1.184000015258789 -55.94300079345703,-0.640999972820282 -55.94300079345703,-0.05700000002980232 C-55.94300079345703,0.5260000228881836 -55.849998474121094,1.0679999589920044 -55.665000915527344,1.5679999589920044 C-55.479000091552734,2.068000078201294 -55.19300079345703,2.4709999561309814 -54.80699920654297,2.7780001163482666 C-54.42100143432617,3.0850000381469727 -53.926998138427734,3.23799991607666 -53.32899856567383,3.23799991607666z M-47.64799880981445,4.261000156402588 C-47.64799880981445,4.261000156402588 -47.64799880981445,-4.466000080108643 -47.64799880981445,-4.466000080108643 C-47.64799880981445,-4.466000080108643 -46.35300064086914,-4.466000080108643 -46.35300064086914,-4.466000080108643 C-46.35300064086914,-4.466000080108643 -46.35300064086914,-3.1480000019073486 -46.35300064086914,-3.1480000019073486 C-46.35300064086914,-3.1480000019073486 -46.262001037597656,-3.1480000019073486 -46.262001037597656,-3.1480000019073486 C-46.10300064086914,-3.5799999237060547 -45.814998626708984,-3.930000066757202 -45.39799880981445,-4.198999881744385 C-44.981998443603516,-4.4679999351501465 -44.512001037597656,-4.603000164031982 -43.98899841308594,-4.603000164031982 C-43.89099884033203,-4.603000164031982 -43.768001556396484,-4.60099983215332 -43.619998931884766,-4.5970001220703125 C-43.47200012207031,-4.5929999351501465 -43.36000061035156,-4.586999893188477 -43.28499984741211,-4.579999923706055 C-43.28499984741211,-4.579999923706055 -43.28499984741211,-3.2160000801086426 -43.28499984741211,-3.2160000801086426 C-43.33000183105469,-3.2279999256134033 -43.43299865722656,-3.244999885559082 -43.59600067138672,-3.2669999599456787 C-43.755001068115234,-3.2939999103546143 -43.92499923706055,-3.306999921798706 -44.10300064086914,-3.306999921798706 C-44.527000427246094,-3.306999921798706 -44.90599822998047,-3.2179999351501465 -45.23899841308594,-3.0399999618530273 C-45.569000244140625,-2.865999937057495 -45.83000183105469,-2.622999906539917 -46.02299880981445,-2.312999963760376 C-46.2130012512207,-2.00600004196167 -46.30699920654297,-1.656000018119812 -46.30699920654297,-1.2619999647140503 C-46.30699920654297,-1.2619999647140503 -46.30699920654297,4.261000156402588 -46.30699920654297,4.261000156402588 C-46.30699920654297,4.261000156402588 -47.64799880981445,4.261000156402588 -47.64799880981445,4.261000156402588z M-42.013999938964844,7.533999919891357 C-42.013999938964844,7.533999919891357 -42.013999938964844,-4.466000080108643 -42.013999938964844,-4.466000080108643 C-42.013999938964844,-4.466000080108643 -40.71900177001953,-4.466000080108643 -40.71900177001953,-4.466000080108643 C-40.71900177001953,-4.466000080108643 -40.71900177001953,-3.0799999237060547 -40.71900177001953,-3.0799999237060547 C-40.71900177001953,-3.0799999237060547 -40.56100082397461,-3.0799999237060547 -40.56100082397461,-3.0799999237060547 C-40.46200180053711,-3.2309999465942383 -40.32500076293945,-3.424999952316284 -40.150001525878906,-3.6589999198913574 C-39.97200012207031,-3.8980000019073486 -39.71900177001953,-4.110000133514404 -39.388999938964844,-4.296000003814697 C-39.055999755859375,-4.485000133514404 -38.60599899291992,-4.579999923706055 -38.03799819946289,-4.579999923706055 C-37.303001403808594,-4.579999923706055 -36.65399932861328,-4.395999908447266 -36.09400177001953,-4.0289998054504395 C-35.53300094604492,-3.6610000133514404 -35.09700012207031,-3.1410000324249268 -34.78200149536133,-2.4660000801086426 C-34.46799850463867,-1.7920000553131104 -34.31100082397461,-0.996999979019165 -34.31100082397461,-0.07999999821186066 C-34.31100082397461,0.843999981880188 -34.46799850463867,1.6449999809265137 -34.78200149536133,2.322999954223633 C-35.09700012207031,2.997999906539917 -35.53200149536133,3.5199999809265137 -36.0890007019043,3.8919999599456787 C-36.645999908447266,4.258999824523926 -37.2869987487793,4.442999839782715 -38.013999938964844,4.442999839782715 C-38.57500076293945,4.442999839782715 -39.02399826049805,4.349999904632568 -39.361000061035156,4.164000034332275 C-39.698001861572266,3.9749999046325684 -39.957000732421875,3.760999917984009 -40.138999938964844,3.5220000743865967 C-40.32099914550781,3.2799999713897705 -40.46200180053711,3.0789999961853027 -40.56100082397461,2.9200000762939453 C-40.56100082397461,2.9200000762939453 -40.67399978637695,2.9200000762939453 -40.67399978637695,2.9200000762939453 C-40.67399978637695,2.9200000762939453 -40.67399978637695,7.533999919891357 -40.67399978637695,7.533999919891357 C-40.67399978637695,7.533999919891357 -42.013999938964844,7.533999919891357 -42.013999938964844,7.533999919891357z M-40.696998596191406,-0.10300000011920929 C-40.696998596191406,0.5559999942779541 -40.599998474121094,1.1380000114440918 -40.40700149536133,1.6419999599456787 C-40.2140007019043,2.1419999599456787 -39.93199920654297,2.5339999198913574 -39.56100082397461,2.818000078201294 C-39.18899917602539,3.0980000495910645 -38.73500061035156,3.23799991607666 -38.196998596191406,3.23799991607666 C-37.63600158691406,3.23799991607666 -37.16899871826172,3.0910000801086426 -36.79399871826172,2.7950000762939453 C-36.415000915527344,2.496000051498413 -36.13100051879883,2.0940001010894775 -35.941001892089844,1.590999960899353 C-35.74800109863281,1.0829999446868896 -35.650001525878906,0.5189999938011169 -35.650001525878906,-0.10300000011920929 C-35.650001525878906,-0.7160000205039978 -35.74599838256836,-1.2690000534057617 -35.93600082397461,-1.7619999647140503 C-36.12099838256836,-2.257999897003174 -36.40299987792969,-2.6500000953674316 -36.78200149536133,-2.937999963760376 C-37.15700149536133,-3.2300000190734863 -37.62900161743164,-3.375 -38.196998596191406,-3.375 C-38.742000579833984,-3.375 -39.20100021362305,-3.236999988555908 -39.571998596191406,-2.9609999656677246 C-39.94300079345703,-2.687999963760376 -40.222999572753906,-2.305000066757202 -40.41299819946289,-1.812999963760376 C-40.60200119018555,-1.3240000009536743 -40.696998596191406,-0.7540000081062317 -40.696998596191406,-0.10300000011920929z M-29.040000915527344,4.442999839782715 C-29.827999114990234,4.442999839782715 -30.518999099731445,4.255000114440918 -31.11400032043457,3.880000114440918 C-31.70400047302246,3.505000114440918 -32.16600036621094,2.9809999465942383 -32.499000549316406,2.305999994277954 C-32.827999114990234,1.6319999694824219 -32.99300003051758,0.843999981880188 -32.99300003051758,-0.05700000002980232 C-32.99300003051758,-0.9660000205039978 -32.827999114990234,-1.7599999904632568 -32.499000549316406,-2.437999963760376 C-32.16600036621094,-3.115999937057495 -31.70400047302246,-3.6419999599456787 -31.11400032043457,-4.017000198364258 C-30.518999099731445,-4.392000198364258 -29.827999114990234,-4.579999923706055 -29.040000915527344,-4.579999923706055 C-28.25200080871582,-4.579999923706055 -27.562000274658203,-4.392000198364258 -26.97100067138672,-4.017000198364258 C-26.37700080871582,-3.6419999599456787 -25.915000915527344,-3.115999937057495 -25.584999084472656,-2.437999963760376 C-25.25200080871582,-1.7599999904632568 -25.084999084472656,-0.9660000205039978 -25.084999084472656,-0.05700000002980232 C-25.084999084472656,0.843999981880188 -25.25200080871582,1.6319999694824219 -25.584999084472656,2.305999994277954 C-25.915000915527344,2.9809999465942383 -26.37700080871582,3.505000114440918 -26.97100067138672,3.880000114440918 C-27.562000274658203,4.255000114440918 -28.25200080871582,4.442999839782715 -29.040000915527344,4.442999839782715z M-29.040000915527344,3.23799991607666 C-28.44099998474121,3.23799991607666 -27.948999404907227,3.0850000381469727 -27.562000274658203,2.7780001163482666 C-27.176000595092773,2.4709999561309814 -26.889999389648438,2.068000078201294 -26.70400047302246,1.5679999589920044 C-26.518999099731445,1.0679999589920044 -26.426000595092773,0.5260000228881836 -26.426000595092773,-0.05700000002980232 C-26.426000595092773,-0.640999972820282 -26.518999099731445,-1.184000015258789 -26.70400047302246,-1.687999963760376 C-26.889999389648438,-2.191999912261963 -27.176000595092773,-2.5989999771118164 -27.562000274658203,-2.9089999198913574 C-27.948999404907227,-3.2200000286102295 -28.44099998474121,-3.375 -29.040000915527344,-3.375 C-29.63800048828125,-3.375 -30.131000518798828,-3.2200000286102295 -30.517000198364258,-2.9089999198913574 C-30.902999877929688,-2.5989999771118164 -31.187999725341797,-2.191999912261963 -31.374000549316406,-1.687999963760376 C-31.55900001525879,-1.184000015258789 -31.652000427246094,-0.640999972820282 -31.652000427246094,-0.05700000002980232 C-31.652000427246094,0.5260000228881836 -31.55900001525879,1.0679999589920044 -31.374000549316406,1.5679999589920044 C-31.187999725341797,2.068000078201294 -30.902999877929688,2.4709999561309814 -30.517000198364258,2.7780001163482666 C-30.131000518798828,3.0850000381469727 -29.63800048828125,3.23799991607666 -29.040000915527344,3.23799991607666z M-23.35700035095215,4.261000156402588 C-23.35700035095215,4.261000156402588 -23.35700035095215,-4.466000080108643 -23.35700035095215,-4.466000080108643 C-23.35700035095215,-4.466000080108643 -22.062000274658203,-4.466000080108643 -22.062000274658203,-4.466000080108643 C-22.062000274658203,-4.466000080108643 -22.062000274658203,-3.1480000019073486 -22.062000274658203,-3.1480000019073486 C-22.062000274658203,-3.1480000019073486 -21.97100067138672,-3.1480000019073486 -21.97100067138672,-3.1480000019073486 C-21.812000274658203,-3.5799999237060547 -21.52400016784668,-3.930000066757202 -21.10700035095215,-4.198999881744385 C-20.69099998474121,-4.4679999351501465 -20.222000122070312,-4.603000164031982 -19.698999404907227,-4.603000164031982 C-19.60099983215332,-4.603000164031982 -19.476999282836914,-4.60099983215332 -19.32900047302246,-4.5970001220703125 C-19.180999755859375,-4.5929999351501465 -19.06999969482422,-4.586999893188477 -18.9950008392334,-4.579999923706055 C-18.9950008392334,-4.579999923706055 -18.9950008392334,-3.2160000801086426 -18.9950008392334,-3.2160000801086426 C-19.040000915527344,-3.2279999256134033 -19.143999099731445,-3.244999885559082 -19.30699920654297,-3.2669999599456787 C-19.465999603271484,-3.2939999103546143 -19.634000778198242,-3.306999921798706 -19.812000274658203,-3.306999921798706 C-20.236000061035156,-3.306999921798706 -20.615999221801758,-3.2179999351501465 -20.948999404907227,-3.0399999618530273 C-21.27899932861328,-2.865999937057495 -21.538999557495117,-2.622999906539917 -21.73200035095215,-2.312999963760376 C-21.922000885009766,-2.00600004196167 -22.017000198364258,-1.656000018119812 -22.017000198364258,-1.2619999647140503 C-22.017000198364258,-1.2619999647140503 -22.017000198364258,4.261000156402588 -22.017000198364258,4.261000156402588 C-22.017000198364258,4.261000156402588 -23.35700035095215,4.261000156402588 -23.35700035095215,4.261000156402588z M-15.156999588012695,4.466000080108643 C-15.710000038146973,4.466000080108643 -16.211999893188477,4.361000061035156 -16.663000106811523,4.1529998779296875 C-17.113000869750977,3.940999984741211 -17.47100067138672,3.635999917984009 -17.736000061035156,3.23799991607666 C-18.00200080871582,2.8369998931884766 -18.132999420166016,2.3519999980926514 -18.132999420166016,1.784000039100647 C-18.132999420166016,1.284000039100647 -18.035999298095703,0.878000020980835 -17.839000701904297,0.5680000185966492 C-17.642000198364258,0.2529999911785126 -17.378999710083008,0.007000000216066837 -17.048999786376953,-0.17100000381469727 C-16.7189998626709,-0.3490000069141388 -16.356000900268555,-0.48100000619888306 -15.958000183105469,-0.5690000057220459 C-15.557000160217285,-0.6589999794960022 -15.152000427246094,-0.7310000061988831 -14.746999740600586,-0.7839999794960022 C-14.217000007629395,-0.8529999852180481 -13.788000106811523,-0.9039999842643738 -13.458000183105469,-0.9380000233650208 C-13.125,-0.9760000109672546 -12.880999565124512,-1.0379999876022339 -12.729999542236328,-1.125 C-12.574000358581543,-1.2120000123977661 -12.496999740600586,-1.3639999628067017 -12.496999740600586,-1.5800000429153442 C-12.496999740600586,-1.5800000429153442 -12.496999740600586,-1.625 -12.496999740600586,-1.625 C-12.496999740600586,-2.186000108718872 -12.651000022888184,-2.621999979019165 -12.958000183105469,-2.931999921798706 C-13.26099967956543,-3.243000030517578 -13.720999717712402,-3.3980000019073486 -14.33899974822998,-3.3980000019073486 C-14.979000091552734,-3.3980000019073486 -15.480999946594238,-3.257999897003174 -15.843999862670898,-2.9779999256134033 C-16.20800018310547,-2.697000026702881 -16.464000701904297,-2.3980000019073486 -16.611000061035156,-2.0799999237060547 C-16.611000061035156,-2.0799999237060547 -17.882999420166016,-2.5339999198913574 -17.882999420166016,-2.5339999198913574 C-17.6560001373291,-3.065000057220459 -17.354000091552734,-3.4779999256134033 -16.975000381469727,-3.7730000019073486 C-16.593000411987305,-4.072000026702881 -16.176000595092773,-4.281000137329102 -15.725000381469727,-4.3979997634887695 C-15.270999908447266,-4.519000053405762 -14.822999954223633,-4.579999923706055 -14.383000373840332,-4.579999923706055 C-14.102999687194824,-4.579999923706055 -13.781999588012695,-4.546000003814697 -13.418000221252441,-4.478000164031982 C-13.050999641418457,-4.413000106811523 -12.696000099182129,-4.2789998054504395 -12.354999542236328,-4.073999881744385 C-12.010000228881836,-3.869999885559082 -11.723999977111816,-3.561000108718872 -11.496999740600586,-3.1480000019073486 C-11.270000457763672,-2.734999895095825 -11.156999588012695,-2.181999921798706 -11.156999588012695,-1.4889999628067017 C-11.156999588012695,-1.4889999628067017 -11.156999588012695,4.261000156402588 -11.156999588012695,4.261000156402588 C-11.156999588012695,4.261000156402588 -12.496999740600586,4.261000156402588 -12.496999740600586,4.261000156402588 C-12.496999740600586,4.261000156402588 -12.496999740600586,3.0789999961853027 -12.496999740600586,3.0789999961853027 C-12.496999740600586,3.0789999961853027 -12.565999984741211,3.0789999961853027 -12.565999984741211,3.0789999961853027 C-12.656999588012695,3.2690000534057617 -12.807999610900879,3.4709999561309814 -13.020999908447266,3.687000036239624 C-13.232999801635742,3.9030001163482666 -13.515000343322754,4.086999893188477 -13.866999626159668,4.23799991607666 C-14.218999862670898,4.389999866485596 -14.64900016784668,4.466000080108643 -15.156999588012695,4.466000080108643z M-14.95199966430664,3.260999917984009 C-14.42199993133545,3.260999917984009 -13.975000381469727,3.1570000648498535 -13.611000061035156,2.9489998817443848 C-13.244000434875488,2.740000009536743 -12.968000411987305,2.4709999561309814 -12.781999588012695,2.1419999599456787 C-12.593000411987305,1.812000036239624 -12.496999740600586,1.465999960899353 -12.496999740600586,1.1019999980926514 C-12.496999740600586,1.1019999980926514 -12.496999740600586,-0.125 -12.496999740600586,-0.125 C-12.553999900817871,-0.05700000002980232 -12.678999900817871,0.004999999888241291 -12.871999740600586,0.06199999898672104 C-13.060999870300293,0.11500000208616257 -13.281999588012695,0.16300000250339508 -13.531999588012695,0.20399999618530273 C-13.777999877929688,0.24199999868869781 -14.019000053405762,0.2759999930858612 -14.253999710083008,0.3059999942779541 C-14.484999656677246,0.3330000042915344 -14.67199993133545,0.35600000619888306 -14.815999984741211,0.375 C-15.163999557495117,0.41999998688697815 -15.489999771118164,0.49399998784065247 -15.793000221252441,0.5960000157356262 C-16.093000411987305,0.6949999928474426 -16.334999084472656,0.843999981880188 -16.520999908447266,1.0449999570846558 C-16.70199966430664,1.2419999837875366 -16.792999267578125,1.5110000371932983 -16.792999267578125,1.8519999980926514 C-16.792999267578125,2.318000078201294 -16.6200008392334,2.6700000762939453 -16.274999618530273,2.9089999198913574 C-15.927000045776367,3.1440000534057617 -15.486000061035156,3.260999917984009 -14.95199966430664,3.260999917984009z M-5.234000205993652,-4.466000080108643 M-5.234000205993652,-3.3299999237060547 C-5.234000205993652,-3.3299999237060547 -9.756999969482422,-3.3299999237060547 -9.756999969482422,-3.3299999237060547 C-9.756999969482422,-3.3299999237060547 -9.756999969482422,-4.466000080108643 -9.756999969482422,-4.466000080108643 C-9.756999969482422,-4.466000080108643 -5.234000205993652,-4.466000080108643 -5.234000205993652,-4.466000080108643 C-5.234000205993652,-4.466000080108643 -5.234000205993652,-3.3299999237060547 -5.234000205993652,-3.3299999237060547z M-8.439000129699707,-6.557000160217285 C-8.439000129699707,-6.557000160217285 -7.0980000495910645,-6.557000160217285 -7.0980000495910645,-6.557000160217285 C-7.0980000495910645,-6.557000160217285 -7.0980000495910645,1.7610000371932983 -7.0980000495910645,1.7610000371932983 C-7.0980000495910645,2.140000104904175 -7.043000221252441,2.4240000247955322 -6.933000087738037,2.61299991607666 C-6.818999767303467,2.7990000247955322 -6.675000190734863,2.9240000247955322 -6.500999927520752,2.98799991607666 C-6.322999954223633,3.0490000247955322 -6.136000156402588,3.0789999961853027 -5.939000129699707,3.0789999961853027 C-5.790999889373779,3.0789999961853027 -5.670000076293945,3.072000026702881 -5.574999809265137,3.055999994277954 C-5.480000019073486,3.0380001068115234 -5.4039998054504395,3.0220000743865967 -5.3480000495910645,3.010999917984009 C-5.3480000495910645,3.010999917984009 -5.074999809265137,4.216000080108643 -5.074999809265137,4.216000080108643 C-5.165999889373779,4.25 -5.293000221252441,4.283999919891357 -5.455999851226807,4.317999839782715 C-5.618000030517578,4.355999946594238 -5.824999809265137,4.375 -6.074999809265137,4.375 C-6.453999996185303,4.375 -6.824999809265137,4.293000221252441 -7.189000129699707,4.130000114440918 C-7.547999858856201,3.9670000076293945 -7.8480000495910645,3.7190001010894775 -8.086000442504883,3.385999917984009 C-8.321000099182129,3.052999973297119 -8.439000129699707,2.631999969482422 -8.439000129699707,2.125 C-8.439000129699707,2.125 -8.439000129699707,-6.557000160217285 -8.439000129699707,-6.557000160217285z M0.028999999165534973,4.442999839782715 C-0.8119999766349792,4.442999839782715 -1.5379999876022339,4.256999969482422 -2.1480000019073486,3.885999917984009 C-2.753999948501587,3.510999917984009 -3.2219998836517334,2.98799991607666 -3.5510001182556152,2.318000078201294 C-3.877000093460083,1.6440000534057617 -4.039999961853027,0.859000027179718 -4.039999961853027,-0.03400000184774399 C-4.039999961853027,-0.9279999732971191 -3.877000093460083,-1.715999960899353 -3.5510001182556152,-2.3980000019073486 C-3.2219998836517334,-3.0840001106262207 -2.763000011444092,-3.618000030517578 -2.1760001182556152,-4 C-1.5850000381469727,-4.38700008392334 -0.8949999809265137,-4.579999923706055 -0.10700000077486038,-4.579999923706055 C0.3479999899864197,-4.579999923706055 0.7960000038146973,-4.504000186920166 1.2400000095367432,-4.353000164031982 C1.6829999685287476,-4.201000213623047 2.0850000381469727,-3.9549999237060547 2.4489998817443848,-3.614000082015991 C2.812000036239624,-3.2769999504089355 3.1019999980926514,-2.8299999237060547 3.318000078201294,-2.2730000019073486 C3.5339999198913574,-1.715999960899353 3.6429998874664307,-1.031000018119812 3.6429998874664307,-0.2160000056028366 C3.6429998874664307,-0.2160000056028366 3.6429998874664307,0.35199999809265137 3.6429998874664307,0.35199999809265137 C3.6429998874664307,0.35199999809265137 -3.0850000381469727,0.35199999809265137 -3.0850000381469727,0.35199999809265137 C-3.0850000381469727,0.35199999809265137 -3.0850000381469727,-0.8069999814033508 -3.0850000381469727,-0.8069999814033508 C-3.0850000381469727,-0.8069999814033508 2.2780001163482666,-0.8069999814033508 2.2780001163482666,-0.8069999814033508 C2.2780001163482666,-1.2999999523162842 2.180000066757202,-1.7389999628067017 1.9830000400543213,-2.125 C1.7899999618530273,-2.51200008392334 1.5130000114440918,-2.816999912261963 1.152999997138977,-3.0399999618530273 C0.796999990940094,-3.2639999389648438 0.3779999911785126,-3.375 -0.10700000077486038,-3.375 C-0.640999972820282,-3.375 -1.1030000448226929,-3.243000030517578 -1.4930000305175781,-2.9779999256134033 C-1.8799999952316284,-2.7160000801086426 -2.177000045776367,-2.375 -2.384999990463257,-1.9550000429153442 C-2.5940001010894775,-1.534000039100647 -2.6989998817443848,-1.0839999914169312 -2.6989998817443848,-0.6029999852180481 C-2.6989998817443848,-0.6029999852180481 -2.6989998817443848,0.17000000178813934 -2.6989998817443848,0.17000000178813934 C-2.6989998817443848,0.8289999961853027 -2.5840001106262207,1.3880000114440918 -2.3570001125335693,1.8459999561309814 C-2.125999927520752,2.3010001182556152 -1.8070000410079956,2.6470000743865967 -1.3980000019073486,2.885999917984009 C-0.9890000224113464,3.121000051498413 -0.5120000243186951,3.23799991607666 0.028999999165534973,3.23799991607666 C0.38199999928474426,3.23799991607666 0.6990000009536743,3.188999891281128 0.9829999804496765,3.0910000801086426 C1.2710000276565552,2.98799991607666 1.5190000534057617,2.8369998931884766 1.7269999980926514,2.635999917984009 C1.9359999895095825,2.430999994277954 2.0969998836517334,2.177999973297119 2.2100000381469727,1.875 C2.2100000381469727,1.875 3.506999969482422,2.23799991607666 3.506999969482422,2.23799991607666 C3.369999885559082,2.677999973297119 3.140000104904175,3.063999891281128 2.818000078201294,3.3970000743865967 C2.496000051498413,3.7269999980926514 2.0980000495910645,3.9839999675750732 1.625,4.170000076293945 C1.1510000228881836,4.3520002365112305 0.6200000047683716,4.442999839782715 0.028999999165534973,4.442999839782715z M10.201000213623047,4.261000156402588 C10.201000213623047,4.261000156402588 8.723999977111816,4.261000156402588 8.723999977111816,4.261000156402588 C8.723999977111816,4.261000156402588 12.996000289916992,-7.375 12.996000289916992,-7.375 C12.996000289916992,-7.375 14.451000213623047,-7.375 14.451000213623047,-7.375 C14.451000213623047,-7.375 18.724000930786133,4.261000156402588 18.724000930786133,4.261000156402588 C18.724000930786133,4.261000156402588 17.246000289916992,4.261000156402588 17.246000289916992,4.261000156402588 C17.246000289916992,4.261000156402588 13.770000457763672,-5.533999919891357 13.770000457763672,-5.533999919891357 C13.770000457763672,-5.533999919891357 13.678000450134277,-5.533999919891357 13.678000450134277,-5.533999919891357 C13.678000450134277,-5.533999919891357 10.201000213623047,4.261000156402588 10.201000213623047,4.261000156402588z M10.746000289916992,-0.2840000092983246 C10.746000289916992,-0.2840000092983246 16.701000213623047,-0.2840000092983246 16.701000213623047,-0.2840000092983246 C16.701000213623047,-0.2840000092983246 16.701000213623047,0.9660000205039978 16.701000213623047,0.9660000205039978 C16.701000213623047,0.9660000205039978 10.746000289916992,0.9660000205039978 10.746000289916992,0.9660000205039978 C10.746000289916992,0.9660000205039978 10.746000289916992,-0.2840000092983246 10.746000289916992,-0.2840000092983246z M23.579999923706055,4.442999839782715 C22.761999130249023,4.442999839782715 22.05699920654297,4.25 21.465999603271484,3.86299991607666 C20.875,3.4769999980926514 20.42099952697754,2.944999933242798 20.101999282836914,2.2669999599456787 C19.784000396728516,1.5889999866485596 19.625,0.8140000104904175 19.625,-0.05700000002980232 C19.625,-0.9440000057220459 19.788999557495117,-1.7259999513626099 20.114999771118164,-2.4040000438690186 C20.444000244140625,-3.0859999656677246 20.902999877929688,-3.618000030517578 21.489999771118164,-4 C22.08099937438965,-4.38700008392334 22.768999099731445,-4.579999923706055 23.55699920654297,-4.579999923706055 C24.17099952697754,-4.579999923706055 24.724000930786133,-4.466000080108643 25.215999603271484,-4.238999843597412 C25.708999633789062,-4.01200008392334 26.11199951171875,-3.694000005722046 26.426000595092773,-3.2839999198913574 C26.740999221801758,-2.875 26.93600082397461,-2.3980000019073486 27.011999130249023,-1.8530000448226929 C27.011999130249023,-1.8530000448226929 25.67099952697754,-1.8530000448226929 25.67099952697754,-1.8530000448226929 C25.56800079345703,-2.25 25.341999053955078,-2.6029999256134033 24.989999771118164,-2.9089999198913574 C24.641000747680664,-3.2200000286102295 24.17099952697754,-3.375 23.579999923706055,-3.375 C23.05699920654297,-3.375 22.599000930786133,-3.239000082015991 22.204999923706055,-2.9660000801086426 C21.815000534057617,-2.697000026702881 21.510000228881836,-2.316999912261963 21.290000915527344,-1.8240000009536743 C21.073999404907227,-1.3359999656677246 20.965999603271484,-0.7620000243186951 20.965999603271484,-0.10300000011920929 C20.965999603271484,0.5720000267028809 21.072999954223633,1.159000039100647 21.28499984741211,1.659000039100647 C21.500999450683594,2.1589999198913574 21.80299949645996,2.546999931335449 22.19300079345703,2.822999954223633 C22.586999893188477,3.0999999046325684 23.048999786376953,3.23799991607666 23.579999923706055,3.23799991607666 C23.92799949645996,3.23799991607666 24.2450008392334,3.177999973297119 24.52899932861328,3.055999994277954 C24.812999725341797,2.934999942779541 25.05299949645996,2.760999917984009 25.25,2.5339999198913574 C25.44700050354004,2.305999994277954 25.586999893188477,2.0339999198913574 25.67099952697754,1.715999960899353 C25.67099952697754,1.715999960899353 27.011999130249023,1.715999960899353 27.011999130249023,1.715999960899353 C26.93600082397461,2.2309999465942383 26.74799919128418,2.694999933242798 26.448999404907227,3.1080000400543213 C26.15399932861328,3.5169999599456787 25.761999130249023,3.8420000076293945 25.273000717163086,4.085000038146973 C24.788000106811523,4.322999954223633 24.224000930786133,4.442999839782715 23.579999923706055,4.442999839782715z M32.196998596191406,4.442999839782715 C31.378999710083008,4.442999839782715 30.674999237060547,4.25 30.083999633789062,3.86299991607666 C29.493000030517578,3.4769999980926514 29.038000106811523,2.944999933242798 28.719999313354492,2.2669999599456787 C28.402000427246094,1.5889999866485596 28.243000030517578,0.8140000104904175 28.243000030517578,-0.05700000002980232 C28.243000030517578,-0.9440000057220459 28.4060001373291,-1.7259999513626099 28.731000900268555,-2.4040000438690186 C29.06100082397461,-3.0859999656677246 29.518999099731445,-3.618000030517578 30.106000900268555,-4 C30.69700050354004,-4.38700008392334 31.386999130249023,-4.579999923706055 32.17499923706055,-4.579999923706055 C32.78799819946289,-4.579999923706055 33.340999603271484,-4.466000080108643 33.83399963378906,-4.238999843597412 C34.32600021362305,-4.01200008392334 34.729000091552734,-3.694000005722046 35.04399871826172,-3.2839999198913574 C35.358001708984375,-2.875 35.553001403808594,-2.3980000019073486 35.62900161743164,-1.8530000448226929 C35.62900161743164,-1.8530000448226929 34.28799819946289,-1.8530000448226929 34.28799819946289,-1.8530000448226929 C34.18600082397461,-2.25 33.95899963378906,-2.6029999256134033 33.60599899291992,-2.9089999198913574 C33.257999420166016,-3.2200000286102295 32.78799819946289,-3.375 32.196998596191406,-3.375 C31.674999237060547,-3.375 31.215999603271484,-3.239000082015991 30.82200050354004,-2.9660000801086426 C30.43199920654297,-2.697000026702881 30.128000259399414,-2.316999912261963 29.908000946044922,-1.8240000009536743 C29.69300079345703,-1.3359999656677246 29.583999633789062,-0.7620000243186951 29.583999633789062,-0.10300000011920929 C29.583999633789062,0.5720000267028809 29.690000534057617,1.159000039100647 29.902000427246094,1.659000039100647 C30.118000030517578,2.1589999198913574 30.42099952697754,2.546999931335449 30.81100082397461,2.822999954223633 C31.204999923706055,3.0999999046325684 31.66699981689453,3.23799991607666 32.196998596191406,3.23799991607666 C32.54600143432617,3.23799991607666 32.86199951171875,3.177999973297119 33.145999908447266,3.055999994277954 C33.43000030517578,2.934999942779541 33.67100143432617,2.760999917984009 33.86800003051758,2.5339999198913574 C34.064998626708984,2.305999994277954 34.20500183105469,2.0339999198913574 34.28799819946289,1.715999960899353 C34.28799819946289,1.715999960899353 35.62900161743164,1.715999960899353 35.62900161743164,1.715999960899353 C35.553001403808594,2.2309999465942383 35.36600112915039,2.694999933242798 35.06700134277344,3.1080000400543213 C34.770999908447266,3.5169999599456787 34.37900161743164,3.8420000076293945 33.88999938964844,4.085000038146973 C33.40599822998047,4.322999954223633 32.840999603271484,4.442999839782715 32.196998596191406,4.442999839782715z M40.814998626708984,4.442999839782715 C40.027000427246094,4.442999839782715 39.33700180053711,4.255000114440918 38.742000579833984,3.880000114440918 C38.1510009765625,3.505000114440918 37.6879997253418,2.9809999465942383 37.354000091552734,2.305999994277954 C37.025001525878906,1.6319999694824219 36.86000061035156,0.843999981880188 36.86000061035156,-0.05700000002980232 C36.86000061035156,-0.9660000205039978 37.025001525878906,-1.7599999904632568 37.354000091552734,-2.437999963760376 C37.6879997253418,-3.115999937057495 38.1510009765625,-3.6419999599456787 38.742000579833984,-4.017000198364258 C39.33700180053711,-4.392000198364258 40.027000427246094,-4.579999923706055 40.814998626708984,-4.579999923706055 C41.60300064086914,-4.579999923706055 42.29199981689453,-4.392000198364258 42.882999420166016,-4.017000198364258 C43.47800064086914,-3.6419999599456787 43.941001892089844,-3.115999937057495 44.27000045776367,-2.437999963760376 C44.604000091552734,-1.7599999904632568 44.77000045776367,-0.9660000205039978 44.77000045776367,-0.05700000002980232 C44.77000045776367,0.843999981880188 44.604000091552734,1.6319999694824219 44.27000045776367,2.305999994277954 C43.941001892089844,2.9809999465942383 43.47800064086914,3.505000114440918 42.882999420166016,3.880000114440918 C42.29199981689453,4.255000114440918 41.60300064086914,4.442999839782715 40.814998626708984,4.442999839782715z M40.814998626708984,3.23799991607666 C41.41299819946289,3.23799991607666 41.90599822998047,3.0850000381469727 42.29199981689453,2.7780001163482666 C42.678001403808594,2.4709999561309814 42.9640007019043,2.068000078201294 43.150001525878906,1.5679999589920044 C43.33599853515625,1.0679999589920044 43.428001403808594,0.5260000228881836 43.428001403808594,-0.05700000002980232 C43.428001403808594,-0.640999972820282 43.33599853515625,-1.184000015258789 43.150001525878906,-1.687999963760376 C42.9640007019043,-2.191999912261963 42.678001403808594,-2.5989999771118164 42.29199981689453,-2.9089999198913574 C41.90599822998047,-3.2200000286102295 41.41299819946289,-3.375 40.814998626708984,-3.375 C40.215999603271484,-3.375 39.7239990234375,-3.2200000286102295 39.33700180053711,-2.9089999198913574 C38.95100021362305,-2.5989999771118164 38.665000915527344,-2.191999912261963 38.479000091552734,-1.687999963760376 C38.29399871826172,-1.184000015258789 38.20100021362305,-0.640999972820282 38.20100021362305,-0.05700000002980232 C38.20100021362305,0.5260000228881836 38.29399871826172,1.0679999589920044 38.479000091552734,1.5679999589920044 C38.665000915527344,2.068000078201294 38.95100021362305,2.4709999561309814 39.33700180053711,2.7780001163482666 C39.7239990234375,3.0850000381469727 40.215999603271484,3.23799991607666 40.814998626708984,3.23799991607666z M51.99599838256836,0.6930000185966492 C51.99599838256836,0.6930000185966492 51.99599838256836,-4.466000080108643 51.99599838256836,-4.466000080108643 C51.99599838256836,-4.466000080108643 53.33700180053711,-4.466000080108643 53.33700180053711,-4.466000080108643 C53.33700180053711,-4.466000080108643 53.33700180053711,4.261000156402588 53.33700180053711,4.261000156402588 C53.33700180053711,4.261000156402588 51.99599838256836,4.261000156402588 51.99599838256836,4.261000156402588 C51.99599838256836,4.261000156402588 51.99599838256836,2.7839999198913574 51.99599838256836,2.7839999198913574 C51.99599838256836,2.7839999198913574 51.904998779296875,2.7839999198913574 51.904998779296875,2.7839999198913574 C51.70100021362305,3.2269999980926514 51.382999420166016,3.6040000915527344 50.95100021362305,3.9140000343322754 C50.51900100708008,4.2210001945495605 49.972999572753906,4.375 49.31399917602539,4.375 C48.76900100708008,4.375 48.284000396728516,4.255000114440918 47.86000061035156,4.017000198364258 C47.43600082397461,3.7739999294281006 47.10200119018555,3.4110000133514404 46.86000061035156,2.9260001182556152 C46.617000579833984,2.437000036239624 46.49599838256836,1.8220000267028809 46.49599838256836,1.0789999961853027 C46.49599838256836,1.0789999961853027 46.49599838256836,-4.466000080108643 46.49599838256836,-4.466000080108643 C46.49599838256836,-4.466000080108643 47.83700180053711,-4.466000080108643 47.83700180053711,-4.466000080108643 C47.83700180053711,-4.466000080108643 47.83700180053711,0.9879999756813049 47.83700180053711,0.9879999756813049 C47.83700180053711,1.625 48.01499938964844,2.131999969482422 48.37099838256836,2.510999917984009 C48.73099899291992,2.890000104904175 49.18899917602539,3.0789999961853027 49.74599838256836,3.0789999961853027 C50.07899856567383,3.0789999961853027 50.417999267578125,2.99399995803833 50.76300048828125,2.822999954223633 C51.11199951171875,2.6530001163482666 51.40299987792969,2.3919999599456787 51.63800048828125,2.0390000343322754 C51.87699890136719,1.687000036239624 51.99599838256836,1.2380000352859497 51.99599838256836,0.6930000185966492z M56.81399917602539,-0.9890000224113464 C56.81399917602539,-0.9890000224113464 56.81399917602539,4.261000156402588 56.81399917602539,4.261000156402588 C56.81399917602539,4.261000156402588 55.472999572753906,4.261000156402588 55.472999572753906,4.261000156402588 C55.472999572753906,4.261000156402588 55.472999572753906,-4.466000080108643 55.472999572753906,-4.466000080108643 C55.472999572753906,-4.466000080108643 56.768001556396484,-4.466000080108643 56.768001556396484,-4.466000080108643 C56.768001556396484,-4.466000080108643 56.768001556396484,-3.1029999256134033 56.768001556396484,-3.1029999256134033 C56.768001556396484,-3.1029999256134033 56.88199996948242,-3.1029999256134033 56.88199996948242,-3.1029999256134033 C57.08700180053711,-3.5460000038146973 57.39699935913086,-3.9019999504089355 57.81399917602539,-4.171000003814697 C58.23099899291992,-4.443999767303467 58.768001556396484,-4.579999923706055 59.428001403808594,-4.579999923706055 C60.018001556396484,-4.579999923706055 60.5359992980957,-4.459000110626221 60.979000091552734,-4.216000080108643 C61.422000885009766,-3.9779999256134033 61.766998291015625,-3.614000082015991 62.01300048828125,-3.125 C62.25899887084961,-2.6410000324249268 62.38199996948242,-2.0269999504089355 62.38199996948242,-1.284000039100647 C62.38199996948242,-1.284000039100647 62.38199996948242,4.261000156402588 62.38199996948242,4.261000156402588 C62.38199996948242,4.261000156402588 61.04100036621094,4.261000156402588 61.04100036621094,4.261000156402588 C61.04100036621094,4.261000156402588 61.04100036621094,-1.194000005722046 61.04100036621094,-1.194000005722046 C61.04100036621094,-1.878999948501587 60.862998962402344,-2.4130001068115234 60.50699996948242,-2.7960000038146973 C60.1510009765625,-3.181999921798706 59.6619987487793,-3.375 59.04100036621094,-3.375 C58.612998962402344,-3.375 58.23099899291992,-3.2829999923706055 57.893001556396484,-3.0969998836517334 C57.560001373291016,-2.9110000133514404 57.297000885009766,-2.6410000324249268 57.104000091552734,-2.2839999198913574 C56.9109992980957,-1.9279999732971191 56.81399917602539,-1.496999979019165 56.81399917602539,-0.9890000224113464z M68.30799865722656,-4.466000080108643 M68.30799865722656,-3.3299999237060547 C68.30799865722656,-3.3299999237060547 63.78499984741211,-3.3299999237060547 63.78499984741211,-3.3299999237060547 C63.78499984741211,-3.3299999237060547 63.78499984741211,-4.466000080108643 63.78499984741211,-4.466000080108643 C63.78499984741211,-4.466000080108643 68.30799865722656,-4.466000080108643 68.30799865722656,-4.466000080108643 C68.30799865722656,-4.466000080108643 68.30799865722656,-3.3299999237060547 68.30799865722656,-3.3299999237060547z M65.10399627685547,-6.557000160217285 C65.10399627685547,-6.557000160217285 66.44400024414062,-6.557000160217285 66.44400024414062,-6.557000160217285 C66.44400024414062,-6.557000160217285 66.44400024414062,1.7610000371932983 66.44400024414062,1.7610000371932983 C66.44400024414062,2.140000104904175 66.4990005493164,2.4240000247955322 66.60900115966797,2.61299991607666 C66.7229995727539,2.7990000247955322 66.86699676513672,2.9240000247955322 67.04100036621094,2.98799991607666 C67.21900177001953,3.0490000247955322 67.40699768066406,3.0789999961853027 67.60399627685547,3.0789999961853027 C67.75199890136719,3.0789999961853027 67.87200164794922,3.072000026702881 67.96700286865234,3.055999994277954 C68.06199645996094,3.0380001068115234 68.13700103759766,3.0220000743865967 68.19400024414062,3.010999917984009 C68.19400024414062,3.010999917984009 68.46700286865234,4.216000080108643 68.46700286865234,4.216000080108643 C68.3759994506836,4.25 68.2490005493164,4.283999919891357 68.08599853515625,4.317999839782715 C67.9229965209961,4.355999946594238 67.71700286865234,4.375 67.46700286865234,4.375 C67.08799743652344,4.375 66.71800231933594,4.293000221252441 66.35399627685547,4.130000114440918 C65.99400329589844,3.9670000076293945 65.69400024414062,3.7190001010894775 65.45600128173828,3.385999917984009 C65.22100067138672,3.052999973297119 65.10399627685547,2.631999969482422 65.10399627685547,2.125 C65.10399627685547,2.125 65.10399627685547,-6.557000160217285 65.10399627685547,-6.557000160217285z"></path></g></g><g transform="matrix(1,0,0,1,130,206)" opacity="1" style="display: block;"><g opacity="1" transform="matrix(1,0,0,1,113.5,28)"><path fill="rgb(255,255,255)" fill-opacity="1" d=" M-112.5,-15 C-112.5,-21.62700080871582 -107.12699890136719,-27 -100.5,-27 C-100.5,-27 112.5,-27 112.5,-27 C112.5,-27 112.5,27 112.5,27 C112.5,27 -100.5,27 -100.5,27 C-107.12699890136719,27 -112.5,21.62700080871582 -112.5,15 C-112.5,15 -112.5,-15 -112.5,-15z"></path></g><g opacity="1" transform="matrix(1,0,0,1,113,28)"><path fill="rgb(249,142,198)" fill-opacity="1" d=" M-113,-15 C-113,-22.18000030517578 -107.18000030517578,-28 -100,-28 C-100,-28 113,-28 113,-28 C113,-28 113,-26 113,-26 C113,-26 -100,-26 -100,-26 C-106.07499694824219,-26 -111,-21.075000762939453 -111,-15 C-111,-15 -113,-15 -113,-15z M113,28 C113,28 -100,28 -100,28 C-107.18000030517578,28 -113,22.18000030517578 -113,15 C-113,15 -111,15 -111,15 C-111,21.075000762939453 -106.07499694824219,26 -100,26 C-100,26 113,26 113,26 C113,26 113,28 113,28z M-100,28 C-107.18000030517578,28 -113,22.18000030517578 -113,15 C-113,15 -113,-15 -113,-15 C-113,-22.18000030517578 -107.18000030517578,-28 -100,-28 C-100,-28 -100,-26 -100,-26 C-106.07499694824219,-26 -111,-21.075000762939453 -111,-15 C-111,-15 -111,15 -111,15 C-111,21.075000762939453 -106.07499694824219,26 -100,26 C-100,26 -100,28 -100,28z M113,-27 C113,-27 113,27 113,27 C113,27 113,-27 113,-27z"></path></g><g opacity="1" transform="matrix(1,0,0,1,75,28)"><path stroke-linecap="butt" stroke-linejoin="miter" fill-opacity="0" stroke-miterlimit="4" stroke="rgb(249,142,198)" stroke-opacity="1" stroke-width="0.736" d=" M-60,-20.631999969482422 C-60,-20.631999969482422 60,-20.631999969482422 60,-20.631999969482422 C64.21499633789062,-20.631999969482422 67.63200378417969,-17.21500015258789 67.63200378417969,-13 C67.63200378417969,-13 67.63200378417969,13 67.63200378417969,13 C67.63200378417969,17.21500015258789 64.21499633789062,20.631999969482422 60,20.631999969482422 C60,20.631999969482422 -60,20.631999969482422 -60,20.631999969482422 C-64.21499633789062,20.631999969482422 -67.63200378417969,17.21500015258789 -67.63200378417969,13 C-67.63200378417969,13 -67.63200378417969,-13 -67.63200378417969,-13 C-67.63200378417969,-17.21500015258789 -64.21499633789062,-20.631999969482422 -60,-20.631999969482422z"></path></g><g opacity="1" transform="matrix(1,0,0,1,75.0469970703125,28.10300064086914)"><path fill="rgb(10,37,64)" fill-opacity="1" d=" M-56.63800048828125,5.896999835968018 C-56.63800048828125,5.896999835968018 -56.63800048828125,-5.73799991607666 -56.63800048828125,-5.73799991607666 C-56.63800048828125,-5.73799991607666 -52.70600128173828,-5.73799991607666 -52.70600128173828,-5.73799991607666 C-51.792999267578125,-5.73799991607666 -51.047000885009766,-5.573999881744385 -50.46699905395508,-5.24399995803833 C-49.88399887084961,-4.918000221252441 -49.45199966430664,-4.478000164031982 -49.172000885009766,-3.9210000038146973 C-48.891998291015625,-3.364000082015991 -48.75199890136719,-2.742000102996826 -48.75199890136719,-2.056999921798706 C-48.75199890136719,-1.371000051498413 -48.891998291015625,-0.7490000128746033 -49.172000885009766,-0.18799999356269836 C-49.44900131225586,0.3720000088214874 -49.87699890136719,0.8199999928474426 -50.45600128173828,1.1540000438690186 C-51.0359992980957,1.4830000400543213 -51.77799987792969,1.6480000019073486 -52.68299865722656,1.6480000019073486 C-52.68299865722656,1.6480000019073486 -55.50199890136719,1.6480000019073486 -55.50199890136719,1.6480000019073486 C-55.50199890136719,1.6480000019073486 -55.50199890136719,0.39800000190734863 -55.50199890136719,0.39800000190734863 C-55.50199890136719,0.39800000190734863 -52.729000091552734,0.39800000190734863 -52.729000091552734,0.39800000190734863 C-52.104000091552734,0.39800000190734863 -51.60200119018555,0.28999999165534973 -51.222999572753906,0.07400000095367432 C-50.84400177001953,-0.1420000046491623 -50.56999969482422,-0.43299999833106995 -50.39899826049805,-0.8009999990463257 C-50.224998474121094,-1.1720000505447388 -50.13800048828125,-1.590999960899353 -50.13800048828125,-2.056999921798706 C-50.13800048828125,-2.5220000743865967 -50.224998474121094,-2.938999891281128 -50.39899826049805,-3.306999921798706 C-50.56999969482422,-3.6740000247955322 -50.84600067138672,-3.9630000591278076 -51.229000091552734,-4.171000003814697 C-51.611000061035156,-4.382999897003174 -52.11899948120117,-4.48799991607666 -52.75199890136719,-4.48799991607666 C-52.75199890136719,-4.48799991607666 -55.229000091552734,-4.48799991607666 -55.229000091552734,-4.48799991607666 C-55.229000091552734,-4.48799991607666 -55.229000091552734,5.896999835968018 -55.229000091552734,5.896999835968018 C-55.229000091552734,5.896999835968018 -56.63800048828125,5.896999835968018 -56.63800048828125,5.896999835968018z M-46.983001708984375,5.896999835968018 C-46.983001708984375,5.896999835968018 -46.983001708984375,-2.8289999961853027 -46.983001708984375,-2.8289999961853027 C-46.983001708984375,-2.8289999961853027 -45.6879997253418,-2.8289999961853027 -45.6879997253418,-2.8289999961853027 C-45.6879997253418,-2.8289999961853027 -45.6879997253418,-1.5110000371932983 -45.6879997253418,-1.5110000371932983 C-45.6879997253418,-1.5110000371932983 -45.59700012207031,-1.5110000371932983 -45.59700012207031,-1.5110000371932983 C-45.4379997253418,-1.9429999589920044 -45.150001525878906,-2.2929999828338623 -44.733001708984375,-2.562000036239624 C-44.31700134277344,-2.8310000896453857 -43.84700012207031,-2.9660000801086426 -43.32400131225586,-2.9660000801086426 C-43.22600173950195,-2.9660000801086426 -43.10300064086914,-2.9639999866485596 -42.95500183105469,-2.9600000381469727 C-42.80699920654297,-2.9560000896453857 -42.69599914550781,-2.950000047683716 -42.619998931884766,-2.943000078201294 C-42.619998931884766,-2.943000078201294 -42.619998931884766,-1.5789999961853027 -42.619998931884766,-1.5789999961853027 C-42.665000915527344,-1.590999960899353 -42.76900100708008,-1.6080000400543213 -42.93199920654297,-1.6299999952316284 C-43.090999603271484,-1.656999945640564 -43.2599983215332,-1.6710000038146973 -43.4379997253418,-1.6710000038146973 C-43.86199951171875,-1.6710000038146973 -44.24100112915039,-1.5809999704360962 -44.57400131225586,-1.402999997138977 C-44.90399932861328,-1.2289999723434448 -45.165000915527344,-0.9860000014305115 -45.358001708984375,-0.6759999990463257 C-45.54800033569336,-0.36899998784065247 -45.643001556396484,-0.01899999938905239 -45.643001556396484,0.375 C-45.643001556396484,0.375 -45.643001556396484,5.896999835968018 -45.643001556396484,5.896999835968018 C-45.643001556396484,5.896999835968018 -46.983001708984375,5.896999835968018 -46.983001708984375,5.896999835968018z M-41.349998474121094,5.896999835968018 M-41.349998474121094,-2.8289999961853027 C-41.349998474121094,-2.8289999961853027 -40.00899887084961,-2.8289999961853027 -40.00899887084961,-2.8289999961853027 C-40.00899887084961,-2.8289999961853027 -40.00899887084961,5.896999835968018 -40.00899887084961,5.896999835968018 C-40.00899887084961,5.896999835968018 -41.349998474121094,5.896999835968018 -41.349998474121094,5.896999835968018 C-41.349998474121094,5.896999835968018 -41.349998474121094,-2.8289999961853027 -41.349998474121094,-2.8289999961853027z M-40.66899871826172,-4.284999847412109 C-40.93000030517578,-4.284999847412109 -41.154998779296875,-4.373000144958496 -41.345001220703125,-4.551000118255615 C-41.529998779296875,-4.729000091552734 -41.62300109863281,-4.942999839782715 -41.62300109863281,-5.192999839782715 C-41.62300109863281,-5.442999839782715 -41.529998779296875,-5.6570000648498535 -41.345001220703125,-5.835000038146973 C-41.154998779296875,-6.013000011444092 -40.93000030517578,-6.1020002365112305 -40.66899871826172,-6.1020002365112305 C-40.40700149536133,-6.1020002365112305 -40.183998107910156,-6.013000011444092 -39.99800109863281,-5.835000038146973 C-39.808998107910156,-5.6570000648498535 -39.7140007019043,-5.442999839782715 -39.7140007019043,-5.192999839782715 C-39.7140007019043,-4.942999839782715 -39.808998107910156,-4.729000091552734 -39.99800109863281,-4.551000118255615 C-40.183998107910156,-4.373000144958496 -40.40700149536133,-4.284999847412109 -40.66899871826172,-4.284999847412109z M-30.73699951171875,-2.8289999961853027 C-30.73699951171875,-2.8289999961853027 -33.89400100708008,5.896999835968018 -33.89400100708008,5.896999835968018 C-33.89400100708008,5.896999835968018 -35.229000091552734,5.896999835968018 -35.229000091552734,5.896999835968018 C-35.229000091552734,5.896999835968018 -38.38600158691406,-2.8289999961853027 -38.38600158691406,-2.8289999961853027 C-38.38600158691406,-2.8289999961853027 -36.9640007019043,-2.8289999961853027 -36.9640007019043,-2.8289999961853027 C-36.9640007019043,-2.8289999961853027 -34.606998443603516,4.124000072479248 -34.606998443603516,4.124000072479248 C-34.606998443603516,4.124000072479248 -34.518001556396484,4.124000072479248 -34.518001556396484,4.124000072479248 C-34.518001556396484,4.124000072479248 -32.1609992980957,-2.8289999961853027 -32.1609992980957,-2.8289999961853027 C-32.1609992980957,-2.8289999961853027 -30.73699951171875,-2.8289999961853027 -30.73699951171875,-2.8289999961853027z M-26.985000610351562,6.1020002365112305 C-27.538000106811523,6.1020002365112305 -28.040000915527344,5.998000144958496 -28.489999771118164,5.789999961853027 C-28.94099998474121,5.578000068664551 -29.298999786376953,5.271999835968018 -29.56399917602539,4.874000072479248 C-29.82900047302246,4.4730000495910645 -29.961999893188477,3.989000082015991 -29.961999893188477,3.4210000038146973 C-29.961999893188477,2.9210000038146973 -29.863000869750977,2.5139999389648438 -29.666000366210938,2.2039999961853027 C-29.469999313354492,1.8890000581741333 -29.20599937438965,1.6430000066757202 -28.87700080871582,1.465000033378601 C-28.547000885009766,1.2869999408721924 -28.18400001525879,1.156000018119812 -27.785999298095703,1.0679999589920044 C-27.384000778198242,0.9779999852180481 -26.981000900268555,0.906000018119812 -26.576000213623047,0.8529999852180481 C-26.045000076293945,0.7839999794960022 -25.614999771118164,0.7329999804496765 -25.285999298095703,0.6990000009536743 C-24.95199966430664,0.6610000133514404 -24.709999084472656,0.5989999771118164 -24.55900001525879,0.5120000243186951 C-24.402999877929688,0.42500001192092896 -24.326000213623047,0.27300000190734863 -24.326000213623047,0.05700000002980232 C-24.326000213623047,0.05700000002980232 -24.326000213623047,0.012000000104308128 -24.326000213623047,0.012000000104308128 C-24.326000213623047,-0.5490000247955322 -24.479000091552734,-0.9860000014305115 -24.785999298095703,-1.2960000038146973 C-25.089000701904297,-1.6069999933242798 -25.548999786376953,-1.7610000371932983 -26.166000366210938,-1.7610000371932983 C-26.80699920654297,-1.7610000371932983 -27.30900001525879,-1.621000051498413 -27.672000885009766,-1.340999960899353 C-28.035999298095703,-1.059999942779541 -28.291000366210938,-0.7609999775886536 -28.43899917602539,-0.4429999887943268 C-28.43899917602539,-0.4429999887943268 -29.711999893188477,-0.8970000147819519 -29.711999893188477,-0.8970000147819519 C-29.485000610351562,-1.4279999732971191 -29.18199920654297,-1.840999960899353 -28.80299949645996,-2.135999917984009 C-28.420000076293945,-2.434999942779541 -28.003999710083008,-2.6440000534057617 -27.55299949645996,-2.760999917984009 C-27.097999572753906,-2.881999969482422 -26.650999069213867,-2.943000078201294 -26.211999893188477,-2.943000078201294 C-25.93199920654297,-2.943000078201294 -25.610000610351562,-2.9089999198913574 -25.246000289916992,-2.8410000801086426 C-24.878999710083008,-2.7760000228881836 -24.52400016784668,-2.6429998874664307 -24.18400001525879,-2.437999963760376 C-23.839000701904297,-2.2339999675750732 -23.55299949645996,-1.9240000247955322 -23.326000213623047,-1.5110000371932983 C-23.097999572753906,-1.0980000495910645 -22.985000610351562,-0.5450000166893005 -22.985000610351562,0.14800000190734863 C-22.985000610351562,0.14800000190734863 -22.985000610351562,5.896999835968018 -22.985000610351562,5.896999835968018 C-22.985000610351562,5.896999835968018 -24.326000213623047,5.896999835968018 -24.326000213623047,5.896999835968018 C-24.326000213623047,5.896999835968018 -24.326000213623047,4.715000152587891 -24.326000213623047,4.715000152587891 C-24.326000213623047,4.715000152587891 -24.393999099731445,4.715000152587891 -24.393999099731445,4.715000152587891 C-24.485000610351562,4.90500020980835 -24.63599967956543,5.107999801635742 -24.847999572753906,5.323999881744385 C-25.059999465942383,5.539999961853027 -25.343000411987305,5.7230000495910645 -25.69499969482422,5.874000072479248 C-26.047000885009766,6.026000022888184 -26.476999282836914,6.1020002365112305 -26.985000610351562,6.1020002365112305z M-26.780000686645508,4.896999835968018 C-26.25,4.896999835968018 -25.80299949645996,4.793000221252441 -25.43899917602539,4.585000038146973 C-25.07200050354004,4.375999927520752 -24.795000076293945,4.107999801635742 -24.610000610351562,3.7790000438690186 C-24.420000076293945,3.4489998817443848 -24.326000213623047,3.1029999256134033 -24.326000213623047,2.739000082015991 C-24.326000213623047,2.739000082015991 -24.326000213623047,1.5119999647140503 -24.326000213623047,1.5119999647140503 C-24.381999969482422,1.5800000429153442 -24.506999969482422,1.6419999599456787 -24.701000213623047,1.6990000009536743 C-24.889999389648438,1.7519999742507935 -25.110000610351562,1.7990000247955322 -25.360000610351562,1.840000033378601 C-25.606000900268555,1.878000020980835 -25.84600067138672,1.9129999876022339 -26.08099937438965,1.9429999589920044 C-26.312000274658203,1.9700000286102295 -26.5,1.9930000305175781 -26.643999099731445,2.01200008392334 C-26.992000579833984,2.056999921798706 -27.31800079345703,2.130000114440918 -27.621000289916992,2.2320001125335693 C-27.920000076293945,2.3310000896453857 -28.163000106811523,2.4809999465942383 -28.347999572753906,2.681999921798706 C-28.530000686645508,2.878999948501587 -28.621000289916992,3.1480000019073486 -28.621000289916992,3.489000082015991 C-28.621000289916992,3.9549999237060547 -28.448999404907227,4.307000160217285 -28.104000091552734,4.546000003814697 C-27.756000518798828,4.781000137329102 -27.31399917602539,4.896999835968018 -26.780000686645508,4.896999835968018z M-17.062000274658203,-2.8289999961853027 M-17.062000274658203,-1.6929999589920044 C-17.062000274658203,-1.6929999589920044 -21.583999633789062,-1.6929999589920044 -21.583999633789062,-1.6929999589920044 C-21.583999633789062,-1.6929999589920044 -21.583999633789062,-2.8289999961853027 -21.583999633789062,-2.8289999961853027 C-21.583999633789062,-2.8289999961853027 -17.062000274658203,-2.8289999961853027 -17.062000274658203,-2.8289999961853027 C-17.062000274658203,-2.8289999961853027 -17.062000274658203,-1.6929999589920044 -17.062000274658203,-1.6929999589920044z M-20.266000747680664,-4.921000003814697 C-20.266000747680664,-4.921000003814697 -18.924999237060547,-4.921000003814697 -18.924999237060547,-4.921000003814697 C-18.924999237060547,-4.921000003814697 -18.924999237060547,3.3980000019073486 -18.924999237060547,3.3980000019073486 C-18.924999237060547,3.7769999504089355 -18.8700008392334,4.059999942779541 -18.76099967956543,4.249000072479248 C-18.64699935913086,4.434999942779541 -18.503000259399414,4.559999942779541 -18.32900047302246,4.624000072479248 C-18.150999069213867,4.684999942779541 -17.96299934387207,4.715000152587891 -17.766000747680664,4.715000152587891 C-17.618999481201172,4.715000152587891 -17.496999740600586,4.709000110626221 -17.402999877929688,4.692999839782715 C-17.308000564575195,4.675000190734863 -17.23200035095215,4.6579999923706055 -17.174999237060547,4.646999835968018 C-17.174999237060547,4.646999835968018 -16.902999877929688,5.8520002365112305 -16.902999877929688,5.8520002365112305 C-16.993999481201172,5.886000156402588 -17.1200008392334,5.920000076293945 -17.283000946044922,5.953999996185303 C-17.445999145507812,5.992000102996826 -17.652999877929688,6.01200008392334 -17.902999877929688,6.01200008392334 C-18.2810001373291,6.01200008392334 -18.652999877929688,5.928999900817871 -19.016000747680664,5.765999794006348 C-19.375999450683594,5.603000164031982 -19.674999237060547,5.355000019073486 -19.913999557495117,5.021999835968018 C-20.14900016784668,4.689000129699707 -20.266000747680664,4.269000053405762 -20.266000747680664,3.76200008392334 C-20.266000747680664,3.76200008392334 -20.266000747680664,-4.921000003814697 -20.266000747680664,-4.921000003814697z M-11.798999786376953,6.078999996185303 C-12.640000343322754,6.078999996185303 -13.366000175476074,5.89300012588501 -13.97599983215332,5.521999835968018 C-14.581999778747559,5.146999835968018 -15.048999786376953,4.624000072479248 -15.378999710083008,3.9539999961853027 C-15.704999923706055,3.2799999713897705 -15.868000030517578,2.496000051498413 -15.868000030517578,1.6030000448226929 C-15.868000030517578,0.7089999914169312 -15.704999923706055,-0.07900000363588333 -15.378999710083008,-0.7609999775886536 C-15.048999786376953,-1.4470000267028809 -14.590999603271484,-1.9809999465942383 -14.003999710083008,-2.36299991607666 C-13.413000106811523,-2.75 -12.723999977111816,-2.943000078201294 -11.935999870300293,-2.943000078201294 C-11.480999946594238,-2.943000078201294 -11.031999588012695,-2.867000102996826 -10.58899974822998,-2.7160000801086426 C-10.145999908447266,-2.563999891281128 -9.743000030517578,-2.318000078201294 -9.378999710083008,-1.9769999980926514 C-9.015000343322754,-1.6399999856948853 -8.72599983215332,-1.1929999589920044 -8.510000228881836,-0.6359999775886536 C-8.293999671936035,-0.07900000363588333 -8.185999870300293,0.6060000061988831 -8.185999870300293,1.4210000038146973 C-8.185999870300293,1.4210000038146973 -8.185999870300293,1.9889999628067017 -8.185999870300293,1.9889999628067017 C-8.185999870300293,1.9889999628067017 -14.913000106811523,1.9889999628067017 -14.913000106811523,1.9889999628067017 C-14.913000106811523,1.9889999628067017 -14.913000106811523,0.8289999961853027 -14.913000106811523,0.8289999961853027 C-14.913000106811523,0.8289999961853027 -9.548999786376953,0.8289999961853027 -9.548999786376953,0.8289999961853027 C-9.548999786376953,0.335999995470047 -9.64799976348877,-0.10199999809265137 -9.845000267028809,-0.4880000054836273 C-10.038000106811523,-0.875 -10.3149995803833,-1.1799999475479126 -10.673999786376953,-1.402999997138977 C-11.029999732971191,-1.6269999742507935 -11.451000213623047,-1.7380000352859497 -11.935999870300293,-1.7380000352859497 C-12.470000267028809,-1.7380000352859497 -12.932000160217285,-1.6059999465942383 -13.321999549865723,-1.340999960899353 C-13.708000183105469,-1.0789999961853027 -14.005999565124512,-0.7379999756813049 -14.21399974822998,-0.3179999887943268 C-14.42199993133545,0.10300000011920929 -14.527000427246094,0.5529999732971191 -14.527000427246094,1.034000039100647 C-14.527000427246094,1.034000039100647 -14.527000427246094,1.8070000410079956 -14.527000427246094,1.8070000410079956 C-14.527000427246094,2.4660000801086426 -14.413000106811523,3.0239999294281006 -14.185999870300293,3.4820001125335693 C-13.954999923706055,3.937000036239624 -13.635000228881836,4.2829999923706055 -13.22599983215332,4.521999835968018 C-12.815999984741211,4.756999969482422 -12.340999603271484,4.874000072479248 -11.798999786376953,4.874000072479248 C-11.446999549865723,4.874000072479248 -11.128999710083008,4.824999809265137 -10.845000267028809,4.7270002365112305 C-10.557000160217285,4.624000072479248 -10.309000015258789,4.4730000495910645 -10.10099983215332,4.271999835968018 C-9.892000198364258,4.066999912261963 -9.730999946594238,3.815000057220459 -9.618000030517578,3.51200008392334 C-9.618000030517578,3.51200008392334 -8.321999549865723,3.875 -8.321999549865723,3.875 C-8.458000183105469,4.315000057220459 -8.687999725341797,4.699999809265137 -9.010000228881836,5.0329999923706055 C-9.331999778747559,5.36299991607666 -9.729000091552734,5.620999813079834 -10.20300006866455,5.807000160217285 C-10.675999641418457,5.988999843597412 -11.208000183105469,6.078999996185303 -11.798999786376953,6.078999996185303z M-1.6269999742507935,5.896999835968018 C-1.6269999742507935,5.896999835968018 -3.1040000915527344,5.896999835968018 -3.1040000915527344,5.896999835968018 C-3.1040000915527344,5.896999835968018 1.1690000295639038,-5.73799991607666 1.1690000295639038,-5.73799991607666 C1.1690000295639038,-5.73799991607666 2.622999906539917,-5.73799991607666 2.622999906539917,-5.73799991607666 C2.622999906539917,-5.73799991607666 6.895999908447266,5.896999835968018 6.895999908447266,5.896999835968018 C6.895999908447266,5.896999835968018 5.419000148773193,5.896999835968018 5.419000148773193,5.896999835968018 C5.419000148773193,5.896999835968018 1.940999984741211,-3.8970000743865967 1.940999984741211,-3.8970000743865967 C1.940999984741211,-3.8970000743865967 1.850000023841858,-3.8970000743865967 1.850000023841858,-3.8970000743865967 C1.850000023841858,-3.8970000743865967 -1.6269999742507935,5.896999835968018 -1.6269999742507935,5.896999835968018z M-1.0809999704360962,1.3530000448226929 C-1.0809999704360962,1.3530000448226929 4.873000144958496,1.3530000448226929 4.873000144958496,1.3530000448226929 C4.873000144958496,1.3530000448226929 4.873000144958496,2.6029999256134033 4.873000144958496,2.6029999256134033 C4.873000144958496,2.6029999256134033 -1.0809999704360962,2.6029999256134033 -1.0809999704360962,2.6029999256134033 C-1.0809999704360962,2.6029999256134033 -1.0809999704360962,1.3530000448226929 -1.0809999704360962,1.3530000448226929z M11.751999855041504,6.078999996185303 C10.934000015258789,6.078999996185303 10.229000091552734,5.886000156402588 9.637999534606934,5.499000072479248 C9.04699993133545,5.11299991607666 8.593000411987305,4.581999778747559 8.274999618530273,3.9040000438690186 C7.956999778747559,3.2260000705718994 7.796999931335449,2.450000047683716 7.796999931335449,1.5789999961853027 C7.796999931335449,0.6919999718666077 7.960000038146973,-0.09000000357627869 8.28600025177002,-0.7680000066757202 C8.616000175476074,-1.4500000476837158 9.074000358581543,-1.9809999465942383 9.66100025177002,-2.36299991607666 C10.251999855041504,-2.75 10.940999984741211,-2.943000078201294 11.729000091552734,-2.943000078201294 C12.343000411987305,-2.943000078201294 12.895999908447266,-2.8289999961853027 13.387999534606934,-2.6019999980926514 C13.880999565124512,-2.375 14.284000396728516,-2.056999921798706 14.598999977111816,-1.6469999551773071 C14.913000106811523,-1.2380000352859497 15.107999801635742,-0.7609999775886536 15.184000015258789,-0.2160000056028366 C15.184000015258789,-0.2160000056028366 13.843000411987305,-0.2160000056028366 13.843000411987305,-0.2160000056028366 C13.741000175476074,-0.6129999756813049 13.512999534606934,-0.9660000205039978 13.16100025177002,-1.2719999551773071 C12.812999725341797,-1.5829999446868896 12.343000411987305,-1.7380000352859497 11.751999855041504,-1.7380000352859497 C11.229000091552734,-1.7380000352859497 10.770999908447266,-1.6019999980926514 10.376999855041504,-1.3289999961853027 C9.987000465393066,-1.059999942779541 9.682000160217285,-0.6809999942779541 9.461999893188477,-0.18799999356269836 C9.246000289916992,0.30000001192092896 9.137999534606934,0.875 9.137999534606934,1.534000039100647 C9.137999534606934,2.2090001106262207 9.244000434875488,2.7960000038146973 9.456999778747559,3.2960000038146973 C9.67199993133545,3.7960000038146973 9.975000381469727,4.184000015258789 10.366000175476074,4.460000038146973 C10.760000228881836,4.736999988555908 11.222000122070312,4.874000072479248 11.751999855041504,4.874000072479248 C12.100000381469727,4.874000072479248 12.416999816894531,4.815000057220459 12.701000213623047,4.692999839782715 C12.984999656677246,4.572000026702881 13.225000381469727,4.3979997634887695 13.42199993133545,4.171000003814697 C13.619000434875488,3.943000078201294 13.760000228881836,3.6710000038146973 13.843000411987305,3.3529999256134033 C13.843000411987305,3.3529999256134033 15.184000015258789,3.3529999256134033 15.184000015258789,3.3529999256134033 C15.107999801635742,3.868000030517578 14.920999526977539,4.330999851226807 14.621000289916992,4.74399995803833 C14.326000213623047,5.1529998779296875 13.934000015258789,5.478000164031982 13.444999694824219,5.7210001945495605 C12.960000038146973,5.959000110626221 12.395999908447266,6.078999996185303 11.751999855041504,6.078999996185303z M20.368000030517578,6.078999996185303 C19.549999237060547,6.078999996185303 18.847000122070312,5.886000156402588 18.256000518798828,5.499000072479248 C17.665000915527344,5.11299991607666 17.209999084472656,4.581999778747559 16.892000198364258,3.9040000438690186 C16.573999404907227,3.2260000705718994 16.415000915527344,2.450000047683716 16.415000915527344,1.5789999961853027 C16.415000915527344,0.6919999718666077 16.577999114990234,-0.09000000357627869 16.90399932861328,-0.7680000066757202 C17.232999801635742,-1.4500000476837158 17.69099998474121,-1.9809999465942383 18.27899932861328,-2.36299991607666 C18.868999481201172,-2.75 19.55900001525879,-2.943000078201294 20.347000122070312,-2.943000078201294 C20.959999084472656,-2.943000078201294 21.51300048828125,-2.8289999961853027 22.006000518798828,-2.6019999980926514 C22.49799919128418,-2.375 22.900999069213867,-2.056999921798706 23.21500015258789,-1.6469999551773071 C23.52899932861328,-1.2380000352859497 23.72599983215332,-0.7609999775886536 23.801000595092773,-0.2160000056028366 C23.801000595092773,-0.2160000056028366 22.459999084472656,-0.2160000056028366 22.459999084472656,-0.2160000056028366 C22.357999801635742,-0.6129999756813049 22.131000518798828,-0.9660000205039978 21.77899932861328,-1.2719999551773071 C21.43000030517578,-1.5829999446868896 20.958999633789062,-1.7380000352859497 20.368000030517578,-1.7380000352859497 C19.84600067138672,-1.7380000352859497 19.386999130249023,-1.6019999980926514 18.993000030517578,-1.3289999961853027 C18.60300064086914,-1.059999942779541 18.298999786376953,-0.6809999942779541 18.079999923706055,-0.18799999356269836 C17.86400032043457,0.30000001192092896 17.756000518798828,0.875 17.756000518798828,1.534000039100647 C17.756000518798828,2.2090001106262207 17.86199951171875,2.7960000038146973 18.073999404907227,3.2960000038146973 C18.290000915527344,3.7960000038146973 18.593000411987305,4.184000015258789 18.982999801635742,4.460000038146973 C19.37700080871582,4.736999988555908 19.83799934387207,4.874000072479248 20.368000030517578,4.874000072479248 C20.716999053955078,4.874000072479248 21.034000396728516,4.815000057220459 21.31800079345703,4.692999839782715 C21.601999282836914,4.572000026702881 21.843000411987305,4.3979997634887695 22.040000915527344,4.171000003814697 C22.23699951171875,3.943000078201294 22.37700080871582,3.6710000038146973 22.459999084472656,3.3529999256134033 C22.459999084472656,3.3529999256134033 23.801000595092773,3.3529999256134033 23.801000595092773,3.3529999256134033 C23.72599983215332,3.868000030517578 23.538000106811523,4.330999851226807 23.23900032043457,4.74399995803833 C22.94300079345703,5.1529998779296875 22.549999237060547,5.478000164031982 22.062000274658203,5.7210001945495605 C21.57699966430664,5.959000110626221 21.011999130249023,6.078999996185303 20.368000030517578,6.078999996185303z M28.98699951171875,6.078999996185303 C28.198999404907227,6.078999996185303 27.507999420166016,5.890999794006348 26.913000106811523,5.515999794006348 C26.32200050354004,5.140999794006348 25.860000610351562,4.618000030517578 25.527000427246094,3.943000078201294 C25.19700050354004,3.2690000534057617 25.031999588012695,2.4800000190734863 25.031999588012695,1.5789999961853027 C25.031999588012695,0.6700000166893005 25.19700050354004,-0.12300000339746475 25.527000427246094,-0.8009999990463257 C25.860000610351562,-1.4789999723434448 26.32200050354004,-2.005000114440918 26.913000106811523,-2.380000114440918 C27.507999420166016,-2.755000114440918 28.198999404907227,-2.943000078201294 28.98699951171875,-2.943000078201294 C29.774999618530273,-2.943000078201294 30.464000701904297,-2.755000114440918 31.05500030517578,-2.380000114440918 C31.649999618530273,-2.005000114440918 32.11199951171875,-1.4789999723434448 32.44200134277344,-0.8009999990463257 C32.775001525878906,-0.12300000339746475 32.94200134277344,0.6700000166893005 32.94200134277344,1.5789999961853027 C32.94200134277344,2.4800000190734863 32.775001525878906,3.2690000534057617 32.44200134277344,3.943000078201294 C32.11199951171875,4.618000030517578 31.649999618530273,5.140999794006348 31.05500030517578,5.515999794006348 C30.464000701904297,5.890999794006348 29.774999618530273,6.078999996185303 28.98699951171875,6.078999996185303z M28.98699951171875,4.874000072479248 C29.584999084472656,4.874000072479248 30.077999114990234,4.7220001220703125 30.464000701904297,4.414999961853027 C30.85099983215332,4.107999801635742 31.136999130249023,3.7039999961853027 31.32200050354004,3.2039999961853027 C31.507999420166016,2.7039999961853027 31.60099983215332,2.1619999408721924 31.60099983215332,1.5789999961853027 C31.60099983215332,0.9950000047683716 31.507999420166016,0.453000009059906 31.32200050354004,-0.050999999046325684 C31.136999130249023,-0.5550000071525574 30.85099983215332,-0.9620000123977661 30.464000701904297,-1.2719999551773071 C30.077999114990234,-1.5829999446868896 29.584999084472656,-1.7380000352859497 28.98699951171875,-1.7380000352859497 C28.38800048828125,-1.7380000352859497 27.895999908447266,-1.5829999446868896 27.510000228881836,-1.2719999551773071 C27.12299919128418,-0.9620000123977661 26.836999893188477,-0.5550000071525574 26.652000427246094,-0.050999999046325684 C26.465999603271484,0.453000009059906 26.37299919128418,0.9950000047683716 26.37299919128418,1.5789999961853027 C26.37299919128418,2.1619999408721924 26.465999603271484,2.7039999961853027 26.652000427246094,3.2039999961853027 C26.836999893188477,3.7039999961853027 27.12299919128418,4.107999801635742 27.510000228881836,4.414999961853027 C27.895999908447266,4.7220001220703125 28.38800048828125,4.874000072479248 28.98699951171875,4.874000072479248z M40.167999267578125,2.3289999961853027 C40.167999267578125,2.3289999961853027 40.167999267578125,-2.8289999961853027 40.167999267578125,-2.8289999961853027 C40.167999267578125,-2.8289999961853027 41.507999420166016,-2.8289999961853027 41.507999420166016,-2.8289999961853027 C41.507999420166016,-2.8289999961853027 41.507999420166016,5.896999835968018 41.507999420166016,5.896999835968018 C41.507999420166016,5.896999835968018 40.167999267578125,5.896999835968018 40.167999267578125,5.896999835968018 C40.167999267578125,5.896999835968018 40.167999267578125,4.421000003814697 40.167999267578125,4.421000003814697 C40.167999267578125,4.421000003814697 40.07699966430664,4.421000003814697 40.07699966430664,4.421000003814697 C39.87300109863281,4.863999843597412 39.55500030517578,5.239999771118164 39.12300109863281,5.550000190734863 C38.691001892089844,5.85699987411499 38.145999908447266,6.01200008392334 37.48699951171875,6.01200008392334 C36.941001892089844,6.01200008392334 36.45600128173828,5.892000198364258 36.03200149536133,5.6539998054504395 C35.608001708984375,5.410999774932861 35.27399826049805,5.046999931335449 35.03200149536133,4.561999797821045 C34.790000915527344,4.072999954223633 34.667999267578125,3.4579999446868896 34.667999267578125,2.7149999141693115 C34.667999267578125,2.7149999141693115 34.667999267578125,-2.8289999961853027 34.667999267578125,-2.8289999961853027 C34.667999267578125,-2.8289999961853027 36.007999420166016,-2.8289999961853027 36.007999420166016,-2.8289999961853027 C36.007999420166016,-2.8289999961853027 36.007999420166016,2.625 36.007999420166016,2.625 C36.007999420166016,3.26200008392334 36.1870002746582,3.7679998874664307 36.542999267578125,4.146999835968018 C36.90299987792969,4.526000022888184 37.36199951171875,4.715000152587891 37.917999267578125,4.715000152587891 C38.25199890136719,4.715000152587891 38.590999603271484,4.63100004196167 38.935001373291016,4.460000038146973 C39.284000396728516,4.289999961853027 39.57600021362305,4.0289998054504395 39.810001373291016,3.6760001182556152 C40.04899978637695,3.3239998817443848 40.167999267578125,2.874000072479248 40.167999267578125,2.3289999961853027z M44.986000061035156,0.6480000019073486 C44.986000061035156,0.6480000019073486 44.986000061035156,5.896999835968018 44.986000061035156,5.896999835968018 C44.986000061035156,5.896999835968018 43.64500045776367,5.896999835968018 43.64500045776367,5.896999835968018 C43.64500045776367,5.896999835968018 43.64500045776367,-2.8289999961853027 43.64500045776367,-2.8289999961853027 C43.64500045776367,-2.8289999961853027 44.941001892089844,-2.8289999961853027 44.941001892089844,-2.8289999961853027 C44.941001892089844,-2.8289999961853027 44.941001892089844,-1.465999960899353 44.941001892089844,-1.465999960899353 C44.941001892089844,-1.465999960899353 45.05400085449219,-1.465999960899353 45.05400085449219,-1.465999960899353 C45.25899887084961,-1.909000039100647 45.56999969482422,-2.2660000324249268 45.986000061035156,-2.5350000858306885 C46.40299987792969,-2.808000087738037 46.941001892089844,-2.943000078201294 47.599998474121094,-2.943000078201294 C48.191001892089844,-2.943000078201294 48.70800018310547,-2.822000026702881 49.1510009765625,-2.5789999961853027 C49.59400177001953,-2.3410000801086426 49.93899917602539,-1.9769999980926514 50.185001373291016,-1.4880000352859497 C50.430999755859375,-1.003999948501587 50.55400085449219,-0.38999998569488525 50.55400085449219,0.3529999852180481 C50.55400085449219,0.3529999852180481 50.55400085449219,5.896999835968018 50.55400085449219,5.896999835968018 C50.55400085449219,5.896999835968018 49.2130012512207,5.896999835968018 49.2130012512207,5.896999835968018 C49.2130012512207,5.896999835968018 49.2130012512207,0.4429999887943268 49.2130012512207,0.4429999887943268 C49.2130012512207,-0.24199999868869781 49.03499984741211,-0.7770000100135803 48.67900085449219,-1.159999966621399 C48.323001861572266,-1.5460000038146973 47.834999084472656,-1.7380000352859497 47.2130012512207,-1.7380000352859497 C46.78499984741211,-1.7380000352859497 46.40299987792969,-1.6460000276565552 46.066001892089844,-1.4600000381469727 C45.731998443603516,-1.2740000486373901 45.46900177001953,-1.003999948501587 45.2760009765625,-0.6470000147819519 C45.08300018310547,-0.29100000858306885 44.986000061035156,0.14000000059604645 44.986000061035156,0.6480000019073486z M56.479000091552734,-2.8289999961853027 M56.479000091552734,-1.6929999589920044 C56.479000091552734,-1.6929999589920044 51.957000732421875,-1.6929999589920044 51.957000732421875,-1.6929999589920044 C51.957000732421875,-1.6929999589920044 51.957000732421875,-2.8289999961853027 51.957000732421875,-2.8289999961853027 C51.957000732421875,-2.8289999961853027 56.479000091552734,-2.8289999961853027 56.479000091552734,-2.8289999961853027 C56.479000091552734,-2.8289999961853027 56.479000091552734,-1.6929999589920044 56.479000091552734,-1.6929999589920044z M53.2760009765625,-4.921000003814697 C53.2760009765625,-4.921000003814697 54.61600112915039,-4.921000003814697 54.61600112915039,-4.921000003814697 C54.61600112915039,-4.921000003814697 54.61600112915039,3.3980000019073486 54.61600112915039,3.3980000019073486 C54.61600112915039,3.7769999504089355 54.66999816894531,4.059999942779541 54.779998779296875,4.249000072479248 C54.89400100708008,4.434999942779541 55.03799819946289,4.559999942779541 55.21200180053711,4.624000072479248 C55.38999938964844,4.684999942779541 55.57899856567383,4.715000152587891 55.7760009765625,4.715000152587891 C55.92300033569336,4.715000152587891 56.042999267578125,4.709000110626221 56.13800048828125,4.692999839782715 C56.233001708984375,4.675000190734863 56.310001373291016,4.6579999923706055 56.36600112915039,4.646999835968018 C56.36600112915039,4.646999835968018 56.63800048828125,5.8520002365112305 56.63800048828125,5.8520002365112305 C56.547000885009766,5.886000156402588 56.41999816894531,5.920000076293945 56.257999420166016,5.953999996185303 C56.095001220703125,5.992000102996826 55.88800048828125,6.01200008392334 55.63800048828125,6.01200008392334 C55.25899887084961,6.01200008392334 54.888999938964844,5.928999900817871 54.5260009765625,5.765999794006348 C54.16600036621094,5.603000164031982 53.86600112915039,5.355000019073486 53.62799835205078,5.021999835968018 C53.393001556396484,4.689000129699707 53.2760009765625,4.269000053405762 53.2760009765625,3.76200008392334 C53.2760009765625,3.76200008392334 53.2760009765625,-4.921000003814697 53.2760009765625,-4.921000003814697z"></path></g></g><g transform="matrix(1,0,0,1,217.635009765625,249.20001220703125)" opacity="1" style="display: block;"><g opacity="1" transform="matrix(1,0,0,1,11.39799976348877,9.95199966430664)"><path fill="rgb(243,138,178)" fill-opacity="1" d=" M-0.7870000004768372,8.312999725341797 C0.0820000022649765,9.70199966430664 2.196000099182129,9.338000297546387 2.3559999465942383,7.7729997634887695 C2.3559999465942383,7.7729997634887695 3.0350000858306885,1.1150000095367432 3.0350000858306885,1.1150000095367432 C3.0869998931884766,0.597000002861023 3.3889999389648438,0.14900000393390656 3.8489999771118164,-0.0949999988079071 C3.8489999771118164,-0.0949999988079071 9.758999824523926,-3.234999895095825 9.758999824523926,-3.234999895095825 C11.14799976348877,-3.9739999771118164 10.687000274658203,-6.068999767303467 9.072999954223633,-6.349999904632568 C9.072999954223633,-6.349999904632568 -8.734999656677246,-9.45300006866455 -8.734999656677246,-9.45300006866455 C-10.163000106811523,-9.70199966430664 -11.14799976348877,-8.23799991607666 -10.378999710083008,-7.008999824523926 C-10.378999710083008,-7.008999824523926 -0.7870000004768372,8.312999725341797 -0.7870000004768372,8.312999725341797z"></path></g></g><g transform="matrix(1,0,0,1,191.25,272.5)" opacity="1" style="display: block;"><g opacity="1" transform="matrix(1,0,0,1,82.5,36.5)"><path stroke-linecap="round" stroke-linejoin="miter" fill-opacity="0" stroke-miterlimit="4" stroke="rgb(37,36,57)" stroke-opacity="1" stroke-width="4" d=" M78.5,-32.5 C78.5,-32.5 78.5,2.5 78.5,2.5 C78.5,19.069000244140625 65.06900024414062,32.5 48.5,32.5 C48.5,32.5 -78.5,32.5 -78.5,32.5"></path></g></g><g transform="matrix(1,0,0,1,15.999996185302734,21.000999450683594)" opacity="1" style="display: block;"><g opacity="1" transform="matrix(1,0,0,1,62.18600082397461,60.04100036621094)"><path stroke-linecap="round" stroke-linejoin="miter" fill-opacity="0" stroke-miterlimit="4" stroke="rgb(243,138,178)" stroke-opacity="1" stroke-width="4" d=" M58.18600082397461,-56.040000915527344 C58.18600082397461,-56.040000915527344 6.814000129699707,-56.040000915527344 6.814000129699707,-56.040000915527344 C6.814000129699707,-56.040000915527344 -0.7919999957084656,-56.040000915527344 -0.7919999957084656,-56.040000915527344 C-0.7919999957084656,-56.040000915527344 -28.18600082397461,-56.040000915527344 -28.18600082397461,-56.040000915527344 C-44.755001068115234,-56.040000915527344 -58.18600082397461,-42.60900115966797 -58.18600082397461,-26.040000915527344 C-58.18600082397461,-26.040000915527344 -58.18600082397461,56.040000915527344 -58.18600082397461,56.040000915527344"></path></g></g><g transform="matrix(1,0,0,1,12.25,129.25100708007812)" opacity="1" style="display: block;"><g opacity="1" transform="matrix(1,0,0,1,7.982999801635742,7.982999801635742)"><path fill="rgb(243,138,178)" fill-opacity="1" d=" M0,-7.732999801635742 C4.270999908447266,-7.732999801635742 7.732999801635742,-4.269999980926514 7.732999801635742,0.0010000000474974513 C7.732999801635742,4.270999908447266 4.270999908447266,7.732999801635742 0,7.732999801635742 C-4.270999908447266,7.732999801635742 -7.732999801635742,4.270999908447266 -7.732999801635742,0.0010000000474974513 C-7.732999801635742,-4.269999980926514 -4.270999908447266,-7.732999801635742 0,-7.732999801635742z"></path></g></g></g></svg>