<svg class="Icon_Icon__u5MIj ChooseYourCardSlider_Unionpay__uRJwo" viewBox="0 0 83 58"><path d="M16.558 3.69922H37.0241C39.881 3.69922 41.6578 6.02965 40.9914 8.89827L31.4629 49.8396C30.7905 52.6983 27.9301 55.0307 25.0712 55.0307H4.60712C1.75422 55.0307 -0.0266523 52.6983 0.639805 49.8396L10.1722 8.89827C10.8387 6.02965 13.6976 3.69922 16.558 3.69922Z" fill="#E21836"></path><path d="M35.3223 3.69922H58.8578C61.7142 3.69922 60.4262 6.02965 59.7542 8.89827L50.2273 49.8396C49.5588 52.6983 49.7673 55.0307 46.905 55.0307H23.3695C20.5071 55.0307 18.7357 52.6983 19.4081 49.8396L28.9346 8.89827C29.611 6.02965 32.4639 3.69922 35.3223 3.69922Z" fill="#00447C"></path><path d="M57.9229 3.69922H78.389C81.2499 3.69922 83.0268 6.02965 82.3548 8.89827L72.8279 49.8396C72.1554 52.6983 69.2931 55.0307 66.4327 55.0307H45.9761C43.1137 55.0307 41.3383 52.6983 42.0087 49.8396L51.5372 8.89827C52.2036 6.02965 55.0605 3.69922 57.9229 3.69922Z" fill="#007B84"></path><path d="M21.9012 16.8184C19.7966 16.8398 19.175 16.8184 18.9765 16.7715C18.9002 17.1344 17.48 23.6909 17.476 23.6964C17.1702 25.0228 16.9477 25.9684 16.1919 26.579C15.7629 26.9339 15.2621 27.1051 14.6814 27.1051C13.7481 27.1051 13.2043 26.6414 13.1131 25.7617L13.0956 25.4597C13.0956 25.4597 13.3799 23.6829 13.3799 23.6729C13.3799 23.6729 14.8705 17.698 15.1374 16.9082C15.1513 16.8633 15.1553 16.8398 15.1588 16.8184C12.2575 16.8438 11.7432 16.8184 11.7078 16.7715C11.6884 16.8359 11.6165 17.2063 11.6165 17.2063L10.0945 23.9405L9.96385 24.5116L9.71094 26.3798C9.71094 26.9339 9.81969 27.3862 10.0362 27.7686C10.7296 28.9813 12.7075 29.163 13.8264 29.163C15.2681 29.163 16.6204 28.8565 17.5343 28.2968C19.1207 27.3588 19.5357 25.8925 19.9058 24.5895L20.0774 23.921C20.0774 23.921 21.6129 17.7155 21.8738 16.9082C21.8838 16.8633 21.8877 16.8398 21.9012 16.8184ZM27.1255 21.8244C26.7553 21.8244 26.0789 21.9143 25.4713 22.2123C25.2508 22.3257 25.0423 22.4565 24.8223 22.5868L25.0208 21.8694L24.9121 21.7485C23.6236 22.0096 23.3352 22.0446 22.145 22.2123L22.0452 22.2787C21.9071 23.4255 21.7843 24.2877 21.272 26.5417C21.077 27.3724 20.8744 28.2112 20.6714 29.0399L20.7263 29.1452C21.946 29.0808 22.3161 29.0808 23.3761 29.0983L23.462 29.0049C23.5966 28.3145 23.6141 28.1527 23.9124 26.7544C24.0526 26.0914 24.3449 24.6346 24.4891 24.1159C24.754 23.9931 25.0154 23.8723 25.2648 23.8723C25.8589 23.8723 25.7866 24.391 25.7636 24.5977C25.7382 24.9447 25.5217 26.0779 25.2997 27.0509L25.1515 27.679C25.0483 28.1428 24.935 28.5936 24.8318 29.0534L24.8767 29.1452C26.0789 29.0808 26.4455 29.0808 27.4722 29.0983L27.5929 29.0049C27.7785 27.9266 27.8328 27.638 28.1621 26.0679L28.3277 25.3465C28.6494 23.9347 28.8111 23.2188 28.5676 22.6357C28.3102 21.9822 27.6927 21.8244 27.1255 21.8244ZM32.9616 23.3026C32.3225 23.4254 31.915 23.5073 31.5099 23.5602C31.1083 23.6246 30.7168 23.683 30.0992 23.7689L30.0503 23.8133L30.0054 23.8488C29.941 24.3091 29.8962 24.707 29.8109 25.1748C29.7385 25.6585 29.6273 26.2082 29.4462 26.998C29.306 27.6025 29.2337 27.8132 29.1539 28.0259C29.0761 28.2386 28.9903 28.4452 28.8326 29.0398L28.8695 29.0948L28.9005 29.1452C29.4776 29.1177 29.8552 29.0982 30.2434 29.0948C30.631 29.0808 31.0325 29.0948 31.6541 29.0982L31.7085 29.0538L31.7668 29.0049C31.8566 28.4687 31.8701 28.3244 31.925 28.0628C31.9793 27.7823 32.0731 27.3939 32.3031 26.3564C32.4118 25.8692 32.533 25.3834 32.6458 24.8862C32.763 24.3909 32.8857 23.9032 33.0025 23.4159L32.985 23.357L32.9616 23.3026ZM32.9752 21.3096C32.3945 20.9666 31.3754 21.0754 30.6895 21.5492C30.0056 22.0135 29.9277 22.6725 30.5064 23.0199C31.0771 23.3534 32.1002 23.2541 32.7801 22.7763C33.4625 22.302 33.5478 21.649 32.9752 21.3096ZM36.4868 29.2527C37.6616 29.2527 38.8658 28.9287 39.7722 27.9671C40.4696 27.1873 40.7893 26.0271 40.9001 25.5493C41.2607 23.9657 40.9799 23.2264 40.6272 22.7761C40.0914 22.0896 39.1446 21.8695 38.1624 21.8695C37.5718 21.8695 36.165 21.9279 35.0661 22.9418C34.2769 23.6732 33.9123 24.6657 33.6923 25.6172C33.4703 26.5867 33.2149 28.3321 34.8187 28.9816C35.3135 29.1943 36.0269 29.2527 36.4868 29.2527ZM36.395 25.6896C36.6659 24.4904 36.9856 23.484 37.8018 23.484C38.4413 23.484 38.4877 24.2328 38.2033 25.436C38.1524 25.7031 37.919 26.6961 37.6032 27.1189C37.3827 27.4309 37.1218 27.6202 36.8335 27.6202C36.7477 27.6202 36.2374 27.6202 36.2294 26.8618C36.2254 26.4874 36.3017 26.105 36.395 25.6896ZM43.8368 29.0984L43.9286 29.0051C44.0588 28.3146 44.0802 28.1524 44.3685 26.7545C44.5127 26.0915 44.811 24.6348 44.9512 24.1161C45.2166 23.9928 45.4735 23.8719 45.7309 23.8719C46.321 23.8719 46.2492 24.3907 46.2257 24.5973C46.2043 24.9448 45.9878 26.0776 45.7618 27.0506L45.6216 27.6786C45.5144 28.1429 45.3977 28.5932 45.2944 29.0535L45.3393 29.1454C46.5455 29.081 46.8982 29.081 47.9308 29.0984L48.0555 29.0051C48.2366 27.9262 48.2855 27.6377 48.6247 26.0681L48.7863 25.3462C49.1096 23.9343 49.2732 23.2189 49.0337 22.6358C48.7689 21.9823 48.1473 21.8246 47.5881 21.8246C47.2175 21.8246 46.5375 21.9139 45.9334 22.2125C45.7174 22.3258 45.5009 22.4561 45.2884 22.5869L45.4735 21.8695L45.3742 21.7482C44.0862 22.0098 43.7919 22.0447 42.6031 22.2125L42.5118 22.2789C42.3677 23.4256 42.2505 24.2873 41.7381 26.5419C41.5431 27.3726 41.3406 28.2113 41.138 29.04L41.1924 29.1454C42.4141 29.081 42.7787 29.081 43.8368 29.0984ZM52.699 29.1451C52.7748 28.7747 53.2253 26.5791 53.2293 26.5791C53.2293 26.5791 53.6129 24.968 53.6363 24.9096C53.6363 24.9096 53.7571 24.7419 53.8778 24.6755H54.0554C55.731 24.6755 57.6231 24.6755 59.1062 23.5836C60.1153 22.8348 60.8052 21.729 61.113 20.385C61.1928 20.0555 61.2517 19.6636 61.2517 19.2717C61.2517 18.757 61.1484 18.2478 60.8501 17.8499C60.0939 16.791 58.5879 16.7716 56.8494 16.7636C56.8439 16.7636 55.9924 16.7716 55.9924 16.7716C53.767 16.799 52.8746 16.791 52.508 16.7461C52.477 16.9083 52.4187 17.1969 52.4187 17.1969C52.4187 17.1969 51.6215 20.8942 51.6215 20.9002C51.6215 20.9002 49.7139 28.7612 49.6241 29.1316C51.5671 29.1082 52.3638 29.1082 52.699 29.1451ZM54.1761 22.5772C54.1761 22.5772 55.0236 18.8873 55.0196 18.9013L55.0471 18.7121L55.059 18.5678L55.3978 18.6028C55.3978 18.6028 57.1457 18.753 57.1866 18.757C57.8765 19.0241 58.1609 19.7126 57.9623 20.6112C57.7812 21.4324 57.249 22.1229 56.5651 22.4564C56.0019 22.7389 55.312 22.7624 54.6011 22.7624H54.1412L54.1761 22.5772ZM59.4531 25.758C59.2291 26.7135 58.9717 28.4588 60.5675 29.0809C61.0763 29.2975 61.5323 29.3619 61.9957 29.3385C62.4851 29.312 62.9385 29.0664 63.3585 28.7129C63.3206 28.8582 63.2827 29.0035 63.2448 29.1493L63.3171 29.2426C64.465 29.1942 64.8211 29.1942 66.0648 29.2037L66.1775 29.1178C66.3591 28.0495 66.5302 27.012 67.0021 24.9682C67.2321 23.9892 67.4615 23.0196 67.6975 22.0446L67.6606 21.9373C66.3765 22.1754 66.0333 22.2264 64.7982 22.4016L64.7044 22.478C64.6919 22.5773 64.679 22.6727 64.667 22.768C64.4749 22.4575 64.1966 22.1924 63.7671 22.0272C63.2179 21.811 61.9278 22.0896 60.8189 23.1C60.0397 23.8214 59.6656 24.8099 59.4531 25.758ZM62.1498 25.8164C62.4247 24.6387 62.7405 23.6422 63.5586 23.6422C64.0759 23.6422 64.3482 24.12 64.2929 24.9347C64.249 25.1379 64.2016 25.3521 64.1452 25.5942C64.0634 25.9442 63.9746 26.2911 63.8883 26.6386C63.8005 26.8762 63.6982 27.1004 63.586 27.2497C63.3755 27.5482 62.8746 27.7334 62.5863 27.7334C62.5045 27.7334 61.9997 27.7334 61.9822 26.9886C61.9782 26.6176 62.0546 26.2357 62.1498 25.8164ZM76.2325 21.9278L76.1332 21.8144C74.8626 22.072 74.6327 22.113 73.4654 22.2707L73.3796 22.3566C73.3756 22.3706 73.3721 22.3921 73.3661 22.4115L73.3621 22.3921C72.4931 24.3985 72.5186 23.9657 71.8112 25.5452C71.8072 25.4733 71.8072 25.4284 71.8032 25.352L71.6261 21.9278L71.5149 21.8144C70.184 22.072 70.1525 22.113 68.9234 22.2707L68.8276 22.3566C68.8142 22.3975 68.8142 22.4425 68.8062 22.4914L68.8142 22.5089C68.9678 23.2947 68.9309 23.1194 69.085 24.3595C69.1569 24.9681 69.2526 25.5802 69.3245 26.1813C69.4457 27.1872 69.5135 27.6825 69.6617 29.2176C68.8316 30.5885 68.6351 31.1072 67.8359 32.3104L67.8414 32.3224L67.2787 33.213C67.2144 33.3069 67.156 33.3713 67.0742 33.3987C66.9844 33.4432 66.8677 33.4511 66.7055 33.4511H66.3938L65.9303 34.9938L67.5201 35.0212C68.4535 35.0172 69.0401 34.5804 69.3559 33.9933L70.3556 32.2789H70.3396L70.4449 32.1581C71.1173 30.7093 76.2325 21.9278 76.2325 21.9278ZM59.453 42.188H58.7786L61.2748 33.9252H62.1029L62.3658 33.074L62.3912 34.0205C62.3603 34.6056 62.8202 35.1243 64.0284 35.0385H65.4257L65.9066 33.4474H65.3808C65.0785 33.4474 64.9383 33.371 64.9558 33.2073L64.9303 32.2442H62.3428V32.2492C61.5063 32.2667 59.0081 32.3296 58.5022 32.4644C57.8901 32.6222 57.2451 33.0864 57.2451 33.0864L57.4985 32.2343H55.0782L54.5738 33.9252L52.0442 42.3143H51.5533L51.0719 43.8939H55.8928L55.7311 44.4206H58.1066L58.2643 43.8939H58.9307L59.453 42.188ZM57.4751 35.6041C57.0875 35.7114 56.3662 36.0369 56.3662 36.0369L57.0077 33.9252H58.9307L58.4668 35.4638C58.4668 35.4638 57.8727 35.4988 57.4751 35.6041ZM57.512 38.621C57.512 38.621 56.9079 38.6969 56.5103 38.7867C56.1187 38.9055 55.3844 39.28 55.3844 39.28L56.0469 37.0823H57.9799L57.512 38.621ZM56.4345 42.2075H54.5055L55.0647 40.3528H56.9877L56.4345 42.2075ZM61.0801 37.0823H63.8606L63.461 38.3774H60.6436L60.2205 39.7932H62.6858L60.8192 42.4237C60.6885 42.6169 60.5712 42.6853 60.441 42.7397C60.3103 42.8061 60.1387 42.884 59.9402 42.884H59.2563L58.7864 44.4346H60.5752C61.5051 44.4346 62.0543 44.0112 62.4599 43.4556L63.7399 41.7023L64.0148 43.4825C64.0731 43.816 64.3126 44.0112 64.4747 44.0871C64.6538 44.177 64.8389 44.3312 65.1003 44.3542C65.3806 44.3662 65.5831 44.3757 65.7178 44.3757H66.5968L67.1246 42.6403H66.7779C66.5788 42.6403 66.2361 42.6069 66.1778 42.5445C66.1194 42.4686 66.1194 42.3518 66.088 42.174L65.8091 40.3898H64.6673L65.1681 39.7932H67.9801L68.4126 38.3774H65.8091L66.2147 37.0823H68.8102L69.2915 35.4853H61.5535L61.0801 37.0823ZM37.5953 42.5681L38.2443 40.4074H40.9117L41.399 38.8004H38.7292L39.1368 37.4704H41.7457L42.2291 35.9143H35.7012L35.2278 37.4704H36.7109L36.3153 38.8004H34.8282L34.3354 40.4349H35.8179L34.9529 43.2935C34.8362 43.6719 35.0078 43.8162 35.1166 43.9919C35.2278 44.1632 35.3405 44.2765 35.594 44.3409C35.8554 44.3993 36.0344 44.4342 36.2779 44.4342H39.2849L39.8207 42.654L38.4878 42.8372C38.2304 42.8372 37.5175 42.8062 37.5953 42.5681ZM37.9013 32.2245L37.2253 33.4471C37.0807 33.7142 36.9505 33.88 36.8332 33.9564C36.73 34.0208 36.5255 34.0477 36.2291 34.0477H35.8765L35.405 35.6118H36.5763C37.1395 35.6118 37.572 35.4052 37.7786 35.3018C38.0005 35.183 38.0589 35.2509 38.2305 35.0851L38.6261 34.7422H42.2836L42.769 33.1137H40.0917L40.5591 32.2245H37.9013ZM43.301 42.5995C43.2386 42.5096 43.2835 42.3514 43.3788 42.0219L44.3785 38.7104H47.9347C48.453 38.703 48.8272 38.697 49.0706 38.6795C49.332 38.652 49.6163 38.5587 49.9261 38.3909C50.2459 38.2152 50.4095 38.03 50.5477 37.8173C50.7018 37.6051 50.9493 37.1408 51.1618 36.4249L52.4184 32.2344L48.7279 32.2558C48.7279 32.2558 47.5915 32.4236 47.0912 32.6088C46.5864 32.8155 45.865 33.3926 45.865 33.3926L46.1983 32.2438H43.9185L40.7269 42.8371C40.6137 43.2485 40.5379 43.547 40.5204 43.7263C40.5144 43.9195 40.7638 44.1107 40.9255 44.255C41.1165 44.3992 41.3989 44.3758 41.6697 44.3992C41.9546 44.4207 42.3596 44.4342 42.9189 44.4342H44.6708L45.2086 42.617L43.6402 42.7652C43.4726 42.7652 43.3514 42.6754 43.301 42.5995ZM45.0235 36.4739H48.7588L48.5214 37.2187C48.488 37.2362 48.4081 37.1818 48.028 37.2267H44.7935L45.0235 36.4739ZM45.7717 33.9757H49.5385L49.2677 34.8728C49.2677 34.8728 47.4923 34.8553 47.2079 34.9078C45.9568 35.1244 45.226 35.7934 45.226 35.7934L45.7717 33.9757ZM48.605 39.7131C48.5741 39.8244 48.5252 39.8923 48.4568 39.9432C48.381 39.9921 48.2583 40.0096 48.0752 40.0096H47.5429L47.5744 39.1025H45.3605L45.2707 43.5372C45.2672 43.8572 45.2981 44.0424 45.5321 44.1907C45.7661 44.3759 46.4869 44.3994 47.4571 44.3994H48.8444L49.3453 42.7394L48.1376 42.8058L47.736 42.8293C47.6811 42.8058 47.6287 42.7844 47.5704 42.726C47.5195 42.6755 47.4337 42.7065 47.4477 42.3865L47.4571 41.2497L48.7237 41.1973C49.4076 41.1973 49.7 40.9746 49.9494 40.7625C50.1873 40.5593 50.2651 40.3256 50.3549 40.0096L50.5674 39.0031H48.827L48.605 39.7131Z" fill="#FEFEFE"></path></svg>