<svg class="Icon_Icon__u5MIj ChooseYourCardSlider_Visa__YwIJx" viewBox="0 0 129 58"><path d="M63.7561 9.36786L55.4505 48.9378H45.3993L53.7173 9.36786H63.7561ZM106.039 34.917L111.325 20.0556L114.373 34.917H106.039ZM117.247 48.9378H126.543L118.433 9.36786H109.853C109.841 9.36786 109.824 9.36786 109.812 9.36786C107.909 9.36786 106.275 10.5549 105.587 12.2405L105.574 12.27L90.5014 48.9378H101.05L103.148 43.0237H116.04L117.247 48.9378ZM91.0197 36.0196C91.0612 25.5727 76.8427 24.9981 76.9422 20.3302C76.9753 18.9108 78.2981 17.3984 81.2007 17.014C81.7397 16.9591 82.3617 16.9253 82.992 16.9253C85.9402 16.9253 88.735 17.6097 91.2229 18.8347L91.111 18.784L92.8733 10.3902C90.0826 9.2876 86.8524 8.64549 83.4771 8.63281H83.473C73.5378 8.63281 66.5509 14.0189 66.4887 21.72C66.4265 27.4145 71.477 30.587 75.2877 32.488C79.2062 34.427 80.5207 35.6732 80.4999 37.401C80.475 40.0624 77.3817 41.2283 74.4874 41.2748C74.3547 41.279 74.193 41.279 74.0354 41.279C70.4238 41.279 67.0236 40.3538 64.0547 38.719L64.1666 38.7739L62.3463 47.4424C65.6055 48.7731 69.383 49.5419 73.3388 49.5419C73.401 49.5419 73.4632 49.5419 73.5254 49.5419H73.5171C84.0743 49.5419 90.9783 44.2318 91.0156 36.0069L91.0197 36.0196ZM49.3966 9.36786L33.1172 48.9378H22.4937L14.4825 17.352C14.3291 15.8143 13.4044 14.5301 12.119 13.888L12.0941 13.8753C9.24128 12.4474 5.92403 11.2857 2.45336 10.5549L2.17969 10.5084L2.42019 9.36364H19.5206C21.851 9.36364 23.7874 11.0999 24.1482 13.3684L24.1523 13.3937L28.3859 36.2942L38.8436 9.35941L49.3966 9.36786Z" fill="black"></path></svg>