<svg xmlns="http://www.w3.org/2000/svg" xmlns:xlink="http://www.w3.org/1999/xlink" width="500" zoomAndPan="magnify" viewBox="0 0 375 374.999991" height="500" preserveAspectRatio="xMidYMid meet" version="1.0"><defs><g/><clipPath id="5f22e4a4fc"><path d="M 46 27 L 113.558594 27 L 113.558594 95 L 46 95 Z M 46 27 " clip-rule="nonzero"/></clipPath><clipPath id="6417d032dd"><rect x="0" width="68" y="0" height="68"/></clipPath><clipPath id="203ef2ad2a"><path d="M 21 49 L 89 49 L 89 116.28125 L 21 116.28125 Z M 21 49 " clip-rule="nonzero"/></clipPath><clipPath id="75663b15ad"><rect x="0" width="68" y="0" height="68"/></clipPath><clipPath id="36852b2fa8"><path d="M 26 0.839844 L 94 0.839844 L 94 68 L 26 68 Z M 26 0.839844 " clip-rule="nonzero"/></clipPath><clipPath id="28bc735412"><rect x="0" width="68" y="0" height="68"/></clipPath><clipPath id="80dfe71470"><path d="M 0.519531 22 L 68 22 L 68 90 L 0.519531 90 Z M 0.519531 22 " clip-rule="nonzero"/></clipPath><clipPath id="9badb7503d"><rect x="0" width="68" y="0" height="68"/></clipPath><clipPath id="50b64c826a"><rect x="0" width="114" y="0" height="117"/></clipPath></defs><g fill="#f38ab2" fill-opacity="1"><g transform="translate(147.326654, 168.00639)"><g><path d="M 6.140625 0 L 2.421875 0 L 2.421875 -20.34375 L 10.984375 -20.34375 C 12.015625 -20.34375 12.960938 -20.171875 13.828125 -19.828125 C 14.691406 -19.484375 15.4375 -19.003906 16.0625 -18.390625 C 16.6875 -17.785156 17.171875 -17.0625 17.515625 -16.21875 C 17.867188 -15.382812 18.046875 -14.472656 18.046875 -13.484375 C 18.046875 -12.441406 17.875 -11.488281 17.53125 -10.625 C 17.1875 -9.769531 16.703125 -9.03125 16.078125 -8.40625 C 15.453125 -7.789062 14.710938 -7.316406 13.859375 -6.984375 C 13.003906 -6.648438 12.066406 -6.484375 11.046875 -6.484375 L 6.140625 -6.484375 Z M 6.140625 -17.015625 L 6.140625 -9.8125 L 10.875 -9.8125 C 11.519531 -9.8125 12.101562 -9.972656 12.625 -10.296875 C 13.144531 -10.617188 13.554688 -11.054688 13.859375 -11.609375 C 14.171875 -12.160156 14.328125 -12.785156 14.328125 -13.484375 C 14.328125 -14.109375 14.171875 -14.6875 13.859375 -15.21875 C 13.554688 -15.757812 13.140625 -16.191406 12.609375 -16.515625 C 12.085938 -16.847656 11.5 -17.015625 10.84375 -17.015625 Z M 6.140625 -17.015625 "/></g></g></g><g fill="#f38ab2" fill-opacity="1"><g transform="translate(165.836865, 168.00639)"><g><path d="M 6.140625 0 L 2.421875 0 L 2.421875 -20.34375 L 11.203125 -20.34375 C 12.222656 -20.34375 13.164062 -20.179688 14.03125 -19.859375 C 14.894531 -19.546875 15.640625 -19.09375 16.265625 -18.5 C 16.898438 -17.914062 17.390625 -17.21875 17.734375 -16.40625 C 18.085938 -15.59375 18.265625 -14.695312 18.265625 -13.71875 C 18.265625 -12.757812 18.09375 -11.882812 17.75 -11.09375 C 17.40625 -10.3125 16.921875 -9.632812 16.296875 -9.0625 C 15.679688 -8.5 14.953125 -8.078125 14.109375 -7.796875 L 18.71875 0 L 14.4375 0 L 10.421875 -7.21875 C 10.296875 -7.207031 10.164062 -7.203125 10.03125 -7.203125 C 9.90625 -7.203125 9.769531 -7.203125 9.625 -7.203125 L 6.140625 -7.203125 Z M 6.140625 -17.015625 L 6.140625 -10.34375 L 11.0625 -10.34375 C 11.71875 -10.351562 12.304688 -10.5 12.828125 -10.78125 C 13.359375 -11.070312 13.773438 -11.46875 14.078125 -11.96875 C 14.378906 -12.46875 14.53125 -13.050781 14.53125 -13.71875 C 14.53125 -14.332031 14.375 -14.890625 14.0625 -15.390625 C 13.757812 -15.890625 13.34375 -16.285156 12.8125 -16.578125 C 12.289062 -16.867188 11.703125 -17.015625 11.046875 -17.015625 Z M 6.140625 -17.015625 "/></g></g></g><g fill="#f38ab2" fill-opacity="1"><g transform="translate(185.199329, 168.00639)"><g><path d="M 11.953125 0.4375 C 10.742188 0.4375 9.585938 0.257812 8.484375 -0.09375 C 7.390625 -0.445312 6.382812 -0.945312 5.46875 -1.59375 C 4.5625 -2.25 3.769531 -3.019531 3.09375 -3.90625 C 2.425781 -4.789062 1.90625 -5.765625 1.53125 -6.828125 C 1.164062 -7.898438 0.984375 -9.023438 0.984375 -10.203125 C 0.984375 -11.390625 1.164062 -12.507812 1.53125 -13.5625 C 1.90625 -14.625 2.425781 -15.597656 3.09375 -16.484375 C 3.769531 -17.367188 4.5625 -18.132812 5.46875 -18.78125 C 6.382812 -19.425781 7.390625 -19.925781 8.484375 -20.28125 C 9.585938 -20.632812 10.742188 -20.8125 11.953125 -20.8125 C 13.148438 -20.8125 14.296875 -20.632812 15.390625 -20.28125 C 16.492188 -19.925781 17.503906 -19.425781 18.421875 -18.78125 C 19.335938 -18.132812 20.128906 -17.367188 20.796875 -16.484375 C 21.472656 -15.597656 21.992188 -14.625 22.359375 -13.5625 C 22.734375 -12.507812 22.921875 -11.390625 22.921875 -10.203125 C 22.921875 -9.023438 22.734375 -7.898438 22.359375 -6.828125 C 21.992188 -5.765625 21.472656 -4.789062 20.796875 -3.90625 C 20.128906 -3.019531 19.335938 -2.25 18.421875 -1.59375 C 17.503906 -0.945312 16.5 -0.445312 15.40625 -0.09375 C 14.3125 0.257812 13.160156 0.4375 11.953125 0.4375 Z M 11.953125 -2.984375 C 12.953125 -2.984375 13.890625 -3.160156 14.765625 -3.515625 C 15.648438 -3.878906 16.425781 -4.382812 17.09375 -5.03125 C 17.757812 -5.6875 18.28125 -6.453125 18.65625 -7.328125 C 19.03125 -8.203125 19.21875 -9.15625 19.21875 -10.1875 C 19.21875 -11.21875 19.03125 -12.175781 18.65625 -13.0625 C 18.28125 -13.945312 17.757812 -14.710938 17.09375 -15.359375 C 16.425781 -16.003906 15.648438 -16.503906 14.765625 -16.859375 C 13.890625 -17.222656 12.953125 -17.40625 11.953125 -17.40625 C 10.953125 -17.40625 10.015625 -17.222656 9.140625 -16.859375 C 8.265625 -16.503906 7.492188 -16 6.828125 -15.34375 C 6.160156 -14.695312 5.640625 -13.929688 5.265625 -13.046875 C 4.890625 -12.171875 4.703125 -11.21875 4.703125 -10.1875 C 4.703125 -9.15625 4.890625 -8.203125 5.265625 -7.328125 C 5.640625 -6.453125 6.160156 -5.6875 6.828125 -5.03125 C 7.492188 -4.382812 8.265625 -3.878906 9.140625 -3.515625 C 10.015625 -3.160156 10.953125 -2.984375 11.953125 -2.984375 Z M 11.953125 -2.984375 "/></g></g></g><g fill="#f38ab2" fill-opacity="1"><g transform="translate(209.107111, 168.00639)"><g><path d="M 6.140625 0 L 2.421875 0 L 2.421875 -20.34375 L 16.359375 -20.34375 L 16.359375 -17 L 6.140625 -17 L 6.140625 -11.125 L 14.96875 -11.125 L 14.96875 -7.984375 L 6.140625 -7.984375 Z M 6.140625 0 "/></g></g></g><g fill="#f38ab2" fill-opacity="1"><g transform="translate(226.331475, 168.00639)"><g><path d="M 6.140625 0 L 2.421875 0 L 2.421875 -20.34375 L 6.140625 -20.34375 Z M 6.140625 0 "/></g></g></g><g fill="#f38ab2" fill-opacity="1"><g transform="translate(234.88385, 168.00639)"><g><path d="M 11.71875 0.4375 C 10.519531 0.4375 9.382812 0.257812 8.3125 -0.09375 C 7.238281 -0.445312 6.253906 -0.945312 5.359375 -1.59375 C 4.460938 -2.25 3.6875 -3.019531 3.03125 -3.90625 C 2.382812 -4.789062 1.878906 -5.765625 1.515625 -6.828125 C 1.160156 -7.898438 0.984375 -9.023438 0.984375 -10.203125 C 0.984375 -11.390625 1.160156 -12.507812 1.515625 -13.5625 C 1.878906 -14.625 2.382812 -15.597656 3.03125 -16.484375 C 3.6875 -17.367188 4.460938 -18.132812 5.359375 -18.78125 C 6.253906 -19.425781 7.238281 -19.925781 8.3125 -20.28125 C 9.382812 -20.632812 10.519531 -20.8125 11.71875 -20.8125 C 12.800781 -20.8125 13.867188 -20.648438 14.921875 -20.328125 C 15.984375 -20.015625 16.972656 -19.53125 17.890625 -18.875 C 18.804688 -18.226562 19.582031 -17.40625 20.21875 -16.40625 C 20.851562 -15.40625 21.289062 -14.226562 21.53125 -12.875 L 17.734375 -12.875 C 17.460938 -13.914062 17.03125 -14.769531 16.4375 -15.4375 C 15.84375 -16.113281 15.128906 -16.609375 14.296875 -16.921875 C 13.472656 -17.242188 12.582031 -17.40625 11.625 -17.40625 C 10.664062 -17.40625 9.765625 -17.234375 8.921875 -16.890625 C 8.085938 -16.546875 7.351562 -16.050781 6.71875 -15.40625 C 6.082031 -14.769531 5.585938 -14.007812 5.234375 -13.125 C 4.878906 -12.25 4.703125 -11.269531 4.703125 -10.1875 C 4.703125 -9.082031 4.878906 -8.085938 5.234375 -7.203125 C 5.585938 -6.316406 6.082031 -5.5625 6.71875 -4.9375 C 7.351562 -4.3125 8.085938 -3.828125 8.921875 -3.484375 C 9.765625 -3.148438 10.664062 -2.984375 11.625 -2.984375 C 12.582031 -2.984375 13.472656 -3.144531 14.296875 -3.46875 C 15.117188 -3.789062 15.828125 -4.285156 16.421875 -4.953125 C 17.023438 -5.617188 17.457031 -6.46875 17.71875 -7.5 L 21.53125 -7.5 C 21.289062 -6.144531 20.851562 -4.96875 20.21875 -3.96875 C 19.582031 -2.96875 18.804688 -2.140625 17.890625 -1.484375 C 16.984375 -0.835938 16 -0.351562 14.9375 -0.03125 C 13.882812 0.28125 12.8125 0.4375 11.71875 0.4375 Z M 11.71875 0.4375 "/></g></g></g><g fill="#f38ab2" fill-opacity="1"><g transform="translate(257.416075, 168.00639)"><g><path d="M 6.140625 0 L 2.421875 0 L 2.421875 -20.34375 L 6.140625 -20.34375 Z M 6.140625 0 "/></g></g></g><g fill="#f38ab2" fill-opacity="1"><g transform="translate(265.968451, 168.00639)"><g><path d="M 20.59375 0 L 16.65625 0 L 15.046875 -3.9375 L 5.6875 -3.9375 L 4.0625 0 L 0.140625 0 L 8.59375 -20.359375 L 12.125 -20.359375 Z M 10.234375 -15.0625 L 6.953125 -7.046875 L 13.765625 -7.046875 L 10.484375 -15.0625 L 10.390625 -15.546875 L 10.34375 -15.546875 Z M 10.234375 -15.0625 "/></g></g></g><g fill="#000000" fill-opacity="1"><g transform="translate(147.326654, 195.006388)"><g><path d="M 16.5 0 L 2.421875 0 L 2.421875 -20.34375 L 16.359375 -20.34375 L 16.359375 -17 L 6.140625 -17 L 6.140625 -11.90625 L 14.96875 -11.90625 L 14.96875 -8.765625 L 6.140625 -8.765625 L 6.140625 -3.328125 L 16.5 -3.328125 Z M 16.5 0 "/></g></g></g><g fill="#000000" fill-opacity="1"><g transform="translate(164.790245, 195.006388)"><g><path d="M 6.140625 0 L 2.421875 0 L 2.421875 -20.34375 L 5.625 -20.34375 L 16.703125 -6.09375 L 16.703125 -20.34375 L 20.40625 -20.34375 L 20.40625 0 L 17.234375 0 L 6.140625 -14.21875 Z M 6.140625 0 "/></g></g></g><g fill="#000000" fill-opacity="1"><g transform="translate(187.621505, 195.006388)"><g><path d="M 11.71875 0.4375 C 10.53125 0.4375 9.398438 0.257812 8.328125 -0.09375 C 7.265625 -0.457031 6.285156 -0.960938 5.390625 -1.609375 C 4.492188 -2.265625 3.71875 -3.03125 3.0625 -3.90625 C 2.40625 -4.789062 1.894531 -5.765625 1.53125 -6.828125 C 1.175781 -7.890625 1 -9.007812 1 -10.1875 C 1 -11.375 1.175781 -12.5 1.53125 -13.5625 C 1.894531 -14.625 2.40625 -15.597656 3.0625 -16.484375 C 3.726562 -17.367188 4.507812 -18.132812 5.40625 -18.78125 C 6.3125 -19.425781 7.300781 -19.925781 8.375 -20.28125 C 9.445312 -20.632812 10.582031 -20.8125 11.78125 -20.8125 C 12.632812 -20.8125 13.492188 -20.707031 14.359375 -20.5 C 15.234375 -20.300781 16.066406 -20 16.859375 -19.59375 C 17.648438 -19.195312 18.375 -18.707031 19.03125 -18.125 C 19.6875 -17.539062 20.242188 -16.875 20.703125 -16.125 C 21.171875 -15.375 21.503906 -14.539062 21.703125 -13.625 L 17.921875 -13.625 C 17.390625 -14.8125 16.578125 -15.738281 15.484375 -16.40625 C 14.398438 -17.070312 13.132812 -17.40625 11.6875 -17.40625 C 10.738281 -17.40625 9.835938 -17.234375 8.984375 -16.890625 C 8.140625 -16.546875 7.394531 -16.050781 6.75 -15.40625 C 6.113281 -14.769531 5.613281 -14.007812 5.25 -13.125 C 4.882812 -12.25 4.703125 -11.269531 4.703125 -10.1875 C 4.703125 -9.082031 4.882812 -8.085938 5.25 -7.203125 C 5.613281 -6.316406 6.113281 -5.5625 6.75 -4.9375 C 7.394531 -4.3125 8.140625 -3.828125 8.984375 -3.484375 C 9.835938 -3.148438 10.738281 -2.984375 11.6875 -2.984375 C 12.90625 -2.984375 13.957031 -3.191406 14.84375 -3.609375 C 15.738281 -4.023438 16.460938 -4.597656 17.015625 -5.328125 C 17.566406 -6.054688 17.9375 -6.890625 18.125 -7.828125 L 11.546875 -7.828125 L 11.546875 -10.953125 L 22.15625 -10.953125 C 22.164062 -9.285156 21.941406 -7.753906 21.484375 -6.359375 C 21.023438 -4.972656 20.347656 -3.769531 19.453125 -2.75 C 18.554688 -1.726562 17.457031 -0.941406 16.15625 -0.390625 C 14.863281 0.160156 13.382812 0.4375 11.71875 0.4375 Z M 11.71875 0.4375 "/></g></g></g><g fill="#000000" fill-opacity="1"><g transform="translate(210.781701, 195.006388)"><g><path d="M 15.328125 0 L 2.421875 0 L 2.421875 -20.34375 L 6.140625 -20.34375 L 6.140625 -3.328125 L 15.328125 -3.328125 Z M 15.328125 0 "/></g></g></g><g fill="#000000" fill-opacity="1"><g transform="translate(226.705273, 195.006388)"><g><path d="M 6.140625 0 L 2.421875 0 L 2.421875 -20.34375 L 6.140625 -20.34375 Z M 6.140625 0 "/></g></g></g><g fill="#000000" fill-opacity="1"><g transform="translate(235.257648, 195.006388)"><g><path d="M 9.28125 0.46875 C 7.820312 0.46875 6.566406 0.28125 5.515625 -0.09375 C 4.472656 -0.476562 3.617188 -0.988281 2.953125 -1.625 C 2.285156 -2.257812 1.796875 -2.960938 1.484375 -3.734375 C 1.171875 -4.515625 1.015625 -5.300781 1.015625 -6.09375 L 4.734375 -6.09375 C 4.734375 -5.46875 4.910156 -4.894531 5.265625 -4.375 C 5.617188 -3.863281 6.132812 -3.453125 6.8125 -3.140625 C 7.488281 -2.828125 8.304688 -2.671875 9.265625 -2.671875 C 12.285156 -2.671875 13.796875 -3.6875 13.796875 -5.71875 C 13.796875 -6.34375 13.601562 -6.847656 13.21875 -7.234375 C 12.832031 -7.628906 12.289062 -7.945312 11.59375 -8.1875 C 10.894531 -8.4375 10.070312 -8.65625 9.125 -8.84375 C 8.445312 -8.976562 7.75 -9.144531 7.03125 -9.34375 C 6.320312 -9.539062 5.640625 -9.789062 4.984375 -10.09375 C 4.328125 -10.394531 3.738281 -10.765625 3.21875 -11.203125 C 2.707031 -11.640625 2.300781 -12.164062 2 -12.78125 C 1.695312 -13.40625 1.546875 -14.140625 1.546875 -14.984375 C 1.546875 -16.085938 1.8125 -17.078125 2.34375 -17.953125 C 2.875 -18.835938 3.703125 -19.535156 4.828125 -20.046875 C 5.953125 -20.554688 7.394531 -20.8125 9.15625 -20.8125 C 10.84375 -20.8125 12.253906 -20.554688 13.390625 -20.046875 C 14.523438 -19.546875 15.378906 -18.832031 15.953125 -17.90625 C 16.523438 -16.988281 16.8125 -15.925781 16.8125 -14.71875 L 13.078125 -14.71875 C 13.078125 -15.238281 12.9375 -15.710938 12.65625 -16.140625 C 12.382812 -16.578125 11.957031 -16.921875 11.375 -17.171875 C 10.789062 -17.429688 10.035156 -17.5625 9.109375 -17.5625 C 8.335938 -17.5625 7.703125 -17.488281 7.203125 -17.34375 C 6.703125 -17.195312 6.3125 -17 6.03125 -16.75 C 5.75 -16.5 5.550781 -16.21875 5.4375 -15.90625 C 5.320312 -15.601562 5.265625 -15.289062 5.265625 -14.96875 C 5.265625 -14.125 5.6875 -13.476562 6.53125 -13.03125 C 7.382812 -12.582031 8.660156 -12.21875 10.359375 -11.9375 C 11.296875 -11.757812 12.195312 -11.523438 13.0625 -11.234375 C 13.925781 -10.941406 14.695312 -10.554688 15.375 -10.078125 C 16.050781 -9.609375 16.585938 -9.015625 16.984375 -8.296875 C 17.378906 -7.578125 17.578125 -6.710938 17.578125 -5.703125 C 17.578125 -4.378906 17.234375 -3.257812 16.546875 -2.34375 C 15.859375 -1.425781 14.894531 -0.726562 13.65625 -0.25 C 12.414062 0.226562 10.957031 0.46875 9.28125 0.46875 Z M 9.28125 0.46875 "/></g></g></g><g fill="#000000" fill-opacity="1"><g transform="translate(253.767859, 195.006388)"><g><path d="M 6.140625 0 L 2.421875 0 L 2.421875 -20.34375 L 6.140625 -20.34375 L 6.140625 -11.90625 L 16.40625 -11.90625 L 16.40625 -20.34375 L 20.140625 -20.34375 L 20.140625 0 L 16.40625 0 L 16.40625 -8.578125 L 6.140625 -8.578125 Z M 6.140625 0 "/></g></g></g><g fill="#000000" fill-opacity="1"><g transform="translate(147.326654, 222.006386)"><g><path d="M 6.140625 0 L 2.421875 0 L 2.421875 -20.34375 L 10.984375 -20.34375 C 12.015625 -20.34375 12.960938 -20.171875 13.828125 -19.828125 C 14.691406 -19.484375 15.4375 -19.003906 16.0625 -18.390625 C 16.6875 -17.785156 17.171875 -17.0625 17.515625 -16.21875 C 17.867188 -15.382812 18.046875 -14.472656 18.046875 -13.484375 C 18.046875 -12.441406 17.875 -11.488281 17.53125 -10.625 C 17.1875 -9.769531 16.703125 -9.03125 16.078125 -8.40625 C 15.453125 -7.789062 14.710938 -7.316406 13.859375 -6.984375 C 13.003906 -6.648438 12.066406 -6.484375 11.046875 -6.484375 L 6.140625 -6.484375 Z M 6.140625 -17.015625 L 6.140625 -9.8125 L 10.875 -9.8125 C 11.519531 -9.8125 12.101562 -9.972656 12.625 -10.296875 C 13.144531 -10.617188 13.554688 -11.054688 13.859375 -11.609375 C 14.171875 -12.160156 14.328125 -12.785156 14.328125 -13.484375 C 14.328125 -14.109375 14.171875 -14.6875 13.859375 -15.21875 C 13.554688 -15.757812 13.140625 -16.191406 12.609375 -16.515625 C 12.085938 -16.847656 11.5 -17.015625 10.84375 -17.015625 Z M 6.140625 -17.015625 "/></g></g></g><g fill="#000000" fill-opacity="1"><g transform="translate(165.836865, 222.006386)"><g><path d="M 6.140625 0 L 2.421875 0 L 2.421875 -20.34375 L 11.203125 -20.34375 C 12.222656 -20.34375 13.164062 -20.179688 14.03125 -19.859375 C 14.894531 -19.546875 15.640625 -19.09375 16.265625 -18.5 C 16.898438 -17.914062 17.390625 -17.21875 17.734375 -16.40625 C 18.085938 -15.59375 18.265625 -14.695312 18.265625 -13.71875 C 18.265625 -12.757812 18.09375 -11.882812 17.75 -11.09375 C 17.40625 -10.3125 16.921875 -9.632812 16.296875 -9.0625 C 15.679688 -8.5 14.953125 -8.078125 14.109375 -7.796875 L 18.71875 0 L 14.4375 0 L 10.421875 -7.21875 C 10.296875 -7.207031 10.164062 -7.203125 10.03125 -7.203125 C 9.90625 -7.203125 9.769531 -7.203125 9.625 -7.203125 L 6.140625 -7.203125 Z M 6.140625 -17.015625 L 6.140625 -10.34375 L 11.0625 -10.34375 C 11.71875 -10.351562 12.304688 -10.5 12.828125 -10.78125 C 13.359375 -11.070312 13.773438 -11.46875 14.078125 -11.96875 C 14.378906 -12.46875 14.53125 -13.050781 14.53125 -13.71875 C 14.53125 -14.332031 14.375 -14.890625 14.0625 -15.390625 C 13.757812 -15.890625 13.34375 -16.285156 12.8125 -16.578125 C 12.289062 -16.867188 11.703125 -17.015625 11.046875 -17.015625 Z M 6.140625 -17.015625 "/></g></g></g><g fill="#000000" fill-opacity="1"><g transform="translate(185.199329, 222.006386)"><g><path d="M 11.953125 0.4375 C 10.742188 0.4375 9.585938 0.257812 8.484375 -0.09375 C 7.390625 -0.445312 6.382812 -0.945312 5.46875 -1.59375 C 4.5625 -2.25 3.769531 -3.019531 3.09375 -3.90625 C 2.425781 -4.789062 1.90625 -5.765625 1.53125 -6.828125 C 1.164062 -7.898438 0.984375 -9.023438 0.984375 -10.203125 C 0.984375 -11.390625 1.164062 -12.507812 1.53125 -13.5625 C 1.90625 -14.625 2.425781 -15.597656 3.09375 -16.484375 C 3.769531 -17.367188 4.5625 -18.132812 5.46875 -18.78125 C 6.382812 -19.425781 7.390625 -19.925781 8.484375 -20.28125 C 9.585938 -20.632812 10.742188 -20.8125 11.953125 -20.8125 C 13.148438 -20.8125 14.296875 -20.632812 15.390625 -20.28125 C 16.492188 -19.925781 17.503906 -19.425781 18.421875 -18.78125 C 19.335938 -18.132812 20.128906 -17.367188 20.796875 -16.484375 C 21.472656 -15.597656 21.992188 -14.625 22.359375 -13.5625 C 22.734375 -12.507812 22.921875 -11.390625 22.921875 -10.203125 C 22.921875 -9.023438 22.734375 -7.898438 22.359375 -6.828125 C 21.992188 -5.765625 21.472656 -4.789062 20.796875 -3.90625 C 20.128906 -3.019531 19.335938 -2.25 18.421875 -1.59375 C 17.503906 -0.945312 16.5 -0.445312 15.40625 -0.09375 C 14.3125 0.257812 13.160156 0.4375 11.953125 0.4375 Z M 11.953125 -2.984375 C 12.953125 -2.984375 13.890625 -3.160156 14.765625 -3.515625 C 15.648438 -3.878906 16.425781 -4.382812 17.09375 -5.03125 C 17.757812 -5.6875 18.28125 -6.453125 18.65625 -7.328125 C 19.03125 -8.203125 19.21875 -9.15625 19.21875 -10.1875 C 19.21875 -11.21875 19.03125 -12.175781 18.65625 -13.0625 C 18.28125 -13.945312 17.757812 -14.710938 17.09375 -15.359375 C 16.425781 -16.003906 15.648438 -16.503906 14.765625 -16.859375 C 13.890625 -17.222656 12.953125 -17.40625 11.953125 -17.40625 C 10.953125 -17.40625 10.015625 -17.222656 9.140625 -16.859375 C 8.265625 -16.503906 7.492188 -16 6.828125 -15.34375 C 6.160156 -14.695312 5.640625 -13.929688 5.265625 -13.046875 C 4.890625 -12.171875 4.703125 -11.21875 4.703125 -10.1875 C 4.703125 -9.15625 4.890625 -8.203125 5.265625 -7.328125 C 5.640625 -6.453125 6.160156 -5.6875 6.828125 -5.03125 C 7.492188 -4.382812 8.265625 -3.878906 9.140625 -3.515625 C 10.015625 -3.160156 10.953125 -2.984375 11.953125 -2.984375 Z M 11.953125 -2.984375 "/></g></g></g><g fill="#000000" fill-opacity="1"><g transform="translate(209.107111, 222.006386)"><g><path d="M 6.140625 0 L 2.421875 0 L 2.421875 -20.34375 L 16.359375 -20.34375 L 16.359375 -17 L 6.140625 -17 L 6.140625 -11.125 L 14.96875 -11.125 L 14.96875 -7.984375 L 6.140625 -7.984375 Z M 6.140625 0 "/></g></g></g><g fill="#000000" fill-opacity="1"><g transform="translate(226.331475, 222.006386)"><g><path d="M 6.140625 0 L 2.421875 0 L 2.421875 -20.34375 L 6.140625 -20.34375 Z M 6.140625 0 "/></g></g></g><g fill="#000000" fill-opacity="1"><g transform="translate(234.88385, 222.006386)"><g><path d="M 11.71875 0.4375 C 10.519531 0.4375 9.382812 0.257812 8.3125 -0.09375 C 7.238281 -0.445312 6.253906 -0.945312 5.359375 -1.59375 C 4.460938 -2.25 3.6875 -3.019531 3.03125 -3.90625 C 2.382812 -4.789062 1.878906 -5.765625 1.515625 -6.828125 C 1.160156 -7.898438 0.984375 -9.023438 0.984375 -10.203125 C 0.984375 -11.390625 1.160156 -12.507812 1.515625 -13.5625 C 1.878906 -14.625 2.382812 -15.597656 3.03125 -16.484375 C 3.6875 -17.367188 4.460938 -18.132812 5.359375 -18.78125 C 6.253906 -19.425781 7.238281 -19.925781 8.3125 -20.28125 C 9.382812 -20.632812 10.519531 -20.8125 11.71875 -20.8125 C 12.800781 -20.8125 13.867188 -20.648438 14.921875 -20.328125 C 15.984375 -20.015625 16.972656 -19.53125 17.890625 -18.875 C 18.804688 -18.226562 19.582031 -17.40625 20.21875 -16.40625 C 20.851562 -15.40625 21.289062 -14.226562 21.53125 -12.875 L 17.734375 -12.875 C 17.460938 -13.914062 17.03125 -14.769531 16.4375 -15.4375 C 15.84375 -16.113281 15.128906 -16.609375 14.296875 -16.921875 C 13.472656 -17.242188 12.582031 -17.40625 11.625 -17.40625 C 10.664062 -17.40625 9.765625 -17.234375 8.921875 -16.890625 C 8.085938 -16.546875 7.351562 -16.050781 6.71875 -15.40625 C 6.082031 -14.769531 5.585938 -14.007812 5.234375 -13.125 C 4.878906 -12.25 4.703125 -11.269531 4.703125 -10.1875 C 4.703125 -9.082031 4.878906 -8.085938 5.234375 -7.203125 C 5.585938 -6.316406 6.082031 -5.5625 6.71875 -4.9375 C 7.351562 -4.3125 8.085938 -3.828125 8.921875 -3.484375 C 9.765625 -3.148438 10.664062 -2.984375 11.625 -2.984375 C 12.582031 -2.984375 13.472656 -3.144531 14.296875 -3.46875 C 15.117188 -3.789062 15.828125 -4.285156 16.421875 -4.953125 C 17.023438 -5.617188 17.457031 -6.46875 17.71875 -7.5 L 21.53125 -7.5 C 21.289062 -6.144531 20.851562 -4.96875 20.21875 -3.96875 C 19.582031 -2.96875 18.804688 -2.140625 17.890625 -1.484375 C 16.984375 -0.835938 16 -0.351562 14.9375 -0.03125 C 13.882812 0.28125 12.8125 0.4375 11.71875 0.4375 Z M 11.71875 0.4375 "/></g></g></g><g fill="#000000" fill-opacity="1"><g transform="translate(257.416075, 222.006386)"><g><path d="M 6.140625 0 L 2.421875 0 L 2.421875 -20.34375 L 6.140625 -20.34375 Z M 6.140625 0 "/></g></g></g><g fill="#000000" fill-opacity="1"><g transform="translate(265.968451, 222.006386)"><g><path d="M 16.5 0 L 2.421875 0 L 2.421875 -20.34375 L 16.359375 -20.34375 L 16.359375 -17 L 6.140625 -17 L 6.140625 -11.90625 L 14.96875 -11.90625 L 14.96875 -8.765625 L 6.140625 -8.765625 L 6.140625 -3.328125 L 16.5 -3.328125 Z M 16.5 0 "/></g></g></g><g fill="#000000" fill-opacity="1"><g transform="translate(283.432042, 222.006386)"><g><path d="M 6.140625 0 L 2.421875 0 L 2.421875 -20.34375 L 5.625 -20.34375 L 16.703125 -6.09375 L 16.703125 -20.34375 L 20.40625 -20.34375 L 20.40625 0 L 17.234375 0 L 6.140625 -14.21875 Z M 6.140625 0 "/></g></g></g><g fill="#000000" fill-opacity="1"><g transform="translate(306.263301, 222.006386)"><g><path d="M 11.71875 0.4375 C 10.519531 0.4375 9.382812 0.257812 8.3125 -0.09375 C 7.238281 -0.445312 6.253906 -0.945312 5.359375 -1.59375 C 4.460938 -2.25 3.6875 -3.019531 3.03125 -3.90625 C 2.382812 -4.789062 1.878906 -5.765625 1.515625 -6.828125 C 1.160156 -7.898438 0.984375 -9.023438 0.984375 -10.203125 C 0.984375 -11.390625 1.160156 -12.507812 1.515625 -13.5625 C 1.878906 -14.625 2.382812 -15.597656 3.03125 -16.484375 C 3.6875 -17.367188 4.460938 -18.132812 5.359375 -18.78125 C 6.253906 -19.425781 7.238281 -19.925781 8.3125 -20.28125 C 9.382812 -20.632812 10.519531 -20.8125 11.71875 -20.8125 C 12.800781 -20.8125 13.867188 -20.648438 14.921875 -20.328125 C 15.984375 -20.015625 16.972656 -19.53125 17.890625 -18.875 C 18.804688 -18.226562 19.582031 -17.40625 20.21875 -16.40625 C 20.851562 -15.40625 21.289062 -14.226562 21.53125 -12.875 L 17.734375 -12.875 C 17.460938 -13.914062 17.03125 -14.769531 16.4375 -15.4375 C 15.84375 -16.113281 15.128906 -16.609375 14.296875 -16.921875 C 13.472656 -17.242188 12.582031 -17.40625 11.625 -17.40625 C 10.664062 -17.40625 9.765625 -17.234375 8.921875 -16.890625 C 8.085938 -16.546875 7.351562 -16.050781 6.71875 -15.40625 C 6.082031 -14.769531 5.585938 -14.007812 5.234375 -13.125 C 4.878906 -12.25 4.703125 -11.269531 4.703125 -10.1875 C 4.703125 -9.082031 4.878906 -8.085938 5.234375 -7.203125 C 5.585938 -6.316406 6.082031 -5.5625 6.71875 -4.9375 C 7.351562 -4.3125 8.085938 -3.828125 8.921875 -3.484375 C 9.765625 -3.148438 10.664062 -2.984375 11.625 -2.984375 C 12.582031 -2.984375 13.472656 -3.144531 14.296875 -3.46875 C 15.117188 -3.789062 15.828125 -4.285156 16.421875 -4.953125 C 17.023438 -5.617188 17.457031 -6.46875 17.71875 -7.5 L 21.53125 -7.5 C 21.289062 -6.144531 20.851562 -4.96875 20.21875 -3.96875 C 19.582031 -2.96875 18.804688 -2.140625 17.890625 -1.484375 C 16.984375 -0.835938 16 -0.351562 14.9375 -0.03125 C 13.882812 0.28125 12.8125 0.4375 11.71875 0.4375 Z M 11.71875 0.4375 "/></g></g></g><g fill="#000000" fill-opacity="1"><g transform="translate(328.795526, 222.006386)"><g><path d="M 11.953125 0 L 8.21875 0 L 8.21875 -7.734375 L 0.21875 -20.34375 L 4.5625 -20.34375 L 10.09375 -11.046875 L 10.109375 -11.046875 L 15.59375 -20.34375 L 19.984375 -20.34375 L 11.953125 -7.765625 Z M 11.953125 0 "/></g></g></g><g transform="matrix(1, 0, 0, 1, 47, 129)"><g clip-path="url(#50b64c826a)"><g clip-path="url(#5f22e4a4fc)"><g transform="matrix(1, 0, 0, 1, 46, 27)"><g clip-path="url(#6417d032dd)"><g fill="#f38ab2" fill-opacity="1"><g transform="translate(41.831495, 62.618296)"><g><path d="M -19.953125 -40.203125 C -19.703125 -40.453125 -19.171875 -40.921875 -18.359375 -41.609375 C -17.546875 -42.296875 -16.515625 -42.976562 -15.265625 -43.65625 C -14.015625 -44.332031 -12.601562 -44.8125 -11.03125 -45.09375 C -9.46875 -45.382812 -7.8125 -45.273438 -6.0625 -44.765625 C -4.320312 -44.265625 -2.5625 -43.125 -0.78125 -41.34375 C 0.695312 -39.863281 1.71875 -38.390625 2.28125 -36.921875 C 2.84375 -35.453125 3.078125 -34.019531 2.984375 -32.625 C 2.890625 -31.226562 2.617188 -29.929688 2.171875 -28.734375 C 1.722656 -27.535156 1.195312 -26.46875 0.59375 -25.53125 C 0 -24.601562 -0.546875 -23.851562 -1.046875 -23.28125 C -1.546875 -22.707031 -1.859375 -22.359375 -1.984375 -22.234375 L -6.46875 -17.75 L 5.296875 -5.984375 C 5.523438 -5.753906 5.515625 -5.515625 5.265625 -5.265625 L 0.375 -0.375 C 0.125 -0.125 -0.113281 -0.113281 -0.34375 -0.34375 L -17.671875 -17.671875 L -7.546875 -27.796875 C -7.347656 -27.992188 -7.039062 -28.347656 -6.625 -28.859375 C -6.21875 -29.378906 -5.84375 -30.003906 -5.5 -30.734375 C -5.164062 -31.472656 -5.046875 -32.265625 -5.140625 -33.109375 C -5.234375 -33.953125 -5.691406 -34.785156 -6.515625 -35.609375 C -7.347656 -36.441406 -8.191406 -36.898438 -9.046875 -36.984375 C -9.910156 -37.078125 -10.71875 -36.957031 -11.46875 -36.625 C -12.226562 -36.300781 -12.867188 -35.941406 -13.390625 -35.546875 C -13.910156 -35.148438 -14.257812 -34.863281 -14.4375 -34.6875 L -24.5625 -24.5625 L -29.75 -29.75 C -29.96875 -29.96875 -29.953125 -30.203125 -29.703125 -30.453125 Z M -19.953125 -40.203125 "/></g></g></g></g></g></g><g clip-path="url(#203ef2ad2a)"><g transform="matrix(1, 0, 0, 1, 21, 49)"><g clip-path="url(#75663b15ad)"><g fill="#000000" fill-opacity="1"><g transform="translate(5.146792, 41.552313)"><g><path d="M 40.203125 -19.953125 C 40.453125 -19.703125 40.921875 -19.171875 41.609375 -18.359375 C 42.296875 -17.546875 42.976562 -16.515625 43.65625 -15.265625 C 44.332031 -14.015625 44.8125 -12.601562 45.09375 -11.03125 C 45.382812 -9.46875 45.273438 -7.8125 44.765625 -6.0625 C 44.265625 -4.320312 43.125 -2.5625 41.34375 -0.78125 C 39.863281 0.695312 38.390625 1.71875 36.921875 2.28125 C 35.453125 2.84375 34.019531 3.078125 32.625 2.984375 C 31.226562 2.890625 29.929688 2.617188 28.734375 2.171875 C 27.535156 1.722656 26.46875 1.195312 25.53125 0.59375 C 24.601562 0 23.851562 -0.546875 23.28125 -1.046875 C 22.707031 -1.546875 22.359375 -1.859375 22.234375 -1.984375 L 17.75 -6.46875 L 5.984375 5.296875 C 5.753906 5.523438 5.515625 5.515625 5.265625 5.265625 L 0.375 0.375 C 0.125 0.125 0.113281 -0.113281 0.34375 -0.34375 L 17.671875 -17.671875 L 27.796875 -7.546875 C 27.992188 -7.347656 28.347656 -7.039062 28.859375 -6.625 C 29.378906 -6.21875 30.003906 -5.84375 30.734375 -5.5 C 31.472656 -5.164062 32.265625 -5.046875 33.109375 -5.140625 C 33.953125 -5.234375 34.785156 -5.691406 35.609375 -6.515625 C 36.441406 -7.347656 36.898438 -8.191406 36.984375 -9.046875 C 37.078125 -9.910156 36.957031 -10.71875 36.625 -11.46875 C 36.300781 -12.226562 35.941406 -12.867188 35.546875 -13.390625 C 35.148438 -13.910156 34.863281 -14.257812 34.6875 -14.4375 L 24.5625 -24.5625 L 29.75 -29.75 C 29.96875 -29.96875 30.203125 -29.953125 30.453125 -29.703125 Z M 40.203125 -19.953125 "/></g></g></g></g></g></g><g clip-path="url(#36852b2fa8)"><g transform="matrix(1, 0, 0, 1, 26, 0)"><g clip-path="url(#28bc735412)"><g fill="#000000" fill-opacity="1"><g transform="translate(62.716638, 26.443634)"><g><path d="M -40.203125 19.953125 C -40.453125 19.703125 -40.921875 19.171875 -41.609375 18.359375 C -42.296875 17.546875 -42.976562 16.515625 -43.65625 15.265625 C -44.332031 14.015625 -44.8125 12.601562 -45.09375 11.03125 C -45.382812 9.46875 -45.273438 7.8125 -44.765625 6.0625 C -44.265625 4.320312 -43.125 2.5625 -41.34375 0.78125 C -39.863281 -0.695312 -38.390625 -1.71875 -36.921875 -2.28125 C -35.453125 -2.84375 -34.019531 -3.078125 -32.625 -2.984375 C -31.226562 -2.890625 -29.929688 -2.617188 -28.734375 -2.171875 C -27.535156 -1.722656 -26.46875 -1.195312 -25.53125 -0.59375 C -24.601562 0 -23.851562 0.546875 -23.28125 1.046875 C -22.707031 1.546875 -22.359375 1.859375 -22.234375 1.984375 L -17.75 6.46875 L -5.984375 -5.296875 C -5.753906 -5.523438 -5.515625 -5.515625 -5.265625 -5.265625 L -0.375 -0.375 C -0.125 -0.125 -0.113281 0.113281 -0.34375 0.34375 L -17.671875 17.671875 L -27.796875 7.546875 C -27.992188 7.347656 -28.347656 7.039062 -28.859375 6.625 C -29.378906 6.21875 -30.003906 5.84375 -30.734375 5.5 C -31.472656 5.164062 -32.265625 5.046875 -33.109375 5.140625 C -33.953125 5.234375 -34.785156 5.691406 -35.609375 6.515625 C -36.441406 7.347656 -36.898438 8.191406 -36.984375 9.046875 C -37.078125 9.910156 -36.957031 10.71875 -36.625 11.46875 C -36.300781 12.226562 -35.941406 12.867188 -35.546875 13.390625 C -35.148438 13.910156 -34.863281 14.257812 -34.6875 14.4375 L -24.5625 24.5625 L -29.75 29.75 C -29.96875 29.96875 -30.203125 29.953125 -30.453125 29.703125 Z M -40.203125 19.953125 "/></g></g></g></g></g></g><g clip-path="url(#80dfe71470)"><g transform="matrix(1, 0, 0, 1, 0, 22)"><g clip-path="url(#9badb7503d)"><g fill="#000000" fill-opacity="1"><g transform="translate(26.286191, 5.297818)"><g><path d="M 19.953125 40.203125 C 19.703125 40.453125 19.171875 40.921875 18.359375 41.609375 C 17.546875 42.296875 16.515625 42.976562 15.265625 43.65625 C 14.015625 44.332031 12.601562 44.8125 11.03125 45.09375 C 9.46875 45.382812 7.8125 45.273438 6.0625 44.765625 C 4.320312 44.265625 2.5625 43.125 0.78125 41.34375 C -0.695312 39.863281 -1.71875 38.390625 -2.28125 36.921875 C -2.84375 35.453125 -3.078125 34.019531 -2.984375 32.625 C -2.890625 31.226562 -2.617188 29.929688 -2.171875 28.734375 C -1.722656 27.535156 -1.195312 26.46875 -0.59375 25.53125 C 0 24.601562 0.546875 23.851562 1.046875 23.28125 C 1.546875 22.707031 1.859375 22.359375 1.984375 22.234375 L 6.46875 17.75 L -5.296875 5.984375 C -5.523438 5.753906 -5.515625 5.515625 -5.265625 5.265625 L -0.375 0.375 C -0.125 0.125 0.113281 0.113281 0.34375 0.34375 L 17.671875 17.671875 L 7.546875 27.796875 C 7.347656 27.992188 7.039062 28.347656 6.625 28.859375 C 6.21875 29.378906 5.84375 30.003906 5.5 30.734375 C 5.164062 31.472656 5.046875 32.265625 5.140625 33.109375 C 5.234375 33.953125 5.691406 34.785156 6.515625 35.609375 C 7.347656 36.441406 8.191406 36.898438 9.046875 36.984375 C 9.910156 37.078125 10.71875 36.957031 11.46875 36.625 C 12.226562 36.300781 12.867188 35.941406 13.390625 35.546875 C 13.910156 35.148438 14.257812 34.863281 14.4375 34.6875 L 24.5625 24.5625 L 29.75 29.75 C 29.96875 29.96875 29.953125 30.203125 29.703125 30.453125 Z M 19.953125 40.203125 "/></g></g></g></g></g></g></g></g></svg>