<svg width="1920" height="1418" viewBox="0 0 1920 1418" fill="none" xmlns="http://www.w3.org/2000/svg">
<path d="M500.119 80.016L500.781 79.9871L501.19 79.466L501.219 80.1276L501.74 80.5363L501.078 80.5652L500.67 81.0863L500.641 80.4247L500.119 80.016Z" fill="#6F6C7D"/>
<path d="M502.563 220.432L503.224 220.403L503.633 219.882L503.662 220.544L504.183 220.952L503.522 220.981L503.113 221.502L503.084 220.841L502.563 220.432Z" fill="#6F6C7D"/>
<path d="M235.787 414.741L236.449 414.712L236.858 414.191L236.887 414.852L237.408 415.261L236.746 415.29L236.337 415.811L236.309 415.149L235.787 414.741Z" fill="#6F6C7D"/>
<path d="M320.213 126.11L320.875 126.081L321.283 125.56L321.312 126.221L321.833 126.63L321.172 126.659L320.763 127.18L320.734 126.518L320.213 126.11Z" fill="#6F6C7D"/>
<path d="M453.082 55.1254L453.744 55.0965L454.153 54.5754L454.182 55.237L454.703 55.6456L454.041 55.6746L453.632 56.1957L453.603 55.5341L453.082 55.1254Z" fill="#6F6C7D"/>
<path d="M358.926 79.1117L359.588 79.0828L359.996 78.5617L360.025 79.2233L360.546 79.632L359.885 79.6609L359.476 80.182L359.447 79.5204L358.926 79.1117Z" fill="#6F6C7D"/>
<path d="M268.481 532.997L269.142 532.968L269.551 532.446L269.58 533.108L270.101 533.517L269.439 533.546L269.031 534.067L269.002 533.405L268.481 532.997Z" fill="#6F6C7D"/>
<path d="M76.2796 553.508L76.9412 553.479L77.3499 552.958L77.3788 553.62L77.8999 554.028L77.2383 554.057L76.8297 554.578L76.8007 553.917L76.2796 553.508Z" fill="#6F6C7D"/>
<path d="M262.901 124.088L263.562 124.059L263.971 123.538L264 124.2L264.521 124.609L263.859 124.637L263.451 125.159L263.422 124.497L262.901 124.088Z" fill="#6F6C7D"/>
<path d="M374.194 507.143L374.855 507.114L375.264 506.593L375.293 507.255L375.814 507.663L375.152 507.692L374.744 508.213L374.715 507.552L374.194 507.143Z" fill="#6F6C7D"/>
<path d="M488.311 268.881L488.972 268.852L489.381 268.331L489.41 268.993L489.931 269.401L489.27 269.43L488.861 269.952L488.832 269.29L488.311 268.881Z" fill="#6F6C7D"/>
<path d="M1791.27 438.37L1791.93 438.341L1792.34 437.82L1792.37 438.481L1792.89 438.89L1792.22 438.919L1791.82 439.44L1791.79 438.778L1791.27 438.37Z" fill="white"/>
<path d="M600.971 193.385L601.633 193.356L602.041 192.835L602.07 193.497L602.591 193.905L601.93 193.934L601.521 194.455L601.492 193.794L600.971 193.385Z" fill="white"/>
<path d="M470.334 155.914L470.996 155.886L471.405 155.364L471.434 156.026L471.955 156.435L471.293 156.464L470.884 156.985L470.855 156.323L470.334 155.914Z" fill="white"/>
<path d="M338.705 310.538L339.367 310.509L339.776 309.988L339.805 310.649L340.326 311.058L339.664 311.087L339.255 311.608L339.226 310.946L338.705 310.538Z" fill="white"/>
<path d="M1056.03 110.686L1056.7 110.657L1057.1 110.136L1057.13 110.798L1057.65 111.206L1056.99 111.235L1056.58 111.756L1056.55 111.095L1056.03 110.686Z" fill="white"/>
<path d="M104.371 436.864L105.033 436.835L105.442 436.314L105.471 436.975L105.992 437.384L105.33 437.413L104.921 437.934L104.893 437.272L104.371 436.864Z" fill="white"/>
<path d="M395.61 170.784L396.271 170.755L396.68 170.234L396.709 170.895L397.23 171.304L396.568 171.333L396.16 171.854L396.131 171.192L395.61 170.784Z" fill="white"/>
<path d="M464.018 11.4418L464.679 11.4129L465.088 10.8918L465.117 11.5534L465.638 11.962L464.977 11.991L464.568 12.5121L464.539 11.8505L464.018 11.4418Z" fill="white"/>
<path d="M386.649 98.7543L387.31 98.7254L387.719 98.2043L387.748 98.8659L388.269 99.2745L387.607 99.3035L387.199 99.8246L387.17 99.163L386.649 98.7543Z" fill="white"/>
<g filter="url(#filter0_f_491_39095)">
<path d="M376.071 233.95L376.732 233.921L377.141 233.4L377.17 234.061L377.691 234.47L377.029 234.499L376.621 235.02L376.592 234.358L376.071 233.95Z" fill="white"/>
</g>
<g filter="url(#filter1_f_491_39095)">
<path d="M953.276 146.532L953.937 146.503L954.346 145.982L954.375 146.643L954.896 147.052L954.234 147.081L953.826 147.602L953.797 146.94L953.276 146.532Z" fill="white"/>
</g>
<g filter="url(#filter2_f_491_39095)">
<path d="M190.131 454.434L190.793 454.405L191.201 453.884L191.23 454.546L191.751 454.954L191.09 454.983L190.681 455.504L190.652 454.843L190.131 454.434Z" fill="white"/>
</g>
<g filter="url(#filter3_f_491_39095)">
<path d="M160.071 613.571L160.732 613.542L161.141 613.021L161.17 613.682L161.691 614.091L161.029 614.12L160.621 614.641L160.592 613.979L160.071 613.571Z" fill="white"/>
</g>
<g filter="url(#filter4_f_491_39095)">
<path d="M403.11 462.528L403.771 462.499L404.18 461.978L404.209 462.639L404.73 463.048L404.068 463.077L403.66 463.598L403.631 462.936L403.11 462.528Z" fill="white"/>
</g>
<g filter="url(#filter5_f_491_39095)">
<path d="M1757.27 195.37L1757.93 195.341L1758.34 194.82L1758.37 195.481L1758.89 195.89L1758.23 195.919L1757.82 196.44L1757.79 195.778L1757.27 195.37Z" fill="white"/>
</g>
<g filter="url(#filter6_f_491_39095)">
<path d="M170.135 358.1L170.797 358.071L171.205 357.55L171.234 358.212L171.755 358.62L171.094 358.649L170.685 359.17L170.656 358.509L170.135 358.1Z" fill="white"/>
</g>
<g filter="url(#filter7_f_491_39095)">
<path d="M78.1355 353.449L80.1643 353.36L81.4175 351.763L81.5063 353.791L83.1042 355.045L81.0754 355.133L79.8222 356.731L79.7334 354.702L78.1355 353.449Z" fill="#868592"/>
</g>
<g filter="url(#filter8_f_491_39095)">
<path d="M24.9676 525.926L26.9963 525.837L28.2495 524.239L28.3383 526.268L29.9362 527.521L27.9075 527.61L26.6543 529.208L26.5655 527.179L24.9676 525.926Z" fill="#6E6B7C"/>
</g>
<g filter="url(#filter9_f_491_39095)">
<path d="M320.343 497.955L322.371 497.866L323.625 496.268L323.713 498.297L325.311 499.55L323.282 499.639L322.029 501.237L321.94 499.208L320.343 497.955Z" fill="#868592"/>
</g>
<g filter="url(#filter10_f_491_39095)">
<path d="M1658.8 430.043L1660.83 429.954L1662.09 428.356L1662.17 430.385L1663.77 431.638L1661.74 431.727L1660.49 433.325L1660.4 431.296L1658.8 430.043Z" fill="#868592"/>
</g>
<g filter="url(#filter11_f_491_39095)">
<path d="M323.61 385.975L325.639 385.886L326.892 384.288L326.981 386.317L328.579 387.57L326.55 387.659L325.297 389.257L325.208 387.228L323.61 385.975Z" fill="#868592"/>
</g>
<g filter="url(#filter12_f_491_39095)">
<path d="M1841.8 344.043L1843.83 343.954L1845.08 342.356L1845.17 344.385L1846.77 345.638L1844.74 345.727L1843.49 347.325L1843.4 345.296L1841.8 344.043Z" fill="#868592"/>
</g>
<g filter="url(#filter13_f_491_39095)">
<path d="M1618.95 164.137L1620.98 164.048L1622.23 162.45L1622.32 164.479L1623.92 165.732L1621.89 165.821L1620.64 167.419L1620.55 165.39L1618.95 164.137Z" fill="#868592"/>
</g>
<g filter="url(#filter14_f_491_39095)">
<path d="M1848.8 121.043L1850.83 120.954L1852.09 119.356L1852.17 121.385L1853.77 122.638L1851.74 122.727L1850.49 124.325L1850.4 122.296L1848.8 121.043Z" fill="white"/>
</g>
<g filter="url(#filter15_f_491_39095)">
<path d="M526.501 62.3184L528.53 62.2296L529.783 60.6317L529.872 62.6605L531.469 63.9137L529.441 64.0025L528.187 65.6004L528.099 63.5716L526.501 62.3184Z" fill="white"/>
</g>
<g filter="url(#filter16_f_491_39095)">
<path d="M452.288 189.324L454.317 189.235L455.57 187.638L455.659 189.666L457.257 190.92L455.228 191.008L453.975 192.606L453.886 190.577L452.288 189.324Z" fill="#6E6B7C"/>
</g>
<g filter="url(#filter17_f_491_39095)">
<path d="M839.108 575.168L841.137 575.079L842.39 573.481L842.479 575.51L844.077 576.763L842.048 576.852L840.795 578.45L840.706 576.421L839.108 575.168Z" fill="#6E6B7C"/>
</g>
<g filter="url(#filter18_f_491_39095)">
<path d="M312.425 227.148L314.453 227.06L315.707 225.462L315.795 227.491L317.393 228.744L315.364 228.833L314.111 230.43L314.023 228.402L312.425 227.148Z" fill="white"/>
</g>
<g filter="url(#filter19_f_491_39095)">
<path d="M1776.8 523.043L1778.83 522.954L1780.09 521.356L1780.17 523.385L1781.77 524.638L1779.74 524.727L1778.49 526.325L1778.4 524.296L1776.8 523.043Z" fill="white"/>
</g>
<g filter="url(#filter20_f_491_39095)">
<path d="M365.182 142.164L367.211 142.075L368.464 140.477L368.553 142.506L370.151 143.759L368.122 143.848L366.869 145.446L366.78 143.417L365.182 142.164Z" fill="white"/>
</g>
<g filter="url(#filter21_f_491_39095)">
<path d="M1651.8 65.043L1653.83 64.9542L1655.09 63.3563L1655.17 65.3851L1656.77 66.6383L1654.74 66.7271L1653.49 68.325L1653.4 66.2962L1651.8 65.043Z" fill="white"/>
</g>
<g opacity="0.5">
<path d="M692.915 459.375L693.403 459.822L694.061 459.743L693.613 460.231L693.693 460.888L693.205 460.441L692.547 460.52L692.994 460.032L692.915 459.375Z" fill="#6F6C7D"/>
<path d="M595.356 576.322L595.845 576.769L596.502 576.69L596.055 577.178L596.134 577.836L595.646 577.388L594.989 577.468L595.436 576.979L595.356 576.322Z" fill="#6F6C7D"/>
<path d="M269.319 525.082L269.808 525.529L270.465 525.45L270.018 525.938L270.097 526.595L269.609 526.148L268.951 526.227L269.399 525.739L269.319 525.082Z" fill="#6F6C7D"/>
<path d="M41.5576 372.127L42.0458 372.574L42.7032 372.495L42.2559 372.983L42.3354 373.64L41.8471 373.193L41.1897 373.272L41.637 372.784L41.5576 372.127Z" fill="#6F6C7D"/>
<path d="M114.3 228.383L114.788 228.83L115.445 228.75L114.998 229.239L115.078 229.896L114.589 229.449L113.932 229.528L114.379 229.04L114.3 228.383Z" fill="#6F6C7D"/>
<path d="M194.544 254.695L195.032 255.142L195.69 255.063L195.242 255.551L195.322 256.209L194.833 255.761L194.176 255.841L194.623 255.352L194.544 254.695Z" fill="#6F6C7D"/>
<path d="M117.007 315.81L117.495 316.258L118.152 316.178L117.705 316.666L117.785 317.324L117.296 316.877L116.639 316.956L117.086 316.468L117.007 315.81Z" fill="#6F6C7D"/>
<path d="M1.69818 256.849L2.18645 257.297L2.84387 257.217L2.39654 257.705L2.47603 258.363L1.98775 257.916L1.33033 257.995L1.77766 257.507L1.69818 256.849Z" fill="#6F6C7D"/>
<path d="M533.11 380.685L533.599 381.133L534.256 381.053L533.809 381.541L533.888 382.199L533.4 381.752L532.742 381.831L533.19 381.343L533.11 380.685Z" fill="#6F6C7D"/>
<path d="M677.259 408.511L677.747 408.959L678.404 408.879L677.957 409.368L678.037 410.025L677.548 409.578L676.891 409.657L677.338 409.169L677.259 408.511Z" fill="#6F6C7D"/>
<path d="M593.718 374.826L594.206 375.273L594.863 375.194L594.416 375.682L594.496 376.339L594.007 375.892L593.35 375.972L593.797 375.483L593.718 374.826Z" fill="#6F6C7D"/>
<path d="M208.817 631.816L209.306 632.263L209.963 632.184L209.516 632.672L209.595 633.33L209.107 632.882L208.449 632.962L208.897 632.474L208.817 631.816Z" fill="#6F6C7D"/>
<path d="M58.4072 510.414L58.8954 510.861L59.5529 510.782L59.1055 511.27L59.185 511.927L58.6967 511.48L58.0393 511.56L58.4866 511.071L58.4072 510.414Z" fill="#6F6C7D"/>
<path d="M494.015 338.728L494.503 339.176L495.16 339.096L494.713 339.584L494.792 340.242L494.304 339.794L493.647 339.874L494.094 339.386L494.015 338.728Z" fill="#6F6C7D"/>
<path d="M301.849 688.285L302.337 688.732L302.994 688.653L302.547 689.141L302.626 689.798L302.138 689.351L301.481 689.431L301.928 688.942L301.849 688.285Z" fill="#6F6C7D"/>
<path d="M551.02 600.504L551.509 600.951L552.166 600.871L551.719 601.36L551.798 602.017L551.31 601.57L550.653 601.649L551.1 601.161L551.02 600.504Z" fill="#6F6C7D"/>
<path d="M635.546 741.101L636.034 741.549L636.692 741.469L636.244 741.957L636.324 742.615L635.835 742.168L635.178 742.247L635.625 741.759L635.546 741.101Z" fill="white"/>
<path d="M684.065 610.849L684.554 611.297L685.211 611.217L684.764 611.705L684.843 612.363L684.355 611.916L683.698 611.995L684.145 611.507L684.065 610.849Z" fill="white"/>
<path d="M618.188 507.912L618.677 508.359L619.334 508.28L618.887 508.768L618.966 509.425L618.478 508.978L617.821 509.058L618.268 508.569L618.188 507.912Z" fill="white"/>
<path d="M415.776 524.172L416.265 524.619L416.922 524.539L416.475 525.028L416.554 525.685L416.066 525.238L415.408 525.317L415.856 524.829L415.776 524.172Z" fill="white"/>
<path d="M160.751 447.799L161.239 448.246L161.897 448.166L161.449 448.655L161.529 449.312L161.04 448.865L160.383 448.944L160.83 448.456L160.751 447.799Z" fill="white"/>
<path d="M56.6572 311.595L57.1454 312.043L57.8029 311.963L57.3555 312.452L57.435 313.109L56.9467 312.662L56.2893 312.741L56.7366 312.253L56.6572 311.595Z" fill="white"/>
<path d="M554.837 465.588L555.325 466.035L555.983 465.955L555.535 466.444L555.615 467.101L555.126 466.654L554.469 466.733L554.916 466.245L554.837 465.588Z" fill="white"/>
<path d="M715.88 385.355L716.368 385.803L717.026 385.723L716.578 386.211L716.658 386.869L716.169 386.421L715.512 386.501L715.959 386.013L715.88 385.355Z" fill="white"/>
<path d="M599.433 408.318L599.921 408.765L600.578 408.686L600.131 409.174L600.21 409.832L599.722 409.384L599.065 409.464L599.512 408.976L599.433 408.318Z" fill="white"/>
<g filter="url(#filter22_f_491_39095)">
<path d="M496.354 496.437L496.843 496.885L497.5 496.805L497.053 497.293L497.132 497.951L496.644 497.503L495.987 497.583L496.434 497.095L496.354 496.437Z" fill="white"/>
</g>
<g filter="url(#filter23_f_491_39095)">
<path d="M208.97 520.863L209.458 521.31L210.115 521.231L209.668 521.719L209.748 522.377L209.259 521.929L208.602 522.009L209.049 521.52L208.97 520.863Z" fill="white"/>
</g>
<g filter="url(#filter24_f_491_39095)">
<path d="M75.1865 612.133L75.6747 612.58L76.3322 612.5L75.8848 612.989L75.9643 613.646L75.476 613.199L74.8186 613.278L75.2659 612.79L75.1865 612.133Z" fill="white"/>
</g>
<g filter="url(#filter25_f_491_39095)">
<path d="M353.845 677.185L354.333 677.633L354.99 677.553L354.543 678.041L354.623 678.699L354.134 678.252L353.477 678.331L353.924 677.843L353.845 677.185Z" fill="white"/>
</g>
<g filter="url(#filter26_f_491_39095)">
<path d="M503.675 667.115L504.163 667.562L504.82 667.483L504.373 667.971L504.453 668.629L503.964 668.181L503.307 668.261L503.754 667.772L503.675 667.115Z" fill="white"/>
</g>
<g filter="url(#filter27_f_491_39095)">
<path d="M262.946 438.605L263.435 439.053L264.092 438.973L263.645 439.461L263.724 440.119L263.236 439.671L262.578 439.751L263.026 439.263L262.946 438.605Z" fill="white"/>
</g>
<g filter="url(#filter28_f_491_39095)">
<path d="M201.182 370.262L202.679 371.634L204.695 371.39L203.324 372.888L203.567 374.904L202.07 373.532L200.054 373.776L201.426 372.278L201.182 370.262Z" fill="#868592"/>
</g>
<g filter="url(#filter29_f_491_39095)">
<path d="M41.6293 454.628L43.1267 455.999L45.1427 455.756L43.7709 457.253L44.0147 459.269L42.5173 457.897L40.5013 458.141L41.873 456.644L41.6293 454.628Z" fill="#6E6B7C"/>
</g>
<g filter="url(#filter30_f_491_39095)">
<path d="M270.266 643.712L271.763 645.083L273.779 644.84L272.408 646.337L272.651 648.353L271.154 646.981L269.138 647.225L270.51 645.728L270.266 643.712Z" fill="#868592"/>
</g>
<g filter="url(#filter31_f_491_39095)">
<path d="M351.762 566.841L353.259 568.212L355.276 567.969L353.904 569.466L354.147 571.482L352.65 570.11L350.634 570.354L352.006 568.857L351.762 566.841Z" fill="#868592"/>
</g>
<g filter="url(#filter32_f_491_39095)">
<path d="M1228.95 685.167L1230.45 686.538L1232.46 686.295L1231.09 687.792L1231.33 689.808L1229.84 688.436L1227.82 688.68L1229.19 687.183L1228.95 685.167Z" fill="white"/>
</g>
<g filter="url(#filter33_f_491_39095)">
<path d="M1160.05 133.374L1161.54 134.746L1163.56 134.502L1162.19 135.999L1162.43 138.015L1160.94 136.643L1158.92 136.887L1160.29 135.39L1160.05 133.374Z" fill="white"/>
</g>
<g filter="url(#filter34_f_491_39095)">
<path d="M556.641 642.155L558.138 643.527L560.154 643.283L558.783 644.78L559.026 646.796L557.529 645.425L555.513 645.668L556.885 644.171L556.641 642.155Z" fill="white"/>
</g>
<g filter="url(#filter35_f_491_39095)">
<path d="M983.207 334.11L984.705 335.482L986.721 335.238L985.349 336.735L985.593 338.751L984.095 337.38L982.079 337.623L983.451 336.126L983.207 334.11Z" fill="white"/>
</g>
<g filter="url(#filter36_f_491_39095)">
<path d="M581.801 518.776L583.299 520.148L585.315 519.904L583.943 521.401L584.187 523.417L582.689 522.046L580.673 522.289L582.045 520.792L581.801 518.776Z" fill="#6E6B7C"/>
</g>
<g filter="url(#filter37_f_491_39095)">
<path d="M456.161 446.622L457.658 447.994L459.674 447.75L458.302 449.247L458.546 451.263L457.049 449.891L455.033 450.135L456.404 448.638L456.161 446.622Z" fill="white"/>
</g>
<g filter="url(#filter38_f_491_39095)">
<path d="M553.557 423.835L555.054 425.206L557.07 424.963L555.699 426.46L555.942 428.476L554.445 427.104L552.429 427.348L553.801 425.851L553.557 423.835Z" fill="white"/>
</g>
</g>
<defs>
<filter id="filter0_f_491_39095" x="375.07" y="232.4" width="3.62109" height="3.61914" filterUnits="userSpaceOnUse" color-interpolation-filters="sRGB">
<feFlood flood-opacity="0" result="BackgroundImageFix"/>
<feBlend mode="normal" in="SourceGraphic" in2="BackgroundImageFix" result="shape"/>
<feGaussianBlur stdDeviation="0.5" result="effect1_foregroundBlur_491_39095"/>
</filter>
<filter id="filter1_f_491_39095" x="952.275" y="144.982" width="3.62109" height="3.61914" filterUnits="userSpaceOnUse" color-interpolation-filters="sRGB">
<feFlood flood-opacity="0" result="BackgroundImageFix"/>
<feBlend mode="normal" in="SourceGraphic" in2="BackgroundImageFix" result="shape"/>
<feGaussianBlur stdDeviation="0.5" result="effect1_foregroundBlur_491_39095"/>
</filter>
<filter id="filter2_f_491_39095" x="189.131" y="452.885" width="3.62109" height="3.61914" filterUnits="userSpaceOnUse" color-interpolation-filters="sRGB">
<feFlood flood-opacity="0" result="BackgroundImageFix"/>
<feBlend mode="normal" in="SourceGraphic" in2="BackgroundImageFix" result="shape"/>
<feGaussianBlur stdDeviation="0.5" result="effect1_foregroundBlur_491_39095"/>
</filter>
<filter id="filter3_f_491_39095" x="159.07" y="612.021" width="3.62109" height="3.61914" filterUnits="userSpaceOnUse" color-interpolation-filters="sRGB">
<feFlood flood-opacity="0" result="BackgroundImageFix"/>
<feBlend mode="normal" in="SourceGraphic" in2="BackgroundImageFix" result="shape"/>
<feGaussianBlur stdDeviation="0.5" result="effect1_foregroundBlur_491_39095"/>
</filter>
<filter id="filter4_f_491_39095" x="402.109" y="460.979" width="3.62109" height="3.61914" filterUnits="userSpaceOnUse" color-interpolation-filters="sRGB">
<feFlood flood-opacity="0" result="BackgroundImageFix"/>
<feBlend mode="normal" in="SourceGraphic" in2="BackgroundImageFix" result="shape"/>
<feGaussianBlur stdDeviation="0.5" result="effect1_foregroundBlur_491_39095"/>
</filter>
<filter id="filter5_f_491_39095" x="1756.27" y="193.82" width="3.62109" height="3.61914" filterUnits="userSpaceOnUse" color-interpolation-filters="sRGB">
<feFlood flood-opacity="0" result="BackgroundImageFix"/>
<feBlend mode="normal" in="SourceGraphic" in2="BackgroundImageFix" result="shape"/>
<feGaussianBlur stdDeviation="0.5" result="effect1_foregroundBlur_491_39095"/>
</filter>
<filter id="filter6_f_491_39095" x="169.135" y="356.551" width="3.62109" height="3.61914" filterUnits="userSpaceOnUse" color-interpolation-filters="sRGB">
<feFlood flood-opacity="0" result="BackgroundImageFix"/>
<feBlend mode="normal" in="SourceGraphic" in2="BackgroundImageFix" result="shape"/>
<feGaussianBlur stdDeviation="0.5" result="effect1_foregroundBlur_491_39095"/>
</filter>
<filter id="filter7_f_491_39095" x="77.1348" y="350.762" width="6.96875" height="6.96875" filterUnits="userSpaceOnUse" color-interpolation-filters="sRGB">
<feFlood flood-opacity="0" result="BackgroundImageFix"/>
<feBlend mode="normal" in="SourceGraphic" in2="BackgroundImageFix" result="shape"/>
<feGaussianBlur stdDeviation="0.5" result="effect1_foregroundBlur_491_39095"/>
</filter>
<filter id="filter8_f_491_39095" x="23.9668" y="523.238" width="6.96875" height="6.96875" filterUnits="userSpaceOnUse" color-interpolation-filters="sRGB">
<feFlood flood-opacity="0" result="BackgroundImageFix"/>
<feBlend mode="normal" in="SourceGraphic" in2="BackgroundImageFix" result="shape"/>
<feGaussianBlur stdDeviation="0.5" result="effect1_foregroundBlur_491_39095"/>
</filter>
<filter id="filter9_f_491_39095" x="319.342" y="495.268" width="6.96875" height="6.96875" filterUnits="userSpaceOnUse" color-interpolation-filters="sRGB">
<feFlood flood-opacity="0" result="BackgroundImageFix"/>
<feBlend mode="normal" in="SourceGraphic" in2="BackgroundImageFix" result="shape"/>
<feGaussianBlur stdDeviation="0.5" result="effect1_foregroundBlur_491_39095"/>
</filter>
<filter id="filter10_f_491_39095" x="1657.8" y="427.355" width="6.96875" height="6.96875" filterUnits="userSpaceOnUse" color-interpolation-filters="sRGB">
<feFlood flood-opacity="0" result="BackgroundImageFix"/>
<feBlend mode="normal" in="SourceGraphic" in2="BackgroundImageFix" result="shape"/>
<feGaussianBlur stdDeviation="0.5" result="effect1_foregroundBlur_491_39095"/>
</filter>
<filter id="filter11_f_491_39095" x="322.609" y="383.287" width="6.96875" height="6.96875" filterUnits="userSpaceOnUse" color-interpolation-filters="sRGB">
<feFlood flood-opacity="0" result="BackgroundImageFix"/>
<feBlend mode="normal" in="SourceGraphic" in2="BackgroundImageFix" result="shape"/>
<feGaussianBlur stdDeviation="0.5" result="effect1_foregroundBlur_491_39095"/>
</filter>
<filter id="filter12_f_491_39095" x="1840.8" y="341.355" width="6.96875" height="6.96875" filterUnits="userSpaceOnUse" color-interpolation-filters="sRGB">
<feFlood flood-opacity="0" result="BackgroundImageFix"/>
<feBlend mode="normal" in="SourceGraphic" in2="BackgroundImageFix" result="shape"/>
<feGaussianBlur stdDeviation="0.5" result="effect1_foregroundBlur_491_39095"/>
</filter>
<filter id="filter13_f_491_39095" x="1617.95" y="161.449" width="6.96875" height="6.96875" filterUnits="userSpaceOnUse" color-interpolation-filters="sRGB">
<feFlood flood-opacity="0" result="BackgroundImageFix"/>
<feBlend mode="normal" in="SourceGraphic" in2="BackgroundImageFix" result="shape"/>
<feGaussianBlur stdDeviation="0.5" result="effect1_foregroundBlur_491_39095"/>
</filter>
<filter id="filter14_f_491_39095" x="1847.8" y="118.355" width="6.96875" height="6.96875" filterUnits="userSpaceOnUse" color-interpolation-filters="sRGB">
<feFlood flood-opacity="0" result="BackgroundImageFix"/>
<feBlend mode="normal" in="SourceGraphic" in2="BackgroundImageFix" result="shape"/>
<feGaussianBlur stdDeviation="0.5" result="effect1_foregroundBlur_491_39095"/>
</filter>
<filter id="filter15_f_491_39095" x="525.5" y="59.6309" width="6.96875" height="6.96875" filterUnits="userSpaceOnUse" color-interpolation-filters="sRGB">
<feFlood flood-opacity="0" result="BackgroundImageFix"/>
<feBlend mode="normal" in="SourceGraphic" in2="BackgroundImageFix" result="shape"/>
<feGaussianBlur stdDeviation="0.5" result="effect1_foregroundBlur_491_39095"/>
</filter>
<filter id="filter16_f_491_39095" x="451.287" y="186.637" width="6.96875" height="6.96875" filterUnits="userSpaceOnUse" color-interpolation-filters="sRGB">
<feFlood flood-opacity="0" result="BackgroundImageFix"/>
<feBlend mode="normal" in="SourceGraphic" in2="BackgroundImageFix" result="shape"/>
<feGaussianBlur stdDeviation="0.5" result="effect1_foregroundBlur_491_39095"/>
</filter>
<filter id="filter17_f_491_39095" x="838.107" y="572.48" width="6.96875" height="6.96875" filterUnits="userSpaceOnUse" color-interpolation-filters="sRGB">
<feFlood flood-opacity="0" result="BackgroundImageFix"/>
<feBlend mode="normal" in="SourceGraphic" in2="BackgroundImageFix" result="shape"/>
<feGaussianBlur stdDeviation="0.5" result="effect1_foregroundBlur_491_39095"/>
</filter>
<filter id="filter18_f_491_39095" x="311.424" y="224.461" width="6.96875" height="6.96875" filterUnits="userSpaceOnUse" color-interpolation-filters="sRGB">
<feFlood flood-opacity="0" result="BackgroundImageFix"/>
<feBlend mode="normal" in="SourceGraphic" in2="BackgroundImageFix" result="shape"/>
<feGaussianBlur stdDeviation="0.5" result="effect1_foregroundBlur_491_39095"/>
</filter>
<filter id="filter19_f_491_39095" x="1775.8" y="520.355" width="6.96875" height="6.96875" filterUnits="userSpaceOnUse" color-interpolation-filters="sRGB">
<feFlood flood-opacity="0" result="BackgroundImageFix"/>
<feBlend mode="normal" in="SourceGraphic" in2="BackgroundImageFix" result="shape"/>
<feGaussianBlur stdDeviation="0.5" result="effect1_foregroundBlur_491_39095"/>
</filter>
<filter id="filter20_f_491_39095" x="364.182" y="139.477" width="6.96875" height="6.96875" filterUnits="userSpaceOnUse" color-interpolation-filters="sRGB">
<feFlood flood-opacity="0" result="BackgroundImageFix"/>
<feBlend mode="normal" in="SourceGraphic" in2="BackgroundImageFix" result="shape"/>
<feGaussianBlur stdDeviation="0.5" result="effect1_foregroundBlur_491_39095"/>
</filter>
<filter id="filter21_f_491_39095" x="1650.8" y="62.3555" width="6.96875" height="6.96875" filterUnits="userSpaceOnUse" color-interpolation-filters="sRGB">
<feFlood flood-opacity="0" result="BackgroundImageFix"/>
<feBlend mode="normal" in="SourceGraphic" in2="BackgroundImageFix" result="shape"/>
<feGaussianBlur stdDeviation="0.5" result="effect1_foregroundBlur_491_39095"/>
</filter>
<filter id="filter22_f_491_39095" x="494.986" y="495.438" width="3.51367" height="3.51367" filterUnits="userSpaceOnUse" color-interpolation-filters="sRGB">
<feFlood flood-opacity="0" result="BackgroundImageFix"/>
<feBlend mode="normal" in="SourceGraphic" in2="BackgroundImageFix" result="shape"/>
<feGaussianBlur stdDeviation="0.5" result="effect1_foregroundBlur_491_39095"/>
</filter>
<filter id="filter23_f_491_39095" x="207.602" y="519.863" width="3.51367" height="3.51367" filterUnits="userSpaceOnUse" color-interpolation-filters="sRGB">
<feFlood flood-opacity="0" result="BackgroundImageFix"/>
<feBlend mode="normal" in="SourceGraphic" in2="BackgroundImageFix" result="shape"/>
<feGaussianBlur stdDeviation="0.5" result="effect1_foregroundBlur_491_39095"/>
</filter>
<filter id="filter24_f_491_39095" x="73.8184" y="611.133" width="3.51367" height="3.51367" filterUnits="userSpaceOnUse" color-interpolation-filters="sRGB">
<feFlood flood-opacity="0" result="BackgroundImageFix"/>
<feBlend mode="normal" in="SourceGraphic" in2="BackgroundImageFix" result="shape"/>
<feGaussianBlur stdDeviation="0.5" result="effect1_foregroundBlur_491_39095"/>
</filter>
<filter id="filter25_f_491_39095" x="352.477" y="676.186" width="3.51367" height="3.51367" filterUnits="userSpaceOnUse" color-interpolation-filters="sRGB">
<feFlood flood-opacity="0" result="BackgroundImageFix"/>
<feBlend mode="normal" in="SourceGraphic" in2="BackgroundImageFix" result="shape"/>
<feGaussianBlur stdDeviation="0.5" result="effect1_foregroundBlur_491_39095"/>
</filter>
<filter id="filter26_f_491_39095" x="502.307" y="666.115" width="3.51367" height="3.51367" filterUnits="userSpaceOnUse" color-interpolation-filters="sRGB">
<feFlood flood-opacity="0" result="BackgroundImageFix"/>
<feBlend mode="normal" in="SourceGraphic" in2="BackgroundImageFix" result="shape"/>
<feGaussianBlur stdDeviation="0.5" result="effect1_foregroundBlur_491_39095"/>
</filter>
<filter id="filter27_f_491_39095" x="261.578" y="437.605" width="3.51367" height="3.51367" filterUnits="userSpaceOnUse" color-interpolation-filters="sRGB">
<feFlood flood-opacity="0" result="BackgroundImageFix"/>
<feBlend mode="normal" in="SourceGraphic" in2="BackgroundImageFix" result="shape"/>
<feGaussianBlur stdDeviation="0.5" result="effect1_foregroundBlur_491_39095"/>
</filter>
<filter id="filter28_f_491_39095" x="199.055" y="369.262" width="6.64062" height="6.64258" filterUnits="userSpaceOnUse" color-interpolation-filters="sRGB">
<feFlood flood-opacity="0" result="BackgroundImageFix"/>
<feBlend mode="normal" in="SourceGraphic" in2="BackgroundImageFix" result="shape"/>
<feGaussianBlur stdDeviation="0.5" result="effect1_foregroundBlur_491_39095"/>
</filter>
<filter id="filter29_f_491_39095" x="39.502" y="453.627" width="6.64062" height="6.64258" filterUnits="userSpaceOnUse" color-interpolation-filters="sRGB">
<feFlood flood-opacity="0" result="BackgroundImageFix"/>
<feBlend mode="normal" in="SourceGraphic" in2="BackgroundImageFix" result="shape"/>
<feGaussianBlur stdDeviation="0.5" result="effect1_foregroundBlur_491_39095"/>
</filter>
<filter id="filter30_f_491_39095" x="268.139" y="642.711" width="6.64062" height="6.64258" filterUnits="userSpaceOnUse" color-interpolation-filters="sRGB">
<feFlood flood-opacity="0" result="BackgroundImageFix"/>
<feBlend mode="normal" in="SourceGraphic" in2="BackgroundImageFix" result="shape"/>
<feGaussianBlur stdDeviation="0.5" result="effect1_foregroundBlur_491_39095"/>
</filter>
<filter id="filter31_f_491_39095" x="349.635" y="565.84" width="6.64062" height="6.64258" filterUnits="userSpaceOnUse" color-interpolation-filters="sRGB">
<feFlood flood-opacity="0" result="BackgroundImageFix"/>
<feBlend mode="normal" in="SourceGraphic" in2="BackgroundImageFix" result="shape"/>
<feGaussianBlur stdDeviation="0.5" result="effect1_foregroundBlur_491_39095"/>
</filter>
<filter id="filter32_f_491_39095" x="1226.82" y="684.166" width="6.64062" height="6.64258" filterUnits="userSpaceOnUse" color-interpolation-filters="sRGB">
<feFlood flood-opacity="0" result="BackgroundImageFix"/>
<feBlend mode="normal" in="SourceGraphic" in2="BackgroundImageFix" result="shape"/>
<feGaussianBlur stdDeviation="0.5" result="effect1_foregroundBlur_491_39095"/>
</filter>
<filter id="filter33_f_491_39095" x="1157.92" y="132.373" width="6.64062" height="6.64258" filterUnits="userSpaceOnUse" color-interpolation-filters="sRGB">
<feFlood flood-opacity="0" result="BackgroundImageFix"/>
<feBlend mode="normal" in="SourceGraphic" in2="BackgroundImageFix" result="shape"/>
<feGaussianBlur stdDeviation="0.5" result="effect1_foregroundBlur_491_39095"/>
</filter>
<filter id="filter34_f_491_39095" x="554.514" y="641.154" width="6.64062" height="6.64258" filterUnits="userSpaceOnUse" color-interpolation-filters="sRGB">
<feFlood flood-opacity="0" result="BackgroundImageFix"/>
<feBlend mode="normal" in="SourceGraphic" in2="BackgroundImageFix" result="shape"/>
<feGaussianBlur stdDeviation="0.5" result="effect1_foregroundBlur_491_39095"/>
</filter>
<filter id="filter35_f_491_39095" x="981.08" y="333.109" width="6.64062" height="6.64258" filterUnits="userSpaceOnUse" color-interpolation-filters="sRGB">
<feFlood flood-opacity="0" result="BackgroundImageFix"/>
<feBlend mode="normal" in="SourceGraphic" in2="BackgroundImageFix" result="shape"/>
<feGaussianBlur stdDeviation="0.5" result="effect1_foregroundBlur_491_39095"/>
</filter>
<filter id="filter36_f_491_39095" x="579.674" y="517.775" width="6.64062" height="6.64258" filterUnits="userSpaceOnUse" color-interpolation-filters="sRGB">
<feFlood flood-opacity="0" result="BackgroundImageFix"/>
<feBlend mode="normal" in="SourceGraphic" in2="BackgroundImageFix" result="shape"/>
<feGaussianBlur stdDeviation="0.5" result="effect1_foregroundBlur_491_39095"/>
</filter>
<filter id="filter37_f_491_39095" x="454.033" y="445.621" width="6.64062" height="6.64258" filterUnits="userSpaceOnUse" color-interpolation-filters="sRGB">
<feFlood flood-opacity="0" result="BackgroundImageFix"/>
<feBlend mode="normal" in="SourceGraphic" in2="BackgroundImageFix" result="shape"/>
<feGaussianBlur stdDeviation="0.5" result="effect1_foregroundBlur_491_39095"/>
</filter>
<filter id="filter38_f_491_39095" x="551.43" y="422.834" width="6.64062" height="6.64258" filterUnits="userSpaceOnUse" color-interpolation-filters="sRGB">
<feFlood flood-opacity="0" result="BackgroundImageFix"/>
<feBlend mode="normal" in="SourceGraphic" in2="BackgroundImageFix" result="shape"/>
<feGaussianBlur stdDeviation="0.5" result="effect1_foregroundBlur_491_39095"/>
</filter>
</defs>
</svg>
