<svg width="24" height="24" viewBox="0 0 24 24" fill="none" xmlns="http://www.w3.org/2000/svg">
<path d="M6.8115 7.0077C5.66404 8.19866 4.96155 9.74834 4.82211 11.3962C4.68268 13.0442 5.11479 14.6898 6.04583 16.0567C6.97687 17.4235 8.35006 18.4282 9.9346 18.9018C11.5191 19.3754 13.2184 19.289 14.7468 18.6573C14.8503 17.9823 14.6235 17.3343 14.5308 17.1075C14.3238 16.6035 13.6416 15.7422 12.5031 14.5479C12.1989 14.2284 12.2187 13.9827 12.3276 13.2546L12.3393 13.1727C12.4131 12.6741 12.5373 12.3789 14.2158 12.1125C15.069 11.9775 15.2931 12.3177 15.6036 12.7902L15.708 12.945C16.0032 13.377 16.2219 13.476 16.5522 13.6254C16.7007 13.6929 16.8852 13.7784 17.1327 13.9179C17.7195 14.2536 17.7195 14.6325 17.7195 15.4623V15.5568C17.7195 15.9087 17.6853 16.2183 17.6313 16.4874C18.3219 15.6206 18.8032 14.6062 19.0376 13.523C19.2721 12.4398 19.2533 11.3171 18.9829 10.2423C18.7125 9.16756 18.1977 8.16969 17.4786 7.32642C16.7594 6.48316 15.8554 5.81723 14.8368 5.3805C14.3391 5.7162 13.656 6.1923 13.4175 6.519C13.296 6.6855 13.1232 7.5378 12.5625 7.608C12.4167 7.626 12.2196 7.6134 12.0108 7.5999C11.451 7.5639 10.686 7.5144 10.4412 8.1795C10.2855 8.6007 10.2585 9.7455 10.7616 10.3395C10.8426 10.434 10.8579 10.6095 10.803 10.8066C10.731 11.0649 10.5861 11.2224 10.5402 11.2548C10.4538 11.2044 10.281 11.0037 10.1631 10.8678C9.8814 10.5393 9.5286 10.1298 9.0732 10.0038C8.9076 9.9579 8.7258 9.9201 8.5485 9.8823C8.0544 9.7788 7.4955 9.6609 7.365 9.3837C7.2696 9.1803 7.2705 8.9004 7.2705 8.6052C7.2705 8.2299 7.2705 7.806 7.0869 7.3947C7.02307 7.24792 6.92927 7.1161 6.8115 7.0077ZM12 21C7.0293 21 3 16.9707 3 12C3 7.0293 7.0293 3 12 3C16.9707 3 21 7.0293 21 12C21 16.9707 16.9707 21 12 21Z" fill="#171717"/>
</svg>
