<svg width="15" height="16" viewBox="0 0 15 16" fill="none" xmlns="http://www.w3.org/2000/svg">
<path d="M6.91478 0.0522451C6.82181 0.0851755 6.7056 0.137864 6.65912 0.167501C6.58607 0.213604 5.63978 1.02369 5.37084 1.26737L5.28119 1.3497L4.53412 1.28055C3.57123 1.19163 3.33548 1.19163 3.09974 1.28055C2.864 1.36617 2.58177 1.62302 2.4722 1.84695C2.4224 1.94574 2.30951 2.36395 2.19994 2.84144C2.08373 3.34528 1.99076 3.68446 1.95756 3.72068C1.92767 3.75032 1.58236 3.96107 1.19056 4.19159C0.798766 4.41881 0.420251 4.66249 0.350524 4.72835C0.0815786 4.98521 -0.0611949 5.46599 0.0251333 5.80847C0.0483755 5.89079 0.214391 6.30242 0.393688 6.72064C0.576305 7.13885 0.725719 7.50438 0.725719 7.53401C0.725719 7.56365 0.576305 7.92918 0.393688 8.34739C0.214391 8.76561 0.0483755 9.17724 0.0251333 9.25956C-0.0611949 9.60533 0.0882192 10.1026 0.353844 10.3397C0.423571 10.4022 0.802086 10.6426 1.19388 10.8764C1.58568 11.107 1.92767 11.321 1.95756 11.3506C1.99076 11.3836 2.08705 11.7392 2.20326 12.2431C2.30619 12.7041 2.42904 13.1486 2.46888 13.231C2.56849 13.4252 2.78763 13.6426 2.98685 13.7414C3.14955 13.8237 3.47494 13.8929 3.61439 13.8698C3.66088 13.8632 4.05267 13.827 4.48431 13.7875L5.27123 13.7183L5.94525 14.3012C6.76205 15.0092 6.84838 15.0586 7.29994 15.0586C7.75482 15.0586 7.84447 15.0092 8.66127 14.3012L9.33197 13.7183L10.1189 13.7875C10.5505 13.827 10.939 13.8632 10.9855 13.8698C11.1249 13.8929 11.4503 13.8237 11.613 13.7414C11.8023 13.6492 12.0281 13.4285 12.1244 13.2507C12.1609 13.175 12.287 12.7238 12.3966 12.2431L12.5992 11.3704L13.3429 10.9225C13.7513 10.6789 14.1497 10.422 14.2294 10.3529C14.3124 10.2804 14.412 10.1454 14.4785 10.0104C14.5781 9.81279 14.588 9.7634 14.588 9.50983V9.22993L14.2294 8.40667C14.0335 7.95223 13.8742 7.56036 13.8742 7.53072C13.8742 7.50438 14.0236 7.13885 14.2062 6.72064C14.3855 6.30242 14.5515 5.89079 14.5747 5.80847C14.6279 5.601 14.5913 5.29475 14.4917 5.08071C14.3523 4.77775 14.2128 4.6592 13.4259 4.20147C13.0242 3.96437 12.6722 3.74703 12.6423 3.71739C12.6091 3.68446 12.5195 3.36504 12.4132 2.89084C12.1874 1.88976 12.1542 1.80414 11.9019 1.55387C11.53 1.18834 11.3607 1.162 10.0724 1.28055L9.32865 1.3497L8.65463 0.76354C7.87435 0.0884686 7.75482 0.0193148 7.34974 0.00284958C7.15384 -0.00702953 7.04095 0.00614262 6.91478 0.0522451ZM10.3679 5.30463C10.4376 5.34415 10.524 5.42977 10.5572 5.49234C10.6369 5.64052 10.6369 5.87433 10.5605 6.00276C10.4542 6.17399 6.94135 9.72059 6.81185 9.78316C6.72552 9.82926 6.64584 9.84243 6.53295 9.83255C6.39017 9.81609 6.27396 9.74364 5.23138 9.006C3.99623 8.13335 3.97963 8.11688 3.97963 7.82051C3.97963 7.62951 4.08588 7.47474 4.28509 7.37595C4.55736 7.24093 4.60052 7.26069 5.61654 7.98187L6.51635 8.62401L6.64584 8.49887C6.71556 8.42972 7.44603 7.68879 8.27279 6.85236C9.09623 6.01593 9.81674 5.30793 9.86986 5.28158C10.0193 5.20913 10.2185 5.21901 10.3679 5.30463Z" fill="#732CFF"/>
</svg>
