<svg width="1910" height="950" viewBox="0 0 1910 950" fill="none" xmlns="http://www.w3.org/2000/svg">
<path opacity="0.35" d="M2035 -47.2392H-3.33786e-06M2035 566.468H-3.33786e-06M2035 1180.17H-3.33786e-06M2035 259.614H-3.33786e-06M2035 873.321H-3.33786e-06M2035 106.187H-3.33786e-06M2035 719.894H-3.33786e-06M2035 1333.6H-3.33786e-06M2035 413.041H-3.33786e-06M2035 1026.75H-3.33786e-06M1937.89 -141L1937.89 1441M1416.09 -141L1416.09 1441M894.298 -141V1441M372.504 -141V1441M1676.99 -141L1676.99 1441M1155.2 -141L1155.2 1441M633.401 -141L633.401 1441M111.606 -141V1441M1807.44 -141L1807.44 1441M1285.64 -141L1285.64 1441M763.85 -141L763.85 1441M242.055 -141V1441M1546.54 -141L1546.54 1441M1024.75 -141L1024.75 1441M502.952 -141V1441" stroke="url(#paint0_radial_452_32325)"/>
<defs>
<radialGradient id="paint0_radial_452_32325" cx="0" cy="0" r="1" gradientUnits="userSpaceOnUse" gradientTransform="translate(0.000304675 633.035) rotate(-0.365764) scale(1993.17 2566.43)">
<stop stop-color="#F5F4FF" stop-opacity="0.45"/>
<stop offset="0.472635" stop-color="white" stop-opacity="0"/>
<stop offset="1" stop-color="#F5F4FF" stop-opacity="0.45"/>
</radialGradient>
</defs>
</svg>
