<svg width="93" height="19" viewBox="0 0 93 19" fill="none" xmlns="http://www.w3.org/2000/svg">
<path d="M9.52953 1.81458C9.64902 1.44552 10.1712 1.44552 10.2906 1.81458L11.8687 6.68861C11.9221 6.85363 12.0758 6.96541 12.2492 6.96541H17.3588C17.7459 6.96541 17.9073 7.46052 17.5945 7.68861L13.4583 10.7045C13.3186 10.8064 13.2601 10.9865 13.3134 11.1509L14.8927 16.029C15.0121 16.3977 14.5897 16.7038 14.2765 16.4754L10.1457 13.4635C10.0053 13.3611 9.81485 13.3611 9.67442 13.4635L5.54371 16.4754C5.2305 16.7038 4.8081 16.3977 4.92749 16.029L6.5068 11.1509C6.56005 10.9865 6.50161 10.8064 6.36191 10.7045L2.2257 7.68861C1.91289 7.46052 2.07423 6.96541 2.46137 6.96541H7.57097C7.74441 6.96541 7.89809 6.85363 7.95152 6.68861L9.52953 1.81458Z" fill="#FFB31F"/>
<path d="M27.7754 1.81458C27.8949 1.44552 28.417 1.44552 28.5365 1.81458L30.1145 6.68861C30.1679 6.85363 30.3216 6.96541 30.4951 6.96541H35.6046C35.9918 6.96541 36.1531 7.46052 35.8403 7.68861L31.7041 10.7045C31.5644 10.8064 31.506 10.9865 31.5592 11.1509L33.1385 16.029C33.2579 16.3977 32.8355 16.7038 32.5223 16.4754L28.3916 13.4635C28.2512 13.3611 28.0607 13.3611 27.9203 13.4635L23.7896 16.4754C23.4764 16.7038 23.0539 16.3977 23.1733 16.029L24.7527 11.1509C24.8059 10.9865 24.7475 10.8064 24.6078 10.7045L20.4716 7.68861C20.1587 7.46052 20.3201 6.96541 20.7072 6.96541H25.8168C25.9903 6.96541 26.1439 6.85363 26.1974 6.68861L27.7754 1.81458Z" fill="#FFB31F"/>
<path d="M46.0201 1.81458C46.1396 1.44552 46.6618 1.44552 46.7812 1.81458L48.3593 6.68861C48.4127 6.85363 48.5664 6.96541 48.7398 6.96541H53.8494C54.2365 6.96541 54.3979 7.46052 54.0851 7.68861L49.9489 10.7045C49.8092 10.8064 49.7507 10.9865 49.804 11.1509L51.3833 16.029C51.5027 16.3977 51.0803 16.7038 50.7671 16.4754L46.6363 13.4635C46.4959 13.3611 46.3054 13.3611 46.165 13.4635L42.0343 16.4754C41.7211 16.7038 41.2987 16.3977 41.4181 16.029L42.9974 11.1509C43.0507 10.9865 42.9922 10.8064 42.8525 10.7045L38.7163 7.68861C38.4035 7.46052 38.5648 6.96541 38.952 6.96541H44.0616C44.235 6.96541 44.3887 6.85363 44.4421 6.68861L46.0201 1.81458Z" fill="#FFB31F"/>
<path d="M64.2661 1.81458C64.3856 1.44552 64.9077 1.44552 65.0272 1.81458L66.6052 6.68861C66.6586 6.85363 66.8123 6.96541 66.9858 6.96541H72.0954C72.4825 6.96541 72.6439 7.46052 72.331 7.68861L68.1948 10.7045C68.0551 10.8064 67.9967 10.9865 68.0499 11.1509L69.6292 16.029C69.7486 16.3977 69.3262 16.7038 69.013 16.4754L64.8823 13.4635C64.7419 13.3611 64.5514 13.3611 64.411 13.4635L60.2803 16.4754C59.9671 16.7038 59.5447 16.3977 59.6641 16.029L61.2434 11.1509C61.2966 10.9865 61.2382 10.8064 61.0985 10.7045L56.9623 7.68861C56.6495 7.46052 56.8108 6.96541 57.1979 6.96541H62.3075C62.481 6.96541 62.6347 6.85363 62.6881 6.68861L64.2661 1.81458Z" fill="#FFB31F"/>
<path d="M82.5122 1.81458C82.6317 1.44552 83.1538 1.44552 83.2733 1.81458L84.8513 6.68861C84.9047 6.85363 85.0584 6.96541 85.2319 6.96541H90.3415C90.7286 6.96541 90.8899 7.46052 90.5771 7.68861L86.4409 10.7045C86.3012 10.8064 86.2428 10.9865 86.296 11.1509L87.8753 16.029C87.9947 16.3977 87.5723 16.7038 87.2591 16.4754L83.1284 13.4635C82.988 13.3611 82.7975 13.3611 82.6571 13.4635L78.5264 16.4754C78.2132 16.7038 77.7908 16.3977 77.9102 16.029L79.4895 11.1509C79.5427 10.9865 79.4843 10.8064 79.3446 10.7045L75.2084 7.68861C74.8956 7.46052 75.0569 6.96541 75.444 6.96541H80.5536C80.7271 6.96541 80.8808 6.85363 80.9342 6.68861L82.5122 1.81458Z" fill="#CBCBCB"/>
</svg>
