<?xml version="1.0" encoding="UTF-8"?>
<svg id="Layer_1" xmlns="http://www.w3.org/2000/svg" xmlns:xlink="http://www.w3.org/1999/xlink" version="1.1" viewBox="0 0 482 548">
  <!-- Generator: Adobe Illustrator 29.8.1, SVG Export Plug-In . SVG Version: 2.1.1 Build 2)  -->
  <defs>
    <style>
      .st0, .st1, .st2, .st3 {
        fill: none;
      }

      .st4 {
        mask: url(#mask);
      }

      .st1 {
        stroke: #abb1bd;
        stroke-linecap: square;
        stroke-width: 1.5px;
      }

      .st5 {
        fill: url(#linear-gradient1);
      }

      .st6 {
        fill: #acabab;
        fill-opacity: .1;
        stroke: url(#linear-gradient);
      }

      .st7 {
        fill: #d9d9d9;
      }

      .st8 {
        fill: #f38ab2;
      }

      .st9 {
        fill: #fff;
      }

      .st10 {
        fill: #26273e;
        stroke-width: 5px;
      }

      .st10, .st11, .st3 {
        stroke: #fff;
      }

      .st2 {
        isolation: isolate;
        opacity: .4;
        stroke: #e4deff;
        stroke-width: .5px;
      }

      .st12 {
        fill: #c9e80f;
        stroke: #f38ab2;
      }

      .st11 {
        fill: #5840ed;
      }
    </style>
    <clipPath id="clippath">
      <rect class="st0" x=".5" y=".5" width="481" height="547" rx="19.5" ry="19.5"/>
    </clipPath>
    <linearGradient id="linear-gradient" x1="240.3" y1="459.6" x2="241.4" y2="174.9" gradientTransform="translate(0 550) scale(1 -1)" gradientUnits="userSpaceOnUse">
      <stop offset="0" stop-color="#fff"/>
      <stop offset="1" stop-color="#797f9c"/>
    </linearGradient>
    <mask id="mask" x="56.5" y="210.5" width="10" height="9.7" maskUnits="userSpaceOnUse">
      <g id="path-24-inside-1_2016_45230">
        <path class="st9" d="M64,215.4c0,1.3-1.1,2.4-2.5,2.4s-2.5-1.1-2.5-2.4,1.1-2.4,2.5-2.4,2.5,1.1,2.5,2.4ZM60.2,215.4c0,.7.6,1.2,1.3,1.2s1.3-.6,1.3-1.2-.6-1.2-1.3-1.2-1.3.6-1.3,1.2Z"/>
      </g>
    </mask>
    <linearGradient id="linear-gradient1" x1="249.3" y1="192" x2="252.8" y2="60" gradientTransform="translate(0 550) scale(1 -1)" gradientUnits="userSpaceOnUse">
      <stop offset="0" stop-color="#fff" stop-opacity=".4"/>
      <stop offset="1" stop-color="#fff" stop-opacity="0"/>
    </linearGradient>
  </defs>
  <path class="st6" d="M20,.5h442c10.8,0,19.5,8.7,19.5,19.5v508c0,10.8-8.7,19.5-19.5,19.5H20c-10.8,0-19.5-8.7-19.5-19.5V20C.5,9.2,9.2.5,20,.5Z"/>
  <path class="st9" d="M55.7,77.5v-25.5h1.6v25.5h-1.6ZM56.5,75.3c-1.5,0-2.8-.2-4-.7-1.1-.5-2-1.2-2.6-2.1-.6-.9-1-2-1.1-3.2h3.1c0,.7.3,1.4.7,1.8.4.5,1,.8,1.6,1.1.7.2,1.4.4,2.2.4s1.6-.1,2.3-.4c.7-.3,1.2-.7,1.6-1.1.4-.5.6-1.1.6-1.8s-.2-1.1-.5-1.5c-.3-.4-.8-.7-1.4-.9-.6-.3-1.2-.5-2-.7l-2.4-.7c-1.6-.4-2.9-1.1-3.9-2-.9-.9-1.4-2-1.4-3.4s.3-2.2.9-3.1c.6-.9,1.5-1.6,2.6-2,1.1-.5,2.3-.7,3.7-.7s2.6.2,3.7.7c1.1.5,1.9,1.1,2.5,2,.6.8.9,1.8,1,2.9h-3c-.1-.9-.5-1.7-1.3-2.2-.8-.5-1.7-.8-2.9-.8s-1.5.1-2.2.4c-.6.3-1.1.6-1.4,1.1-.3.5-.5,1-.5,1.6s.2,1.2.6,1.6c.4.4.9.7,1.4,1,.6.2,1.1.4,1.7.6l2,.5c.6.2,1.3.4,2,.7.7.3,1.3.6,1.9,1.1.6.4,1.1,1,1.4,1.6.4.6.5,1.4.5,2.4s-.3,2.2-.9,3.1c-.6.9-1.4,1.6-2.6,2.1-1.1.5-2.5.8-4.1.8ZM66.2,75v-2.2l6.9-7.2c.7-.8,1.3-1.4,1.8-2,.5-.6.8-1.2,1.1-1.7.2-.5.4-1.1.4-1.7s-.2-1.3-.5-1.8c-.3-.5-.8-.9-1.3-1.1-.5-.3-1.2-.4-1.9-.4s-1.4.2-1.9.5c-.5.3-1,.7-1.3,1.3-.3.5-.4,1.2-.4,1.9h-2.9c0-1.2.3-2.3.8-3.3.6-.9,1.4-1.6,2.4-2.2,1-.5,2.1-.8,3.4-.8s2.4.3,3.4.8c1,.5,1.7,1.2,2.3,2.1.5.9.8,1.8.8,2.9s-.1,1.5-.4,2.2c-.3.7-.8,1.5-1.5,2.4-.7.9-1.7,2-2.9,3.2l-4,4.2v.2h9.2v2.6h-13.4ZM89.3,75.3c-1.6,0-2.9-.4-4-1.2-1.1-.8-2-2-2.6-3.6-.6-1.6-.9-3.4-.9-5.7s.3-4.1.9-5.6c.6-1.6,1.4-2.8,2.6-3.6,1.1-.8,2.5-1.2,4-1.2s2.9.4,4,1.2c1.1.8,2,2,2.6,3.6.6,1.6.9,3.4.9,5.6s-.3,4.1-.9,5.7c-.6,1.5-1.4,2.7-2.5,3.6-1.1.8-2.5,1.2-4,1.2ZM89.3,72.6c1,0,1.8-.3,2.4-.9.7-.6,1.2-1.5,1.5-2.7.3-1.2.5-2.6.5-4.2s-.2-3.1-.5-4.2c-.3-1.2-.8-2.1-1.5-2.7-.7-.6-1.5-.9-2.4-.9-1.4,0-2.5.7-3.3,2.1-.8,1.4-1.1,3.3-1.1,5.8s.2,3.1.5,4.2c.3,1.2.8,2.1,1.5,2.7.7.6,1.5.9,2.4.9ZM98.1,80l1.2-8h3.2l-2.3,8h-2.1ZM112.4,75.3c-1.6,0-2.9-.4-4-1.2-1.1-.8-2-2-2.6-3.6-.6-1.6-.9-3.4-.9-5.7s.3-4.1.9-5.6c.6-1.6,1.4-2.8,2.6-3.6,1.1-.8,2.5-1.2,4-1.2s2.9.4,4,1.2c1.1.8,2,2,2.6,3.6.6,1.6.9,3.4.9,5.6s-.3,4.1-.9,5.7c-.6,1.5-1.4,2.7-2.5,3.6s-2.5,1.2-4,1.2ZM112.4,72.6c1,0,1.8-.3,2.4-.9.7-.6,1.2-1.5,1.5-2.7.3-1.2.5-2.6.5-4.2s-.2-3.1-.5-4.2c-.3-1.2-.8-2.1-1.5-2.7-.7-.6-1.5-.9-2.4-.9-1.4,0-2.5.7-3.3,2.1-.8,1.4-1.1,3.3-1.1,5.8s.2,3.1.5,4.2c.3,1.2.8,2.1,1.5,2.7.7.6,1.5.9,2.4.9ZM129.3,75.3c-1.6,0-2.9-.4-4-1.2-1.1-.8-2-2-2.6-3.6-.6-1.6-.9-3.4-.9-5.7s.3-4.1.9-5.6c.6-1.6,1.4-2.8,2.6-3.6,1.1-.8,2.5-1.2,4-1.2s2.9.4,4,1.2c1.1.8,2,2,2.6,3.6.6,1.6.9,3.4.9,5.6s-.3,4.1-.9,5.7c-.6,1.5-1.4,2.7-2.5,3.6s-2.5,1.2-4,1.2ZM129.3,72.6c1,0,1.8-.3,2.4-.9.7-.6,1.2-1.5,1.5-2.7.3-1.2.5-2.6.5-4.2s-.2-3.1-.5-4.2c-.3-1.2-.8-2.1-1.5-2.7-.7-.6-1.5-.9-2.4-.9-1.4,0-2.5.7-3.3,2.1-.8,1.4-1.1,3.3-1.1,5.8s.2,3.1.5,4.2c.3,1.2.8,2.1,1.5,2.7.7.6,1.5.9,2.4.9ZM146.2,75.3c-1.6,0-2.9-.4-4-1.2-1.1-.8-2-2-2.6-3.6-.6-1.6-.9-3.4-.9-5.7s.3-4.1.9-5.6c.6-1.6,1.4-2.8,2.6-3.6,1.1-.8,2.5-1.2,4-1.2s2.9.4,4,1.2c1.1.8,2,2,2.6,3.6.6,1.6.9,3.4.9,5.6s-.3,4.1-.9,5.7c-.6,1.5-1.4,2.7-2.5,3.6s-2.5,1.2-4,1.2ZM146.2,72.6c1,0,1.8-.3,2.4-.9.7-.6,1.2-1.5,1.5-2.7.3-1.2.5-2.6.5-4.2s-.2-3.1-.5-4.2c-.3-1.2-.8-2.1-1.5-2.7-.7-.6-1.5-.9-2.4-.9-1.4,0-2.5.7-3.3,2.1-.8,1.4-1.1,3.3-1.1,5.8s.2,3.1.5,4.2c.3,1.2.8,2.1,1.5,2.7.7.6,1.5.9,2.4.9Z"/>
  <path class="st9" d="M354.4,72v-12.6h1.8l4.4,8.8,4.5-8.8h1.8v12.6h-1.5v-9.9l-4.2,8.1h-1.1l-4.1-8.1v9.9h-1.5ZM372.2,72.2c-.7,0-1.3-.1-1.8-.4-.5-.3-.9-.6-1.1-1-.2-.4-.4-.9-.4-1.4s.2-1.1.5-1.5c.3-.4.8-.8,1.4-1,.6-.2,1.3-.3,2.1-.3h2.4c0-.6,0-1-.3-1.4-.2-.4-.4-.7-.8-.9-.3-.2-.7-.3-1.2-.3s-1.1.1-1.5.4c-.4.3-.7.7-.8,1.3h-1.5c0-.6.3-1.2.6-1.6.4-.4.8-.8,1.4-1,.6-.2,1.2-.4,1.8-.4s1.5.2,2.1.5c.6.3,1,.7,1.3,1.3.3.5.4,1.2.4,1.9v5.6h-1.4v-1.6c-.2.3-.4.5-.6.7-.2.2-.4.4-.6.6-.3.2-.5.3-.9.4-.3,0-.7.1-1.1.1ZM372.5,70.9c.4,0,.8,0,1.1-.3.3-.2.6-.4.9-.7.2-.3.4-.7.5-1,.1-.4.2-.8.2-1.2h0c0,0-2.3,0-2.3,0-.6,0-1.1,0-1.4.2-.4.1-.6.3-.8.6-.2.2-.2.5-.2.8s0,.6.2.8c.2.2.4.4.7.6.3.1.7.2,1.1.2ZM379.7,76l2.2-5h-.5l-3.6-8.1h1.6l3,6.9,3.1-6.9h1.6l-5.8,13h-1.6ZM393.1,72v-1.1c.9-.7,1.7-1.4,2.4-2,.8-.7,1.5-1.4,2.1-2,.6-.7,1.1-1.4,1.4-2,.3-.6.5-1.3.5-1.9s0-.9-.2-1.2c-.2-.4-.4-.7-.8-.9-.3-.2-.8-.4-1.4-.4s-1,.1-1.4.4c-.4.2-.7.6-.8,1-.2.4-.3.8-.3,1.3h-1.5c0-.8.2-1.5.5-2.1.3-.6.8-1.1,1.4-1.4.6-.3,1.3-.5,2.1-.5s1.4.1,2,.4c.6.3,1,.7,1.4,1.2.3.6.5,1.2.5,2.1s-.1,1.2-.4,1.8c-.2.6-.6,1.2-1,1.7-.4.6-.9,1.1-1.4,1.6-.5.5-1,1-1.5,1.5-.5.5-1,.9-1.5,1.2h6.1v1.3h-8.4ZM408.2,72.2c-1.1,0-2.1-.3-2.9-.8-.8-.6-1.4-1.3-1.8-2.3-.4-1-.6-2.1-.6-3.4s.2-2.4.6-3.4c.4-1,1-1.7,1.8-2.3.8-.6,1.8-.8,2.9-.8s2,.3,2.8.8c.8.5,1.4,1.3,1.8,2.3.4,1,.6,2.1.6,3.4s-.2,2.4-.6,3.4c-.4,1-1,1.7-1.8,2.3-.8.5-1.7.8-2.8.8ZM408.2,70.9c.7,0,1.4-.2,1.9-.6.6-.4,1-1,1.3-1.8.3-.8.5-1.7.5-2.8s-.2-2-.5-2.8c-.3-.8-.8-1.4-1.3-1.8-.6-.4-1.2-.6-1.9-.6s-1.4.2-1.9.6c-.6.4-1,1-1.3,1.8-.3.8-.5,1.7-.5,2.8s.2,2,.5,2.8c.3.8.8,1.4,1.3,1.8.6.4,1.2.6,1.9.6ZM415.2,72v-1.1c.9-.7,1.7-1.4,2.4-2,.8-.7,1.5-1.4,2.1-2,.6-.7,1.1-1.4,1.4-2,.3-.6.5-1.3.5-1.9s0-.9-.2-1.2c-.2-.4-.4-.7-.8-.9-.3-.2-.8-.4-1.4-.4s-1,.1-1.4.4c-.4.2-.7.6-.8,1-.2.4-.3.8-.3,1.3h-1.5c0-.8.2-1.5.5-2.1.3-.6.8-1.1,1.4-1.4.6-.3,1.3-.5,2.1-.5s1.4.1,2,.4c.6.3,1,.7,1.4,1.2.3.6.5,1.2.5,2.1s-.1,1.2-.4,1.8c-.2.6-.6,1.2-1,1.7-.4.6-.9,1.1-1.4,1.6-.5.5-1,1-1.5,1.5-.5.5-1,.9-1.5,1.2h6.1v1.3h-8.4ZM425.4,72v-1.1c.9-.7,1.7-1.4,2.4-2,.8-.7,1.5-1.4,2.1-2,.6-.7,1.1-1.4,1.4-2,.3-.6.5-1.3.5-1.9s0-.9-.2-1.2c-.2-.4-.4-.7-.8-.9-.3-.2-.8-.4-1.4-.4s-1,.1-1.4.4c-.4.2-.7.6-.8,1-.2.4-.3.8-.3,1.3h-1.5c0-.8.2-1.5.5-2.1.3-.6.8-1.1,1.4-1.4s1.3-.5,2.1-.5,1.4.1,2,.4c.6.3,1,.7,1.4,1.2.3.6.5,1.2.5,2.1s-.1,1.2-.4,1.8c-.2.6-.6,1.2-1,1.7-.4.6-.9,1.1-1.4,1.6-.5.5-1,1-1.5,1.5-.5.5-1,.9-1.5,1.2h6.1v1.3h-8.4Z"/>
  <path class="st9" d="M82.6,146v-9.5h-3.1v-1h7.5v1h-3.1v9.5h-1.3ZM89.7,146.2c-.6,0-1.1-.1-1.5-.3-.4-.2-.7-.5-.9-.9-.2-.4-.3-.8-.3-1.2s.1-.9.4-1.3c.3-.4.6-.6,1.1-.8.5-.2,1.1-.3,1.7-.3h2c0-.5,0-.9-.2-1.2-.1-.3-.3-.6-.6-.7-.3-.2-.6-.2-1-.2s-.9.1-1.2.4c-.3.2-.6.6-.6,1.1h-1.3c0-.5.2-1,.5-1.4.3-.4.7-.6,1.2-.8.5-.2,1-.3,1.5-.3s1.3.1,1.7.4c.5.2.8.6,1,1.1.2.4.3,1,.3,1.6v4.7h-1.1v-1.3c-.2.2-.3.4-.5.6-.2.2-.3.3-.5.5-.2.1-.4.2-.7.3-.3,0-.6.1-.9.1ZM89.9,145.1c.4,0,.7,0,.9-.2.3-.1.5-.4.7-.6.2-.3.3-.5.5-.9.1-.3.2-.6.2-1h0s-1.9,0-1.9,0c-.5,0-.9,0-1.2.2-.3.1-.5.3-.6.5-.1.2-.2.4-.2.7s0,.5.2.7c.1.2.3.4.6.5.2.1.5.2.9.2ZM95.3,146v-7.6h1.1v1.4c.3-.3.5-.6.7-.9.3-.2.6-.4,1-.6.4-.1.8-.2,1.3-.2v1.3h-.5c-.3,0-.6,0-.9.1-.3,0-.6.2-.8.4-.2.2-.4.5-.5.8-.1.3-.2.7-.2,1.2v3.9h-1.3ZM103.6,149.5c-.7,0-1.3,0-1.8-.3-.5-.2-.9-.4-1.2-.8-.3-.4-.4-.8-.4-1.3s0-.5.1-.7c0-.3.3-.5.5-.8.2-.2.6-.5,1-.7l.9.5c-.5.2-.9.5-1,.8-.2.3-.2.6-.2.8s0,.6.3.8c.2.2.5.4.8.5.3.1.7.2,1.2.2s.8,0,1.1-.2c.3-.1.5-.3.7-.5.2-.2.3-.5.3-.8s-.1-.6-.4-.9c-.3-.2-.8-.4-1.5-.4-.6,0-1.1,0-1.5-.2-.4,0-.7-.2-1-.2-.3-.1-.5-.2-.7-.3-.2-.1-.3-.2-.5-.4v-.3l1.5-1.4,1.1.4-1.5,1.4.2-.5c.1,0,.2.2.3.2,0,0,.2.1.4.2s.4,0,.7.1c.3,0,.7,0,1.2.1.7,0,1.2.2,1.7.4.4.2.7.4.9.8.2.3.3.7.3,1.1s-.1.8-.4,1.2c-.2.4-.6.7-1.1,1-.5.2-1.1.4-1.9.4ZM103.5,143.6c-.6,0-1.2-.1-1.6-.4-.4-.2-.8-.6-1-1-.2-.4-.3-.9-.3-1.4s.1-1,.3-1.4c.2-.4.6-.7,1-1,.4-.2,1-.4,1.6-.4s1.2.1,1.6.4c.4.2.8.6,1,1,.2.4.3.9.3,1.4s-.1,1-.3,1.4c-.2.4-.6.7-1,1-.4.2-1,.4-1.6.4ZM103.5,142.6c.5,0,1-.1,1.3-.4.3-.3.5-.7.5-1.2s-.2-.9-.5-1.2c-.3-.3-.7-.4-1.3-.4s-1,.1-1.3.4c-.3.3-.5.7-.5,1.2s.2.9.5,1.2.8.4,1.3.4ZM104.8,139.5l-.4-1.1h3.1v.9h-2.7ZM111.8,146c-.4,0-.8,0-1.2-.2s-.6-.4-.8-.7c-.2-.3-.3-.8-.3-1.4v-4.2h-1.3v-1.1h1.3l.2-1.8h1.1v1.8h2.2v1.1h-2.2v4.2c0,.5,0,.8.3,1,.2.2.5.2,1,.2h.8v1.1h-1.2ZM120.9,146.2c-.6,0-1.1-.1-1.5-.3-.4-.2-.7-.5-.9-.9-.2-.4-.3-.8-.3-1.2s.1-.9.4-1.3c.3-.4.6-.6,1.1-.8.5-.2,1.1-.3,1.7-.3h2c0-.5,0-.9-.2-1.2-.1-.3-.3-.6-.6-.7-.3-.2-.6-.2-1-.2s-.9.1-1.2.4c-.3.2-.6.6-.6,1.1h-1.3c0-.5.2-1,.5-1.4.3-.4.7-.6,1.2-.8.5-.2,1-.3,1.5-.3s1.3.1,1.7.4c.5.2.8.6,1,1.1.2.4.3,1,.3,1.6v4.7h-1.1v-1.3c-.2.2-.3.4-.5.6-.2.2-.3.3-.5.5-.2.1-.5.2-.7.3-.3,0-.6.1-.9.1ZM121.1,145.1c.3,0,.7,0,.9-.2.3-.1.5-.4.7-.6.2-.3.3-.5.5-.9.1-.3.2-.6.2-1h0s-1.9,0-1.9,0c-.5,0-.9,0-1.2.2-.3.1-.5.3-.6.5-.1.2-.2.4-.2.7s0,.5.2.7c.1.2.3.4.6.5.2.1.5.2.9.2ZM129.9,146.2c-.7,0-1.4-.2-1.9-.5-.6-.3-1-.8-1.3-1.4-.3-.6-.5-1.3-.5-2.1s.2-1.5.5-2.1c.3-.6.8-1,1.3-1.4.6-.3,1.2-.5,1.9-.5s1.6.2,2.2.7c.6.5,1,1.1,1.1,1.9h-1.3c0-.5-.3-.8-.7-1.1-.4-.3-.8-.4-1.4-.4s-.8.1-1.2.3c-.4.2-.7.5-.9,1-.2.4-.3,1-.3,1.6s0,.9.2,1.3c.1.4.3.7.5.9.2.2.5.4.8.6.3.1.6.2.9.2s.7,0,1-.2c.3-.1.5-.3.7-.5s.3-.5.4-.8h1.3c-.2.8-.5,1.4-1.2,1.9-.6.5-1.3.7-2.2.7ZM135,146v-10.8h1.3v4.5c.2-.4.6-.8,1-1.1.5-.3,1-.4,1.5-.4s1.1.1,1.5.4c.4.2.8.6,1,1.1s.3,1.1.3,1.8v4.5h-1.2v-4.4c0-.8-.2-1.3-.5-1.7-.3-.4-.8-.6-1.4-.6s-.8.1-1.2.3c-.3.2-.6.5-.8.9-.2.4-.3.9-.3,1.4v4h-1.3ZM143.6,146v-7.6h1.3v7.6h-1.3ZM144.3,136.8c-.2,0-.5,0-.6-.2-.2-.2-.2-.4-.2-.6s0-.4.2-.6c.2-.2.4-.2.6-.2s.4,0,.6.2c.2.1.3.3.3.6s0,.5-.3.6c-.2.2-.4.2-.6.2ZM149.2,146l-2.9-7.6h1.3l2.3,6.3,2.3-6.3h1.3l-2.9,7.6h-1.5ZM157.8,146.2c-.7,0-1.3-.2-1.9-.5-.5-.3-1-.8-1.3-1.4-.3-.6-.5-1.3-.5-2.1s.2-1.5.5-2.1c.3-.6.7-1,1.3-1.4.6-.3,1.2-.5,1.9-.5s1.4.2,1.9.5c.5.3.9.8,1.2,1.3.3.5.4,1.1.4,1.8v.3c0,.1,0,.2,0,.4h-6.2v-1h5c0-.7-.3-1.2-.7-1.6-.4-.4-.9-.6-1.6-.6s-.8.1-1.2.3c-.4.2-.6.5-.9.9-.2.4-.3.8-.3,1.4v.4c0,.6.1,1.1.3,1.6.2.4.5.7.9.9.4.2.8.3,1.2.3s1-.1,1.3-.3c.3-.2.6-.6.8-1h1.2c-.1.4-.3.9-.6,1.2s-.7.6-1.1.9c-.4.2-1,.3-1.5.3ZM166.2,146.2c-.7,0-1.4-.2-1.9-.5-.6-.3-1-.8-1.3-1.4-.3-.6-.4-1.3-.4-2s.1-1.4.4-2c.3-.6.7-1.1,1.3-1.4.6-.3,1.2-.5,1.9-.5s1.2.1,1.6.4c.5.2.8.6,1.1,1.1v-4.5h1.3v10.8h-1.1v-1.2c-.3.2-.5.5-.7.7-.2.2-.6.4-.9.5-.4.1-.8.2-1.2.2ZM166.4,145.1c.5,0,.9-.1,1.3-.4.4-.2.7-.6.9-1,.2-.4.3-.9.3-1.5s-.1-1.1-.3-1.5c-.2-.4-.5-.8-.9-1-.4-.2-.8-.4-1.3-.4s-.9.1-1.3.4c-.4.2-.7.6-.9,1-.2.4-.3.9-.3,1.5s.1,1.1.3,1.5c.2.4.5.8.9,1,.4.2.8.4,1.3.4Z"/>
  <path class="st9" d="M82.6,226v-9.5h-3.1v-1h7.5v1h-3.1v9.5h-1.3ZM88.4,226v-10.8h1.3v4.5c.2-.4.6-.8,1.1-1.1.5-.3,1-.4,1.5-.4s1.1.1,1.5.4c.4.2.8.6,1,1.1.2.5.3,1.1.3,1.8v4.5h-1.2v-4.4c0-.8-.2-1.3-.5-1.7-.3-.4-.8-.6-1.4-.6s-.8.1-1.2.3c-.3.2-.6.5-.8.9-.2.4-.3.9-.3,1.4v4h-1.3ZM97,226v-7.6h1.3v7.6h-1.3ZM97.6,216.8c-.2,0-.5,0-.6-.2-.2-.2-.2-.4-.2-.6s0-.4.2-.6c.2-.2.4-.2.6-.2s.4,0,.6.2c.2.1.3.3.3.6s0,.5-.3.6c-.2.2-.4.2-.6.2ZM103.2,226.2c-.6,0-1.2-.1-1.7-.3-.5-.2-.8-.5-1.1-.9-.3-.4-.4-.8-.5-1.3h1.3c0,.3.2.5.3.7.2.2.4.4.6.5.3.1.6.2,1,.2s.6,0,.9-.2c.2-.1.4-.3.5-.4.1-.2.2-.4.2-.6,0-.3,0-.5-.2-.7-.1-.2-.3-.3-.6-.4-.3-.1-.6-.2-1-.3-.3,0-.7-.1-1-.2-.3,0-.6-.2-.9-.4-.2-.2-.5-.4-.6-.6-.1-.2-.2-.5-.2-.9s.1-.8.3-1.1c.2-.3.5-.6.9-.8.4-.2.9-.3,1.5-.3.8,0,1.5.2,2,.6s.8,1,.9,1.7h-1.2c0-.4-.2-.7-.5-.9-.3-.2-.6-.3-1.1-.3s-.8,0-1.1.3c-.2.2-.4.4-.4.8s0,.4.2.5c.1.2.3.3.6.4.3.1.6.2,1,.3.5,0,1,.2,1.4.4.4.2.7.4,1,.7.3.3.4.7.4,1.2s-.1.9-.4,1.2c-.2.3-.6.6-1,.8-.4.2-.9.3-1.5.3ZM111.7,226v-7.6h1.1v1.1c.3-.4.6-.7,1-.9.4-.2.9-.3,1.3-.3s.7,0,1,.2c.3,0,.6.3.8.5.2.2.4.5.6.8.3-.5.6-.8,1.1-1.1.5-.3,1-.4,1.5-.4s1.1.1,1.5.4c.4.2.8.6,1,1.1.2.5.4,1.1.4,1.8v4.5h-1.2v-4.4c0-.8-.2-1.3-.5-1.7-.3-.4-.7-.6-1.3-.6s-.7.1-1.1.3c-.3.2-.6.5-.7.9s-.3.9-.3,1.4v4h-1.3v-4.4c0-.8-.2-1.3-.5-1.7-.3-.4-.8-.6-1.3-.6s-.7.1-1,.3c-.3.2-.5.5-.7.9s-.3.9-.3,1.4v4h-1.3ZM128.3,226.2c-.7,0-1.3-.2-1.9-.5-.6-.3-1-.8-1.3-1.4-.3-.6-.5-1.3-.5-2.1s.2-1.5.5-2.1c.3-.6.8-1.1,1.3-1.4.6-.3,1.2-.5,1.9-.5s1.4.2,1.9.5c.6.3,1,.8,1.3,1.4.3.6.5,1.3.5,2.1s-.2,1.5-.5,2.1c-.3.6-.8,1-1.3,1.4-.6.3-1.2.5-1.9.5ZM128.3,225.1c.4,0,.8-.1,1.2-.3.4-.2.7-.5.9-1,.2-.4.3-1,.3-1.6s-.1-1.2-.3-1.6c-.2-.4-.5-.8-.9-1-.4-.2-.8-.3-1.2-.3s-.8.1-1.2.3c-.4.2-.7.5-.9,1-.2.4-.3.9-.3,1.6s.1,1.2.3,1.6c.2.4.5.8.9,1,.4.2.8.3,1.2.3ZM133.7,226v-7.6h1.1v1.3c.3-.5.6-.8,1.1-1.1.5-.3,1-.4,1.5-.4s1.1.1,1.5.4c.4.2.8.6,1,1.1.2.5.4,1.1.4,1.8v4.5h-1.3v-4.4c0-.8-.2-1.3-.5-1.7-.3-.4-.8-.6-1.4-.6s-.8.1-1.1.3c-.3.2-.6.5-.8.9-.2.4-.3.9-.3,1.4v4h-1.3ZM145.2,226c-.4,0-.8,0-1.2-.2s-.6-.4-.8-.7c-.2-.3-.3-.8-.3-1.4v-4.2h-1.3v-1.1h1.3l.2-1.8h1.1v1.8h2.2v1.1h-2.2v4.2c0,.5,0,.8.3,1,.2.2.5.2,1,.2h.8v1.1h-1.2ZM148,226v-10.8h1.3v4.5c.2-.4.6-.8,1.1-1.1.5-.3,1-.4,1.5-.4s1.1.1,1.5.4c.4.2.8.6,1,1.1.2.5.3,1.1.3,1.8v4.5h-1.2v-4.4c0-.8-.2-1.3-.5-1.7-.3-.4-.8-.6-1.4-.6s-.8.1-1.2.3c-.3.2-.6.5-.8.9-.2.4-.3.9-.3,1.4v4h-1.3ZM163.4,226c-.4,0-.8,0-1.2-.2s-.6-.4-.8-.7c-.2-.3-.3-.8-.3-1.4v-4.2h-1.3v-1.1h1.3l.2-1.8h1.1v1.8h2.2v1.1h-2.2v4.2c0,.5,0,.8.3,1,.2.2.5.2,1,.2h.8v1.1h-1.2ZM168.6,226.2c-.6,0-1.1-.1-1.5-.3-.4-.2-.7-.5-.9-.9-.2-.4-.3-.8-.3-1.2s.1-.9.4-1.3c.3-.4.6-.6,1.1-.8.5-.2,1.1-.3,1.7-.3h2c0-.5,0-.9-.2-1.2-.1-.3-.4-.6-.6-.7-.3-.2-.6-.2-1-.2s-.9.1-1.2.4c-.4.2-.6.6-.6,1.1h-1.3c0-.5.2-1,.5-1.4.3-.4.7-.6,1.2-.8.5-.2,1-.3,1.5-.3s1.3.1,1.7.4c.5.2.8.6,1.1,1.1.2.4.3,1,.3,1.6v4.7h-1.1v-1.3c-.2.2-.3.4-.5.6-.1.2-.3.3-.5.5-.2.1-.4.2-.7.3-.3,0-.6.1-.9.1ZM168.8,225.1c.4,0,.7,0,.9-.2.3-.1.5-.4.7-.6.2-.3.3-.5.4-.9.1-.3.2-.6.2-1h0s-1.9,0-1.9,0c-.5,0-.9,0-1.2.2-.3.1-.5.3-.6.5-.1.2-.2.4-.2.7s0,.5.2.7c.1.2.3.4.6.5.2.1.5.2.9.2ZM174.2,226v-7.6h1.1v1.4c.3-.3.5-.6.7-.9.3-.2.6-.4,1-.6.4-.1.8-.2,1.3-.2v1.3h-.5c-.3,0-.6,0-.9.1-.3,0-.5.2-.8.4-.2.2-.4.5-.5.8-.1.3-.2.7-.2,1.2v3.9h-1.3ZM182.5,229.5c-.7,0-1.3,0-1.8-.3-.5-.2-.9-.4-1.2-.8-.3-.4-.4-.8-.4-1.3s0-.5.1-.7c.1-.3.3-.5.5-.8.2-.2.6-.5,1-.7l.9.5c-.5.2-.9.5-1,.8-.2.3-.2.6-.2.8s0,.6.3.8.5.4.8.5.7.2,1.2.2.8,0,1.1-.2.6-.3.7-.5.3-.5.3-.8-.1-.6-.4-.9c-.3-.2-.8-.4-1.5-.4-.6,0-1.1,0-1.5-.2-.4,0-.7-.2-1-.2-.3-.1-.5-.2-.7-.3-.2-.1-.3-.2-.5-.4v-.3l1.5-1.4,1.1.4-1.5,1.4.2-.5c.1,0,.2.2.3.2.1,0,.2.1.4.2.2,0,.4,0,.7.1.3,0,.7,0,1.2.1.7,0,1.2.2,1.6.4.4.2.7.4.9.8.2.3.3.7.3,1.1s-.1.8-.4,1.2c-.2.4-.6.7-1.1,1-.5.2-1.1.4-1.9.4ZM182.5,223.6c-.6,0-1.2-.1-1.6-.4-.4-.2-.8-.6-1-1-.2-.4-.3-.9-.3-1.4s.1-1,.3-1.4c.2-.4.6-.7,1-1,.4-.2,1-.4,1.6-.4s1.2.1,1.6.4c.4.2.8.6,1,1s.3.9.3,1.4-.1,1-.3,1.4c-.2.4-.6.7-1,1-.4.2-1,.4-1.6.4ZM182.5,222.6c.5,0,1-.1,1.3-.4.3-.3.5-.7.5-1.2s-.2-.9-.5-1.2c-.3-.3-.7-.4-1.3-.4s-1,.1-1.3.4c-.3.3-.5.7-.5,1.2s.2.9.5,1.2c.3.3.8.4,1.3.4ZM183.7,219.5l-.4-1.1h3.1v.9h-2.7ZM190.8,226.2c-.7,0-1.3-.2-1.9-.5-.5-.3-1-.8-1.3-1.4-.3-.6-.5-1.3-.5-2.1s.2-1.5.4-2.1c.3-.6.7-1,1.3-1.4.6-.3,1.2-.5,1.9-.5s1.4.2,1.9.5c.5.3.9.8,1.2,1.3.3.5.4,1.1.4,1.8v.3c0,.1,0,.2,0,.4h-6.2v-1h5c0-.7-.3-1.2-.7-1.6-.4-.4-.9-.6-1.6-.6s-.8.1-1.2.3c-.4.2-.7.5-.9.9-.2.4-.3.8-.3,1.4v.4c0,.6.1,1.1.3,1.6.2.4.5.7.9.9.4.2.8.3,1.2.3s1-.1,1.3-.3c.4-.2.6-.6.8-1h1.2c-.1.4-.3.9-.6,1.2s-.7.6-1.1.9c-.4.2-1,.3-1.5.3ZM198.6,226c-.4,0-.8,0-1.2-.2s-.6-.4-.8-.7c-.2-.3-.3-.8-.3-1.4v-4.2h-1.3v-1.1h1.3l.2-1.8h1.1v1.8h2.2v1.1h-2.2v4.2c0,.5,0,.8.3,1,.2.2.5.2,1,.2h.8v1.1h-1.2Z"/>
  <path class="st9" d="M286.1,259v-8.2h-2.7v-.9h6.5v.9h-2.7v8.2h-1.1ZM292.3,259.2c-.5,0-1,0-1.3-.3-.4-.2-.6-.4-.8-.7-.2-.3-.3-.6-.3-1s.1-.8.3-1.1c.2-.3.6-.5,1-.7.4-.2.9-.2,1.5-.2h1.7c0-.4,0-.7-.2-1-.1-.3-.3-.5-.5-.6-.2-.1-.5-.2-.9-.2s-.8.1-1.1.3c-.3.2-.5.5-.6.9h-1.1c0-.5.2-.9.5-1.2.3-.3.6-.6,1-.7.4-.2.8-.3,1.3-.3s1.1.1,1.5.3c.4.2.7.5.9.9.2.4.3.9.3,1.4v4.1h-1v-1.2c-.2.2-.3.4-.4.5-.1.2-.3.3-.5.4-.2.1-.4.2-.6.3-.2,0-.5.1-.8.1ZM292.4,258.2c.3,0,.6,0,.8-.2.3-.1.5-.3.6-.5.2-.2.3-.5.4-.7,0-.3.1-.6.1-.8h0s-1.6,0-1.6,0c-.4,0-.8,0-1,.2-.3,0-.4.2-.6.4-.1.2-.2.4-.2.6s0,.4.2.6c.1.2.3.3.5.4.2,0,.5.1.8.1ZM297.1,259v-6.6h1v1.2c.2-.3.4-.5.6-.8.2-.2.5-.4.8-.5.3-.1.7-.2,1.1-.2v1.1h-.4c-.3,0-.5,0-.8.1-.3,0-.5.2-.7.4-.2.2-.3.4-.5.7-.1.3-.2.6-.2,1v3.4h-1.1ZM304.3,262c-.6,0-1.1,0-1.6-.2-.5-.1-.8-.4-1.1-.7-.3-.3-.4-.7-.4-1.2s0-.4.1-.6c0-.2.2-.4.4-.7.2-.2.5-.4.9-.6l.8.4c-.5.2-.8.4-.9.6-.1.3-.2.5-.2.7s0,.5.2.7c.2.2.4.3.7.4.3,0,.6.1,1,.1s.7,0,1-.2c.3-.1.5-.3.6-.4.1-.2.2-.4.2-.7s-.1-.6-.3-.8c-.2-.2-.7-.3-1.3-.4-.5,0-.9,0-1.3-.1-.3,0-.6-.1-.9-.2-.2,0-.4-.2-.6-.3-.1-.1-.3-.2-.4-.3v-.3l1.3-1.2.9.3-1.3,1.2.2-.5c0,0,.2.1.3.2,0,0,.2.1.4.2.1,0,.4,0,.6.1.3,0,.6,0,1.1.1.6,0,1.1.1,1.4.3.4.2.6.4.8.7.2.3.2.6.2,1s-.1.7-.3,1.1c-.2.3-.5.6-.9.8-.4.2-1,.3-1.6.3ZM304.3,256.9c-.5,0-1-.1-1.4-.3-.4-.2-.7-.5-.9-.8-.2-.4-.3-.8-.3-1.2s0-.8.3-1.2c.2-.3.5-.6.9-.8.4-.2.8-.3,1.4-.3s1,.1,1.4.3c.4.2.7.5.9.8.2.3.3.7.3,1.2s-.1.8-.3,1.2c-.2.3-.5.6-.9.8-.4.2-.8.3-1.4.3ZM304.3,256c.5,0,.8-.1,1.1-.4.3-.2.4-.6.4-1.1s-.1-.8-.4-1.1c-.3-.2-.6-.4-1.1-.4s-.8.1-1.1.4c-.3.2-.4.6-.4,1.1s.1.8.4,1.1c.3.2.6.4,1.1.4ZM305.3,253.4l-.3-.9h2.7v.8h-2.4ZM311.5,259.2c-.6,0-1.2-.1-1.6-.4-.5-.3-.8-.7-1.1-1.2-.3-.5-.4-1.1-.4-1.8s.1-1.3.4-1.8c.3-.5.6-.9,1.1-1.2.5-.3,1-.4,1.7-.4s1.2.1,1.6.4c.5.3.8.7,1,1.1.2.5.4,1,.4,1.5v.3c0,0,0,.2,0,.3h-5.4v-.8h4.3c0-.6-.2-1.1-.6-1.4-.4-.3-.8-.5-1.4-.5s-.7,0-1,.3c-.3.2-.6.4-.8.7-.2.3-.3.7-.3,1.2v.4c0,.5,0,1,.3,1.4.2.4.5.6.8.8.3.2.7.3,1,.3s.8-.1,1.1-.3c.3-.2.5-.5.6-.8h1.1c-.1.4-.3.7-.5,1.1-.3.3-.6.6-1,.7-.4.2-.8.3-1.3.3ZM318.2,259c-.4,0-.7,0-1-.2-.3-.1-.5-.3-.7-.6-.1-.3-.2-.7-.2-1.2v-3.7h-1.1v-.9h1.1v-1.6h1.1v1.6h1.9v.9h-1.9v3.7c0,.4,0,.7.2.8.2.1.5.2.9.2h.7v.9h-1ZM326.8,259l-3.4-9.1h1.2l2.9,7.9,2.9-7.9h1.2l-3.4,9.1h-1.3ZM334.4,259.2c-.5,0-1,0-1.4-.3-.4-.2-.7-.4-1-.8-.2-.3-.4-.7-.4-1.2h1.1c0,.2.1.4.3.6.1.2.3.3.6.5.2.1.5.2.9.2s.6,0,.8-.1c.2,0,.3-.2.4-.4.1-.2.2-.3.2-.5,0-.3,0-.5-.2-.6-.1-.1-.3-.2-.5-.3-.2,0-.5-.2-.9-.2-.3,0-.6-.1-.8-.2-.3,0-.5-.2-.7-.3-.2-.1-.4-.3-.5-.5-.1-.2-.2-.5-.2-.8s0-.7.3-1c.2-.3.5-.5.8-.7.4-.2.8-.2,1.3-.2.7,0,1.3.2,1.7.5.4.3.7.8.8,1.5h-1.1c0-.3-.2-.6-.4-.8-.2-.2-.6-.3-1-.3s-.7,0-.9.2c-.2.2-.3.4-.3.6s0,.3.2.5c.1.1.3.2.5.3.2,0,.5.2.9.2.4,0,.8.2,1.2.3.4.1.6.3.9.6.2.3.3.6.3,1.1s-.1.8-.3,1.1c-.2.3-.5.5-.9.7-.4.2-.8.2-1.3.2ZM343.8,259.2c-.5,0-1,0-1.3-.3-.4-.2-.6-.4-.8-.7-.2-.3-.3-.6-.3-1s.1-.8.3-1.1c.2-.3.6-.5,1-.7.4-.2.9-.2,1.5-.2h1.7c0-.4,0-.7-.2-1-.1-.3-.3-.5-.5-.6-.2-.1-.5-.2-.9-.2s-.8.1-1.1.3c-.3.2-.5.5-.6.9h-1.1c0-.5.2-.9.5-1.2.3-.3.6-.6,1-.7.4-.2.8-.3,1.3-.3s1.1.1,1.5.3c.4.2.7.5.9.9.2.4.3.9.3,1.4v4.1h-1v-1.2c-.2.2-.3.4-.4.5-.1.2-.3.3-.5.4-.2.1-.4.2-.6.3-.2,0-.5.1-.8.1ZM344,258.2c.3,0,.6,0,.8-.2.3-.1.5-.3.6-.5.2-.2.3-.5.4-.7,0-.3.1-.6.1-.8h0s-1.6,0-1.6,0c-.4,0-.8,0-1,.2-.3,0-.4.2-.6.4-.1.2-.2.4-.2.6s0,.4.2.6c.1.2.3.3.5.4.2,0,.5.1.8.1ZM351.6,259.2c-.6,0-1.2-.1-1.7-.4-.5-.3-.9-.7-1.1-1.2-.3-.5-.4-1.1-.4-1.8s.1-1.3.4-1.8c.3-.5.7-.9,1.1-1.2.5-.3,1-.4,1.7-.4s1.4.2,2,.6c.5.4.8.9,1,1.6h-1.1c0-.4-.3-.7-.6-.9-.3-.2-.7-.3-1.2-.3s-.7,0-1,.3c-.3.2-.6.5-.8.8-.2.4-.3.8-.3,1.4s0,.8.2,1.1c.1.3.3.6.5.8.2.2.4.4.7.5.3.1.5.2.8.2s.6,0,.8-.1c.3-.1.5-.3.6-.5.2-.2.3-.4.4-.7h1.1c-.1.7-.5,1.2-1,1.6-.5.4-1.2.6-1.9.6ZM359,259.2c-.6,0-1.2-.1-1.7-.4-.5-.3-.9-.7-1.1-1.2-.3-.5-.4-1.1-.4-1.8s.1-1.3.4-1.8c.3-.5.7-.9,1.1-1.2.5-.3,1-.4,1.7-.4s1.4.2,2,.6c.5.4.8.9,1,1.6h-1.1c0-.4-.3-.7-.6-.9-.3-.2-.7-.3-1.2-.3s-.7,0-1,.3c-.3.2-.6.5-.8.8-.2.4-.3.8-.3,1.4s0,.8.2,1.1c.1.3.3.6.5.8.2.2.4.4.7.5.3.1.5.2.8.2s.6,0,.8-.1c.3-.1.5-.3.6-.5s.3-.4.4-.7h1.1c-.1.7-.5,1.2-1,1.6-.5.4-1.2.6-1.9.6ZM363.4,259v-9.4h1.1v3.9c.2-.4.5-.7.9-.9.4-.2.8-.3,1.3-.3s.9.1,1.3.3c.4.2.7.5.9.9.2.4.3.9.3,1.6v3.9h-1.1v-3.8c0-.7-.1-1.2-.4-1.5-.3-.3-.7-.5-1.2-.5s-.7,0-1,.3c-.3.2-.5.4-.7.8-.2.3-.3.8-.3,1.2v3.5h-1.1ZM370.9,259v-6.6h1.1v6.6h-1.1ZM371.4,251.1c-.2,0-.4,0-.5-.2-.1-.1-.2-.3-.2-.5s0-.4.2-.5c.1-.1.3-.2.5-.2s.4,0,.5.2c.1.1.2.3.2.5s0,.4-.2.5c-.1.1-.3.2-.5.2ZM376.7,259.2c-.6,0-1.2-.1-1.6-.4-.5-.3-.8-.7-1.1-1.2-.3-.5-.4-1.1-.4-1.8s.1-1.3.4-1.8c.3-.5.6-.9,1.1-1.2.5-.3,1-.4,1.7-.4s1.2.1,1.6.4c.5.3.8.7,1,1.1.2.5.4,1,.4,1.5v.3c0,0,0,.2,0,.3h-5.4v-.8h4.3c0-.6-.2-1.1-.6-1.4-.4-.3-.8-.5-1.4-.5s-.7,0-1,.3c-.3.2-.6.4-.8.7-.2.3-.3.7-.3,1.2v.4c0,.5,0,1,.3,1.4.2.4.5.6.8.8.3.2.7.3,1,.3s.8-.1,1.1-.3c.3-.2.5-.5.6-.8h1.1c-.1.4-.3.7-.5,1.1-.3.3-.6.6-1,.7-.4.2-.8.3-1.3.3ZM382.7,259l-2.5-6.6h1.1l2,5.5,2-5.5h1.1l-2.5,6.6h-1.3ZM390.1,259.2c-.6,0-1.2-.1-1.6-.4-.5-.3-.8-.7-1.1-1.2-.3-.5-.4-1.1-.4-1.8s.1-1.3.4-1.8c.3-.5.6-.9,1.1-1.2.5-.3,1-.4,1.7-.4s1.2.1,1.6.4c.5.3.8.7,1,1.1.2.5.4,1,.4,1.5v.3c0,0,0,.2,0,.3h-5.4v-.8h4.3c0-.6-.2-1.1-.6-1.4-.4-.3-.8-.5-1.4-.5s-.7,0-1,.3c-.3.2-.6.4-.8.7-.2.3-.3.7-.3,1.2v.4c0,.5,0,1,.3,1.4.2.4.5.6.8.8.3.2.7.3,1,.3s.8-.1,1.1-.3c.3-.2.5-.5.6-.8h1.1c-.1.4-.3.7-.5,1.1-.3.3-.6.6-1,.7-.4.2-.8.3-1.3.3ZM394.6,259v-6.6h1v.9c.3-.3.6-.6.9-.8.4-.2.7-.3,1.2-.3s.6,0,.9.1c.3,0,.5.2.7.4.2.2.4.4.5.7.2-.4.5-.7.9-.9.4-.2.8-.3,1.3-.3s.9.1,1.3.3c.4.2.7.5.9.9.2.4.3.9.3,1.6v3.9h-1.1v-3.8c0-.7-.1-1.2-.4-1.5-.3-.3-.6-.5-1.1-.5s-.6,0-.9.3c-.3.2-.5.4-.6.8-.2.3-.2.8-.2,1.2v3.5h-1.1v-3.8c0-.7-.1-1.2-.4-1.5-.3-.3-.7-.5-1.1-.5s-.6,0-.9.3c-.3.2-.5.4-.6.8-.2.3-.2.8-.2,1.2v3.5h-1.1ZM408.9,259.2c-.6,0-1.2-.1-1.6-.4-.5-.3-.8-.7-1.1-1.2-.3-.5-.4-1.1-.4-1.8s.1-1.3.4-1.8c.3-.5.6-.9,1.1-1.2.5-.3,1-.4,1.7-.4s1.2.1,1.6.4c.5.3.8.7,1,1.1.2.5.4,1,.4,1.5v.3c0,0,0,.2,0,.3h-5.4v-.8h4.3c0-.6-.2-1.1-.6-1.4-.4-.3-.8-.5-1.4-.5s-.7,0-1,.3c-.3.2-.6.4-.8.7-.2.3-.3.7-.3,1.2v.4c0,.5,0,1,.3,1.4.2.4.5.6.8.8.3.2.7.3,1,.3s.8-.1,1.1-.3c.3-.2.5-.5.6-.8h1.1c-.1.4-.3.7-.5,1.1-.3.3-.6.6-1,.7-.4.2-.8.3-1.3.3ZM413.4,259v-6.6h1v1.1c.3-.4.6-.7.9-.9.4-.2.8-.4,1.3-.4s1,.1,1.3.3c.4.2.7.5.9.9.2.4.3.9.3,1.6v3.9h-1.1v-3.8c0-.7-.1-1.2-.4-1.5-.3-.3-.7-.5-1.2-.5s-.7,0-1,.3c-.3.2-.5.4-.7.8-.2.3-.2.7-.2,1.2v3.5h-1.1ZM423.3,259c-.4,0-.7,0-1-.2s-.5-.3-.7-.6c-.1-.3-.2-.7-.2-1.2v-3.7h-1.1v-.9h1.1v-1.6h1.1v1.6h1.9v.9h-1.9v3.7c0,.4,0,.7.2.8.2.1.5.2.9.2h.7v.9h-1Z"/>
  <path class="st9" d="M83.6,177.5v-15.5h1v15.5h-1ZM84.1,176.2c-.9,0-1.7-.1-2.4-.4-.7-.3-1.2-.7-1.6-1.3-.4-.5-.6-1.2-.6-1.9h1.9c0,.4.2.8.4,1.1.3.3.6.5,1,.7.4.1.8.2,1.3.2s1,0,1.4-.2c.4-.2.7-.4,1-.7.2-.3.4-.7.4-1.1s-.1-.7-.3-.9c-.2-.2-.5-.4-.8-.6-.4-.2-.8-.3-1.2-.4l-1.5-.4c-1-.3-1.8-.7-2.4-1.2-.6-.5-.9-1.2-.9-2.1s.2-1.3.6-1.9c.4-.5.9-.9,1.6-1.2.7-.3,1.4-.4,2.2-.4s1.6.1,2.2.4c.6.3,1.1.7,1.5,1.2.4.5.6,1.1.6,1.8h-1.8c0-.6-.3-1-.8-1.3-.5-.3-1-.5-1.8-.5s-.9,0-1.3.2c-.4.2-.7.4-.9.6-.2.3-.3.6-.3,1s.1.7.4.9c.2.2.5.4.9.6.3.1.7.3,1,.3l1.2.3c.4.1.8.2,1.2.4s.8.4,1.2.7c.4.3.6.6.9,1,.2.4.3.9.3,1.4s-.2,1.3-.5,1.9c-.4.5-.9,1-1.6,1.3-.7.3-1.5.5-2.5.5ZM94.5,163.6v12.4h-1.8v-10.5h0l-2.9,1.9v-1.8l3.1-2h1.8ZM100.4,176.2c-.8,0-1.4-.1-2-.4-.6-.3-1.1-.7-1.4-1.2-.4-.5-.6-1.1-.6-1.8h1.8c0,.5.3,1,.7,1.3.4.3.9.5,1.5.5s.9-.1,1.3-.3c.4-.2.7-.5.9-.9.2-.4.3-.8.3-1.3s-.1-.9-.3-1.3c-.2-.4-.5-.7-.9-.9-.4-.2-.8-.3-1.3-.3s-.8,0-1.1.2c-.4.1-.7.3-.9.5l-1.7-.2.7-6.2h6.8v1.6h-5.2l-.4,3.5h0c.2-.2.6-.4,1-.6.4-.2.8-.2,1.3-.2.8,0,1.4.2,2,.5.6.4,1.1.8,1.4,1.5.3.6.5,1.3.5,2.1s-.2,1.5-.5,2.2c-.4.6-.9,1.1-1.5,1.5-.6.4-1.4.5-2.2.5ZM106.1,176v-1.3l4.2-4.3c.4-.5.8-.9,1.1-1.2.3-.4.5-.7.7-1,.1-.3.2-.7.2-1s0-.8-.3-1.1c-.2-.3-.5-.5-.8-.7-.3-.2-.7-.2-1.1-.2s-.8,0-1.2.3c-.3.2-.6.4-.8.8-.2.3-.3.7-.3,1.2h-1.8c0-.8.2-1.4.5-2,.3-.6.8-1,1.4-1.3.6-.3,1.3-.5,2.1-.5s1.5.2,2.1.5c.6.3,1.1.7,1.4,1.3.3.5.5,1.1.5,1.8s0,.9-.3,1.3c-.2.4-.5.9-.9,1.5-.4.5-1,1.2-1.8,1.9l-2.5,2.6h0c0,0,5.6,0,5.6,0v1.6h-8.1ZM120.1,176.2c-1,0-1.8-.2-2.4-.7-.7-.5-1.2-1.2-1.6-2.2-.4-.9-.5-2.1-.5-3.4s.2-2.5.5-3.4c.4-1,.9-1.7,1.6-2.2.7-.5,1.5-.8,2.4-.8s1.8.3,2.4.8c.7.5,1.2,1.2,1.6,2.2.4.9.5,2.1.5,3.4s-.2,2.5-.5,3.4c-.4.9-.9,1.7-1.5,2.2s-1.5.7-2.5.7ZM120.1,174.6c.6,0,1.1-.2,1.5-.6.4-.4.7-.9.9-1.6.2-.7.3-1.6.3-2.6s-.1-1.9-.3-2.6c-.2-.7-.5-1.3-.9-1.6-.4-.4-.9-.6-1.5-.6-.9,0-1.5.4-2,1.3-.5.8-.7,2-.7,3.5s.1,1.9.3,2.6c.2.7.5,1.2.9,1.6.4.4.9.6,1.5.6ZM130.4,176.2c-1,0-1.8-.2-2.4-.7-.7-.5-1.2-1.2-1.6-2.2-.4-.9-.5-2.1-.5-3.4s.2-2.5.5-3.4c.4-1,.9-1.7,1.6-2.2.7-.5,1.5-.8,2.4-.8s1.8.3,2.4.8c.7.5,1.2,1.2,1.6,2.2.4.9.5,2.1.5,3.4s-.2,2.5-.5,3.4c-.4.9-.9,1.7-1.5,2.2-.7.5-1.5.7-2.5.7ZM130.4,174.6c.6,0,1.1-.2,1.5-.6.4-.4.7-.9.9-1.6.2-.7.3-1.6.3-2.6s-.1-1.9-.3-2.6c-.2-.7-.5-1.3-.9-1.6-.4-.4-.9-.6-1.5-.6-.9,0-1.5.4-2,1.3-.5.8-.7,2-.7,3.5s.1,1.9.3,2.6c.2.7.5,1.2.9,1.6.4.4.9.6,1.5.6ZM140.7,176.2c-1,0-1.8-.2-2.4-.7-.7-.5-1.2-1.2-1.6-2.2-.4-.9-.5-2.1-.5-3.4s.2-2.5.5-3.4c.4-1,.9-1.7,1.6-2.2.7-.5,1.5-.8,2.4-.8s1.8.3,2.4.8c.7.5,1.2,1.2,1.6,2.2.4.9.5,2.1.5,3.4s-.2,2.5-.5,3.4c-.4.9-.9,1.7-1.5,2.2-.7.5-1.5.7-2.5.7ZM140.7,174.6c.6,0,1.1-.2,1.5-.6.4-.4.7-.9.9-1.6.2-.7.3-1.6.3-2.6s-.1-1.9-.3-2.6c-.2-.7-.5-1.3-.9-1.6-.4-.4-.9-.6-1.5-.6-.9,0-1.5.4-2,1.3-.5.8-.7,2-.7,3.5s.1,1.9.3,2.6c.2.7.5,1.2.9,1.6.4.4.9.6,1.5.6Z"/>
  <path class="st9" d="M83.6,257.5v-15.5h1v15.5h-1ZM84.1,256.2c-.9,0-1.7-.1-2.4-.4-.7-.3-1.2-.7-1.6-1.3-.4-.5-.6-1.2-.6-1.9h1.9c0,.4.2.8.4,1.1.3.3.6.5,1,.7.4.1.8.2,1.3.2s1,0,1.4-.2c.4-.2.7-.4,1-.7.2-.3.4-.7.4-1.1s-.1-.7-.3-.9c-.2-.2-.5-.4-.8-.6-.4-.2-.8-.3-1.2-.4l-1.5-.4c-1-.3-1.8-.7-2.4-1.2-.6-.5-.9-1.2-.9-2.1s.2-1.3.6-1.9c.4-.5.9-.9,1.6-1.2.7-.3,1.4-.4,2.2-.4s1.6.1,2.2.4c.6.3,1.1.7,1.5,1.2.4.5.6,1.1.6,1.8h-1.8c0-.6-.3-1-.8-1.3-.5-.3-1-.5-1.8-.5s-.9,0-1.3.2c-.4.2-.7.4-.9.6-.2.3-.3.6-.3,1s.1.7.4.9c.2.2.5.4.9.6.3.1.7.3,1,.3l1.2.3c.4.1.8.2,1.2.4s.8.4,1.2.7c.4.3.6.6.9,1,.2.4.3.9.3,1.4s-.2,1.3-.5,1.9c-.4.5-.9,1-1.6,1.3-.7.3-1.5.5-2.5.5ZM94.2,256.2c-.9,0-1.6-.1-2.3-.4-.7-.3-1.2-.7-1.6-1.2-.4-.5-.6-1.1-.6-1.8s.1-1,.3-1.4c.2-.4.5-.8.9-1.1.4-.3.8-.5,1.3-.6h0c-.6-.2-1.1-.6-1.5-1.1-.4-.5-.6-1.1-.6-1.8s.2-1.2.5-1.7c.3-.5.8-.9,1.4-1.2.6-.3,1.3-.4,2-.4s1.4.1,2,.4c.6.3,1.1.7,1.4,1.2.3.5.5,1.1.5,1.7s-.2,1.2-.6,1.8c-.4.5-.9.8-1.5,1h0c.5.2.9.3,1.3.6.4.3.7.7.9,1.1.2.4.3.9.3,1.4s-.2,1.3-.6,1.8c-.4.5-.9.9-1.6,1.2-.7.3-1.4.4-2.3.4ZM94.2,254.6c.5,0,1,0,1.3-.2.4-.2.7-.4.9-.7.2-.3.3-.7.3-1.1s-.1-.8-.3-1.1c-.2-.3-.5-.6-.9-.8-.4-.2-.8-.3-1.3-.3s-.9,0-1.3.3c-.4.2-.7.4-.9.8-.2.3-.3.7-.3,1.1s.1.8.3,1.1c.2.3.5.6.9.7.4.2.8.2,1.3.2ZM94.2,248.9c.4,0,.8,0,1.1-.2.3-.2.6-.4.8-.7.2-.3.3-.6.3-1s0-.7-.3-1c-.2-.3-.4-.5-.7-.7-.3-.2-.7-.2-1.1-.2s-.8,0-1.1.2c-.3.2-.6.4-.7.7-.2.3-.3.6-.3,1s0,.7.3,1c.2.3.4.5.7.7.3.2.7.2,1.1.2ZM104.1,256.2c-.8,0-1.4-.1-2-.4-.6-.3-1.1-.7-1.4-1.2-.4-.5-.6-1.1-.6-1.8h1.8c0,.5.3,1,.7,1.3.4.3.9.5,1.5.5s.9-.1,1.3-.3c.4-.2.7-.5.9-.9.2-.4.3-.8.3-1.3s-.1-.9-.3-1.3c-.2-.4-.5-.7-.9-.9-.4-.2-.8-.3-1.3-.3s-.8,0-1.1.2c-.4.1-.7.3-.9.5l-1.7-.2.7-6.2h6.8v1.6h-5.2l-.4,3.5h0c.2-.2.6-.4,1-.6.4-.2.8-.2,1.3-.2.8,0,1.4.2,2,.5.6.4,1.1.8,1.4,1.5.3.6.5,1.3.5,2.1s-.2,1.5-.5,2.2c-.4.6-.9,1.1-1.5,1.5-.6.4-1.4.5-2.2.5ZM114.1,256.2c-.5,0-1.1,0-1.6-.3-.5-.2-1-.5-1.5-1-.4-.5-.8-1.1-1-1.8-.3-.8-.4-1.7-.4-2.8s.1-2,.3-2.9c.2-.8.5-1.5.9-2.1.4-.6.9-1,1.5-1.3.6-.3,1.2-.5,1.9-.5s1.4.1,2,.4c.6.3,1,.7,1.4,1.2.4.5.6,1.1.7,1.7h-1.8c-.1-.5-.4-.9-.7-1.3-.4-.3-.9-.5-1.4-.5-.9,0-1.6.4-2.1,1.2-.5.8-.8,1.9-.8,3.3h0c.2-.3.5-.6.8-.9.3-.3.7-.4,1-.6.4-.1.8-.2,1.2-.2.7,0,1.4.2,1.9.5.6.3,1.1.8,1.4,1.4.3.6.5,1.3.5,2.1s-.2,1.5-.5,2.1c-.4.6-.9,1.1-1.5,1.5-.6.4-1.4.6-2.3.6ZM114.1,254.6c.5,0,.9-.1,1.3-.3.4-.2.7-.5.9-.9.2-.4.3-.8.3-1.3s-.1-.9-.3-1.3c-.2-.4-.5-.7-.9-.9-.4-.2-.8-.3-1.3-.3s-.9.1-1.3.4c-.4.2-.7.6-.9.9-.2.4-.3.8-.3,1.3s.1.9.3,1.3c.2.4.5.7.9,1,.4.2.8.4,1.3.4ZM124.1,256.2c-.5,0-1.1,0-1.6-.3-.5-.2-1-.5-1.5-1-.4-.5-.8-1.1-1-1.8-.3-.8-.4-1.7-.4-2.8s.1-2,.3-2.9c.2-.8.5-1.5.9-2.1.4-.6.9-1,1.5-1.3.6-.3,1.2-.5,1.9-.5s1.4.1,2,.4c.6.3,1,.7,1.4,1.2.4.5.6,1.1.7,1.7h-1.8c-.1-.5-.4-.9-.7-1.3-.4-.3-.9-.5-1.4-.5-.9,0-1.6.4-2.1,1.2-.5.8-.8,1.9-.8,3.3h0c.2-.3.5-.6.8-.9.3-.3.7-.4,1-.6.4-.1.8-.2,1.2-.2.7,0,1.4.2,1.9.5.6.3,1.1.8,1.4,1.4.3.6.5,1.3.5,2.1s-.2,1.5-.5,2.1c-.4.6-.9,1.1-1.5,1.5-.6.4-1.4.6-2.3.6ZM124.1,254.6c.5,0,.9-.1,1.3-.3.4-.2.7-.5.9-.9.2-.4.3-.8.3-1.3s-.1-.9-.3-1.3c-.2-.4-.5-.7-.9-.9-.4-.2-.8-.3-1.3-.3s-.9.1-1.3.4c-.4.2-.7.6-.9.9-.2.4-.3.8-.3,1.3s.1.9.3,1.3c.2.4.5.7.9,1,.4.2.8.4,1.3.4ZM129.9,256v-1.3l4.2-4.3c.4-.5.8-.9,1.1-1.2.3-.4.5-.7.7-1,.1-.3.2-.7.2-1s0-.8-.3-1.1c-.2-.3-.5-.5-.8-.7-.3-.2-.7-.2-1.1-.2s-.8,0-1.2.3c-.3.2-.6.4-.8.8-.2.3-.3.7-.3,1.2h-1.8c0-.8.2-1.4.5-2,.3-.6.8-1,1.4-1.3.6-.3,1.3-.5,2.1-.5s1.5.2,2.1.5c.6.3,1.1.7,1.4,1.3.3.5.5,1.1.5,1.8s0,.9-.3,1.3c-.2.4-.5.9-.9,1.5-.4.5-1,1.2-1.8,1.9l-2.5,2.6h0c0,0,5.6,0,5.6,0v1.6h-8.1Z"/>
  <line class="st2" x1="33" y1="98.8" x2="449" y2="98.8"/>
  <path class="st8" d="M395.8,130.3c-13.1-7.1-27.8-10.6-42.7-10.3-14.9.3-29.4,4.5-42.2,12.2-12.8,7.6-23.4,18.5-30.7,31.4-7.3,13-11.2,27.6-11.2,42.5h17.6c0-11.9,3-23.5,8.9-33.8,5.8-10.3,14.2-18.9,24.4-25,10.2-6.1,21.7-9.4,33.6-9.7,11.8-.3,23.5,2.5,34,8.2l8.4-15.5Z"/>
  <path class="st1" d="M390.5,148.5l9-15.5"/>
  <path class="st1" d="M396,152l11-14"/>
  <path class="st1" d="M402,157l11-13"/>
  <path class="st1" d="M407,162l12-13"/>
  <path class="st1" d="M411,167l13-11"/>
  <path class="st1" d="M413,172l16-8"/>
  <path class="st1" d="M418,178l13-6"/>
  <path class="st1" d="M420,185l15-6"/>
  <path class="st1" d="M421,192l17-5"/>
  <path class="st1" d="M422,199l17-3"/>
  <path class="st1" d="M422,205h17"/>
  <path class="st9" d="M337.3,202l10.2-20.1v-.2h-11.8v-3h15.4v3.1l-10.1,20.1h-3.7ZM361,202.3c-1.6,0-3-.3-4.2-.8-1.2-.5-2.2-1.3-2.9-2.2-.7-1-1.1-2.1-1.1-3.3h3.5c0,.7.3,1.3.7,1.8s1,.9,1.6,1.2c.7.3,1.5.4,2.3.4s1.7-.2,2.4-.5c.7-.3,1.3-.8,1.7-1.3.4-.6.6-1.2.6-2s-.2-1.5-.6-2.1c-.4-.6-1-1.1-1.7-1.4-.8-.3-1.7-.5-2.8-.5h-2v-2.9h2c.9,0,1.6-.2,2.3-.5.7-.3,1.2-.7,1.5-1.3.4-.6.6-1.2.6-2s-.2-1.3-.5-1.9c-.3-.5-.8-1-1.4-1.2-.6-.3-1.3-.5-2.1-.5s-1.5.1-2.1.4c-.7.3-1.2.7-1.6,1.2-.4.5-.6,1.1-.6,1.8h-3.4c0-1.3.4-2.4,1.1-3.3.7-1,1.6-1.7,2.8-2.2,1.2-.5,2.5-.8,3.9-.8s2.8.3,3.9.9c1.1.6,1.9,1.3,2.5,2.3.6,1,.9,2,.9,3.1s-.4,2.4-1.1,3.3c-.7.9-1.7,1.5-2.9,1.8v.2c1.5.2,2.7.9,3.6,1.8.9,1,1.3,2.2,1.3,3.7s-.4,2.4-1.1,3.4c-.7,1-1.7,1.8-2.9,2.4-1.2.6-2.6.9-4.2.9Z"/>
  <path class="st8" d="M327.1,220.5h1.6l2.5,4.3h.1l2.5-4.3h1.6l-3.4,5.7v3.7h-1.4v-3.7l-3.4-5.7ZM337.9,230.1c-.7,0-1.2-.2-1.7-.5-.5-.3-.9-.7-1.2-1.3-.3-.6-.4-1.2-.4-1.9s.1-1.4.4-1.9c.3-.6.7-1,1.2-1.3.5-.3,1.1-.5,1.7-.5s1.3.2,1.7.5c.5.3.9.7,1.2,1.3.3.6.4,1.2.4,1.9s-.1,1.4-.4,1.9c-.3.6-.7,1-1.2,1.3-.5.3-1.1.5-1.7.5ZM337.9,229c.4,0,.8-.1,1.1-.3.3-.2.5-.5.6-.9.1-.4.2-.8.2-1.2s0-.9-.2-1.3c-.1-.4-.3-.7-.6-.9-.3-.2-.6-.3-1.1-.3s-.8.1-1.1.3c-.3.2-.5.5-.6.9-.1.4-.2.8-.2,1.3s0,.9.2,1.2c.1.4.3.7.6.9.3.2.6.3,1.1.3ZM346.7,227.1v-4.2h1.4v7.1h-1.3v-1.2h0c-.2.4-.4.7-.8.9-.4.3-.8.4-1.3.4-.5,0-.9-.1-1.2-.3-.3-.2-.6-.5-.8-.9-.2-.4-.3-.9-.3-1.5v-4.5h1.4v4.4c0,.5.1.9.4,1.1.3.3.6.4,1,.4.3,0,.5,0,.8-.2.3-.1.5-.3.6-.6.2-.3.3-.6.3-1ZM349.4,230v-7.1h1.3v1.1h0c.1-.4.4-.7.7-.9.3-.2.7-.3,1.1-.3s.2,0,.3,0c.1,0,.2,0,.3,0v1.3c0,0-.2,0-.3,0-.1,0-.3,0-.4,0-.3,0-.6,0-.9.2-.3.1-.5.3-.6.6-.1.2-.2.5-.2.8v4.3h-1.4ZM362.1,224.6l-1.3.2c0-.2-.2-.5-.4-.7-.2-.2-.5-.3-1-.3s-.7,0-1,.3c-.3.2-.4.4-.4.7s0,.4.3.6c.2.1.5.3.8.4l1.1.3c.6.1,1.1.4,1.5.7.3.3.5.7.5,1.2s-.1.8-.4,1.1c-.2.3-.6.6-1,.8-.4.2-.9.3-1.5.3s-1.4-.2-1.9-.5c-.5-.3-.8-.8-.9-1.4l1.3-.2c0,.3.3.6.5.8.3.2.6.3,1,.3s.8,0,1.1-.3c.3-.2.4-.4.4-.7,0-.4-.3-.8-1-.9l-1.2-.3c-.7-.2-1.2-.4-1.5-.7-.3-.3-.5-.7-.5-1.2s.1-.8.3-1.1c.2-.3.6-.6,1-.7.4-.2.9-.3,1.4-.3.8,0,1.4.2,1.8.5.4.3.7.8.9,1.3ZM366.1,230.1c-.7,0-1.3-.2-1.8-.5-.5-.3-.9-.7-1.1-1.3-.3-.6-.4-1.2-.4-1.9s.1-1.4.4-1.9c.3-.6.7-1,1.1-1.3.5-.3,1.1-.5,1.7-.5s1,.1,1.4.3c.4.2.8.5,1,.8.3.4.4.8.5,1.3h-1.3c0-.2-.1-.4-.3-.6-.1-.2-.3-.3-.5-.4-.2-.1-.5-.2-.8-.2s-.7.1-1,.3c-.3.2-.5.5-.7.9-.2.4-.2.8-.2,1.3s0,1,.2,1.3c.2.4.4.7.7.9.3.2.6.3,1,.3s.7-.1,1-.3c.3-.2.5-.5.5-.9h1.3c0,.5-.2.9-.4,1.2-.2.4-.6.6-1,.9s-.9.3-1.5.3ZM373,230.1c-.7,0-1.2-.2-1.7-.5-.5-.3-.9-.7-1.2-1.3-.3-.6-.4-1.2-.4-1.9s.1-1.4.4-1.9c.3-.6.7-1,1.2-1.3.5-.3,1.1-.5,1.7-.5s1.2.2,1.7.5c.5.3.9.7,1.2,1.3.3.6.4,1.2.4,1.9s-.1,1.4-.4,1.9c-.3.6-.7,1-1.2,1.3-.5.3-1.1.5-1.7.5ZM373,229c.4,0,.8-.1,1.1-.3.3-.2.5-.5.6-.9.1-.4.2-.8.2-1.2s0-.9-.2-1.3c-.1-.4-.3-.7-.6-.9-.3-.2-.6-.3-1.1-.3s-.8.1-1.1.3c-.3.2-.5.5-.6.9-.1.4-.2.8-.2,1.3s0,.9.2,1.2c.1.4.3.7.6.9.3.2.6.3,1.1.3ZM377.3,230v-7.1h1.3v1.1h0c.1-.4.4-.7.7-.9.3-.2.7-.3,1.1-.3s.2,0,.3,0c.1,0,.2,0,.3,0v1.3c0,0-.2,0-.3,0-.1,0-.3,0-.4,0-.3,0-.6,0-.9.2-.3.1-.5.3-.6.6-.1.2-.2.5-.2.8v4.3h-1.4ZM384.6,230.1c-.7,0-1.3-.1-1.8-.5-.5-.3-.9-.7-1.2-1.3-.3-.5-.4-1.2-.4-1.9s.1-1.4.4-1.9c.3-.6.6-1,1.1-1.3.5-.3,1.1-.5,1.7-.5s.8,0,1.2.2c.4.1.7.3,1,.6.3.3.5.7.7,1.1.2.5.3,1,.3,1.6v.5h-5.6v-1h4.9l-.6.3c0-.4,0-.8-.2-1.2-.1-.3-.3-.6-.6-.8-.3-.2-.6-.3-1-.3s-.7,0-1,.3c-.3.2-.5.4-.6.8-.1.3-.2.7-.2,1v.7c0,.5,0,.9.3,1.2.2.3.4.6.7.8.3.2.7.3,1.1.3s.5,0,.7-.1c.2,0,.4-.2.6-.3.2-.2.3-.3.4-.6l1.3.2c-.1.4-.3.7-.6,1-.3.3-.6.5-1,.7-.4.2-.9.2-1.4.2Z"/>
  <g class="st4">
    <path class="st10" d="M64,215.4c0,1.3-1.1,2.4-2.5,2.4s-2.5-1.1-2.5-2.4,1.1-2.4,2.5-2.4,2.5,1.1,2.5,2.4ZM60.2,215.4c0,.7.6,1.2,1.3,1.2s1.3-.6,1.3-1.2-.6-1.2-1.3-1.2-1.3.6-1.3,1.2Z"/>
  </g>
  <path class="st11" d="M50.4,224.9c-.5,0-.9.2-1.2.5-.3.3-.5.7-.5,1.2,0,.5.2.9.5,1.2s.7.5,1.2.5.9-.2,1.2-.5c.3-.3.5-.7.5-1.2,0-.5-.2-.9-.5-1.2-.3-.3-.7-.5-1.2-.5ZM61.6,224.9c-.5,0-.9.2-1.2.5-.3.3-.5.7-.5,1.2,0,.5.2.9.5,1.2.3.3.7.5,1.2.5s.9-.2,1.2-.5.5-.7.5-1.2c0-.5-.2-.9-.5-1.2-.3-.3-.7-.5-1.2-.5ZM56.4,220.2v.2c0,0,.3,0,.3,0l1,.4-1,.5h-.2c0,0,0,.3,0,.3l-.4.9-.4-.9v-.2c0,0-.3,0-.3,0l-1-.5,1-.4h.2c0,0,0-.3,0-.3l.4-.9.4.9ZM50.4,213.7c-.5,0-.9.2-1.2.5s-.5.7-.5,1.2c0,.5.2.9.5,1.2.3.3.7.5,1.2.5s.9-.2,1.2-.5c.3-.3.5-.7.5-1.2,0-.5-.2-.9-.5-1.2-.3-.3-.7-.5-1.2-.5ZM50.3,217.3h-.4c-.4-.2-.7-.4-1-.8-.3-.3-.4-.7-.4-1.2,0-.5.2-1,.6-1.3s.8-.6,1.3-.6.8.1,1.2.4c.3.3.6.6.7,1v.4h7.4v-.4c.2-.4.4-.7.8-1,.1-.1.2-.1.3-.1,0,0,.1,0,.2,0,0,0,0,0,.1,0-.2,0-.5.2-.7.4-.3.3-.5.7-.5,1.2,0,.5.2.9.5,1.2.3.3.7.5,1.2.5s.9-.2,1.2-.5c.2-.2.4-.5.5-.8,0,.1,0,.2,0,.4,0,.2,0,.3-.2.4-.3.3-.6.6-1,.7h-.4v7.4h.4c.4.2.7.4,1,.8.3.3.4.7.4,1.2,0,.5-.2,1-.6,1.3s-.8.6-1.3.6-.8-.1-1.2-.4c-.3-.3-.6-.6-.7-1v-.4h-7.4v.4c-.2.4-.4.7-.8,1-.3.3-.7.4-1.2.4s-1-.2-1.3-.6-.6-.8-.6-1.3c0-.5.1-.8.4-1.2.3-.3.6-.6,1-.7h.4v-7.4ZM61.5,217.3h-.4c-.3-.2-.6-.3-.9-.6s-.4-.5-.5-.9v-.4h-7.4v.4c-.2.3-.3.6-.6.9s-.5.4-.9.5h-.4v7.4h.4c.3.2.6.3.9.6s.4.5.5.9v.4h7.4v-.4c.2-.3.3-.6.6-.9s.5-.4.9-.5h.4v-7.4Z"/>
  <path class="st12" d="M56.4,220.1v.2c0,0,.3,0,.3,0l1,.4-1,.4h-.2c0,0,0,.3,0,.3l-.4.9-.4-.9v-.2c0,0-.3,0-.3,0l-1-.4,1-.4h.2c0,0,0-.2,0-.2l.4-.9.4.9Z"/>
  <path class="st9" d="M50,140.8v-5.8h5.5v5.8h-5.5ZM57.6,148.9v-5.8h5.5v5.8h-5.5ZM50,148.9v-5.8h5.5v5.8h-5.5ZM51.1,139.7h3.3v-3.5h-3.3v3.5ZM58.7,147.8h3.3v-3.5h-3.3v3.5ZM51.1,147.8h3.3v-3.5h-3.3v3.5Z"/>
  <path class="st8" d="M60.1,142.2l-3.9-4.1,3.9-4.1,3.9,4.1-3.9,4.1ZM60.2,140.7l2.3-2.5-2.3-2.5-2.3,2.5,2.3,2.5Z"/>
  <path class="st9" d="M50.9,309.4h2.7l4.6,11.3h.2l4.6-11.3h2.7v14.6h-2.1v-10.5h-.1l-4.3,10.5h-1.7l-4.3-10.5h-.1v10.5h-2.1v-14.6ZM72.5,324.2c-1,0-1.9-.2-2.7-.7-.8-.5-1.4-1.1-1.8-2-.4-.8-.6-1.8-.6-2.9s.2-2.1.6-3c.4-.9,1-1.5,1.8-2,.8-.5,1.7-.7,2.7-.7s1.9.2,2.7.7c.8.5,1.4,1.1,1.8,2,.4.8.6,1.8.6,3s-.2,2.1-.6,2.9c-.4.8-1,1.5-1.8,2-.8.5-1.7.7-2.7.7ZM72.5,322.4c.7,0,1.2-.2,1.7-.5.4-.4.8-.8,1-1.4.2-.6.3-1.2.3-1.9s-.1-1.3-.3-1.9c-.2-.6-.5-1.1-1-1.4-.4-.4-1-.5-1.7-.5s-1.2.2-1.7.5c-.4.4-.8.8-1,1.4-.2.6-.3,1.2-.3,1.9s.1,1.3.3,1.9c.2.6.5,1,1,1.4.4.4,1,.5,1.7.5ZM81.2,317.5v6.5h-2.1v-10.9h2.1v1.8h.1c.2-.6.6-1.1,1.2-1.4.5-.4,1.2-.5,2-.5s1.4.2,1.9.5c.6.3,1,.8,1.3,1.4.3.6.5,1.4.5,2.3v6.9h-2.1v-6.7c0-.8-.2-1.4-.6-1.9-.4-.5-1-.7-1.7-.7s-.9.1-1.3.3c-.4.2-.7.5-.9.9-.2.4-.3.9-.3,1.5ZM95.3,313.1v1.7h-6v-1.7h6ZM90.9,310.5h2.1v10.3c0,.5.1.9.3,1.1.2.2.5.3,1,.3s.2,0,.4,0c.1,0,.3,0,.4,0l.4,1.8c-.2,0-.4.1-.7.2-.3,0-.5,0-.8,0-.9,0-1.7-.3-2.3-.8-.6-.5-.8-1.2-.8-2.1v-10.7ZM99.2,317.5v6.5h-2.1v-14.6h2.1v5.4h.1c.3-.6.6-1.1,1.2-1.4.5-.4,1.2-.5,2.1-.5s1.4.2,2,.5c.6.3,1,.8,1.3,1.4.3.6.5,1.4.5,2.3v6.9h-2.1v-6.7c0-.8-.2-1.4-.6-1.9-.4-.4-1-.7-1.7-.7s-1,.1-1.3.3c-.4.2-.7.5-.9.9-.2.4-.3.9-.3,1.5ZM110.4,309.4v14.6h-2.1v-14.6h2.1ZM113.8,328.1c-.3,0-.6,0-.9,0-.3,0-.4-.1-.6-.2l.5-1.7h.1c.5.2,1,.2,1.4,0,.4-.1.7-.6.9-1.3l.3-.7-4-11.1h2.3l2.8,8.5h.1l2.8-8.5h2.3l-4.5,12.4c-.2.6-.5,1.1-.8,1.4-.3.4-.7.7-1.2.9-.4.2-1,.3-1.6.3ZM127.4,324v-10.9h2v1.7h.1c.2-.6.6-1,1.1-1.4.5-.3,1.1-.5,1.7-.5s.3,0,.5,0c.2,0,.3,0,.4,0v2c0,0-.2,0-.5,0-.2,0-.4,0-.7,0-.5,0-1,.1-1.3.3-.4.2-.7.5-.9.9-.2.4-.3.8-.3,1.3v6.6h-2.1ZM138.5,324.2c-1.1,0-2-.2-2.8-.7-.8-.5-1.4-1.1-1.8-2-.4-.8-.6-1.8-.6-3s.2-2.1.6-3c.4-.9,1-1.5,1.7-2,.8-.5,1.6-.7,2.7-.7s1.2.1,1.8.3c.6.2,1.1.5,1.6,1,.5.4.8,1,1.1,1.7.3.7.4,1.5.4,2.5v.8h-8.7v-1.6h7.6l-1,.5c0-.7-.1-1.3-.3-1.8-.2-.5-.5-.9-.9-1.2-.4-.3-.9-.4-1.5-.4s-1.1.1-1.6.4c-.4.3-.8.7-1,1.2-.2.5-.3,1-.3,1.6v1.1c0,.7.1,1.4.4,1.9.3.5.6.9,1.1,1.2.5.3,1,.4,1.6.4s.8,0,1.1-.2c.3-.1.6-.3.9-.5.2-.2.4-.5.5-.9l2,.4c-.2.6-.4,1.1-.9,1.5s-.9.8-1.6,1c-.6.2-1.3.4-2.1.4ZM153.6,313.1l-3.9,10.9h-2.3l-4-10.9h2.3l2.8,8.4h.1l2.8-8.4h2.3ZM159.1,324.2c-1.1,0-2-.2-2.8-.7s-1.4-1.1-1.8-2c-.4-.8-.6-1.8-.6-3s.2-2.1.6-3c.4-.9,1-1.5,1.7-2,.8-.5,1.6-.7,2.7-.7s1.2.1,1.8.3c.6.2,1.1.5,1.6,1,.5.4.8,1,1.1,1.7.3.7.4,1.5.4,2.5v.8h-8.7v-1.6h7.6l-1,.5c0-.7-.1-1.3-.3-1.8-.2-.5-.5-.9-.9-1.2-.4-.3-.9-.4-1.5-.4s-1.1.1-1.6.4c-.4.3-.8.7-1,1.2-.2.5-.3,1-.3,1.6v1.1c0,.7.1,1.4.4,1.9.3.5.6.9,1.1,1.2.5.3,1,.4,1.6.4s.8,0,1.1-.2c.3-.1.6-.3.9-.5.2-.2.4-.5.5-.9l2,.4c-.2.6-.4,1.1-.9,1.5-.4.4-.9.8-1.6,1-.6.2-1.3.4-2.1.4ZM167.4,317.5v6.5h-2.1v-10.9h2v1.8h.1c.2-.6.6-1.1,1.2-1.4.5-.4,1.2-.5,2-.5s1.4.2,1.9.5c.6.3,1,.8,1.3,1.4.3.6.5,1.4.5,2.3v6.9h-2.1v-6.7c0-.8-.2-1.4-.6-1.9-.4-.5-1-.7-1.7-.7s-.9.1-1.3.3c-.4.2-.7.5-.9.9-.2.4-.3.9-.3,1.5ZM183.3,319.5v-6.4h2.1v10.9h-2.1v-1.9h-.1c-.3.6-.7,1.1-1.2,1.5-.5.4-1.2.6-2,.6-.7,0-1.3-.2-1.9-.5-.5-.3-1-.8-1.3-1.4-.3-.6-.5-1.4-.5-2.3v-6.9h2.1v6.7c0,.7.2,1.3.6,1.8.4.4,1,.7,1.6.7.4,0,.8,0,1.2-.3.4-.2.7-.5,1-.9.3-.4.4-.9.4-1.5ZM192.2,324.2c-1.1,0-2-.2-2.8-.7-.8-.5-1.4-1.1-1.8-2-.4-.8-.6-1.8-.6-3s.2-2.1.6-3c.4-.9,1-1.5,1.7-2,.8-.5,1.6-.7,2.7-.7s1.2.1,1.8.3c.6.2,1.1.5,1.6,1,.5.4.8,1,1.1,1.7.3.7.4,1.5.4,2.5v.8h-8.7v-1.6h7.6l-1,.5c0-.7-.1-1.3-.3-1.8-.2-.5-.5-.9-.9-1.2-.4-.3-.9-.4-1.5-.4s-1.1.1-1.6.4c-.4.3-.8.7-1,1.2-.2.5-.3,1-.3,1.6v1.1c0,.7.1,1.4.4,1.9s.6.9,1.1,1.2c.5.3,1,.4,1.6.4s.8,0,1.1-.2c.3-.1.6-.3.9-.5.2-.2.4-.5.5-.9l2,.4c-.2.6-.5,1.1-.9,1.5-.4.4-.9.8-1.6,1-.6.2-1.3.4-2.1.4Z"/>
  <path class="st5" d="M102.5,396.4c-12.2,16-25.5,10.5-33,8.5v101.5h365v-95c.2-.8-6,4.1-16,4.5-12.5.5-21.5-16.5-36.5-35s-33,40.5-56.5,26-23-10.5-48,0c-25,10.5-45.4-11-62.5-44-15-29-27.5,7-42.5,26.5s-18.3,26.2-38,13.5c-15.5-10-19-23.5-32-6.5Z"/>
  <path class="st9" d="M75.4,506.2c-.4,0-.8,0-1.1-.2-.3-.2-.5-.4-.7-.7-.2-.3-.2-.7-.2-1.1h.8c0,.2,0,.4.1.6,0,.2.2.3.4.4.2.1.4.2.7.2s.5,0,.7-.2c.2-.1.3-.2.3-.4,0-.2.1-.4.1-.6v-5.1h.8v5.1c0,.6-.2,1.1-.5,1.5-.3.3-.8.5-1.4.5ZM80.4,506.2c-.4,0-.7,0-1-.2-.3-.1-.5-.3-.6-.6-.1-.2-.2-.5-.2-.8s0-.6.3-.9c.2-.2.4-.4.8-.5.3-.1.7-.2,1.2-.2h1.3c0-.3,0-.6-.2-.8,0-.2-.2-.4-.4-.5-.2-.1-.4-.2-.7-.2s-.6,0-.8.2c-.2.2-.4.4-.4.7h-.9c0-.4.2-.7.4-.9.2-.2.5-.4.8-.6.3-.1.6-.2,1-.2s.9,0,1.2.3c.3.2.5.4.7.7.2.3.2.7.2,1.1v3.1h-.8v-.9c-.1.1-.2.3-.3.4,0,.1-.2.2-.4.3-.1,0-.3.2-.5.2-.2,0-.4,0-.6,0ZM80.5,505.5c.2,0,.4,0,.6-.1.2,0,.4-.2.5-.4.1-.2.2-.4.3-.6,0-.2.1-.4.1-.6h0s-1.3,0-1.3,0c-.3,0-.6,0-.8.1-.2,0-.3.2-.4.3,0,.1-.1.3-.1.5s0,.3.1.5c0,.1.2.2.4.3.2,0,.4.1.6.1ZM84.1,506.1v-5h.8v.9c.2-.3.4-.6.7-.7.3-.2.6-.3,1-.3s.7,0,1,.2c.3.2.5.4.7.7.2.3.2.7.2,1.2v3h-.8v-2.9c0-.5-.1-.9-.3-1.1-.2-.3-.5-.4-.9-.4s-.5,0-.8.2c-.2.1-.4.3-.5.6-.1.3-.2.6-.2,1v2.7h-.8ZM126,506.1v-7h4.3v.7h-3.4v2.5h2.9v.7h-2.9v3.2h-.8ZM133.2,506.2c-.5,0-.9-.1-1.3-.3-.4-.2-.6-.5-.9-.9-.2-.4-.3-.9-.3-1.4s.1-1,.3-1.4c.2-.4.5-.7.9-.9.4-.2.8-.3,1.3-.3s.9.1,1.2.3c.3.2.6.5.8.9.2.4.3.7.3,1.2v.2c0,0,0,.2,0,.2h-4.1v-.7h3.3c0-.5-.2-.8-.5-1.1-.3-.3-.6-.4-1.1-.4s-.6,0-.8.2c-.2.1-.4.3-.6.6-.1.2-.2.6-.2.9v.3c0,.4,0,.8.2,1,.2.3.4.5.6.6.2.1.5.2.8.2s.6,0,.9-.2c.2-.2.4-.4.5-.6h.8c0,.3-.2.6-.4.8-.2.2-.4.4-.8.6-.3.1-.6.2-1,.2ZM139.3,506.2c-.3,0-.5,0-.8-.1-.2,0-.4-.2-.6-.3-.2-.1-.3-.3-.4-.5v.8h-.8v-7.2h.8v3c.2-.3.4-.5.7-.7.3-.2.7-.3,1.1-.3s.9.1,1.3.4c.4.2.7.5.9.9.2.4.3.8.3,1.4s-.1,1-.3,1.4c-.2.4-.5.7-.9.9-.4.2-.8.3-1.3.3ZM139.2,505.5c.3,0,.6,0,.9-.2.3-.2.4-.4.6-.7.1-.3.2-.6.2-1s0-.7-.2-1c-.1-.3-.3-.5-.6-.7-.3-.2-.5-.2-.9-.2s-.6,0-.9.2c-.3.2-.4.4-.6.7-.1.3-.2.6-.2,1s0,.7.2,1c.1.3.3.5.6.7.3.2.5.2.9.2ZM181.7,506.1v-7h1l2.5,4.9,2.5-4.9h1v7h-.8v-5.5l-2.3,4.5h-.6l-2.3-4.5v5.5h-.8ZM191.6,506.2c-.4,0-.7,0-1-.2-.3-.1-.5-.3-.6-.6-.1-.2-.2-.5-.2-.8s0-.6.3-.9c.2-.2.4-.4.8-.5.3-.1.7-.2,1.2-.2h1.3c0-.3,0-.6-.2-.8,0-.2-.2-.4-.4-.5-.2-.1-.4-.2-.7-.2s-.6,0-.8.2-.4.4-.4.7h-.9c0-.4.2-.7.4-.9.2-.2.5-.4.8-.6.3-.1.6-.2,1-.2s.9,0,1.2.3c.3.2.5.4.7.7.2.3.2.7.2,1.1v3.1h-.8v-.9c-.1.1-.2.3-.3.4-.1.1-.2.2-.4.3-.1,0-.3.2-.5.2-.2,0-.4,0-.6,0ZM191.7,505.5c.2,0,.4,0,.6-.1.2,0,.4-.2.5-.4.1-.2.2-.4.3-.6,0-.2.1-.4.1-.6h0s-1.3,0-1.3,0c-.3,0-.6,0-.8.1-.2,0-.3.2-.4.3,0,.1-.1.3-.1.5s0,.3.1.5c0,.1.2.2.4.3.2,0,.4.1.6.1ZM195.3,506.1v-5h.8v1c.2-.2.3-.4.5-.6.2-.2.4-.3.6-.4.3,0,.5-.1.9-.1v.9h-.3c-.2,0-.4,0-.6,0-.2,0-.4.1-.5.3-.1.1-.3.3-.4.5,0,.2-.1.5-.1.8v2.6h-.8ZM234.8,506.1l2.6-7h.9l2.6,7h-.9l-2.1-6-2.1,6h-.9ZM236,504.3l.2-.7h3.2l.2.7h-3.7ZM241.7,508.3v-7.2h.8v.8c.2-.2.3-.3.5-.5.2-.1.4-.3.6-.3.2,0,.5-.1.8-.1.5,0,.9.1,1.3.4.4.2.7.5.9,1,.2.4.3.8.3,1.3s-.1,1-.3,1.4c-.2.4-.5.7-.9.9-.4.2-.8.3-1.3.3s-.8,0-1.1-.2c-.3-.2-.5-.4-.7-.7v3h-.8ZM244.3,505.5c.3,0,.6,0,.9-.2.3-.2.4-.4.6-.7.1-.3.2-.6.2-1s0-.7-.2-1c-.1-.3-.3-.5-.6-.7-.3-.2-.5-.2-.9-.2s-.6,0-.9.2c-.3.2-.4.4-.6.7-.1.3-.2.6-.2,1s0,.7.2,1c.1.3.3.5.6.7.3.2.5.2.9.2ZM247.9,506.1v-5h.8v1c.2-.2.3-.4.5-.6.2-.2.4-.3.6-.4.3,0,.5-.1.9-.1v.9h-.3c-.2,0-.4,0-.6,0-.2,0-.4.1-.5.3-.1.1-.3.3-.4.5,0,.2-.1.5-.1.8v2.6h-.8ZM251.6,506.1v-5h.8v5h-.8ZM252.1,500c-.2,0-.3,0-.4-.2-.1-.1-.2-.3-.2-.4s0-.3.2-.4c.1-.1.3-.2.4-.2s.3,0,.4.2c.1.1.2.2.2.4s0,.3-.2.4c-.1.1-.2.2-.4.2ZM253.9,506.1v-7.2h.8v7.2h-.8ZM297.5,506.1v-7h1l2.5,4.9,2.5-4.9h1v7h-.8v-5.5l-2.3,4.5h-.6l-2.3-4.5v5.5h-.8ZM307.4,506.2c-.4,0-.7,0-1-.2-.3-.1-.5-.3-.6-.6-.1-.2-.2-.5-.2-.8s0-.6.3-.9c.2-.2.4-.4.8-.5.3-.1.7-.2,1.2-.2h1.3c0-.3,0-.6-.1-.8,0-.2-.2-.4-.4-.5-.2-.1-.4-.2-.7-.2s-.6,0-.8.2c-.2.2-.4.4-.4.7h-.9c0-.4.2-.7.4-.9.2-.2.5-.4.8-.6.3-.1.6-.2,1-.2s.9,0,1.2.3c.3.2.5.4.7.7.2.3.2.7.2,1.1v3.1h-.8v-.9c-.1.1-.2.3-.3.4-.1.1-.2.2-.4.3-.1,0-.3.2-.5.2-.2,0-.4,0-.6,0ZM307.5,505.5c.2,0,.4,0,.6-.1.2,0,.4-.2.5-.4.1-.2.2-.4.3-.6,0-.2.1-.4.1-.6h0s-1.3,0-1.3,0c-.3,0-.6,0-.8.1-.2,0-.3.2-.4.3,0,.1-.1.3-.1.5s0,.3.1.5c0,.1.2.2.4.3.2,0,.4.1.6.1ZM311.5,508.3l1.2-2.8h-.3l-2-4.5h.9l1.6,3.9,1.7-3.9h.9l-3.2,7.2h-.9ZM356.9,506.2c-.4,0-.8,0-1.1-.2-.3-.2-.5-.4-.7-.7-.2-.3-.2-.7-.2-1.1h.9c0,.2,0,.4.1.6,0,.2.2.3.4.4.2.1.4.2.7.2s.5,0,.7-.2c.2-.1.3-.2.3-.4,0-.2.1-.4.1-.6v-5.1h.8v5.1c0,.6-.2,1.1-.5,1.5-.3.3-.8.5-1.4.5ZM362,506.2c-.4,0-.7,0-1-.2-.3-.2-.5-.4-.7-.7-.2-.3-.2-.7-.2-1.2v-3h.8v2.9c0,.5.1.9.3,1.1.2.3.5.4.9.4s.5,0,.8-.2c.2-.1.4-.3.5-.6.1-.3.2-.6.2-.9v-2.7h.8v5h-.8v-.9c-.2.3-.4.6-.7.7-.3.2-.6.3-1,.3ZM365.9,506.1v-5h.8v.9c.2-.3.4-.6.7-.7.3-.2.6-.3,1-.3s.7,0,1,.2c.3.2.5.4.7.7.2.3.2.7.2,1.2v3h-.8v-2.9c0-.5-.1-.9-.3-1.1-.2-.3-.5-.4-.9-.4s-.5,0-.8.2c-.2.1-.4.3-.5.6-.1.3-.2.6-.2,1v2.7h-.8ZM373.8,506.2c-.5,0-.9-.1-1.3-.3-.4-.2-.6-.5-.9-.9-.2-.4-.3-.9-.3-1.4s.1-1,.3-1.4c.2-.4.5-.7.9-.9.4-.2.8-.3,1.3-.3s.9.1,1.2.3c.3.2.6.5.8.9.2.4.3.7.3,1.2v.2c0,0,0,.2,0,.2h-4.1v-.7h3.3c0-.5-.2-.8-.5-1.1-.3-.3-.6-.4-1.1-.4s-.6,0-.8.2c-.2.1-.4.3-.6.6-.1.2-.2.6-.2.9v.3c0,.4,0,.8.2,1,.2.3.4.5.6.6.2.1.5.2.8.2s.6,0,.9-.2c.2-.2.4-.4.5-.6h.8c0,.3-.2.6-.4.8-.2.2-.5.4-.8.6-.3.1-.6.2-1,.2ZM415,508.3v-.7h.4c.3,0,.4,0,.5-.2.1-.1.2-.3.2-.5v-5.8h.8v5.9c0,.3,0,.6-.2.8-.1.2-.3.4-.5.4-.2.1-.5.2-.8.2h-.5ZM416.5,500c-.2,0-.3,0-.4-.2-.1-.1-.2-.3-.2-.4s0-.3.2-.4c.1-.1.3-.2.4-.2s.3,0,.4.2c.1.1.2.2.2.4s0,.3-.2.4-.2.2-.4.2ZM420.1,506.2c-.4,0-.7,0-1-.2-.3-.2-.5-.4-.7-.7-.2-.3-.2-.7-.2-1.2v-3h.8v2.9c0,.5.1.9.3,1.1.2.3.5.4.9.4s.5,0,.8-.2c.2-.1.4-.3.5-.6.1-.3.2-.6.2-.9v-2.7h.8v5h-.8v-.9c-.2.3-.4.6-.7.7-.3.2-.6.3-1,.3ZM424,506.1v-7.2h.8v7.2h-.8ZM426.7,508.3l1.2-2.8h-.3l-2-4.5h.9l1.6,3.9,1.7-3.9h.9l-3.2,7.2h-.9Z"/>
  <path class="st9" d="M47.9,418.9v-.7l2.5-4h.6v1h-.4l-1.8,2.8h0s3.4,0,3.4,0v.7h-4.4ZM50.7,420.1v-1.7s0-4.1,0-4.1h.8v5.8h-.8ZM55,420.1c-.4,0-.8-.1-1.2-.4-.3-.2-.6-.6-.7-1-.2-.4-.2-1-.2-1.6s0-1.2.3-1.6c.2-.4.4-.8.7-1,.3-.2.7-.4,1.1-.4s.8.1,1.1.4c.3.2.6.6.7,1,.2.4.3,1,.3,1.6s0,1.2-.2,1.6c-.2.4-.4.8-.7,1-.3.2-.7.4-1.2.4ZM55,419.4c.3,0,.5,0,.7-.3.2-.2.3-.4.4-.8,0-.3.1-.7.1-1.2s0-.9-.1-1.2c0-.3-.2-.6-.4-.8-.2-.2-.4-.3-.7-.3-.4,0-.7.2-.9.6-.2.4-.3.9-.3,1.7s0,.9.1,1.2c0,.3.2.6.4.8.2.2.4.3.7.3ZM50.1,448.1c-.4,0-.7,0-1-.2-.3-.1-.5-.3-.7-.6-.2-.2-.3-.5-.3-.8h.9c0,.2,0,.3.2.4.1.1.2.2.4.3.2,0,.4.1.6.1s.4,0,.6-.1c.2,0,.3-.2.4-.3.1-.1.2-.3.2-.5s0-.4-.1-.5c0-.2-.2-.3-.4-.4-.2,0-.4-.1-.7-.1h-.5v-.7h.5c.2,0,.4,0,.6-.1.2,0,.3-.2.4-.3,0-.1.1-.3.1-.5s0-.3-.1-.5c0-.1-.2-.2-.3-.3-.1,0-.3-.1-.5-.1s-.4,0-.5.1c-.2,0-.3.2-.4.3-.1.1-.2.3-.2.5h-.8c0-.3,0-.6.3-.8.2-.2.4-.4.7-.6.3-.1.6-.2,1-.2s.7,0,1,.2c.3.1.5.3.6.6.1.2.2.5.2.8s0,.6-.3.8c-.2.2-.4.4-.7.5h0c.4.1.7.3.9.5.2.2.3.6.3.9s0,.6-.3.9c-.2.3-.4.5-.7.6-.3.1-.7.2-1.1.2ZM54.9,448.1c-.4,0-.8-.1-1.2-.4-.3-.2-.6-.6-.7-1-.2-.4-.2-1-.2-1.6s0-1.2.3-1.6c.2-.4.4-.8.7-1,.3-.2.7-.4,1.1-.4s.8.1,1.1.4c.3.2.6.6.7,1,.2.4.3,1,.3,1.6s0,1.2-.2,1.6c-.2.4-.4.8-.7,1-.3.2-.7.4-1.2.4ZM54.9,447.4c.3,0,.5,0,.7-.3.2-.2.3-.4.4-.8,0-.3.1-.7.1-1.2s0-.9-.1-1.2c0-.3-.2-.6-.4-.8-.2-.2-.4-.3-.7-.3-.4,0-.7.2-.9.6-.2.4-.3.9-.3,1.7s0,.9.1,1.2c0,.3.2.6.4.8.2.2.4.3.7.3ZM48.2,476.1v-.6l2-2c.2-.2.4-.4.5-.6.1-.2.2-.3.3-.5,0-.2.1-.3.1-.5s0-.4-.1-.5c0-.1-.2-.2-.4-.3-.2,0-.3-.1-.5-.1s-.4,0-.5.1c-.2,0-.3.2-.4.4,0,.2-.1.3-.1.5h-.8c0-.4,0-.7.2-.9.2-.3.4-.5.7-.6.3-.1.6-.2,1-.2s.7,0,1,.2c.3.1.5.3.7.6.2.2.2.5.2.8s0,.4-.1.6c0,.2-.2.4-.4.7-.2.3-.5.6-.8.9l-1.2,1.2h0s2.6,0,2.6,0v.8h-3.8ZM54.8,476.1c-.4,0-.8-.1-1.2-.4-.3-.2-.6-.6-.7-1-.2-.4-.2-1-.2-1.6s0-1.2.3-1.6c.2-.4.4-.8.7-1,.3-.2.7-.4,1.1-.4s.8.1,1.1.4c.3.2.6.6.7,1,.2.4.3,1,.3,1.6s0,1.2-.2,1.6c-.2.4-.4.8-.7,1-.3.2-.7.4-1.2.4ZM54.8,475.4c.3,0,.5,0,.7-.3.2-.2.3-.4.4-.8,0-.3.1-.7.1-1.2s0-.9-.1-1.2c0-.3-.2-.6-.4-.8-.2-.2-.4-.3-.7-.3-.4,0-.7.2-.9.6-.2.4-.3.9-.3,1.7s0,.9.1,1.2c0,.3.2.6.4.8.2.2.4.3.7.3ZM51.1,498.2v5.8h-.9v-4.9h0l-1.4.9v-.8l1.4-.9h.8ZM54,504.1c-.4,0-.8-.1-1.2-.4-.3-.2-.6-.6-.7-1-.2-.4-.2-1-.2-1.6s0-1.2.3-1.6c.2-.4.4-.8.7-1,.3-.2.7-.4,1.1-.4s.8.1,1.1.4c.3.2.6.6.7,1,.2.4.3,1,.3,1.6s0,1.2-.2,1.6c-.2.4-.4.8-.7,1-.3.2-.7.4-1.2.4ZM54,503.4c.3,0,.5,0,.7-.3.2-.2.3-.4.4-.8,0-.3.1-.7.1-1.2s0-.9-.1-1.2c0-.3-.2-.6-.4-.8-.2-.2-.4-.3-.7-.3-.4,0-.7.2-.9.6-.2.4-.3.9-.3,1.7s0,.9.1,1.2c0,.3.2.6.4.8.2.2.4.3.7.3Z"/>
  <path class="st7" d="M255.7,461.7c.5,0,.8.4.8.8s-.4.8-.8.8-.8-.4-.8-.8.4-.8.8-.8Z"/>
  <path class="st3" d="M70,404.1c5,3.3,17.5,7.6,27.5-2,12.5-12,13.5-19.5,26-8s26.5,23.6,42.5,3.5c17.5-22,34-60.5,46-39.5s32,61.5,65.5,49.5c10.3-6.2,32.7-16.7,41.5-3.5,5.7,4.7,19.7,10.6,30.5-3,13.5-17,24.5-34,34.5-18s25.5,35.5,38.5,33c10.4-2,12.8-5,12.5-6"/>
</svg>