<?xml version="1.0" encoding="UTF-8"?>
<svg id="Layer_1" xmlns="http://www.w3.org/2000/svg" xmlns:xlink="http://www.w3.org/1999/xlink" version="1.1" viewBox="0 0 387 282">
  <!-- Generator: Adobe Illustrator 29.8.1, SVG Export Plug-In . SVG Version: 2.1.1 Build 2)  -->
  <defs>
    <style>
      .st0, .st1, .st2, .st3 {
        fill: none;
      }

      .st1 {
        stroke: #000220;
        stroke-linecap: round;
        stroke-linejoin: round;
        stroke-width: .6px;
      }

      .st2 {
        stroke: #606283;
      }

      .st4 {
        stroke: #7a8cae;
      }

      .st4, .st5 {
        fill: #fff;
      }

      .st3 {
        opacity: .4;
        stroke: #535e82;
        stroke-dasharray: 3 3;
      }

      .st3, .st6 {
        isolation: isolate;
      }

      .st7 {
        fill: #535e82;
      }

      .st8 {
        fill: #f38ab2;
      }

      .st6 {
        fill: #aeb9e1;
        opacity: .2;
      }

      .st9 {
        fill: #000220;
      }
    </style>
    <clipPath id="clippath">
      <rect class="st0" x=".5" y=".5" width="386" height="281" rx="19.5" ry="19.5"/>
    </clipPath>
  </defs>
  <rect class="st4" x=".5" y=".5" width="386" height="281" rx="19.5" ry="19.5"/>
  <rect class="st6" x="37" y="106" width="47" height="131" rx="6" ry="6"/>
  <rect class="st6" x="90" y="123" width="47" height="114" rx="6" ry="6"/>
  <rect class="st6" x="196" y="138" width="47" height="99" rx="6" ry="6"/>
  <rect class="st6" x="249" y="120" width="47" height="117" rx="6" ry="6"/>
  <rect class="st6" x="302" y="138" width="47" height="99" rx="6" ry="6"/>
  <rect class="st6" x="143" y="116" width="47" height="121" rx="6" ry="6"/>
  <rect class="st8" x="37" y="177" width="47" height="60" rx="6" ry="6"/>
  <rect class="st8" x="90" y="192" width="47" height="45" rx="6" ry="6"/>
  <rect class="st8" x="196" y="187" width="47" height="50" rx="6" ry="6"/>
  <rect class="st8" x="249" y="198" width="47" height="39" rx="6" ry="6"/>
  <rect class="st8" x="302" y="198" width="47" height="39" rx="6" ry="6"/>
  <rect class="st8" x="143" y="207" width="47" height="30" rx="6" ry="6"/>
  <path class="st5" d="M54.2,193.1c-.5,0-.9,0-1.3-.3-.3-.2-.6-.4-.8-.8-.2-.3-.4-.7-.5-1.1,0-.4-.1-.8-.1-1.2,0-.8.1-1.4.3-2,.2-.6.5-1,.9-1.4.4-.3.9-.5,1.5-.5s.8,0,1.1.3c.3.2.6.4.8.7.2.3.3.6.3,1h-.8c0-.4-.2-.7-.5-.9-.3-.2-.6-.3-1-.3s-.7.1-.9.3c-.3.2-.5.5-.7,1-.2.4-.3,1-.3,1.7h0c.1-.1.3-.3.4-.5.2-.2.4-.3.7-.4.3-.1.6-.2.9-.2s.8,0,1.1.3c.3.2.6.4.8.8.2.3.3.7.3,1.2s0,.8-.3,1.1c-.2.4-.5.7-.8.9s-.8.3-1.3.3ZM54.2,192.4c.3,0,.6,0,.8-.2.2-.1.4-.3.6-.6.1-.2.2-.5.2-.8s0-.6-.2-.8c-.1-.2-.3-.4-.6-.5-.2-.1-.5-.2-.8-.2s-.6,0-.8.2c-.2.1-.4.3-.6.6-.1.2-.2.5-.2.8s0,.6.2.8c.1.2.3.4.6.5.2.1.5.2.8.2ZM60.2,193.1c-.5,0-.9,0-1.2-.2-.4-.2-.6-.4-.9-.7-.2-.3-.3-.7-.3-1.1s0-.6.2-.8c.1-.2.3-.5.5-.6.2-.2.4-.3.7-.4-.4-.1-.7-.3-.9-.6-.2-.3-.3-.6-.3-.9s0-.7.3-.9.4-.5.8-.7c.3-.2.7-.2,1.2-.2s.9,0,1.2.2c.3.2.6.4.8.7.2.3.3.6.3.9s-.1.6-.3.9c-.2.3-.5.5-.9.6.3,0,.5.2.7.4.2.2.4.4.5.6.1.2.2.5.2.8s-.1.8-.3,1.1c-.2.3-.5.5-.9.7-.4.2-.8.2-1.2.2ZM60.2,192.4c.5,0,.9-.1,1.2-.4.3-.2.4-.6.4-1s-.1-.8-.4-1c-.3-.2-.7-.4-1.1-.4s-.9.1-1.1.4c-.3.2-.4.6-.4,1s.1.7.4,1c.3.2.7.4,1.2.4ZM60.2,189c.4,0,.8-.1,1-.3.2-.2.4-.5.4-.9s-.1-.7-.4-.9c-.2-.2-.6-.3-1-.3s-.8,0-1,.3c-.2.2-.4.5-.4.9s.1.6.4.9c.2.2.6.3,1,.3ZM64.7,193l4.1-7h.8l-4.1,7h-.8ZM69.1,193.1c-.3,0-.6,0-.8-.2-.2-.1-.4-.3-.6-.6-.1-.3-.2-.6-.2-.9s0-.6.2-.9c.1-.3.3-.4.6-.6.2-.1.5-.2.8-.2s.6,0,.8.2c.2.1.4.3.6.6.1.2.2.5.2.9s0,.6-.2.9c-.1.3-.3.4-.6.6-.2.1-.5.2-.8.2ZM69.1,192.5c.2,0,.3,0,.4-.1.1,0,.2-.2.3-.4,0-.2.1-.3.1-.6s0-.4-.1-.6c0-.2-.2-.3-.3-.3-.1,0-.3-.1-.4-.1s-.3,0-.4.1c-.1,0-.2.2-.3.3,0,.2-.1.3-.1.6s0,.4.1.6c0,.2.2.3.3.4.1,0,.3.1.4.1ZM65.2,189.2c-.3,0-.6,0-.8-.2-.2-.1-.4-.3-.6-.6-.1-.3-.2-.6-.2-.9s0-.6.2-.9c.1-.3.3-.4.6-.6.2-.1.5-.2.8-.2s.6,0,.8.2c.2.1.4.3.6.6.1.2.2.5.2.9s0,.6-.2.9c-.1.3-.3.4-.6.6-.2.1-.5.2-.8.2ZM65.2,188.6c.2,0,.3,0,.4-.1.1,0,.2-.2.3-.4,0-.2.1-.3.1-.6s0-.4-.1-.6c0-.2-.2-.3-.3-.4-.1,0-.3-.1-.4-.1s-.3,0-.4.1c-.1,0-.3.2-.3.4,0,.2-.1.3-.1.6s0,.4.1.6c0,.2.2.3.3.4.1,0,.3.1.4.1Z"/>
  <path class="st5" d="M107.1,207.1c-.5,0-.9,0-1.2-.3-.3-.2-.6-.4-.8-.7-.2-.3-.3-.6-.4-1h.8c0,.4.3.7.5.9.3.2.7.3,1.1.3s.6,0,.8-.2c.2-.2.4-.4.5-.6.1-.3.2-.6.2-.9s0-.6-.2-.9c-.1-.3-.3-.5-.5-.6-.2-.1-.5-.2-.8-.2s-.7,0-1,.2c-.3.2-.5.4-.6.6h-.8l.6-3.8h3.7v.7h-3.1l-.4,2.2c.2-.2.4-.4.7-.5.3-.1.6-.2,1-.2s.7,0,.9.2c.3.1.5.3.7.5.2.2.4.5.5.8.1.3.2.6.2,1s0,.7-.2,1c-.1.3-.3.6-.5.8-.2.2-.5.4-.8.5-.3.1-.6.2-1,.2ZM113,207.1c-.4,0-.9,0-1.2-.2-.4-.2-.6-.4-.9-.7-.2-.3-.3-.7-.3-1.2h.8c0,.3,0,.5.2.7.1.2.3.4.5.5.2.1.5.2.8.2s.6,0,.8-.2.4-.3.5-.5c.1-.2.2-.4.2-.7s0-.6-.2-.8c-.2-.2-.4-.4-.6-.4-.3-.1-.5-.1-.9-.1h-.5v-.7h.5c.5,0,.8-.1,1.1-.3.3-.2.4-.5.4-.9s-.1-.6-.3-.8c-.2-.2-.5-.3-.9-.3s-.7.1-.9.3c-.2.2-.4.5-.4.9h-.8c0-.4.1-.7.3-1,.2-.3.4-.5.8-.7.3-.2.7-.2,1.1-.2s.8,0,1.1.2c.3.2.5.4.7.6.2.3.2.6.2.9s0,.5-.1.7c0,.2-.2.4-.4.5-.2.2-.4.3-.7.3.3,0,.5.2.7.3.2.2.4.4.5.6.1.2.2.5.2.9s0,.7-.3,1.1c-.2.3-.4.6-.8.8-.3.2-.8.3-1.3.3ZM117.2,207l4.1-7h.8l-4.1,7h-.8ZM121.6,207.1c-.3,0-.6,0-.8-.2-.2-.1-.4-.3-.6-.6-.1-.3-.2-.6-.2-.9s0-.6.2-.9c.1-.3.3-.4.6-.6.2-.1.5-.2.8-.2s.6,0,.8.2c.2.1.4.3.6.6.1.2.2.5.2.9s0,.6-.2.9c-.1.3-.3.4-.6.6-.2.1-.5.2-.8.2ZM121.6,206.5c.2,0,.3,0,.4-.1.1,0,.2-.2.3-.4,0-.2.1-.3.1-.6s0-.4-.1-.6c0-.2-.2-.3-.3-.3-.1,0-.3-.1-.4-.1s-.3,0-.4.1c-.1,0-.2.2-.3.3,0,.2-.1.3-.1.6s0,.4.1.6c0,.2.2.3.3.4.1,0,.3.1.4.1ZM117.7,203.2c-.3,0-.6,0-.8-.2-.2-.1-.4-.3-.6-.6-.1-.3-.2-.6-.2-.9s0-.6.2-.9c.1-.3.3-.4.6-.6.2-.1.5-.2.8-.2s.6,0,.8.2c.2.1.4.3.6.6.1.2.2.5.2.9s0,.6-.2.9c-.1.3-.3.4-.6.6-.2.1-.5.2-.8.2ZM117.7,202.6c.2,0,.3,0,.4-.1.1,0,.2-.2.3-.4s.1-.3.1-.6,0-.4-.1-.6c0-.2-.2-.3-.3-.4-.1,0-.3-.1-.4-.1s-.3,0-.4.1c-.1,0-.3.2-.3.4,0,.2-.1.3-.1.6s0,.4.1.6c0,.2.2.3.3.4.1,0,.3.1.4.1Z"/>
  <path class="st5" d="M213.1,207.1c-.5,0-.9,0-1.2-.3-.3-.2-.6-.4-.8-.7-.2-.3-.3-.6-.4-1h.8c0,.4.3.7.6.9.3.2.7.3,1.1.3s.6,0,.8-.2c.2-.2.4-.4.6-.6.1-.3.2-.6.2-.9s0-.6-.2-.9c-.1-.3-.3-.5-.6-.6-.2-.1-.5-.2-.8-.2s-.7,0-1,.2c-.3.2-.5.4-.6.6h-.8l.6-3.8h3.7v.7h-3l-.4,2.2c.2-.2.4-.4.7-.5.3-.1.6-.2,1-.2s.7,0,.9.2c.3.1.5.3.7.5s.4.5.5.8c.1.3.2.6.2,1s0,.7-.2,1c-.1.3-.3.6-.5.8-.2.2-.5.4-.8.5-.3.1-.6.2-1,.2ZM218.8,207.1c-.4,0-.8,0-1.1-.2-.3-.2-.6-.4-.8-.7-.2-.3-.3-.6-.3-1h.8c0,.4.2.7.5.9.3.2.6.3,1,.3s.7-.1.9-.3c.3-.2.5-.5.7-1,.2-.4.3-1,.3-1.7h0c0,0-.2.3-.4.5-.2.2-.4.3-.7.4-.3.1-.6.2-.9.2s-.8,0-1.1-.3c-.3-.2-.6-.4-.9-.8-.2-.3-.3-.7-.3-1.2s0-.8.3-1.1c.2-.4.5-.7.8-.9s.8-.3,1.3-.3.9,0,1.3.3c.3.2.6.4.8.8.2.3.4.7.5,1.1,0,.4.1.8.1,1.2,0,.8-.1,1.4-.3,2-.2.6-.5,1-.9,1.4-.4.3-.9.5-1.5.5ZM218.8,203.8c.3,0,.6,0,.8-.2.2-.1.4-.3.6-.6.1-.2.2-.5.2-.8s0-.6-.2-.8c-.1-.2-.3-.4-.6-.5-.2-.1-.5-.2-.8-.2s-.6,0-.8.2c-.2.1-.4.3-.6.6s-.2.5-.2.8,0,.6.2.8.3.4.6.6c.2.1.5.2.8.2ZM223.4,207l4.1-7h.8l-4.1,7h-.8ZM227.8,207.1c-.3,0-.6,0-.8-.2-.2-.1-.4-.3-.6-.6-.1-.3-.2-.6-.2-.9s0-.6.2-.9c.1-.3.3-.4.6-.6.2-.1.5-.2.8-.2s.6,0,.8.2c.2.1.4.3.6.6.1.2.2.5.2.9s0,.6-.2.9c-.1.3-.3.4-.6.6-.2.1-.5.2-.8.2ZM227.8,206.5c.2,0,.3,0,.4-.1.1,0,.2-.2.3-.4,0-.2.1-.3.1-.6s0-.4-.1-.6c0-.2-.2-.3-.3-.3-.1,0-.3-.1-.4-.1s-.3,0-.4.1c-.1,0-.2.2-.3.3,0,.2-.1.3-.1.6s0,.4.1.6c0,.2.2.3.3.4.1,0,.3.1.4.1ZM224,203.2c-.3,0-.6,0-.8-.2-.2-.1-.4-.3-.6-.6-.1-.3-.2-.6-.2-.9s0-.6.2-.9c.1-.3.3-.4.6-.6.2-.1.5-.2.8-.2s.6,0,.8.2c.2.1.4.3.6.6.1.2.2.5.2.9s0,.6-.2.9c-.1.3-.3.4-.6.6-.2.1-.5.2-.8.2ZM224,202.6c.2,0,.3,0,.4-.1.1,0,.2-.2.3-.4s.1-.3.1-.6,0-.4-.1-.6c0-.2-.2-.3-.3-.4-.1,0-.3-.1-.4-.1s-.3,0-.4.1c-.1,0-.3.2-.3.4,0,.2-.1.3-.1.6s0,.4.1.6c0,.2.2.3.3.4.1,0,.3.1.4.1Z"/>
  <path class="st5" d="M266.1,214.1c-.5,0-.9,0-1.2-.3-.3-.2-.6-.4-.8-.7-.2-.3-.3-.6-.4-1h.8c0,.4.3.7.6.9.3.2.7.3,1.1.3s.6,0,.9-.2c.2-.2.4-.4.6-.6.1-.3.2-.6.2-.9s0-.6-.2-.9c-.1-.3-.3-.5-.6-.6-.2-.1-.5-.2-.8-.2s-.7,0-1,.2c-.3.2-.5.4-.6.6h-.8l.6-3.8h3.7v.7h-3.1l-.4,2.2c.2-.2.4-.4.7-.5.3-.1.6-.2,1-.2s.7,0,.9.2c.3.1.5.3.7.5.2.2.4.5.5.8.1.3.2.6.2,1s0,.7-.2,1c-.1.3-.3.6-.5.8-.2.2-.5.4-.8.5-.3.1-.6.2-1,.2ZM272.5,214.1c-.6,0-1.1-.1-1.6-.4-.4-.3-.8-.7-1-1.3-.2-.5-.3-1.2-.3-1.9s.1-1.4.3-1.9c.2-.5.6-1,1-1.3.4-.3,1-.5,1.6-.5s1.1.2,1.6.5c.4.3.8.7,1,1.3.2.5.3,1.2.3,1.9s-.1,1.4-.3,1.9c-.2.5-.6,1-1,1.3-.4.3-1,.4-1.6.4ZM272.4,213.4c.4,0,.8-.1,1.1-.3.3-.2.6-.6.7-1,.2-.4.3-.9.3-1.6s0-1.1-.3-1.5c-.2-.4-.4-.8-.7-1-.3-.2-.7-.3-1.1-.3s-.8.1-1.1.3c-.3.2-.6.6-.7,1-.2.4-.3.9-.3,1.5s0,1.1.3,1.6c.2.4.4.8.7,1,.3.2.7.3,1.1.3ZM277.3,214l4.1-7h.8l-4.1,7h-.8ZM281.7,214.1c-.3,0-.6,0-.8-.2-.2-.1-.4-.3-.6-.6-.1-.3-.2-.6-.2-.9s0-.6.2-.9c.1-.3.3-.4.6-.6.2-.1.5-.2.8-.2s.6,0,.8.2c.2.1.4.3.6.6.1.2.2.5.2.9s0,.6-.2.9c-.1.3-.3.4-.6.6-.2.1-.5.2-.8.2ZM281.7,213.5c.2,0,.3,0,.4-.1.1,0,.2-.2.3-.4,0-.2.1-.3.1-.6s0-.4-.1-.6c0-.2-.2-.3-.3-.3-.1,0-.3-.1-.4-.1s-.3,0-.4.1c-.1,0-.2.2-.3.3,0,.2-.1.3-.1.6s0,.4.1.6c0,.2.2.3.3.4.1,0,.3.1.4.1ZM277.8,210.2c-.3,0-.6,0-.8-.2-.2-.1-.4-.3-.6-.6-.1-.3-.2-.6-.2-.9s0-.6.2-.9c.1-.3.3-.4.6-.6.2-.1.5-.2.8-.2s.6,0,.8.2c.2.1.4.3.6.6.1.2.2.5.2.9s0,.6-.2.9c-.1.3-.3.4-.6.6-.2.1-.5.2-.8.2ZM277.8,209.6c.2,0,.3,0,.4-.1.1,0,.2-.2.3-.4s.1-.3.1-.6,0-.4-.1-.6c0-.2-.2-.3-.3-.4-.1,0-.3-.1-.4-.1s-.3,0-.4.1c-.1,0-.3.2-.3.4,0,.2-.1.3-.1.6s0,.4.1.6c0,.2.2.3.3.4.1,0,.3.1.4.1Z"/>
  <path class="st5" d="M319.1,214.1c-.5,0-.9,0-1.2-.3-.3-.2-.6-.4-.8-.7-.2-.3-.3-.6-.4-1h.8c0,.4.3.7.5.9.3.2.7.3,1.1.3s.6,0,.9-.2c.2-.2.4-.4.5-.6.1-.3.2-.6.2-.9s0-.6-.2-.9c-.1-.3-.3-.5-.5-.6-.2-.1-.5-.2-.8-.2s-.7,0-1,.2c-.3.2-.5.4-.6.6h-.8l.6-3.8h3.7v.7h-3l-.4,2.2c.2-.2.4-.4.7-.5.3-.1.6-.2,1-.2s.7,0,.9.2c.3.1.5.3.7.5.2.2.4.5.5.8.1.3.2.6.2,1s0,.7-.2,1c-.1.3-.3.6-.5.8-.2.2-.5.4-.8.5-.3.1-.6.2-1,.2ZM325.5,214.1c-.6,0-1.1-.1-1.6-.4-.4-.3-.8-.7-1-1.3-.2-.5-.4-1.2-.4-1.9s.1-1.4.4-1.9c.2-.5.6-1,1-1.3.4-.3,1-.5,1.6-.5s1.1.2,1.6.5c.4.3.8.7,1,1.3.2.5.4,1.2.4,1.9s-.1,1.4-.4,1.9c-.2.5-.6,1-1,1.3-.4.3-1,.4-1.6.4ZM325.5,213.4c.4,0,.8-.1,1.1-.3.3-.2.6-.6.7-1,.2-.4.3-.9.3-1.6s0-1.1-.3-1.5c-.2-.4-.4-.8-.7-1-.3-.2-.7-.3-1.1-.3s-.8.1-1.1.3c-.3.2-.6.6-.7,1-.2.4-.3.9-.3,1.5s0,1.1.3,1.6c.2.4.4.8.7,1,.3.2.7.3,1.1.3ZM330.3,214l4.1-7h.8l-4.1,7h-.8ZM334.7,214.1c-.3,0-.6,0-.8-.2-.2-.1-.4-.3-.6-.6-.1-.3-.2-.6-.2-.9s0-.6.2-.9c.1-.3.3-.4.6-.6.2-.1.5-.2.8-.2s.6,0,.8.2c.2.1.4.3.6.6.1.2.2.5.2.9s0,.6-.2.9c-.1.3-.3.4-.6.6-.2.1-.5.2-.8.2ZM334.7,213.5c.2,0,.3,0,.4-.1.1,0,.2-.2.3-.4,0-.2.1-.3.1-.6s0-.4-.1-.6c0-.2-.2-.3-.3-.3-.1,0-.3-.1-.4-.1s-.3,0-.4.1c-.1,0-.2.2-.3.3,0,.2-.1.3-.1.6s0,.4.1.6c0,.2.2.3.3.4.1,0,.3.1.4.1ZM330.8,210.2c-.3,0-.6,0-.8-.2-.2-.1-.4-.3-.6-.6-.1-.3-.2-.6-.2-.9s0-.6.2-.9c.1-.3.3-.4.6-.6.2-.1.5-.2.8-.2s.6,0,.8.2c.2.1.4.3.6.6.1.2.2.5.2.9s0,.6-.2.9c-.1.3-.3.4-.6.6-.2.1-.5.2-.8.2ZM330.8,209.6c.2,0,.3,0,.4-.1.1,0,.2-.2.3-.4,0-.2.1-.3.1-.6s0-.4-.1-.6c0-.2-.2-.3-.3-.4-.1,0-.3-.1-.4-.1s-.3,0-.4.1c-.1,0-.3.2-.3.4,0,.2-.1.3-.1.6s0,.4.1.6c0,.2.2.3.3.4.1,0,.3.1.4.1Z"/>
  <path class="st5" d="M160.9,222v-1.5h-3.6v-.6l3.4-4.9h1v4.8h1v.7h-1v1.5h-.8ZM158.3,219.8h2.7v-3.8l-2.7,3.8ZM166.1,222.1c-.5,0-.9,0-1.2-.3-.3-.2-.6-.4-.8-.7-.2-.3-.3-.6-.4-1h.8c0,.4.3.7.6.9s.7.3,1.1.3.6,0,.8-.2c.2-.2.4-.4.6-.6.1-.3.2-.6.2-.9s0-.6-.2-.9-.3-.5-.6-.6c-.2-.1-.5-.2-.8-.2s-.7,0-1,.2c-.3.2-.5.4-.6.6h-.8l.6-3.8h3.7v.7h-3.1l-.4,2.2c.2-.2.4-.4.7-.5.3-.1.6-.2,1-.2s.7,0,.9.2c.3.1.5.3.7.5s.4.5.5.8c.1.3.2.6.2,1s0,.7-.2,1c-.1.3-.3.6-.5.8-.2.2-.5.4-.8.5-.3.1-.6.2-1,.2ZM170.5,222l4.1-7h.8l-4.1,7h-.8ZM174.9,222.1c-.3,0-.6,0-.8-.2-.2-.1-.4-.3-.6-.6-.1-.3-.2-.6-.2-.9s0-.6.2-.9c.1-.3.3-.4.6-.6.2-.1.5-.2.8-.2s.6,0,.8.2c.2.1.4.3.6.6.1.2.2.5.2.9s0,.6-.2.9c-.1.3-.3.4-.6.6-.2.1-.5.2-.8.2ZM174.9,221.5c.2,0,.3,0,.4-.1.1,0,.2-.2.3-.4,0-.2.1-.3.1-.6s0-.4-.1-.6-.2-.3-.3-.3c-.1,0-.3-.1-.4-.1s-.3,0-.4.1c-.1,0-.2.2-.3.3,0,.2-.1.3-.1.6s0,.4.1.6c0,.2.2.3.3.4.1,0,.3.1.4.1ZM171.1,218.2c-.3,0-.6,0-.8-.2-.2-.1-.4-.3-.6-.6-.1-.3-.2-.6-.2-.9s0-.6.2-.9c.1-.3.3-.4.6-.6.2-.1.5-.2.8-.2s.6,0,.8.2c.2.1.4.3.6.6.1.2.2.5.2.9s0,.6-.2.9c-.1.3-.3.4-.6.6-.2.1-.5.2-.8.2ZM171.1,217.6c.2,0,.3,0,.4-.1.1,0,.2-.2.3-.4,0-.2.1-.3.1-.6s0-.4-.1-.6c0-.2-.2-.3-.3-.4-.1,0-.3-.1-.4-.1s-.3,0-.4.1c-.1,0-.3.2-.3.4,0,.2-.1.3-.1.6s0,.4.1.6c0,.2.2.3.3.4.1,0,.3.1.4.1Z"/>
  <path class="st7" d="M47.6,253v-5.6h.9l1.9,3.8,1.9-3.8h1v5.6h-.8v-4.2l-1.7,3.4h-.6l-1.7-3.4v4.2h-.8ZM55.9,253.1c-.4,0-.7,0-1-.3-.3-.2-.5-.4-.7-.7-.2-.3-.3-.7-.3-1.1s0-.8.3-1.1c.2-.3.4-.6.7-.7.3-.2.6-.3,1-.3s.7,0,1,.3c.3.2.5.4.7.7.2.3.3.7.3,1.1s0,.8-.3,1.1c-.2.3-.4.6-.7.7s-.6.3-1,.3ZM55.9,252.4c.2,0,.4,0,.6-.2.2-.1.3-.3.4-.5.1-.2.2-.5.2-.8s0-.6-.2-.8c-.1-.2-.3-.4-.4-.5-.2-.1-.4-.2-.6-.2s-.4,0-.6.2c-.2.1-.3.3-.4.5-.1.2-.2.5-.2.8s0,.6.2.8c.1.2.3.4.4.5.2.1.4.2.6.2ZM58.5,253v-4h.7v.7c.2-.2.4-.4.6-.6.2-.1.5-.2.8-.2s.6,0,.8.2c.2.1.4.3.5.6.1.3.2.6.2,1v2.4h-.8v-2.3c0-.4,0-.7-.2-.8-.2-.2-.4-.3-.7-.3s-.4,0-.6.2c-.2,0-.3.2-.4.4,0,.2-.1.4-.1.7v2.2h-.8ZM64.7,253.1c-.4,0-.7,0-1-.3-.3-.2-.5-.4-.7-.8-.2-.3-.2-.7-.2-1.1s0-.8.2-1.1c.2-.3.4-.6.7-.7.3-.2.6-.3,1-.3s.6,0,.8.2c.2.1.4.3.6.5v-2.4h.8v5.8h-.7v-.6c-.2.1-.3.2-.4.4-.1.1-.3.2-.5.3-.2,0-.4.1-.6.1ZM64.8,252.4c.3,0,.5,0,.7-.2.2-.1.3-.3.4-.5.1-.2.2-.5.2-.7s0-.5-.2-.7c-.1-.2-.2-.4-.4-.5-.2-.1-.4-.2-.7-.2s-.5,0-.6.2c-.2.1-.3.3-.4.5-.1.2-.2.5-.2.7s0,.5.2.7c.1.2.3.4.4.5.2.1.4.2.6.2ZM69,253.1c-.3,0-.6,0-.8-.2-.2-.1-.4-.3-.5-.4-.1-.2-.2-.4-.2-.6s0-.5.2-.7c.1-.2.3-.3.6-.4.3-.1.6-.2.9-.2h1c0-.2,0-.4-.1-.6,0-.2-.2-.3-.3-.3-.1,0-.3-.1-.5-.1s-.4,0-.6.2c-.2.1-.3.3-.3.5h-.8c0-.3.1-.5.3-.7.2-.2.4-.4.6-.5.3-.1.5-.2.8-.2s.7,0,1,.2c.3.1.4.3.6.6.1.2.2.5.2.9v2.5h-.7v-.7c-.1.1-.2.2-.3.3,0,0-.2.2-.3.2-.1,0-.2.1-.4.2-.1,0-.3,0-.5,0ZM69.1,252.4c.2,0,.3,0,.5-.1.1,0,.3-.2.4-.3.1-.1.2-.3.2-.4,0-.2,0-.3,0-.5h0s-1,0-1,0c-.2,0-.4,0-.6,0-.1,0-.2.1-.3.2,0,0,0,.2,0,.3s0,.2,0,.3c0,0,.2.2.3.2.1,0,.3,0,.4,0ZM72.1,254.8l1-2.2h-.2l-1.6-3.6h.9l1.3,2.9,1.3-2.9h.8l-2.6,5.8h-.8Z"/>
  <path class="st7" d="M101.9,253v-4.9h-1.7v-.7h4.1v.7h-1.7v4.9h-.8ZM105.9,253.1c-.3,0-.6,0-.8-.2-.2-.1-.4-.3-.5-.6-.1-.3-.2-.6-.2-1v-2.4h.8v2.3c0,.4,0,.7.2.9.2.2.4.3.7.3s.4,0,.6-.2c.2-.1.3-.2.4-.4s.1-.4.1-.7v-2.2h.8v4h-.7v-.7c-.2.2-.4.4-.6.6-.2.1-.5.2-.8.2ZM110.6,253.1c-.4,0-.7,0-1-.3-.3-.2-.5-.4-.7-.7-.2-.3-.2-.7-.2-1.1s0-.8.2-1.1c.2-.3.4-.6.7-.7.3-.2.6-.3,1-.3s.7,0,1,.3c.3.2.5.4.7.7.2.3.2.6.2,1s0,.1,0,.2c0,0,0,.1,0,.2h-3.3v-.6h2.5c0-.3-.1-.6-.3-.8-.2-.2-.5-.3-.8-.3s-.4,0-.6.2c-.2,0-.3.2-.4.4-.1.2-.2.4-.2.7v.2c0,.3,0,.6.2.8.1.2.3.4.4.5.2.1.4.2.6.2s.5,0,.6-.2c.2-.1.3-.3.4-.5h.8c0,.2-.2.5-.4.7-.2.2-.4.3-.6.5-.2.1-.5.2-.8.2ZM114.6,253.1c-.3,0-.6,0-.9-.2-.3-.1-.5-.3-.6-.5-.1-.2-.2-.4-.3-.7h.8c0,.1,0,.2.2.4,0,.1.2.2.3.3.1,0,.3,0,.5,0s.3,0,.4,0c.1,0,.2-.1.3-.2,0,0,0-.2,0-.3,0-.1,0-.3-.1-.3,0,0-.2-.1-.3-.2-.1,0-.3,0-.5-.1-.2,0-.4,0-.5-.1-.2,0-.3-.1-.5-.2-.1,0-.2-.2-.3-.3,0-.1-.1-.3-.1-.5s0-.4.2-.6c.1-.2.3-.3.5-.4.2-.1.5-.2.8-.2.4,0,.8.1,1.1.3.3.2.4.5.5.9h-.8c0-.2-.1-.3-.2-.4-.1-.1-.3-.2-.6-.2s-.4,0-.5.1c-.1,0-.2.2-.2.4s0,.2.1.3c0,0,.2.1.3.2.1,0,.3,0,.5.1.3,0,.5.1.8.2s.4.2.5.4c.1.2.2.4.2.7,0,.3,0,.5-.2.7-.1.2-.3.3-.6.4-.2.1-.5.2-.8.2ZM118.6,253.1c-.4,0-.7,0-1-.3-.3-.2-.5-.4-.7-.8-.2-.3-.2-.7-.2-1.1s0-.8.2-1.1c.2-.3.4-.6.7-.7.3-.2.6-.3,1-.3s.6,0,.8.2c.2.1.4.3.6.5v-2.4h.8v5.8h-.7v-.6c-.2.1-.3.2-.4.4-.1.1-.3.2-.5.3-.2,0-.4.1-.6.1ZM118.8,252.4c.3,0,.5,0,.7-.2s.3-.3.4-.5c.1-.2.2-.5.2-.7s0-.5-.2-.7c-.1-.2-.2-.4-.4-.5-.2-.1-.4-.2-.7-.2s-.5,0-.6.2c-.2.1-.3.3-.4.5-.1.2-.2.5-.2.7s0,.5.2.7c.1.2.3.4.4.5.2.1.4.2.6.2ZM122.9,253.1c-.3,0-.6,0-.8-.2-.2-.1-.4-.3-.5-.4-.1-.2-.2-.4-.2-.6s0-.5.2-.7c.1-.2.3-.3.6-.4.3-.1.6-.2.9-.2h1c0-.2,0-.4-.1-.6,0-.2-.2-.3-.3-.3-.1,0-.3-.1-.5-.1s-.4,0-.6.2c-.2.1-.3.3-.3.5h-.8c0-.3.1-.5.3-.7.2-.2.4-.4.6-.5.3-.1.5-.2.8-.2s.7,0,1,.2c.3.1.4.3.6.6.1.2.2.5.2.9v2.5h-.7v-.7c-.1.1-.2.2-.3.3,0,0-.2.2-.3.2-.1,0-.2.1-.4.2-.1,0-.3,0-.5,0ZM123.1,252.4c.2,0,.3,0,.5-.1.1,0,.3-.2.4-.3.1-.1.2-.3.2-.4,0-.2,0-.3,0-.5h0s-1,0-1,0c-.2,0-.4,0-.6,0-.1,0-.2.1-.3.2,0,0,0,.2,0,.3s0,.2,0,.3c0,0,.2.2.3.2.1,0,.3,0,.4,0ZM126.1,254.8l1-2.2h-.2l-1.6-3.6h.9l1.3,2.9,1.3-2.9h.8l-2.6,5.8h-.8Z"/>
  <path class="st7" d="M207.9,253v-4.9h-1.7v-.7h4.1v.7h-1.7v4.9h-.8ZM210.8,253v-5.8h.8v2.4c.1-.2.3-.4.6-.6.2-.1.5-.2.8-.2s.6,0,.8.2c.2.1.4.3.5.6.1.3.2.6.2,1v2.4h-.8v-2.3c0-.4,0-.7-.2-.8-.2-.2-.4-.3-.7-.3s-.4,0-.6.2c-.2.1-.3.3-.4.4-.1.2-.2.4-.2.7v2.1h-.8ZM216.6,253.1c-.3,0-.6,0-.8-.2-.2-.1-.4-.3-.5-.6-.1-.3-.2-.6-.2-1v-2.4h.8v2.3c0,.4,0,.7.2.9.2.2.4.3.7.3s.4,0,.6-.2c.2-.1.3-.2.4-.4,0-.2.1-.4.1-.7v-2.2h.8v4h-.7v-.7c-.2.2-.4.4-.6.6-.2.1-.5.2-.8.2ZM219.5,253v-4h.7v.8c.2-.2.3-.3.4-.5.1-.1.3-.2.5-.3.2,0,.4-.1.7-.1v.8h-.3c-.2,0-.3,0-.5,0-.1,0-.3.1-.4.2-.1,0-.2.2-.3.4,0,.2,0,.4,0,.6v2h-.8ZM223.8,253.1c-.3,0-.6,0-.9-.2-.3-.1-.5-.3-.6-.5-.1-.2-.2-.4-.3-.7h.8c0,.1,0,.2.2.4,0,.1.2.2.3.3.1,0,.3,0,.5,0s.3,0,.4,0c.1,0,.2-.1.3-.2,0,0,0-.2,0-.3,0-.1,0-.3-.1-.3,0,0-.2-.1-.3-.2-.1,0-.3,0-.5-.1-.2,0-.4,0-.5-.1-.2,0-.3-.1-.5-.2-.1,0-.2-.2-.3-.3,0-.1-.1-.3-.1-.5s0-.4.2-.6c.1-.2.3-.3.5-.4.2-.1.5-.2.8-.2.4,0,.8.1,1.1.3s.4.5.5.9h-.8c0-.2-.1-.3-.2-.4-.1-.1-.3-.2-.6-.2s-.4,0-.5.1-.2.2-.2.4,0,.2.1.3.2.1.3.2c.1,0,.3,0,.5.1.3,0,.5.1.8.2s.4.2.5.4c.1.2.2.4.2.7,0,.3,0,.5-.2.7-.1.2-.3.3-.6.4-.2.1-.5.2-.8.2ZM227.8,253.1c-.4,0-.7,0-1-.3-.3-.2-.5-.4-.7-.8-.2-.3-.2-.7-.2-1.1s0-.8.2-1.1c.2-.3.4-.6.7-.7.3-.2.6-.3,1-.3s.6,0,.8.2c.2.1.4.3.6.5v-2.4h.8v5.8h-.7v-.6c-.2.1-.3.2-.4.4-.1.1-.3.2-.5.3s-.4.1-.6.1ZM228,252.4c.3,0,.5,0,.7-.2s.3-.3.4-.5c.1-.2.2-.5.2-.7s0-.5-.2-.7c-.1-.2-.2-.4-.4-.5-.2-.1-.4-.2-.7-.2s-.5,0-.6.2c-.2.1-.3.3-.4.5-.1.2-.2.5-.2.7s0,.5.2.7.3.4.4.5.4.2.6.2ZM232.1,253.1c-.3,0-.6,0-.8-.2-.2-.1-.4-.3-.5-.4-.1-.2-.2-.4-.2-.6s0-.5.2-.7c.1-.2.3-.3.6-.4.3-.1.6-.2.9-.2h1c0-.2,0-.4-.1-.6,0-.2-.2-.3-.3-.3-.1,0-.3-.1-.5-.1s-.4,0-.6.2c-.2.1-.3.3-.3.5h-.8c0-.3.1-.5.3-.7.2-.2.4-.4.6-.5.3-.1.5-.2.8-.2s.7,0,1,.2c.3.1.4.3.6.6.1.2.2.5.2.9v2.5h-.7v-.7c-.1.1-.2.2-.3.3,0,0-.2.2-.3.2-.1,0-.2.1-.4.2-.1,0-.3,0-.5,0ZM232.3,252.4c.2,0,.3,0,.5-.1.1,0,.3-.2.4-.3.1-.1.2-.3.2-.4,0-.2,0-.3,0-.5h0s-1,0-1,0c-.2,0-.4,0-.6,0-.1,0-.2.1-.3.2,0,0,0,.2,0,.3s0,.2,0,.3c0,0,.2.2.3.2.1,0,.3,0,.4,0ZM235.3,254.8l1-2.2h-.2l-1.6-3.6h.9l1.3,2.9,1.3-2.9h.8l-2.6,5.8h-.8Z"/>
  <path class="st7" d="M260.6,253v-5.6h3.5v.7h-2.7v1.8h2.2v.6h-2.2v2.5h-.8ZM264.5,253v-4h.7v.8c.2-.2.3-.3.4-.5.1-.1.3-.2.5-.3.2,0,.4-.1.7-.1v.8h-.3c-.2,0-.3,0-.5,0-.1,0-.3.1-.4.2-.1,0-.2.2-.3.4,0,.2,0,.4,0,.6v2h-.8ZM267.3,253v-4h.8v4h-.8ZM267.7,248.2c-.2,0-.3,0-.4-.1,0,0-.1-.2-.1-.4s0-.3.1-.4c.1,0,.2-.1.4-.1s.3,0,.4.1c.1,0,.2.2.2.4s0,.3-.2.4c-.1,0-.2.1-.4.1ZM270.7,253.1c-.4,0-.7,0-1-.3-.3-.2-.5-.4-.7-.8-.2-.3-.2-.7-.2-1.1s0-.8.2-1.1c.2-.3.4-.6.7-.7.3-.2.6-.3,1-.3s.6,0,.8.2c.2.1.4.3.6.5v-2.4h.8v5.8h-.7v-.6c-.2.1-.3.2-.4.4-.1.1-.3.2-.5.3-.2,0-.4.1-.6.1ZM270.9,252.4c.3,0,.5,0,.7-.2.2-.1.3-.3.4-.5.1-.2.2-.5.2-.7s0-.5-.2-.7c-.1-.2-.2-.4-.4-.5-.2-.1-.4-.2-.7-.2s-.5,0-.6.2c-.2.1-.3.3-.4.5-.1.2-.2.5-.2.7s0,.5.2.7c.1.2.3.4.4.5.2.1.4.2.6.2ZM275,253.1c-.3,0-.6,0-.8-.2-.2-.1-.4-.3-.5-.4-.1-.2-.2-.4-.2-.6s0-.5.2-.7c.1-.2.3-.3.6-.4.3-.1.6-.2.9-.2h1c0-.2,0-.4-.1-.6,0-.2-.2-.3-.3-.3-.1,0-.3-.1-.5-.1s-.4,0-.6.2c-.2.1-.3.3-.3.5h-.8c0-.3.1-.5.3-.7.2-.2.4-.4.6-.5.3-.1.5-.2.8-.2s.7,0,1,.2c.3.1.4.3.6.6.1.2.2.5.2.9v2.5h-.7v-.7c-.1.1-.2.2-.3.3,0,0-.2.2-.3.2-.1,0-.2.1-.4.2-.1,0-.3,0-.5,0ZM275.2,252.4c.2,0,.3,0,.5-.1.1,0,.3-.2.4-.3.1-.1.2-.3.2-.4,0-.2,0-.3,0-.5h0s-1,0-1,0c-.2,0-.4,0-.6,0-.1,0-.2.1-.3.2s0,.2,0,.3,0,.2,0,.3c0,0,.2.2.3.2.1,0,.3,0,.4,0ZM278.2,254.8l1-2.2h-.2l-1.6-3.6h.9l1.3,2.9,1.3-2.9h.8l-2.6,5.8h-.8Z"/>
  <path class="st7" d="M315.4,254.1c-.4,0-.8,0-1.1-.2-.3-.1-.5-.4-.7-.6s-.3-.6-.3-.9h.8c0,.2,0,.4.1.6,0,.2.2.3.4.4.2,0,.4.1.7.1s.4,0,.6-.1c.2,0,.3-.2.4-.3,0-.1.1-.3.1-.5s0-.4-.1-.5c0-.1-.2-.2-.4-.3-.1,0-.3-.2-.5-.2-.2,0-.4-.1-.6-.2-.4-.1-.8-.3-1-.6-.2-.2-.3-.5-.3-.9s0-.6.2-.8c.1-.2.4-.4.6-.5.3-.1.6-.2,1-.2s.7,0,1,.2.5.3.6.6.2.5.2.8h-.8c0-.1,0-.3-.1-.4,0-.1-.2-.3-.3-.3-.1,0-.3-.1-.6-.1-.2,0-.3,0-.5,0-.1,0-.3.2-.3.3,0,.1-.1.3-.1.4s0,.3.1.4c0,.1.2.2.3.3.1,0,.3.1.5.2.2,0,.4.1.6.2.3,0,.5.2.7.3.2.1.4.3.5.5.1.2.2.5.2.8s0,.5-.2.8-.4.4-.6.6c-.3.1-.6.2-1.1.2ZM319.3,254.1c-.3,0-.6,0-.8-.2-.2-.1-.4-.3-.5-.4-.1-.2-.2-.4-.2-.6s0-.5.2-.7c.1-.2.3-.3.6-.4.3-.1.6-.2.9-.2h1c0-.2,0-.4-.1-.6,0-.2-.2-.3-.3-.3-.1,0-.3-.1-.5-.1s-.4,0-.6.2c-.2.1-.3.3-.3.5h-.8c0-.3.1-.5.3-.7.2-.2.4-.4.6-.5.3-.1.5-.2.8-.2s.7,0,1,.2c.3.1.4.3.6.6.1.2.2.5.2.9v2.5h-.7v-.7c-.1.1-.2.2-.3.3,0,0-.2.2-.3.2-.1,0-.2.1-.4.2-.1,0-.3,0-.5,0ZM319.4,253.4c.2,0,.3,0,.5-.1.1,0,.3-.2.4-.3.1-.1.2-.3.2-.4,0-.2,0-.3,0-.5h0s-1,0-1,0c-.2,0-.4,0-.6,0-.1,0-.2.1-.3.2s0,.2,0,.3,0,.2,0,.3c0,0,.2.2.3.2.1,0,.3,0,.4,0ZM323.6,254c-.3,0-.5,0-.7-.1-.2,0-.3-.2-.4-.4-.1-.2-.2-.4-.2-.8v-2.1h-.7v-.7h.7v-1h.8v1h1.1v.7h-1.1v2.1c0,.2,0,.4.1.5,0,0,.3.1.5.1h.5v.7h-.7ZM324.9,254v-4h.7v.8c.2-.2.3-.3.4-.5.1-.1.3-.2.5-.3.2,0,.4-.1.7-.1v.8h-.3c-.2,0-.3,0-.5,0-.1,0-.3.1-.4.2-.1,0-.2.2-.3.4,0,.2,0,.4,0,.6v2h-.8ZM329.3,254.1c-.4,0-.7,0-1-.3-.3-.2-.5-.4-.7-.8-.2-.3-.2-.7-.2-1.1s0-.8.2-1.1c.2-.3.4-.6.7-.7.3-.2.6-.3,1-.3s.6,0,.8.2c.2.1.4.3.6.5v-2.4h.8v5.8h-.7v-.6c-.2.1-.3.2-.4.4-.1.1-.3.2-.5.3-.2,0-.4.1-.6.1ZM329.4,253.4c.3,0,.5,0,.7-.2.2-.1.3-.3.4-.5.1-.2.2-.5.2-.7s0-.5-.2-.7c-.1-.2-.2-.4-.4-.5-.2-.1-.4-.2-.7-.2s-.5,0-.6.2c-.2.1-.3.3-.4.5-.1.2-.2.5-.2.7s0,.5.2.7c.1.2.3.4.4.5.2.1.4.2.6.2ZM333.6,254.1c-.3,0-.6,0-.8-.2s-.4-.3-.5-.4c-.1-.2-.2-.4-.2-.6s0-.5.2-.7c.1-.2.3-.3.6-.4.3-.1.6-.2.9-.2h1c0-.2,0-.4-.1-.6s-.2-.3-.3-.3c-.1,0-.3-.1-.5-.1s-.4,0-.6.2c-.2.1-.3.3-.3.5h-.8c0-.3.1-.5.3-.7.2-.2.4-.4.6-.5.3-.1.5-.2.8-.2s.7,0,1,.2c.3.1.4.3.6.6.1.2.2.5.2.9v2.5h-.7v-.7c-.1.1-.2.2-.3.3,0,0-.2.2-.3.2-.1,0-.2.1-.4.2-.1,0-.3,0-.5,0ZM333.8,253.4c.2,0,.3,0,.5-.1s.3-.2.4-.3c.1-.1.2-.3.2-.4,0-.2,0-.3,0-.5h0s-1,0-1,0c-.2,0-.4,0-.6,0-.1,0-.2.1-.3.2s0,.2,0,.3,0,.2,0,.3c0,0,.2.2.3.2.1,0,.3,0,.4,0ZM336.7,255.8l1-2.2h-.2l-1.6-3.6h.9l1.3,2.9,1.3-2.9h.8l-2.6,5.8h-.8Z"/>
  <path class="st7" d="M150.7,253l-1.5-5.6h.9l1.1,4.7,1.3-4.7h.9l1.3,4.7,1.2-4.7h.9l-1.5,5.6h-.9l-1.3-4.5-1.3,4.5h-.9ZM158.5,253.1c-.4,0-.7,0-1-.3-.3-.2-.5-.4-.7-.7-.2-.3-.2-.7-.2-1.1s0-.8.2-1.1c.2-.3.4-.6.7-.7.3-.2.6-.3,1-.3s.7,0,1,.3c.3.2.5.4.7.7.2.3.2.6.2,1s0,.1,0,.2c0,0,0,.1,0,.2h-3.3v-.6h2.5c0-.3-.1-.6-.3-.8-.2-.2-.5-.3-.8-.3s-.4,0-.6.2c-.2,0-.3.2-.4.4-.1.2-.2.4-.2.7v.2c0,.3,0,.6.2.8.1.2.3.4.4.5.2.1.4.2.6.2s.5,0,.6-.2c.2-.1.3-.3.4-.5h.8c0,.2-.2.5-.4.7-.2.2-.4.3-.6.5-.2.1-.5.2-.8.2ZM162.8,253.1c-.4,0-.7,0-1-.3-.3-.2-.5-.4-.7-.8-.2-.3-.2-.7-.2-1.1s0-.8.2-1.1c.2-.3.4-.6.7-.7.3-.2.6-.3,1-.3s.6,0,.8.2c.2.1.4.3.6.5v-2.4h.8v5.8h-.7v-.6c-.2.1-.3.2-.4.4-.1.1-.3.2-.5.3-.2,0-.4.1-.6.1ZM162.9,252.4c.3,0,.5,0,.7-.2s.3-.3.4-.5c.1-.2.2-.5.2-.7s0-.5-.2-.7c-.1-.2-.2-.4-.4-.5-.2-.1-.4-.2-.7-.2s-.5,0-.6.2c-.2.1-.3.3-.4.5-.1.2-.2.5-.2.7s0,.5.2.7c.1.2.3.4.4.5s.4.2.6.2ZM165.7,253v-4h.7v.7c.2-.2.4-.4.6-.6.2-.1.5-.2.8-.2s.6,0,.8.2c.2.1.4.3.5.6.1.3.2.6.2,1v2.4h-.8v-2.3c0-.4,0-.7-.2-.8-.2-.2-.4-.3-.7-.3s-.4,0-.6.2c-.2,0-.3.2-.4.4,0,.2-.1.4-.1.7v2.2h-.8ZM171.9,253.1c-.4,0-.7,0-1-.3-.3-.2-.5-.4-.7-.7-.2-.3-.2-.7-.2-1.1s0-.8.2-1.1c.2-.3.4-.6.7-.7.3-.2.6-.3,1-.3s.7,0,1,.3c.3.2.5.4.7.7.2.3.2.6.2,1s0,.1,0,.2c0,0,0,.1,0,.2h-3.3v-.6h2.5c0-.3-.1-.6-.3-.8-.2-.2-.5-.3-.8-.3s-.4,0-.6.2c-.2,0-.3.2-.4.4-.1.2-.2.4-.2.7v.2c0,.3,0,.6.2.8.1.2.3.4.4.5.2.1.4.2.6.2s.5,0,.6-.2c.2-.1.3-.3.4-.5h.8c0,.2-.2.5-.4.7-.2.2-.4.3-.6.5-.2.1-.5.2-.8.2ZM176,253.1c-.3,0-.6,0-.9-.2s-.5-.3-.6-.5c-.1-.2-.2-.4-.3-.7h.8c0,.1,0,.2.2.4,0,.1.2.2.3.3.1,0,.3,0,.5,0s.3,0,.4,0c.1,0,.2-.1.3-.2,0,0,0-.2,0-.3,0-.1,0-.3-.1-.3,0,0-.2-.1-.3-.2-.1,0-.3,0-.5-.1-.2,0-.4,0-.5-.1-.2,0-.3-.1-.5-.2-.1,0-.2-.2-.3-.3,0-.1-.1-.3-.1-.5s0-.4.2-.6c.1-.2.3-.3.5-.4.2-.1.5-.2.8-.2.4,0,.8.1,1.1.3.3.2.4.5.5.9h-.8c0-.2-.1-.3-.2-.4-.1-.1-.3-.2-.6-.2s-.4,0-.5.1c-.1,0-.2.2-.2.4s0,.2.1.3c0,0,.2.1.3.2.1,0,.3,0,.5.1.3,0,.5.1.8.2s.4.2.5.4c.1.2.2.4.2.7,0,.3,0,.5-.2.7-.1.2-.3.3-.6.4-.2.1-.5.2-.8.2ZM180,253.1c-.4,0-.7,0-1-.3-.3-.2-.5-.4-.7-.8-.2-.3-.2-.7-.2-1.1s0-.8.2-1.1c.2-.3.4-.6.7-.7.3-.2.6-.3,1-.3s.6,0,.8.2c.2.1.4.3.6.5v-2.4h.8v5.8h-.7v-.6c-.2.1-.3.2-.4.4-.1.1-.3.2-.5.3-.2,0-.4.1-.6.1ZM180.1,252.4c.3,0,.5,0,.7-.2s.3-.3.4-.5c.1-.2.2-.5.2-.7s0-.5-.2-.7c-.1-.2-.2-.4-.4-.5-.2-.1-.4-.2-.7-.2s-.5,0-.6.2c-.2.1-.3.3-.4.5-.1.2-.2.5-.2.7s0,.5.2.7c.1.2.3.4.4.5s.4.2.6.2ZM184.3,253.1c-.3,0-.6,0-.8-.2-.2-.1-.4-.3-.5-.4-.1-.2-.2-.4-.2-.6s0-.5.2-.7c.1-.2.3-.3.6-.4.3-.1.6-.2.9-.2h1c0-.2,0-.4-.1-.6,0-.2-.2-.3-.3-.3-.1,0-.3-.1-.5-.1s-.4,0-.6.2c-.2.1-.3.3-.3.5h-.8c0-.3.1-.5.3-.7.2-.2.4-.4.6-.5.3-.1.5-.2.8-.2s.7,0,1,.2c.3.1.4.3.6.6.1.2.2.5.2.9v2.5h-.7v-.7c-.1.1-.2.2-.3.3,0,0-.2.2-.3.2-.1,0-.2.1-.4.2-.1,0-.3,0-.5,0ZM184.4,252.4c.2,0,.3,0,.5-.1.1,0,.3-.2.4-.3.1-.1.2-.3.2-.4,0-.2,0-.3,0-.5h0s-1,0-1,0c-.2,0-.4,0-.6,0-.1,0-.2.1-.3.2,0,0,0,.2,0,.3s0,.2,0,.3c0,0,.2.2.3.2.1,0,.3,0,.4,0ZM187.4,254.8l1-2.2h-.2l-1.6-3.6h.9l1.3,2.9,1.3-2.9h.8l-2.6,5.8h-.8Z"/>
  <path class="st9" d="M39.4,47h-2.3l5.2-14.6h2.5l5.2,14.6h-2.3l-4.1-11.9h-.1l-4.1,11.9ZM39.8,41.3h7.5v1.8h-7.5v-1.8ZM53.5,32.4v14.6h-2.2v-14.6h2.2ZM64.9,47.2c-1.1,0-2-.2-2.8-.7-.8-.5-1.4-1.1-1.8-2-.4-.8-.6-1.8-.6-3s.2-2.1.6-3c.4-.9,1-1.5,1.7-2,.8-.5,1.6-.7,2.7-.7s1.2.1,1.8.3c.6.2,1.1.5,1.6,1,.5.4.8,1,1.1,1.7.3.7.4,1.5.4,2.5v.8h-8.7v-1.6h7.6l-1,.5c0-.7-.1-1.3-.3-1.8-.2-.5-.5-.9-.9-1.2-.4-.3-.9-.4-1.5-.4s-1.1.1-1.6.4c-.4.3-.8.7-1,1.2-.2.5-.3,1-.3,1.6v1.1c0,.7.1,1.4.4,1.9s.6.9,1.1,1.2c.5.3,1,.4,1.6.4s.8,0,1.1-.2c.3-.1.6-.3.9-.5.2-.2.4-.5.5-.9l2,.4c-.2.6-.4,1.1-.9,1.5-.4.4-.9.8-1.6,1-.6.2-1.3.4-2.1.4ZM74.2,47.2c-.7,0-1.3-.1-1.9-.4-.6-.3-1-.6-1.3-1.1s-.5-1.1-.5-1.8.1-1.1.4-1.5c.2-.4.6-.7,1-.9.4-.2.9-.4,1.3-.5.5-.1,1-.2,1.5-.3.7,0,1.2-.1,1.6-.2.4,0,.7-.1.9-.2.2-.1.3-.3.3-.6h0c0-.7-.2-1.1-.5-1.5-.3-.3-.9-.5-1.5-.5s-1.3.2-1.7.5c-.4.3-.7.7-.8,1l-2-.5c.2-.7.6-1.2,1-1.6.5-.4,1-.7,1.6-.9.6-.2,1.2-.3,1.9-.3s.9,0,1.4.2c.5,0,.9.3,1.4.6.4.3.8.7,1.1,1.2.3.5.4,1.1.4,1.9v7.2h-2.1v-1.5h0c-.1.3-.3.5-.6.8-.3.3-.6.5-1.1.7-.4.2-.9.3-1.6.3ZM74.6,45.5c.6,0,1.1-.1,1.5-.3.4-.2.7-.5,1-.9.2-.4.3-.8.3-1.2v-1.4c0,0-.2.1-.4.2-.2,0-.5.1-.7.2-.3,0-.5,0-.8.1-.3,0-.5,0-.7,0-.4,0-.8.1-1.1.3-.3.1-.6.3-.8.5-.2.2-.3.5-.3.9s.2.9.6,1.2c.4.3.9.4,1.5.4ZM89.8,38.8l-1.9.3c-.1-.4-.4-.7-.7-1-.3-.3-.8-.5-1.5-.5s-1.1.1-1.5.4c-.4.3-.6.6-.6,1s.1.7.4.9c.3.2.7.4,1.3.5l1.7.4c1,.2,1.7.6,2.2,1.1.5.5.7,1.1.7,1.9s-.2,1.2-.6,1.8c-.4.5-.9.9-1.6,1.2-.7.3-1.4.4-2.3.4s-2.2-.3-3-.8c-.8-.5-1.2-1.3-1.4-2.2l2-.3c.1.5.4.9.8,1.2.4.3.9.4,1.6.4s1.2-.1,1.7-.4c.4-.3.6-.6.6-1.1,0-.7-.5-1.2-1.5-1.4l-1.8-.4c-1-.2-1.8-.6-2.3-1.1-.5-.5-.7-1.1-.7-1.9s.2-1.2.5-1.7c.4-.5.9-.9,1.5-1.1.6-.3,1.4-.4,2.2-.4,1.2,0,2.1.3,2.8.8.7.5,1.1,1.2,1.3,2ZM92.8,51.1c-.3,0-.6,0-.9,0-.3,0-.4-.1-.6-.2l.5-1.7h.1c.5.2,1,.2,1.4,0,.4-.1.7-.6.9-1.3l.3-.7-4-11.1h2.3l2.8,8.5h.1l2.8-8.5h2.3l-4.5,12.4c-.2.6-.5,1.1-.8,1.4-.3.4-.7.7-1.2.9-.4.2-1,.3-1.6.3ZM106.4,47v-10.9h2v1.8h.1c.2-.6.6-1.1,1.1-1.4.5-.3,1.1-.5,1.9-.5s1.3.2,1.8.5c.5.3.9.8,1.1,1.4h.1c.3-.6.7-1.1,1.2-1.4.6-.4,1.2-.5,2-.5s1.8.3,2.4.9c.6.6.9,1.6.9,2.8v7.3h-2.1v-7.1c0-.7-.2-1.3-.6-1.6-.4-.3-.9-.5-1.4-.5s-1.2.2-1.6.6c-.4.4-.6,1-.6,1.6v7h-2.1v-7.3c0-.6-.2-1.1-.5-1.4-.4-.4-.8-.5-1.4-.5s-.8.1-1.1.3c-.3.2-.6.5-.8.9-.2.4-.3.8-.3,1.3v6.7h-2.1ZM127.8,47.2c-1,0-1.9-.2-2.7-.7-.8-.5-1.4-1.1-1.8-2-.4-.8-.6-1.8-.6-2.9s.2-2.1.6-3c.4-.9,1-1.5,1.8-2,.8-.5,1.7-.7,2.7-.7s1.9.2,2.7.7c.8.5,1.4,1.1,1.8,2,.4.8.6,1.8.6,3s-.2,2.1-.6,2.9c-.4.8-1,1.5-1.8,2-.8.5-1.7.7-2.7.7ZM127.8,45.4c.7,0,1.2-.2,1.7-.5.4-.4.8-.8,1-1.4.2-.6.3-1.2.3-1.9s-.1-1.3-.3-1.9c-.2-.6-.5-1.1-1-1.4-.4-.4-1-.5-1.7-.5s-1.2.2-1.7.5c-.4.4-.8.8-1,1.4-.2.6-.3,1.2-.3,1.9s.1,1.3.3,1.9c.2.6.5,1,1,1.4.4.4,1,.5,1.7.5ZM136.6,40.5v6.5h-2.1v-10.9h2.1v1.8h.1c.2-.6.6-1.1,1.2-1.4.5-.4,1.2-.5,2-.5s1.4.2,1.9.5c.6.3,1,.8,1.3,1.4.3.6.5,1.4.5,2.3v6.9h-2.1v-6.7c0-.8-.2-1.4-.6-1.9-.4-.5-1-.7-1.7-.7s-.9.1-1.3.3c-.4.2-.7.5-.9.9-.2.4-.3.9-.3,1.5ZM150.7,36.1v1.7h-6v-1.7h6ZM146.3,33.5h2.1v10.3c0,.5.1.9.3,1.1.2.2.5.3,1,.3s.2,0,.4,0c.1,0,.3,0,.4,0l.4,1.8c-.2,0-.4.1-.7.2-.3,0-.5,0-.8,0-.9,0-1.7-.3-2.3-.8-.6-.5-.8-1.2-.8-2.1v-10.7ZM154.6,40.5v6.5h-2.1v-14.6h2.1v5.4h.1c.3-.6.6-1.1,1.2-1.4.5-.4,1.2-.5,2.1-.5s1.4.2,2,.5c.6.3,1,.8,1.3,1.4.3.6.5,1.4.5,2.3v6.9h-2.1v-6.7c0-.8-.2-1.4-.6-1.9-.4-.4-1-.7-1.7-.7s-1,.1-1.3.3c-.4.2-.7.5-.9.9-.2.4-.3.9-.3,1.5ZM165.8,32.4v14.6h-2.1v-14.6h2.1ZM169.1,51.1c-.3,0-.6,0-.9,0-.3,0-.4-.1-.6-.2l.5-1.7h.1c.5.2,1,.2,1.4,0,.4-.1.7-.6.9-1.3l.3-.7-4-11.1h2.3l2.8,8.5h.1l2.8-8.5h2.3l-4.5,12.4c-.2.6-.5,1.1-.8,1.4-.3.4-.7.7-1.2.9-.4.2-1,.3-1.6.3ZM185.9,47.2c-.7,0-1.3-.1-1.9-.4-.6-.3-1-.6-1.3-1.1-.3-.5-.5-1.1-.5-1.8s.1-1.1.4-1.5c.2-.4.6-.7,1-.9.4-.2.9-.4,1.3-.5.5-.1,1-.2,1.5-.3.7,0,1.2-.1,1.6-.2.4,0,.7-.1.9-.2.2-.1.3-.3.3-.6h0c0-.7-.2-1.1-.5-1.5-.3-.3-.9-.5-1.5-.5s-1.3.2-1.7.5c-.4.3-.7.7-.9,1l-2-.5c.2-.7.6-1.2,1-1.6.5-.4,1-.7,1.6-.9.6-.2,1.2-.3,1.9-.3s.9,0,1.4.2c.5,0,.9.3,1.4.6.4.3.8.7,1.1,1.2.3.5.4,1.1.4,1.9v7.2h-2.1v-1.5h0c-.1.3-.3.5-.6.8-.3.3-.6.5-1.1.7-.4.2-.9.3-1.6.3ZM186.4,45.5c.6,0,1.1-.1,1.5-.3.4-.2.7-.5,1-.9.2-.4.3-.8.3-1.2v-1.4c0,0-.2.1-.4.2-.2,0-.5.1-.7.2-.3,0-.5,0-.8.1-.3,0-.5,0-.7,0-.4,0-.8.1-1.1.3-.3.1-.6.3-.8.5-.2.2-.3.5-.3.9s.2.9.6,1.2c.4.3.9.4,1.5.4ZM195.5,40.5v6.5h-2.1v-10.9h2v1.8h.1c.2-.6.6-1.1,1.2-1.4.5-.4,1.2-.5,2-.5s1.4.2,1.9.5c.6.3,1,.8,1.3,1.4.3.6.5,1.4.5,2.3v6.9h-2.1v-6.7c0-.8-.2-1.4-.6-1.9-.4-.5-1-.7-1.7-.7s-.9.1-1.3.3c-.4.2-.7.5-.9.9-.2.4-.3.9-.3,1.5ZM207.6,47.2c-.7,0-1.3-.1-1.9-.4-.6-.3-1-.6-1.3-1.1-.3-.5-.5-1.1-.5-1.8s.1-1.1.4-1.5c.2-.4.6-.7,1-.9.4-.2.9-.4,1.3-.5.5-.1,1-.2,1.5-.3.7,0,1.2-.1,1.6-.2.4,0,.7-.1.9-.2.2-.1.3-.3.3-.6h0c0-.7-.2-1.1-.5-1.5-.3-.3-.9-.5-1.5-.5s-1.3.2-1.7.5c-.4.3-.7.7-.8,1l-2-.5c.2-.7.6-1.2,1-1.6.5-.4,1-.7,1.6-.9.6-.2,1.2-.3,1.9-.3s.9,0,1.4.2c.5,0,.9.3,1.4.6.4.3.8.7,1.1,1.2.3.5.4,1.1.4,1.9v7.2h-2.1v-1.5h0c-.1.3-.3.5-.6.8-.3.3-.6.5-1.1.7-.4.2-.9.3-1.6.3ZM208.1,45.5c.6,0,1.1-.1,1.5-.3.4-.2.7-.5,1-.9.2-.4.3-.8.3-1.2v-1.4c0,0-.2.1-.4.2-.2,0-.5.1-.7.2-.3,0-.5,0-.8.1-.3,0-.5,0-.7,0-.4,0-.8.1-1.1.3-.3.1-.6.3-.8.5-.2.2-.3.5-.3.9s.2.9.6,1.2c.4.3.9.4,1.5.4ZM217.2,32.4v14.6h-2.1v-14.6h2.1ZM220.5,51.1c-.3,0-.6,0-.9,0-.3,0-.4-.1-.6-.2l.5-1.7h.1c.5.2,1,.2,1.4,0,.4-.1.7-.6.9-1.3l.3-.7-4-11.1h2.3l2.8,8.5h.1l2.8-8.5h2.3l-4.5,12.4c-.2.6-.5,1.1-.8,1.4-.3.4-.7.7-1.2.9-.4.2-1,.3-1.6.3ZM234.8,36.1v1.7h-6v-1.7h6ZM230.4,33.5h2.1v10.3c0,.5.1.9.3,1.1.2.2.5.3,1,.3s.2,0,.4,0c.1,0,.3,0,.4,0l.4,1.8c-.2,0-.4.1-.7.2-.3,0-.5,0-.8,0-.9,0-1.7-.3-2.3-.8-.6-.5-.8-1.2-.8-2.1v-10.7ZM236.3,47v-10.9h2.1v10.9h-2.1ZM237.4,34.4c-.4,0-.7-.1-.9-.4-.3-.2-.4-.5-.4-.9s.1-.7.4-.9c.3-.2.6-.4.9-.4s.7.1.9.4c.3.2.4.5.4.9s-.1.6-.4.9c-.3.2-.6.4-.9.4ZM245,47.2c-1,0-2-.2-2.7-.7-.8-.5-1.3-1.1-1.8-2-.4-.8-.6-1.8-.6-2.9s.2-2.1.6-2.9c.4-.9,1-1.5,1.8-2,.8-.5,1.7-.7,2.7-.7s1.6.2,2.2.5c.7.3,1.2.7,1.6,1.3.4.6.6,1.2.7,1.9h-2.1c0-.3-.2-.7-.4-.9-.2-.3-.5-.5-.8-.7-.3-.2-.7-.3-1.2-.3s-1.1.2-1.6.5c-.4.3-.8.7-1,1.3-.2.6-.4,1.2-.4,2s.1,1.5.4,2.1c.2.6.6,1,1,1.4.4.3,1,.5,1.6.5s1.1-.2,1.6-.5c.4-.3.7-.8.8-1.4h2.1c0,.7-.3,1.3-.7,1.9-.4.6-.9,1-1.5,1.3-.6.3-1.4.5-2.3.5ZM259.2,38.8l-1.9.3c-.1-.4-.4-.7-.7-1-.3-.3-.8-.5-1.5-.5s-1.1.1-1.5.4c-.4.3-.6.6-.6,1s.1.7.4.9c.3.2.7.4,1.3.5l1.7.4c1,.2,1.7.6,2.2,1.1.5.5.7,1.1.7,1.9s-.2,1.2-.6,1.8c-.4.5-.9.9-1.6,1.2-.7.3-1.4.4-2.3.4s-2.2-.3-3-.8c-.8-.5-1.2-1.3-1.4-2.2l2-.3c.1.5.4.9.8,1.2.4.3.9.4,1.6.4s1.2-.1,1.7-.4c.4-.3.6-.6.6-1.1,0-.7-.5-1.2-1.5-1.4l-1.8-.4c-1-.2-1.8-.6-2.3-1.1-.5-.5-.7-1.1-.7-1.9s.2-1.2.5-1.7c.4-.5.9-.9,1.5-1.1.6-.3,1.4-.4,2.2-.4,1.2,0,2.1.3,2.8.8.7.5,1.1,1.2,1.3,2Z"/>
  <path class="st8" d="M42.1,78.2c-.9,0-1.7-.2-2.4-.5-.7-.4-1.3-.9-1.8-1.6l1.4-1.4c.3.5.8.9,1.2,1.2.5.3,1,.5,1.7.5s1.2-.2,1.7-.4c.4-.3.6-.7.6-1.3s-.1-.8-.3-1c-.2-.3-.5-.5-.9-.6-.3-.2-.7-.3-1.2-.5-.4-.1-.8-.3-1.3-.5-.4-.2-.8-.4-1.2-.7-.3-.3-.6-.6-.8-1s-.3-1-.3-1.6.2-1.4.5-1.9c.4-.5.9-.9,1.5-1.2.6-.3,1.3-.4,2.1-.4s1.4.2,2.1.5c.6.3,1.2.7,1.6,1.2l-1.4,1.4c-.4-.4-.7-.7-1.1-1-.4-.2-.8-.3-1.2-.3-.7,0-1.2.1-1.5.4-.4.3-.5.6-.5,1.2s.1.7.3.9c.2.2.5.4.9.6.4.2.8.3,1.2.5.4.1.9.3,1.3.5.4.2.8.4,1.2.7.4.3.6.6.9,1.1.2.4.3,1,.3,1.7,0,1.1-.4,2-1.2,2.7-.8.7-1.9,1-3.2,1ZM41.8,79.8v-16.2h1.4v16.2h-1.4ZM54.1,78.2c-.8,0-1.6-.2-2.3-.4-.7-.3-1.2-.8-1.7-1.4l1.4-1.4c.3.4.6.7,1.1.9.5.2,1,.3,1.5.3s1,0,1.3-.3c.4-.2.7-.5.9-.8.2-.3.3-.8.3-1.2s-.1-.9-.3-1.2c-.2-.3-.5-.6-.9-.8-.4-.2-.9-.3-1.4-.3s-.4,0-.7,0c-.2,0-.4,0-.6.1l.9-1.2c.3,0,.5-.2.8-.2.3,0,.6-.1.8-.1.6,0,1.2.2,1.7.5.5.3.9.8,1.2,1.3.3.6.5,1.2.5,2s-.2,1.5-.6,2.2c-.4.6-.9,1.1-1.6,1.5s-1.5.5-2.4.5ZM52.7,71.8v-1.2l3.4-3.9h2.5c0,0-3.5,4-3.5,4l-2.3,1.2ZM50.7,67.3v-1.9h7.8v1.2l-1.8.6h-6ZM59.2,76.8l4.6-4.9c.4-.4.7-.8.9-1.1.2-.3.4-.6.5-.9.1-.3.2-.6.2-.9,0-.6-.2-1-.6-1.3-.4-.3-.8-.5-1.4-.5s-1.1.1-1.6.4c-.5.3-.9.8-1.2,1.4l-1.4-1.2c.5-.9,1.1-1.5,1.8-1.9.7-.4,1.6-.7,2.5-.7s1.5.2,2.1.5c.6.3,1,.8,1.4,1.3.3.6.5,1.2.5,1.9s0,1-.2,1.4c-.1.4-.3.8-.6,1.2-.3.4-.7.9-1.2,1.4l-3.6,3.7h-2.7ZM59.2,78v-1.2l1.8-.6h6.8v1.9h-8.5ZM73.6,78.2c-.9,0-1.8-.3-2.6-.8-.8-.5-1.4-1.3-1.9-2.3s-.7-2.1-.7-3.4.2-2.5.7-3.4c.5-1,1.1-1.7,1.9-2.2.8-.5,1.6-.8,2.6-.8s1.8.3,2.6.8,1.4,1.3,1.9,2.2c.5,1,.7,2.1.7,3.4s-.2,2.5-.7,3.4c-.5,1-1.1,1.7-1.9,2.2-.8.5-1.6.8-2.6.8ZM73.6,76.2c.6,0,1.2-.2,1.6-.5.5-.3.8-.8,1.1-1.5.3-.7.4-1.5.4-2.5s-.1-1.8-.4-2.5c-.3-.7-.6-1.2-1.1-1.5-.5-.3-1-.5-1.6-.5s-1.2.2-1.6.5c-.5.3-.8.8-1.1,1.5-.3.7-.4,1.5-.4,2.5s.1,1.9.4,2.5c.3.7.6,1.2,1.1,1.5.5.3,1,.5,1.6.5ZM79.4,80.1l1.2-2.3.7-.2c0,.1-.2.3-.3.4,0,0-.2.1-.3.1-.3,0-.5-.1-.8-.3-.2-.2-.3-.5-.3-.9s.1-.7.4-1c.3-.3.6-.4,1-.4s.7.1.9.4c.3.3.4.6.4,1s0,.3-.1.6c0,.2-.2.5-.3.8l-1.3,2.4-1.1-.6ZM87,78.2c-.9,0-1.7-.2-2.3-.4-.7-.3-1.3-.8-1.7-1.4l1.4-1.4c.3.4.6.7,1.1.9.5.2,1,.3,1.6.3s1,0,1.4-.3c.4-.2.7-.5.9-.8s.3-.8.3-1.3-.1-.9-.3-1.3c-.2-.3-.5-.6-.9-.8-.4-.2-.8-.3-1.2-.3s-.9,0-1.3.2c-.4.1-.7.3-1.1.6v-1.3c.2-.3.5-.5.7-.6.3-.2.5-.3.9-.4s.7-.1,1.2-.1c.9,0,1.6.2,2.2.6.6.4,1.1.9,1.4,1.5.3.6.5,1.3.5,2.1s-.2,1.5-.6,2.2c-.4.6-.9,1.1-1.7,1.5-.7.4-1.5.5-2.4.5ZM84.9,72.3l-1.1-1.1.6-5.7h1.9l-.6,6-.7.9ZM84.7,67.3l-.4-1.9h6.8v1.9h-6.4ZM92.2,76.8l4.6-4.9c.4-.4.7-.8.9-1.1.2-.3.4-.6.5-.9.1-.3.2-.6.2-.9,0-.6-.2-1-.6-1.3-.4-.3-.8-.5-1.4-.5s-1.1.1-1.6.4c-.5.3-.9.8-1.2,1.4l-1.4-1.2c.5-.9,1.1-1.5,1.8-1.9.7-.4,1.6-.7,2.5-.7s1.5.2,2.1.5c.6.3,1,.8,1.4,1.3.3.6.5,1.2.5,1.9s0,1-.2,1.4c-.1.4-.3.8-.6,1.2-.3.4-.7.9-1.2,1.4l-3.6,3.7h-2.7ZM92.2,78v-1.2l1.8-.6h6.8v1.9h-8.6Z"/>
  <path class="st2" d="M306,29.5h0c6.9,0,12.5,5.6,12.5,12.5h0c0,6.9-5.6,12.5-12.5,12.5h0c-6.9,0-12.5-5.6-12.5-12.5h0c0-6.9,5.6-12.5,12.5-12.5Z"/>
  <path class="st1" d="M304.7,44.3l3.8-3.8M308.5,40.5v2.9M308.5,40.5h-2.9"/>
  <path class="st3" d="M31,177h318"/>
</svg>