<?xml version="1.0" encoding="UTF-8"?>
<svg id="Layer_1" xmlns="http://www.w3.org/2000/svg" version="1.1" viewBox="0 0 1920 950">
  <!-- Generator: Adobe Illustrator 29.8.1, SVG Export Plug-In . SVG Version: 2.1.1 Build 2)  -->
  <defs>
    <style>
      .st0 {
        opacity: .3;
      }

      .st0, .st1 {
        isolation: isolate;
      }

      .st0, .st1, .st2 {
        fill: #ff0606;
      }

      .st1 {
        opacity: .1;
      }

      .st3 {
        opacity: .5;
      }
    </style>
  </defs>
  <path class="st2" d="M405,116.3h.8s.5-.7.5-.7v.8s.7.5.7.5h-.8s-.5.7-.5.7v-.8s-.7-.5-.7-.5Z"/>
  <path class="st2" d="M408.1,292.6h.8s.5-.7.5-.7v.8s.7.5.7.5h-.8s-.5.7-.5.7v-.8s-.7-.5-.7-.5Z"/>
  <path class="st2" d="M73.1,536.5h.8s.5-.7.5-.7v.8s.7.5.7.5h-.8s-.5.7-.5.7v-.8s-.7-.5-.7-.5Z"/>
  <path class="st2" d="M179.1,174.2h.8s.5-.7.5-.7v.8s.7.5.7.5h-.8s-.5.7-.5.7v-.8s-.7-.5-.7-.5Z"/>
  <path class="st2" d="M345.9,85.1h.8s.5-.7.5-.7v.8s.7.5.7.5h-.8s-.5.7-.5.7v-.8s-.7-.5-.7-.5Z"/>
  <path class="st2" d="M227.7,115.2h.8s.5-.7.5-.7v.8s.7.5.7.5h-.8s-.5.7-.5.7v-.8s-.7-.5-.7-.5Z"/>
  <path class="st2" d="M114.2,685h.8s.5-.7.5-.7v.8s.7.5.7.5h-.8s-.5.7-.5.7v-.8s-.7-.5-.7-.5Z"/>
  <path class="st2" d="M107.2,171.6h.8s.5-.7.5-.7v.8s.7.5.7.5h-.8s-.5.7-.5.7v-.8s-.7-.5-.7-.5Z"/>
  <path class="st2" d="M246.9,652.5h.8s.5-.7.5-.7v.8s.7.5.7.5h-.8s-.5.7-.5.7v-.8s-.7-.5-.7-.5Z"/>
  <path class="st2" d="M390.2,353.4h.8s.5-.7.5-.7v.8s.7.5.7.5h-.8s-.5.7-.5.7v-.8s-.7-.5-.7-.5Z"/>
  <path class="st2" d="M590,403.2h.8s.5-.7.5-.7v.8s.7.5.7.5h-.8s-.5.7-.5.7v-.8s-.7-.5-.7-.5Z"/>
  <path class="st2" d="M531.6,258.6h.8s.5-.7.5-.7v.8s.7.5.7.5h-.8s-.5.7-.5.7v-.8s-.7-.5-.7-.5Z"/>
  <path class="st2" d="M367.6,211.6h.8s.5-.7.5-.7v.8s.7.5.7.5h-.8s-.5.7-.5.7v-.8s-.7-.5-.7-.5Z"/>
  <path class="st2" d="M202.3,405.7h.8s.5-.7.5-.7v.8s.7.5.7.5h-.8s-.5.7-.5.7v-.8s-.7-.5-.7-.5Z"/>
  <path class="st2" d="M1102.9,154.8h.8s.5-.7.5-.7v.8s.7.5.7.5h-.8s-.5.7-.5.7v-.8s-.7-.5-.7-.5Z"/>
  <path class="st2" d="M273.8,230.3h.8s.5-.7.5-.7v.8s.7.5.7.5h-.8s-.5.7-.5.7v-.8s-.7-.5-.7-.5Z"/>
  <path class="st2" d="M359.7,30.2h.8s.5-.7.5-.7v.8s.7.5.7.5h-.8s-.5.7-.5.7v-.8s-.7-.5-.7-.5Z"/>
  <path class="st2" d="M262.5,139.8h.8s.5-.7.5-.7v.8s.7.5.7.5h-.8s-.5.7-.5.7v-.8s-.7-.5-.7-.5Z"/>
  <path class="st2" d="M249.3,309.6h.8s.5-.7.5-.7v.8s.7.5.7.5h-.8s-.5.7-.5.7v-.8s-.7-.5-.7-.5Z"/>
  <path class="st2" d="M973.9,199.8h.8s.5-.7.5-.7v.8s.7.5.7.5h-.8s-.5.7-.5.7v-.8s-.7-.5-.7-.5Z"/>
  <path class="st2" d="M15.8,586.3h.8s.5-.7.5-.7v.8s.7.5.7.5h-.8s-.5.7-.5.7v-.8s-.7-.5-.7-.5Z"/>
  <path class="st2" d="M283.2,596.5h.8s.5-.7.5-.7v.8s.7.5.7.5h-.8s-.5.7-.5.7v-.8s-.7-.5-.7-.5Z"/>
  <path class="st2" d="M407.3,454.6h.8s.5-.7.5-.7v.8s.7.5.7.5h-.8s-.5.7-.5.7v-.8s-.7-.5-.7-.5Z"/>
  <path class="st2" d="M179.3,641h2.5c0-.1,1.6-2.1,1.6-2.1v2.5c.1,0,2.1,1.6,2.1,1.6h-2.5c0,.1-1.6,2.1-1.6,2.1v-2.5c-.1,0-2.1-1.6-2.1-1.6Z"/>
  <path class="st2" d="M183.4,500.4h2.5c0-.1,1.6-2.1,1.6-2.1v2.5c.1,0,2.1,1.6,2.1,1.6h-2.5c0,.1-1.6,2.1-1.6,2.1v-2.5c-.1,0-2.1-1.6-2.1-1.6Z"/>
  <path class="st2" d="M1853.5,847.9h2.5c0-.1,1.6-2.1,1.6-2.1v2.5c.1,0,2.1,1.6,2.1,1.6h-2.6c0,.1-1.6,2.1-1.6,2.1v-2.5c-.1,0-2.1-1.6-2.1-1.6Z"/>
  <path class="st2" d="M1809.5,221.9h2.5c0-.1,1.6-2.1,1.6-2.1v2.5c.1,0,2.1,1.6,2.1,1.6h-2.6c0,.1-1.6,2.1-1.6,2.1v-2.5c-.1,0-2.1-1.6-2.1-1.6Z"/>
  <path class="st2" d="M1811.5,479.9h2.5c0-.1,1.6-2.1,1.6-2.1v2.5c.1,0,2.1,1.6,2.1,1.6h-2.6c0,.1-1.6,2.1-1.6,2.1v-2.5c-.1,0-2.1-1.6-2.1-1.6Z"/>
  <path class="st2" d="M438.1,94.1h2.5c0-.1,1.6-2.1,1.6-2.1v2.5c.1,0,2.1,1.6,2.1,1.6h-2.5c0,.1-1.6,2.1-1.6,2.1v-2.5c-.1,0-2.1-1.6-2.1-1.6Z"/>
  <path class="st2" d="M344.9,253.5h2.5c0-.1,1.6-2.1,1.6-2.1v2.5c.1,0,2.1,1.6,2.1,1.6h-2.5c0,.1-1.6,2.1-1.6,2.1v-2.5c-.1,0-2.1-1.6-2.1-1.6Z"/>
  <path class="st2" d="M1738.5,575.9h2.5c0-.1,1.6-2.1,1.6-2.1v2.5c.1,0,2.1,1.6,2.1,1.6h-2.6c0,.1-1.6,2.1-1.6,2.1v-2.5c-.1,0-2.1-1.6-2.1-1.6Z"/>
  <path class="st2" d="M830.5,737.9h2.5c0-.1,1.6-2.1,1.6-2.1v2.5c.1,0,2.1,1.6,2.1,1.6h-2.5c0,.1-1.6,2.1-1.6,2.1v-2.5c-.1,0-2.1-1.6-2.1-1.6Z"/>
  <path class="st2" d="M169.4,301h2.5c0-.1,1.6-2.1,1.6-2.1v2.5c.1,0,2.1,1.6,2.1,1.6h-2.5c0,.1-1.6,2.1-1.6,2.1v-2.5c-.1,0-2.1-1.6-2.1-1.6Z"/>
  <path class="st2" d="M235.6,194.3h2.5c0-.1,1.6-2.1,1.6-2.1v2.5c.1,0,2.1,1.6,2.1,1.6h-2.5c0,.1-1.6,2.1-1.6,2.1v-2.5c-.1,0-2.1-1.6-2.1-1.6Z"/>
  <path class="st2" d="M1570.5,120.9h2.5c0-.1,1.6-2.1,1.6-2.1v2.5c.1,0,2.1,1.6,2.1,1.6h-2.6c0,.1-1.6,2.1-1.6,2.1v-2.5c-.1,0-2.1-1.6-2.1-1.6Z"/>
  <g class="st3">
    <path class="st2" d="M647,592.5l.6.6h.8c0-.1-.6.5-.6.5v.8c0,0-.5-.6-.5-.6h-.8c0,0,.6-.5.6-.5v-.8Z"/>
    <path class="st2" d="M524.6,739.4l.6.6h.8c0-.1-.6.5-.6.5v.8c0,0-.5-.6-.5-.6h-.8c0,.1.6-.5.6-.5v-.8Z"/>
    <path class="st2" d="M115.2,675l.6.6h.8c0-.1-.6.5-.6.5v.8c0,0-.5-.6-.5-.6h-.8c0,0,.6-.5.6-.5v-.8Z"/>
    <path class="st2" d="M21.4,335.6l.6.6h.8c0,0-.6.5-.6.5v.8c0,0-.5-.6-.5-.6h-.8c0,0,.6-.5.6-.5v-.8Z"/>
    <path class="st2" d="M446.4,493.8l.6.6h.8c0,0-.6.5-.6.5v.8c.1,0-.5-.6-.5-.6h-.8c0,.1.6-.5.6-.5v-.8Z"/>
    <path class="st2" d="M627.4,528.7l.6.6h.8c0,0-.6.5-.6.5v.8c0,0-.5-.6-.5-.6h-.8c0,.1.6-.5.6-.5v-.8Z"/>
    <path class="st2" d="M522.5,486.4l.6.6h.8c0-.1-.6.5-.6.5v.8c0,0-.5-.6-.5-.6h-.8c0,0,.6-.5.6-.5v-.8Z"/>
    <path class="st2" d="M39.3,809l.6.6h.8c0,0-.6.5-.6.5v.8c0,0-.5-.6-.5-.6h-.8c0,.1.6-.5.6-.5v-.8Z"/>
    <path class="st2" d="M397.3,441.1l.6.6h.8c0,0-.6.5-.6.5v.8c0,0-.5-.6-.5-.6h-.8c0,.1.6-.5.6-.5v-.8Z"/>
    <path class="st2" d="M156.1,879.9l.6.6h.8c0,0-.6.5-.6.5v.8c.1,0-.5-.6-.5-.6h-.8c0,0,.6-.5.6-.5v-.8Z"/>
    <path class="st2" d="M468.9,769.7l.6.6h.8c0,0-.6.5-.6.5v.8c0,0-.5-.6-.5-.6h-.8c0,.1.6-.5.6-.5v-.8Z"/>
    <path class="st2" d="M575,946.2l.6.6h.8c0,0-.6.5-.6.5v.8c.1,0-.5-.6-.5-.6h-.8c0,.1.6-.5.6-.5v-.8Z"/>
    <path class="st2" d="M635.9,782.7l.6.6h.8c0,0-.6.5-.6.5v.8c0,0-.5-.6-.5-.6h-.8c0,0,.6-.5.6-.5v-.8Z"/>
    <path class="st2" d="M553.2,653.5l.6.6h.8c0-.1-.6.5-.6.5v.8c0,0-.5-.6-.5-.6h-.8c0,0,.6-.5.6-.5v-.8Z"/>
    <path class="st2" d="M299.1,673.9l.6.6h.8c0-.1-.6.5-.6.5v.8c.1,0-.5-.6-.5-.6h-.8c0,.1.6-.5.6-.5v-.8Z"/>
    <path class="st2" d="M473.7,600.3l.6.6h.8c0,0-.6.5-.6.5v.8c.1,0-.5-.6-.5-.6h-.8c0,0,.6-.5.6-.5v-.8Z"/>
    <path class="st2" d="M675.9,499.6l.6.6h.8c0-.1-.6.5-.6.5v.8c.1,0-.5-.6-.5-.6h-.8c0,0,.6-.5.6-.5v-.8Z"/>
    <path class="st2" d="M529.7,528.4l.6.6h.8c0,0-.6.5-.6.5v.8c.1,0-.5-.6-.5-.6h-.8c0,0,.6-.5.6-.5v-.8Z"/>
    <path class="st2" d="M400.3,639.1l.6.6h.8c0,0-.6.5-.6.5v.8c0,0-.5-.6-.5-.6h-.8c0,0,.6-.5.6-.5v-.8Z"/>
    <path class="st2" d="M39.5,669.7l.6.6h.8c0-.1-.6.5-.6.5v.8c0,0-.5-.6-.5-.6h-.8c0,.1.6-.5.6-.5v-.8Z"/>
    <path class="st2" d="M221.4,866l.6.6h.8c0,0-.6.5-.6.5v.8c0,0-.5-.6-.5-.6h-.8c0,.1.6-.5.6-.5v-.8Z"/>
    <path class="st2" d="M409.5,853.3l.6.6h.8c0,0-.6.5-.6.5v.8c0,0-.5-.6-.5-.6h-.8c0,0,.6-.5.6-.5v-.8Z"/>
    <path class="st2" d="M107.3,566.5l.6.6h.8c0,0-.6.5-.6.5v.8c0,0-.5-.6-.5-.6h-.8c0,0,.6-.5.6-.5v-.8Z"/>
    <path class="st2" d="M29.7,480.7l1.9,1.7,2.5-.3-1.7,1.9.3,2.5-1.9-1.7-2.5.3,1.7-1.9-.3-2.5Z"/>
    <path class="st2" d="M116.4,824l1.9,1.7,2.5-.3-1.7,1.9.3,2.5-1.9-1.7-2.5.3,1.7-1.9-.3-2.5Z"/>
    <path class="st2" d="M218.7,727.5l1.9,1.7,2.5-.3-1.7,1.9.3,2.5-1.9-1.7-2.5.3,1.7-1.9-.3-2.5Z"/>
    <path class="st2" d="M1319.9,876l1.9,1.7,2.5-.3-1.7,1.9.3,2.5-1.9-1.7-2.5.3,1.7-1.9-.3-2.5Z"/>
    <path class="st2" d="M1233.4,183.3l1.9,1.7,2.5-.3-1.7,1.9.3,2.5-1.9-1.7-2.5.3,1.7-1.9-.3-2.5Z"/>
    <path class="st2" d="M476,822l1.9,1.7,2.5-.3-1.7,1.9.3,2.5-1.9-1.7-2.5.3,1.7-1.9-.3-2.5Z"/>
    <path class="st2" d="M1011.5,435.3l1.9,1.7,2.5-.3-1.7,1.9.3,2.5-1.9-1.7-2.5.3,1.7-1.9-.3-2.5Z"/>
    <path class="st2" d="M507.5,667.1l1.9,1.7,2.5-.3-1.7,1.9.3,2.5-1.9-1.7-2.5.3,1.7-1.9-.3-2.5Z"/>
    <path class="st2" d="M349.8,576.5l1.9,1.7,2.5-.3-1.7,1.9.3,2.5-1.9-1.7-2.5.3,1.7-1.9-.3-2.5Z"/>
    <path class="st2" d="M472.1,547.9l1.9,1.7,2.5-.3-1.7,1.9.3,2.5-1.9-1.7-2.5.3,1.7-1.9-.3-2.5Z"/>
  </g>
  <path class="st1" d="M831.9,58.6c.4.4.4,1,0,1.4-.4.4-1,.4-1.4,0-.4-.4-.4-1,0-1.4.4-.4,1-.4,1.4,0Z"/>
  <path class="st2" d="M838.1,56.9c.3.3.3.8,0,1.1-.3.3-.8.3-1.1,0-.3-.3-.3-.8,0-1.1.3-.3.8-.3,1.1,0Z"/>
  <path class="st2" d="M842.6,76.1c.3.3.3.8,0,1.1-.3.3-.8.3-1.1,0-.3-.3-.3-.8,0-1.1.3-.3.8-.3,1.1,0Z"/>
  <path class="st2" d="M811.3,47c.3.3.3.8,0,1.1-.3.3-.8.3-1.1,0-.3-.3-.3-.8,0-1.1.3-.3.8-.3,1.1,0Z"/>
  <path class="st1" d="M802,21c.4.4.4,1,0,1.4-.4.4-1,.4-1.4,0-.4-.4-.4-1,0-1.4.4-.4,1-.4,1.4,0Z"/>
  <path class="st2" d="M787.4,22.3c.2.2.2.5,0,.7-.2.2-.5.2-.7,0-.2-.2-.2-.5,0-.7.2-.2.5-.2.7,0Z"/>
  <path class="st2" d="M844.5,43.6c.2.2.2.5,0,.7-.2.2-.5.2-.7,0-.2-.2-.2-.5,0-.7.2-.2.5-.2.7,0Z"/>
  <path class="st2" d="M922.9,119.9c.2.2.2.5,0,.7-.2.2-.5.2-.7,0-.2-.2-.2-.5,0-.7.2-.2.5-.2.7,0Z"/>
  <path class="st2" d="M943.1,177.5c.2.2.2.5,0,.7-.2.2-.5.2-.7,0-.2-.2-.2-.5,0-.7.2-.2.5-.2.7,0Z"/>
  <path class="st2" d="M982.7,165c.2.2.2.5,0,.7-.2.2-.5.2-.7,0-.2-.2-.2-.5,0-.7.2-.2.5-.2.7,0Z"/>
  <path class="st1" d="M788.7,14.4c.2.2.2.5,0,.7-.2.2-.5.2-.7,0-.2-.2-.2-.5,0-.7.2-.2.5-.2.7,0Z"/>
  <path class="st1" d="M856.4,29.9c.2.2.2.5,0,.7-.2.2-.5.2-.7,0-.2-.2-.2-.5,0-.7.2-.2.5-.2.7,0Z"/>
  <path class="st1" d="M921.9,100.8c.2.2.2.5,0,.7-.2.2-.5.2-.7,0-.2-.2-.2-.5,0-.7.2-.2.5-.2.7,0Z"/>
  <path class="st2" d="M787.6,61c.2.2.2.5,0,.7-.2.2-.5.2-.7,0-.2-.2-.2-.5,0-.7.2-.2.5-.2.7,0Z"/>
  <path class="st2" d="M842.2,115.6c.2.2.2.5,0,.7-.2.2-.5.2-.7,0-.2-.2-.2-.5,0-.7.2-.2.5-.2.7,0Z"/>
  <path class="st2" d="M795.4,4.1c.2.2.2.5,0,.7-.2.2-.5.2-.7,0-.2-.2-.2-.5,0-.7.2-.2.5-.2.7,0Z"/>
  <path class="st0" d="M802.4,58.6c.2.2.2.5,0,.7-.2.2-.5.2-.7,0-.2-.2-.2-.5,0-.7.2-.2.5-.2.7,0Z"/>
  <path class="st0" d="M808.1,3.2c.2.2.2.5,0,.7-.2.2-.5.2-.7,0-.2-.2-.2-.5,0-.7.2-.2.5-.2.7,0Z"/>
  <path class="st0" d="M956.8,190.2c.2.2.2.5,0,.7-.2.2-.5.2-.7,0-.2-.2-.2-.5,0-.7.2-.2.5-.2.7,0Z"/>
  <path class="st1" d="M884.5,148.5c.2.2.2.5,0,.7-.2.2-.5.2-.7,0-.2-.2-.2-.5,0-.7.2-.2.5-.2.7,0Z"/>
  <path class="st1" d="M962.1,165.2c.2.2.2.5,0,.7-.2.2-.5.2-.7,0-.2-.2-.2-.5,0-.7.2-.2.5-.2.7,0Z"/>
  <path class="st0" d="M874.3,73.3c.4.4.4,1,0,1.4-.4.4-1,.4-1.4,0-.4-.4-.4-1,0-1.4.4-.4,1-.4,1.4,0Z"/>
  <path class="st1" d="M885,104.8c.4.4.4,1,0,1.4-.4.4-1,.4-1.4,0s-.4-1,0-1.4c.4-.4,1-.4,1.4,0Z"/>
  <path class="st2" d="M872.6,117.2c.3.3.3.8,0,1.1-.3.3-.8.3-1.1,0-.3-.3-.3-.8,0-1.1.3-.3.8-.3,1.1,0Z"/>
  <path class="st2" d="M884.6,55.3c.3.3.3.8,0,1.1-.3.3-.8.3-1.1,0-.3-.3-.3-.8,0-1.1.3-.3.8-.3,1.1,0Z"/>
  <path class="st2" d="M1011,164.4c.3.3.3.8,0,1.1-.3.3-.8.3-1.1,0-.3-.3-.3-.8,0-1.1s.8-.3,1.1,0Z"/>
  <path class="st2" d="M862.4,93.2c.3.3.3.8,0,1.1-.3.3-.8.3-1.1,0-.3-.3-.3-.8,0-1.1.3-.3.8-.3,1.1,0Z"/>
  <path class="st2" d="M825.7,5.6c.3.3.3.8,0,1.1-.3.3-.8.3-1.1,0-.3-.3-.3-.8,0-1.1.3-.3.8-.3,1.1,0Z"/>
  <path class="st2" d="M931.4,78.5c.3.3.3.8,0,1.1-.3.3-.8.3-1.1,0-.3-.3-.3-.8,0-1.1.3-.3.8-.3,1.1,0Z"/>
  <path class="st2" d="M1002.8,195.8c.3.3.3.8,0,1.1-.3.3-.8.3-1.1,0-.3-.3-.3-.8,0-1.1.3-.3.8-.3,1.1,0Z"/>
  <path class="st2" d="M992.2,224c.3.3.3.8,0,1.1-.3.3-.8.3-1.1,0-.3-.3-.3-.8,0-1.1.3-.3.8-.3,1.1,0Z"/>
  <path class="st0" d="M902.6,145.8c.4.4.4,1,0,1.4-.4.4-1,.4-1.4,0-.4-.4-.4-1,0-1.4.4-.4,1-.4,1.4,0Z"/>
  <path class="st2" d="M877.7,171.3c.4.4.4,1,0,1.4-.4.4-1,.4-1.4,0-.4-.4-.4-1,0-1.4.4-.4,1-.4,1.4,0Z"/>
  <path class="st2" d="M928.8,155.9c.3.3.3.8,0,1.1-.3.3-.8.3-1.1,0-.3-.3-.3-.8,0-1.1.3-.3.8-.3,1.1,0Z"/>
  <path class="st0" d="M932.6,186.9c.4.4.4,1,0,1.4-.4.4-1,.4-1.4,0-.4-.4-.4-1,0-1.4.4-.4,1-.4,1.4,0Z"/>
  <path class="st0" d="M993.1,196.1c.4.4.4,1,0,1.4-.4.4-1,.4-1.4,0-.4-.4-.4-1,0-1.4s1-.4,1.4,0Z"/>
  <path class="st0" d="M951.7,154.4c.4.4.4,1,0,1.4-.4.4-1,.4-1.4,0-.4-.4-.4-1,0-1.4.4-.4,1-.4,1.4,0Z"/>
  <path class="st1" d="M967.8,192.5c.4.4.4,1,0,1.4-.4.4-1,.4-1.4,0-.4-.4-.4-1,0-1.4.4-.4,1-.4,1.4,0Z"/>
  <path class="st0" d="M742.4.8c.4.4.4,1,0,1.4-.4.4-1,.4-1.4,0-.4-.4-.4-1,0-1.4.4-.4,1-.4,1.4,0Z"/>
  <path class="st1" d="M725.7-1.4c.4.4.4,1,0,1.4-.4.4-1,.4-1.4,0-.4-.4-.4-1,0-1.4.4-.4,1-.4,1.4,0Z"/>
  <path class="st1" d="M849.2,289.6c.4.4.4,1,0,1.4s-1,.4-1.4,0c-.4-.4-.4-1,0-1.4.4-.4,1-.4,1.4,0Z"/>
  <path class="st2" d="M855.4,287.9c.3.3.3.8,0,1.1-.3.3-.8.3-1.1,0-.3-.3-.3-.8,0-1.1.3-.3.8-.3,1.1,0Z"/>
  <path class="st2" d="M859.9,307c.3.3.3.8,0,1.1-.3.3-.8.3-1.1,0-.3-.3-.3-.8,0-1.1.3-.3.8-.3,1.1,0Z"/>
  <path class="st2" d="M828.7,278c.3.3.3.8,0,1.1-.3.3-.8.3-1.1,0-.3-.3-.3-.8,0-1.1.3-.3.8-.3,1.1,0Z"/>
  <path class="st1" d="M819.3,252c.4.4.4,1,0,1.4-.4.4-1,.4-1.4,0-.4-.4-.4-1,0-1.4.4-.4,1-.4,1.4,0Z"/>
  <path class="st2" d="M804.7,253.2c.2.2.2.5,0,.7-.2.2-.5.2-.7,0-.2-.2-.2-.5,0-.7.2-.2.5-.2.7,0Z"/>
  <path class="st2" d="M861.8,274.5c.2.2.2.5,0,.7s-.5.2-.7,0c-.2-.2-.2-.5,0-.7.2-.2.5-.2.7,0Z"/>
  <path class="st2" d="M940.2,350.9c.2.2.2.5,0,.7-.2.2-.5.2-.7,0-.2-.2-.2-.5,0-.7.2-.2.5-.2.7,0Z"/>
  <path class="st2" d="M960.4,408.5c.2.2.2.5,0,.7-.2.2-.5.2-.7,0-.2-.2-.2-.5,0-.7.2-.2.5-.2.7,0Z"/>
  <path class="st2" d="M1000,395.9c.2.2.2.5,0,.7-.2.2-.5.2-.7,0-.2-.2-.2-.5,0-.7.2-.2.5-.2.7,0Z"/>
  <path class="st2" d="M733.3,166.8c.2.2.2.5,0,.7-.2.2-.5.2-.7,0-.2-.2-.2-.5,0-.7.2-.2.5-.2.7,0Z"/>
  <path class="st1" d="M709,181c.2.2.2.5,0,.7-.2.2-.5.2-.7,0-.2-.2-.2-.5,0-.7.2-.2.5-.2.7,0Z"/>
  <path class="st1" d="M701.6,157.6c.2.2.2.5,0,.7-.2.2-.5.2-.7,0-.2-.2-.2-.5,0-.7.2-.2.5-.2.7,0Z"/>
  <path class="st1" d="M734.5,147.6c.2.2.2.5,0,.7-.2.2-.5.2-.7,0-.2-.2-.2-.5,0-.7.2-.2.5-.2.7,0Z"/>
  <path class="st1" d="M806.1,245.4c.2.2.2.5,0,.7-.2.2-.5.2-.7,0-.2-.2-.2-.5,0-.7.2-.2.5-.2.7,0Z"/>
  <path class="st1" d="M873.7,260.9c.2.2.2.5,0,.7-.2.2-.5.2-.7,0-.2-.2-.2-.5,0-.7.2-.2.5-.2.7,0Z"/>
  <path class="st1" d="M939.2,331.7c.2.2.2.5,0,.7-.2.2-.5.2-.7,0-.2-.2-.2-.5,0-.7.2-.2.5-.2.7,0Z"/>
  <path class="st0" d="M741.1,191.9c.2.2.2.5,0,.7-.2.2-.5.2-.7,0-.2-.2-.2-.5,0-.7.2-.2.5-.2.7,0Z"/>
  <path class="st2" d="M804.9,291.9c.2.2.2.5,0,.7-.2.2-.5.2-.7,0-.2-.2-.2-.5,0-.7.2-.2.5-.2.7,0Z"/>
  <path class="st2" d="M859.5,346.6c.2.2.2.5,0,.7-.2.2-.5.2-.7,0-.2-.2-.2-.5,0-.7.2-.2.5-.2.7,0Z"/>
  <path class="st2" d="M812.7,235c.2.2.2.5,0,.7-.2.2-.5.2-.7,0-.2-.2-.2-.5,0-.7.2-.2.5-.2.7,0Z"/>
  <path class="st0" d="M787.5,210.5c.2.2.2.5,0,.7-.2.2-.5.2-.7,0-.2-.2-.2-.5,0-.7.2-.2.5-.2.7,0Z"/>
  <path class="st1" d="M736.3,204.1c.2.2.2.5,0,.7-.2.2-.5.2-.7,0-.2-.2-.2-.5,0-.7.2-.2.5-.2.7,0Z"/>
  <path class="st0" d="M819.8,289.6c.2.2.2.5,0,.7-.2.2-.5.2-.7,0-.2-.2-.2-.5,0-.7.2-.2.5-.2.7,0Z"/>
  <path class="st0" d="M825.4,234.2c.2.2.2.5,0,.7-.2.2-.5.2-.7,0-.2-.2-.2-.5,0-.7.2-.2.5-.2.7,0Z"/>
  <path class="st0" d="M785.4,188.2c.2.2.2.5,0,.7-.2.2-.5.2-.7,0-.2-.2-.2-.5,0-.7.2-.2.5-.2.7,0Z"/>
  <path class="st0" d="M751.5,202.1c.2.2.2.5,0,.7-.2.2-.5.2-.7,0-.2-.2-.2-.5,0-.7.2-.2.5-.2.7,0Z"/>
  <path class="st0" d="M974.1,421.1c.2.2.2.5,0,.7-.2.2-.5.2-.7,0-.2-.2-.2-.5,0-.7.2-.2.5-.2.7,0Z"/>
  <path class="st1" d="M901.8,379.4c.2.2.2.5,0,.7-.2.2-.5.2-.7,0-.2-.2-.2-.5,0-.7.2-.2.5-.2.7,0Z"/>
  <path class="st1" d="M979.5,396.2c.2.2.2.5,0,.7-.2.2-.5.2-.7,0-.2-.2-.2-.5,0-.7.2-.2.5-.2.7,0Z"/>
  <path class="st0" d="M891.7,304.3c.4.4.4,1,0,1.4-.4.4-1,.4-1.4,0-.4-.4-.4-1,0-1.4.4-.4,1-.4,1.4,0Z"/>
  <path class="st1" d="M902.4,335.8c.4.4.4,1,0,1.4-.4.4-1,.4-1.4,0-.4-.4-.4-1,0-1.4.4-.4,1-.4,1.4,0Z"/>
  <path class="st2" d="M889.9,348.2c.3.3.3.8,0,1.1-.3.3-.8.3-1.1,0-.3-.3-.3-.8,0-1.1s.8-.3,1.1,0Z"/>
  <path class="st2" d="M901.9,286.2c.3.3.3.8,0,1.1-.3.3-.8.3-1.1,0-.3-.3-.3-.8,0-1.1.3-.3.8-.3,1.1,0Z"/>
  <path class="st2" d="M1028.3,395.4c.3.3.3.8,0,1.1-.3.3-.8.3-1.1,0-.3-.3-.3-.8,0-1.1.3-.3.8-.3,1.1,0Z"/>
  <path class="st2" d="M789,174.1c.3.3.3.8,0,1.1-.3.3-.8.3-1.1,0-.3-.3-.3-.8,0-1.1.3-.3.8-.3,1.1,0Z"/>
  <path class="st2" d="M733.1,135.8c.3.3.3.8,0,1.1-.3.3-.8.3-1.1,0-.3-.3-.3-.8,0-1.1.3-.3.8-.3,1.1,0Z"/>
  <path class="st2" d="M713,144.2c.3.3.3.8,0,1.1-.3.3-.8.3-1.1,0-.3-.3-.3-.8,0-1.1.3-.3.8-.3,1.1,0Z"/>
  <path class="st2" d="M879.7,324.2c.3.3.3.8,0,1.1-.3.3-.8.3-1.1,0-.3-.3-.3-.8,0-1.1.3-.3.8-.3,1.1,0Z"/>
  <path class="st2" d="M843,236.6c.3.3.3.8,0,1.1-.3.3-.8.3-1.1,0-.3-.3-.3-.8,0-1.1.3-.3.8-.3,1.1,0Z"/>
  <path class="st2" d="M948.7,309.4c.3.3.3.8,0,1.1-.3.3-.8.3-1.1,0-.3-.3-.3-.8,0-1.1.3-.3.8-.3,1.1,0Z"/>
  <path class="st2" d="M1020.1,426.7c.3.3.3.8,0,1.1-.3.3-.8.3-1.1,0-.3-.3-.3-.8,0-1.1.3-.3.8-.3,1.1,0Z"/>
  <path class="st2" d="M1009.5,454.9c.3.3.3.8,0,1.1-.3.3-.8.3-1.1,0-.3-.3-.3-.8,0-1.1.3-.3.8-.3,1.1,0Z"/>
  <path class="st0" d="M919.9,376.7c.4.4.4,1,0,1.4-.4.4-1,.4-1.4,0-.4-.4-.4-1,0-1.4.4-.4,1-.4,1.4,0Z"/>
  <path class="st2" d="M895,402.2c.4.4.4,1,0,1.4-.4.4-1,.4-1.4,0-.4-.4-.4-1,0-1.4.4-.4,1-.4,1.4,0Z"/>
  <path class="st2" d="M946.1,386.9c.3.3.3.8,0,1.1-.3.3-.8.3-1.1,0-.3-.3-.3-.8,0-1.1.3-.3.8-.3,1.1,0Z"/>
  <path class="st0" d="M949.9,417.9c.4.4.4,1,0,1.4-.4.4-1,.4-1.4,0-.4-.4-.4-1,0-1.4.4-.4,1-.4,1.4,0Z"/>
  <path class="st0" d="M1010.4,427c.4.4.4,1,0,1.4-.4.4-1,.4-1.4,0-.4-.4-.4-1,0-1.4.4-.4,1-.4,1.4,0Z"/>
  <path class="st0" d="M969,385.3c.4.4.4,1,0,1.4-.4.4-1,.4-1.4,0-.4-.4-.4-1,0-1.4.4-.4,1-.4,1.4,0Z"/>
  <path class="st0" d="M768.6,178.1c.4.4.4,1,0,1.4-.4.4-1,.4-1.4,0-.4-.4-.4-1,0-1.4.4-.4,1-.4,1.4,0Z"/>
  <path class="st0" d="M720.2,169.5c.4.4.4,1,0,1.4-.4.4-1,.4-1.4,0-.4-.4-.4-1,0-1.4.4-.4,1-.4,1.4,0Z"/>
  <path class="st1" d="M985.1,423.5c.4.4.4,1,0,1.4-.4.4-1,.4-1.4,0-.4-.4-.4-1,0-1.4.4-.4,1-.4,1.4,0Z"/>
  <path class="st0" d="M759.7,231.8c.4.4.4,1,0,1.4-.4.4-1,.4-1.4,0-.4-.4-.4-1,0-1.4.4-.4,1-.4,1.4,0Z"/>
  <path class="st1" d="M743,229.5c.4.4.4,1,0,1.4-.4.4-1,.4-1.4,0-.4-.4-.4-1,0-1.4.4-.4,1-.4,1.4,0Z"/>
  <path class="st0" d="M762.6,203.7c.4.4.4,1,0,1.4-.4.4-1,.4-1.4,0-.4-.4-.4-1,0-1.4.4-.4,1-.4,1.4,0Z"/>
  <path class="st2" d="M784.7,226c.3.3.3.8,0,1.1-.3.3-.8.3-1.1,0-.3-.3-.3-.8,0-1.1.3-.3.8-.3,1.1,0Z"/>
  <path class="st1" d="M1093.2,417.5c.4.4.4,1,0,1.4-.4.4-1,.4-1.4,0s-.4-1,0-1.4c.4-.4,1-.4,1.4,0Z"/>
  <path class="st2" d="M1099.3,415.8c.3.3.3.8,0,1.1s-.8.3-1.1,0c-.3-.3-.3-.8,0-1.1.3-.3.8-.3,1.1,0Z"/>
  <path class="st2" d="M1103.9,434.9c.3.3.3.8,0,1.1s-.8.3-1.1,0c-.3-.3-.3-.8,0-1.1.3-.3.8-.3,1.1,0Z"/>
  <path class="st2" d="M1072.6,405.9c.3.3.3.8,0,1.1-.3.3-.8.3-1.1,0-.3-.3-.3-.8,0-1.1.3-.3.8-.3,1.1,0Z"/>
  <path class="st1" d="M1063.2,379.9c.4.4.4,1,0,1.4-.4.4-1,.4-1.4,0-.4-.4-.4-1,0-1.4.4-.4,1-.4,1.4,0Z"/>
  <path class="st2" d="M1048.7,381.2c.2.2.2.5,0,.7-.2.2-.5.2-.7,0-.2-.2-.2-.5,0-.7.2-.2.5-.2.7,0Z"/>
  <path class="st2" d="M1105.8,402.4c.2.2.2.5,0,.7-.2.2-.5.2-.7,0-.2-.2-.2-.5,0-.7.2-.2.5-.2.7,0Z"/>
  <path class="st2" d="M1184.1,478.8c.2.2.2.5,0,.7-.2.2-.5.2-.7,0-.2-.2-.2-.5,0-.7.2-.2.5-.2.7,0Z"/>
  <path class="st2" d="M1204.4,536.4c.2.2.2.5,0,.7-.2.2-.5.2-.7,0-.2-.2-.2-.5,0-.7.2-.2.5-.2.7,0Z"/>
  <path class="st2" d="M1244,523.9c.2.2.2.5,0,.7-.2.2-.5.2-.7,0-.2-.2-.2-.5,0-.7.2-.2.5-.2.7,0Z"/>
  <path class="st2" d="M977.3,294.7c.2.2.2.5,0,.7-.2.2-.5.2-.7,0-.2-.2-.2-.5,0-.7.2-.2.5-.2.7,0Z"/>
  <path class="st1" d="M953,308.9c.2.2.2.5,0,.7-.2.2-.5.2-.7,0-.2-.2-.2-.5,0-.7.2-.2.5-.2.7,0Z"/>
  <path class="st1" d="M945.6,285.6c.2.2.2.5,0,.7-.2.2-.5.2-.7,0-.2-.2-.2-.5,0-.7.2-.2.5-.2.7,0Z"/>
  <path class="st1" d="M978.5,275.6c.2.2.2.5,0,.7-.2.2-.5.2-.7,0-.2-.2-.2-.5,0-.7.2-.2.5-.2.7,0Z"/>
  <path class="st1" d="M1050,373.3c.2.2.2.5,0,.7-.2.2-.5.2-.7,0-.2-.2-.2-.5,0-.7.2-.2.5-.2.7,0Z"/>
  <path class="st1" d="M1117.6,388.8c.2.2.2.5,0,.7-.2.2-.5.2-.7,0-.2-.2-.2-.5,0-.7.2-.2.5-.2.7,0Z"/>
  <path class="st1" d="M1183.2,459.7c.2.2.2.5,0,.7-.2.2-.5.2-.7,0-.2-.2-.2-.5,0-.7.2-.2.5-.2.7,0Z"/>
  <path class="st0" d="M985.1,319.9c.2.2.2.5,0,.7-.2.2-.5.2-.7,0-.2-.2-.2-.5,0-.7.2-.2.5-.2.7,0Z"/>
  <path class="st2" d="M1048.8,419.9c.2.2.2.5,0,.7-.2.2-.5.2-.7,0-.2-.2-.2-.5,0-.7.2-.2.5-.2.7,0Z"/>
  <path class="st2" d="M1103.5,474.5c.2.2.2.5,0,.7-.2.2-.5.2-.7,0-.2-.2-.2-.5,0-.7.2-.2.5-.2.7,0Z"/>
  <path class="st2" d="M1056.6,363c.2.2.2.5,0,.7-.2.2-.5.2-.7,0-.2-.2-.2-.5,0-.7.2-.2.5-.2.7,0Z"/>
  <path class="st0" d="M1031.4,338.4c.2.2.2.5,0,.7-.2.2-.5.2-.7,0-.2-.2-.2-.5,0-.7.2-.2.5-.2.7,0Z"/>
  <path class="st1" d="M980.2,332c.2.2.2.5,0,.7-.2.2-.5.2-.7,0-.2-.2-.2-.5,0-.7.2-.2.5-.2.7,0Z"/>
  <path class="st0" d="M1063.7,417.5c.2.2.2.5,0,.7-.2.2-.5.2-.7,0-.2-.2-.2-.5,0-.7.2-.2.5-.2.7,0Z"/>
  <path class="st0" d="M1069.4,362.1c.2.2.2.5,0,.7-.2.2-.5.2-.7,0-.2-.2-.2-.5,0-.7.2-.2.5-.2.7,0Z"/>
  <path class="st0" d="M1029.4,316.1c.2.2.2.5,0,.7-.2.2-.5.2-.7,0-.2-.2-.2-.5,0-.7.2-.2.5-.2.7,0Z"/>
  <path class="st0" d="M995.5,330c.2.2.2.5,0,.7-.2.2-.5.2-.7,0-.2-.2-.2-.5,0-.7.2-.2.5-.2.7,0Z"/>
  <path class="st0" d="M1218,549c.2.2.2.5,0,.7-.2.2-.5.2-.7,0-.2-.2-.2-.5,0-.7.2-.2.5-.2.7,0Z"/>
  <path class="st1" d="M1145.8,507.4c.2.2.2.5,0,.7-.2.2-.5.2-.7,0-.2-.2-.2-.5,0-.7.2-.2.5-.2.7,0Z"/>
  <path class="st1" d="M1223.4,524.1c.2.2.2.5,0,.7-.2.2-.5.2-.7,0-.2-.2-.2-.5,0-.7.2-.2.5-.2.7,0Z"/>
  <path class="st0" d="M1135.6,432.2c.4.4.4,1,0,1.4-.4.4-1,.4-1.4,0-.4-.4-.4-1,0-1.4.4-.4,1-.4,1.4,0Z"/>
  <path class="st1" d="M1146.3,463.7c.4.4.4,1,0,1.4-.4.4-1,.4-1.4,0-.4-.4-.4-1,0-1.4.4-.4,1-.4,1.4,0Z"/>
  <path class="st2" d="M1133.8,476.1c.3.3.3.8,0,1.1s-.8.3-1.1,0c-.3-.3-.3-.8,0-1.1.3-.3.8-.3,1.1,0Z"/>
  <path class="st2" d="M1145.8,414.2c.3.3.3.8,0,1.1-.3.3-.8.3-1.1,0-.3-.3-.3-.8,0-1.1.3-.3.8-.3,1.1,0Z"/>
  <path class="st2" d="M1272.2,508.1c.3.3.3.8,0,1.1-.3.3-.8.3-1.1,0-.3-.3-.3-.8,0-1.1.3-.3.8-.3,1.1,0Z"/>
  <path class="st2" d="M1032.9,302c.3.3.3.8,0,1.1-.3.3-.8.3-1.1,0-.3-.3-.3-.8,0-1.1.3-.3.8-.3,1.1,0Z"/>
  <path class="st2" d="M977.1,263.7c.3.3.3.8,0,1.1-.3.3-.8.3-1.1,0-.3-.3-.3-.8,0-1.1.3-.3.8-.3,1.1,0Z"/>
  <path class="st2" d="M956.9,272.1c.3.3.3.8,0,1.1s-.8.3-1.1,0c-.3-.3-.3-.8,0-1.1.3-.3.8-.3,1.1,0Z"/>
  <path class="st2" d="M1123.6,452.1c.3.3.3.8,0,1.1-.3.3-.8.3-1.1,0-.3-.3-.3-.8,0-1.1.3-.3.8-.3,1.1,0Z"/>
  <path class="st2" d="M1087,364.5c.3.3.3.8,0,1.1-.3.3-.8.3-1.1,0-.3-.3-.3-.8,0-1.1.3-.3.8-.3,1.1,0Z"/>
  <path class="st2" d="M1192.6,437.4c.3.3.3.8,0,1.1-.3.3-.8.3-1.1,0-.3-.3-.3-.8,0-1.1.3-.3.8-.3,1.1,0Z"/>
  <path class="st2" d="M1264.1,539.4c.3.3.3.8,0,1.1-.3.3-.8.3-1.1,0-.3-.3-.3-.8,0-1.1.3-.3.8-.3,1.1,0Z"/>
  <path class="st2" d="M1253.4,582.8c.3.3.3.8,0,1.1-.3.3-.8.3-1.1,0-.3-.3-.3-.8,0-1.1.3-.3.8-.3,1.1,0Z"/>
  <path class="st0" d="M1163.9,504.7c.4.4.4,1,0,1.4-.4.4-1,.4-1.4,0-.4-.4-.4-1,0-1.4.4-.4,1-.4,1.4,0Z"/>
  <path class="st2" d="M1139,530.2c.4.4.4,1,0,1.4-.4.4-1,.4-1.4,0-.4-.4-.4-1,0-1.4.4-.4,1-.4,1.4,0Z"/>
  <path class="st2" d="M1078.7,776.2c.4.4.4,1,0,1.4-.4.4-1,.4-1.4,0-.4-.4-.4-1,0-1.4.4-.4,1-.4,1.4,0Z"/>
  <path class="st2" d="M1190.1,514.8c.3.3.3.8,0,1.1-.3.3-.8.3-1.1,0-.3-.3-.3-.8,0-1.1.3-.3.8-.3,1.1,0Z"/>
  <path class="st0" d="M1193.9,545.8c.4.4.4,1,0,1.4-.4.4-1,.4-1.4,0-.4-.4-.4-1,0-1.4.4-.4,1-.4,1.4,0Z"/>
  <path class="st0" d="M1254.3,555c.4.4.4,1,0,1.4-.4.4-1,.4-1.4,0-.4-.4-.4-1,0-1.4.4-.4,1-.4,1.4,0Z"/>
  <path class="st0" d="M1213,513.3c.4.4.4,1,0,1.4-.4.4-1,.4-1.4,0-.4-.4-.4-1,0-1.4.4-.4,1-.4,1.4,0Z"/>
  <path class="st0" d="M1012.6,306c.4.4.4,1,0,1.4-.4.4-1,.4-1.4,0-.4-.4-.4-1,0-1.4.4-.4,1-.4,1.4,0Z"/>
  <path class="st0" d="M964.2,297.4c.4.4.4,1,0,1.4-.4.4-1,.4-1.4,0-.4-.4-.4-1,0-1.4.4-.4,1-.4,1.4,0Z"/>
  <path class="st1" d="M1229.1,551.4c.4.4.4,1,0,1.4-.4.4-1,.4-1.4,0-.4-.4-.4-1,0-1.4.4-.4,1-.4,1.4,0Z"/>
  <path class="st0" d="M1003.7,359.7c.4.4.4,1,0,1.4-.4.4-1,.4-1.4,0-.4-.4-.4-1,0-1.4.4-.4,1-.4,1.4,0Z"/>
  <path class="st1" d="M987,357.5c.4.4.4,1,0,1.4-.4.4-1,.4-1.4,0-.4-.4-.4-1,0-1.4.4-.4,1-.4,1.4,0Z"/>
  <path class="st0" d="M1006.5,331.6c.4.4.4,1,0,1.4-.4.4-1,.4-1.4,0-.4-.4-.4-1,0-1.4.4-.4,1-.4,1.4,0Z"/>
  <path class="st2" d="M1028.6,353.9c.3.3.3.8,0,1.1s-.8.3-1.1,0c-.3-.3-.3-.8,0-1.1.3-.3.8-.3,1.1,0Z"/>
</svg>